<svg width="73" height="73" viewBox="0 0 73 73" fill="none" xmlns="http://www.w3.org/2000/svg">
<rect width="73" height="73" rx="11" fill="#00FFFF"/>
<path d="M44.3333 26.3335H29.6666C27.7999 26.3335 26.3333 27.8002 26.3333 29.6668V44.3335C26.3333 46.2002 27.7999 47.6668 29.6666 47.6668H44.3333C46.1999 47.6668 47.6666 46.2002 47.6666 44.3335V29.6668C47.6666 27.8002 46.1999 26.3335 44.3333 26.3335ZM44.3333 46.3335H29.6666C28.5333 46.3335 27.6666 45.4668 27.6666 44.3335V29.6668C27.6666 28.5335 28.5333 27.6668 29.6666 27.6668H44.3333C45.4666 27.6668 46.3333 28.5335 46.3333 29.6668V31.6002H30.3333C29.9333 31.6002 29.6666 31.8668 29.6666 32.2668C29.6666 32.6668 29.9333 32.9335 30.3333 32.9335H46.3333V44.3335C46.3333 45.4668 45.4666 46.3335 44.3333 46.3335Z" fill="black"/>
<path d="M31.7334 34.0669C31.1334 34.0669 30.6001 34.6002 30.6001 35.2002C30.6001 35.8002 31.1334 36.3336 31.7334 36.3336C32.3334 36.3336 32.8668 35.8002 32.8668 35.2002C32.8668 34.6002 32.3334 34.0669 31.7334 34.0669ZM37.0001 34.0669C36.4001 34.0669 35.8668 34.6002 35.8668 35.2002C35.8668 35.8002 36.4001 36.3336 37.0001 36.3336C37.6001 36.3336 38.1334 35.8002 38.1334 35.2002C38.1334 34.6002 37.6001 34.0669 37.0001 34.0669ZM42.2668 36.3336C42.8668 36.3336 43.4001 35.8002 43.4001 35.2002C43.4001 34.6002 42.8668 34.0669 42.2668 34.0669C41.6668 34.0669 41.1334 34.6002 41.1334 35.2002C41.1334 35.8002 41.6668 36.3336 42.2668 36.3336ZM31.7334 38.4669C31.1334 38.4669 30.6001 39.0002 30.6001 39.6002C30.6001 40.2002 31.1334 40.7336 31.7334 40.7336C32.3334 40.7336 32.8668 40.2002 32.8668 39.6002C32.8668 38.9336 32.3334 38.4669 31.7334 38.4669ZM37.0001 38.4669C36.4001 38.4669 35.8668 39.0002 35.8668 39.6002C35.8668 40.2002 36.4001 40.7336 37.0001 40.7336C37.6001 40.7336 38.1334 40.2002 38.1334 39.6002C38.1334 38.9336 37.6001 38.4669 37.0001 38.4669ZM42.2668 38.4669C41.6668 38.4669 41.1334 39.0002 41.1334 39.6002V44.0002C41.1334 44.6002 41.6668 45.1336 42.2668 45.1336C42.9334 45.1336 43.4001 44.6002 43.4001 44.0002V39.6002C43.4001 38.9336 42.9334 38.4669 42.2668 38.4669ZM31.7334 42.8002C31.1334 42.8002 30.6001 43.3336 30.6001 43.9336C30.6001 44.5336 31.1334 45.0669 31.7334 45.0669C32.3334 45.0669 32.8668 44.5336 32.8668 43.9336C32.8668 43.3336 32.3334 42.8002 31.7334 42.8002ZM37.0001 42.8002C36.4001 42.8002 35.8668 43.3336 35.8668 43.9336C35.8668 44.5336 36.4001 45.0669 37.0001 45.0669C37.6001 45.0669 38.1334 44.5336 38.1334 43.9336C38.1334 43.3336 37.6001 42.8002 37.0001 42.8002Z" fill="black"/>
</svg>
