<svg width="73" height="73" viewBox="0 0 73 73" fill="none" xmlns="http://www.w3.org/2000/svg">
<rect width="73" height="73" rx="11" fill="#00FFFF"/>
<path fill-rule="evenodd" clip-rule="evenodd" d="M42.6946 26.4077C44.844 26.4077 46.5885 28.1348 46.5885 30.2651C46.5885 32.3955 44.8451 34.1226 42.6946 34.1226C40.5441 34.1226 38.7996 32.3955 38.7996 30.2651C38.7996 28.1348 40.5441 26.4077 42.6946 26.4077ZM42.6946 27.0957C40.9281 27.0957 39.4952 28.5152 39.4952 30.2651C39.4952 32.0151 40.9281 33.4356 42.6946 33.4356C44.4611 33.4356 45.894 32.0161 45.894 30.2651C45.894 28.5152 44.4611 27.0957 42.6946 27.0957Z" fill="#231F20" stroke="#231F20" stroke-width="0.75" stroke-miterlimit="2.613"/>
<path d="M38.8106 44.4576L30.6639 39.4176C31.0052 38.8448 31.1994 38.1764 31.1994 37.4634C31.1994 36.7504 31.0041 36.0819 30.6639 35.5091L38.8062 30.4702C38.9104 32.4299 40.4904 34.0027 42.4653 34.1157V40.8828C40.5134 40.9958 38.9477 42.5316 38.8106 44.4576Z" stroke="#231F20" stroke-width="1.5" stroke-miterlimit="2.613"/>
<path fill-rule="evenodd" clip-rule="evenodd" d="M42.6947 40.8777C44.8441 40.8777 46.5886 42.6048 46.5886 44.7352C46.5886 46.8655 44.8452 48.5926 42.6947 48.5926C40.5442 48.5926 38.7996 46.8655 38.7996 44.7352C38.7996 42.6048 40.5442 40.8777 42.6947 40.8777ZM42.6947 41.5647C40.9282 41.5647 39.4953 42.9842 39.4953 44.7341C39.4953 46.484 40.9282 47.9046 42.6947 47.9046C44.4611 47.9046 45.8941 46.4851 45.8941 44.7341C45.8941 42.9831 44.4611 41.5647 42.6947 41.5647ZM27.3054 33.6074C29.4559 33.6074 31.1994 35.3345 31.1994 37.4648C31.1994 39.5941 29.4559 41.3223 27.3054 41.3223C25.1549 41.3223 23.4115 39.5952 23.4115 37.4648C23.4115 35.3345 25.1549 33.6074 27.3054 33.6074ZM27.3054 34.2954C25.539 34.2954 24.106 35.7149 24.106 37.4648C24.106 39.2148 25.539 40.6343 27.3054 40.6343C29.0719 40.6343 30.5049 39.2148 30.5049 37.4648C30.5049 35.7149 29.0719 34.2954 27.3054 34.2954Z" fill="#231F20" stroke="#231F20" stroke-width="0.75" stroke-miterlimit="2.613"/>
</svg>
