<svg width="73" height="73" viewBox="0 0 73 73" fill="none" xmlns="http://www.w3.org/2000/svg">
<rect width="73" height="73" rx="11" fill="#00FFFF"/>
<g clip-path="url(#clip0_401_28)">
<path d="M36.25 23.9971V25.4971H37.75V23.9971H36.25ZM30.1064 26.54L29.0459 27.6006L30.1064 28.6611L31.167 27.6006L30.1064 26.54ZM43.8936 26.54L42.833 27.6006L43.8936 28.6611L44.9541 27.6006L43.8936 26.54ZM37.041 26.9971C32.9426 26.9971 29.5527 30.119 29.5527 34.0166C29.5527 36.6955 30.8178 38.5262 31.9756 39.8965C32.5545 40.5817 33.1081 41.1709 33.4844 41.6953C33.8607 42.2197 34.0439 42.6435 34.0439 43.0693V45.7764V48.0059H36.2441H37.6973H40.0381V45.7969V43.0693C40.0381 42.6435 40.2239 42.2145 40.6006 41.6865C40.9773 41.1587 41.528 40.5662 42.1064 39.8789C43.2633 38.504 44.5293 36.6758 44.5293 34.0166C44.5293 30.119 41.1394 26.9971 37.041 26.9971ZM37.041 28.4971C40.3853 28.4971 43.0293 30.9904 43.0293 34.0166C43.0293 36.2132 42.0471 37.6207 40.958 38.915C40.4134 39.5621 39.8444 40.1639 39.3789 40.8164C38.9134 41.4688 38.5381 42.2074 38.5381 43.0693V43.752C38.4926 43.7438 38.4466 43.7399 38.4004 43.7402H37.75V37.4971H38.5V35.9971H35.5V37.4971H36.25V43.7402H35.5996C35.5811 43.7395 35.5625 43.7395 35.5439 43.7402V43.0693C35.5439 42.2074 35.1691 41.4685 34.7031 40.8193C34.2372 40.1701 33.6652 39.5736 33.1211 38.9297C32.0328 37.6416 31.0527 36.2369 31.0527 34.0166C31.0527 30.9904 33.6967 28.4971 37.041 28.4971ZM26.5 32.9971V34.4971H28V32.9971H26.5ZM46 32.9971V34.4971H47.5V32.9971H46ZM38.5381 45.2285V45.7969V46.5059H37.6973H36.2441H35.5439V45.7764V45.2373C35.5449 45.2373 35.5459 45.2373 35.5469 45.2373C35.5644 45.2389 35.582 45.2399 35.5996 45.2402H38.4004C38.4466 45.2406 38.4926 45.2367 38.5381 45.2285Z" fill="black"/>
</g>
<defs>
<clipPath id="clip0_401_28">
<rect width="24" height="24" fill="white" transform="translate(25 24)"/>
</clipPath>
</defs>
</svg>
