<svg width="73" height="73" viewBox="0 0 73 73" fill="none" xmlns="http://www.w3.org/2000/svg">
<rect width="73" height="73" rx="11" fill="#00FFFF"/>
<path fill-rule="evenodd" clip-rule="evenodd" d="M44.5 32C44.5 30.9644 45.3394 30.125 46.375 30.125C47.4106 30.125 48.25 30.9644 48.25 32V44.6892L46.375 47.5017L44.5 44.6892V32ZM46.375 31.375C46.0298 31.375 45.75 31.6548 45.75 32V44.3108L46.375 45.2483L47 44.3108V32C47 31.6548 46.7202 31.375 46.375 31.375Z" fill="#333333"/>
<path fill-rule="evenodd" clip-rule="evenodd" d="M47.625 34.5H45.125V33.25H47.625V34.5ZM28.25 27C27.5596 27 27 27.5596 27 28.25V45.7495C27 46.4399 27.5596 46.9995 28.25 46.9995H40.75C41.4404 46.9995 42 46.4399 42 45.7495V28.25C42 27.5596 41.4404 27 40.75 27H28.25ZM25.75 28.25C25.75 26.8693 26.8693 25.75 28.25 25.75H40.75C42.1307 25.75 43.25 26.8693 43.25 28.25V45.7495C43.25 47.1302 42.1307 48.2495 40.75 48.2495H28.25C26.8693 48.2495 25.75 47.1302 25.75 45.7495V28.25Z" fill="#333333"/>
<path fill-rule="evenodd" clip-rule="evenodd" d="M34.5 31.375C34.5 31.0298 34.7798 30.75 35.125 30.75H40.125C40.4702 30.75 40.75 31.0298 40.75 31.375C40.75 31.7202 40.4702 32 40.125 32H35.125C34.7798 32 34.5 31.7202 34.5 31.375ZM34.5 33.875C34.5 33.5298 34.7798 33.25 35.125 33.25H40.125C40.4702 33.25 40.75 33.5298 40.75 33.875C40.75 34.2202 40.4702 34.5 40.125 34.5H35.125C34.7798 34.5 34.5 34.2202 34.5 33.875ZM34.5 39.5C34.5 39.1548 34.7798 38.875 35.125 38.875H40.125C40.4702 38.875 40.75 39.1548 40.75 39.5C40.75 39.8452 40.4702 40.125 40.125 40.125H35.125C34.7798 40.125 34.5 39.8452 34.5 39.5ZM34.5 42C34.5 41.6548 34.7798 41.375 35.125 41.375H40.125C40.4702 41.375 40.75 41.6548 40.75 42C40.75 42.3452 40.4702 42.625 40.125 42.625H35.125C34.7798 42.625 34.5 42.3452 34.5 42ZM29.5 39.5V41.375H31.375V39.5H29.5ZM28.875 38.25H32C32.3452 38.25 32.625 38.5298 32.625 38.875V42C32.625 42.3452 32.3452 42.625 32 42.625H28.875C28.5298 42.625 28.25 42.3452 28.25 42V38.875C28.25 38.5298 28.5298 38.25 28.875 38.25ZM33.0669 30.9331C33.311 31.1771 33.311 31.5729 33.0669 31.8169L30.125 34.7589L28.4331 33.0669C28.189 32.8229 28.189 32.4271 28.4331 32.1831C28.6771 31.939 29.0729 31.939 29.3169 32.1831L30.125 32.9911L32.1831 30.9331C32.4271 30.689 32.8229 30.689 33.0669 30.9331Z" fill="#333333"/>
</svg>
