<svg width="73" height="73" viewBox="0 0 73 73" fill="none" xmlns="http://www.w3.org/2000/svg">
<rect width="73" height="73" rx="11" fill="#00FFFF"/>
<path d="M34.8334 26.1665C34.1834 26.1665 33.75 26.5998 33.75 27.2498V46.7498C33.75 47.3998 34.1834 47.8332 34.8334 47.8332C35.4834 47.8332 35.9167 47.3998 35.9167 46.7498V27.2498C35.9167 26.5998 35.4834 26.1665 34.8334 26.1665ZM29.4167 36.9998C28.7667 36.9998 28.3334 37.4332 28.3334 38.0832V46.7498C28.3334 47.3998 28.7667 47.8332 29.4167 47.8332C30.0667 47.8332 30.5 47.3998 30.5 46.7498V38.0832C30.5 37.4332 30.0667 36.9998 29.4167 36.9998ZM40.25 32.6665C39.6 32.6665 39.1667 33.0998 39.1667 33.7498V46.7498C39.1667 47.3998 39.6 47.8332 40.25 47.8332C40.9 47.8332 41.3334 47.3998 41.3334 46.7498V33.7498C41.3334 33.0998 40.9 32.6665 40.25 32.6665ZM45.6667 41.3332C45.0167 41.3332 44.5834 41.7665 44.5834 42.4165V46.7498C44.5834 47.3998 45.0167 47.8332 45.6667 47.8332C46.3167 47.8332 46.75 47.3998 46.75 46.7498V42.4165C46.75 41.7665 46.3167 41.3332 45.6667 41.3332Z" fill="black"/>
</svg>
