<svg width="100" height="113" viewBox="0 0 100 113" fill="none" xmlns="http://www.w3.org/2000/svg">
<path d="M27.6693 52.8119C30.3699 47.5655 35.3935 43.8672 41.2285 43.2065L41.6276 17.946C41.6312 17.7303 41.4557 17.5524 41.24 17.5548C24.7825 17.7331 10.2611 27.976 3.48376 43.1476C3.38506 43.3685 3.4941 43.6272 3.72015 43.7132L27.6693 52.8119Z" fill="#C6EEEF"/>
<path d="M60.1892 64.9141C59.8513 64.9049 59.5488 65.1202 59.4481 65.4426C59.1656 66.346 58.649 68.0787 58.5643 68.298C58.1528 69.3642 57.6708 70.4036 57.1065 71.3978C56.0599 73.2407 54.7211 74.9301 53.0691 76.2677C48.8829 79.6575 42.8653 80.2875 37.8457 78.6097C37.7029 78.5619 37.5608 78.5106 37.4195 78.4577C37.1581 78.3598 36.8648 78.4684 36.7302 78.7132L24.0737 101.794C30.2195 104.876 36.0032 105.682 43.2589 105.217C64.3403 103.866 80.8941 86.7493 82.7316 65.5222L60.1892 64.9141Z" fill="black"/>
<path d="M60.1892 64.9139C58.817 73.3369 52.592 79.9185 44.1332 80.2058C41.7534 80.2866 38.9143 79.7338 36.8265 78.8881C36.6089 78.7998 36.3593 78.8889 36.2415 79.0919L23.2324 101.472C29.3782 104.553 36.3183 106.062 43.5741 105.597C64.6555 104.246 81.2093 86.6091 83.0467 65.3823L60.1892 64.9139Z" fill="#C6EEEF"/>
<path d="M20.5203 97.9385L33.1164 75.346C33.2055 75.186 33.1677 74.9862 33.0276 74.8684C29.1498 71.6027 26.0493 67.2243 26.0493 61.5461C26.0493 60.1457 25.4285 58.1073 25.713 56.7936L2.02485 48.3229C0.709972 52.6002 0 57.1526 0 61.8696C0 77.1185 8.10259 90.5304 19.2273 98.2398C19.6623 98.5414 20.2629 98.4006 20.5203 97.9385Z" fill="#C6EEEF"/>
<path d="M19.2608 97.2966L32.3141 74.9834C32.48 74.7001 32.4227 74.3387 32.1764 74.1218C28.4319 70.8282 26.0497 65.8779 26.0497 60.2921C26.0497 58.8916 26.2009 57.5266 26.4855 56.2125L2.37944 47.2014C2.18762 47.1298 1.97351 47.2348 1.91501 47.431C0.670573 51.6029 0 56.0315 0 60.6156C0 76.2358 7.71776 89.6863 19.2608 97.2966Z" fill="black"/>
<path d="M45.8464 43.3263C53.3183 44.576 59.1122 50.8674 60.094 58.7296C60.1466 59.1503 60.4936 59.4714 60.9174 59.4858L97.0555 60.6968C97.1678 60.5877 97.2271 60.5304 97.3393 60.4218C97.2287 30.1899 75.551 4.28941 46.5138 0.861328L45.8464 43.3263Z" fill="#597B8E"/>
<path d="M73.199 26.272C76.6144 22.8566 76.6144 17.3192 73.199 13.9038C69.7836 10.4884 64.2462 10.4884 60.8308 13.9038C57.4154 17.3192 57.4154 22.8566 60.8308 26.272C64.2462 29.6874 69.7836 29.6874 73.199 26.272Z" fill="#C6EEEF"/>
<path d="M72.5562 25.7378C75.6625 22.6315 75.6625 17.5953 72.5562 14.489C69.45 11.3828 64.4137 11.3828 61.3075 14.489C58.2012 17.5953 58.2012 22.6315 61.3075 25.7378C64.4137 28.844 69.45 28.844 72.5562 25.7378Z" fill="white"/>
<path d="M62.5969 27.9226C62.7223 27.3407 62.8214 26.9603 62.8214 26.9603L60.6103 23.2158C60.6103 23.2158 59.8947 23.9401 59.4657 27.0964C59.4064 27.5334 59.7463 27.923 60.1872 27.923H62.5969V27.9226Z" fill="black"/>
<path d="M74.5554 27.0837C73.9413 24.3473 72.8485 23.0734 72.8485 23.0734L71.4648 27.6575C71.4648 27.6575 71.5066 27.7479 71.5707 27.9226H73.884C74.3246 27.9226 74.6517 27.5135 74.5554 27.0837Z" fill="black"/>
<path d="M62.5797 27.9226C64.8525 28.7588 67.9411 28.6418 71.5451 27.9226C71.6299 27.5736 71.7445 27.1979 71.8973 26.7657L72.8484 23.0722C71.5157 21.8771 69.642 21.4827 68.9213 21.3705C67.2463 20.955 65.2887 21.3232 65.2887 21.3232C62.6343 21.5082 60.6106 23.2115 60.6106 23.2115L62.2554 26.9544C62.3847 27.2696 62.4934 27.5927 62.5797 27.9226Z" fill="black"/>
<path d="M65.6287 19.5188L65.5722 21.3845C65.5666 21.5691 65.6809 21.7351 65.8552 21.7964C66.3323 21.9647 67.3197 22.2206 68.2553 21.8855C68.4439 21.8179 68.5577 21.6248 68.5287 21.4263L68.2481 19.5188H65.6287Z" fill="#EEC6BA"/>
<path d="M64.9377 16.3864C64.9377 16.3864 65.0472 18.9067 65.4857 19.8929C65.9239 20.879 67.0199 20.879 67.1293 20.879C67.2388 20.879 68.2249 20.6598 68.7729 19.7834C69.3209 18.9067 69.5398 16.0577 69.5398 16.0577C69.5398 16.0577 68.5537 14.9621 67.2388 14.8522C65.9239 14.7428 64.9377 15.8388 64.9377 16.3864Z" fill="#EEC6BA"/>
<path d="M69.0615 17.2962C69.0615 17.2962 69.5646 16.542 69.8157 16.7931C70.0672 17.0447 69.5642 18.6787 69.0615 18.6787C68.5589 18.6791 69.0615 17.2962 69.0615 17.2962Z" fill="#EEC6BA"/>
<path d="M65.29 17.4219C65.29 17.4219 64.6612 16.542 64.41 16.7935C64.1585 17.045 64.7873 18.6791 65.29 18.6791V17.4219Z" fill="url(#paint0_linear_77_2828)"/>
<path d="M69.8502 15.7692C69.8534 15.5989 69.8435 15.4226 69.8351 15.2216C69.8263 15.021 69.8451 14.82 69.8665 14.6203C69.9282 14.044 69.3269 13.5879 68.7829 13.7324C68.7411 13.7435 68.6957 13.7579 68.6555 13.7419C68.605 13.722 68.5827 13.6647 68.5624 13.6142C68.4367 13.3006 68.102 12.8951 67.7856 12.7625C67.5134 12.6483 67.2125 12.601 66.9188 12.6344C66.327 12.7021 65.7834 13.0968 65.5363 13.6389C65.5223 13.6695 65.5076 13.7021 65.4794 13.7201C65.4535 13.7364 65.4217 13.7372 65.391 13.7376C65.0945 13.7415 64.7527 13.6767 64.502 13.8589C64.2894 14.0138 64.1342 14.2545 64.1191 14.5208C64.1028 14.8117 64.2278 15.0899 64.3567 15.3513C64.4347 15.5097 64.5167 15.6904 64.4542 15.8555C64.4351 15.9061 64.4033 15.9511 64.379 15.9992C64.1088 16.5353 64.8183 17.0626 64.9493 17.5433C65.0488 17.9083 65.1479 18.2732 65.2473 18.6377C65.2915 18.4049 65.3043 18.1657 65.2844 17.9293C65.2573 17.6038 65.1693 17.2827 65.1809 16.9563C65.1892 16.7215 65.2434 16.4899 65.3516 16.2806C65.4555 16.0796 65.6449 15.9909 65.7866 15.815C65.9175 15.9371 66.0604 16.0653 66.2379 16.0911C66.3493 16.1075 66.4627 16.0808 66.5702 16.047C66.733 15.996 66.9642 15.8122 67.1222 15.7998C67.2798 15.7875 67.3347 15.953 67.4389 16.0406C67.7287 16.2838 68.2222 16.3514 68.5696 16.2062C68.4892 16.24 68.9592 17.1171 68.9747 17.1967C69.0642 17.6635 69.1184 18.1371 69.1363 18.6123C69.1737 18.6397 69.2159 18.5836 69.2282 18.539C69.3138 18.2226 69.34 17.8935 69.3954 17.5704C69.4578 17.2054 69.6055 16.8612 69.7245 16.5122C69.8168 16.2396 69.8463 16.0104 69.8502 15.7692Z" fill="black"/>
<path d="M90.0196 21.3367C93.1491 18.2072 93.1491 13.1331 90.0196 10.0036C86.89 6.874 81.8159 6.87401 78.6864 10.0036C75.5568 13.1331 75.5568 18.2072 78.6864 21.3368C81.8159 24.4663 86.89 24.4663 90.0196 21.3367Z" fill="#C6EEEF"/>
<path d="M84.278 22.9823C88.3035 22.9823 91.5668 19.719 91.5668 15.6935C91.5668 11.6681 88.3035 8.40479 84.278 8.40479C80.2525 8.40479 76.9893 11.6681 76.9893 15.6935C76.9893 19.719 80.2525 22.9823 84.278 22.9823Z" fill="white"/>
<path d="M82.7147 14.1101C82.2534 14.1101 81.7747 14.169 81.594 13.613C81.2537 12.5664 81.8252 11.0012 82.762 10.4313C83.0752 10.2406 83.4406 10.1571 83.8003 10.085C84.2234 10.0003 84.5887 9.97919 84.9699 10.1841C85.3217 10.3732 85.6632 10.0691 86.0281 10.3123C86.3382 10.5188 86.5757 10.844 86.7413 11.1723C86.9578 11.6013 87.07 12.0745 87.1643 12.5457C87.1858 12.6523 87.2061 12.763 87.1822 12.8692C87.1623 12.9584 87.1126 13.0372 87.0632 13.114C86.6848 13.6998 86.1813 14.1105 85.4535 14.1105C85.4535 14.1101 82.727 14.1101 82.7147 14.1101Z" fill="black"/>
<path d="M82.6225 12.2675C82.6225 12.2675 82.706 12.4422 82.1624 12.7152C81.8596 12.8676 81.2702 13.0924 81.1922 13.7499C81.152 14.0893 81.0195 14.9271 80.6967 14.9788C79.8924 15.1077 78.8072 15.6096 78.7057 16.5854C78.5895 17.7053 78.9118 18.2935 79.4817 18.4395C79.9004 18.547 80.0066 18.6596 79.9219 19.1021C79.8407 19.5268 80.1626 21.0502 80.865 21.4382C82.4394 22.3077 83.8108 18.3452 83.8108 18.3452L84.1331 13.2289L82.6225 12.2675Z" fill="black"/>
<path d="M86.2252 11.8202C86.2252 11.8202 86.1405 12.0052 86.6936 12.2946C87.0021 12.4557 87.6022 12.6941 87.6814 13.391C87.7224 13.7503 87.8179 14.2557 88.1466 14.3107C88.9652 14.4476 89.914 15.2451 90.1162 16.794C90.2702 17.9759 89.9339 19.2438 89.3533 19.3991C88.927 19.5129 88.9589 19.2872 89.0452 19.756C89.128 20.2057 88.9338 20.0322 88.2187 20.4433C86.616 21.3646 85.0154 18.2605 85.0154 18.2605L84.6875 12.8402L86.2252 11.8202Z" fill="black"/>
<path d="M84.0827 17.5008C84.0827 17.5008 85.2993 17.1872 85.5576 17.5748C85.6869 18.2191 85.7534 18.8594 85.7534 18.8594L84.3513 19.1225L83.4241 18.9092L83.2036 18.781L83.1121 17.8681C83.1125 17.8685 83.5864 17.5935 84.0827 17.5008Z" fill="url(#paint1_linear_77_2828)"/>
<path d="M82.6232 14.2494C82.6232 14.2494 82.4274 13.6624 82.1341 13.8582C81.8408 14.054 82.5747 15.3024 82.5747 15.3024L82.6232 14.2494Z" fill="url(#paint2_linear_77_2828)"/>
<path d="M85.5574 14.2493C85.5574 14.2493 85.5574 13.369 86.0465 13.8581C86.5356 14.3472 85.5574 15.0317 85.5574 15.0317V14.2493Z" fill="url(#paint3_linear_77_2828)"/>
<path d="M90.1642 22.2437C89.7547 20.267 89.1669 18.7221 88.9811 18.6329L87.8707 21.3801C87.8707 21.3801 87.6467 22.1987 87.6646 23.2151H89.3723C89.8841 23.2151 90.2681 22.7451 90.1642 22.2437Z" fill="#74A1BB"/>
<path d="M81.6163 23.2151C81.6677 22.332 81.645 21.7761 81.645 21.7761L80.0798 19.2355C80.0798 19.2355 79.884 20.0143 79.6886 22.0686C79.6794 22.1641 79.6707 22.2612 79.6627 22.3595C79.6241 22.8203 79.9882 23.2151 80.4503 23.2151H81.6163Z" fill="#74A1BB"/>
<path d="M83.7826 23.2207H85.4867L85.9488 18.3635C85.9488 18.3635 85.5576 18.2629 85.3618 17.578C85.166 16.8935 85.0685 15.5225 85.0685 15.5225L83.3079 15.9129C83.3079 15.9129 83.5037 17.7769 83.1121 18.6572L83.7826 23.2207Z" fill="url(#paint4_linear_77_2828)"/>
<path d="M86.4063 23.2208L86.6514 20.1544C84.8665 21.2222 83.0311 21.1704 81.1694 20.6041L81.6979 23.2204H86.4063V23.2208Z" fill="black"/>
<path d="M84.2009 23.2151C83.672 20.6637 83.1124 17.8712 83.1124 17.8712L82.8191 18.4566L80.0803 19.2414C80.2144 19.867 80.6239 21.5894 81.0354 23.2151H84.2009Z" fill="#74A1BB"/>
<path d="M88.1143 23.2151C88.2604 22.4335 88.3889 21.8234 88.3889 21.8234L88.9811 18.6325C88.7949 18.4462 85.8706 18.0451 85.8706 18.0451L85.5578 17.5779C85.5578 17.5779 85.1674 20.4162 84.8335 23.2147H88.1143V23.2151Z" fill="#74A1BB"/>
<path d="M82.4275 12.8799C82.4275 12.8799 82.3296 15.2276 82.6233 15.6188C82.9166 16.01 83.3078 16.8903 83.9927 16.9882C84.6772 17.0861 85.7533 15.1297 85.7533 15.0318C85.7533 14.9339 85.6554 12.3908 85.6554 12.3908C85.6554 12.3908 83.6015 10.7281 82.4275 12.8799Z" fill="url(#paint5_linear_77_2828)"/>
<path d="M82.0362 12.4888C82.0362 12.4888 81.645 13.6624 82.8186 13.2712C83.9922 12.88 83.9922 12.88 83.9922 12.88C83.9922 12.88 85.1658 12.1955 85.3616 12.4888C85.5574 12.7821 85.7528 13.5048 85.7528 13.5048C85.7528 13.5048 86.144 12.4888 85.7528 11.9018C85.362 11.3148 82.9165 10.8257 82.0362 12.4888Z" fill="black"/>
<path d="M70.6393 48.6225C75.6404 48.6225 79.6946 44.5683 79.6946 39.5672C79.6946 34.566 75.6404 30.5118 70.6393 30.5118C65.6382 30.5118 61.584 34.566 61.584 39.5672C61.584 44.5683 65.6382 48.6225 70.6393 48.6225Z" fill="#C6EEEF"/>
<path d="M70.5533 47.8301C75.1019 47.8301 78.7892 44.1428 78.7892 39.5942C78.7892 35.0456 75.1019 31.3583 70.5533 31.3583C66.0047 31.3583 62.3174 35.0456 62.3174 39.5942C62.3174 44.1428 66.0047 47.8301 70.5533 47.8301Z" fill="white"/>
<path d="M70.7805 38.7298C72.2641 38.7298 73.4668 37.5272 73.4668 36.0436C73.4668 34.56 72.2641 33.3573 70.7805 33.3573C69.2969 33.3573 68.0942 34.56 68.0942 36.0436C68.0942 37.5272 69.2969 38.7298 70.7805 38.7298Z" fill="black"/>
<path d="M68.2006 35.2935C67.019 39.379 66.2159 43.0932 66.3461 44.1375L69.7905 43.7737L70.19 36.2167L68.2006 35.2935Z" fill="black"/>
<path d="M72.0136 34.8716L71.5408 44.1092L75.438 46.1846C75.3565 43.0276 73.7435 34.9158 73.0833 34.6981L72.0136 34.8716Z" fill="black"/>
<path d="M72.0143 39.8744L72.1277 42.3899L69.6878 42.7577L69.5342 40.1164L72.0143 39.8744Z" fill="url(#paint6_linear_77_2828)"/>
<path d="M73.1716 38.3593C73.1716 38.3593 72.587 40.9711 71.0046 41.2851C69.4223 41.5991 68.9535 39.1381 68.87 38.961C68.87 38.961 68.5162 39.1277 68.4366 38.7759C68.357 38.4241 67.9399 37.5395 68.7271 37.5574C68.7271 37.5574 68.5723 36.6787 68.8445 36.2473C69.1167 35.8159 69.6655 34.7784 70.7965 35.0669C71.9279 35.3554 73.7359 36.3074 73.1716 38.3593Z" fill="url(#paint7_linear_77_2828)"/>
<path d="M72.0899 41.5491L73.6372 42.3697L71.6107 44.5935L67.8643 42.2368C68.4349 42.0234 68.9961 41.7373 69.5087 41.6521L72.0899 41.5491Z" fill="url(#paint8_linear_77_2828)"/>
<path d="M68.8159 35.221C68.287 35.9605 68.7028 36.6167 68.5608 37.148C69.0729 36.9618 70.8029 36.6836 71.3234 36.7345C71.4313 36.3807 71.22 35.7921 71.1113 35.3281C71.2804 35.7687 71.6665 36.4432 71.6255 36.7914C72.3247 36.8237 72.1814 36.8332 72.9674 37.148L72.3557 35.0149C70.9931 34.3782 69.8163 34.4589 68.8159 35.221Z" fill="black"/>
<path d="M71.4197 32.7138C71.4197 33.2267 70.9369 33.8022 70.5891 33.8022C70.3026 33.8022 69.7585 33.2267 69.7585 32.7138C69.7585 32.2008 70.1303 31.7849 70.5891 31.7849C71.048 31.7849 71.4197 32.2008 71.4197 32.7138Z" fill="black"/>
<path d="M74.748 47.9372L75.6001 43.1982C74.4412 42.4099 73.3667 42.0346 72.0904 41.5507C71.6948 42.3733 69.8872 42.2917 69.5092 41.6529C68.3069 41.9582 67.1627 42.5225 66.0564 43.2536L67.222 47.9376H74.748V47.9372Z" fill="#74A1BB"/>
<path d="M77.0847 47.099C76.3946 44.1485 75.5999 43.1981 75.5999 43.1981L74.3252 47.0771C74.3252 47.0771 74.4788 47.3867 74.6806 47.9371H76.4193C76.8586 47.9371 77.1846 47.5276 77.0847 47.099Z" fill="#74A1BB"/>
<path d="M67.3063 47.9372C67.4472 47.4306 67.6355 46.8989 67.8798 46.3541L66.0559 43.2548C66.0559 43.2548 65.1561 44.8176 64.8585 47.1712C64.8071 47.5779 65.1259 47.9372 65.5358 47.9372H67.3063Z" fill="#74A1BB"/>
<path d="M72.2754 35.0618C73.1792 37.3469 73.6309 43.7924 73.0785 47.2009C73.9425 44.2253 75.019 40.451 73.3742 35.3758L72.2754 35.0618Z" fill="black"/>
<path d="M89.6005 40.9663C94.0996 40.9663 97.7468 37.3191 97.7468 32.82C97.7468 28.3208 94.0996 24.6736 89.6005 24.6736C85.1014 24.6736 81.4541 28.3208 81.4541 32.82C81.4541 37.3191 85.1014 40.9663 89.6005 40.9663Z" fill="#C6EEEF"/>
<path d="M94.7613 38.0836C97.6546 35.1902 97.6546 30.4992 94.7613 27.6059C91.8679 24.7125 87.1769 24.7125 84.2835 27.6059C81.3902 30.4992 81.3902 35.1902 84.2835 38.0836C87.1769 40.9769 91.8679 40.9769 94.7613 38.0836Z" fill="white"/>
<path d="M94.4989 41.0702C94.912 41.0702 95.2459 40.734 95.2431 40.3209C95.2352 39.1377 95.2113 38.0986 95.156 37.5248C95.0151 36.0603 94.2383 35.5958 94.2383 35.5958L93.8423 41.0702H94.4989Z" fill="#74FCFD"/>
<path d="M92.587 41.0703C92.5293 38.0036 92.4723 35.4674 92.4723 35.4674C91.0838 34.6129 85.9564 34.72 85.9564 34.72C85.9564 34.72 85.6003 37.6785 85.1943 41.0703H92.587Z" fill="#74A1BB"/>
<path d="M84.1191 41.0703H88.8907C88.7375 39.5875 87.505 34.1023 87.505 34.1023L83.6777 35.2735C83.6777 35.2735 83.9798 38.6932 83.9798 39.7618C83.9802 40.0065 84.049 40.4813 84.1191 41.0703Z" fill="#74FCFD"/>
<path d="M84.2628 41.0703C84.2799 39.2628 84.2473 35.9286 83.6782 35.278C83.6782 35.278 82.9407 35.6576 82.193 38.1143C81.9773 38.8234 81.7811 39.4964 81.5984 40.1375C81.4655 40.6051 81.8169 41.0699 82.3028 41.0699H84.2628V41.0703Z" fill="#74FCFD"/>
<path d="M94.0946 41.0702C94.2323 38.4703 94.3525 35.7005 94.2383 35.5862C94.0246 35.3725 91.4577 34.5344 91.4577 34.5344C91.4577 34.5344 89.7854 39.6483 89.397 41.0702H94.0946Z" fill="#74FCFD"/>
<path d="M87.6658 35.0096L88.3065 32.7662H90.6565L90.9769 35.3299C90.9769 35.3299 88.9476 35.864 87.6658 35.0096Z" fill="url(#paint9_linear_77_2828)"/>
<path d="M87.6658 29.8525C87.6658 29.8525 87.8867 31.9983 88.2592 32.8364C88.6316 33.6745 89.5625 33.6745 89.6556 33.6745C89.7487 33.6745 90.5869 33.4883 91.0521 32.7433C91.5177 31.9983 91.704 29.5775 91.704 29.5775C91.704 29.5775 90.8658 28.6462 89.7487 28.5531C88.6312 28.4604 87.6658 29.3872 87.6658 29.8525Z" fill="url(#paint10_linear_77_2828)"/>
<path d="M91.2976 30.63C91.2976 30.63 91.725 29.9892 91.9388 30.2025C92.1525 30.4163 91.725 31.8048 91.2976 31.8048C90.8702 31.8052 91.2976 30.63 91.2976 30.63Z" fill="url(#paint11_linear_77_2828)"/>
<path d="M88.0928 30.7367C88.0928 30.7367 87.5588 29.9889 87.3451 30.2026C87.1313 30.4163 87.6654 31.8048 88.0928 31.8048V30.7367Z" fill="url(#paint12_linear_77_2828)"/>
<path d="M92.3936 29.3584C92.5062 29.0647 92.536 28.7372 92.4994 28.4228C92.4441 27.9484 92.189 27.0689 91.836 26.7159C91.9363 26.8162 90.9788 27.2214 90.8312 27.207C91.1189 26.9726 91.4775 26.7044 91.4902 26.2953C91.1571 26.5197 90.7504 26.6009 90.3552 26.6706C89.3682 26.8445 88.3077 26.8083 87.548 27.5549C87.2308 27.8669 87.0159 28.3488 87.0971 28.7985C87.1564 29.1268 87.6455 29.4734 87.3446 29.7755C87.1317 29.9892 87.7764 30.378 87.8811 30.9845C87.8886 31.0283 87.8962 31.0733 87.9089 31.1147C87.8998 30.8046 87.7804 30.4715 87.7879 30.1699C87.8035 29.5514 88.7359 29.5077 89.1919 29.4667C89.7988 29.4122 90.4606 29.4173 90.9856 29.0627C91.1993 28.9187 91.3346 30.0839 91.3437 30.1412C91.3967 30.4727 91.4595 30.8285 91.4038 31.1636H91.5511C91.5937 30.7704 91.5547 30.3943 91.8436 30.1082C91.9833 29.9701 92.1237 29.8308 92.2332 29.6677C92.2988 29.5709 92.3522 29.4671 92.3936 29.3584Z" fill="black"/>
<path d="M88.1927 33.1655C88.1111 33.6566 88.0861 33.8938 87.9301 34.3666C87.7892 34.7932 87.8926 35.3878 87.9014 35.8363C87.9133 36.4627 88.4 37.1476 88.2934 37.7632C88.0208 36.9975 87.1891 36.4014 86.7632 35.6866C86.3474 34.9882 86.0501 34.4243 86.5257 33.7649C86.8197 33.3561 88.1987 33.1273 88.1927 33.1655Z" fill="#74FCFD"/>
<path d="M90.7083 35.2189C90.7672 36.523 90.5113 36.7877 90.304 38.1053C90.5825 37.2151 91.2097 36.7471 91.7036 35.9535C92.1903 35.1711 92.3479 34.1957 91.5512 33.6744C91.4966 33.6385 90.7258 33.2816 90.7294 33.3508C90.7393 33.5414 90.6828 34.6537 90.7083 35.2189Z" fill="#74FCFD"/>
<path d="M16.0408 44.1898C19.126 44.1898 21.6271 41.6888 21.6271 38.6036C21.6271 35.5184 19.126 33.0173 16.0408 33.0173C12.9556 33.0173 10.4546 35.5184 10.4546 38.6036C10.4546 41.6888 12.9556 44.1898 16.0408 44.1898Z" fill="#597B8E"/>
<path d="M16.0408 44.004C19.0233 44.004 21.4412 41.5862 21.4412 38.6036C21.4412 35.6211 19.0233 33.2032 16.0408 33.2032C13.0582 33.2032 10.6404 35.6211 10.6404 38.6036C10.6404 41.5862 13.0582 44.004 16.0408 44.004Z" fill="white"/>
<path opacity="0.7" d="M11.0626 38.3899C11.0618 38.3899 11.0606 38.3899 11.0598 38.3899C11.0316 38.3883 11.0101 38.3644 11.0113 38.3362C11.0224 38.1241 11.0471 37.9115 11.0845 37.7034C11.0897 37.6755 11.1159 37.6572 11.1438 37.662C11.1717 37.6672 11.19 37.6935 11.1852 37.7213C11.1486 37.9251 11.1243 38.1336 11.1136 38.341C11.112 38.3688 11.0897 38.3899 11.0626 38.3899Z" fill="white"/>
<path opacity="0.7" d="M11.5876 36.4113C11.58 36.4113 11.5721 36.4097 11.5645 36.4057C11.5394 36.393 11.5291 36.3623 11.5418 36.3369C12.4042 34.6284 14.1282 33.567 16.0405 33.567C16.3457 33.567 16.6513 33.5945 16.949 33.6486C16.9769 33.6538 16.9952 33.6804 16.99 33.7079C16.9848 33.7358 16.9586 33.7545 16.9307 33.7489C16.639 33.696 16.3393 33.6689 16.0405 33.6689C14.1668 33.6689 12.4779 34.7088 11.633 36.3826C11.6242 36.4009 11.6063 36.4113 11.5876 36.4113Z" fill="white"/>
<path opacity="0.78" d="M19.3898 41.9528C21.1747 40.1679 21.1747 37.274 19.3898 35.489C17.6049 33.7041 14.7109 33.7041 12.926 35.489C11.1411 37.274 11.1411 40.1679 12.926 41.9528C14.7109 43.7378 17.6049 43.7378 19.3898 41.9528Z" fill="white"/>
<path d="M17.5579 36.9939C17.5579 37.7679 16.9303 38.6032 16.1566 38.6032C15.3826 38.6032 14.7554 37.7679 14.7554 36.9939C14.7554 36.2198 15.383 35.671 16.1566 35.671C16.9307 35.671 17.5579 36.2202 17.5579 36.9939Z" fill="#74FCFD"/>
<path d="M14.4176 41.5832H17.8386C18.1987 41.5832 18.5175 41.3504 18.6273 41.0074L18.8116 40.4319C18.9465 40.0104 18.7272 39.5544 18.3117 39.4028C16.9197 38.8938 15.4798 38.959 14.0053 39.4497C13.5923 39.587 13.363 40.0292 13.4768 40.4494L13.6185 40.9719C13.7164 41.3329 14.044 41.5832 14.4176 41.5832Z" fill="#74FCFD"/>
<path d="M26.1197 35.5106C29.2049 35.5106 31.706 33.0096 31.706 29.9244C31.706 26.8392 29.2049 24.3381 26.1197 24.3381C23.0345 24.3381 20.5334 26.8392 20.5334 29.9244C20.5334 33.0096 23.0345 35.5106 26.1197 35.5106Z" fill="#597B8E"/>
<path d="M26.1196 35.3249C29.1022 35.3249 31.52 32.907 31.52 29.9245C31.52 26.9419 29.1022 24.524 26.1196 24.524C23.1371 24.524 20.7192 26.9419 20.7192 29.9245C20.7192 32.907 23.1371 35.3249 26.1196 35.3249Z" fill="white"/>
<path opacity="0.7" d="M21.141 29.7107C21.1402 29.7107 21.139 29.7107 21.1382 29.7107C21.1099 29.7091 21.0885 29.6852 21.0896 29.657C21.1008 29.4448 21.1255 29.2323 21.1629 29.0242C21.168 28.9963 21.1943 28.978 21.2222 28.9828C21.25 28.988 21.2683 29.0143 21.2635 29.0421C21.2269 29.2459 21.2027 29.4544 21.1919 29.6617C21.1907 29.6896 21.168 29.7107 21.141 29.7107Z" fill="white"/>
<path opacity="0.7" d="M21.6665 27.732C21.6589 27.732 21.6509 27.7304 21.6434 27.7264C21.6183 27.7137 21.608 27.683 21.6207 27.6576C22.4831 25.9491 24.2071 24.8877 26.1193 24.8877C26.4245 24.8877 26.7302 24.9152 27.0279 24.9693C27.0557 24.9745 27.074 25.0011 27.0689 25.0286C27.0637 25.0564 27.0374 25.0751 27.0096 25.0696C26.7178 25.0166 26.4182 24.9896 26.1193 24.9896C24.2457 24.9896 22.5567 26.0295 21.7118 27.7033C21.7031 27.7216 21.6852 27.732 21.6665 27.732Z" fill="white"/>
<path opacity="0.78" d="M29.4682 33.2738C31.2531 31.4888 31.2531 28.5949 29.4682 26.81C27.6832 25.025 24.7893 25.025 23.0044 26.81C21.2194 28.5949 21.2194 31.4888 23.0044 33.2738C24.7893 35.0587 27.6832 35.0587 29.4682 33.2738Z" fill="white"/>
<path d="M27.6367 28.3145C27.6367 29.0886 27.0091 29.9239 26.2355 29.9239C25.4614 29.9239 24.8342 29.0886 24.8342 28.3145C24.8342 27.5405 25.4618 26.9917 26.2355 26.9917C27.0091 26.9917 27.6367 27.5409 27.6367 28.3145Z" fill="#74FCFD"/>
<path d="M24.496 32.9039H27.9169C28.2771 32.9039 28.5959 32.6711 28.7057 32.328L28.89 31.7526C29.0249 31.3311 28.8056 30.8751 28.3901 30.7234C26.998 30.2144 25.5582 30.2797 24.0837 30.7704C23.6706 30.9077 23.4414 31.3498 23.5552 31.7701L23.6969 32.2926C23.7948 32.6536 24.1223 32.9039 24.496 32.9039Z" fill="#74FCFD"/>
<path d="M28.18 48.4291C31.2652 48.4291 33.7662 45.928 33.7662 42.8428C33.7662 39.7576 31.2652 37.2566 28.18 37.2566C25.0948 37.2566 22.5938 39.7576 22.5938 42.8428C22.5938 45.928 25.0948 48.4291 28.18 48.4291Z" fill="#597B8E"/>
<path d="M28.1799 48.2432C31.1625 48.2432 33.5803 45.8253 33.5803 42.8428C33.5803 39.8602 31.1625 37.4424 28.1799 37.4424C25.1974 37.4424 22.7795 39.8602 22.7795 42.8428C22.7795 45.8253 25.1974 48.2432 28.1799 48.2432Z" fill="white"/>
<path opacity="0.7" d="M23.2018 42.6295C23.201 42.6295 23.1998 42.6295 23.199 42.6295C23.1707 42.6279 23.1492 42.604 23.1504 42.5758C23.1616 42.3637 23.1863 42.1512 23.2237 41.943C23.2288 41.9152 23.2551 41.8969 23.283 41.9016C23.3108 41.9068 23.3291 41.9331 23.3243 41.9609C23.2877 42.1647 23.2635 42.3732 23.2527 42.5806C23.2511 42.6084 23.2288 42.6295 23.2018 42.6295Z" fill="white"/>
<path opacity="0.7" d="M23.7268 40.6508C23.7192 40.6508 23.7112 40.6492 23.7037 40.6452C23.6786 40.6325 23.6683 40.6018 23.681 40.5764C24.5434 38.8679 26.2674 37.8065 28.1796 37.8065C28.4849 37.8065 28.7905 37.834 29.0882 37.8881C29.116 37.8933 29.1343 37.9199 29.1292 37.9474C29.124 37.9753 29.0977 37.994 29.0699 37.9884C28.7782 37.9355 28.4785 37.9084 28.1796 37.9084C26.306 37.9084 24.617 38.9483 23.7721 40.6221C23.7634 40.6404 23.7455 40.6508 23.7268 40.6508Z" fill="white"/>
<path opacity="0.78" d="M28.2975 47.5313C30.8218 47.5313 32.8681 45.485 32.8681 42.9607C32.8681 40.4364 30.8218 38.39 28.2975 38.39C25.7732 38.39 23.7268 40.4364 23.7268 42.9607C23.7268 45.485 25.7732 47.5313 28.2975 47.5313Z" fill="white"/>
<path d="M29.697 41.2335C29.697 42.0075 29.0694 42.8429 28.2958 42.8429C27.5217 42.8429 26.8945 42.0075 26.8945 41.2335C26.8945 40.4594 27.5221 39.9106 28.2958 39.9106C29.0694 39.9102 29.697 40.4594 29.697 41.2335Z" fill="#74FCFD"/>
<path d="M26.5568 45.8228H29.9777C30.3379 45.8228 30.6566 45.59 30.7665 45.247L30.9507 44.6715C31.0856 44.2501 30.8664 43.794 30.4509 43.6424C29.0588 43.1334 27.619 43.1986 26.1445 43.6893C25.7314 43.8266 25.5022 44.2688 25.616 44.689L25.7577 45.2116C25.8552 45.5721 26.1827 45.8228 26.5568 45.8228Z" fill="#74FCFD"/>
<path d="M37.3936 42.6207C37.3936 42.6207 35.8503 43.3713 35.5665 44.2337C35.3389 44.9257 33.6324 45.0149 33.4637 46.3755C33.3765 47.078 32.8568 47.6407 32.1572 47.7481C30.4145 48.0152 27.7286 48.9201 27.2988 51.9463C26.9709 54.2561 28.148 55.1316 29.3837 55.4348C30.2915 55.6573 30.8944 56.5404 30.7109 57.4565C30.535 58.3352 30.7973 59.3512 32.3199 60.1547C35.7317 61.9551 39.1391 55.8897 39.1391 55.8897L39.8375 45.299L37.3936 42.6207Z" fill="black"/>
<path d="M55.9591 40.11C55.9591 40.11 49.1467 50.8853 41.0461 52.9667C41.0461 52.9667 42.6245 57.4625 43.8431 57.9771C43.8431 57.9771 53.8093 49.6616 56.3702 41.6414L55.9591 40.11Z" fill="url(#paint13_linear_77_2828)"/>
<path d="M23.3693 109.029L23.1484 110.844C23.1066 111.188 22.8356 111.461 22.491 111.5C21.9091 111.566 20.9755 111.634 20.0618 111.538C19.6606 111.496 19.4004 111.09 19.5225 110.706C19.7454 110.005 20.1525 108.953 20.7399 108.334H22.7532C23.1257 108.334 23.4143 108.659 23.3693 109.029Z" fill="black"/>
<path d="M39.1395 87.7665L39.4794 89.7655C39.4794 89.7655 38.3412 101.293 38.1391 105.904C38.1072 106.627 38.2943 107.342 38.6739 107.958L40.653 111.171L35.6235 108.204L35.5232 107.59L36.3466 106.458L35.2681 93.5441C35.2048 92.7856 35.3612 92.0247 35.719 91.3526L36.7593 89.3981L39.1395 87.7665Z" fill="url(#paint14_linear_77_2828)"/>
<path d="M40.9835 111.637H39.3786C39.0781 111.637 38.7947 111.499 38.6117 111.261C38.1114 110.611 37.0747 109.342 36.5789 109.309C35.9115 109.265 35.997 111.637 35.997 111.637H35.6229L35.149 108.689C35.0296 107.947 35.3985 107.213 36.0647 106.865C36.0647 106.865 36.2171 107.993 37.0445 108.492C37.8715 108.991 40.4101 110.778 40.4101 110.778C40.4101 110.778 40.7209 110.734 41.0624 110.796C41.569 110.887 41.4981 111.637 40.9835 111.637Z" fill="black"/>
<path d="M32.2506 88.716C32.2506 88.716 25.5835 101.363 24.5237 104.25C23.4639 107.138 23.0926 109.546 23.0783 109.775C23.056 110.131 22.6127 110.473 21.3909 110.473C20.7601 110.473 20.4513 110.221 20.3001 109.976C20.1712 109.767 20.1644 109.506 20.273 109.286C20.6587 108.505 21.8824 106.011 22.3357 104.88C22.8769 103.529 24.041 97.408 24.6793 95.2797C25.3177 93.1513 26.0396 90.8427 28.8198 88.7164C28.8202 88.716 30.7288 86.8468 32.2506 88.716Z" fill="url(#paint15_linear_77_2828)"/>
<path d="M36.4629 67.9935C38.1829 60.7059 33.8259 56.5842 33.8259 56.5842C36.5751 53.9453 41.5839 52.7446 41.5839 52.7446C41.5839 52.7446 46.3635 56.2388 45.7964 58.974C45.4641 60.577 42.4367 68.5757 42.4367 68.5757C42.4367 68.5757 39.6374 69.9002 36.4629 67.9935Z" fill="#74A1BB"/>
<path d="M32.6494 71.6015C33.3494 69.4931 36.4623 67.9935 36.4623 67.9935C39.6368 69.9002 42.4361 68.5754 42.4361 68.5754C42.4361 68.5754 43.0637 70.9747 42.6307 73.2049C42.1974 75.4347 39.4793 89.7659 39.4793 89.7659C35.1959 90.6338 28.6084 88.8927 28.6084 88.8927C31.3365 84.0487 31.9493 73.7099 32.6494 71.6015Z" fill="black"/>
<path d="M38.4589 47.9287L37.0608 54.2094C36.9271 54.7626 37.4313 54.6723 37.9905 54.5668C38.9066 54.3941 40.087 54.0383 40.4817 53.3256C40.5219 53.2531 40.5418 53.1711 40.5534 53.0888L41.1539 48.7334C41.2017 48.388 41.0146 48.0525 40.6958 47.9112L39.5366 47.397C39.09 47.1997 38.5735 47.454 38.4589 47.9287Z" fill="url(#paint16_linear_77_2828)"/>
<path d="M41.1368 42.2033C41.1368 42.2033 42.6256 43.2109 43.2651 45.777C43.9046 48.3431 42.8651 49.2636 41.7998 49.2071C40.7344 49.1505 39.1891 48.821 37.8508 46.98C36.512 45.1394 39.1863 40.9719 41.1368 42.2033Z" fill="url(#paint17_linear_77_2828)"/>
<path d="M39.2007 45.9454C39.2007 45.9454 38.6551 42.2682 41.7083 42.8309L42.3256 43.4737C42.3256 43.4737 43.8199 41.7907 42.1664 40.5188C40.5128 39.2469 38.2182 39.5724 36.9482 41.8882C35.6787 44.2039 35.2179 45.8312 36.282 47.2703C37.3462 48.7093 38.1465 47.4752 38.1465 47.4752C38.1465 47.4752 37.6586 46.2296 38.0633 45.6951C38.4685 45.1606 38.9906 46.0059 38.9906 46.0059L39.2007 45.9454Z" fill="black"/>
<path d="M38.7833 46.2602C38.7833 46.2602 38.5139 44.3683 37.548 44.9091C36.5818 45.4499 37.8963 46.6765 38.4232 47.0935L38.7833 46.2602Z" fill="url(#paint18_linear_77_2828)"/>
<path d="M55.9122 42.3282C55.9329 42.5507 55.1063 42.7043 54.8433 41.7567C54.9157 41.3452 55.0438 39.5436 55.3594 39.2638C57.0392 37.7731 60.0351 36.0964 60.0351 36.0964C60.3702 36.6078 59.9309 36.9449 59.9309 36.9449L58.4353 37.9541C58.5913 38.4707 58.8189 38.9276 58.8448 39.5174C58.8643 39.9639 58.6992 40.4012 58.4027 40.7403C58.105 41.0802 57.7042 41.5195 57.3433 41.8526C56.6596 42.4834 55.9122 42.3282 55.9122 42.3282Z" fill="url(#paint19_linear_77_2828)"/>
<path d="M56.7246 41.594L56.4961 41.5C56.5264 41.426 57.2443 39.6821 57.5913 39.3196C57.7231 39.1819 57.7867 39.0641 57.7812 38.969C57.7784 38.9176 57.7529 38.8667 57.7044 38.815L56.4946 39.462L55.9601 40.299L55.752 40.1657L56.321 39.2742L57.7382 38.5165L57.8023 38.5686C57.9455 38.686 58.0196 38.8118 58.0283 38.9538C58.0387 39.123 57.9547 39.2985 57.7708 39.4907C57.5086 39.7637 56.9267 41.1013 56.7246 41.594Z" fill="url(#paint20_linear_77_2828)"/>
<path d="M38.0208 71.8383C38.0303 71.8387 38.0399 71.8391 38.0494 71.8391L50.5412 71.8255C50.85 71.8251 51.0999 71.5772 51.0995 71.272C51.0991 70.9663 50.8476 70.714 50.5396 70.7192L38.0479 70.7327C37.739 70.7331 37.4891 70.9811 37.4895 71.2863C37.4903 71.5824 37.7255 71.8235 38.0208 71.8383Z" fill="black"/>
<path d="M61.7706 60.6163H51.3673C50.6 60.6163 49.9012 61.0545 49.5741 61.7414L44.7646 71.8314H57.693C58.1877 71.8314 58.6318 71.5326 58.8137 71.0773L62.543 61.7402C62.7587 61.2009 62.3568 60.6163 61.7706 60.6163Z" fill="black"/>
<path d="M55.9929 66.2951C56.221 65.6029 56.0578 64.9271 55.6285 64.7856C55.1991 64.644 54.6661 65.0904 54.438 65.7826C54.2098 66.4748 54.373 67.1506 54.8024 67.2921C55.2317 67.4336 55.7647 66.9872 55.9929 66.2951Z" fill="#C6EEEF"/>
<path d="M33.8076 56.5992C32.1031 58.3193 29.9405 65.9427 31.0135 67.2162C31.9582 68.6986 35.1746 70.7163 38.2377 70.7191H42.7566C40.8575 68.7014 39.5502 68.1896 37.993 69.6008C36.7573 69.0727 35.1551 67.0275 34.0858 66.1146C33.6659 65.756 33.5668 65.1444 33.8478 64.6692C34.6974 63.2309 35.7628 61.7525 36.1015 60.3202C36.1743 58.6412 34.9326 56.7202 33.8076 56.5992Z" fill="url(#paint21_linear_77_2828)"/>
<path d="M56.2824 112.154C56.161 112.147 56.0488 112.091 55.9692 111.999C54.8103 110.661 46.3261 100.14 55.7448 89.2317C64.6859 78.8766 68.9183 76.57 69.0759 70.8691C69.0942 70.2033 69.9753 69.9777 70.3139 70.5512C72.8446 74.8372 77.0471 84.9667 66.2368 92.6355C54.3117 101.095 55.9549 109.262 56.7353 111.559C56.8388 111.862 56.6028 112.173 56.2824 112.154Z" fill="#EFFAFB"/>
<path d="M57.8476 112.248C57.5607 112.231 57.3187 112.029 57.2539 111.748C56.8105 109.841 55.5362 102.686 60.7042 100.375C66.3936 97.8306 71.5237 102.921 75.5014 98.3357C75.7107 98.0945 76.1055 98.2612 76.0753 98.5792C75.86 100.834 74.5439 106.12 67.0402 107.728C59.0089 109.448 58.166 110.448 58.4167 111.59C58.4939 111.943 58.2074 112.27 57.8476 112.248Z" fill="#EFFAFB"/>
<path d="M69.2271 76.6585C69.1595 77.0855 69.0572 77.4895 68.9295 77.8922C68.8045 78.2941 68.6553 78.6885 68.4893 79.0757C68.1618 79.8522 67.7543 80.5944 67.3002 81.3059C66.3857 82.7267 65.2459 83.9998 63.9668 85.1029C63.3289 85.6517 62.6412 86.1635 61.9583 86.6303C61.2937 87.0856 60.6589 87.587 60.0548 88.1235C58.8462 89.1964 57.7693 90.4174 56.8361 91.737C54.978 94.3779 53.7526 97.4885 53.5151 100.72C53.3909 102.333 53.5111 103.965 53.8513 105.556C54.1892 107.149 54.7667 108.691 55.4858 110.165C55.5244 110.244 55.4926 110.339 55.4138 110.378C55.3381 110.415 55.247 110.386 55.2056 110.314C54.3854 108.865 53.7367 107.308 53.3201 105.682C53.1087 104.87 52.9571 104.04 52.8688 103.202C52.7856 102.365 52.7573 101.519 52.8007 100.676C52.8783 98.9884 53.2269 97.3149 53.7901 95.7219C54.3552 94.128 55.1471 92.6193 56.0995 91.226C57.0514 89.8308 58.1824 88.5617 59.438 87.4326C60.0672 86.8691 60.7302 86.3418 61.427 85.8603C62.1099 85.397 62.7562 84.9298 63.3767 84.4069C64.6163 83.373 65.7453 82.2018 66.6941 80.8909C67.1752 80.2402 67.6035 79.5505 67.9883 78.8362C68.3644 78.121 68.7098 77.3705 68.9414 76.6036L68.9446 76.5936C68.9677 76.5172 69.0485 76.4738 69.1249 76.4969C69.1961 76.5184 69.2383 76.5881 69.2271 76.6585Z" fill="#C6EEEF"/>
<path d="M57.4122 110.965C57.4317 110.893 57.4189 110.829 57.4118 110.763L57.3907 110.564L57.3561 110.167C57.3366 109.902 57.3222 109.637 57.3139 109.371C57.2976 108.84 57.3031 108.308 57.3342 107.777C57.3994 106.715 57.559 105.65 57.9088 104.631C58.2547 103.62 58.819 102.636 59.6949 101.955C60.1315 101.62 60.6333 101.368 61.1618 101.219C61.6895 101.065 62.2395 101.007 62.7819 101.014C64.9126 101.1 67.0135 101.349 69.1144 101.522C70.1598 101.599 71.2188 101.657 72.2237 101.442C72.4732 101.386 72.7176 101.312 72.9532 101.217C73.186 101.115 73.4132 101 73.6229 100.855C74.0456 100.57 74.4077 100.196 74.7257 99.7878L74.7265 99.7866C74.7703 99.7305 74.8515 99.7202 74.9076 99.764C74.9633 99.8073 74.9736 99.8869 74.9319 99.943C74.6107 100.374 74.2374 100.778 73.7889 101.096C73.5664 101.256 73.3237 101.387 73.0741 101.501C72.8222 101.611 72.5608 101.695 72.2957 101.761C71.2264 102 70.1447 101.946 69.0877 101.882C68.0275 101.811 66.9773 101.694 65.9251 101.605C64.8764 101.514 63.8159 101.429 62.7748 101.386C62.2618 101.375 61.7476 101.426 61.2585 101.563C60.7682 101.696 60.3074 101.925 59.9023 102.229C59.0856 102.839 58.5289 103.755 58.1771 104.728C57.8205 105.705 57.6438 106.748 57.5602 107.793C57.5196 108.316 57.5049 108.842 57.5113 109.368C57.5148 109.63 57.524 109.893 57.5383 110.156L57.5654 110.549L57.5825 110.745C57.5893 110.81 57.5913 110.877 57.6279 110.936C57.6625 110.993 57.6454 111.067 57.5889 111.102C57.5324 111.136 57.4587 111.119 57.4237 111.063C57.4058 111.033 57.4018 110.999 57.4098 110.968L57.4122 110.965Z" fill="#C6EEEF"/>
<defs>
<linearGradient id="paint0_linear_77_2828" x1="64.5559" y1="21.1874" x2="65.1844" y2="13.2358" gradientUnits="userSpaceOnUse">
<stop stop-color="#E7D0C9"/>
<stop offset="1" stop-color="#EFD9DB"/>
</linearGradient>
<linearGradient id="paint1_linear_77_2828" x1="82.2258" y1="4.00653" x2="83.0325" y2="9.29461" gradientUnits="userSpaceOnUse">
<stop stop-color="#FF928E"/>
<stop offset="1" stop-color="#FE7062"/>
</linearGradient>
<linearGradient id="paint2_linear_77_2828" x1="82.4865" y1="14.1077" x2="84.5819" y2="7.41739" gradientUnits="userSpaceOnUse">
<stop stop-color="#FEBBBA"/>
<stop offset="1" stop-color="#FF928E"/>
</linearGradient>
<linearGradient id="paint3_linear_77_2828" x1="85.5808" y1="15.0767" x2="87.676" y2="8.38641" gradientUnits="userSpaceOnUse">
<stop stop-color="#FEBBBA"/>
<stop offset="1" stop-color="#FF928E"/>
</linearGradient>
<linearGradient id="paint4_linear_77_2828" x1="84.1764" y1="21.0459" x2="85.1424" y2="14.5811" gradientUnits="userSpaceOnUse">
<stop stop-color="#FEBBBA"/>
<stop offset="1" stop-color="#FF928E"/>
</linearGradient>
<linearGradient id="paint5_linear_77_2828" x1="83.9046" y1="14.5517" x2="85.9999" y2="7.8614" gradientUnits="userSpaceOnUse">
<stop stop-color="#FEBBBA"/>
<stop offset="1" stop-color="#FF928E"/>
</linearGradient>
<linearGradient id="paint6_linear_77_2828" x1="68.9901" y1="36.6172" x2="72.3562" y2="45.1157" gradientUnits="userSpaceOnUse">
<stop stop-color="#FEBBBA"/>
<stop offset="1" stop-color="#FF928E"/>
</linearGradient>
<linearGradient id="paint7_linear_77_2828" x1="70.0019" y1="42.1321" x2="72.326" y2="29.2038" gradientUnits="userSpaceOnUse">
<stop stop-color="#FEBBBA"/>
<stop offset="1" stop-color="#FF928E"/>
</linearGradient>
<linearGradient id="paint8_linear_77_2828" x1="69.922" y1="36.3424" x2="71.1808" y2="45.3961" gradientUnits="userSpaceOnUse">
<stop stop-color="#FEBBBA"/>
<stop offset="1" stop-color="#FF928E"/>
</linearGradient>
<linearGradient id="paint9_linear_77_2828" x1="91.0262" y1="27.3011" x2="88.3723" y2="39.55" gradientUnits="userSpaceOnUse">
<stop stop-color="#FEBBBA"/>
<stop offset="1" stop-color="#FF928E"/>
</linearGradient>
<linearGradient id="paint10_linear_77_2828" x1="89.4315" y1="31.2535" x2="91.1325" y2="23.1228" gradientUnits="userSpaceOnUse">
<stop stop-color="#FEBBBA"/>
<stop offset="1" stop-color="#FF928E"/>
</linearGradient>
<linearGradient id="paint11_linear_77_2828" x1="91.4027" y1="31.6657" x2="93.1037" y2="23.535" gradientUnits="userSpaceOnUse">
<stop stop-color="#FEBBBA"/>
<stop offset="1" stop-color="#FF928E"/>
</linearGradient>
<linearGradient id="paint12_linear_77_2828" x1="87.73" y1="30.8974" x2="89.431" y2="22.7668" gradientUnits="userSpaceOnUse">
<stop stop-color="#FEBBBA"/>
<stop offset="1" stop-color="#FF928E"/>
</linearGradient>
<linearGradient id="paint13_linear_77_2828" x1="50.8719" y1="45.1954" x2="38.5521" y2="62.2247" gradientUnits="userSpaceOnUse">
<stop stop-color="#FEBBBA"/>
<stop offset="1" stop-color="#FF928E"/>
</linearGradient>
<linearGradient id="paint14_linear_77_2828" x1="39.7761" y1="125.267" x2="34.1901" y2="59.98" gradientUnits="userSpaceOnUse">
<stop stop-color="#FEBBBA"/>
<stop offset="1" stop-color="#FF928E"/>
</linearGradient>
<linearGradient id="paint15_linear_77_2828" x1="28.5393" y1="126.239" x2="22.9517" y2="60.9342" gradientUnits="userSpaceOnUse">
<stop stop-color="#FEBBBA"/>
<stop offset="1" stop-color="#FF928E"/>
</linearGradient>
<linearGradient id="paint16_linear_77_2828" x1="40.3886" y1="60.9134" x2="39.3393" y2="53.2368" gradientUnits="userSpaceOnUse">
<stop stop-color="#FEBBBA"/>
<stop offset="1" stop-color="#FF928E"/>
</linearGradient>
<linearGradient id="paint17_linear_77_2828" x1="42.257" y1="51.6686" x2="36.4421" y2="33.9065" gradientUnits="userSpaceOnUse">
<stop stop-color="#FEBBBA"/>
<stop offset="1" stop-color="#FF928E"/>
</linearGradient>
<linearGradient id="paint18_linear_77_2828" x1="40.1327" y1="52.3643" x2="34.3178" y2="34.6023" gradientUnits="userSpaceOnUse">
<stop stop-color="#FEBBBA"/>
<stop offset="1" stop-color="#FF928E"/>
</linearGradient>
<linearGradient id="paint19_linear_77_2828" x1="52.351" y1="46.2654" x2="40.0312" y2="63.2948" gradientUnits="userSpaceOnUse">
<stop stop-color="#FEBBBA"/>
<stop offset="1" stop-color="#FF928E"/>
</linearGradient>
<linearGradient id="paint20_linear_77_2828" x1="55.7513" y1="40.0553" x2="58.0285" y2="40.0553" gradientUnits="userSpaceOnUse">
<stop stop-color="#FEBBBA"/>
<stop offset="1" stop-color="#FF928E"/>
</linearGradient>
<linearGradient id="paint21_linear_77_2828" x1="21.111" y1="70.8423" x2="43.0566" y2="61.6616" gradientUnits="userSpaceOnUse">
<stop stop-color="#FEBBBA"/>
<stop offset="1" stop-color="#FF928E"/>
</linearGradient>
</defs>
</svg>
