<svg width="103" height="108" viewBox="0 0 103 108" fill="none" xmlns="http://www.w3.org/2000/svg">
<path d="M70.6513 104.056C70.4671 104.031 70.3022 103.933 70.1914 103.784C68.577 101.608 56.8381 84.5818 72.461 69.0181C87.2919 54.2433 94.0145 51.2094 94.9088 42.5286C95.0134 41.5147 96.3837 41.2713 96.8347 42.1853C100.205 49.0155 105.455 64.9537 88.0797 75.415C68.913 86.9548 70.4836 99.6049 71.4106 103.2C71.5329 103.675 71.1372 104.122 70.6513 104.056Z" fill="#C6EEEF"/>
<path d="M73.0281 104.38C72.5921 104.32 72.2464 103.984 72.1791 103.549C71.7216 100.588 70.5982 89.5248 78.7487 86.5908C87.7213 83.3612 94.9653 91.7175 101.561 85.1771C101.908 84.833 102.491 85.1329 102.409 85.6146C101.821 89.0311 99.2068 96.9448 87.5733 98.5374C75.1215 100.242 73.7201 101.67 73.9716 103.442C74.0492 103.988 73.5748 104.454 73.0281 104.38Z" fill="#C6EEEF"/>
<path opacity="0.47" d="M94.4747 51.3794C94.3228 52.0234 94.1202 52.6278 93.8791 53.2276C93.6423 53.827 93.3693 54.411 93.0717 54.9827C92.4827 56.13 91.7757 57.2154 91.0017 58.2493C89.4434 60.312 87.5579 62.124 85.4798 63.6608C84.4433 64.4248 83.3352 65.1268 82.2398 65.7612C81.1733 66.3798 80.1471 67.0719 79.1644 67.8212C77.1974 69.3199 75.4138 71.0589 73.8386 72.9656C70.7008 76.7819 68.4735 81.388 67.7403 86.2916C67.3663 88.7377 67.3616 91.2426 67.6988 93.7094C68.0318 96.1793 68.7358 98.5976 69.6643 100.93C69.7143 101.054 69.6543 101.195 69.5301 101.246C69.4105 101.294 69.2744 101.239 69.2194 101.124C68.1341 98.8199 67.3228 96.37 66.8737 93.8401C66.6442 92.5767 66.5085 91.2933 66.4696 90.0053C66.4389 88.7173 66.4931 87.4239 66.6554 86.1424C66.9672 83.5764 67.6911 81.0631 68.7335 78.697C69.7789 76.3298 71.1599 74.1186 72.7732 72.102C74.3857 70.0824 76.2569 68.2753 78.3027 66.6966C79.3278 65.9092 80.3993 65.1803 81.5181 64.5259C82.6131 63.8973 83.6528 63.259 84.6601 62.5324C86.6702 61.0967 88.5276 59.4392 90.1255 57.548C90.9344 56.6106 91.6668 55.6071 92.3362 54.5613C92.9921 53.5132 93.6054 52.4075 94.0468 51.264L94.0525 51.249C94.0964 51.1349 94.2248 51.078 94.339 51.1222C94.4432 51.1622 94.4997 51.2733 94.4747 51.3794Z" fill="white"/>
<path opacity="0.47" d="M72.5114 102.371C72.5494 102.264 72.5375 102.165 72.534 102.062L72.5244 101.757L72.5175 101.147C72.5183 100.74 72.5271 100.334 72.5448 99.9276C72.5809 99.1152 72.6502 98.304 72.759 97.4966C72.9804 95.8844 73.3457 94.2773 73.9966 92.7632C74.6402 91.2599 75.6145 89.8231 77.0286 88.8842C77.733 88.4232 78.5281 88.0953 79.3516 87.9284C80.1744 87.755 81.0203 87.7292 81.8473 87.8019C85.0884 88.1779 88.2658 88.7993 91.4512 89.3041C93.0379 89.5405 94.647 89.752 96.2049 89.539C96.592 89.4821 96.9734 89.3979 97.3437 89.2787C97.7105 89.1507 98.0707 89.0007 98.4072 88.8035C99.0846 88.4167 99.6802 87.888 100.213 87.3013L100.214 87.2994C100.288 87.2187 100.413 87.2125 100.493 87.2859C100.573 87.3582 100.58 87.4809 100.51 87.562C99.9705 88.1829 99.3541 88.757 98.634 89.1895C98.2764 89.4094 97.8904 89.5805 97.4971 89.7266C97.0999 89.8639 96.6916 89.9635 96.2798 90.0327C94.6208 90.2757 92.976 90.0692 91.3712 89.8489C89.7618 89.6197 88.1723 89.3214 86.5775 89.0634C84.9877 88.8046 83.379 88.5543 81.7958 88.3686C81.0141 88.2929 80.224 88.3113 79.462 88.4651C78.6988 88.6124 77.969 88.9073 77.3162 89.3252C76.0001 90.1634 75.0455 91.4968 74.3968 92.9401C73.7409 94.3907 73.3511 95.9613 73.1038 97.5462C72.982 98.3401 72.8989 99.1406 72.8486 99.9438C72.8236 100.345 72.8074 100.747 72.7993 101.15L72.7951 101.753L72.799 102.054C72.8016 102.154 72.797 102.256 72.8462 102.351C72.8928 102.441 72.8578 102.552 72.7678 102.598C72.6778 102.645 72.5671 102.61 72.5206 102.52C72.4964 102.473 72.4944 102.421 72.5106 102.374L72.5114 102.371Z" fill="white"/>
<path d="M55.5754 1.22255C50.6917 1.1841 45.7658 1.95845 41.4077 3.76665C31.2628 7.97593 22.6528 19.1139 26.0224 30.4907C27.117 34.1863 26.5418 38.2637 30.2236 39.8697C32.2156 40.7386 37.6406 41.2561 39.7033 40.5709C45.1856 38.7508 48.7889 33.7691 45.8073 28.2449C44.8526 26.4759 43.6165 24.8596 42.7922 23.0264C41.9679 21.1928 41.5919 19.0166 42.4323 17.1904C44.0825 13.6055 49.564 12.4659 53.1185 12.5735C57.314 12.7004 61.1157 14.7755 63.3734 18.3357C66.1874 22.7726 66.9002 28.1692 66.4884 33.3193C66.0478 38.83 63.724 43.0385 60.2418 47.2659C57.2436 50.9058 53.9421 54.3991 51.9497 58.673C50.1204 62.5966 49.5225 66.9439 49.4398 71.2363C49.4237 72.0683 45.2863 79.9086 45.304 82.3039C45.3067 82.6422 49.9966 83.7634 50.3349 83.7672C52.1008 83.7868 57.1021 83.843 58.943 83.8633C59.3217 83.8676 59.6335 83.565 59.6378 83.1863C59.7689 71.5331 63.3534 60.4228 72.4271 52.5963C75.7286 49.7485 79.2843 47.4293 81.8518 43.8348C85.5109 38.7116 87.316 33.6695 86.7951 27.3468C86.3191 21.5719 84.4178 15.7943 80.6538 11.3136C76.6079 6.498 70.6866 3.4906 64.5326 2.19298C61.6632 1.58819 58.6277 1.24639 55.5754 1.22255Z" fill="#597B8E"/>
<path d="M64.581 96.9265C64.581 102.285 61.6106 107.026 56.2521 107.026C55.0944 107.026 51.1573 107.037 50.1281 106.665C46.3925 105.316 46.379 102.445 46.379 98.2445C46.379 92.8857 48.1884 87.6156 53.5473 87.6156C58.9061 87.6156 64.581 91.5677 64.581 96.9265Z" fill="#597B8E"/>
<path d="M50.9351 0.00136114C46.0514 -0.0370868 41.1255 0.737255 36.7674 2.54546C26.6226 6.75474 18.0125 17.8927 21.3821 29.2695C22.4767 32.9651 25.0074 37.6173 28.6891 39.2233C30.6811 40.0922 33.0003 40.0345 35.063 39.3498C40.5453 37.5296 44.1487 32.5479 41.167 27.0237C40.2124 25.2547 38.9763 23.6384 38.1519 21.8052C37.3276 19.972 36.9516 17.7955 37.7921 15.9692C39.4422 12.3843 44.9238 11.2447 48.4783 11.3523C52.6737 11.4792 56.4754 13.5543 58.7331 17.1145C61.5471 21.5514 62.2599 26.948 61.8482 32.0981C61.4075 37.6088 59.0838 41.8173 55.6015 46.0447C52.6034 49.6846 49.3018 53.1779 47.3095 57.4518C45.4801 61.3754 44.8822 65.7227 44.7996 70.0151C44.7834 70.8471 45.0637 79.5348 45.0814 81.9301C45.0841 82.2684 45.3563 82.5418 45.6946 82.5456C47.4606 82.5652 52.4619 82.6214 54.3028 82.6418C54.6815 82.646 54.9933 82.3434 54.9975 81.9647C55.1286 70.3115 58.7131 59.2012 67.7868 51.3747C71.0883 48.5269 74.644 46.2077 77.2116 42.6132C80.8707 37.49 82.6758 32.448 82.1548 26.1252C81.6788 20.3503 79.7776 14.5727 76.0135 10.092C71.9676 5.27642 66.0463 2.26902 59.8923 0.971402C57.0229 0.367 53.9875 0.0251989 50.9351 0.00136114Z" fill="#74A1BB"/>
<path d="M51.4415 106.726C56.8001 106.726 61.1442 102.382 61.1442 97.0232C61.1442 91.6645 56.8001 87.3204 51.4415 87.3204C46.0828 87.3204 41.7388 91.6645 41.7388 97.0232C41.7388 102.382 46.0828 106.726 51.4415 106.726Z" fill="#74A1BB"/>
<path opacity="0.63" d="M24.5937 28.1549C24.5365 28.1549 24.4853 28.1153 24.4722 28.0572C23.7921 24.9872 23.6925 20.1793 27.0782 14.7097C30.3828 9.37155 35.0185 5.79936 40.8561 4.09304C47.0966 2.26907 54.5051 2.6597 62.8775 5.25378C62.9433 5.27416 62.9802 5.34375 62.9598 5.40949C62.9394 5.47524 62.8691 5.51215 62.8041 5.49177C46.7198 0.507768 34.1073 3.82813 27.2897 14.8412C23.9478 20.2392 24.0451 24.9787 24.7152 28.0038C24.7302 28.0711 24.6875 28.1376 24.6206 28.1522C24.6118 28.1541 24.603 28.1549 24.5937 28.1549Z" fill="white"/>
<path opacity="0.63" d="M26.635 33.0947C26.5965 33.0947 26.5588 33.077 26.5342 33.0435C26.5046 33.0032 25.8056 32.037 25.1551 30.3356C25.1305 30.2714 25.1628 30.1995 25.227 30.1749C25.2908 30.1503 25.3631 30.1822 25.3877 30.2468C26.0252 31.9147 26.728 32.8871 26.7349 32.8967C26.7753 32.952 26.7634 33.0301 26.7076 33.0705C26.6861 33.087 26.6603 33.0947 26.635 33.0947Z" fill="white"/>
<path opacity="0.63" d="M54.688 90.7348C54.6692 90.7348 54.65 90.7306 54.6319 90.7214C53.6376 90.2169 52.5641 89.9612 51.4415 89.9612C51.3726 89.9612 51.3169 89.9054 51.3169 89.8366C51.3169 89.7678 51.3726 89.712 51.4415 89.712C52.6038 89.712 53.7153 89.977 54.7445 90.4991C54.8057 90.5303 54.8303 90.6052 54.7991 90.6664C54.7772 90.7098 54.7334 90.7348 54.688 90.7348Z" fill="white"/>
<path opacity="0.63" d="M47.4233 103.107C47.3995 103.107 47.3753 103.1 47.3537 103.086C45.3352 101.722 44.1302 99.4558 44.1302 97.0232C44.1302 94.3264 45.6074 91.8569 47.9847 90.5789C48.045 90.5462 48.1208 90.5689 48.1535 90.6297C48.1861 90.6904 48.1635 90.7658 48.1027 90.7985C45.8058 92.033 44.379 94.4179 44.379 97.0232C44.379 99.3727 45.5432 101.562 47.4929 102.88C47.5498 102.918 47.5648 102.995 47.5264 103.053C47.5025 103.088 47.4633 103.107 47.4233 103.107Z" fill="white"/>
<g opacity="0.3">
<path opacity="0.3" d="M19.1653 18.1523C19.0634 18.2784 18.8785 18.2976 18.7524 18.1957C18.5075 17.9973 18.2503 17.807 17.988 17.6294C17.8554 17.5394 17.8196 17.3602 17.9065 17.2264C17.9077 17.2249 17.9085 17.2234 17.9096 17.2218C18.0003 17.0876 18.183 17.0527 18.3175 17.1434C18.5936 17.3302 18.8643 17.5309 19.1219 17.7397C19.2399 17.8351 19.2645 18.0031 19.1834 18.1277C19.1776 18.1361 19.1719 18.1442 19.1653 18.1523ZM16.6524 16.8523C16.3686 16.712 16.076 16.5828 15.7827 16.4679C15.632 16.4087 15.5574 16.2383 15.6166 16.0872C15.6766 15.9357 15.8461 15.8619 15.9972 15.9211C16.3059 16.0422 16.6139 16.1783 16.9127 16.3256C17.058 16.3975 17.1176 16.5736 17.0461 16.7189C17.0407 16.7293 17.0349 16.7397 17.0288 16.7493C16.9484 16.8723 16.7869 16.9192 16.6524 16.8523ZM14.309 16.0057C14.0018 15.9327 13.688 15.8719 13.3754 15.825C13.2151 15.8012 13.1044 15.6516 13.1282 15.4913C13.1525 15.331 13.3016 15.2202 13.462 15.2441C13.7911 15.2933 14.1217 15.3571 14.4451 15.4344C14.6027 15.4721 14.7 15.6305 14.6627 15.7881C14.6546 15.8216 14.6412 15.8527 14.6235 15.88C14.5573 15.9815 14.4328 16.0353 14.309 16.0057ZM11.8348 15.7047C11.5188 15.702 11.1989 15.7127 10.884 15.7373C10.7222 15.7497 10.5811 15.6289 10.5688 15.4671C10.5564 15.3052 10.6776 15.1645 10.839 15.1518C11.1705 15.1264 11.5073 15.1149 11.8398 15.1176C12.0021 15.1191 12.1324 15.2518 12.1309 15.4136C12.1305 15.4717 12.1132 15.5255 12.0836 15.5709C12.0309 15.652 11.939 15.7054 11.8348 15.7047ZM9.35534 15.9619C9.04737 16.0292 8.73786 16.1107 8.43528 16.2041C8.28033 16.2518 8.11577 16.1653 8.0681 16.0103C8.02004 15.8554 8.10693 15.6908 8.26188 15.6432C8.57984 15.5447 8.90588 15.459 9.23 15.3882C9.3884 15.3536 9.54488 15.454 9.57949 15.6124C9.59679 15.6924 9.58026 15.7716 9.53873 15.835C9.49836 15.8977 9.43415 15.945 9.35534 15.9619ZM6.99502 16.7616C6.70897 16.8958 6.42522 17.0434 6.15186 17.2014C6.01152 17.2826 5.83197 17.2341 5.75085 17.0938C5.66972 16.9535 5.71778 16.7739 5.8585 16.6928C6.14647 16.5267 6.44521 16.371 6.74626 16.2299C6.89313 16.161 7.06807 16.2245 7.13689 16.3714C7.18149 16.4667 7.17034 16.574 7.1169 16.6563C7.08768 16.7005 7.04654 16.7374 6.99502 16.7616ZM0.376982 25.4274C0.216654 25.4032 0.10631 25.2536 0.130532 25.0933C0.18013 24.7649 0.244722 24.4339 0.322771 24.1102C0.360835 23.9525 0.519239 23.8552 0.676875 23.8933C0.834511 23.931 0.931401 24.0898 0.893722 24.2474C0.819902 24.555 0.758385 24.8691 0.711479 25.1809C0.704943 25.2236 0.689563 25.2628 0.667648 25.297C0.606516 25.3905 0.494632 25.4451 0.376982 25.4274ZM4.87154 18.0638C4.62278 18.258 4.37941 18.4652 4.14795 18.6802C4.02915 18.7905 3.84344 18.7836 3.7331 18.6648C3.62275 18.546 3.63006 18.3607 3.74848 18.2499C3.99185 18.0238 4.2483 17.8055 4.51052 17.6009C4.63855 17.5013 4.82271 17.524 4.92268 17.6521C5.00188 17.7536 5.0038 17.8904 4.93729 17.9927C4.91999 18.0188 4.89807 18.0431 4.87154 18.0638ZM0.977923 22.9398C0.827207 22.8802 0.753003 22.7099 0.812597 22.5588C0.934477 22.2497 1.07135 21.9421 1.21899 21.6437C1.2905 21.498 1.46736 21.4392 1.6127 21.5111C1.75803 21.583 1.81724 21.7594 1.74534 21.9048C1.60501 22.1881 1.47467 22.4807 1.35894 22.7745C1.35164 22.7933 1.34241 22.8106 1.33164 22.8268C1.25705 22.9417 1.1098 22.9921 0.977923 22.9398ZM3.09256 19.8074C2.8934 20.0524 2.70231 20.3088 2.52468 20.5703C2.43356 20.7044 2.25093 20.739 2.11675 20.6479C1.98449 20.5579 1.94873 20.3788 2.03562 20.2454C2.03678 20.2438 2.03793 20.2419 2.03908 20.2404C2.22633 19.9651 2.42741 19.6948 2.63657 19.4372C2.73884 19.3115 2.92377 19.2922 3.04988 19.3945C3.16753 19.4899 3.19175 19.6579 3.11101 19.7821C3.10563 19.7905 3.09948 19.799 3.09256 19.8074Z" fill="#C6EEEF"/>
<path opacity="0.3" d="M0.545322 27.3551C0.57685 27.3067 0.594535 27.2482 0.592613 27.1863C0.587999 27.0349 0.586076 26.8811 0.587614 26.7288C0.589152 26.5666 0.458814 26.4339 0.296948 26.4324C0.134699 26.4308 0.00205508 26.5612 0.000517168 26.7234C-0.00102075 26.8838 0.000899862 27.0456 0.00589808 27.2048C0.0108963 27.3667 0.146617 27.4943 0.308482 27.4889C0.408062 27.4859 0.494571 27.4332 0.545322 27.3551Z" fill="#C6EEEF"/>
</g>
<g opacity="0.3">
<path opacity="0.3" d="M4.29825 35.4827C4.37553 35.3639 4.35708 35.2032 4.24865 35.1052C4.13639 35.0037 4.02412 34.8979 3.91569 34.7914C3.79996 34.6776 3.61387 34.6796 3.50045 34.7953C3.38626 34.9114 3.38857 35.0971 3.5043 35.2105C3.61887 35.3228 3.73652 35.4339 3.85494 35.5408C3.97529 35.6496 4.16099 35.6404 4.2698 35.52C4.28018 35.5081 4.28979 35.4958 4.29825 35.4827Z" fill="#C6EEEF"/>
<path opacity="0.3" d="M21.2306 33.724C21.1357 33.8555 20.9523 33.8851 20.8208 33.7901C20.6893 33.6952 20.6597 33.5122 20.7547 33.3803C20.9354 33.13 21.1084 32.8682 21.2706 32.599C21.3537 32.4606 21.5348 32.4156 21.6736 32.4991C21.8124 32.5829 21.857 32.7632 21.7735 32.902C21.7032 33.0185 21.6313 33.1335 21.5574 33.2469C21.4525 33.4087 21.3425 33.5691 21.2306 33.724ZM22.1188 31.6325C21.97 31.5682 21.9012 31.3956 21.9654 31.2468C22.0884 30.9608 22.2011 30.6666 22.2995 30.3725C22.3502 30.2187 22.5175 30.1357 22.6713 30.1872C22.8251 30.2387 22.9077 30.4052 22.8566 30.559C22.7528 30.8689 22.6344 31.1788 22.5048 31.4794C22.4983 31.4952 22.4902 31.5098 22.4813 31.5236C22.4045 31.6409 22.2522 31.6897 22.1188 31.6325ZM20.2075 34.954C19.9818 35.19 19.7431 35.42 19.4974 35.6372C19.3759 35.7445 19.1902 35.7333 19.0829 35.6118C18.9757 35.4903 18.9872 35.305 19.1087 35.1973C19.3421 34.9913 19.5685 34.7733 19.7827 34.5487C19.8946 34.4315 20.0807 34.4272 20.1979 34.5391C20.3017 34.6383 20.3167 34.7952 20.2414 34.9113C20.2318 34.9263 20.2202 34.9405 20.2075 34.954ZM22.9166 29.2437C22.7574 29.2137 22.6521 29.0603 22.682 28.9011C22.7393 28.5954 22.7843 28.284 22.8158 27.9749C22.832 27.8134 22.9762 27.6962 23.1377 27.7123C23.2991 27.7284 23.4164 27.8726 23.4003 28.0341C23.3672 28.3598 23.3199 28.6877 23.2595 29.0095C23.2522 29.0484 23.2376 29.0841 23.2172 29.1153C23.1542 29.2118 23.0369 29.2664 22.9166 29.2437ZM18.2294 36.6111C17.9576 36.7918 17.6742 36.9633 17.387 37.1213C17.2447 37.1993 17.0663 37.1474 16.9883 37.0055C16.9102 36.8633 16.9622 36.6849 17.104 36.6068C17.3766 36.4569 17.6461 36.2939 17.9041 36.1224C18.0391 36.0328 18.2213 36.0693 18.3113 36.2043C18.3782 36.305 18.3747 36.4319 18.3128 36.5269C18.2921 36.5596 18.264 36.5884 18.2294 36.6111ZM15.936 37.7945C15.6303 37.9118 15.3162 38.0175 15.0025 38.1086C14.8467 38.154 14.6837 38.0644 14.6384 37.9087C14.593 37.7526 14.6826 37.59 14.8383 37.545C15.1366 37.4581 15.435 37.3577 15.7253 37.2466C15.8768 37.1886 16.0467 37.2643 16.1048 37.4158C16.1398 37.5069 16.1263 37.605 16.0767 37.6811C16.0444 37.7307 15.9963 37.7714 15.936 37.7945ZM13.4392 38.4497C13.1151 38.4977 12.7856 38.5323 12.4595 38.5531C12.2977 38.5635 12.1581 38.4404 12.1477 38.2786C12.1373 38.1167 12.2604 37.9771 12.4222 37.9671C12.7321 37.9475 13.0451 37.9145 13.353 37.8691C13.5134 37.8452 13.6629 37.9564 13.6864 38.1167C13.6972 38.1905 13.6799 38.2616 13.6422 38.3197C13.5983 38.3874 13.5261 38.437 13.4392 38.4497ZM10.8589 38.545C10.5325 38.5208 10.203 38.4827 9.88005 38.4312C9.7201 38.4058 9.61091 38.2551 9.63629 38.0948C9.66166 37.9348 9.81238 37.8256 9.97271 37.851C10.2791 37.8998 10.5921 37.9364 10.9024 37.9591C11.0642 37.971 11.1854 38.1117 11.1734 38.2736C11.1696 38.3247 11.1531 38.3716 11.1269 38.4116C11.0704 38.4985 10.9697 38.5531 10.8589 38.545ZM8.31945 38.0702C8.00687 37.9748 7.69428 37.8652 7.39016 37.7434C7.23944 37.683 7.1664 37.5123 7.22637 37.3616C7.28635 37.2116 7.45745 37.1378 7.60778 37.1978C7.89652 37.3131 8.19334 37.4177 8.49016 37.5081C8.6451 37.5554 8.73276 37.7195 8.68547 37.8745C8.6774 37.9014 8.66548 37.9264 8.65087 37.9491C8.58205 38.0567 8.44786 38.1094 8.31945 38.0702ZM5.94875 37.0509C5.73921 36.9321 5.53082 36.8056 5.32935 36.6749C5.2563 36.6276 5.18402 36.5795 5.11251 36.5307C4.97871 36.4396 4.94026 36.2566 5.03523 36.1228C5.12635 35.9886 5.30898 35.954 5.44316 36.0455C5.51121 36.0916 5.58003 36.1378 5.64924 36.1828C5.84071 36.3073 6.03872 36.4277 6.23788 36.5403C6.37898 36.6203 6.42858 36.7995 6.34861 36.9406C6.34553 36.946 6.34246 36.9509 6.339 36.9559C6.25556 37.0847 6.08447 37.1278 5.94875 37.0509Z" fill="#C6EEEF"/>
<path opacity="0.3" d="M23.4041 26.5974C23.4361 26.5486 23.4534 26.4897 23.4514 26.4271C23.4457 26.2683 23.4364 26.1064 23.4238 25.9465C23.4111 25.7846 23.27 25.6639 23.1081 25.6766C22.9462 25.6893 22.8255 25.8304 22.8382 25.9922C22.8501 26.1445 22.859 26.2979 22.8643 26.449C22.8701 26.6109 23.0062 26.7377 23.1685 26.7316C23.268 26.7274 23.3542 26.6747 23.4041 26.5974Z" fill="#C6EEEF"/>
</g>
<path d="M19.7213 23.1659C19.7032 23.1102 19.6521 23.0717 19.5936 23.0706L17.9238 23.034C17.5228 22.365 17.0118 21.7552 16.4009 21.2347L16.6393 19.5826C16.6477 19.5245 16.6181 19.4676 16.5662 19.4411L14.7849 18.5241C14.733 18.4972 14.6696 18.5064 14.6273 18.5468L13.4212 19.701C12.6426 19.506 11.8494 19.4449 11.072 19.5072L10.0716 18.1696C10.0366 18.1227 9.97549 18.1031 9.91974 18.1212L8.01196 18.7325C7.95621 18.7502 7.91776 18.8017 7.9166 18.8601L7.88008 20.5299C7.21109 20.9309 6.6013 21.4419 6.08072 22.0528L4.42861 21.8145C4.37055 21.806 4.31365 21.8352 4.28712 21.8875L3.37014 23.6688C3.34322 23.7207 3.35245 23.7841 3.39321 23.8264L4.54741 25.0325C4.35248 25.8111 4.29135 26.6043 4.35364 27.3817L3.01603 28.3821C2.96913 28.4171 2.94952 28.4783 2.96759 28.534L3.57891 30.4418C3.59659 30.4975 3.64812 30.536 3.70656 30.5371L5.37635 30.5737C5.77736 31.2427 6.28834 31.8524 6.89927 32.373L6.6609 34.0251C6.65244 34.0832 6.68166 34.1401 6.73395 34.1666L8.51524 35.0836C8.56714 35.1105 8.63058 35.1013 8.67288 35.0605L9.87899 33.9063C10.6576 34.1013 11.4507 34.1624 12.2282 34.1001L13.2286 35.4377C13.2636 35.4846 13.3247 35.5042 13.3804 35.4862L15.2882 34.8748C15.344 34.8571 15.3824 34.8056 15.3836 34.7472L15.4201 33.0774C16.0891 32.6764 16.6989 32.1654 17.2195 31.5545L18.8716 31.7929C18.9296 31.8013 18.9865 31.7717 19.0131 31.7198L19.93 29.9385C19.957 29.8866 19.9477 29.8232 19.9074 29.7809L18.7532 28.5748C18.9481 27.7962 19.0092 27.003 18.9469 26.2256L20.2845 25.2252C20.3314 25.1902 20.351 25.1291 20.333 25.0733L19.7213 23.1659Z" fill="#C6EEEF"/>
<path d="M13.1605 28.1361C12.4262 28.9689 11.1512 29.0493 10.3181 28.3149C9.91435 27.9593 9.67366 27.4675 9.63983 26.9308C9.60599 26.3941 9.78324 25.8762 10.1393 25.4725C10.8736 24.6397 12.1486 24.5593 12.9817 25.2937C13.7395 25.9619 13.8741 27.0773 13.3393 27.9004C13.2862 27.982 13.2266 28.0608 13.1605 28.1361ZM10.1089 26.9012C10.1347 27.313 10.3196 27.6898 10.6287 27.9623C11.2673 28.5252 12.2451 28.4637 12.8079 27.8251C13.3712 27.1865 13.3093 26.2087 12.6707 25.6459C12.0321 25.083 11.0543 25.1445 10.4915 25.7831C10.4403 25.8412 10.3942 25.9019 10.353 25.9654C10.1739 26.2414 10.0877 26.5663 10.1089 26.9012Z" fill="#74A1BB"/>
<path d="M15.7558 29.5198C15.8476 29.3784 15.933 29.2315 16.011 29.0796C16.0357 29.0319 16.0595 28.9835 16.0826 28.935C16.1964 28.6955 16.2909 28.4471 16.3648 28.1938C16.3659 28.1903 16.3667 28.1869 16.3678 28.1834C16.3705 28.1738 16.3736 28.1638 16.3763 28.1538C16.3817 28.1346 16.3871 28.1153 16.3921 28.0965C16.4055 28.0461 16.3844 27.9946 16.3429 27.9673C16.3329 27.9608 16.3213 27.9558 16.309 27.9523C16.2463 27.9354 16.1821 27.9727 16.1652 28.0354C16.0783 28.3576 15.9565 28.6728 15.8023 28.972C15.0375 30.4584 13.5873 31.3661 12.0348 31.5099C11.1712 31.5899 10.2762 31.433 9.44953 31.0078C9.30458 30.9332 9.16425 30.8517 9.02968 30.764C8.12231 30.1742 7.45101 29.2976 7.11613 28.253C6.73165 27.053 6.83738 25.7754 7.4141 24.655C8.60522 22.3416 11.4542 21.4292 13.7668 22.6196C13.9095 22.693 14.0479 22.7734 14.1813 22.8603C14.76 23.2367 15.2502 23.7354 15.6146 24.3225C15.6243 24.3374 15.6362 24.3498 15.6504 24.359C15.6873 24.3828 15.7365 24.3851 15.7765 24.3601C15.8315 24.3259 15.8488 24.2536 15.8142 24.1983C15.4316 23.5819 14.9172 23.0583 14.3093 22.663C14.169 22.5719 14.0241 22.4877 13.8745 22.4104C11.4465 21.1609 8.4545 22.1202 7.20533 24.5474C6.60016 25.7235 6.48904 27.0649 6.89275 28.3245C7.24416 29.421 7.94891 30.3415 8.90165 30.9605C9.04314 31.0524 9.19039 31.1377 9.34226 31.2162C10.5184 31.8213 11.8598 31.9325 13.1194 31.5287C14.2163 31.1781 15.1367 30.473 15.7558 29.5198Z" fill="#74A1BB"/>
<g opacity="0.3">
<path opacity="0.3" d="M31.1314 13.9419C31.1741 13.8762 31.1706 13.7877 31.1168 13.7251C31.0164 13.6082 30.9115 13.4928 30.8042 13.3821C30.7346 13.3102 30.6201 13.3083 30.5478 13.3779C30.4755 13.4475 30.474 13.5624 30.5435 13.6343C30.6458 13.7397 30.7458 13.85 30.8415 13.9615C30.9065 14.0376 31.0211 14.0461 31.0972 13.9811C31.111 13.9692 31.1222 13.9561 31.1314 13.9419Z" fill="#C6EEEF"/>
<path opacity="0.3" d="M30.1191 12.9861C30.0561 13.0642 29.9423 13.0765 29.8642 13.0134C29.6674 12.855 29.4601 12.7047 29.2479 12.567C29.2033 12.5378 29.1579 12.5093 29.1126 12.4809C29.0276 12.4282 29.0015 12.3163 29.0541 12.2314C29.1072 12.1529 29.2187 12.1203 29.304 12.1729C29.3517 12.2025 29.399 12.2325 29.4459 12.2629C29.6681 12.4071 29.8854 12.5647 30.0918 12.7312C30.1649 12.79 30.1803 12.8938 30.1303 12.9711C30.1264 12.9761 30.123 12.9811 30.1191 12.9861ZM28.3017 12.0441C28.0237 11.9153 27.735 11.8027 27.4439 11.7092C27.3486 11.6785 27.2959 11.5766 27.3267 11.4812C27.3574 11.3863 27.4593 11.3332 27.5547 11.364C27.8595 11.4616 28.1621 11.5797 28.454 11.715C28.5447 11.7569 28.5843 11.865 28.5424 11.9557C28.5385 11.9638 28.5343 11.9715 28.5297 11.9784C28.4813 12.053 28.3844 12.0822 28.3017 12.0441ZM26.5508 11.4832C26.2501 11.4267 25.9425 11.3886 25.6369 11.3694C25.5369 11.3632 25.4608 11.2771 25.4669 11.1771C25.4731 11.0768 25.5588 11.001 25.6592 11.0072C25.9798 11.0268 26.3024 11.0672 26.6177 11.1264C26.7161 11.1448 26.7811 11.2398 26.7626 11.3382C26.758 11.3621 26.7492 11.3844 26.7365 11.4036C26.6977 11.4636 26.6254 11.497 26.5508 11.4832ZM24.7157 11.3697C24.4096 11.3886 24.102 11.427 23.8018 11.4832C23.7033 11.5016 23.6084 11.4367 23.5899 11.3382C23.5715 11.2402 23.636 11.1452 23.7345 11.1264C24.0494 11.0672 24.3719 11.0272 24.6926 11.0076C24.7926 11.0014 24.8787 11.0775 24.8848 11.1775C24.8871 11.2179 24.8764 11.2559 24.856 11.2875C24.8264 11.334 24.7756 11.3663 24.7157 11.3697ZM22.9086 11.7077C22.6168 11.8004 22.3277 11.9123 22.0497 12.0395C21.9589 12.0814 21.8509 12.0414 21.8094 11.9503C21.7675 11.8592 21.8075 11.7515 21.8986 11.71C22.19 11.5762 22.4926 11.4593 22.7986 11.3621C22.894 11.3317 22.9963 11.3847 23.0263 11.4801C23.0436 11.5339 23.034 11.5901 23.0055 11.6339C22.984 11.6677 22.9501 11.6946 22.9086 11.7077ZM21.2384 12.4744C20.9781 12.6351 20.7255 12.8139 20.4872 13.0053C20.4091 13.068 20.2949 13.0557 20.2323 12.9776C20.1696 12.8996 20.1819 12.7858 20.2599 12.7227C20.5095 12.522 20.7747 12.3344 21.0477 12.166C21.1331 12.1133 21.2446 12.1399 21.2973 12.2248C21.3353 12.2864 21.3319 12.3621 21.295 12.419C21.2811 12.4405 21.2623 12.4598 21.2384 12.4744ZM19.807 13.6255C19.5948 13.8446 19.3933 14.0799 19.2088 14.3252C19.1484 14.4052 19.0346 14.421 18.9546 14.361C18.8747 14.3006 18.8597 14.188 18.9189 14.1069C19.1126 13.85 19.3237 13.6032 19.5463 13.3733C19.6159 13.3014 19.7309 13.2995 19.8028 13.369C19.8662 13.4302 19.8751 13.5267 19.8285 13.5978C19.8224 13.6074 19.8151 13.6166 19.807 13.6255ZM18.0526 16.0143C17.9604 15.975 17.9173 15.8689 17.9565 15.7767C18.0646 15.5214 18.1884 15.2676 18.3245 15.0231C18.3448 14.9858 18.366 14.9489 18.3871 14.9123C18.4344 14.8247 18.5482 14.7958 18.6351 14.8462C18.722 14.8962 18.7512 15.0073 18.7013 15.0942C18.6813 15.1284 18.6617 15.1634 18.642 15.1988C18.5121 15.4329 18.3937 15.6748 18.2906 15.9185C18.2864 15.9285 18.2814 15.9381 18.2756 15.947C18.2283 16.0185 18.1349 16.0493 18.0526 16.0143Z" fill="#C6EEEF"/>
</g>
<g opacity="0.3">
<path opacity="0.3" d="M31.679 23.1859C31.5033 23.4485 31.3099 23.703 31.1045 23.9417C31.0392 24.0175 30.9246 24.0263 30.8489 23.961C30.7727 23.8956 30.7654 23.781 30.8296 23.7053C31.0257 23.4777 31.2099 23.2351 31.3775 22.9844C31.4333 22.901 31.5459 22.8787 31.629 22.9344C31.7116 22.9898 31.7343 23.1009 31.6805 23.1839C31.6801 23.1843 31.6793 23.1851 31.679 23.1859ZM31.9146 22.4453C31.8254 22.4 31.7897 22.2908 31.8351 22.2016C31.9712 21.9328 32.0927 21.6533 32.1957 21.3703C32.2299 21.2769 32.3341 21.2277 32.4283 21.2619C32.5225 21.2961 32.571 21.3999 32.5367 21.4941C32.4287 21.7906 32.3018 22.0839 32.1588 22.3654C32.1557 22.3711 32.1526 22.3769 32.1488 22.3823C32.0988 22.4596 31.9985 22.488 31.9146 22.4453ZM30.4425 24.623C30.2083 24.8357 29.9596 25.036 29.7024 25.2178C29.6205 25.2759 29.5074 25.2563 29.4494 25.1748C29.3913 25.0929 29.4109 24.9802 29.4924 24.9218C29.7377 24.748 29.9753 24.5573 30.1987 24.3543C30.2729 24.287 30.3875 24.2924 30.4548 24.3666C30.5113 24.4289 30.5167 24.52 30.4728 24.5873C30.4644 24.6003 30.454 24.6123 30.4425 24.623ZM32.5886 20.7194C32.491 20.6971 32.4302 20.5995 32.4525 20.5018C32.5202 20.2081 32.5702 19.9078 32.6017 19.6083C32.6125 19.5087 32.7017 19.4364 32.8009 19.4468C32.9005 19.4572 32.9727 19.5464 32.9624 19.646C32.9297 19.9601 32.877 20.2753 32.8059 20.5833C32.8009 20.6045 32.7924 20.6241 32.7813 20.6414C32.7413 20.7037 32.6648 20.7367 32.5886 20.7194ZM28.8957 25.718C28.6181 25.868 28.3282 26.0022 28.0341 26.1175C27.9407 26.154 27.8357 26.1079 27.7992 26.0148C27.7627 25.9214 27.8084 25.8165 27.9018 25.7799C28.1821 25.6704 28.4586 25.5419 28.7235 25.3989C28.8115 25.3512 28.9215 25.3843 28.9691 25.4723C29.0018 25.5327 28.9964 25.6035 28.9615 25.6573C28.9453 25.6819 28.9234 25.703 28.8957 25.718ZM27.131 26.4101C26.8249 26.4893 26.5112 26.5504 26.199 26.592C26.0998 26.605 26.0087 26.5354 25.9952 26.4362C25.9817 26.337 26.0517 26.2459 26.1509 26.2325C26.4489 26.1929 26.748 26.1344 27.0402 26.0591C27.1371 26.0341 27.2363 26.0925 27.2613 26.1894C27.2744 26.2405 27.2644 26.2924 27.2378 26.3336C27.2136 26.3701 27.1767 26.3986 27.131 26.4101ZM25.2512 26.66C24.9348 26.6635 24.6157 26.6477 24.3023 26.6127C24.2028 26.6016 24.1309 26.512 24.142 26.4124C24.1532 26.3128 24.2427 26.2413 24.3423 26.2521C24.6411 26.2855 24.9456 26.3005 25.247 26.2971C25.3474 26.2959 25.4292 26.3763 25.4304 26.4766C25.4308 26.5139 25.42 26.5485 25.4012 26.5773C25.3693 26.6266 25.3143 26.6592 25.2512 26.66Z" fill="#C6EEEF"/>
<path opacity="0.3" d="M32.9746 18.7906C32.9938 18.7614 33.0046 18.726 33.0038 18.6883C33.0011 18.533 32.9934 18.3773 32.9815 18.225C32.9738 18.1251 32.8866 18.0505 32.7866 18.0582C32.687 18.0662 32.6125 18.1531 32.6198 18.2531C32.6309 18.398 32.6382 18.5468 32.6409 18.6949C32.6428 18.7948 32.7255 18.8748 32.8254 18.8729C32.8881 18.8717 32.9427 18.8394 32.9746 18.7906Z" fill="#C6EEEF"/>
</g>
<path d="M30.5189 16.3636C30.507 16.3263 30.4728 16.3006 30.4335 16.2998L29.3163 16.2752C29.0479 15.8277 28.7061 15.4193 28.297 15.0714L28.4566 13.966C28.4623 13.9272 28.4423 13.8891 28.4077 13.8714L27.2158 13.2578C27.1809 13.2397 27.1386 13.2459 27.1105 13.2732L26.3035 14.0456C25.7825 13.9153 25.2515 13.8741 24.7313 13.916L24.062 13.021C24.0385 12.9894 23.9978 12.9767 23.9605 12.9887L22.6836 13.3978C22.6463 13.4097 22.6206 13.4439 22.6198 13.4831L22.5952 14.6004C22.1476 14.8688 21.7393 15.2106 21.3914 15.6197L20.286 15.4601C20.2472 15.4543 20.2091 15.4739 20.1914 15.5089L19.5778 16.7008C19.5597 16.7358 19.5659 16.7781 19.5932 16.8062L20.3656 17.6132C20.2352 18.1342 20.1941 18.6651 20.236 19.1853L19.341 19.8547C19.3094 19.8782 19.2964 19.9189 19.3087 19.9562L19.7177 21.2331C19.7297 21.2704 19.7639 21.2961 19.8031 21.2969L20.9204 21.3215C21.1888 21.769 21.5306 22.1773 21.9396 22.5253L21.7801 23.6307C21.7743 23.6695 21.7939 23.7076 21.8289 23.7253L23.0208 24.3389C23.0558 24.357 23.0981 24.3508 23.1261 24.3235L23.9332 23.5511C24.4541 23.6814 24.9851 23.7226 25.5053 23.6807L26.1747 24.5757C26.1981 24.6073 26.2389 24.6199 26.2762 24.608L27.553 24.1989C27.5903 24.187 27.6161 24.1528 27.6169 24.1136L27.6415 22.9963C28.089 22.7279 28.4973 22.3861 28.8453 21.977L29.9506 22.1366C29.9895 22.1424 30.0275 22.1224 30.0452 22.0878L30.6589 20.8959C30.6769 20.8609 30.6708 20.8186 30.6435 20.7905L29.8711 19.9835C30.0014 19.4625 30.0425 18.9316 30.0006 18.4114L30.8957 17.742C30.9272 17.7185 30.9399 17.6778 30.928 17.6405L30.5189 16.3636Z" fill="#C6EEEF"/>
<path d="M26.1466 19.7053C25.9044 19.9802 25.5695 20.1443 25.2035 20.1674C24.8378 20.1905 24.4853 20.0697 24.2104 19.8271C23.6429 19.3269 23.5887 18.4599 24.0885 17.8909C24.5891 17.3238 25.4572 17.2692 26.0247 17.769C26.2996 18.0112 26.4638 18.3461 26.4869 18.7118C26.5057 19.009 26.4292 19.2977 26.2696 19.543C26.2331 19.5995 26.192 19.6537 26.1466 19.7053ZM24.4503 19.5549C24.6525 19.7333 24.912 19.8221 25.1812 19.8052C25.4499 19.7883 25.6964 19.6676 25.8748 19.4653C26.0528 19.2631 26.142 19.0036 26.1251 18.7344C26.1081 18.4657 25.9874 18.2192 25.7852 18.0408C25.368 17.6729 24.729 17.7129 24.3611 18.1304C24.328 18.1681 24.298 18.2077 24.2715 18.2485C24.0031 18.661 24.0704 19.2204 24.4503 19.5549Z" fill="#74A1BB"/>
<path d="M27.9533 20.6683C28.016 20.5722 28.074 20.4719 28.1275 20.3677C28.234 20.1608 28.3193 19.9432 28.382 19.7198C28.3847 19.7098 28.3874 19.6998 28.3901 19.6898C28.4112 19.6122 28.3782 19.5326 28.314 19.4907C28.2982 19.4807 28.2809 19.4726 28.2621 19.4676C28.1652 19.4415 28.0664 19.4991 28.0398 19.5956C27.9837 19.8048 27.9045 20.0086 27.8049 20.202C27.7995 20.2127 27.7938 20.2231 27.7884 20.2335C27.5485 20.6887 27.2044 21.0667 26.7872 21.3446C26.5607 21.4953 26.3128 21.6165 26.0478 21.7041C26.0455 21.7049 26.0436 21.7057 26.0413 21.7064C26.0348 21.7083 26.0282 21.7107 26.0217 21.713C25.2451 21.9617 24.4177 21.8933 23.6925 21.52C23.5987 21.4719 23.508 21.4192 23.4207 21.3623C22.8332 20.9805 22.3988 20.413 22.1819 19.7367C21.9332 18.9601 22.0016 18.1327 22.3749 17.4076C22.7482 16.6828 23.3815 16.1457 24.1581 15.897C24.9348 15.6482 25.7622 15.7166 26.4873 16.09C26.5796 16.1373 26.6692 16.1895 26.7557 16.2457C27.1305 16.4894 27.4477 16.812 27.6834 17.1923C27.698 17.2157 27.7169 17.2346 27.7388 17.2488C27.7957 17.2857 27.8714 17.2891 27.9333 17.2507C28.0183 17.1976 28.0448 17.0861 27.9918 17.0008C27.728 16.5756 27.3728 16.2141 26.9537 15.9416C26.8568 15.8785 26.7568 15.8204 26.6534 15.7674C25.8418 15.3498 24.9163 15.2733 24.0474 15.5517C23.1785 15.8301 22.4695 16.4295 22.0523 17.2419C21.6348 18.0531 21.5579 18.9785 21.8366 19.8479C22.0789 20.6045 22.5652 21.2393 23.2223 21.6664C23.32 21.7299 23.4215 21.7887 23.5264 21.8429C25.0974 22.6503 27.0106 22.119 27.9533 20.6683Z" fill="#74A1BB"/>
<path d="M67.8611 32.9796L62.5872 38.3742L68.9134 36.6845L67.8611 32.9796Z" fill="#74FCFD"/>
<path d="M99.2423 35.2127L69.2752 36.6671C68.5055 36.7044 67.8611 36.0904 67.8611 35.3199V22.9916C67.8611 21.6517 68.9253 20.554 70.2648 20.5125L97.273 19.6766C99.2842 19.6766 100.915 21.3072 100.915 23.3184V33.4575C100.915 34.3945 100.179 35.1669 99.2423 35.2127Z" fill="#74FCFD"/>
<path opacity="0.85" d="M70.1714 36.1718C69.6939 36.1718 69.2437 35.9919 68.8953 35.6597C68.5251 35.3068 68.3213 34.8304 68.3213 34.3186V23.2072C68.3213 21.8977 69.3713 20.8403 70.7116 20.8L96.8616 20.0103C98.8436 20.0103 100.455 21.5832 100.455 23.5159V33.0956C100.455 34.0176 99.7159 34.7746 98.7732 34.8192L70.2618 36.1695C70.2318 36.1711 70.2014 36.1718 70.1714 36.1718ZM96.8635 20.1398L70.7154 20.9295C69.4459 20.968 68.4512 21.9684 68.4512 23.2072V34.3186C68.4512 34.7942 68.6408 35.2372 68.9849 35.5655C69.329 35.8939 69.78 36.0626 70.2556 36.0396L98.767 34.6893C99.6402 34.6481 100.325 33.948 100.325 33.0956V23.5159C100.325 21.6543 98.772 20.1398 96.8635 20.1398Z" fill="white"/>
<path d="M96.7762 22.388L72.8143 23.285C72.579 23.2938 72.3937 23.4499 72.4017 23.6325L72.4106 23.8432C72.4183 24.0239 72.6124 24.1631 72.845 24.1547L96.8081 23.2796C97.0438 23.2711 97.2291 23.115 97.2214 22.932L97.2114 22.6998C97.2033 22.5179 97.0092 22.3791 96.7762 22.388Z" fill="white"/>
<path d="M94.6315 28.4544L70.6693 29.3467C70.4339 29.3556 70.249 29.5167 70.2571 29.7058L70.2663 29.9238C70.2744 30.1111 70.4686 30.2553 70.7016 30.2468L94.6646 29.3771C94.8999 29.3686 95.0856 29.2072 95.0771 29.018L95.0668 28.7773C95.0591 28.5897 94.8649 28.4455 94.6315 28.4544Z" fill="white"/>
<path d="M97.4314 30.9918L70.7185 32.0003C70.4563 32.0103 70.2495 32.1741 70.2576 32.3651L70.2672 32.5854C70.2752 32.7746 70.4909 32.9192 70.7508 32.9099L97.4644 31.9241C97.727 31.9145 97.9343 31.7507 97.9262 31.5593L97.9158 31.3163C97.907 31.1267 97.6909 30.9822 97.4314 30.9918Z" fill="white"/>
<path d="M83.6382 25.9644L70.5778 26.3451C70.4494 26.3489 70.3537 26.525 70.3641 26.7372L70.376 26.9821C70.3864 27.1925 70.4971 27.3589 70.624 27.3555L83.6855 27.0002C83.8139 26.9968 83.91 26.8207 83.8992 26.608L83.8858 26.3378C83.8762 26.1274 83.7654 25.9606 83.6382 25.9644Z" fill="white"/>
<path d="M98.0292 25.513L85.6847 25.8667C85.5636 25.8702 85.4733 26.0459 85.484 26.2585L85.4963 26.5034C85.5067 26.7137 85.6121 26.8806 85.732 26.8775L98.0781 26.5488C98.1996 26.5457 98.2895 26.3696 98.2791 26.157L98.2657 25.8867C98.2545 25.6764 98.1492 25.5095 98.0292 25.513Z" fill="white"/>
<path d="M22.3595 103.211C22.3595 103.211 22.1127 104.61 21.9916 105.994C21.9443 106.535 22.3614 107.005 22.9039 107.027C24.7471 107.104 28.6904 107.253 30.1052 107.19C30.3179 107.181 30.457 106.963 30.3782 106.765C30.3121 106.599 30.1848 106.465 30.023 106.391L23.5099 103.397L22.3595 103.211Z" fill="black"/>
<path d="M22.1572 102.39L22.3556 104.062C22.3556 104.062 23.4968 104.593 24.2757 103.995L23.8032 102.131L22.1572 102.39Z" fill="url(#paint0_linear_77_2958)"/>
<path d="M22.3064 70.944C22.2206 71.3808 21.8462 92.7413 24.1296 102.314C24.1669 102.47 24.0877 102.631 23.9389 102.692C23.5886 102.835 22.9023 103.042 22.0795 103.07C21.8246 103.078 21.5962 102.913 21.5243 102.668C20.8719 100.447 17.7441 89.3194 17.3362 78.6897C16.8802 66.812 17.3362 78.2853 17.3362 78.2853L17.6034 70.9432L22.3064 70.944Z" fill="black"/>
<path d="M14.8672 103.941C14.8672 103.941 14.4739 104.647 14.0932 106.522C14.0244 106.861 14.2612 107.185 14.6053 107.219C15.214 107.279 16.151 107.356 16.9018 107.351C17.2479 107.348 17.5178 107.047 17.4763 106.704C17.3932 106.019 17.1341 104.895 16.334 104.02L14.8672 103.941Z" fill="black"/>
<path d="M14.5219 101.79L14.9855 104.319C14.9855 104.319 15.4442 104.66 16.3508 104.413L16.1294 101.692L14.5219 101.79Z" fill="url(#paint1_linear_77_2958)"/>
<path d="M13.2693 71.5995C11.4019 82.8694 13.6745 99.4539 14.4408 102.7C14.4877 102.899 14.648 103.051 14.8495 103.085C15.1917 103.141 15.7549 103.188 16.3101 103.026C16.5016 102.971 16.6358 102.798 16.6435 102.599C16.7461 99.9745 16.5612 83.864 18.3013 77.497C18.3894 77.1745 18.5866 76.893 18.8592 76.6992L22.2365 74.2982L22.4953 70.4172L13.2693 71.5995Z" fill="black"/>
<path d="M25.1681 50.2452C19.572 50.153 13.3969 51.7147 13.3969 51.7147C11.7286 61.4482 13.1051 72.675 13.1051 72.675C17.4374 73.8111 22.3249 71.9802 22.3249 71.9802C23.045 67.9117 26.4046 56.4623 26.4046 56.4623C29.139 56.1228 31.3913 55.3342 33.2464 54.2911C31.8315 52.6509 31.1644 50.564 30.8749 49.3306C28.8964 49.9453 26.8944 50.2737 25.1681 50.2452Z" fill="black"/>
<path d="M41.6984 42.0019C41.1485 41.3379 40.4526 41.652 40.4526 41.652C39.6291 45.1308 35.311 47.9513 30.8749 49.3301C31.1648 50.5639 31.8315 52.6508 33.2463 54.2906C40.6091 50.1513 41.6984 42.0019 41.6984 42.0019Z" fill="url(#paint2_linear_77_2958)"/>
<path d="M41.5651 42.1706C41.6227 42.3536 40.9564 42.632 40.5643 41.8842C40.5504 41.5259 40.3324 39.9902 40.5466 39.698C41.6873 38.1428 43.8988 36.1931 43.8988 36.1931C44.2726 36.5618 43.9646 36.9244 43.9646 36.9244L42.8915 38.0421C43.116 38.4477 43.3898 38.7899 43.5178 39.2805C43.6151 39.6519 43.5555 40.0491 43.3679 40.387C43.1795 40.7261 42.9227 41.1675 42.6797 41.5124C42.221 42.166 41.5651 42.1706 41.5651 42.1706Z" fill="url(#paint3_linear_77_2958)"/>
<path d="M42.4229 38.7672L41.4451 39.5961L41.1383 40.4212L42.0099 41.3882C42.0099 41.3882 42.3029 39.7507 42.5209 39.3966C42.7389 39.0425 42.6259 38.871 42.4229 38.7672Z" fill="url(#paint4_linear_77_2958)"/>
<path d="M15.5439 57.1331L13.3974 51.7142C13.3974 51.7142 8.16998 55.2661 7.31067 59.7691C8.2984 59.8417 10.0954 60.0986 11.8548 60.9871C12.2412 58.8609 15.5439 57.1331 15.5439 57.1331Z" fill="black"/>
<path d="M20.1118 62.232C20.1118 62.232 14.2431 65.5489 12.2627 62.7168C11.8517 62.1286 11.7532 61.5442 11.8544 60.9871C10.095 60.0989 8.29792 59.8417 7.3102 59.769C7.05106 61.1266 7.18793 62.5704 7.98573 64.0298C11.4545 70.3749 20.8881 63.6792 20.8881 63.6792L20.1118 62.232Z" fill="url(#paint5_linear_77_2958)"/>
<path d="M19.4063 66.4281L22.6094 55.2424C22.6455 55.1156 22.754 55.0229 22.8851 55.0075C23.4652 54.9399 25.1469 54.7499 27.0886 54.5854C29.4274 54.3874 32.1429 54.2274 33.7658 54.3635C33.9965 54.3827 34.1361 54.6269 34.0334 54.8345C33.1107 56.7015 29.3143 64.2966 27.4135 66.7845C27.3504 66.8668 27.2531 66.9153 27.1493 66.9141L19.7177 66.8449C19.5016 66.8434 19.3471 66.6361 19.4063 66.4281Z" fill="#C6EEEF"/>
<path d="M27.4212 53.6159L29.7434 53.2291C29.8672 53.2083 29.9684 53.3267 29.9291 53.4455L29.6992 54.1422C29.6792 54.2029 29.6262 54.2468 29.5631 54.2552L27.3285 54.5536C27.2128 54.569 27.1174 54.464 27.1444 54.3506L27.2866 53.7423C27.3016 53.677 27.3547 53.627 27.4212 53.6159Z" fill="#74A1BB"/>
<path d="M25.6822 55.5821L25.8736 54.5855C25.8929 54.4856 25.9755 54.4102 26.0766 54.3998L30.7669 53.9238C30.9249 53.9077 31.051 54.0526 31.0141 54.2068L30.7158 55.4487C30.6919 55.5479 30.6054 55.6198 30.5035 55.6248L25.9202 55.8554C25.771 55.8631 25.6541 55.7286 25.6822 55.5821Z" fill="#74A1BB"/>
<path d="M20.1803 63.7258C20.1803 63.7258 19.7343 61.891 19.9142 61.2401C20.0942 60.5892 20.4429 59.7522 21.6052 59.9382C22.7675 60.1243 24.1385 60.6138 24.1385 60.6138C24.1385 60.6138 24.0693 61.4616 23.1858 61.1882L23.7337 61.6119C23.7337 61.6119 23.6552 62.2909 22.9093 61.9279L23.4188 62.49C23.4188 62.49 23.0985 63.0475 22.5495 62.69C22.0004 62.3328 21.7371 63.9468 20.1803 63.7258Z" fill="url(#paint6_linear_77_2958)"/>
<path d="M19.4997 45.7018L17.7192 50.8511C17.6896 50.9365 17.7246 51.0311 17.8038 51.0745C18.289 51.3429 20.038 52.1187 22.1453 50.7823C22.3649 50.6431 22.5144 50.4163 22.5475 50.1583L23.1242 45.7014H19.4997V45.7018Z" fill="url(#paint7_linear_77_2958)"/>
<path d="M23.3742 40.9331C23.3742 40.9331 25.3297 44.6137 25.079 46.1005C24.8283 47.5873 22.4049 47.4804 20.2888 46.2731L18.8101 42.2988L23.3742 40.9331Z" fill="url(#paint8_linear_77_2958)"/>
<path d="M20.3822 44.3214C20.4683 44.2834 20.4998 44.178 20.4483 44.0996C20.2918 43.8604 19.9981 43.3721 19.9043 42.9446C19.9043 42.9446 19.5529 42.7193 20.799 42.4213C22.0451 42.123 23.9036 41.6601 24.2943 40.5993C24.6753 39.565 23.6745 36.9644 22.0781 39.0368C22.0174 39.1156 21.8986 39.1175 21.8378 39.0383C21.576 38.6976 20.8882 37.9906 19.9327 38.4193C19.0388 38.8203 18.9381 39.4754 18.9504 39.8057C18.9538 39.903 18.8669 39.9783 18.7716 39.9603C18.3198 39.8742 17.2352 39.7999 16.7289 40.9126C16.3117 41.8292 16.5828 42.3479 16.8296 42.6017C16.9096 42.6839 16.8746 42.8193 16.765 42.8527C16.4678 42.9438 16.0845 43.1957 16.1229 43.8916C16.176 44.8535 17.2518 44.769 17.5578 44.7251C17.6082 44.7178 17.6585 44.7351 17.6924 44.7728C17.955 45.0635 19.138 46.2973 20.4183 46.4461C20.5291 46.4587 20.6152 46.3496 20.5787 46.2438L20.0246 44.6329C19.9989 44.5579 20.0346 44.476 20.1069 44.4441L20.3822 44.3214Z" fill="black"/>
<path d="M20.6052 44.5498C20.6052 44.5498 19.213 43.5948 19.1111 44.3991C19.0093 45.2034 20.3649 45.5641 21.0362 45.2642L20.6052 44.5498Z" fill="url(#paint9_linear_77_2958)"/>
<defs>
<linearGradient id="paint0_linear_77_2958" x1="22.1571" y1="103.206" x2="24.2757" y2="103.206" gradientUnits="userSpaceOnUse">
<stop stop-color="#FEBBBA"/>
<stop offset="1" stop-color="#FF928E"/>
</linearGradient>
<linearGradient id="paint1_linear_77_2958" x1="14.5218" y1="103.097" x2="16.3509" y2="103.097" gradientUnits="userSpaceOnUse">
<stop stop-color="#FEBBBA"/>
<stop offset="1" stop-color="#FF928E"/>
</linearGradient>
<linearGradient id="paint2_linear_77_2958" x1="40.0295" y1="35.3238" x2="36.2916" y2="46.0038" gradientUnits="userSpaceOnUse">
<stop stop-color="#FEBBBA"/>
<stop offset="1" stop-color="#FF928E"/>
</linearGradient>
<linearGradient id="paint3_linear_77_2958" x1="43.2245" y1="36.442" x2="39.4866" y2="47.1219" gradientUnits="userSpaceOnUse">
<stop stop-color="#FEBBBA"/>
<stop offset="1" stop-color="#FF928E"/>
</linearGradient>
<linearGradient id="paint4_linear_77_2958" x1="40.353" y1="43.2654" x2="43.1686" y2="37.5855" gradientUnits="userSpaceOnUse">
<stop stop-color="#FEBBBA"/>
<stop offset="1" stop-color="#FF928E"/>
</linearGradient>
<linearGradient id="paint5_linear_77_2958" x1="7.1911" y1="63.2655" x2="20.8883" y2="63.2655" gradientUnits="userSpaceOnUse">
<stop stop-color="#FEBBBA"/>
<stop offset="1" stop-color="#FF928E"/>
</linearGradient>
<linearGradient id="paint6_linear_77_2958" x1="19.8714" y1="61.8294" x2="24.1386" y2="61.8294" gradientUnits="userSpaceOnUse">
<stop stop-color="#FEBBBA"/>
<stop offset="1" stop-color="#FF928E"/>
</linearGradient>
<linearGradient id="paint7_linear_77_2958" x1="17.7086" y1="48.6224" x2="23.1241" y2="48.6224" gradientUnits="userSpaceOnUse">
<stop stop-color="#FEBBBA"/>
<stop offset="1" stop-color="#FF928E"/>
</linearGradient>
<linearGradient id="paint8_linear_77_2958" x1="24.4122" y1="45.1772" x2="18.4579" y2="41.5456" gradientUnits="userSpaceOnUse">
<stop stop-color="#FEBBBA"/>
<stop offset="1" stop-color="#FF928E"/>
</linearGradient>
<linearGradient id="paint9_linear_77_2958" x1="22.8483" y1="46.5315" x2="17.4911" y2="43.2641" gradientUnits="userSpaceOnUse">
<stop stop-color="#FEBBBA"/>
<stop offset="1" stop-color="#FF928E"/>
</linearGradient>
</defs>
</svg>
