<svg width="127" height="121" viewBox="0 0 127 121" fill="none" xmlns="http://www.w3.org/2000/svg">
<g opacity="0.3">
<path opacity="0.3" d="M35.6409 9.30842C35.4276 9.43731 35.1507 9.36886 35.0218 9.15598C34.7716 8.7422 34.4996 8.33287 34.2134 7.93954C34.0685 7.74043 34.1103 7.46266 34.3058 7.3151C34.3081 7.31332 34.3103 7.31154 34.3129 7.30977C34.5143 7.1631 34.796 7.20755 34.9427 7.40932C35.244 7.8231 35.5303 8.25421 35.7938 8.68976C35.9143 8.88887 35.8623 9.14442 35.6805 9.2822C35.6676 9.29108 35.6547 9.29997 35.6409 9.30842ZM32.689 6.12089C32.3521 5.77067 31.997 5.43112 31.6334 5.11201C31.4463 4.94801 31.4276 4.66312 31.5916 4.47601C31.757 4.28846 32.041 4.27024 32.2281 4.43424C32.6107 4.76979 32.9845 5.12712 33.3392 5.49556C33.5116 5.67512 33.5063 5.96045 33.3267 6.13289C33.3138 6.14533 33.3001 6.15689 33.2858 6.16756C33.1063 6.304 32.8494 6.28711 32.689 6.12089ZM29.7459 3.67646C29.3405 3.41069 28.9188 3.15914 28.4917 2.92892C28.2725 2.81069 28.1908 2.53736 28.309 2.31825C28.4272 2.09959 28.7005 2.01737 28.9196 2.13559C29.369 2.37781 29.8134 2.6427 30.2401 2.92269C30.4481 3.05914 30.5063 3.33869 30.3699 3.54713C30.3405 3.59158 30.305 3.62891 30.265 3.65958C30.1179 3.77069 29.9099 3.78402 29.7459 3.67646ZM26.3299 1.95159C25.8748 1.7827 25.4072 1.63204 24.9397 1.50315C24.6997 1.43693 24.5588 1.18849 24.625 0.948488C24.6917 0.70849 24.9397 0.568046 25.1797 0.633824C25.6717 0.769822 26.1641 0.928488 26.6432 1.10626C26.8766 1.19293 26.9957 1.45248 26.9094 1.68581C26.8783 1.76937 26.8254 1.83826 26.7592 1.88848C26.6406 1.97781 26.4801 2.00714 26.3299 1.95159ZM22.6153 1.03071C22.1353 0.967598 21.6455 0.9236 21.1602 0.901378C20.9113 0.889822 20.7193 0.678711 20.7308 0.429824C20.7424 0.180937 20.9535 -0.0110601 21.2024 0.000495399C21.713 0.0240508 22.2281 0.0702729 22.7335 0.136939C22.9801 0.169383 23.1539 0.396048 23.1215 0.642713C23.105 0.767156 23.0393 0.872931 22.9468 0.943153C22.8548 1.01249 22.7375 1.04715 22.6153 1.03071ZM18.7891 0.955153C18.3064 0.999597 17.8193 1.06538 17.342 1.15071C17.0971 1.19426 16.8624 1.03115 16.8189 0.786266C16.7749 0.540935 16.938 0.306714 17.1833 0.263159C17.686 0.173382 18.1984 0.104049 18.7064 0.0573824C18.9544 0.0347159 19.174 0.216939 19.1966 0.464937C19.2113 0.625824 19.1397 0.775154 19.0193 0.86582C18.9544 0.914709 18.8757 0.947153 18.7891 0.955153ZM4.71363 10.0209C4.49452 9.90219 4.41318 9.62886 4.53185 9.40975C4.77451 8.96131 5.04074 8.51731 5.32162 8.09021C5.45851 7.88221 5.73806 7.82488 5.94606 7.96176C6.15406 8.09865 6.21139 8.3782 6.0745 8.5862C5.8074 8.99153 5.55495 9.41331 5.32473 9.83953C5.29318 9.89775 5.25051 9.94664 5.20073 9.98441C5.06384 10.0871 4.87407 10.1075 4.71363 10.0209ZM15.0433 1.72848C14.5829 1.87915 14.1229 2.05159 13.6771 2.24136C13.4478 2.3387 13.1829 2.23203 13.0856 2.0027C12.9882 1.77337 13.0953 1.50982 13.3242 1.41115C13.794 1.2116 14.278 1.02982 14.7629 0.871153C14.9993 0.793821 15.254 0.922711 15.3318 1.1596C15.3931 1.34715 15.3246 1.54626 15.1753 1.65915C15.1367 1.68937 15.0922 1.71248 15.0433 1.72848ZM6.87805 6.74133C6.69139 6.57689 6.67317 6.292 6.83761 6.10489C7.17449 5.72223 7.53271 5.3489 7.9016 4.99512C8.08071 4.82179 8.36693 4.8289 8.53893 5.0089C8.71137 5.18845 8.70515 5.47423 8.52515 5.64622C8.17449 5.98222 7.83404 6.33689 7.51405 6.70089C7.4936 6.724 7.47138 6.74444 7.44738 6.76266C7.28027 6.88933 7.04161 6.88533 6.87805 6.74133ZM11.5651 3.31958C11.15 3.56935 10.7402 3.84046 10.3474 4.12535C10.1456 4.27157 9.86381 4.22668 9.71758 4.02491C9.57359 3.8258 9.61536 3.54891 9.81047 3.40091C9.81314 3.39913 9.81581 3.39691 9.81803 3.39513C10.2318 3.09514 10.6629 2.8098 11.0998 2.5467C11.3131 2.41825 11.5905 2.48714 11.7185 2.70047C11.8385 2.89958 11.786 3.15469 11.6047 3.29202C11.5927 3.30225 11.5793 3.31113 11.5651 3.31958Z" fill="#C6EEEF"/>
<path opacity="0.3" d="M3.95142 12.8929C4.02209 12.8391 4.07809 12.7644 4.10742 12.6733C4.17942 12.4524 4.2572 12.2293 4.33853 12.0098C4.4252 11.7764 4.30653 11.5169 4.07275 11.4302C3.83942 11.3435 3.57943 11.4622 3.49321 11.696C3.40743 11.9266 3.32565 12.1613 3.24965 12.3938C3.17232 12.6306 3.3021 12.8849 3.53854 12.9622C3.68521 13.0098 3.83809 12.9791 3.95142 12.8929Z" fill="#C6EEEF"/>
</g>
<g opacity="0.3">
<path opacity="0.3" d="M5.13441 26.5873C5.30774 26.4558 5.36552 26.2144 5.25974 26.0162C5.15041 25.8109 5.04374 25.6002 4.94241 25.3895C4.83441 25.1651 4.56508 25.0704 4.34063 25.1784C4.1153 25.2869 4.02152 25.5558 4.12952 25.7802C4.23619 26.002 4.34863 26.2242 4.46374 26.4402C4.58063 26.6598 4.85396 26.7433 5.07352 26.6264C5.09529 26.6149 5.11574 26.6015 5.13441 26.5873Z" fill="#C6EEEF"/>
<path opacity="0.3" d="M30.5062 32.8744C30.3004 33.0148 30.02 32.9619 29.8795 32.7562C29.7391 32.5504 29.792 32.2704 29.9977 32.1295C30.3893 31.8624 30.7755 31.574 31.1502 31.27C31.3422 31.1131 31.6275 31.1428 31.7844 31.3362C31.9413 31.5295 31.9119 31.8135 31.7186 31.9704C31.5564 32.1019 31.3924 32.2308 31.2271 32.3557C30.9911 32.5344 30.7484 32.7091 30.5062 32.8744ZM32.8795 30.3166C32.6982 30.1464 32.6888 29.8611 32.859 29.6793C33.1862 29.3304 33.5017 28.9642 33.7977 28.5904C33.9515 28.3949 34.2359 28.362 34.431 28.5166C34.6261 28.6709 34.659 28.9549 34.5048 29.15C34.1933 29.5433 33.8608 29.9291 33.5168 30.2962C33.499 30.3153 33.4799 30.3322 33.4599 30.3477C33.2879 30.4775 33.0422 30.4691 32.8795 30.3166ZM28.3871 34.1175C27.9382 34.341 27.4733 34.5486 27.0058 34.7339C26.7742 34.8255 26.5124 34.7126 26.4204 34.481C26.3289 34.2495 26.4422 33.9877 26.6733 33.8957C27.1173 33.7197 27.5586 33.5228 27.9853 33.3104C28.2084 33.1993 28.4791 33.2899 28.5902 33.5131C28.6884 33.7104 28.6284 33.9446 28.4591 34.073C28.4369 34.0899 28.4129 34.1046 28.3871 34.1175ZM35.2768 27.2824C35.0621 27.1562 34.9906 26.8798 35.1168 26.6651C35.359 26.2536 35.5861 25.8273 35.7928 25.3971C35.9004 25.1722 36.1697 25.078 36.3941 25.1856C36.6186 25.2931 36.7132 25.5624 36.6057 25.7869C36.3884 26.2398 36.1488 26.6891 35.8941 27.122C35.8635 27.1744 35.8235 27.2184 35.7781 27.2527C35.6368 27.3607 35.439 27.378 35.2768 27.2824ZM24.6667 35.4797C24.1796 35.5988 23.6809 35.6993 23.184 35.777C22.9382 35.8157 22.7076 35.6477 22.6685 35.4019C22.6298 35.1557 22.7978 34.925 23.0436 34.8864C23.5156 34.8121 23.9893 34.717 24.452 34.6037C24.6938 34.5446 24.9382 34.6926 24.9973 34.9344C25.0413 35.1144 24.9707 35.2961 24.8316 35.401C24.784 35.4375 24.7284 35.4646 24.6667 35.4797ZM20.7378 35.993C20.2356 36.0028 19.7267 35.9917 19.2258 35.9601C18.9774 35.9441 18.7885 35.7299 18.8045 35.4815C18.8205 35.2326 19.0347 35.0441 19.2832 35.0601C19.7592 35.0904 20.2423 35.101 20.72 35.0917C20.9689 35.0868 21.1747 35.2846 21.1796 35.5335C21.1827 35.6837 21.112 35.8179 21.0009 35.9019C20.9271 35.9575 20.8365 35.9912 20.7378 35.993ZM16.7898 35.6379C16.297 35.5384 15.8027 35.4166 15.321 35.2766C15.0819 35.2068 14.9445 34.957 15.0139 34.7179C15.0836 34.4784 15.3339 34.3415 15.5725 34.4108C16.0303 34.5442 16.4996 34.6597 16.9681 34.7544C17.2121 34.8037 17.3698 35.0415 17.3205 35.2855C17.2978 35.3975 17.2356 35.4913 17.1512 35.5553C17.0521 35.6308 16.9218 35.6646 16.7898 35.6379ZM13.0139 34.4299C12.5548 34.225 12.0992 33.9979 11.6597 33.7548C11.4419 33.6344 11.3628 33.3602 11.4832 33.1419C11.6032 32.9242 11.8779 32.8451 12.0957 32.9655C12.513 33.1962 12.9459 33.4117 13.3819 33.6064C13.6094 33.7077 13.7112 33.9744 13.6094 34.2019C13.5774 34.2739 13.529 34.333 13.4703 34.3775C13.3436 34.4735 13.1694 34.4997 13.0139 34.4299ZM9.59346 32.4211C9.19168 32.1206 8.79747 31.7988 8.42191 31.4651C8.23569 31.2997 8.2188 31.0144 8.38458 30.8286C8.54947 30.6433 8.8348 30.6255 9.02102 30.7913C9.37791 31.1086 9.75212 31.414 10.1339 31.6997C10.3335 31.8486 10.3739 32.1313 10.225 32.3308C10.1992 32.3655 10.169 32.3957 10.1361 32.4206C9.97968 32.5379 9.75835 32.5442 9.59346 32.4211ZM6.70104 29.7126C6.46015 29.4322 6.22549 29.1406 6.00238 28.8464C5.92149 28.7398 5.84238 28.6326 5.7646 28.5251C5.61882 28.3233 5.65838 28.0393 5.86549 27.8958C6.06727 27.7495 6.34904 27.7949 6.49526 27.9967C6.56948 28.0989 6.64459 28.2011 6.72148 28.302C6.93348 28.5815 7.15659 28.8584 7.38548 29.1255C7.5477 29.3144 7.52592 29.5993 7.33703 29.7611C7.32992 29.7673 7.32281 29.7731 7.31526 29.7789C7.12681 29.9215 6.85704 29.8944 6.70104 29.7126Z" fill="#C6EEEF"/>
<path opacity="0.3" d="M37.3608 23.7145C37.4324 23.6602 37.4884 23.5847 37.5177 23.4927C37.5924 23.2602 37.6631 23.022 37.7288 22.7838C37.7951 22.5438 37.6542 22.2954 37.4137 22.2296C37.1737 22.1634 36.9253 22.3043 36.8595 22.5447C36.7973 22.7705 36.7297 22.9971 36.6591 23.2176C36.5831 23.4545 36.7138 23.7082 36.9506 23.7842C37.0964 23.8314 37.248 23.8002 37.3608 23.7145Z" fill="#C6EEEF"/>
</g>
<path d="M33.8308 16.8385C33.8339 16.7488 33.7801 16.6665 33.6961 16.6341L31.3032 15.711C31.0726 14.5359 30.653 13.3888 30.0415 12.3186L31.2468 10.0568C31.289 9.97728 31.2761 9.87994 31.2152 9.81417L29.1206 7.5613C29.0593 7.49552 28.9633 7.47552 28.881 7.51197L26.5375 8.55018C25.5144 7.86263 24.4011 7.36086 23.2455 7.04575L22.498 4.59244C22.4718 4.50666 22.394 4.44666 22.3042 4.4431L19.23 4.33155C19.1402 4.32844 19.058 4.38221 19.0256 4.46621L18.102 6.85864C16.9269 7.0893 15.7798 7.50885 14.7096 8.1204L12.4478 6.91508C12.3683 6.87286 12.2709 6.8853 12.2052 6.94664L9.95229 9.04173C9.88652 9.10306 9.86696 9.19906 9.90296 9.28128L10.9412 11.6248C10.2536 12.6479 9.75185 13.7612 9.43674 14.9168L6.98343 15.6643C6.89765 15.6906 6.83765 15.7683 6.8341 15.8581L6.72254 18.9323C6.71943 19.0221 6.77321 19.1043 6.85721 19.1363L9.25008 20.0598C9.48074 21.235 9.90029 22.3821 10.5118 23.4523L9.30652 25.714C9.2643 25.7931 9.27674 25.8909 9.33808 25.9567L11.4332 28.2096C11.4945 28.2753 11.5905 28.2953 11.6727 28.2589L14.0163 27.2207C15.0394 27.9082 16.1527 28.41 17.3082 28.7251L18.0558 31.1784C18.082 31.2642 18.1598 31.3242 18.2496 31.3278L21.3238 31.4393C21.4135 31.4424 21.4958 31.3886 21.5278 31.3046L22.4513 28.9118C23.6264 28.6811 24.7735 28.2616 25.8437 27.65L28.1055 28.8553C28.1846 28.8976 28.2824 28.8847 28.3482 28.8238L30.601 26.7287C30.6668 26.6673 30.6868 26.5713 30.6504 26.4891L29.6121 24.1456C30.2997 23.1225 30.8015 22.0092 31.1166 20.8536L33.5699 20.1061C33.6557 20.0799 33.7157 20.0021 33.7192 19.9123L33.8308 16.8385Z" fill="#74FCFD"/>
<path d="M21.7642 20.5963C20.2695 21.4163 18.386 20.8674 17.5656 19.3728C17.1682 18.6488 17.0767 17.8132 17.3078 17.0203C17.5389 16.2275 18.0647 15.5719 18.7891 15.1746C20.2842 14.3546 22.1673 14.9035 22.9877 16.3981C23.734 17.7581 23.3468 19.4394 22.1451 20.3496C22.026 20.4399 21.8989 20.5225 21.7642 20.5963ZM18.0007 17.2221C17.8233 17.8301 17.8936 18.4706 18.1985 19.0261C18.8273 20.1719 20.2713 20.5932 21.4175 19.9643C22.5642 19.3359 22.9846 17.8914 22.3557 16.7452C21.7269 15.5995 20.2829 15.1781 19.1367 15.807C19.0327 15.8639 18.9344 15.9279 18.8416 15.9981C18.438 16.3035 18.1447 16.7279 18.0007 17.2221Z" fill="#74A1BB"/>
<path d="M24.7913 23.9482C24.9975 23.7917 25.1975 23.6242 25.3895 23.4455C25.4499 23.3895 25.5095 23.3322 25.5681 23.274C25.8575 22.9873 26.1232 22.6775 26.3619 22.3504C26.365 22.346 26.3686 22.3415 26.3717 22.3371C26.381 22.3242 26.3899 22.3118 26.3992 22.2989C26.417 22.274 26.4343 22.2491 26.4521 22.2242C26.4979 22.1584 26.4939 22.0731 26.4481 22.0122C26.437 21.9975 26.4232 21.9842 26.4072 21.9731C26.3255 21.9162 26.2135 21.9362 26.1561 22.018C25.8628 22.4384 25.5224 22.8295 25.1437 23.1815C23.2646 24.9295 20.6966 25.4851 18.3798 24.8828C17.0909 24.5482 15.8798 23.8553 14.9078 22.8095C14.7371 22.6264 14.5771 22.4358 14.4282 22.2389C13.4251 20.914 12.9127 19.298 12.9736 17.6149C13.0438 15.6816 13.8625 13.8914 15.2793 12.5741C18.2055 9.85366 22.7957 10.0212 25.5152 12.9461C25.6828 13.1265 25.841 13.3145 25.9886 13.5096C26.6286 14.355 27.0761 15.3305 27.2961 16.3687C27.3019 16.3954 27.313 16.4198 27.3286 16.4403C27.3695 16.494 27.4392 16.5229 27.5099 16.5078C27.6072 16.4869 27.6699 16.3918 27.649 16.294C27.4179 15.2043 26.9477 14.1798 26.2761 13.2927C26.121 13.0879 25.9552 12.8905 25.7797 12.7012C22.9246 9.63056 18.1033 9.45678 15.034 12.3105C13.5465 13.6936 12.6869 15.5732 12.6136 17.6025C12.5491 19.3696 13.0874 21.066 14.1407 22.4571C14.2971 22.6638 14.4651 22.8638 14.6438 23.0562C16.0269 24.5437 17.9064 25.4033 19.9357 25.4771C21.7028 25.5402 23.4002 25.0015 24.7913 23.9482Z" fill="#74A1BB"/>
<g opacity="0.3">
<path opacity="0.3" d="M55.1187 9.46527C55.2147 9.39238 55.2556 9.26304 55.2107 9.14438C55.1267 8.92349 55.0352 8.70171 54.9383 8.48615C54.8752 8.34615 54.7107 8.28349 54.5703 8.3466C54.4294 8.40926 54.3676 8.5746 54.4307 8.7146C54.5232 8.92038 54.6107 9.13149 54.6907 9.34216C54.7449 9.48571 54.9058 9.55816 55.0498 9.50393C55.0747 9.49416 55.0978 9.48082 55.1187 9.46527Z" fill="#C6EEEF"/>
<path opacity="0.3" d="M54.1546 7.5569C54.0231 7.6369 53.852 7.59512 53.772 7.46357C53.5702 7.13201 53.3489 6.80668 53.1146 6.49735C53.0653 6.43202 53.0151 6.36713 52.9635 6.30269C52.8684 6.18224 52.8889 6.00714 53.0093 5.91158C53.1271 5.8258 53.3049 5.83691 53.4004 5.95736C53.4538 6.02491 53.5066 6.09291 53.5582 6.16136C53.804 6.4858 54.0355 6.82668 54.2471 7.17424C54.3222 7.29735 54.2902 7.45557 54.1778 7.5409C54.1706 7.54623 54.1626 7.55157 54.1546 7.5569ZM52.0209 5.24892C51.6862 4.91781 51.328 4.60492 50.9564 4.31826C50.8347 4.22448 50.812 4.04982 50.9058 3.9276C50.9996 3.80671 51.1747 3.78315 51.2964 3.87693C51.6858 4.17737 52.0613 4.50537 52.4124 4.85248C52.5218 4.96048 52.5227 5.13692 52.4147 5.24625C52.4053 5.25558 52.3951 5.26447 52.3844 5.27247C52.2755 5.35514 52.1204 5.34758 52.0209 5.24892ZM49.7845 3.52627C49.3796 3.2876 48.9556 3.07249 48.5236 2.88583C48.3827 2.82494 48.3174 2.66094 48.3787 2.51961C48.44 2.37783 48.6036 2.31339 48.7449 2.37427C49.1978 2.56983 49.6427 2.79605 50.0671 3.04627C50.1996 3.12449 50.244 3.29516 50.1658 3.4276C50.1467 3.4596 50.1222 3.48671 50.0938 3.50804C50.0067 3.57426 49.8849 3.58538 49.7845 3.52627ZM47.1934 2.40583C46.7418 2.27383 46.2774 2.1685 45.8147 2.09339C45.6627 2.0685 45.5596 1.92539 45.5845 1.77383C45.6094 1.62228 45.752 1.51917 45.904 1.54361C46.3898 1.62272 46.876 1.73295 47.3503 1.87117C47.4978 1.91428 47.5827 2.06894 47.5396 2.21694C47.5218 2.2765 47.4867 2.32583 47.4405 2.3605C47.372 2.41205 47.2814 2.43161 47.1934 2.40583ZM44.4072 1.95206C43.9369 1.93383 43.4618 1.9445 42.9938 1.98361C42.841 1.9965 42.7059 1.88272 42.693 1.72939C42.6801 1.57606 42.7938 1.44139 42.9472 1.42851C43.4374 1.38717 43.9361 1.37606 44.4285 1.39517C44.5823 1.40139 44.7018 1.53073 44.6961 1.68406C44.6925 1.77072 44.6498 1.84672 44.5858 1.89561C44.5365 1.93339 44.4743 1.95428 44.4072 1.95206ZM41.5956 2.18805C41.1356 2.2845 40.6779 2.41072 40.2339 2.56316C40.0885 2.61294 39.9299 2.53561 39.8801 2.39028C39.8303 2.24494 39.9072 2.08672 40.053 2.0365C40.5183 1.8765 40.9988 1.74406 41.4814 1.64273C41.6321 1.61117 41.7796 1.70761 41.8112 1.85783C41.8339 1.96672 41.7899 2.07428 41.7068 2.13739C41.6748 2.16183 41.637 2.17961 41.5956 2.18805ZM38.9281 3.10449C38.5072 3.31027 38.0939 3.54538 37.6992 3.80315C37.5703 3.88715 37.3979 3.85071 37.3139 3.72226C37.2299 3.59382 37.2672 3.42316 37.3948 3.33649C37.8086 3.06627 38.2423 2.82005 38.6837 2.60405C38.8219 2.5365 38.9886 2.59383 39.0561 2.73205C39.1157 2.85338 39.0783 2.99738 38.9743 3.07605C38.9597 3.08671 38.9446 3.09649 38.9281 3.10449ZM35.1486 5.64003C35.0357 5.53558 35.029 5.35958 35.1335 5.2467C35.4228 4.93425 35.7339 4.63248 36.0579 4.34981C36.1068 4.3067 36.1561 4.26448 36.2059 4.22226C36.3201 4.12004 36.4992 4.13782 36.5983 4.25604C36.6975 4.37381 36.6823 4.54937 36.5646 4.64848C36.5179 4.68759 36.4712 4.72759 36.4246 4.76892C36.1148 5.03914 35.8175 5.32714 35.5419 5.62492C35.5308 5.63736 35.5184 5.64847 35.5055 5.6578C35.4001 5.7378 35.2495 5.73292 35.1486 5.64003Z" fill="#C6EEEF"/>
</g>
<g opacity="0.3">
<path opacity="0.3" d="M51.0901 23.1015C50.6995 23.3895 50.2879 23.6557 49.8666 23.8939C49.7328 23.9695 49.563 23.9224 49.487 23.7882C49.4115 23.6539 49.4604 23.4851 49.5928 23.4086C49.9946 23.1819 50.387 22.9277 50.7599 22.6526C50.8835 22.5615 51.0581 22.5877 51.1492 22.7117C51.2399 22.8344 51.2146 23.0073 51.0932 23.0988C51.0932 23.0988 51.091 23.1006 51.0901 23.1015ZM51.8163 22.1548C51.711 22.0429 51.7163 21.8669 51.8283 21.7615C52.1652 21.4442 52.4861 21.1037 52.7826 20.7486C52.8808 20.6318 53.0568 20.6149 53.175 20.7135C53.2932 20.8122 53.3088 20.9873 53.2101 21.1055C52.8994 21.4775 52.563 21.8344 52.2101 22.1669C52.2026 22.174 52.195 22.1802 52.187 22.1864C52.075 22.2713 51.915 22.2597 51.8163 22.1548ZM48.555 24.5322C48.1061 24.717 47.6421 24.8766 47.1759 25.0055C47.0275 25.0464 46.8742 24.9593 46.8333 24.8113C46.7919 24.6628 46.879 24.5104 47.027 24.4686C47.4719 24.3455 47.9141 24.1939 48.3426 24.0175C48.4848 23.9588 48.6475 24.0268 48.7061 24.1686C48.7555 24.2882 48.7155 24.4224 48.6168 24.4966C48.5986 24.5108 48.5777 24.5228 48.555 24.5322ZM53.6897 20.0131C53.5603 19.93 53.5234 19.7575 53.6065 19.6282C53.8572 19.2393 54.0865 18.8318 54.2879 18.4153C54.355 18.2771 54.5216 18.2193 54.6599 18.286C54.7985 18.3531 54.8563 18.5198 54.7892 18.658C54.5781 19.0944 54.3376 19.5224 54.0745 19.93C54.0563 19.958 54.0337 19.982 54.0088 20.0011C53.9181 20.07 53.7905 20.0784 53.6897 20.0131ZM45.7502 25.3073C45.2711 25.3788 44.7826 25.4215 44.2977 25.4348C44.1439 25.4388 44.016 25.3175 44.012 25.1637C44.008 25.0099 44.1288 24.8819 44.2826 24.8779C44.7448 24.8655 45.2106 24.8246 45.6679 24.7562C45.8199 24.7335 45.9617 24.8384 45.9844 24.9908C45.9999 25.0948 45.9555 25.1944 45.8768 25.2539C45.8408 25.281 45.7977 25.3002 45.7502 25.3073ZM42.8404 25.3873C42.3573 25.3419 41.8724 25.2668 41.3995 25.1637C41.2493 25.1313 41.1542 24.9828 41.1866 24.8326C41.2191 24.6824 41.3675 24.5868 41.5178 24.6197C41.9689 24.7175 42.4311 24.789 42.8924 24.8326C43.0453 24.8468 43.1582 24.9828 43.1435 25.1362C43.136 25.217 43.0946 25.2868 43.0342 25.3322C42.9809 25.3726 42.9128 25.3939 42.8404 25.3873ZM39.9955 24.7682C39.5369 24.6082 39.084 24.4188 38.6498 24.2055C38.5116 24.1375 38.4551 23.9708 38.5227 23.8326C38.5907 23.6948 38.7573 23.6379 38.8955 23.7055C39.3098 23.9095 39.7413 24.0899 40.1791 24.2419C40.3244 24.2926 40.4013 24.4513 40.3502 24.5966C40.3315 24.6504 40.2978 24.6948 40.2555 24.7268C40.1835 24.781 40.0871 24.7997 39.9955 24.7682Z" fill="#C6EEEF"/>
<path opacity="0.3" d="M55.2527 17.4283C55.2954 17.3959 55.3296 17.351 55.3478 17.2959C55.4247 17.0701 55.4949 16.8412 55.5571 16.6154C55.598 16.467 55.5109 16.3136 55.3625 16.2727C55.2145 16.2323 55.0611 16.319 55.0198 16.4674C54.9607 16.683 54.8931 16.9012 54.8202 17.1167C54.7709 17.2625 54.8487 17.4207 54.9945 17.4701C55.0856 17.5012 55.1811 17.4825 55.2527 17.4283Z" fill="#C6EEEF"/>
</g>
<path d="M52.9711 12.6435C52.9733 12.5835 52.9368 12.5284 52.8808 12.5066L51.28 11.8888C51.1257 11.1022 50.8448 10.3351 50.4355 9.61862L51.2422 8.10486C51.2706 8.05197 51.2617 7.98664 51.2208 7.94264L49.8191 6.43509C49.7782 6.39109 49.7137 6.37776 49.6586 6.40221L48.0906 7.09687C47.4062 6.63687 46.6609 6.30087 45.8876 6.09021L45.3876 4.44845C45.3702 4.39067 45.3178 4.35067 45.2578 4.34845L43.2005 4.27378C43.1405 4.27156 43.0854 4.308 43.064 4.364L42.4462 5.96488C41.6596 6.1191 40.892 6.39998 40.176 6.80931L38.6627 6.00265C38.6098 5.97421 38.5445 5.98265 38.5005 6.02399L36.993 7.42575C36.949 7.46664 36.9356 7.53109 36.9601 7.5862L37.6547 9.15418C37.1947 9.83862 36.8587 10.5839 36.6481 11.3573L35.0063 11.8573C34.949 11.8746 34.9085 11.9271 34.9063 11.9871L34.8316 14.0444C34.8294 14.1044 34.8659 14.1595 34.9219 14.1808L36.5227 14.799C36.677 15.5857 36.9578 16.3528 37.3672 17.0692L36.5605 18.583C36.5321 18.6359 36.5405 18.7012 36.5818 18.7452L37.9836 20.2528C38.0245 20.2968 38.0889 20.3101 38.1441 20.2856L39.712 19.591C40.3965 20.051 41.1418 20.387 41.9151 20.5976L42.4151 22.2394C42.4325 22.2967 42.4849 22.3372 42.5449 22.3394L44.6022 22.4141C44.6622 22.4163 44.7173 22.3799 44.7391 22.3239L45.3569 20.723C46.1435 20.5688 46.9107 20.2879 47.6271 19.8785L49.1404 20.6852C49.1933 20.7136 49.2586 20.7048 49.3026 20.6639L50.8102 19.2621C50.8542 19.2212 50.8675 19.1568 50.8431 19.1017L50.148 17.5332C50.608 16.8488 50.9435 16.1035 51.1546 15.3301L52.7964 14.8301C52.8537 14.8128 52.8942 14.7604 52.8964 14.7004L52.9711 12.6435Z" fill="#74FCFD"/>
<path d="M44.9146 15.1902C44.4213 15.4608 43.852 15.5235 43.312 15.3657C42.772 15.2084 42.3253 14.8502 42.0546 14.3569C41.496 13.3386 41.8693 12.0582 42.888 11.4969C43.9066 10.9387 45.1893 11.3124 45.7475 12.3302C46.0182 12.8235 46.0804 13.3924 45.9231 13.9329C45.7951 14.372 45.5342 14.7493 45.1759 15.0204C45.0942 15.0831 45.0066 15.1395 44.9146 15.1902ZM42.5426 14.0889C42.7417 14.452 43.0702 14.7155 43.4675 14.8315C43.8648 14.9471 44.2835 14.9013 44.6462 14.7022C45.0088 14.5026 45.2724 14.1746 45.3884 13.7773C45.5044 13.38 45.4582 12.9613 45.2591 12.5986C44.8479 11.8498 43.9044 11.5747 43.1555 11.9853C43.088 12.0227 43.0244 12.064 42.9644 12.1089C42.3631 12.5649 42.1689 13.4075 42.5426 14.0889Z" fill="#74A1BB"/>
<path d="M47.0219 17.523C47.1623 17.4168 47.2983 17.3021 47.4303 17.1799C47.6921 16.9368 47.929 16.667 48.1356 16.3768C48.145 16.3639 48.1539 16.3506 48.1632 16.3377C48.2343 16.2364 48.2281 16.1039 48.157 16.0101C48.1396 15.9875 48.1188 15.967 48.0939 15.9497C47.9676 15.8617 47.7948 15.8933 47.7063 16.0186C47.5161 16.2915 47.2956 16.5444 47.0512 16.7719C47.0379 16.7844 47.0241 16.7968 47.0108 16.8088C46.4272 17.3412 45.733 17.7079 44.9859 17.8915C44.5801 17.991 44.1588 18.0368 43.7303 18.0252C43.7268 18.0252 43.7232 18.0252 43.7201 18.0248C43.7095 18.0244 43.6988 18.0243 43.6881 18.0239C42.4366 17.9781 41.2775 17.4484 40.4246 16.531C40.3139 16.4124 40.2108 16.2893 40.1144 16.1617C39.465 15.3039 39.133 14.2577 39.1726 13.1679C39.2179 11.9164 39.7486 10.7577 40.6655 9.90486C41.5824 9.05286 42.777 8.60753 44.0286 8.65287C45.2801 8.6982 46.4392 9.22842 47.2921 10.1457C47.4005 10.2622 47.5028 10.3844 47.5983 10.5102C48.0125 11.0573 48.3023 11.6888 48.445 12.3608C48.4539 12.4022 48.4712 12.4395 48.4952 12.4711C48.5583 12.5542 48.6659 12.5986 48.7747 12.5755C48.925 12.5431 49.0214 12.396 48.9894 12.2453C48.8299 11.4933 48.5059 10.7866 48.0423 10.1746C47.9352 10.0333 47.821 9.89686 47.6996 9.76664C46.7454 8.74042 45.4485 8.14754 44.0486 8.09643C42.6486 8.04576 41.3121 8.54176 40.2864 9.49731C39.2602 10.4515 38.6673 11.748 38.6166 13.1484C38.5722 14.3675 38.9437 15.5381 39.6699 16.4977C39.7779 16.6399 39.8935 16.7781 40.017 16.911C41.8637 18.8972 44.9037 19.127 47.0219 17.523Z" fill="#74A1BB"/>
<path d="M53.037 91.5238L50.3157 110.304H81.8887L77.7763 91.5238H53.037Z" fill="black"/>
<path d="M0 31.3909V87.2887C0 91.8869 3.66441 95.6473 8.26126 95.766C28.678 96.2926 100.085 97.5691 119.521 97.2824C122.861 97.2331 125.567 94.5602 125.663 91.2207C126.038 78.235 126.647 47.0081 124.394 32.5109C123.92 29.458 121.343 27.1749 118.255 27.0763C101.148 26.5292 25.4518 24.7914 6.02572 25.2274C2.67509 25.303 0 28.0398 0 31.3909Z" fill="black"/>
<path d="M3.50708 31.1189V84.2256C3.50708 86.9105 5.66217 89.098 8.3466 89.138L116.724 90.4771C119.385 90.5171 121.567 88.3758 121.577 85.714L121.758 33.0816C121.765 31.1785 120.249 29.619 118.346 29.5727L7.38794 27.331C5.2604 27.2794 3.50708 28.9901 3.50708 31.1189Z" fill="#C6EEEF"/>
<path d="M122.393 92.6536C122.392 92.6536 122.391 92.6536 122.39 92.6536L3.50475 90.6278C3.42164 90.6265 3.35586 90.5581 3.3572 90.4749C3.35853 90.3918 3.42786 90.3283 3.51009 90.3274L122.396 92.3532C122.479 92.3545 122.545 92.4229 122.543 92.506C122.542 92.5878 122.475 92.6536 122.393 92.6536Z" fill="#C6EEEF"/>
<path d="M64.1229 95.1277C63.3581 95.1277 62.7358 94.5055 62.7358 93.7406C62.7358 92.9757 63.3581 92.3535 64.1229 92.3535C64.8878 92.3535 65.51 92.9757 65.51 93.7406C65.51 94.505 64.8878 95.1277 64.1229 95.1277ZM64.1229 92.6535C63.5238 92.6535 63.0363 93.1411 63.0363 93.7402C63.0363 94.3393 63.5238 94.8268 64.1229 94.8268C64.7221 94.8268 65.2096 94.3393 65.2096 93.7402C65.2096 93.1411 64.7221 92.6535 64.1229 92.6535Z" fill="#C6EEEF"/>
<path d="M88.6895 115.298H42.4801C41.2246 115.298 40.2819 114.404 40.5246 113.444L41.1175 111.099C41.2957 110.394 42.0717 109.876 42.993 109.848L87.5406 108.457C88.5033 108.427 89.3557 108.938 89.5655 109.671L90.6344 113.406C90.9122 114.377 89.9651 115.298 88.6895 115.298Z" fill="black"/>
<path d="M67.3553 110.482C67.2735 110.482 67.2064 110.416 67.2051 110.334C67.2038 110.251 67.27 110.183 67.3531 110.182L69.262 110.154C69.3415 110.154 69.4131 110.219 69.4144 110.302C69.4157 110.385 69.3495 110.453 69.2664 110.454L67.3575 110.482H67.3553Z" fill="#C6EEEF"/>
<path d="M42.2357 114.004C42.2277 114.004 42.2197 114.004 42.2117 114.003C42.1299 113.99 42.0739 113.912 42.0868 113.831L42.3592 112.125C42.5055 111.208 43.285 110.534 44.213 110.52L64.46 110.224H64.4622C64.544 110.224 64.6111 110.29 64.6124 110.372C64.6137 110.455 64.5475 110.523 64.4644 110.524L44.2175 110.82C43.4361 110.832 42.7792 111.4 42.6561 112.172L42.3837 113.878C42.3721 113.952 42.3081 114.004 42.2357 114.004Z" fill="#C6EEEF"/>
<g opacity="0.53">
<path opacity="0.53" d="M66.5252 34.8309H63.6746V85.1087H66.5252V34.8309Z" fill="white"/>
<path opacity="0.53" d="M71.2884 34.8309H68.4377V85.1087H71.2884V34.8309Z" fill="white"/>
<path opacity="0.53" d="M76.0508 34.8309H73.2002V85.1087H76.0508V34.8309Z" fill="white"/>
<path opacity="0.53" d="M80.814 34.8309H77.9634V85.1087H80.814V34.8309Z" fill="white"/>
<path opacity="0.53" d="M85.5772 34.8309H82.7266V85.1087H85.5772V34.8309Z" fill="white"/>
<path opacity="0.53" d="M90.3397 34.8309H87.489V85.1087H90.3397V34.8309Z" fill="white"/>
<path opacity="0.53" d="M95.1028 34.8309H92.2522V85.1087H95.1028V34.8309Z" fill="white"/>
</g>
<path d="M66.5252 58.7965H63.6746V85.1087H66.5252V58.7965Z" fill="#74A1BB"/>
<path d="M71.2884 67.8396H68.4377V85.1088H71.2884V67.8396Z" fill="#74A1BB"/>
<path d="M76.0508 45.49H73.2002V85.1088H76.0508V45.49Z" fill="#74A1BB"/>
<path d="M80.814 75.5911H77.9634V85.1092H80.814V75.5911Z" fill="#74A1BB"/>
<path d="M85.5772 50.7869H82.7266V85.1088H85.5772V50.7869Z" fill="#74A1BB"/>
<path d="M90.3397 56.7295H87.489V85.1088H90.3397V56.7295Z" fill="#74A1BB"/>
<path d="M95.1028 63.189H92.2522V85.1088H95.1028V63.189Z" fill="#74A1BB"/>
<path opacity="0.57" d="M16.6612 32.5337C12.8367 32.5337 9.73633 35.6341 9.73633 39.4585C9.73633 43.2829 12.8367 46.3834 16.6612 46.3834C20.4856 46.3834 23.586 43.2829 23.586 39.4585C23.5864 35.6341 20.486 32.5337 16.6612 32.5337ZM16.6612 43.4038C14.4821 43.4038 12.7159 41.6376 12.7159 39.4585C12.7159 37.2794 14.4821 35.5132 16.6612 35.5132C18.8403 35.5132 20.6065 37.2794 20.6065 39.4585C20.6065 41.6376 18.8403 43.4038 16.6612 43.4038Z" fill="white"/>
<path d="M27.5615 37.9353H6.99097V46.6406H27.5615V37.9353Z" fill="white"/>
<path opacity="0.57" d="M33.5425 32.5337C29.7181 32.5337 26.6177 35.6341 26.6177 39.4585C26.6177 43.2829 29.7181 46.3834 33.5425 46.3834C37.3669 46.3834 40.4673 43.2829 40.4673 39.4585C40.4673 35.6341 37.3669 32.5337 33.5425 32.5337ZM33.5425 43.4038C31.3634 43.4038 29.5972 41.6376 29.5972 39.4585C29.5972 37.2794 31.3634 35.5132 33.5425 35.5132C35.7216 35.5132 37.4878 37.2794 37.4878 39.4585C37.4878 41.6376 35.7212 43.4038 33.5425 43.4038Z" fill="white"/>
<path d="M44.4423 34.571H23.8718V46.6412H44.4423V34.571Z" fill="white"/>
<path opacity="0.57" d="M50.4231 32.5337C46.5987 32.5337 43.4983 35.6341 43.4983 39.4585C43.4983 43.2829 46.5987 46.3834 50.4231 46.3834C54.2475 46.3834 57.348 43.2829 57.348 39.4585C57.348 35.6341 54.248 32.5337 50.4231 32.5337ZM50.4231 43.4038C48.244 43.4038 46.4778 41.6376 46.4778 39.4585C46.4778 37.2794 48.244 35.5132 50.4231 35.5132C52.6022 35.5132 54.3684 37.2794 54.3684 39.4585C54.3684 41.6376 52.6022 43.4038 50.4231 43.4038Z" fill="white"/>
<path d="M61.3229 42.2883H40.7524V46.6407H61.3229V42.2883Z" fill="white"/>
<path opacity="0.44" d="M55.7409 85.3869L11.3199 85.0532C10.4435 85.0465 9.73682 84.3345 9.73682 83.4581V60.6351C9.73682 59.7543 10.451 59.04 11.3319 59.04H55.7533C56.6342 59.04 57.3484 59.7543 57.3484 60.6351V83.7919C57.348 84.6776 56.6266 85.3936 55.7409 85.3869Z" fill="white"/>
<path opacity="0.44" d="M48.8506 69.3445L43.1387 63.3054L34.9485 72.2138L29.1695 65.9778L23.7495 72.1049L19.5931 67.0552L11.4016 75.5835V81.7506C11.4016 82.5657 12.0589 83.2283 12.874 83.2341L54.1888 83.5443C55.0128 83.5506 55.6835 82.8843 55.6835 82.0608V65.2836L48.8506 69.3445Z" fill="white"/>
<path d="M49.036 69.1769H48.8857V83.5448H49.036V69.1769Z" fill="white"/>
<path d="M43.2139 63.3054H43.0637V83.4617H43.2139V63.3054Z" fill="white"/>
<path d="M35.0233 72.1049H34.873V83.3999H35.0233V72.1049Z" fill="white"/>
<path d="M29.398 66.1986H29.2478V83.3998H29.398V66.1986Z" fill="white"/>
<path d="M23.8243 71.9218H23.6741V83.3999H23.8243V71.9218Z" fill="white"/>
<path d="M19.7559 66.6271H19.6057V83.2901H19.7559V66.6271Z" fill="white"/>
<path d="M19.6806 67.8823C20.3738 67.8823 20.9357 67.3203 20.9357 66.6272C20.9357 65.934 20.3738 65.3721 19.6806 65.3721C18.9875 65.3721 18.4255 65.934 18.4255 66.6272C18.4255 67.3203 18.9875 67.8823 19.6806 67.8823Z" fill="#74FCFD"/>
<path d="M24.5757 71.9218C24.5757 72.3782 24.2055 72.7484 23.749 72.7484C23.2926 72.7484 22.9224 72.3782 22.9224 71.9218C22.9224 71.4653 23.2926 71.0951 23.749 71.0951C24.2055 71.0951 24.5757 71.4653 24.5757 71.9218Z" fill="#74FCFD"/>
<path d="M30.1494 66.1987C30.1494 66.6552 29.7792 67.0254 29.3228 67.0254C28.8659 67.0254 28.4961 66.6552 28.4961 66.1987C28.4961 65.7423 28.8663 65.3721 29.3228 65.3721C29.7792 65.3721 30.1494 65.7423 30.1494 66.1987Z" fill="#74FCFD"/>
<path d="M35.7751 72.1049C35.7751 72.5613 35.4049 72.9315 34.9485 72.9315C34.4916 72.9315 34.1218 72.5613 34.1218 72.1049C34.1218 71.6484 34.492 71.2782 34.9485 71.2782C35.4049 71.2782 35.7751 71.6484 35.7751 72.1049Z" fill="#74FCFD"/>
<path d="M43.9653 63.3054C43.9653 63.7619 43.5951 64.1321 43.1387 64.1321C42.6822 64.1321 42.312 63.7619 42.312 63.3054C42.312 62.849 42.6822 62.4788 43.1387 62.4788C43.5951 62.4788 43.9653 62.849 43.9653 63.3054Z" fill="#74FCFD"/>
<path d="M49.7876 69.1769C49.7876 69.6333 49.4174 70.0036 48.9609 70.0036C48.5045 70.0036 48.1343 69.6333 48.1343 69.1769C48.1343 68.7204 48.5045 68.3502 48.9609 68.3502C49.4174 68.3498 49.7876 68.72 49.7876 69.1769Z" fill="#74A1BB"/>
<g opacity="0.48">
<path opacity="0.48" d="M22.5719 55.2405H10.3951C9.88579 55.2405 9.4729 55.528 9.4729 55.8827C9.4729 56.2374 9.88579 56.5249 10.3951 56.5249H22.5723C23.0817 56.5249 23.4946 56.2374 23.4946 55.8827C23.4946 55.528 23.0817 55.2405 22.5719 55.2405Z" fill="white"/>
<path opacity="0.48" d="M22.5719 52.396H10.3951C9.88579 52.396 9.4729 52.6835 9.4729 53.0382C9.4729 53.3929 9.88579 53.6804 10.3951 53.6804H22.5723C23.0817 53.6804 23.4946 53.3929 23.4946 53.0382C23.4946 52.6835 23.0817 52.396 22.5719 52.396Z" fill="white"/>
<path opacity="0.48" d="M22.5719 49.5521H10.3951C9.88579 49.5521 9.4729 49.8397 9.4729 50.1943C9.4729 50.549 9.88579 50.8366 10.3951 50.8366H22.5723C23.0817 50.8366 23.4946 50.549 23.4946 50.1943C23.4946 49.8397 23.0817 49.5521 22.5719 49.5521Z" fill="white"/>
</g>
<g opacity="0.48">
<path opacity="0.48" d="M39.4987 55.2405H27.3219C26.8125 55.2405 26.3997 55.528 26.3997 55.8827C26.3997 56.2374 26.8125 56.5249 27.3219 56.5249H39.4991C40.0084 56.5249 40.4213 56.2374 40.4213 55.8827C40.4213 55.528 40.008 55.2405 39.4987 55.2405Z" fill="white"/>
<path opacity="0.48" d="M39.4987 52.396H27.3219C26.8125 52.396 26.3997 52.6835 26.3997 53.0382C26.3997 53.3929 26.8125 53.6804 27.3219 53.6804H39.4991C40.0084 53.6804 40.4213 53.3929 40.4213 53.0382C40.4213 52.6835 40.008 52.396 39.4987 52.396Z" fill="white"/>
<path opacity="0.48" d="M39.4987 49.5521H27.3219C26.8125 49.5521 26.3997 49.8397 26.3997 50.1943C26.3997 50.549 26.8125 50.8366 27.3219 50.8366H39.4991C40.0084 50.8366 40.4213 50.549 40.4213 50.1943C40.4213 49.8397 40.008 49.5521 39.4987 49.5521Z" fill="white"/>
</g>
<g opacity="0.48">
<path opacity="0.48" d="M56.4258 55.2405H44.2486C43.7393 55.2405 43.3264 55.528 43.3264 55.8827C43.3264 56.2374 43.7393 56.5249 44.2486 56.5249H56.4258C56.9352 56.5249 57.3481 56.2374 57.3481 55.8827C57.3481 55.528 56.9352 55.2405 56.4258 55.2405Z" fill="white"/>
<path opacity="0.48" d="M56.4258 52.396H44.2486C43.7393 52.396 43.3264 52.6835 43.3264 53.0382C43.3264 53.3929 43.7393 53.6804 44.2486 53.6804H56.4258C56.9352 53.6804 57.3481 53.3929 57.3481 53.0382C57.3481 52.6835 56.9352 52.396 56.4258 52.396Z" fill="white"/>
<path opacity="0.48" d="M56.4258 49.5521H44.2486C43.7393 49.5521 43.3264 49.8397 43.3264 50.1943C43.3264 50.549 43.7393 50.8366 44.2486 50.8366H56.4258C56.9352 50.8366 57.3481 50.549 57.3481 50.1943C57.3481 49.8397 56.9352 49.5521 56.4258 49.5521Z" fill="white"/>
</g>
<path d="M107.946 63.548C111.058 63.548 113.581 61.0253 113.581 57.9134C113.581 54.8015 111.058 52.2788 107.946 52.2788C104.834 52.2788 102.312 54.8015 102.312 57.9134C102.312 61.0253 104.834 63.548 107.946 63.548Z" fill="white"/>
<path d="M111.294 56.7223C111.468 57.1463 111.565 57.6107 111.565 58.0974C111.565 60.096 109.945 61.7165 107.946 61.7165C105.947 61.7165 104.327 60.096 104.327 58.0974C104.327 56.0987 105.947 54.4783 107.946 54.4783C108.007 54.4783 108.068 54.4801 108.129 54.4827V53.5654C108.068 53.5632 108.007 53.5614 107.946 53.5614C105.441 53.5614 103.41 55.5921 103.41 58.0974C103.41 60.6027 105.441 62.6334 107.946 62.6334C110.451 62.6334 112.482 60.6027 112.482 58.0974C112.482 57.4805 112.359 56.8925 112.136 56.3565L111.294 56.7223Z" fill="#C6EEEF"/>
<path opacity="0.5" d="M112.577 65.9343H103.396C102.819 65.9343 102.352 66.4014 102.352 66.9779C102.352 67.5543 102.819 68.0214 103.396 68.0214H112.577C113.154 68.0214 113.621 67.5543 113.621 66.9779C113.621 66.4019 113.154 65.9343 112.577 65.9343Z" fill="white"/>
<path d="M107.922 45.4385C111.034 45.4385 113.557 42.9158 113.557 39.8039C113.557 36.692 111.034 34.1693 107.922 34.1693C104.81 34.1693 102.288 36.692 102.288 39.8039C102.288 42.9158 104.81 45.4385 107.922 45.4385Z" fill="white"/>
<path d="M109.837 43.0502C109.279 43.4027 108.618 43.6076 107.909 43.6076C105.91 43.6076 104.29 41.9871 104.29 39.9885C104.29 37.9898 105.91 36.3694 107.909 36.3694C107.97 36.3694 108.031 36.3712 108.092 36.3738V35.4565C108.031 35.4543 107.97 35.4525 107.909 35.4525C105.404 35.4525 103.373 37.4832 103.373 39.9885C103.373 42.4938 105.404 44.5244 107.909 44.5244C108.783 44.5244 109.6 44.2769 110.292 43.8484L109.837 43.0502Z" fill="#C6EEEF"/>
<path opacity="0.5" d="M112.601 47.8247H103.42C102.843 47.8247 102.376 48.2918 102.376 48.8683C102.376 49.4447 102.843 49.9118 103.42 49.9118H112.601C113.178 49.9118 113.645 49.4447 113.645 48.8683C113.645 48.2923 113.178 47.8247 112.601 47.8247Z" fill="white"/>
<path opacity="0.91" d="M111.949 80.0996C114.149 77.8992 114.149 74.3316 111.949 72.1311C109.748 69.9307 106.181 69.9307 103.98 72.1311C101.78 74.3316 101.78 77.8992 103.98 80.0996C106.181 82.3 109.748 82.3 111.949 80.0996Z" fill="white"/>
<path d="M111.035 78.1502C110.383 79.1067 109.286 79.7347 108.042 79.7347C106.043 79.7347 104.423 78.1142 104.423 76.1156C104.423 74.1169 106.043 72.4965 108.042 72.4965C108.103 72.4965 108.164 72.4983 108.224 72.5009V71.5836C108.164 71.5814 108.103 71.5796 108.042 71.5796C105.537 71.5796 103.506 73.6103 103.506 76.1156C103.506 78.6209 105.537 80.6516 108.042 80.6516C109.592 80.6516 110.96 79.8742 111.778 78.6885L111.035 78.1502Z" fill="url(#paint0_linear_77_3082)"/>
<path opacity="0.5" d="M103.376 86.0389H112.557C113.134 86.0389 113.601 85.5718 113.601 84.9954C113.601 84.419 113.134 83.9519 112.557 83.9519H103.376C102.799 83.9519 102.332 84.419 102.332 84.9954C102.332 85.5718 102.799 86.0389 103.376 86.0389Z" fill="white"/>
<path d="M109.91 116.746C109.91 116.746 110.153 118.122 110.272 119.485C110.319 120.018 109.908 120.48 109.374 120.503C107.56 120.578 103.678 120.725 102.285 120.663C102.076 120.654 101.939 120.439 102.016 120.244C102.081 120.081 102.206 119.949 102.366 119.876L108.778 116.929L109.91 116.746Z" fill="black"/>
<path d="M110.109 115.937L109.914 117.584C109.914 117.584 108.791 118.106 108.023 117.518L108.489 115.683L110.109 115.937Z" fill="url(#paint1_linear_77_3082)"/>
<path d="M109.962 84.9798C110.047 85.41 110.415 106.438 108.168 115.862C108.131 116.015 108.209 116.174 108.355 116.234C108.7 116.375 109.376 116.579 110.186 116.606C110.436 116.614 110.661 116.451 110.732 116.21C111.375 114.024 114.454 103.069 114.855 92.605C115.304 80.9118 114.855 92.2068 114.855 92.2068L114.592 84.9789L109.962 84.9798Z" fill="#74A1BB"/>
<path d="M117.286 117.464C117.286 117.464 117.673 118.159 118.047 120.006C118.115 120.339 117.882 120.659 117.543 120.692C116.944 120.751 116.022 120.827 115.283 120.822C114.943 120.819 114.676 120.523 114.718 120.185C114.799 119.511 115.055 118.405 115.842 117.543L117.286 117.464Z" fill="black"/>
<path d="M117.626 115.346L117.169 117.836C117.169 117.836 116.718 118.171 115.825 117.928L116.042 115.249L117.626 115.346Z" fill="url(#paint2_linear_77_3082)"/>
<path d="M118.859 85.6251C120.697 96.7197 118.46 113.047 117.706 116.242C117.659 116.438 117.502 116.588 117.303 116.62C116.966 116.676 116.412 116.722 115.866 116.563C115.677 116.508 115.545 116.339 115.537 116.143C115.436 113.559 115.618 97.6988 113.905 91.4308C113.819 91.113 113.624 90.8362 113.356 90.6455L110.031 88.282L109.776 84.4615L118.859 85.6251Z" fill="#74A1BB"/>
<path d="M107.145 64.6026C112.654 64.5115 118.733 66.0492 118.733 66.0492C120.375 75.6314 119.02 86.6838 119.02 86.6838C114.754 87.8024 109.943 85.9998 109.943 85.9998C109.234 81.9945 105.927 70.723 105.927 70.723C103.235 70.3888 101.018 69.6123 99.1914 68.5857C100.584 66.971 101.241 64.9164 101.526 63.7021C103.474 64.3075 105.446 64.6306 107.145 64.6026Z" fill="#74A1BB"/>
<path d="M90.8716 56.488C91.4129 55.8342 92.0978 56.1436 92.0978 56.1436C92.9085 59.568 97.1595 62.3448 101.527 63.7022C101.242 64.9168 100.585 66.971 99.1924 68.5857C91.944 64.5102 90.8716 56.488 90.8716 56.488Z" fill="url(#paint3_linear_77_3082)"/>
<path d="M91.0027 56.6543C90.9463 56.8343 91.6019 57.1085 91.9881 56.3721C92.0014 56.0192 92.2161 54.5072 92.0054 54.2201C90.8823 52.689 88.705 50.7699 88.705 50.7699C88.337 51.133 88.6401 51.4899 88.6401 51.4899L89.6965 52.5903C89.4756 52.9894 89.2063 53.3268 89.0796 53.8094C88.9841 54.1752 89.0423 54.5659 89.2272 54.8987C89.4125 55.233 89.6654 55.6672 89.9045 56.0067C90.3574 56.6494 91.0027 56.6543 91.0027 56.6543Z" fill="url(#paint4_linear_77_3082)"/>
<path d="M90.1583 53.3036L91.121 54.1196L91.4232 54.932L90.565 55.884C90.565 55.884 90.2765 54.272 90.0618 53.9231C89.8476 53.5743 89.9587 53.4054 90.1583 53.3036Z" fill="url(#paint5_linear_77_3082)"/>
<path d="M116.62 71.3839L118.733 66.0493C118.733 66.0493 123.879 69.5457 124.726 73.9791C123.753 74.0506 121.984 74.3035 120.252 75.1782C119.871 73.0844 116.62 71.3839 116.62 71.3839Z" fill="#74A1BB"/>
<path d="M112.123 76.4034C112.123 76.4034 117.901 79.6687 119.85 76.8803C120.255 76.3012 120.351 75.7261 120.252 75.1776C121.984 74.303 123.753 74.0501 124.725 73.9785C124.98 75.315 124.846 76.7363 124.06 78.1727C120.646 84.4193 111.358 77.8274 111.358 77.8274L112.123 76.4034Z" fill="url(#paint6_linear_77_3082)"/>
<path d="M112.817 80.5347L109.664 69.5232C109.628 69.3984 109.522 69.3072 109.392 69.2921C108.821 69.2255 107.166 69.0384 105.254 68.8766C102.952 68.6819 100.278 68.5241 98.6805 68.6584C98.4534 68.6775 98.316 68.9175 98.4169 69.1219C99.3254 70.9601 103.063 78.437 104.934 80.8863C104.996 80.9676 105.092 81.0147 105.194 81.0138L112.51 80.9458C112.723 80.9436 112.875 80.7392 112.817 80.5347Z" fill="black"/>
<path d="M104.927 67.9214L102.641 67.5406C102.519 67.5201 102.42 67.6366 102.458 67.7539L102.684 68.4397C102.704 68.4992 102.756 68.5428 102.819 68.5508L105.019 68.8445C105.132 68.8597 105.226 68.7565 105.2 68.6445L105.06 68.0459C105.045 67.9814 104.992 67.9326 104.927 67.9214Z" fill="#74A1BB"/>
<path d="M106.639 69.857L106.451 68.8761C106.431 68.7779 106.351 68.7032 106.251 68.6934L101.633 68.225C101.478 68.209 101.353 68.3517 101.39 68.5036L101.683 69.7258C101.707 69.8236 101.792 69.8943 101.892 69.8992L106.405 70.1263C106.551 70.1334 106.667 70.0014 106.639 69.857Z" fill="#74A1BB"/>
<path d="M112.055 77.8742C112.055 77.8742 112.494 76.068 112.317 75.4271C112.14 74.7862 111.797 73.9622 110.652 74.1453C109.508 74.3284 108.158 74.8107 108.158 74.8107C108.158 74.8107 108.226 75.6453 109.096 75.376L108.557 75.7933C108.557 75.7933 108.634 76.4618 109.368 76.1044L108.867 76.6577C108.867 76.6577 109.182 77.2066 109.723 76.8546C110.264 76.5026 110.523 78.0915 112.055 77.8742Z" fill="url(#paint7_linear_77_3082)"/>
<path d="M112.725 60.1302L114.478 65.1996C114.507 65.2836 114.473 65.3764 114.395 65.4196C113.917 65.6835 112.195 66.4475 110.121 65.132C109.905 64.9951 109.758 64.7716 109.725 64.5178L109.157 60.1302H112.725Z" fill="url(#paint8_linear_77_3082)"/>
<path d="M108.801 54.8938C108.748 54.9671 107.101 60.7088 107.101 60.7088L110.399 61.5799L112.769 56.3698C112.769 56.3698 109.685 53.6662 108.801 54.8938Z" fill="url(#paint9_linear_77_3082)"/>
<path d="M111.459 56.7552C111.54 56.8841 111.557 57.0418 111.505 57.1849L110.487 59.9845C110.472 60.0271 110.451 60.0667 110.424 60.1031C110.278 60.3045 109.759 60.908 109.157 60.34C108.644 59.8556 108.167 59.4178 107.72 59.2858C107.459 59.2085 107.186 59.3636 107.112 59.6254C106.96 60.1645 106.674 61.2591 106.556 62.2671C106.527 62.52 106.699 62.7516 106.948 62.8004C107.607 62.9293 108.901 63.1427 110.001 63.0827C110.182 63.0729 110.341 62.9649 110.418 62.8009C110.756 62.08 111.713 60.064 112.071 59.5365C112.403 59.0463 113.193 59.0534 113.555 59.0854C113.692 59.0974 113.827 59.0525 113.929 58.9605C114.236 58.6836 114.741 58.0449 114.015 57.2703C113.835 57.0778 113.849 56.7716 114.038 56.5872C114.376 56.2565 114.704 55.6961 114.153 54.9979C113.595 54.2912 112.855 54.3614 112.374 54.5174C112.16 54.5863 111.916 54.5148 111.793 54.3276C111.738 54.2445 111.649 54.1814 111.507 54.1801C111.238 54.1779 111.022 53.9739 111.022 53.705C111.023 53.2437 110.846 52.6792 110.06 52.4268C108.62 51.9637 107.707 53.3508 107.608 54.3912C107.508 55.4316 109.099 55.845 110.036 55.7832C110.726 55.7383 111.236 56.4005 111.459 56.7552Z" fill="black"/>
<path d="M111.685 60.5667C111.685 60.5667 111.936 58.7614 112.688 58.6796C113.441 58.5982 114.167 59.2227 113.41 60.2307C112.468 61.484 111.685 60.5667 111.685 60.5667Z" fill="url(#paint10_linear_77_3082)"/>
<defs>
<linearGradient id="paint0_linear_77_3082" x1="114.484" y1="70.0013" x2="97.0453" y2="86.5509" gradientUnits="userSpaceOnUse">
<stop stop-color="#FDF53F"/>
<stop offset="1" stop-color="#D93C65"/>
</linearGradient>
<linearGradient id="paint1_linear_77_3082" x1="110.109" y1="116.74" x2="108.023" y2="116.74" gradientUnits="userSpaceOnUse">
<stop stop-color="#FEBBBA"/>
<stop offset="1" stop-color="#FF928E"/>
</linearGradient>
<linearGradient id="paint2_linear_77_3082" x1="117.626" y1="116.633" x2="115.825" y2="116.633" gradientUnits="userSpaceOnUse">
<stop stop-color="#FEBBBA"/>
<stop offset="1" stop-color="#FF928E"/>
</linearGradient>
<linearGradient id="paint3_linear_77_3082" x1="101.527" y1="62.3279" x2="90.8714" y2="62.3279" gradientUnits="userSpaceOnUse">
<stop stop-color="#FEBBBA"/>
<stop offset="1" stop-color="#FF928E"/>
</linearGradient>
<linearGradient id="paint4_linear_77_3082" x1="93.2451" y1="60.5419" x2="100.395" y2="76.8096" gradientUnits="userSpaceOnUse">
<stop stop-color="#FEBBBA"/>
<stop offset="1" stop-color="#FF928E"/>
</linearGradient>
<linearGradient id="paint5_linear_77_3082" x1="90.9226" y1="55.1242" x2="87.9393" y2="50.5372" gradientUnits="userSpaceOnUse">
<stop stop-color="#FEBBBA"/>
<stop offset="1" stop-color="#FF928E"/>
</linearGradient>
<linearGradient id="paint6_linear_77_3082" x1="124.843" y1="77.4207" x2="111.358" y2="77.4207" gradientUnits="userSpaceOnUse">
<stop stop-color="#FEBBBA"/>
<stop offset="1" stop-color="#FF928E"/>
</linearGradient>
<linearGradient id="paint7_linear_77_3082" x1="112.359" y1="76.007" x2="108.159" y2="76.007" gradientUnits="userSpaceOnUse">
<stop stop-color="#FEBBBA"/>
<stop offset="1" stop-color="#FF928E"/>
</linearGradient>
<linearGradient id="paint8_linear_77_3082" x1="114.488" y1="63.0053" x2="109.157" y2="63.0053" gradientUnits="userSpaceOnUse">
<stop stop-color="#FEBBBA"/>
<stop offset="1" stop-color="#FF928E"/>
</linearGradient>
<linearGradient id="paint9_linear_77_3082" x1="109.869" y1="55.7115" x2="110.134" y2="67.0729" gradientUnits="userSpaceOnUse">
<stop stop-color="#FEBBBA"/>
<stop offset="1" stop-color="#FF928E"/>
</linearGradient>
<linearGradient id="paint10_linear_77_3082" x1="113.82" y1="67.4025" x2="112.654" y2="59.6142" gradientUnits="userSpaceOnUse">
<stop stop-color="#FEBBBA"/>
<stop offset="1" stop-color="#FF928E"/>
</linearGradient>
</defs>
</svg>
