<svg width="122" height="109" viewBox="0 0 122 109" fill="none" xmlns="http://www.w3.org/2000/svg">
<path d="M44.1145 75.8649L57.9942 48.8023C59.1709 46.5081 58.05 44.8303 55.2845 44.362L52.1789 43.8361C48.1688 43.1571 46.6789 41.2274 47.9508 38.8934L50.1987 35.8263L54.951 35.9649L54.2088 37.8673C53.7263 39.104 54.7049 40.0763 56.8857 40.4053L59.8039 40.8455C64.4735 41.5501 66.8033 44.1836 65.4057 48.0183L59.0861 73.3543L44.1145 75.8649Z" fill="#C6EEEF"/>
<path d="M52.3353 34.4014L47.2288 36.5223L57.4414 36.1842L52.3353 34.4014Z" fill="#C6EEEF"/>
<path d="M41.7036 87.3325L88.2575 58.6199C91.9245 56.5851 96.2598 55.7803 99.5934 56.3393L103.299 56.9608C108.026 57.7535 112.751 56.9008 115.715 54.976L119.856 52.6669L114.898 51.0553L112.289 52.4356C110.549 53.3557 108.015 53.676 105.587 53.2159L102.311 52.5957C97.0095 51.5915 89.0986 51.0379 82.4157 54.0306L28.0105 82.5521L41.7036 87.3325Z" fill="#C6EEEF"/>
<path d="M111.615 50.5836L118.782 49.9998L121.004 53.8149L111.615 50.5836Z" fill="#C6EEEF"/>
<path d="M37.3281 108.372H0L102.291 18.8071L108.168 19.5614L37.3281 108.372Z" fill="#597B8E"/>
<path d="M97.6897 19.395L107.82 16.7317L110.603 21.0542L97.6897 19.395Z" fill="#597B8E"/>
<path d="M99.8115 101.863C98.2806 102.774 96.6889 103.577 95.1026 104.384C96.7382 103.848 103.658 101.294 103.772 105.003C103.776 105.136 103.771 105.263 103.755 105.385C103.43 108.045 98.7068 107.998 96.8602 107.997C94.6069 107.994 92.395 108.029 90.1736 107.896C89.917 107.88 89.6622 107.864 89.4056 107.843C89.1102 107.82 88.814 107.792 88.5173 107.761C88.1483 107.724 87.778 107.68 87.4077 107.628L87.2355 107.531C86.9521 107.575 86.6708 107.615 86.3898 107.651C86.1167 107.689 85.8445 107.722 85.5739 107.752C84.854 107.833 84.1415 107.891 83.4332 107.923C80.9647 108.044 78.5406 107.874 76.0047 107.346C74.2756 106.986 72.5416 106.401 71.1249 105.315C69.875 104.354 67.5451 101.317 68.9763 99.6684C69.0669 99.5621 69.1732 99.464 69.2961 99.3705C71.1261 97.9873 74.3728 100.742 75.7676 101.723C76.1069 101.962 77.5095 103.245 77.9861 103.09C78.4214 102.949 77.8748 102.403 77.6725 102.155C76.152 100.296 73.9413 99.1334 72.4419 97.2475C71.1584 95.6339 69.8154 92.1903 71.7153 90.4836C71.9276 90.2932 72.144 90.1625 72.3628 90.0847C74.6306 89.2725 77.2116 93.9855 77.9716 95.3323C78.8314 96.8553 79.5282 98.5182 80.5282 99.9584C80.9205 100.523 81.4542 101.23 81.8998 100.385C82.4128 99.4119 82.0268 97.6791 81.8402 96.6782C81.5254 94.9843 80.9349 93.3682 80.2911 91.7753C79.2497 89.1914 77.9005 86.1396 80.5203 84.0195C81.1861 83.4796 82.1133 83.0381 83.1055 82.7419H83.1067C85.1192 82.1494 87.401 82.4551 88.3233 84.4006C89.0511 85.9327 88.6638 87.8513 88.3374 89.4322C87.9373 91.3723 87.3597 93.2917 87.1681 95.2694C87.0618 96.3778 86.9401 98.0502 87.7341 98.9733C88.2678 99.5964 88.8272 99.4156 89.1769 98.7292C89.7375 97.6257 89.5757 96.0684 89.608 94.8768C89.6531 93.1957 89.7296 91.4555 90.4044 89.8898C91.1401 88.1802 93.7534 85.8909 95.8387 86.4789C96.2607 86.5968 96.6612 86.8326 97.0199 87.2158C99.1582 89.4976 95.1316 94.463 94.0049 96.3629C93.2395 97.6555 92.1737 99.1669 91.9159 100.683C91.7645 101.57 92.1501 101.68 92.8303 101.174C94.0244 100.284 94.9181 98.8703 95.8428 97.7254C97.0331 96.2529 98.2736 94.7456 99.8367 93.6512C101.384 92.5697 104.337 91.8874 105.381 93.6032C105.588 93.945 105.72 94.3815 105.75 94.9281C105.925 98.099 102.14 100.477 99.8115 101.863Z" fill="#74FCFD"/>
<path opacity="0.5" d="M95.8382 86.4784C95.6661 86.6882 95.4745 86.9034 95.2643 87.1247C91.9841 90.5775 91.8973 92.7364 90.5153 98.4346C89.6229 102.118 88.9096 105.693 88.5169 107.762C88.1479 107.724 87.7776 107.68 87.4073 107.628L87.2351 107.531C86.9517 107.575 86.6704 107.615 86.3894 107.652C86.5152 106.397 86.3919 104.3 84.5582 102.925C81.796 100.853 83.0041 96.5346 83.6955 93.9446C84.3856 91.3545 83.6955 89.7876 82.2271 87.1123C81.4112 85.6241 82.2234 83.9273 83.1051 82.7419H83.1063C85.1188 82.1494 87.4006 82.4551 88.3229 84.4006C89.0507 85.9327 88.6634 87.8513 88.3369 89.4322C87.9369 91.3723 87.3593 93.2917 87.1677 95.2694C87.0614 96.3778 86.9397 98.0502 87.7337 98.9733C88.2674 99.5964 88.8268 99.4156 89.1764 98.7292C89.7371 97.6257 89.5753 96.0683 89.6076 94.8767C89.6527 93.1957 89.7292 91.4554 90.404 89.8898C91.1397 88.1798 93.7533 85.8905 95.8382 86.4784Z" fill="white"/>
<path opacity="0.5" d="M99.8115 101.863C98.2806 102.774 96.6889 103.577 95.1026 104.384C96.7382 103.848 103.658 101.294 103.772 105.003C103.776 105.136 103.771 105.263 103.755 105.385C103.004 105.456 102.208 105.386 101.578 104.974C99.8943 103.873 99.7325 105.363 98.1135 105.881C96.4945 106.399 93.6781 105.686 92.1563 106.787C91.4012 107.334 90.6941 107.684 90.1736 107.896C89.917 107.88 89.6622 107.864 89.4056 107.843C89.6969 106.903 90.6763 104.304 92.8468 103.183C95.5238 101.801 96.991 101.37 97.8549 98.5211C98.61 96.0295 101.677 93.7356 105.381 93.6024C105.588 93.9442 105.72 94.3807 105.75 94.9272C105.926 98.0991 102.14 100.477 99.8115 101.863Z" fill="white"/>
<path opacity="0.5" d="M85.5735 107.752C84.8536 107.833 84.1411 107.891 83.4328 107.923C83.3227 107.415 84.1296 106.746 81.8903 106.269C78.2344 105.492 76.1442 106.947 74.7378 103.485C73.6799 100.882 71.0625 99.1893 68.976 99.6684C69.0666 99.5621 69.1729 99.464 69.2958 99.3705C71.1258 97.9874 74.3725 100.742 75.7672 101.724C76.1065 101.962 77.5091 103.245 77.9858 103.09C78.421 102.949 77.8745 102.403 77.6722 102.155C76.1516 100.296 73.941 99.1334 72.4415 97.2476C71.1581 95.6339 69.815 92.1903 71.715 90.4836C71.9272 90.2932 72.1436 90.1625 72.3625 90.0847C72.2694 91.7203 72.5139 94.4403 74.8024 96.0382C78.2344 98.4342 78.817 100.441 78.9465 101.736C79.0673 102.947 84.4469 103.931 85.5735 107.752Z" fill="white"/>
<path d="M23.9914 43.3785C23.9914 43.3785 15.0465 46.9351 16.0755 52.6962C17.1041 58.4572 23.2512 63.704 24.8457 62.3663C26.1317 60.0518 26.0824 60.5661 25.2198 59.1258C24.3571 57.6856 20.0876 53.6734 24.8714 51.4102C29.6548 49.147 23.9914 43.3785 23.9914 43.3785Z" fill="#74A1BB"/>
<path d="M22.3541 99.1843C22.2983 98.8756 21.3011 98.5963 20.8079 99.0097C20.563 99.2149 20.3942 99.6312 20.5361 99.8191C20.5878 99.8874 20.3764 100.008 20.5787 100.01C21.2498 100.018 22.41 99.4909 22.3541 99.1843Z" fill="url(#paint0_linear_77_3036)"/>
<path d="M21.3093 99.2969L20.2841 99.1521C20.759 98.5803 20.6709 96.7594 20.6709 96.7594L21.7611 97.0027C21.7611 97.0027 21.637 97.5025 21.4256 98.2398C21.3536 98.4918 21.3213 98.8869 21.3093 99.2969Z" fill="url(#paint1_linear_77_3036)"/>
<path d="M21.4004 99.1703C21.4004 99.1703 20.1662 98.886 20.0326 99.1305C19.899 99.3755 19.7955 100.031 20.5783 100.01C21.3615 99.9892 21.4699 99.378 21.4004 99.1703Z" fill="url(#paint2_linear_77_3036)"/>
<path d="M36.42 100.342C36.3211 100.044 35.2954 99.9067 34.8643 100.385C34.6504 100.623 34.5415 101.058 34.7083 101.225C34.7691 101.285 34.5767 101.433 34.7774 101.408C35.4431 101.322 36.5181 100.637 36.42 100.342Z" fill="url(#paint3_linear_77_3036)"/>
<path d="M35.4013 100.599H34.3661C34.7563 99.9667 34.4145 98.176 34.4145 98.176L35.5279 98.2646C35.5279 98.2646 35.4749 98.7768 35.369 99.5364C35.3322 99.7963 35.3558 100.192 35.4013 100.599Z" fill="url(#paint4_linear_77_3036)"/>
<path d="M38.0845 61.4479C38.5641 63.0317 39.2488 65.5878 39.6899 68.7948C40.9473 77.9424 38.2744 78.2341 38.7738 88.3709C38.9331 91.6064 35.9707 99.0676 35.7096 99.2323C35.5834 99.2447 35.446 99.253 35.3 99.2484C35.0422 99.2405 34.679 99.2012 34.2565 99.0746C33.7873 98.9939 32.0951 94.4108 32.4873 91.6863C32.7649 89.7578 32.6843 87.6882 32.5233 83.5487C32.4972 82.878 30.7814 70.4999 30.7814 70.4999C30.2593 75.0817 29.6593 78.9747 29.1388 81.993C27.4669 91.6904 22.0302 97.5595 21.7468 97.6538C21.6909 97.6762 21.1808 97.8615 20.7637 97.5868C20.5779 97.4643 20.515 97.3067 20.515 97.3067C20.3698 97.1929 20.5581 87.6249 22.216 80.4245C24.6228 69.9727 23.5747 67.5275 24.3373 62.8592C24.9964 58.8197 38.0845 61.4479 38.0845 61.4479Z" fill="black"/>
<path d="M38.7283 63.0259C37.2843 63.7698 33.5606 65.0963 29.1252 64.4376C27.0986 64.136 25.4776 63.4612 24.3373 62.86C25.4867 59.3758 24.5839 57.5102 24.1577 55.7898C23.552 53.3396 23.5404 53.5237 23.0406 51.5779C22.216 48.3655 22.0803 45.0811 22.6467 44.4113C23.8279 43.0112 25.7395 42.6541 27.2087 42.5461C27.6415 42.5138 28.0354 42.5022 28.3622 42.4931C29.1798 42.4679 30.5431 42.309 31.9503 42.4009C33.2908 42.4931 34.6699 42.813 35.6558 43.7021C35.6906 43.7319 35.276 43.9553 35.4808 44.1924C35.6695 44.4158 36.3191 45.192 36.9087 46.2421C37.3369 47.0043 37.7217 47.8909 38.1106 49.2129C38.7945 51.5435 38.9927 53.5283 39.0573 54.3943C39.4284 59.2562 39.0602 61.5017 38.7283 63.0259Z" fill="#74A1BB"/>
<path d="M35.4738 100.462C35.4738 100.462 34.2118 100.353 34.1141 100.614C34.0161 100.875 34.0053 101.538 34.7778 101.408C35.5499 101.277 35.5714 100.657 35.4738 100.462Z" fill="url(#paint5_linear_77_3036)"/>
<path d="M29.4123 40.2108C29.1859 40.0755 29.0134 40.3668 29.1202 40.6213C29.2269 40.8757 29.5852 41.035 29.8024 40.8832C30.0196 40.7313 29.7168 40.3929 29.4123 40.2108Z" fill="url(#paint6_linear_77_3036)"/>
<path d="M32.2204 42.7583C32.2204 43.1981 31.0781 43.5552 29.6663 43.5552C28.2571 43.5552 27.1147 43.1981 27.1147 42.7583C27.1147 42.6847 27.147 42.6131 27.2091 42.5465C27.6419 42.5142 28.0358 42.5026 28.3626 42.4935C29.1802 42.4683 30.5435 42.3094 31.9507 42.4012C32.1236 42.5096 32.2204 42.6317 32.2204 42.7583Z" fill="url(#paint7_linear_77_3036)"/>
<path d="M30.3524 42.4175C30.2047 42.0852 30.0574 41.753 29.9093 41.4203C30.0383 41.2933 30.8841 40.6607 30.8663 39.9449C30.8427 38.973 30.0698 38.2307 29.9184 38.0817C29.2837 37.4586 29.1484 37.3883 28.9154 37.318L28.5956 37.2348C28.5956 37.2348 28.5782 37.2331 28.56 37.2327C28.3684 37.2245 27.7751 37.3871 27.6638 37.4491C27.3084 37.6473 27.3792 39.3213 28.1678 41.4774C28.1777 41.566 28.1885 41.6545 28.1996 41.7439C28.2704 42.3004 28.3651 42.8324 28.4773 43.3385C28.4773 43.3381 29.9328 43.4001 30.3524 42.4175Z" fill="url(#paint8_linear_77_3036)"/>
<path d="M29.552 36.9013C29.7581 37.5806 29.3021 37.8727 29.1747 38.0395C29.1582 38.061 29.0684 38.1909 29.0113 38.3837C29.0034 38.4098 28.9985 38.4392 28.9972 38.476C28.9798 38.9493 29.8148 39.2439 29.7424 39.476C29.6898 39.6444 29.1706 39.6006 29.1524 39.7371C29.1354 39.8658 29.5914 39.9816 29.574 40.1351C29.5607 40.251 29.2959 40.2299 29.1946 40.4322C29.1441 40.5327 29.1851 40.5878 29.1793 40.8505C29.176 40.999 29.159 41.1654 29.1358 41.2622C29.0237 41.7326 28.4039 42.0826 28.2268 41.9622C28.1776 41.9287 28.1966 41.882 28.1147 41.7438C28.1147 41.7438 28.0386 41.6159 27.8933 41.4856C27.6856 41.2994 27.3037 41.2382 26.895 41.0996C26.1378 40.8435 25.8523 40.5145 25.7625 40.4016C25.7307 40.3614 25.7087 40.33 25.693 40.3076C25.3782 39.8567 25.1518 39.1218 25.2379 38.6009C25.3823 37.7279 26.3426 37.8264 26.8081 36.8624C27.0675 36.3249 27.2239 35.7622 27.8486 35.5413C28.3348 35.3691 28.7833 35.5433 29.0738 35.9558C29.2649 36.2285 29.4548 36.5823 29.552 36.9013Z" fill="#26264F"/>
<path d="M29.4491 39.3908C29.2124 39.2133 28.9861 39.5178 29.0751 39.814C29.164 40.1103 29.5451 40.33 29.8053 40.186C30.066 40.0424 29.7677 39.6299 29.4491 39.3908Z" fill="url(#paint9_linear_77_3036)"/>
<path d="M31.6225 35.8706L30.5711 35.2223C30.5711 35.2223 29.5968 34.7804 28.5289 35.4826C27.4614 36.1847 27.9186 36.6936 27.9186 36.6936L28.7039 36.339C28.7039 36.339 29.2099 36.1069 29.9935 36.4536C30.8976 36.7159 31.5273 36.6505 31.5273 36.6505L31.6225 35.8706Z" fill="url(#paint10_linear_77_3036)"/>
<path d="M36.5404 34.9549C34.3123 34.2052 32.2337 34.3616 31.1654 34.5089C30.9581 34.7692 30.6647 35.2164 30.6382 35.7812C30.5236 38.241 35.6529 39.0863 35.7894 41.3698C35.8805 42.8928 33.635 43.1154 32.4054 46.4084C31.8154 47.989 32.0586 48.67 32.4538 49.0589C33.0794 49.6746 34.2192 49.6899 34.566 49.6945C37.5785 49.7346 42.1281 46.7457 42.5249 42.7356C42.8575 39.3784 40.1938 36.1838 36.5404 34.9549Z" fill="#74A1BB"/>
<path d="M47.9566 4.74086V21.506C47.9566 23.948 45.9338 25.8885 43.4128 25.8335L33.9272 25.6282L32.6599 25.6014L28.1136 31.0368C27.7673 31.2991 26.9414 31.3012 26.6659 30.9648L25.9968 30.0715L22.4895 25.3804L22.1605 25.3725L13.0824 25.1777C12.096 25.1553 11.2541 24.7912 10.5519 24.1942C9.6214 23.4081 9.09429 22.2214 9.1129 20.9065L9.33385 5.0429C9.3657 2.76396 11.168 0.891322 13.4445 0.859877L15.3684 0.832157L43.5022 0.447781C44.1865 0.439092 44.7956 0.574803 45.3785 0.828432C46.9218 1.50119 47.9566 2.99028 47.9566 4.74086Z" fill="url(#paint11_linear_77_3036)"/>
<path d="M47.2992 4.28368L47.295 21.0087C47.2946 23.4449 45.2019 25.3795 42.6929 25.3274L33.7141 25.1466L31.9259 25.1098L27.3961 30.2887C27.0647 30.666 26.4805 30.6565 26.164 30.2688L25.9993 30.0715L22.1613 25.3721L21.7778 24.9025L12.4072 24.7113C11.7129 24.6964 11.0956 24.5107 10.5254 24.1929C9.21716 23.4693 8.37601 22.0563 8.39877 20.4526L8.62343 4.62378C8.6557 2.34816 10.4774 0.47842 12.7477 0.445734L14.9575 0.413048L42.7049 0.000538409C43.7194 -0.0147703 44.6975 0.297198 45.4522 0.831763C46.5482 1.60589 47.2996 2.86079 47.2992 4.28368Z" fill="#74FCFD"/>
<path opacity="0.3" d="M33.9445 25.6282L32.6681 25.6013L28.1176 31.0371C27.7713 31.2995 26.9434 31.3015 26.6679 30.9651L25.998 30.0719L22.1609 25.3725L13.0824 25.1776C12.096 25.1553 11.2275 24.7907 10.5254 24.1937C9.21712 23.4701 8.37638 22.0571 8.39913 20.4534L8.6238 4.62455C8.65607 2.34893 10.4778 0.47919 12.7481 0.446504L14.9579 0.413818C15.0949 0.54746 15.2194 0.685238 15.3472 0.832119C16.8024 2.46892 17.8148 4.83184 17.5877 8.25066C16.9129 18.4773 23.8386 20.3036 30.013 22.3529C31.9113 22.9839 33.0384 24.0195 33.6933 25.147C33.7856 25.305 33.868 25.4656 33.9445 25.6282Z" fill="#7CD4D5"/>
<path d="M24.6124 15.9713L24.6141 15.0288C24.6157 14.2129 24.7854 13.5033 25.1242 12.8988C25.4643 12.2923 26.0883 11.6439 27.0006 10.9513C27.8868 10.2964 28.4756 9.76138 28.7623 9.34929C29.0499 8.93596 29.1951 8.47628 29.1972 7.96985C29.1997 7.40219 28.9965 6.97437 28.5881 6.68723C28.181 6.40091 27.6142 6.26769 26.8897 6.2863C25.636 6.31858 24.2223 6.77453 22.6554 7.64547L21.338 4.89197C23.1424 3.76533 25.0874 3.15463 27.1781 3.07271C28.9282 3.00444 30.3358 3.38592 31.3867 4.22252C32.4459 5.06574 32.9739 6.22259 32.9639 7.68685C32.9573 8.66164 32.7318 9.50527 32.2883 10.2161C31.8468 10.924 31.016 11.7176 29.805 12.5927C28.982 13.2083 28.464 13.6738 28.2468 13.9924C28.03 14.3101 27.9208 14.7276 27.9191 15.2444L27.9162 16.0189L24.6124 15.9713ZM24.2123 20.3012C24.2136 19.5929 24.3981 19.0621 24.7667 18.7079C25.1371 18.3529 25.677 18.1833 26.3895 18.2002C27.0813 18.2168 27.6187 18.4179 27.9998 18.8047C28.3817 19.1928 28.572 19.7394 28.5691 20.4436C28.5662 21.1213 28.3701 21.648 27.9812 22.0224C27.5939 22.3956 27.0585 22.5673 26.3771 22.5388C25.6828 22.5098 25.1491 22.2997 24.773 21.9091C24.3977 21.5197 24.2115 20.9839 24.2123 20.3012Z" fill="white"/>
<defs>
<linearGradient id="paint0_linear_77_3036" x1="22.9077" y1="98.2935" x2="20.7129" y2="99.7519" gradientUnits="userSpaceOnUse">
<stop stop-color="#444B8C"/>
<stop offset="0.9964" stop-color="#26264F"/>
</linearGradient>
<linearGradient id="paint1_linear_77_3036" x1="20.784" y1="99.7658" x2="21.2642" y2="96.3694" gradientUnits="userSpaceOnUse">
<stop stop-color="#FFC444"/>
<stop offset="0.9964" stop-color="#F36F56"/>
</linearGradient>
<linearGradient id="paint2_linear_77_3036" x1="22.7429" y1="98.0453" x2="20.5479" y2="99.5037" gradientUnits="userSpaceOnUse">
<stop stop-color="#444B8C"/>
<stop offset="0.9964" stop-color="#26264F"/>
</linearGradient>
<linearGradient id="paint3_linear_77_3036" x1="36.8434" y1="99.3822" x2="34.8744" y2="101.134" gradientUnits="userSpaceOnUse">
<stop stop-color="#444B8C"/>
<stop offset="0.9964" stop-color="#26264F"/>
</linearGradient>
<linearGradient id="paint4_linear_77_3036" x1="34.9468" y1="101.137" x2="34.9468" y2="97.707" gradientUnits="userSpaceOnUse">
<stop stop-color="#FFC444"/>
<stop offset="0.9964" stop-color="#F36F56"/>
</linearGradient>
<linearGradient id="paint5_linear_77_3036" x1="36.6455" y1="99.1598" x2="34.6767" y2="100.911" gradientUnits="userSpaceOnUse">
<stop stop-color="#444B8C"/>
<stop offset="0.9964" stop-color="#26264F"/>
</linearGradient>
<linearGradient id="paint6_linear_77_3036" x1="29.0492" y1="39.294" x2="30.6463" y2="44.1897" gradientUnits="userSpaceOnUse">
<stop stop-color="#FFC444"/>
<stop offset="0.9964" stop-color="#F36F56"/>
</linearGradient>
<linearGradient id="paint7_linear_77_3036" x1="29.0405" y1="37.1032" x2="31.6099" y2="60.277" gradientUnits="userSpaceOnUse">
<stop stop-color="#FFC444"/>
<stop offset="0.9964" stop-color="#F36F56"/>
</linearGradient>
<linearGradient id="paint8_linear_77_3036" x1="28.9338" y1="37.1151" x2="31.5032" y2="60.2891" gradientUnits="userSpaceOnUse">
<stop stop-color="#FFC444"/>
<stop offset="0.9964" stop-color="#F36F56"/>
</linearGradient>
<linearGradient id="paint9_linear_77_3036" x1="29.1733" y1="37.0884" x2="31.7428" y2="60.2624" gradientUnits="userSpaceOnUse">
<stop stop-color="#FFC444"/>
<stop offset="0.9964" stop-color="#F36F56"/>
</linearGradient>
<linearGradient id="paint10_linear_77_3036" x1="28.2321" y1="35.6721" x2="31.3121" y2="36.5243" gradientUnits="userSpaceOnUse">
<stop stop-color="#FFC444"/>
<stop offset="0.9964" stop-color="#F36F56"/>
</linearGradient>
<linearGradient id="paint11_linear_77_3036" x1="19.0812" y1="-2.3186" x2="34.8042" y2="22.9598" gradientUnits="userSpaceOnUse">
<stop stop-color="#311944"/>
<stop offset="1" stop-color="#893976"/>
</linearGradient>
</defs>
</svg>
