<svg width="125" height="120" viewBox="0 0 125 120" fill="none" xmlns="http://www.w3.org/2000/svg">
<path d="M90.3137 66.9023C90.3137 66.9023 89.9686 52.3901 96.6529 48.5059C103.337 44.6217 116.046 42.1935 116.523 21.355C116.802 9.15551 117.104 3.82157 117.306 1.49545C117.385 0.58818 116.579 -0.144078 115.684 0.024216C109.353 1.2166 88.7883 6.12532 84.4766 20.1622C79.3647 36.8032 90.3137 66.9023 90.3137 66.9023Z" fill="#C6EEEF"/>
<path opacity="0.5" d="M110.788 5.82231C103.839 12.0196 95.8033 22.9883 91.5208 33.9565C90.9711 35.7643 89.3629 39.6082 88.6647 46.4385C88.0408 52.1349 88.3509 58.1541 89.1074 62.139C89.1553 62.391 89.3983 62.5562 89.6498 62.5088C90.0831 62.4264 90.0254 61.9609 90.0213 61.9752C89.1575 55.1674 89.516 46.694 91.4953 39.0487C94.0237 29.661 99.6633 20.5592 105.497 12.8401L106.097 12.0801C110.616 6.27617 111.568 6.2332 111.145 5.82902C111.046 5.73324 110.889 5.73234 110.788 5.82231Z" fill="white"/>
<path d="M79.213 97.6319C78.2171 98.1203 88.6419 85.0108 91.908 64.4208C93.4468 54.7184 93.467 42.5623 98.9938 37.8773C103.594 33.9784 119.246 36.4401 124.368 37.3756C125.008 37.4924 125.223 38.3008 124.725 38.7193C122.269 40.7817 117.015 45.6475 115.646 50.5508C113.842 57.014 107.697 61.1247 102.196 62.2374C96.6954 63.3501 93.6353 64.4297 90.9555 73.2266C88.2754 82.0236 82.0427 96.2444 79.213 97.6319Z" fill="#74A1BB"/>
<path opacity="0.5" d="M117.165 40.1063C110.63 40.3798 103.616 43.3607 100.057 48.952L99.7207 49.4856C98.9445 50.7366 94.5469 59.6302 92.1049 67.002C92.0745 67.0938 92.1241 67.1932 92.2163 67.2236C92.3726 67.2751 92.4504 67.1036 92.4357 67.1189C94.1374 62.954 96.5812 57.6738 98.5278 53.7251C100.615 49.4166 102.076 46.4983 106.837 43.7036C112.137 40.6935 117.2 40.3838 117.185 40.3869C117.262 40.3789 117.318 40.31 117.311 40.2325C117.303 40.1582 117.238 40.1036 117.165 40.1063Z" fill="white"/>
<path d="M83.6817 99.3566C83.0905 99.6681 87.0109 92.9207 87.3117 86.9758C87.6125 81.0309 88.9535 70.8845 94.0802 64.8147C99.2069 58.7449 104.821 58.1912 111.895 63.7091C117.79 68.3072 121.467 70.628 123.623 71.059C124.157 71.166 124.43 71.7685 124.17 72.2474C122.787 74.7946 118.876 80.6455 112.31 80.2333C103.935 79.7078 93.7848 74.2633 90.691 78.805C87.5973 83.3467 87.9947 85.8882 87.8994 88.0406C87.8054 90.1935 87.5932 97.2946 83.6817 99.3566Z" fill="#C6EEEF"/>
<path opacity="0.5" d="M109.519 70.9974C106.953 68.5375 102.775 66.1205 99.1222 66.5712C94.3706 67.3366 91.2053 70.5095 89.4789 75.2329C88.8039 77.2386 88.5264 78.3092 88.1272 80.7674C88.0954 80.9639 88.385 81.0225 88.4329 80.8305C88.7234 79.6757 89.0107 78.4668 89.4413 77.2162C91.9456 69.1484 97.292 68.0617 97.5002 67.8965C97.9043 67.9363 100.354 66.1021 106.169 69.2308C107.254 69.8216 108.311 70.4961 109.304 71.2404L109.309 71.2445C109.381 71.2982 109.483 71.2839 109.536 71.2118C109.586 71.1455 109.577 71.0534 109.519 70.9974Z" fill="white"/>
<path d="M10.2875 92.47L13.3857 97.6177C14.4237 99.3418 16.441 100.218 18.4095 99.7988L23.0751 98.8056C24.3369 98.537 25.6421 98.9153 26.5856 99.7948C28.9596 102.008 31.5565 103.915 34.3146 105.501C35.4344 106.145 36.1815 107.282 36.2956 108.568L36.7172 113.325C36.8949 115.329 38.325 117.001 40.2783 117.486L46.109 118.935C48.0623 119.421 50.1082 118.613 51.2039 116.925L53.8035 112.919C54.5067 111.836 55.6991 111.181 56.9904 111.136C60.1701 111.026 63.3573 110.557 66.4914 109.712C67.737 109.377 69.0668 109.654 70.0564 110.482L73.7141 113.544C75.2574 114.836 77.4502 115.006 79.1747 113.968L84.3225 110.87C86.0466 109.832 86.9225 107.815 86.5036 105.846L85.5104 101.181C85.2418 99.9188 85.62 98.6136 86.4995 97.6701C88.7129 95.296 90.6196 92.6991 92.2054 89.9411C92.8495 88.8208 93.9864 88.0742 95.2736 87.96L100.03 87.5384C102.034 87.3607 103.706 85.9307 104.191 83.9774L105.64 78.1466C106.126 76.1933 105.318 74.1474 103.631 73.0517L99.6251 70.4521C98.5415 69.7489 97.8862 68.5565 97.8419 67.2653C97.7318 64.0856 97.2627 60.8983 96.4186 57.7643C96.0829 56.5186 96.3599 55.1884 97.188 54.1996L100.25 50.5419C101.542 48.9986 101.712 46.8059 100.674 45.0818L97.5756 39.9336C96.5376 38.2095 94.5203 37.3335 92.5523 37.7525L87.8866 38.7457C86.6249 39.0142 85.3197 38.636 84.3762 37.7565C82.0021 35.5432 79.4052 33.6364 76.6472 32.0506C75.5273 31.4066 74.7803 30.2697 74.6662 28.9829L74.2445 24.2268C74.0668 22.222 72.6368 20.5511 70.6835 20.0655L64.8527 18.6162C62.8995 18.1306 60.8535 18.938 59.7578 20.6263L57.1582 24.6318C56.4551 25.7154 55.2627 26.3707 53.9714 26.415C50.7917 26.5251 47.6044 26.9942 44.4704 27.8384C43.2247 28.1741 41.8945 27.897 40.9053 27.069L37.2476 24.007C35.7043 22.7152 33.5116 22.5447 31.787 23.5827L26.6389 26.6809C24.9147 27.7189 24.0384 29.7361 24.4578 31.7046L25.451 36.3703C25.7195 37.6321 25.3413 38.9373 24.4618 39.8808C22.2484 42.2548 20.3417 44.8517 18.7559 47.6098C18.1118 48.7296 16.9749 49.4767 15.6881 49.5908L10.932 50.0124C8.92728 50.1901 7.25598 51.6202 6.77034 53.5735L5.32105 59.4042C4.83541 61.3571 5.64286 63.403 7.33117 64.4987L11.3367 67.0983C12.4207 67.8015 13.0755 68.9938 13.1203 70.2851C13.2304 73.4648 13.6995 76.6521 14.5436 79.7861C14.8793 81.0318 14.6023 82.362 13.7742 83.3512L10.7123 87.0089C9.42007 88.5527 9.24999 90.7458 10.2875 92.47ZM23.8589 83.6954C15.6192 66.2313 23.0971 45.3946 40.5611 37.1545C58.0252 28.9148 78.8623 36.3927 87.102 53.8568C95.3417 71.3209 87.8638 92.158 70.3997 100.398C52.9357 108.637 32.0986 101.159 23.8589 83.6954Z" fill="#4C6370"/>
<path d="M75.2268 59.612C71.4988 58.8113 58.7837 56.461 45.4696 58.3673C41.0103 59.0055 37.063 61.5962 34.6563 65.4043C30.3201 72.2654 24.1863 84.4962 25.4834 97.2525L32.2895 98.9355C32.2895 98.9355 36.9932 83.8011 42.2868 77.6414C42.2868 77.6414 48.5562 91.932 48.2393 99.7796C48.2304 100.002 48.2161 100.218 48.1964 100.429C47.4771 108.107 78.2923 101.862 78.2923 101.862L76.3726 60.9655C76.3417 60.3058 75.8722 59.7503 75.2268 59.612Z" fill="black"/>
<path d="M64.6245 45.2502L65.5206 55.8751C65.6038 56.8634 65.0945 57.7881 64.2454 58.1838C62.2899 59.0955 58.5351 60.4034 54.5193 59.4433C53.7843 59.2679 53.3054 58.4998 53.4267 57.7161L56.0312 40.875L64.6245 45.2502Z" fill="url(#paint0_linear_77_3214)"/>
<path d="M52.6679 32.373C52.6679 32.373 50.6452 40.2238 51.0463 44.1107C51.4473 47.9975 51.0163 50.6303 55.5951 50.6943C60.174 50.7583 63.572 47.9398 64.9918 43.7772C64.9918 43.7772 67.2324 37.3547 66.1309 35.0474C65.0289 32.7401 52.6679 32.373 52.6679 32.373Z" fill="url(#paint1_linear_77_3214)"/>
<path d="M63.0281 41.2612L62.465 41.3512C62.465 41.3512 64.0249 36.2213 61.8527 35.7106C59.6806 35.2004 51.3415 34.8437 49.1412 32.2561C47.0201 29.7622 47.9479 25.9541 50.0297 24.5974C50.1612 24.5115 50.3394 24.5518 50.4338 24.6771L50.6755 24.9989C50.8411 25.2191 51.1907 25.126 51.2247 24.8525C51.2569 24.5929 51.5823 24.4855 51.7538 24.6829C52.4243 25.4546 54.0911 26.6174 58.0787 26.7136C63.7371 26.8497 67.7265 28.4937 68.4225 32.2781C68.4668 32.518 68.7452 32.6093 68.9305 32.4513C69.2966 32.1393 69.9277 31.9196 70.912 32.5104C72.624 33.5385 72.5322 36.929 69.6565 40.1655C69.52 40.3195 69.5602 40.5648 69.7482 40.648C70.4102 40.9425 71.4527 41.7289 69.3338 43.3376C67.1661 44.9829 65.7419 45.0689 65.1909 45.0183C65.0427 45.0044 64.9263 44.8903 64.9116 44.7421L64.5817 41.3427C64.5647 41.1668 64.4027 41.0419 64.2285 41.0696L63.0281 41.2612Z" fill="black"/>
<path d="M63.0022 41.9876C63.0022 41.9876 63.4722 37.1039 65.7844 38.0828C68.0967 39.0617 65.5329 43.5108 63.871 43.9561L63.0022 41.9876Z" fill="url(#paint2_linear_77_3214)"/>
<path d="M76.2281 89.6587C76.8927 84.9661 72.0332 78.0688 70.0231 75.4513C69.448 74.7024 69.1266 73.7871 69.1185 72.8432C69.0599 66.1978 71.3095 62.7263 75.7805 59.8604C75.7805 59.8604 92.5476 77.9685 88.4159 92.5094C87.9701 94.0786 87.279 95.4268 86.4031 96.5851C85.7519 91.1066 79.4194 89.9116 76.2281 89.6587Z" fill="black"/>
<path d="M75.9249 87.8436L76.543 87.7729C76.0189 83.1712 71.9812 77.4904 70.2696 75.2618L69.7759 75.641C71.4561 77.8288 75.4182 83.3968 75.9249 87.8436Z" fill="#AEAEAE"/>
<path d="M76.1005 90.3086C76.1573 90.0978 76.1967 89.8798 76.228 89.6587C79.4193 89.9116 85.7523 91.1066 86.4031 96.5856C79.162 106.163 59.2021 102.707 59.2021 102.707V98.9807C59.2021 98.9811 74.5312 96.1331 76.1005 90.3086Z" fill="url(#paint3_linear_77_3214)"/>
<path d="M61.1209 101.679C61.1209 101.679 58.174 94.7246 52.981 97.1912C47.788 99.6579 48.1963 101.272 48.1963 101.272L61.1209 101.679Z" fill="url(#paint4_linear_77_3214)"/>
<path d="M61.7828 103.122C61.7416 103.648 61.2931 104.048 60.7658 104.03L33.8567 103.091C33.4387 103.076 33.0752 102.799 32.9503 102.4L32.1693 99.9008C31.9773 99.2867 32.4155 98.6565 33.0578 98.6225L42.8707 98.1011C42.9598 98.0961 43.0493 98.1038 43.1362 98.123L61.0134 102.082C61.4932 102.188 61.8213 102.632 61.7828 103.122Z" fill="#74A1BB"/>
<path d="M43.7453 102.14L43.005 98.6893L32.9253 99.1705L33.5886 102.033L43.7453 102.14Z" fill="#74A1BB"/>
<path d="M48.9129 64.9195C49.4835 69.5807 52.0496 88.5196 52.7841 93.9306C52.8875 94.6915 52.2828 95.3611 51.5152 95.3391L7.98117 94.0935C7.41139 94.0774 6.92575 93.6759 6.80221 93.1195L0.0301715 62.6216C-0.148865 61.8154 0.49298 61.0617 1.31744 61.1096L47.7505 63.8292C48.3511 63.8641 48.8399 64.3224 48.9129 64.9195Z" fill="#74A1BB"/>
<path d="M31.4138 84.1287L37.8479 102.39L22.8872 102.707L21.6415 84.2379C21.5829 83.3714 22.3017 82.6517 23.1687 82.7094L30.1556 83.1731C30.7281 83.2116 31.2231 83.5871 31.4138 84.1287Z" fill="#74A1BB"/>
<path d="M43.9132 102.65C44.0779 103.153 43.7037 103.67 43.1747 103.67H19.7455C19.3163 103.67 18.9685 103.322 18.9685 102.893V101.888C18.9685 101.446 19.3369 101.092 19.7786 101.112L43.2082 102.116C43.5314 102.13 43.812 102.343 43.9132 102.65Z" fill="#74A1BB"/>
<path d="M55.6006 46.8441C60.8463 48.2191 64.9445 43.2844 64.9852 43.2343L64.6647 42.9729C64.6258 43.0208 60.6919 47.7509 55.7053 46.444L55.6006 46.8441Z" fill="#74FCFD"/>
<path d="M65.8017 37.13C65.8017 37.13 65.4342 28.2816 60.2981 26.4398C60.2981 26.4398 61.9072 26.0387 63.3368 27.1004C64.7664 28.1621 68.0075 33.0735 67.0845 37.5995C65.9548 37.745 65.8017 37.13 65.8017 37.13Z" fill="#74FCFD"/>
<path d="M66.7967 36.7813C69.6126 37.9097 68.5764 41.5419 68.5764 41.5419C68.2962 44.2641 67.2694 45.4511 66.15 45.9014C65.385 46.2089 64.5144 46.0912 63.8574 45.5935C63.2003 45.0957 62.8521 44.2896 62.9403 43.4701C63.0199 42.7298 63.0853 42.0244 63.0759 41.7679C63.0539 41.1462 63.9814 35.6529 66.7967 36.7813Z" fill="#74FCFD"/>
<path d="M66.3572 37.6672C66.9834 37.6725 67.5232 38.1049 67.6637 38.715C68.6708 43.0835 66.043 45.3241 64.9796 45.1867C63.8588 45.0417 64.8583 39.7042 65.3448 38.3779C65.5489 37.822 65.9544 37.6636 66.3572 37.6672Z" fill="url(#paint5_linear_77_3214)"/>
<path d="M49.5515 84.2724L49.8979 84.2285L47.7593 67.3602C47.6255 66.3043 46.7576 65.4924 45.6959 65.4284L5.57035 63.0051L5.54932 63.3538L45.6749 65.7771C46.5692 65.8308 47.2996 66.5151 47.4129 67.404L49.5515 84.2724Z" fill="#C6EEEF"/>
<path d="M50.5127 89.0373L50.1663 89.0809L50.6264 92.7331L50.9728 92.6895L50.5127 89.0373Z" fill="#C6EEEF"/>
<path d="M35.7281 45.4197C35.7281 45.4197 -3.3716 26.1008 9.41516 11.8768C22.2024 -2.34717 46.0415 3.33812 47.2491 18.3091C48.4567 33.2797 19.4412 29.7674 35.7281 45.4197Z" fill="#74FCFD"/>
<path d="M12.3286 15.5507C12.3286 15.7687 12.505 15.945 12.7229 15.945H29.9789C30.1964 15.945 30.3732 15.7687 30.3732 15.5507C30.3732 15.3327 30.1969 15.1564 29.9789 15.1564H12.7229C12.505 15.1564 12.3286 15.3327 12.3286 15.5507Z" fill="white"/>
<path d="M35.1023 15.9445H40.2228C40.4403 15.9445 40.6171 15.7682 40.6171 15.5502C40.6171 15.3322 40.4407 15.1559 40.2228 15.1559H35.1023C34.8848 15.1559 34.708 15.3322 34.708 15.5502C34.7085 15.7686 34.8848 15.9445 35.1023 15.9445Z" fill="white"/>
<path d="M11.7473 19.0436C11.7473 19.2616 11.9237 19.4379 12.1416 19.4379H18.621C18.8385 19.4379 19.0153 19.2616 19.0153 19.0436C19.0153 18.8256 18.8389 18.6493 18.621 18.6493H12.1416C11.9237 18.6497 11.7473 18.8261 11.7473 19.0436Z" fill="white"/>
<path d="M27.7341 19.0436C27.7341 19.2616 27.9105 19.4379 28.1285 19.4379H39.6418C39.8594 19.4379 40.0362 19.2616 40.0362 19.0436C40.0362 18.8256 39.8598 18.6493 39.6418 18.6493H28.1285C27.9105 18.6497 27.7341 18.8261 27.7341 19.0436Z" fill="white"/>
<path d="M11.5601 22.9318H28.7843C29.0018 22.9318 29.1786 22.7555 29.1786 22.5375C29.1786 22.3195 29.0022 22.1432 28.7843 22.1432H11.5601C11.3426 22.1432 11.1658 22.3195 11.1658 22.5375C11.1658 22.7555 11.3426 22.9318 11.5601 22.9318Z" fill="white"/>
<path d="M33.0972 22.9318H39.06C39.2775 22.9318 39.4543 22.7555 39.4543 22.5375C39.4543 22.3195 39.278 22.1432 39.06 22.1432H33.0972C32.8797 22.1432 32.7029 22.3195 32.7029 22.5375C32.7029 22.7555 32.8797 22.9318 33.0972 22.9318Z" fill="white"/>
<defs>
<linearGradient id="paint0_linear_77_3214" x1="64.0943" y1="73.2323" x2="57.8099" y2="46.5831" gradientUnits="userSpaceOnUse">
<stop stop-color="#FEBBBA"/>
<stop offset="1" stop-color="#FF928E"/>
</linearGradient>
<linearGradient id="paint1_linear_77_3214" x1="63.1543" y1="43.2401" x2="51.7311" y2="40.2496" gradientUnits="userSpaceOnUse">
<stop stop-color="#FEBBBA"/>
<stop offset="1" stop-color="#FF928E"/>
</linearGradient>
<linearGradient id="paint2_linear_77_3214" x1="63.808" y1="40.7426" x2="52.3845" y2="37.752" gradientUnits="userSpaceOnUse">
<stop stop-color="#FEBBBA"/>
<stop offset="1" stop-color="#FF928E"/>
</linearGradient>
<linearGradient id="paint3_linear_77_3214" x1="77.9341" y1="84.2794" x2="66.106" y2="115.406" gradientUnits="userSpaceOnUse">
<stop stop-color="#FEBBBA"/>
<stop offset="1" stop-color="#FF928E"/>
</linearGradient>
<linearGradient id="paint4_linear_77_3214" x1="63.2586" y1="78.7029" x2="51.4307" y2="109.829" gradientUnits="userSpaceOnUse">
<stop stop-color="#FEBBBA"/>
<stop offset="1" stop-color="#FF928E"/>
</linearGradient>
<linearGradient id="paint5_linear_77_3214" x1="65.7597" y1="41.4406" x2="78.8705" y2="30.2245" gradientUnits="userSpaceOnUse">
<stop stop-color="#C6EEEF"/>
<stop offset="1" stop-color="#4042E2"/>
</linearGradient>
</defs>
</svg>
