<svg width="117" height="118" viewBox="0 0 117 118" fill="none" xmlns="http://www.w3.org/2000/svg">
<g opacity="0.3">
<path opacity="0.3" d="M81.7955 20.1072C81.5697 20.1072 81.3759 19.9365 81.3519 19.7073C81.2993 19.2057 81.2678 18.6944 81.2581 18.1877C81.2535 17.9413 81.4495 17.7373 81.6959 17.7327C81.6988 17.7327 81.7017 17.7327 81.7047 17.7327C81.9473 17.7327 82.1462 17.927 82.1508 18.1704C82.1601 18.6519 82.1899 19.1375 82.24 19.614C82.2656 19.8591 82.0877 20.079 81.8426 20.1047C81.8266 20.1063 81.8111 20.1072 81.7955 20.1072ZM81.8241 16.2177C81.8064 16.2177 81.7888 16.2169 81.7711 16.2148C81.5264 16.1857 81.3511 15.9637 81.3801 15.719C81.4398 15.2161 81.5214 14.7107 81.6227 14.217C81.6723 13.9757 81.9074 13.8205 82.15 13.8693C82.3913 13.9189 82.5469 14.1552 82.4973 14.3966C82.401 14.8658 82.3232 15.346 82.2669 15.8241C82.2404 16.0508 82.0474 16.2177 81.8241 16.2177ZM82.7088 12.4316C82.6592 12.4316 82.6087 12.4232 82.5591 12.4056C82.327 12.3227 82.2055 12.0675 82.2883 11.835C82.4578 11.359 82.6504 10.8843 82.8602 10.4242C82.9628 10.2001 83.2277 10.1013 83.4518 10.2035C83.6759 10.3057 83.7747 10.5706 83.6726 10.7951C83.4732 11.232 83.2903 11.6828 83.1293 12.1348C83.0641 12.3177 82.8921 12.4316 82.7088 12.4316ZM84.4181 8.93741C84.3361 8.93741 84.2528 8.91471 84.1784 8.86719C83.9707 8.73474 83.9093 8.45848 84.0422 8.25076C84.3142 7.82439 84.6077 7.40474 84.9151 7.00318C85.0648 6.80766 85.3452 6.77023 85.5412 6.91993C85.7371 7.06962 85.7741 7.35008 85.6244 7.54603C85.3326 7.92741 85.0538 8.32603 84.7953 8.73138C84.7095 8.86467 84.5652 8.93741 84.4181 8.93741ZM86.8632 5.91244C86.748 5.91244 86.6328 5.86829 86.5457 5.77957C86.3725 5.60423 86.3742 5.32124 86.5495 5.14842C86.9086 4.79395 87.2875 4.44957 87.6764 4.1258C87.8656 3.9677 88.1474 3.99335 88.305 4.18299C88.4627 4.3722 88.4375 4.65393 88.2479 4.81203C87.8783 5.11983 87.5179 5.44739 87.1765 5.78419C87.0898 5.86955 86.9767 5.91244 86.8632 5.91244ZM89.9168 3.50348C89.7675 3.50348 89.6216 3.42864 89.5371 3.29282C89.4067 3.08342 89.471 2.808 89.6805 2.67807C90.1098 2.41106 90.5555 2.15961 91.0058 1.93003C91.2257 1.81818 91.4944 1.90564 91.6063 2.12513C91.7181 2.34462 91.6307 2.61374 91.4112 2.72559C90.9831 2.94382 90.5597 3.18265 90.1518 3.4362C90.0786 3.48204 89.9975 3.50348 89.9168 3.50348ZM106.277 2.4405C106.215 2.4405 106.152 2.42746 106.092 2.40055C105.655 2.20208 105.204 2.02001 104.751 1.85938C104.518 1.77697 104.397 1.52216 104.479 1.28963C104.561 1.0571 104.816 0.93558 105.049 1.01757C105.526 1.18661 106.002 1.37835 106.461 1.58733C106.686 1.68951 106.785 1.95399 106.683 2.17853C106.608 2.34336 106.446 2.4405 106.277 2.4405ZM93.4261 1.83248C93.2411 1.83248 93.0679 1.71642 93.004 1.53141C92.9236 1.29804 93.0473 1.04406 93.2806 0.963751C93.7583 0.798921 94.249 0.653014 94.7393 0.529812C94.9786 0.470944 95.2212 0.614749 95.2813 0.854005C95.3414 1.09326 95.1964 1.33588 94.9571 1.39601C94.4916 1.51291 94.0257 1.65167 93.572 1.80809C93.5233 1.82449 93.4741 1.83248 93.4261 1.83248ZM102.577 1.24127C102.547 1.24127 102.517 1.23833 102.487 1.23244C102.017 1.13657 101.536 1.06004 101.058 1.00454C100.813 0.975946 100.638 0.75435 100.666 0.509628C100.695 0.264905 100.917 0.0883014 101.161 0.117735C101.664 0.176183 102.17 0.256916 102.665 0.357412C102.906 0.406609 103.062 0.642501 103.013 0.88386C102.971 1.09536 102.785 1.24127 102.577 1.24127ZM97.2206 0.9873C96.9952 0.9873 96.8018 0.817423 96.7774 0.588258C96.7513 0.343116 96.9288 0.123202 97.1739 0.0967111C97.676 0.0433095 98.1869 0.0105121 98.6927 0C98.6956 0 98.699 0 98.7024 0C98.9446 0 99.1435 0.193843 99.1485 0.436884C99.1536 0.683288 98.958 0.887645 98.7116 0.892691C98.231 0.902782 97.7458 0.933897 97.2685 0.984776C97.2521 0.986458 97.2361 0.9873 97.2206 0.9873Z" fill="#C6EEEF"/>
<path opacity="0.3" d="M109.001 3.99042C108.913 3.99042 108.825 3.96477 108.747 3.91052C108.558 3.77891 108.363 3.6494 108.168 3.52494C107.96 3.39249 107.899 3.11665 108.031 2.90851C108.164 2.70037 108.44 2.63898 108.648 2.77185C108.853 2.90262 109.058 3.03886 109.257 3.1772C109.459 3.31806 109.509 3.59642 109.369 3.79868C109.282 3.92356 109.143 3.99042 109.001 3.99042Z" fill="#C6EEEF"/>
</g>
<g opacity="0.3">
<path opacity="0.3" d="M116.254 15.5083C116.039 15.5083 115.849 15.3519 115.814 15.1324C115.778 14.9053 115.736 14.6749 115.69 14.4478C115.641 14.2061 115.797 13.9706 116.039 13.9214C116.281 13.8722 116.516 14.0286 116.565 14.2704C116.613 14.5092 116.657 14.7519 116.696 14.9911C116.735 15.2346 116.569 15.4637 116.326 15.5024C116.301 15.5066 116.278 15.5083 116.254 15.5083Z" fill="#C6EEEF"/>
<path opacity="0.3" d="M99.1048 35.6604C98.8992 35.6604 98.6932 35.6571 98.4863 35.6499C98.2399 35.6415 98.0469 35.4351 98.0553 35.1887C98.0637 34.9422 98.2714 34.7484 98.5166 34.7572C98.9942 34.7732 99.4711 34.7698 99.9399 34.7471C100.186 34.7354 100.396 34.925 100.408 35.171C100.42 35.4174 100.23 35.6268 99.9841 35.639C99.6935 35.6529 99.3979 35.6604 99.1048 35.6604ZM96.1417 35.4098C96.1169 35.4098 96.0912 35.4077 96.066 35.4035C95.5749 35.3198 95.082 35.2139 94.601 35.0894C94.3622 35.0276 94.2188 34.7841 94.2806 34.5453C94.3424 34.3065 94.5863 34.1627 94.8247 34.2249C95.2818 34.3431 95.7498 34.4435 96.2165 34.5234C96.4596 34.5651 96.6227 34.7955 96.5815 35.0385C96.5441 35.2559 96.3553 35.4098 96.1417 35.4098ZM102.317 35.361C102.106 35.361 101.919 35.2118 101.878 34.9973C101.833 34.7547 101.992 34.5218 102.234 34.4759C102.698 34.3889 103.164 34.2804 103.62 34.1538C103.858 34.0882 104.104 34.227 104.17 34.4646C104.236 34.7021 104.096 34.9481 103.859 35.0141C103.379 35.1474 102.888 35.2614 102.4 35.3535C102.372 35.3585 102.344 35.361 102.317 35.361ZM92.462 34.3531C92.4052 34.3531 92.3476 34.3422 92.2921 34.3195C91.8321 34.1299 91.3742 33.9184 90.9323 33.6909C90.7132 33.5782 90.627 33.3091 90.7397 33.0896C90.8524 32.8701 91.1215 32.7839 91.341 32.897C91.7611 33.1131 92.1954 33.3141 92.6323 33.4941C92.8602 33.5879 92.9691 33.849 92.8749 34.0769C92.8039 34.2489 92.6373 34.3531 92.462 34.3531ZM105.974 34.2417C105.801 34.2417 105.637 34.1408 105.564 33.9722C105.466 33.746 105.571 33.4832 105.797 33.3852C106.23 33.1981 106.661 32.9899 107.078 32.7667C107.295 32.6502 107.565 32.7318 107.682 32.9491C107.798 33.1665 107.717 33.4369 107.499 33.5534C107.06 33.7889 106.607 34.0079 106.151 34.2047C106.093 34.2295 106.033 34.2417 105.974 34.2417ZM109.297 32.3466C109.159 32.3466 109.023 32.2827 108.936 32.1624C108.791 31.9631 108.835 31.6839 109.035 31.5388C109.417 31.2609 109.792 30.9636 110.15 30.655C110.337 30.4935 110.619 30.5145 110.78 30.7012C110.941 30.8879 110.92 31.1697 110.733 31.3311C110.357 31.6557 109.962 31.9686 109.559 32.2608C109.48 32.3188 109.389 32.3466 109.297 32.3466ZM112.129 29.772C112.023 29.772 111.918 29.7354 111.833 29.6601C111.648 29.497 111.631 29.2148 111.794 29.0302C112.107 28.6753 112.409 28.3036 112.69 27.9248C112.837 27.7271 113.117 27.6855 113.315 27.8331C113.513 27.9803 113.554 28.2599 113.407 28.4579C113.11 28.8566 112.793 29.248 112.463 29.6214C112.375 29.7207 112.253 29.772 112.129 29.772ZM114.331 26.6414C114.258 26.6414 114.185 26.6238 114.116 26.5864C113.9 26.4678 113.821 26.1962 113.94 25.98C114.168 25.5654 114.381 25.1365 114.572 24.7051C114.672 24.4797 114.937 24.3784 115.161 24.478C115.387 24.5781 115.488 24.8422 115.388 25.0671C115.186 25.5217 114.962 25.9733 114.722 26.4098C114.641 26.5578 114.488 26.6414 114.331 26.6414ZM115.793 23.1022C115.752 23.1022 115.71 23.0963 115.669 23.0846C115.432 23.0164 115.295 22.7688 115.364 22.532C115.494 22.0788 115.607 21.6137 115.699 21.1499C115.747 20.9081 115.983 20.7513 116.224 20.7992C116.466 20.8472 116.623 21.0822 116.575 21.324C116.478 21.8122 116.359 22.3016 116.222 22.7793C116.165 22.9748 115.986 23.1022 115.793 23.1022ZM116.441 19.3313C116.431 19.3313 116.422 19.3309 116.413 19.3305C116.167 19.3153 115.979 19.1038 115.994 18.8578C116.015 18.5105 116.026 18.1582 116.026 17.8108C116.026 17.6851 116.025 17.5594 116.022 17.4345C116.017 17.1881 116.212 16.9837 116.459 16.9783C116.708 16.9682 116.91 17.1683 116.915 17.4147C116.918 17.5463 116.92 17.6784 116.92 17.8104C116.92 18.1758 116.908 18.5463 116.886 18.9117C116.872 19.1488 116.675 19.3313 116.441 19.3313Z" fill="#C6EEEF"/>
<path opacity="0.3" d="M89.0968 32.5055C89.0081 32.5055 88.9185 32.479 88.8403 32.4244C88.6427 32.2852 88.4442 32.1397 88.2504 31.9908C88.0544 31.8407 88.0174 31.5607 88.1675 31.3648C88.3177 31.1692 88.5977 31.1318 88.7936 31.2819C88.9778 31.4232 89.1662 31.5615 89.3541 31.6936C89.556 31.8353 89.6043 32.1136 89.4626 32.3155C89.3756 32.4395 89.2372 32.5055 89.0968 32.5055Z" fill="#C6EEEF"/>
</g>
<path d="M89.6993 27.3273C89.7556 27.3963 89.8494 27.422 89.9331 27.3913L92.3168 26.5146C93.2566 27.2382 94.3183 27.8172 95.4726 28.2142L96.0541 30.6845C96.0743 30.7711 96.1475 30.8355 96.2362 30.8443L99.267 31.1512C99.3558 31.1601 99.4403 31.1121 99.4773 31.0314L100.542 28.7276C101.753 28.5703 102.909 28.2158 103.975 27.6953L106.134 29.032C106.21 29.0787 106.307 29.0724 106.376 29.0164L108.736 27.0906C108.805 27.0343 108.831 26.9405 108.8 26.8568L107.923 24.4731C108.647 23.5333 109.226 22.4716 109.623 21.3174L112.093 20.7358C112.18 20.7156 112.244 20.6425 112.253 20.5538L112.56 17.5229C112.569 17.4342 112.521 17.3497 112.44 17.3127L110.136 16.2476C109.978 15.037 109.624 13.8807 109.104 12.8151L110.441 10.6555C110.487 10.5798 110.481 10.4827 110.425 10.4138L108.499 8.05357C108.442 7.98461 108.349 7.95896 108.265 7.98966L105.881 8.86637C104.941 8.14271 103.88 7.56371 102.726 7.16677L102.144 4.69642C102.123 4.6098 102.051 4.54546 101.962 4.53663L98.9311 4.22968C98.8424 4.22085 98.7578 4.26878 98.7208 4.34952L97.6557 6.65335C96.4452 6.81062 95.2888 7.16508 94.2233 7.68564L92.0641 6.34892C91.9884 6.30183 91.8913 6.30856 91.8223 6.36448L89.4621 8.2903C89.3932 8.34665 89.3675 8.44042 89.3982 8.52409L90.2749 10.9078C89.5513 11.8476 88.9723 12.9093 88.5753 14.0636L86.105 14.6451C86.0184 14.6653 85.954 14.7384 85.9452 14.8272L85.6382 17.858C85.6294 17.9467 85.6774 18.0313 85.7581 18.0687L88.0619 19.1338C88.2192 20.3439 88.5737 21.5003 89.0938 22.5662L87.7571 24.7254C87.7104 24.8011 87.7167 24.8982 87.7726 24.9672L89.6993 27.3273Z" fill="#C6EEEF"/>
<path d="M99.0967 20.753C97.604 20.753 96.2934 19.6568 96.0697 18.1372C95.8237 16.4666 96.9821 14.9074 98.6527 14.6615C99.4621 14.542 100.269 14.7451 100.925 15.2329C101.582 15.7207 102.009 16.4351 102.128 17.2441C102.374 18.9147 101.216 20.4738 99.5458 20.7198C99.3949 20.7425 99.2447 20.753 99.0967 20.753ZM99.1039 15.3431C98.9887 15.3431 98.8726 15.3515 98.7566 15.3687C97.4758 15.5575 96.5877 16.753 96.7761 18.0338C96.9649 19.3146 98.1599 20.2035 99.4411 20.0142C100.722 19.8254 101.61 18.63 101.422 17.3492C101.33 16.7286 101.003 16.1811 100.499 15.8069C100.09 15.5024 99.6042 15.3431 99.1039 15.3431Z" fill="#74A1BB"/>
<path d="M99.1594 25.1757C98.9029 25.1757 98.6451 25.1627 98.3865 25.1366C98.3054 25.1286 98.2238 25.1189 98.1426 25.108C97.7428 25.0546 97.3479 24.9692 96.964 24.8536C96.959 24.8519 96.9535 24.8507 96.9485 24.849C96.9337 24.8443 96.9186 24.8397 96.9039 24.8351C96.8749 24.8263 96.8463 24.817 96.8177 24.8078C96.742 24.7834 96.6941 24.7136 96.6941 24.6379C96.6941 24.6194 96.697 24.6009 96.7029 24.5828C96.7332 24.489 96.8341 24.4377 96.9278 24.468C97.4106 24.6244 97.9135 24.73 98.4227 24.7813C100.951 25.0378 103.31 23.9411 104.78 22.0809C105.597 21.0461 106.139 19.775 106.281 18.3689C106.306 18.1225 106.319 17.8761 106.319 17.6318C106.319 15.9864 105.757 14.4041 104.703 13.112C103.492 11.6277 101.775 10.7038 99.8687 10.5108C95.9326 10.1126 92.4089 12.9892 92.0107 16.9232C91.9863 17.1659 91.9741 17.4089 91.9741 17.6511C91.9741 18.7006 92.2041 19.7388 92.6507 20.6895C92.662 20.7139 92.6675 20.74 92.6675 20.7652C92.6675 20.8321 92.6296 20.8964 92.5649 20.9267C92.4753 20.9683 92.3694 20.9305 92.3273 20.8409C91.8585 19.8427 91.6171 18.7528 91.6167 17.6507C91.6167 17.3963 91.6293 17.1415 91.655 16.8867C92.0734 12.7558 95.7753 9.73631 99.9045 10.1547C101.906 10.3574 103.707 11.327 104.979 12.8853C106.086 14.2418 106.675 15.9027 106.676 17.6305C106.676 17.887 106.663 18.1456 106.636 18.4042C106.434 20.4053 105.464 22.2075 103.906 23.479C102.549 24.5866 100.887 25.1757 99.1594 25.1757Z" fill="#74A1BB"/>
<g opacity="0.3">
<path opacity="0.3" d="M66.5605 31.8723C66.4411 31.8723 66.3314 31.7946 66.2961 31.6743C66.23 31.4498 66.1699 31.2202 66.1178 30.9918C66.0837 30.8434 66.1762 30.6958 66.3246 30.6613C66.4731 30.6264 66.6211 30.7202 66.6551 30.8682C66.7052 31.0856 66.7624 31.3047 66.825 31.5191C66.8679 31.665 66.7842 31.8181 66.6383 31.8614C66.6123 31.869 66.5862 31.8723 66.5605 31.8723Z" fill="#C6EEEF"/>
<path opacity="0.3" d="M66.1523 29.7909C66.0127 29.7909 65.8928 29.685 65.8781 29.5433C65.8373 29.1421 65.8163 28.7347 65.8163 28.3318C65.8163 28.2469 65.8171 28.162 65.8188 28.0766C65.8222 27.9244 65.9563 27.8092 66.1005 27.8066C66.2527 27.81 66.3734 27.9357 66.3705 28.088C66.3688 28.1695 66.368 28.2507 66.368 28.3318C66.368 28.7162 66.3877 29.1051 66.4268 29.4873C66.4424 29.6391 66.3322 29.7741 66.1804 29.7897C66.1712 29.7901 66.1615 29.7909 66.1523 29.7909ZM66.2128 26.9283C66.1998 26.9283 66.1863 26.9274 66.1733 26.9257C66.0223 26.9039 65.918 26.7643 65.9395 26.6133C66.0089 26.1298 66.1089 25.6462 66.2372 25.1761C66.2771 25.0289 66.4294 24.9427 66.5757 24.9827C66.7229 25.0226 66.809 25.174 66.7691 25.3212C66.6472 25.7694 66.5517 26.2307 66.4853 26.6919C66.4655 26.8294 66.3478 26.9283 66.2128 26.9283ZM66.9659 24.1661C66.931 24.1661 66.8953 24.1594 66.8612 24.1455C66.7203 24.0875 66.6535 23.9264 66.7111 23.7856C66.8969 23.3344 67.1126 22.8899 67.3532 22.4648C67.428 22.3319 67.5958 22.2853 67.7291 22.3605C67.8615 22.4354 67.9082 22.6036 67.8334 22.736C67.6042 23.1414 67.3981 23.5652 67.2211 23.9954C67.177 24.1018 67.074 24.1661 66.9659 24.1661ZM68.3749 21.6735C68.3177 21.6735 68.2606 21.6558 68.2109 21.6192C68.0886 21.5284 68.0629 21.3556 68.1538 21.2332C68.4452 20.8405 68.763 20.4629 69.0994 20.1101C69.2045 19.9999 69.379 19.9961 69.4892 20.1008C69.5994 20.206 69.6036 20.3805 69.4985 20.4906C69.1781 20.8266 68.8745 21.1874 68.5969 21.5616C68.5423 21.6348 68.459 21.6735 68.3749 21.6735ZM70.3499 19.6005C70.2701 19.6005 70.191 19.566 70.1363 19.4995C70.0396 19.3818 70.0569 19.2082 70.1746 19.1114C70.5522 18.802 70.9521 18.5127 71.3642 18.252C71.4928 18.17 71.6631 18.2087 71.7447 18.3373C71.8263 18.466 71.788 18.6363 71.6593 18.7179C71.2666 18.9668 70.8848 19.2426 70.5245 19.5378C70.4732 19.5799 70.4113 19.6005 70.3499 19.6005ZM72.7677 18.0699C72.6643 18.0699 72.5655 18.0115 72.5184 17.9118C72.4532 17.7743 72.5125 17.6099 72.65 17.5447C73.0915 17.3362 73.5498 17.1532 74.0128 17.0014C74.1579 16.9544 74.3134 17.033 74.361 17.1776C74.4085 17.3223 74.3294 17.4783 74.1848 17.5254C73.7433 17.6704 73.3064 17.8445 72.8855 18.043C72.8472 18.0615 72.8073 18.0699 72.7677 18.0699ZM75.4858 17.1772C75.3567 17.1772 75.241 17.086 75.2154 16.9544C75.1859 16.8051 75.2835 16.66 75.4332 16.6306C75.9104 16.5372 76.4003 16.4725 76.8885 16.4384C77.0407 16.4304 77.1723 16.5427 77.1828 16.6945C77.1933 16.8463 77.079 16.9779 76.9272 16.9888C76.4613 17.0212 75.9945 17.083 75.5392 17.1717C75.5211 17.1755 75.5034 17.1772 75.4858 17.1772ZM79.7671 17.1423C79.7511 17.1423 79.7347 17.141 79.7188 17.1381C79.3231 17.0679 78.9165 17.0178 78.5103 16.9901C78.4489 16.9855 78.3884 16.9817 78.3278 16.9787C78.1756 16.9708 78.0587 16.8412 78.0667 16.689C78.0742 16.5364 78.2054 16.4153 78.3564 16.4279C78.4207 16.4313 78.4851 16.4351 78.5494 16.4401C78.9737 16.4695 79.4 16.5217 79.8151 16.5957C79.9652 16.6222 80.0648 16.7651 80.0383 16.9152C80.0144 17.0481 79.8983 17.1423 79.7671 17.1423Z" fill="#C6EEEF"/>
</g>
<g opacity="0.3">
<path opacity="0.3" d="M77.8884 40.2291C77.7379 40.2291 77.6147 40.108 77.613 39.957C77.6109 39.8048 77.7328 39.6795 77.8851 39.6778C78.3434 39.6719 78.8055 39.6379 79.2579 39.5769C79.408 39.558 79.5477 39.6622 79.5683 39.8132C79.5884 39.9642 79.4825 40.1029 79.3319 40.1235C78.8572 40.1874 78.3728 40.2232 77.8922 40.2295C77.8909 40.2291 77.8897 40.2291 77.8884 40.2291ZM76.4794 40.1622C76.4693 40.1622 76.4596 40.1618 76.4495 40.1605C75.9723 40.1092 75.4933 40.0285 75.0257 39.9204C74.8773 39.8859 74.7848 39.7379 74.8193 39.5899C74.8533 39.4411 75.0022 39.3494 75.1498 39.383C75.5959 39.4861 76.053 39.563 76.5084 39.6122C76.6598 39.6282 76.7695 39.7644 76.7531 39.9158C76.738 40.0575 76.6181 40.1622 76.4794 40.1622ZM80.6788 39.8519C80.5564 39.8519 80.445 39.7699 80.4122 39.6463C80.3735 39.4991 80.4614 39.3486 80.609 39.3095C81.0526 39.1926 81.4928 39.0479 81.9175 38.8793C82.0596 38.8234 82.2194 38.8923 82.2753 39.034C82.3317 39.1753 82.2623 39.3359 82.121 39.3923C81.6757 39.5693 81.2145 39.7207 80.7494 39.843C80.7254 39.8489 80.7019 39.8519 80.6788 39.8519ZM73.7348 39.5264C73.7033 39.5264 73.6718 39.521 73.6402 39.5096C73.1891 39.3452 72.7433 39.1509 72.3157 38.9327C72.1799 38.8633 72.1261 38.6972 72.1955 38.5618C72.2648 38.4269 72.4309 38.3726 72.5663 38.4416C72.9742 38.6497 73.3989 38.8347 73.829 38.9916C73.972 39.0437 74.046 39.2022 73.9935 39.3452C73.9531 39.4566 73.8475 39.5264 73.7348 39.5264ZM83.2946 38.8116C83.197 38.8116 83.1024 38.7595 83.0524 38.6682C82.9792 38.5345 83.0284 38.3667 83.1621 38.294C83.5637 38.0749 83.956 37.8285 84.3286 37.5619C84.4526 37.4732 84.6246 37.5018 84.7133 37.6258C84.802 37.7499 84.7734 37.9219 84.6494 38.0106C84.2588 38.2898 83.8475 38.548 83.4266 38.778C83.3846 38.8007 83.3392 38.8116 83.2946 38.8116ZM85.585 37.1742C85.5101 37.1742 85.4361 37.144 85.3815 37.0847C85.2785 36.9724 85.286 36.7979 85.3983 36.6949C85.7364 36.385 86.0589 36.052 86.3562 35.7051C86.4554 35.5894 86.6295 35.576 86.7451 35.6752C86.8607 35.7744 86.8742 35.9481 86.775 36.0637C86.463 36.4275 86.1253 36.7769 85.7708 37.1015C85.7183 37.1503 85.6514 37.1742 85.585 37.1742ZM87.417 35.0348C87.3645 35.0348 87.3115 35.0201 87.2644 34.9886C87.1374 34.9045 87.1034 34.7329 87.1875 34.6063C87.4418 34.225 87.6748 33.8242 87.88 33.4155C87.9485 33.2797 88.1142 33.2246 88.25 33.2932C88.3863 33.3617 88.4409 33.5269 88.3728 33.6636C88.1575 34.0917 87.9132 34.5121 87.6466 34.9124C87.5936 34.9919 87.5062 35.0348 87.417 35.0348Z" fill="#C6EEEF"/>
<path opacity="0.3" d="M71.2149 38.2389C71.1619 38.2389 71.1081 38.2234 71.0606 38.1914C70.865 38.0594 70.6729 37.9206 70.4883 37.7793C70.3676 37.6868 70.3445 37.5136 70.437 37.3925C70.5299 37.2722 70.7027 37.2491 70.8238 37.3412C70.9996 37.4758 71.1829 37.6082 71.3696 37.7344C71.4958 37.8197 71.5286 37.9913 71.4432 38.1174C71.3902 38.1965 71.3036 38.2389 71.2149 38.2389Z" fill="#C6EEEF"/>
</g>
<path d="M71.4441 34.6766C71.4819 34.7228 71.5446 34.7401 71.6005 34.7194L73.1954 34.1329C73.824 34.6173 74.5346 35.0045 75.3071 35.2699L75.696 36.9228C75.7095 36.9808 75.7587 37.0237 75.818 37.0296L77.846 37.2352C77.9052 37.2411 77.9616 37.2091 77.9868 37.1549L78.6995 35.6134C79.5094 35.5083 80.2831 35.2711 80.9962 34.923L82.441 35.8173C82.4915 35.8485 82.5567 35.8442 82.6029 35.8068L84.1823 34.518C84.2285 34.4802 84.2458 34.4175 84.2252 34.3616L83.6386 32.7667C84.123 32.1381 84.5102 31.4275 84.7756 30.655L86.4289 30.2661C86.4869 30.2526 86.5298 30.2034 86.5357 30.1441L86.7413 28.1161C86.7472 28.0569 86.7153 28.0005 86.661 27.9753L85.1195 27.2626C85.0144 26.4527 84.7772 25.679 84.4291 24.9659L85.3235 23.5211C85.355 23.4706 85.3504 23.4055 85.3129 23.3592L84.0242 21.7799C83.9863 21.7336 83.9237 21.7164 83.8677 21.737L82.2728 22.3235C81.6442 21.8391 80.9336 21.4519 80.1612 21.1866L79.7722 19.5332C79.7587 19.4752 79.7096 19.4323 79.6503 19.4264L77.6223 19.2208C77.563 19.2149 77.5066 19.2469 77.4814 19.3011L76.7687 20.8426C75.9588 20.9477 75.1851 21.1849 74.472 21.533L73.0272 20.6387C72.9767 20.6071 72.9116 20.6113 72.8653 20.6492L71.286 21.938C71.2397 21.9758 71.2225 22.0385 71.2431 22.0944L71.8297 23.6893C71.3453 24.3179 70.958 25.0285 70.6927 25.801L69.0393 26.1899C68.9813 26.2034 68.9384 26.2526 68.9325 26.3118L68.7269 28.3399C68.721 28.3991 68.753 28.4555 68.8072 28.4807L70.3487 29.1934C70.4538 30.0033 70.691 30.777 71.0391 31.4901L70.1448 32.9349C70.1132 32.9854 70.1179 33.0505 70.1553 33.0968L71.4441 34.6766Z" fill="#C6EEEF"/>
<path d="M77.7295 30.3144C77.2846 30.3144 76.8532 30.1727 76.4899 29.9023C76.0429 29.5701 75.752 29.0832 75.6708 28.5324C75.503 27.395 76.2923 26.3328 77.4301 26.165C78.5696 25.999 79.6301 26.7869 79.7978 27.9244C79.879 28.4756 79.7411 29.0256 79.4085 29.4726C79.0763 29.92 78.5898 30.2109 78.0381 30.2921C77.9351 30.3068 77.8321 30.3144 77.7295 30.3144ZM77.7349 26.694C77.6609 26.694 77.5857 26.6995 77.5104 26.7104C76.6736 26.834 76.093 27.6153 76.2166 28.4521C76.2763 28.8574 76.4903 29.2157 76.8191 29.4595C77.1484 29.7038 77.5525 29.8052 77.9582 29.7459C78.3636 29.6862 78.7218 29.4722 78.9661 29.1433C79.2104 28.8141 79.3122 28.41 79.2525 28.0042C79.1398 27.2432 78.483 26.694 77.7349 26.694Z" fill="#74A1BB"/>
<path d="M77.7694 33.3928C77.5949 33.3928 77.4191 33.384 77.2417 33.3663C76.8897 33.3306 76.5411 33.2595 76.2048 33.154C76.1896 33.149 76.1745 33.1443 76.1594 33.1393C76.0429 33.1014 75.9684 32.9938 75.9684 32.8773C75.9684 32.8491 75.9731 32.8201 75.9819 32.792C76.0286 32.6469 76.1846 32.5683 76.3292 32.6149C76.6425 32.7163 76.968 32.7844 77.2968 32.8176C77.3149 32.8193 77.3329 32.821 77.351 32.8227C78.1297 32.8941 78.8971 32.7684 79.5968 32.4669C79.9765 32.3034 80.3365 32.0872 80.6678 31.8219C80.6703 31.8198 80.6733 31.8177 80.6758 31.8156C80.6842 31.8089 80.6922 31.8026 80.7002 31.7958C81.661 31.0116 82.2589 29.9003 82.3838 28.6666C82.4002 28.5068 82.4082 28.3478 82.4082 28.1893C82.4082 27.1242 82.0445 26.0999 81.362 25.2632C80.5778 24.3024 79.4665 23.7044 78.2328 23.5795C76.9999 23.4551 75.7902 23.8175 74.8293 24.6013C73.8685 25.3855 73.2706 26.4969 73.1457 27.7306C73.1297 27.8874 73.1218 28.0447 73.1218 28.2015C73.1218 28.881 73.2706 29.553 73.5599 30.1686C73.5776 30.2064 73.586 30.2463 73.586 30.2859C73.586 30.3893 73.5275 30.4885 73.4274 30.5356C73.2895 30.6 73.1255 30.5411 73.0604 30.4032C72.737 29.7144 72.5701 28.9626 72.5701 28.2024C72.5701 28.0266 72.5789 27.8508 72.5966 27.6755C72.7366 26.295 73.4056 25.0517 74.4808 24.1745C75.5555 23.2974 76.9074 22.8904 78.2883 23.0312C79.6687 23.1708 80.9121 23.8398 81.7893 24.915C82.5529 25.8506 82.9595 26.9968 82.9599 28.1885C82.9599 28.3655 82.9511 28.5438 82.933 28.7221C82.6622 31.3943 80.4 33.3928 77.7694 33.3928Z" fill="#74A1BB"/>
<path d="M51.9558 113.209H8.24597V52.3786C8.24597 49.1833 10.8362 46.5931 14.0314 46.5931H51.2852C54.4804 46.5931 57.0706 49.1833 57.0706 52.3786V108.094C57.0706 110.919 54.7807 113.209 51.9558 113.209Z" fill="black"/>
<path d="M49.7571 113.209H0.932495V48.2932C0.932495 47.3543 1.69357 46.5936 2.6321 46.5936H48.0571C48.996 46.5936 49.7567 47.3547 49.7567 48.2932V113.209H49.7571Z" fill="#C6EEEF"/>
<path d="M101.509 88.2452C101.509 88.2452 95.2461 87.196 94.905 87.196H77.4709C76.307 87.196 75.355 88.148 75.355 89.3119V91.2251C75.355 92.3886 76.307 93.341 77.4709 93.341H94.905C95.0699 93.341 95.2297 93.32 95.3835 93.2838C97.425 92.9458 99.4669 91.268 101.509 88.2452Z" fill="#74A1BB"/>
<path d="M101.441 88.5029C125.204 32.036 81.1824 31.9872 86.6651 85.4241L101.441 88.5029Z" fill="#597B8E"/>
<path d="M99.8053 87.9621C123.568 30.4175 78.2723 31.9569 83.755 86.4139L99.8053 87.9621Z" fill="#74A1BB"/>
<path d="M88.2353 91.77H86.3839V111.79H88.2353V91.77Z" fill="#597B8E"/>
<path d="M95.4167 112.176H79.2024V111.091C79.2024 111.025 79.2562 110.971 79.3227 110.971H95.2876C95.3591 110.971 95.4172 111.029 95.4172 111.101V112.176H95.4167Z" fill="#597B8E"/>
<path d="M77.4937 109.039C77.4937 109.039 72.2073 112.849 73.1253 115.409C73.1253 115.409 78.909 112.914 79.6079 110.948C80.3067 108.982 79.4897 108.114 79.4897 108.114L77.4937 109.039Z" fill="black"/>
<path d="M78.2883 105.846L79.1529 108.345C79.2832 108.722 79.1529 109.151 78.8156 109.364C78.6466 109.471 78.4158 109.57 78.1004 109.641C77.6551 109.742 77.1955 109.537 76.9815 109.133L75.9475 107.187L78.2883 105.846Z" fill="url(#paint0_linear_77_2605)"/>
<path d="M86.7002 83.3535C86.7002 83.3535 75.8424 85.2352 71.1847 89.538C66.527 93.8408 75.4597 107.565 75.4597 107.565C75.4597 107.565 76.9235 107.557 78.6971 106.036C78.6971 106.036 73.4006 95.7137 77.965 92.7034C83.0966 89.3194 89.0107 88.557 89.0107 88.557L86.8053 83.6849L86.7002 83.3535Z" fill="black"/>
<path d="M74.0439 113.993C75.2066 113.455 78.4986 111.151 79.0532 111.05C79.6082 110.948 80.5703 111.6 80.5703 111.6C80.5703 111.6 80.8045 112.021 80.5539 112.756C79.781 113.69 78.0659 115.473 75.7595 116.137C74.0633 116.625 72.8767 116.17 72.1375 115.637C72.5445 115.018 73.2694 114.352 74.0439 113.993Z" fill="black"/>
<path d="M75.7599 116.137C78.0663 115.473 79.7814 113.69 80.5543 112.756C80.3848 113.252 79.995 113.891 79.1612 114.64C77.0937 116.499 73.1445 117.169 72.3035 117.04C71.6299 116.936 71.6934 116.314 72.1379 115.637C72.8766 116.17 74.0633 116.625 75.7599 116.137Z" fill="#74FCFD"/>
<path d="M81.5563 109.974C81.5433 110.294 80.8886 111.393 80.506 112.009C80.3243 112.302 80.0056 112.481 79.6608 112.481C79.4421 112.482 79.1907 112.463 78.9624 112.397C78.6197 112.299 78.4271 111.934 78.5276 111.592L79.2752 109.038L81.5563 109.974Z" fill="url(#paint1_linear_77_2605)"/>
<path d="M97.1516 80.0944C97.1516 80.0944 99.5631 86.5421 97.1516 88.5028C94.7402 90.4635 88.9879 92.6711 87.7025 96.5765C86.4175 100.482 84.2369 108.072 81.3183 110.76C81.3183 110.76 79.268 110.562 78.5006 109.745C78.5006 109.745 80.1628 98.4141 81.259 95.5064C82.2085 92.9885 83.607 89.3543 86.2876 87.3233C87.055 86.7418 86.9212 85.8209 86.5655 84.9262L85.9176 83.2972L97.1516 80.0944Z" fill="black"/>
<path d="M72.0025 75.0405C76.0459 75.2844 74.7857 68.8249 74.713 68.568L80.8495 72.9024C80.8495 72.9024 80.5245 76.3566 75.4228 78.1685C74.1319 78.6268 72.952 78.647 71.9092 78.4229C72.3541 77.1261 72.2636 75.9622 72.0025 75.0405Z" fill="#74FCFD"/>
<path d="M64.1848 73.0962C65.6914 72.0484 67.3982 73.0962 67.3982 73.0962C69.4127 74.4136 70.9029 74.9741 72.0025 75.0405C72.2632 75.9622 72.3536 77.1261 71.9091 78.4233C69.6524 77.9381 68.0377 76.3049 67.3359 75.4669C67.0832 75.165 66.6362 75.1128 66.3272 75.3567C66.0135 75.6044 65.7087 75.9437 65.7642 76.3007C65.8731 77.0046 65.0561 77.2287 64.9947 76.9735C64.9333 76.7182 65.2743 75.2045 65.2743 75.2045C65.2743 75.2045 63.6403 76.8477 63.0024 77.4789C62.3645 78.1105 61.5623 77.4789 61.5623 77.4789C61.5623 77.4789 62.6778 74.1445 64.1848 73.0962Z" fill="url(#paint2_linear_77_2605)"/>
<path d="M90.8554 58.5924C90.8554 58.5924 84.9732 56.2372 74.0263 65.2747C74.0263 65.2747 73.1118 67.1673 74.1096 68.8518C75.107 70.5363 84.6116 78.745 85.9176 83.2968C85.9176 83.2968 91.5799 85.1368 97.436 80.7738C97.436 80.7743 96.9192 68.1055 90.8554 58.5924Z" fill="#74FCFD"/>
<path d="M79.2272 56.4908L82.1227 60.0011C82.4103 60.3496 82.4734 60.8345 82.2745 61.2402C81.8725 62.0602 80.9189 63.2535 78.8038 63.0887C78.1748 63.0395 77.6176 62.6598 77.3426 62.0917L75.318 57.9062L79.2272 56.4908Z" fill="url(#paint3_linear_77_2605)"/>
<path d="M95.4096 73.6269C96.0925 70.8458 89.1759 64.6457 89.1759 64.6457L90.8557 58.5924C90.8557 58.5924 105.791 68.5348 101.985 76.5303C101.439 77.6766 100.715 78.4793 99.8747 79.0162C98.6713 75.7793 96.7547 74.2946 95.4096 73.6269Z" fill="#74FCFD"/>
<path d="M95.4143 73.2219C95.4879 73.2219 95.5543 73.1723 95.5728 73.0975C96.2713 70.2541 89.5746 64.2118 89.2895 63.9561C89.2227 63.896 89.1192 63.9015 89.0587 63.9688C88.9985 64.036 89.004 64.1395 89.0713 64.1996C89.1398 64.261 95.9075 70.3656 95.2558 73.0197C95.2343 73.1071 95.2877 73.1958 95.3756 73.2173C95.3882 73.2202 95.4013 73.2219 95.4143 73.2219Z" fill="black"/>
<path d="M84.9333 73.3872C84.9333 73.3872 93.134 76.5711 95.1355 74.176C95.2714 74.0137 95.3597 73.8287 95.4093 73.6264C96.7548 74.2946 98.6714 75.7789 99.874 79.0162C95.5611 81.7721 88.1887 77.4831 86.1956 76.2187C85.8676 76.0106 85.4745 75.9378 85.0939 76.0165C84.3253 76.1758 82.997 76.4105 82.2805 76.2999C81.2326 76.1384 79.7273 79.8349 78.0289 78.695C78.0294 78.695 79.4838 72.27 84.9333 73.3872Z" fill="url(#paint4_linear_77_2605)"/>
<path d="M72.9263 51.3345C72.8973 51.4472 73.605 59.121 73.605 59.121L77.978 58.6236L78.3876 51.2508C78.3876 51.2512 73.414 49.4452 72.9263 51.3345Z" fill="url(#paint5_linear_77_2605)"/>
<path d="M77.2489 52.7788L77.3372 56.6767C77.3385 56.7268 77.333 56.7755 77.3204 56.8239C77.2443 57.1203 76.9079 58.1211 75.9051 57.7141C74.9951 57.3449 74.1592 57.0215 73.5444 57.1384C73.2686 57.191 73.0777 57.4437 73.1033 57.7233C73.1677 58.4205 73.3422 59.9889 73.7017 61.3281C73.7744 61.5998 74.0452 61.768 74.3223 61.7192C75.1574 61.572 76.91 61.2125 78.2526 60.5931C78.4347 60.509 78.5566 60.3349 78.5701 60.1348C78.6357 59.1605 78.8459 56.1995 79.0318 55.3837C79.2067 54.618 80.2096 54.2577 80.6414 54.1366C80.7831 54.0966 80.9009 54.0016 80.9702 53.8717C81.2145 53.4125 81.6006 52.331 80.2508 51.7221C79.9682 51.5947 79.8484 51.2621 79.9846 50.9834C80.2554 50.4287 80.4392 49.5579 79.4098 48.9537C78.3632 48.3398 77.4768 48.8359 76.9807 49.2644C76.7801 49.4377 76.4887 49.4351 76.2818 49.2703C76.1636 49.1761 76.0034 49.132 75.7928 49.2333C75.5085 49.37 75.1692 49.2182 75.0628 48.9217C74.8585 48.352 74.385 47.7132 73.2871 47.7797C71.339 47.8974 70.8899 49.9923 71.2582 51.2895C71.6266 52.5862 73.7311 52.339 74.8294 51.826C75.6645 51.4362 76.6258 52.0463 77.0383 52.3613C77.1682 52.4605 77.2451 52.6144 77.2489 52.7788Z" fill="black"/>
<path d="M79.0495 56.8037C79.0495 56.8037 78.5049 54.5163 79.3716 54.0659C80.2382 53.6156 81.4038 54.0268 80.9652 55.5923C80.4203 57.5396 79.0495 56.8037 79.0495 56.8037Z" fill="url(#paint6_linear_77_2605)"/>
<path d="M80.7321 79.6659C80.7191 79.6668 80.7057 79.6668 80.6926 79.6668L63.4868 79.6478C63.0617 79.6474 62.7169 79.3022 62.7173 78.8771C62.7177 78.4515 63.0642 78.1 63.4885 78.1075L80.6943 78.1265C81.1198 78.1269 81.4642 78.4721 81.4638 78.8972C81.4629 79.3093 81.1392 79.6457 80.7321 79.6659Z" fill="black"/>
<path d="M48.0192 64.0441H62.3485C63.4056 64.0441 64.3677 64.6542 64.8185 65.61L71.4428 79.6567H53.6357C52.9545 79.6567 52.3422 79.2404 52.0921 78.6067L46.955 65.6087C46.6581 64.8577 47.2119 64.0441 48.0192 64.0441Z" fill="black"/>
<path d="M58.1142 71.2462C58.4245 72.2108 58.1954 73.1481 57.6021 73.339C57.0088 73.5299 56.2759 72.9029 55.9652 71.9379C55.6548 70.9733 55.884 70.036 56.4773 69.8451C57.071 69.6542 57.8039 70.2816 58.1142 71.2462Z" fill="black"/>
<path d="M50.3424 116.569C50.247 116.569 50.1503 116.55 50.0569 116.512C49.6902 116.359 49.5208 115.947 49.6785 115.592L64.8424 81.4647C65.0001 81.1098 65.4252 80.9458 65.7923 81.0985C66.1589 81.2511 66.3284 81.6632 66.1707 82.0181L51.0068 116.145C50.889 116.41 50.6225 116.569 50.3424 116.569Z" fill="#7FE4E4"/>
<path d="M67.425 116.569C67.145 116.569 66.878 116.41 66.7606 116.145L51.5967 82.0181C51.439 81.6628 51.6085 81.2511 51.9751 81.0985C52.3418 80.9458 52.7673 81.1098 52.925 81.4647L68.089 115.592C68.2466 115.947 68.0772 116.359 67.7105 116.512C67.6172 116.55 67.5205 116.569 67.425 116.569Z" fill="#74FCFD"/>
<path d="M97.2808 116.569C97.1853 116.569 97.0886 116.55 96.9953 116.512C96.6286 116.359 96.4591 115.947 96.6168 115.592L111.781 81.4647C111.938 81.1098 112.364 80.9458 112.731 81.0985C113.097 81.2511 113.267 81.6632 113.109 82.0181L97.9451 116.145C97.8278 116.41 97.5612 116.569 97.2808 116.569Z" fill="#74FCFD"/>
<path d="M114.363 116.569C114.083 116.569 113.816 116.41 113.699 116.145L98.535 82.0181C98.3774 81.6628 98.5468 81.2511 98.9135 81.0985C99.2801 80.9458 99.7057 81.1098 99.8634 81.4647L115.027 115.592C115.185 115.947 115.016 116.359 114.649 116.512C114.556 116.55 114.459 116.569 114.363 116.569Z" fill="#74FCFD"/>
<path d="M116.142 80.411C116.181 80.1873 116.128 79.9556 115.998 79.7798C115.869 79.6041 115.676 79.5023 115.472 79.5023H46.4878C46.22 79.5023 45.9706 79.655 45.8264 79.9077C45.6822 80.1604 45.6628 80.4779 45.7751 80.7499L46.5227 82.5614C46.6939 82.9764 47.0647 83.2417 47.473 83.2417H114.999C115.379 83.2417 115.705 82.9402 115.777 82.5231L116.142 80.411Z" fill="#74A1BB"/>
<path d="M26.3844 77.3268C26.3844 77.3268 33.6971 64.4949 31.4285 62.5838C29.16 60.6727 29.1196 66.2239 28.2013 65.4376C27.283 64.6513 28.7807 60.0159 28.3724 56.7949C27.9646 53.574 27.0786 49.2649 25.9345 53.595C24.7903 57.9252 24.9333 62.1944 24.4375 59.9885C23.9418 57.7827 22.2329 46.2841 20.0351 49.7152C17.8372 53.1464 17.3759 57.6132 19.5914 60.2156C21.807 62.818 24.7811 65.7244 21.1245 63.8057C17.468 61.8874 14.9758 62.7431 18.8867 66.2188C18.8867 66.2188 24.768 71.086 22.2149 70.8581C19.6617 70.6302 15.5964 73.3246 19.7857 75.2723C19.7866 75.2719 25.7381 76.1364 26.3844 77.3268Z" fill="black"/>
<path d="M23.346 89.0293C23.346 89.0293 9.09282 88.3532 9.72355 85.0528C10.3543 81.7524 15.0061 83.9625 17.0762 84.1719C19.1462 84.3813 17.9314 82.9663 13.7152 79.9981C9.49901 77.0299 7.18088 72.683 11.6456 74.7101C16.1099 76.7373 17.8944 80.5435 17.5921 77.8587C17.2898 75.1739 11.551 67.6157 16.4051 70.7105C21.2591 73.8052 20.927 76.6692 21.0733 78.9288C21.2196 81.1885 21.8663 74.5558 23.3839 75.5439C24.9014 76.5321 24.0398 77.5471 23.4965 80.1735C22.9533 82.7998 24.4742 80.6827 24.9771 79.8207C25.4795 78.9587 26.7149 81.0262 25.5048 83.8788C24.295 86.7314 23.346 89.0293 23.346 89.0293Z" fill="#7FE4E4"/>
<path d="M26.1852 104.055C26.1755 104.063 26.1692 104.073 26.1667 104.083C26.1654 104.084 26.165 104.103 26.1658 104.088L26.168 104.048L26.1759 103.886L26.1894 103.555L26.2117 102.886L26.2462 101.542L26.2928 98.8511C26.3155 97.0564 26.3235 95.2609 26.3181 93.4659C26.3076 89.8754 26.2428 86.2853 26.1057 82.6985C26.0347 80.9056 25.9438 79.1135 25.8311 77.3235C25.7126 75.5339 25.5679 73.7464 25.3854 71.9644C25.2013 70.1824 24.9691 68.4062 24.6605 66.6469C24.3447 64.8923 23.9633 63.1393 23.333 61.4973L23.3297 61.4884C23.2679 61.327 23.3482 61.1457 23.5096 61.0839C23.6694 61.0225 23.849 61.1016 23.9125 61.2601C24.5953 62.9698 25.0032 64.7442 25.3484 66.52C25.6857 68.2982 25.9438 70.0865 26.1541 71.8786C26.3626 73.6707 26.5321 75.4662 26.6759 77.2625C26.8138 79.0592 26.9295 80.8576 27.0253 82.6565C27.2116 86.2542 27.326 89.8544 27.3857 93.4554C27.416 95.2559 27.4324 97.0564 27.434 98.8578L27.4244 101.56L27.4084 102.913L27.3953 103.592L27.3861 103.934L27.3798 104.109L27.3781 104.153C27.3777 104.166 27.3739 104.213 27.371 104.242C27.3638 104.309 27.3529 104.375 27.3386 104.438C27.2326 104.757 26.8882 104.929 26.5699 104.823C26.2512 104.717 26.0788 104.373 26.1852 104.055Z" fill="black"/>
<path d="M26.1061 104.746C26.1007 104.762 26.0986 104.779 26.099 104.796C26.0986 104.801 26.1019 104.822 26.1007 104.812L26.0969 104.787L26.0822 104.685L26.0502 104.475L25.9829 104.051L25.8421 103.2L25.5473 101.496C25.3459 100.36 25.1361 99.2257 24.9187 98.0929C24.4843 95.8269 24.0193 93.5668 23.5143 91.3168C23.0063 89.0676 22.4601 86.8273 21.8277 84.6147C21.5111 83.5088 21.1688 82.4113 20.7849 81.3319C20.3976 80.2563 19.9738 79.1879 19.4213 78.2149L19.4166 78.2069C19.3313 78.0564 19.3838 77.8655 19.5344 77.7801C19.6828 77.696 19.8707 77.7465 19.9578 77.892C20.5696 78.9188 21.022 80.0007 21.4413 81.0893C21.8554 82.1801 22.225 83.2834 22.5686 84.3931C23.254 86.6132 23.8511 88.8549 24.4099 91.1049C24.9654 93.3553 25.4804 95.615 25.9653 97.8806C26.2079 99.0134 26.4425 100.148 26.6692 101.284L27.0022 102.991L27.1628 103.847L27.2406 104.278L27.2784 104.497L27.2969 104.609L27.3016 104.637L27.31 104.707C27.315 104.759 27.3167 104.812 27.3154 104.864C27.2826 105.198 26.9854 105.443 26.6515 105.41C26.3176 105.377 26.0733 105.08 26.1061 104.746Z" fill="#7FE4E4"/>
<path d="M29.1618 79.9175C29.1618 79.9175 43.6113 77.6149 42.233 74.5508C40.8546 71.4867 36.8415 74.7148 34.8762 75.3981C32.9112 76.0818 32.6291 75.7408 36.0426 71.8761C39.4561 68.0114 39.7748 64.0016 35.9017 67.0085C32.0286 70.015 33.3691 72.8037 33.0412 70.1218C32.7128 67.4399 37.8898 57.2007 33.8855 61.3362C29.8812 65.4716 29.3918 68.992 29.7731 71.2239C30.1545 73.4558 27.9882 67.154 26.741 68.4668C25.4939 69.7795 26.5669 70.5675 27.7044 72.9962C28.8418 75.425 26.8714 73.7182 26.1826 72.9962C25.4939 72.2743 24.7719 74.5718 26.6098 77.0661C28.4474 79.5609 29.1618 79.9175 29.1618 79.9175Z" fill="#7FE4E4"/>
<path d="M28.0727 104.439C28.0593 104.382 28.0487 104.323 28.042 104.264C28.0391 104.238 28.0357 104.195 28.0357 104.185L28.0345 104.152L28.0298 104.019L28.0235 103.762L28.0147 103.253L28.005 102.24L28.0021 100.217C28.0063 98.8696 28.0218 97.5223 28.0475 96.1755C28.0984 93.4815 28.19 90.7883 28.3359 88.0963C28.4856 85.4048 28.6866 82.7141 29.0066 80.0314C29.1668 78.6901 29.3632 77.3512 29.6193 76.0191C29.8812 74.6887 30.1894 73.3591 30.7066 72.072C30.771 71.9118 30.9535 71.8336 31.1137 71.8984C31.2722 71.9623 31.35 72.141 31.2894 72.2999L31.2861 72.3092C30.8214 73.5286 30.5393 74.8367 30.3072 76.1461C30.0801 77.4593 29.9098 78.7859 29.7753 80.1172C29.507 82.7805 29.3556 85.4586 29.2555 88.1388C29.1592 90.8194 29.1172 93.5029 29.1155 96.1865C29.1143 97.5282 29.1235 98.87 29.1437 100.211L29.1832 102.222L29.211 103.225L29.2286 103.724L29.2391 103.97L29.2454 104.09L29.2471 104.12C29.248 104.131 29.2467 104.108 29.2454 104.104C29.2425 104.087 29.2354 104.069 29.2253 104.054C29.3312 104.372 29.1592 104.717 28.8409 104.823C28.5231 104.93 28.1791 104.758 28.0727 104.439Z" fill="#74FCFD"/>
<path d="M21.1557 101.653H33.1201C33.9044 101.653 34.4846 102.383 34.308 103.147C33.5427 106.463 32.6252 109.828 30.7478 113.244C30.4009 113.875 29.7407 114.27 29.0208 114.27H25.1166C24.4077 114.27 23.7572 113.881 23.4212 113.256C21.9172 110.462 20.4703 107.13 19.7559 103.349C19.5902 102.469 20.26 101.653 21.1557 101.653Z" fill="#7FE4E4"/>
<path d="M5.83024 10.6261C5.83024 10.6261 1.1843 13.1999 0.79998 17.5557C0.415656 21.9115 0.768024 39.9907 10.0843 44.4407C19.4006 48.8906 31.7326 47.8651 36.4529 47.3786C41.1733 46.8921 43.7904 43.6842 44.3753 41.4754C44.9598 39.2666 45.9042 31.0385 40.9387 28.3844C35.9732 25.7303 30.7575 21.6642 25.546 17.705C20.334 13.7453 11.4029 7.28198 5.83024 10.6261Z" fill="#7FE4E4"/>
<path d="M39.4741 29.8861C39.4741 29.8861 38.2202 29.9525 38.0663 32.5322C38.0663 32.5322 40.9739 35.1388 44.9017 35.759C45.1964 35.8057 44.4896 33.7462 44.3832 33.4674C43.8774 32.1399 42.2846 31.2851 39.4741 29.8861Z" fill="black"/>
<path d="M25.352 26.8527H27.9982C27.9982 26.8527 36.1198 17.8829 41.4465 16.978C41.4465 16.978 45.1544 21.711 41.2489 30.5551C40.9348 31.2665 40.056 31.5827 39.4005 31.1639C39.2045 31.0386 39.0637 30.8709 38.9783 30.6606L39.2924 23.1095C39.2924 23.1095 32.3645 29.1687 31.1606 30.3381C29.9564 31.507 23.8354 30.7943 25.352 26.8527Z" fill="black"/>
<path d="M50.9344 45.6845C49.8256 44.7128 48.0587 43.6225 45.508 43.3101L44.6456 43.8378C44.6456 43.8378 45.1956 44.6489 46.2006 45.5063C47.124 46.0428 48.5503 46.769 49.7322 46.9267C50.8814 47.0793 51.0513 46.3851 50.9344 45.6845Z" fill="black"/>
<path d="M44.3832 33.4673C43.6999 33.6884 43.3997 34.6564 41.6661 34.016C39.9892 33.3966 38.7424 32.5981 38.1008 32.1377C38.0865 32.2626 38.0743 32.3929 38.0663 32.5317C38.0663 32.5317 41.132 35.4478 45.0598 36.0684C45.3546 36.1151 45.5883 35.8207 45.482 35.5415C45.2911 35.0412 44.9475 34.2822 44.3832 33.4673Z" fill="black"/>
<path d="M51.7695 46.5146C51.5509 46.266 51.2721 45.9805 50.934 45.6849C51.0509 46.385 50.8815 47.0797 49.7319 46.9266C48.5495 46.7694 47.1236 46.0428 46.2002 45.5062C47.3578 46.4935 49.1188 47.541 51.3415 47.4796C51.8355 47.4657 52.0958 46.885 51.7695 46.5146Z" fill="#C6EEEF"/>
<path d="M25.4488 28.7671L37.8405 28.9012C37.8405 28.9012 44.9169 34.7561 46.2006 43.6834C46.2006 43.6834 46.4138 44.3402 45.1347 44.4525C45.1347 44.4525 40.8563 41.6583 38.0668 36.7176C34.6461 30.6601 27.8696 33.387 27.8696 33.387C25.6431 31.7815 22.4966 31.4548 20.1263 30.92L25.4488 28.7671Z" fill="black"/>
<path d="M25.7415 18.7853C25.7415 18.7853 27.0752 25.4706 33.6117 28.1154L35.9365 27.8413L36.4853 28.7159L31.0316 28.8895C31.0316 28.8895 26.3697 27.0432 23.9002 22.0121C23.8182 21.846 22.4583 19.0376 25.7415 18.7853Z" fill="url(#paint7_linear_77_2605)"/>
<path d="M26.4563 28.6579C26.4563 28.6579 24.9392 24.5342 24.6133 20.5278C24.6133 20.5278 25.723 19.5741 26.4168 19.1625C26.6413 19.0292 26.7263 18.7475 26.6127 18.512C26.1027 17.4557 23.0188 13.3072 22.7876 13.2496C21.532 12.9363 16.3819 10.4874 12.7552 15.4487C11.1986 17.5781 13.0643 24.1322 20.1259 30.9201L21.5829 31.1989L26.4563 28.6579Z" fill="#74A1BB"/>
<path d="M20.6111 21.4314C20.6111 21.4314 24.8256 26.4217 30.2141 27.1513C30.2141 27.1513 31.6068 25.8818 32.642 26.3351C33.6777 26.7884 35.0972 28.789 35.0972 28.789H28.1786C28.1786 28.789 21.6367 28.5586 18.3678 24.5918C18.631 23.2033 19.4186 22.3741 20.6111 21.4314Z" fill="url(#paint8_linear_77_2605)"/>
<path d="M18.1526 9.74939L17.2304 12.8248C17.1884 12.9657 17.2405 13.1183 17.3616 13.2016C17.8057 13.5056 18.9658 14.1102 20.5577 13.5228C20.7398 13.4555 20.8647 13.2857 20.8802 13.0922L21.0989 10.4129L18.1526 9.74939Z" fill="url(#paint9_linear_77_2605)"/>
<path d="M23.5521 7.25886C23.5521 7.25886 23.0988 10.447 21.8739 11.4276C20.6491 12.4081 18.2632 11.6698 17.4572 9.26626L19.063 5.15686L23.5521 7.25886Z" fill="url(#paint10_linear_77_2605)"/>
<path d="M18.8821 7.81604C18.9755 7.84589 19.0726 7.78619 19.0873 7.68947C19.1315 7.39513 19.2421 6.81276 19.4654 6.41583C19.4654 6.41583 19.3485 5.99744 20.5225 6.62943C21.6965 7.26142 23.46 8.18943 24.4977 7.63691C25.5098 7.09785 26.535 4.38572 23.8603 4.8882C23.7585 4.90712 23.6647 4.82639 23.6727 4.72295C23.7055 4.27724 23.6614 3.25167 22.6228 2.92243C21.651 2.61422 22.1729 3.11375 21.9534 3.37866C21.889 3.45645 22.0349 3.11334 20.6541 3.31433C20.1802 3.38329 19.5722 2.12519 18.4087 2.63819C17.45 3.06077 17.3011 3.65114 17.3167 4.01906C17.3217 4.13848 17.2006 4.21921 17.0926 4.16917C16.7991 4.03378 16.3269 3.96356 15.8744 4.53037C15.2491 5.31373 16.1427 5.99324 16.411 6.17152C16.4547 6.20054 16.482 6.24889 16.4824 6.30187C16.485 6.70932 16.5485 8.48671 17.4395 9.48957C17.5164 9.57619 17.6594 9.55096 17.7039 9.44374L18.3898 7.80931C18.4217 7.73362 18.5062 7.69452 18.5844 7.71975L18.8821 7.81604Z" fill="black"/>
<path d="M18.8968 8.14786C18.8968 8.14786 18.478 6.44195 17.8418 6.99573C17.2056 7.54951 18.0075 8.76892 18.7366 9.00102L18.8968 8.14786Z" fill="url(#paint11_linear_77_2605)"/>
<path d="M34.7491 29.1758L37.8557 18.8159C37.9823 18.3933 38.3577 18.0935 38.798 18.0632L42.9919 17.7765C43.4183 17.7474 43.7353 18.1637 43.5936 18.567L40.1208 28.4606C40.009 28.7793 39.7226 29.0047 39.3867 29.0383L35.2567 29.4971L34.7491 29.1758Z" fill="#597B8E"/>
<path d="M40.4782 22.3274C40.2461 22.7954 39.8458 23.07 39.5838 22.94C39.3218 22.8101 39.297 22.3253 39.5291 21.8573C39.7613 21.3893 40.1616 21.1147 40.4235 21.2446C40.6855 21.3746 40.7103 21.8594 40.4782 22.3274Z" fill="#C6EEEF"/>
<path d="M35.257 29.4971C35.2503 29.4971 35.2435 29.4971 35.2368 29.4966L26.4365 29.0518C26.2191 29.0408 26.0513 28.8554 26.0623 28.638C26.0732 28.4202 26.2595 28.2495 26.476 28.2638L35.2763 28.7086C35.4937 28.7196 35.6615 28.905 35.6502 29.1224C35.6401 29.3335 35.4656 29.4971 35.257 29.4971Z" fill="#597B8E"/>
<path d="M24.6133 20.5975C24.575 20.5975 24.5431 20.566 24.5435 20.5273C24.5494 18.6889 23.84 16.248 23.8325 16.2236C23.8215 16.1866 23.8426 16.1479 23.88 16.137C23.9174 16.1265 23.9561 16.1471 23.9666 16.1845C23.9738 16.2093 24.689 18.6692 24.6827 20.5281C24.6831 20.5664 24.652 20.5975 24.6133 20.5975Z" fill="url(#paint12_linear_77_2605)"/>
<path d="M20.6111 21.5011C20.5905 21.5011 20.5699 21.4919 20.556 21.4747C20.5367 21.4503 18.6117 19.0035 17.9503 17.3266C17.936 17.2904 17.9536 17.25 17.9894 17.2362C18.0255 17.2219 18.0659 17.2395 18.0798 17.2753C18.7341 18.9332 20.646 21.3641 20.6658 21.388C20.6897 21.4183 20.6843 21.4625 20.654 21.486C20.6418 21.4961 20.6262 21.5011 20.6111 21.5011Z" fill="url(#paint13_linear_77_2605)"/>
<path d="M17.9028 25.2418L17.8511 25.2195C15.0666 24.0275 13.3464 20.7027 13.3296 20.6695C13.3119 20.635 13.3258 20.5929 13.3603 20.5757C13.3939 20.5585 13.436 20.5715 13.454 20.606C13.4709 20.6388 15.1469 23.8782 17.8544 25.069L18.1412 24.6636C18.1639 24.6317 18.2076 24.625 18.2387 24.6468C18.2703 24.6691 18.2779 24.7128 18.2556 24.7444L17.9028 25.2418Z" fill="url(#paint14_linear_77_2605)"/>
<defs>
<linearGradient id="paint0_linear_77_2605" x1="79.2023" y1="107.756" x2="75.9468" y2="107.756" gradientUnits="userSpaceOnUse">
<stop stop-color="#FEBBBA"/>
<stop offset="1" stop-color="#FF928E"/>
</linearGradient>
<linearGradient id="paint1_linear_77_2605" x1="81.5564" y1="110.76" x2="78.5011" y2="110.76" gradientUnits="userSpaceOnUse">
<stop stop-color="#FEBBBA"/>
<stop offset="1" stop-color="#FF928E"/>
</linearGradient>
<linearGradient id="paint2_linear_77_2605" x1="72.2204" y1="75.5269" x2="61.5622" y2="75.5269" gradientUnits="userSpaceOnUse">
<stop stop-color="#FEBBBA"/>
<stop offset="1" stop-color="#FF928E"/>
</linearGradient>
<linearGradient id="paint3_linear_77_2605" x1="82.3899" y1="59.7973" x2="75.3183" y2="59.7973" gradientUnits="userSpaceOnUse">
<stop stop-color="#FEBBBA"/>
<stop offset="1" stop-color="#FF928E"/>
</linearGradient>
<linearGradient id="paint4_linear_77_2605" x1="87.2123" y1="75.6552" x2="114.286" y2="122.702" gradientUnits="userSpaceOnUse">
<stop stop-color="#FEBBBA"/>
<stop offset="1" stop-color="#FF928E"/>
</linearGradient>
<linearGradient id="paint5_linear_77_2605" x1="74.5933" y1="51.8177" x2="80.2308" y2="65.3513" gradientUnits="userSpaceOnUse">
<stop stop-color="#FEBBBA"/>
<stop offset="1" stop-color="#FF928E"/>
</linearGradient>
<linearGradient id="paint6_linear_77_2605" x1="84.816" y1="64.0214" x2="79.7681" y2="55.2053" gradientUnits="userSpaceOnUse">
<stop stop-color="#FEBBBA"/>
<stop offset="1" stop-color="#FF928E"/>
</linearGradient>
<linearGradient id="paint7_linear_77_2605" x1="32.8794" y1="20.9314" x2="27.0418" y2="27.8734" gradientUnits="userSpaceOnUse">
<stop stop-color="#FEBBBA"/>
<stop offset="1" stop-color="#FF928E"/>
</linearGradient>
<linearGradient id="paint8_linear_77_2605" x1="26.0725" y1="27.2478" x2="37.7408" y2="11.2849" gradientUnits="userSpaceOnUse">
<stop stop-color="#FEBBBA"/>
<stop offset="1" stop-color="#FF928E"/>
</linearGradient>
<linearGradient id="paint9_linear_77_2605" x1="18.9347" y1="14.0193" x2="19.3645" y2="10.1511" gradientUnits="userSpaceOnUse">
<stop stop-color="#FEBBBA"/>
<stop offset="1" stop-color="#FF928E"/>
</linearGradient>
<linearGradient id="paint10_linear_77_2605" x1="21.2272" y1="10.6451" x2="19.3328" y2="4.39695" gradientUnits="userSpaceOnUse">
<stop stop-color="#FEBBBA"/>
<stop offset="1" stop-color="#FF928E"/>
</linearGradient>
<linearGradient id="paint11_linear_77_2605" x1="19.2649" y1="11.2401" x2="17.3705" y2="4.99195" gradientUnits="userSpaceOnUse">
<stop stop-color="#FEBBBA"/>
<stop offset="1" stop-color="#FF928E"/>
</linearGradient>
<linearGradient id="paint12_linear_77_2605" x1="23.83" y1="18.3658" x2="24.6832" y2="18.3658" gradientUnits="userSpaceOnUse">
<stop stop-color="#E1473D"/>
<stop offset="1" stop-color="#E9605A"/>
</linearGradient>
<linearGradient id="paint13_linear_77_2605" x1="17.9455" y1="19.3659" x2="20.681" y2="19.3659" gradientUnits="userSpaceOnUse">
<stop stop-color="#E1473D"/>
<stop offset="1" stop-color="#E9605A"/>
</linearGradient>
<linearGradient id="paint14_linear_77_2605" x1="13.3213" y1="22.9051" x2="18.2677" y2="22.9051" gradientUnits="userSpaceOnUse">
<stop stop-color="#E1473D"/>
<stop offset="1" stop-color="#E9605A"/>
</linearGradient>
</defs>
</svg>
