<svg width="137" height="134" viewBox="0 0 137 134" fill="none" xmlns="http://www.w3.org/2000/svg">
<path d="M100.124 100.124C118.556 81.6915 118.556 51.8068 100.124 33.3745C81.6915 14.9423 51.8069 14.9423 33.3746 33.3746C14.9423 51.8068 14.9423 81.6915 33.3746 100.124C51.8069 118.556 81.6915 118.556 100.124 100.124Z" fill="#597B8E"/>
<path d="M66.7504 107.032C88.9978 107.032 107.033 88.9967 107.033 66.7493C107.033 44.5019 88.9978 26.4668 66.7504 26.4668C44.503 26.4668 26.4679 44.5019 26.4679 66.7493C26.4679 88.9967 44.503 107.032 66.7504 107.032Z" fill="#B8D9DA"/>
<path d="M66.75 109.05C43.4256 109.05 24.45 90.0741 24.45 66.7493C24.45 43.4245 43.4261 24.4489 66.75 24.4489C90.0739 24.4489 109.05 43.4245 109.05 66.7493C109.05 90.0741 90.0744 109.05 66.75 109.05ZM66.75 26.4668C44.5381 26.4668 26.4675 44.5374 26.4675 66.7493C26.4675 88.9613 44.5381 107.032 66.75 107.032C88.9619 107.032 107.033 88.9613 107.033 66.7493C107.033 44.5374 88.9619 26.4668 66.75 26.4668Z" fill="white"/>
<path d="M66.7505 91.3073C80.3135 91.3073 91.3085 80.3123 91.3085 66.7492C91.3085 53.1862 80.3135 42.1912 66.7505 42.1912C53.1874 42.1912 42.1924 53.1862 42.1924 66.7492C42.1924 80.3123 53.1874 91.3073 66.7505 91.3073Z" fill="#B8D9DA"/>
<path d="M66.75 93.3253C52.0962 93.3253 40.174 81.4035 40.174 66.7493C40.174 52.0951 52.0958 40.1737 66.75 40.1737C81.4042 40.1737 93.326 52.0956 93.326 66.7493C93.326 81.403 81.4042 93.3253 66.75 93.3253ZM66.75 44.2087C54.3211 44.2087 44.2094 54.3204 44.2094 66.7493C44.2094 79.1782 54.3211 89.2903 66.75 89.2903C79.1788 89.2903 89.2905 79.1782 89.2905 66.7493C89.2905 54.3204 79.1793 44.2087 66.75 44.2087Z" fill="white"/>
<path d="M66.7505 76.264C72.0052 76.264 76.2651 72.0042 76.2651 66.7494C76.2651 61.4946 72.0052 57.2347 66.7505 57.2347C61.4957 57.2347 57.2358 61.4946 57.2358 66.7494C57.2358 72.0042 61.4957 76.264 66.7505 76.264Z" fill="#74FCFD"/>
<path d="M66.75 78.2819C60.3913 78.2819 55.2179 73.1085 55.2179 66.7498C55.2179 60.391 60.3913 55.2177 66.75 55.2177C73.1088 55.2177 78.2822 60.391 78.2822 66.7498C78.2822 73.1085 73.1092 78.2819 66.75 78.2819ZM66.75 59.2522C62.6162 59.2522 59.2529 62.6155 59.2529 66.7493C59.2529 70.8832 62.6162 74.2464 66.75 74.2464C70.8839 74.2464 74.2471 70.8832 74.2471 66.7493C74.2471 62.6155 70.8839 59.2522 66.75 59.2522Z" fill="white"/>
<path d="M111.786 21.8346L112.789 22.8368L74.8398 60.7859L73.8376 59.7837L111.786 21.8346Z" fill="black"/>
<path d="M74.5472 57.3656C75.1223 56.7905 77.8327 59.5013 77.2576 60.076L67.2048 67.9791C66.8335 68.2712 66.352 67.7897 66.6441 67.4184L74.5472 57.3656Z" fill="black"/>
<path d="M112.767 22.8588L117.872 23.3662L110.864 30.3748C108.567 32.6713 105.362 33.8162 102.131 33.4951L112.767 22.8588Z" fill="#74FCFD"/>
<path d="M111.765 21.8566L111.257 16.7513L104.249 23.7599C101.952 26.0564 100.807 29.2615 101.129 32.4929L111.765 21.8566Z" fill="#74FCFD"/>
<g opacity="0.3">
<path opacity="0.3" d="M41.703 14.7897C41.5602 14.9325 41.3291 14.932 41.1863 14.7897C40.9091 14.5125 40.616 14.2431 40.3151 13.9892C40.1626 13.8609 40.1415 13.6342 40.2667 13.48C40.2681 13.4782 40.2698 13.4765 40.2711 13.4743C40.4012 13.32 40.6314 13.3003 40.7856 13.4303C41.1028 13.6975 41.4112 13.9808 41.703 14.273C41.8365 14.4066 41.8449 14.6175 41.7285 14.7607C41.7206 14.7708 41.7122 14.7805 41.703 14.7897ZM38.7641 12.8543C38.4311 12.6439 38.0862 12.4457 37.7383 12.2656C37.5594 12.1729 37.4896 11.9523 37.5823 11.7731C37.6763 11.5938 37.8955 11.5244 38.0748 11.6171C38.4408 11.8069 38.8041 12.0156 39.1543 12.2366C39.3248 12.3442 39.3757 12.5701 39.2681 12.7405C39.2602 12.7528 39.2518 12.7647 39.2426 12.7757C39.1275 12.9176 38.9223 12.9541 38.7641 12.8543ZM35.976 11.5016C35.6056 11.3711 35.2252 11.2546 34.8451 11.1567C34.65 11.1061 34.5323 10.9067 34.5828 10.7116C34.6333 10.5165 34.8324 10.3992 35.0279 10.4493C35.4286 10.553 35.8293 10.6751 36.219 10.8127C36.4092 10.8799 36.5089 11.0886 36.4422 11.2784C36.4277 11.3188 36.407 11.3553 36.3815 11.3869C36.2866 11.5038 36.1254 11.5543 35.976 11.5016ZM32.955 10.8061C32.5644 10.7613 32.1673 10.7331 31.7749 10.7222C31.5733 10.7164 31.4142 10.5486 31.4199 10.3469C31.4256 10.1453 31.5939 9.98668 31.7951 9.99195C32.2086 10.0034 32.6264 10.0332 33.0376 10.0798C33.238 10.1027 33.3821 10.2837 33.3592 10.484C33.3509 10.5556 33.3228 10.6202 33.2801 10.6725C33.2041 10.767 33.0837 10.821 32.955 10.8061ZM29.8545 10.8012C29.4648 10.8443 29.0711 10.9049 28.6849 10.9809C28.4868 11.02 28.2948 10.8913 28.2561 10.6932C28.217 10.495 28.3458 10.303 28.5439 10.2643C28.9503 10.1839 29.3642 10.1207 29.7745 10.075C29.9749 10.0526 30.1555 10.1971 30.1779 10.3979C30.1893 10.499 30.1581 10.5947 30.0988 10.6681C30.0399 10.7406 29.9542 10.7903 29.8545 10.8012ZM26.8304 11.4827C26.4592 11.611 26.0892 11.7573 25.7299 11.9168C25.5453 11.9985 25.3296 11.9154 25.2479 11.7313C25.1662 11.5468 25.2488 11.3311 25.4333 11.2494C25.8111 11.0815 26.2008 10.9278 26.5914 10.7925C26.7821 10.7265 26.9899 10.8276 27.0558 11.0183C27.0989 11.1422 27.0712 11.2731 26.9943 11.368C26.953 11.419 26.8972 11.4594 26.8304 11.4827ZM17.5153 21.3387C17.3202 21.2877 17.2029 21.0882 17.2539 20.8932C17.358 20.4934 17.481 20.0927 17.6198 19.7021C17.6875 19.5118 17.8962 19.4126 18.086 19.4802C18.2758 19.5474 18.3755 19.7566 18.3079 19.9464C18.1765 20.3172 18.0596 20.6977 17.9608 21.0773C17.9472 21.1295 17.923 21.1757 17.8914 21.2152C17.8035 21.3229 17.6581 21.376 17.5153 21.3387ZM24.0344 12.8165C23.7014 13.0244 23.3732 13.2489 23.059 13.4844C22.8978 13.6052 22.6684 13.5727 22.5476 13.4114C22.4264 13.2502 22.4602 13.0217 22.6206 12.9C22.9514 12.6522 23.2967 12.4154 23.6478 12.1966C23.8191 12.0899 24.0441 12.1421 24.1508 12.3135C24.2356 12.4493 24.2202 12.6188 24.1245 12.7366C24.1003 12.7673 24.0695 12.7941 24.0344 12.8165ZM18.5825 18.3401C18.4036 18.2469 18.3342 18.0264 18.4274 17.8476C18.6185 17.4812 18.8276 17.1183 19.0495 16.769C19.1567 16.5981 19.3834 16.5484 19.5534 16.6561C19.7239 16.7641 19.774 16.99 19.6663 17.16C19.4555 17.4921 19.2564 17.837 19.075 18.185C19.0636 18.2074 19.0499 18.2276 19.0346 18.2465C18.9278 18.3788 18.7389 18.4218 18.5825 18.3401ZM21.607 14.7414C21.3289 15.0181 21.0591 15.3108 20.8051 15.6108C20.6751 15.765 20.4444 15.7839 20.2907 15.6539C20.1386 15.5252 20.118 15.2993 20.2428 15.1451C20.2445 15.1429 20.2459 15.1412 20.2476 15.139C20.5147 14.8231 20.799 14.5151 21.0916 14.2234C21.2348 14.081 21.4659 14.0814 21.6083 14.2247C21.7414 14.3582 21.7493 14.5687 21.6333 14.7119C21.625 14.722 21.6162 14.7317 21.607 14.7414Z" fill="#C6EEEF"/>
<path opacity="0.3" d="M17.4718 23.745C17.517 23.6892 17.5464 23.6193 17.5522 23.542C17.5658 23.3544 17.5842 23.1637 17.6053 22.9752C17.6282 22.7749 17.4845 22.5939 17.2842 22.5706C17.0838 22.5473 16.9024 22.6914 16.8795 22.8918C16.8567 23.0899 16.8378 23.2902 16.8233 23.488C16.8083 23.6892 16.9595 23.864 17.1607 23.879C17.285 23.8886 17.3993 23.835 17.4718 23.745Z" fill="#C6EEEF"/>
</g>
<g opacity="0.3">
<path opacity="0.3" d="M21.0538 34.2877C21.1649 34.1506 21.1632 33.9498 21.0419 33.814C20.9163 33.6739 20.7915 33.5285 20.6711 33.3826C20.5428 33.2271 20.3126 33.2047 20.1571 33.333C20.0006 33.4617 19.9791 33.6915 20.1074 33.847C20.2344 34.0008 20.3657 34.1537 20.498 34.3013C20.6324 34.4515 20.8635 34.4643 21.0138 34.3294C21.0287 34.3167 21.0419 34.3022 21.0538 34.2877Z" fill="#C6EEEF"/>
<path opacity="0.3" d="M42.2275 34.3198C42.093 34.4701 41.8619 34.4828 41.7117 34.3484C41.5614 34.2139 41.5487 33.9833 41.6831 33.8326C41.9393 33.5466 42.1871 33.2452 42.423 32.9332C42.5434 32.7729 42.7736 32.7408 42.9348 32.8625C43.0956 32.9842 43.1273 33.2131 43.0056 33.3739C42.9032 33.5088 42.7995 33.6419 42.6936 33.7724C42.5429 33.9587 42.3861 34.1428 42.2275 34.3198ZM43.5987 31.8485C43.423 31.7496 43.3606 31.5269 43.4594 31.3511C43.6492 31.0137 43.8267 30.6644 43.9866 30.3129C44.0697 30.1293 44.2872 30.0484 44.4704 30.1324C44.6536 30.2158 44.7349 30.4329 44.651 30.6161C44.4822 30.986 44.2955 31.3538 44.0956 31.7088C44.0851 31.7272 44.0736 31.7443 44.0605 31.7602C43.9511 31.8959 43.7564 31.9368 43.5987 31.8485ZM40.8013 35.7082C40.4916 35.9709 40.166 36.224 39.8343 36.4604C39.67 36.5772 39.442 36.539 39.3251 36.3747C39.2082 36.2104 39.2465 35.9828 39.4108 35.8655C39.7262 35.641 40.0351 35.4006 40.329 35.1511C40.4828 35.0206 40.7135 35.0395 40.844 35.1933C40.9595 35.3295 40.9578 35.5254 40.8492 35.659C40.8352 35.6766 40.8194 35.6928 40.8013 35.7082ZM44.897 28.9979C44.7037 28.9404 44.5938 28.7365 44.6518 28.5436C44.7625 28.1733 44.8588 27.7937 44.9379 27.4154C44.9792 27.2177 45.1725 27.0911 45.3702 27.1324C45.5674 27.1737 45.694 27.3671 45.6531 27.5643C45.5701 27.9624 45.4686 28.3622 45.3522 28.7523C45.3381 28.7994 45.3153 28.8415 45.2863 28.8776C45.1949 28.9896 45.0429 29.0414 44.897 28.9979ZM38.1389 37.4999C37.779 37.6879 37.406 37.8632 37.0304 38.0209C36.8445 38.0992 36.6306 38.0117 36.5524 37.8259C36.4742 37.64 36.5616 37.4256 36.7479 37.3479C37.1046 37.198 37.4592 37.0315 37.801 36.8527C37.9798 36.7591 38.2004 36.8285 38.294 37.0074C38.3634 37.1405 38.3427 37.2969 38.254 37.4067C38.2228 37.4441 38.1846 37.4761 38.1389 37.4999ZM35.1477 38.6642C34.7545 38.7692 34.3521 38.8592 33.9523 38.9308C33.7537 38.9664 33.5639 38.8346 33.5283 38.636C33.4927 38.437 33.6245 38.2477 33.8231 38.2121C34.2031 38.1435 34.5854 38.0583 34.9593 37.9586C35.1543 37.9063 35.3542 38.0223 35.4065 38.2169C35.4377 38.3342 35.4083 38.4537 35.3371 38.5416C35.2901 38.5996 35.2251 38.6435 35.1477 38.6642ZM31.9743 39.1492C31.5675 39.1663 31.1549 39.1663 30.7489 39.1492C30.5473 39.1409 30.3909 38.9704 30.3992 38.7692C30.4076 38.5675 30.578 38.4111 30.7793 38.4194C31.165 38.4357 31.5565 38.4357 31.9435 38.4194C32.1452 38.4111 32.3152 38.5675 32.3236 38.7692C32.3275 38.8619 32.2968 38.9475 32.2423 39.0143C32.179 39.093 32.0833 39.1448 31.9743 39.1492ZM28.7701 38.9304C28.3694 38.8579 27.967 38.7678 27.5742 38.662C27.3795 38.6097 27.264 38.4089 27.3167 38.2143C27.369 38.0196 27.5698 37.9045 27.7644 37.9568C28.1374 38.0574 28.5192 38.1431 28.9001 38.2116C29.0987 38.2477 29.2305 38.4375 29.1945 38.636C29.1831 38.6989 29.1567 38.7547 29.1189 38.8008C29.0377 38.901 28.9059 38.955 28.7701 38.9304ZM25.6911 38.0126C25.3168 37.854 24.9446 37.6774 24.5844 37.4876C24.406 37.3935 24.3375 37.1726 24.4315 36.9942C24.5255 36.8162 24.7465 36.7473 24.9249 36.8413C25.2671 37.0219 25.6208 37.1897 25.9758 37.3404C26.1617 37.419 26.2482 37.6334 26.1696 37.8193C26.1559 37.8518 26.1379 37.8808 26.1168 37.9072C26.0171 38.0297 25.8444 38.0776 25.6911 38.0126ZM22.8915 36.4423C22.6477 36.2684 22.4065 36.0847 22.1745 35.8962C22.0906 35.8281 22.0076 35.7592 21.9254 35.6897C21.7716 35.5592 21.7479 35.3281 21.8828 35.1753C22.0133 35.0215 22.2435 35.0021 22.3977 35.1326C22.4759 35.199 22.555 35.2644 22.6345 35.329C22.8551 35.5078 23.0844 35.6827 23.316 35.8479C23.4803 35.9652 23.5181 36.1932 23.4008 36.3571C23.3964 36.3633 23.392 36.3694 23.3871 36.3751C23.2663 36.5245 23.0493 36.5553 22.8915 36.4423Z" fill="#C6EEEF"/>
<path opacity="0.3" d="M45.8452 25.788C45.8909 25.7317 45.9203 25.661 45.9256 25.5832C45.9392 25.386 45.9489 25.1847 45.9541 24.9848C45.9599 24.7832 45.8008 24.6153 45.5992 24.6096C45.3975 24.6044 45.2297 24.763 45.2239 24.9646C45.2187 25.1544 45.2094 25.3455 45.1967 25.5327C45.1826 25.7339 45.3347 25.9083 45.5359 25.922C45.6598 25.9308 45.7731 25.8772 45.8452 25.788Z" fill="#C6EEEF"/>
</g>
<path d="M41.7373 21.0632C41.7223 20.992 41.6639 20.9379 41.5919 20.9287L39.5313 20.6655C39.1223 19.786 38.57 18.9648 37.882 18.2416L38.392 16.229C38.4101 16.1582 38.3811 16.0844 38.32 16.0444L36.2361 14.678C36.1751 14.6381 36.0955 14.6411 36.038 14.686L34.3957 15.9561C33.4581 15.6134 32.4849 15.4346 31.5148 15.41L30.4521 13.6249C30.4147 13.5625 30.3418 13.5305 30.2706 13.545L27.8309 14.0524C27.7597 14.0673 27.7057 14.1258 27.6964 14.1978L27.4333 16.2584C26.5537 16.6674 25.7325 17.2197 25.0093 17.9077L22.9967 17.3976C22.9259 17.3796 22.8521 17.4086 22.8121 17.4697L21.4457 19.5535C21.4058 19.6146 21.4088 19.6941 21.4537 19.7517L22.7238 21.394C22.3811 22.3316 22.2023 23.3047 22.1777 24.2748L20.3926 25.3376C20.3302 25.375 20.2982 25.4479 20.3127 25.5191L20.8201 27.9588C20.835 28.03 20.8935 28.084 20.9655 28.0932L23.0265 28.3564C23.4356 29.236 23.9878 30.0571 24.6759 30.7803L24.1658 32.793C24.1478 32.8637 24.1768 32.938 24.2378 32.9775L26.3217 34.3439C26.3828 34.3839 26.4623 34.3808 26.5198 34.336L28.1621 33.0658C29.0997 33.4085 30.0729 33.5873 31.043 33.6119L32.1058 35.397C32.1431 35.4594 32.2161 35.4915 32.2872 35.477L34.727 34.9695C34.7981 34.9546 34.8522 34.8962 34.8614 34.8241L35.1246 32.7636C36.0042 32.3545 36.8253 31.8023 37.5485 31.1142L39.5612 31.6243C39.6319 31.6423 39.7057 31.6133 39.7457 31.5523L41.1121 29.4684C41.1521 29.4073 41.149 29.3278 41.1042 29.2703L39.834 27.628C40.1767 26.6899 40.3555 25.7172 40.3801 24.7471L42.1652 23.6843C42.2276 23.647 42.2597 23.5741 42.2452 23.5029L41.7373 21.0632Z" fill="#C6EEEF"/>
<path d="M32.9739 26.3556C31.9568 27.2901 30.3694 27.2233 29.4349 26.2062C28.9819 25.7137 28.7482 25.074 28.7768 24.4057C28.8049 23.7375 29.0918 23.1198 29.5847 22.6672C30.6018 21.7327 32.1892 21.7995 33.1237 22.8166C33.9739 23.7419 33.995 25.1395 33.2261 26.0876C33.1496 26.1816 33.0657 26.2712 32.9739 26.3556ZM29.3602 24.4299C29.3387 24.9426 29.5179 25.4325 29.865 25.8104C30.5816 26.5898 31.7991 26.6416 32.5785 25.925C33.3588 25.2084 33.4097 23.991 32.6931 23.2116C31.9766 22.4322 30.7591 22.3803 29.9797 23.0969C29.909 23.1619 29.8439 23.2313 29.7846 23.3043C29.5267 23.6228 29.3778 24.0134 29.3602 24.4299Z" fill="#74A1BB"/>
<path d="M36.0037 28.4056C36.136 28.2426 36.2603 28.0721 36.3772 27.8946C36.4141 27.8388 36.4497 27.7822 36.4844 27.725C36.6562 27.4434 36.8056 27.1486 36.9299 26.845C36.9317 26.8411 36.9334 26.8367 36.9352 26.8327C36.94 26.8209 36.9448 26.809 36.9492 26.7976C36.9585 26.7747 36.9673 26.7514 36.9765 26.7286C36.9998 26.668 36.98 26.6016 36.9325 26.5625C36.9211 26.5533 36.9075 26.5454 36.893 26.5397C36.8179 26.5107 36.7335 26.5485 36.7041 26.6236C36.5547 27.0111 36.3627 27.3846 36.1329 27.7347C34.9932 29.4737 33.0812 30.4077 31.1423 30.3827C30.0637 30.3691 28.9772 30.0585 28.0101 29.4245C27.8406 29.3133 27.678 29.1942 27.5225 29.0686C26.4768 28.2206 25.7607 27.0489 25.483 25.7133C25.164 24.179 25.4615 22.6123 26.3204 21.3017C28.0954 18.5953 31.7381 17.8383 34.4436 19.612C34.6106 19.7214 34.7709 19.8387 34.9251 19.9634C35.5921 20.5043 36.1334 21.1853 36.5072 21.959C36.5169 21.9788 36.5305 21.9959 36.5468 22.0086C36.5894 22.0433 36.6496 22.0521 36.7023 22.0266C36.7748 21.9915 36.8056 21.9045 36.7704 21.8316C36.3776 21.0192 35.8096 20.3044 35.1092 19.7367C34.9475 19.6058 34.7793 19.4823 34.604 19.3677C31.7635 17.5053 27.9377 18.3022 26.0761 21.1413C25.1741 22.517 24.8617 24.1619 25.197 25.7726C25.4887 27.175 26.2404 28.4052 27.3379 29.2953C27.5009 29.4275 27.6718 29.5523 27.8498 29.6692C29.2258 30.5712 30.8703 30.8836 32.481 30.5483C33.883 30.2557 35.1136 29.5035 36.0037 28.4056Z" fill="#74A1BB"/>
<g opacity="0.3">
<path opacity="0.3" d="M57.0531 11.1417C57.1146 11.0657 57.1216 10.9559 57.0632 10.8715C56.9547 10.7138 56.8396 10.5574 56.7214 10.4067C56.6445 10.3087 56.503 10.2911 56.4046 10.368C56.3062 10.4444 56.289 10.5864 56.3659 10.6848C56.4784 10.8284 56.5883 10.9778 56.6919 11.1281C56.7627 11.2304 56.9033 11.2564 57.0056 11.1856C57.0245 11.1729 57.0399 11.158 57.0531 11.1417Z" fill="#C6EEEF"/>
<path opacity="0.3" d="M55.9253 9.8272C55.8374 9.91551 55.6946 9.91595 55.6063 9.82808C55.3836 9.6062 55.1463 9.39356 54.9025 9.19541C54.8511 9.15367 54.7988 9.11237 54.7461 9.07151C54.6476 8.99506 54.6301 8.85359 54.7065 8.75518C54.7825 8.66511 54.9244 8.63919 55.0233 8.71564C55.0786 8.75869 55.1331 8.80175 55.1867 8.84525C55.4429 9.05262 55.6911 9.27581 55.9248 9.50867C56.0074 9.59083 56.0132 9.72175 55.9411 9.8105C55.9363 9.81577 55.931 9.82149 55.9253 9.8272ZM53.8001 8.42522C53.4728 8.22971 53.1306 8.05265 52.7826 7.89932C52.6684 7.84879 52.617 7.71611 52.667 7.60188C52.7171 7.48852 52.8502 7.43624 52.9645 7.48633C53.3291 7.64713 53.6881 7.83254 54.0312 8.03772C54.138 8.10142 54.1731 8.24026 54.1094 8.34702C54.1037 8.35624 54.0976 8.36547 54.0905 8.37338C54.0216 8.45949 53.8977 8.48322 53.8001 8.42522ZM51.7079 7.50346C51.3433 7.3945 50.9681 7.30707 50.5924 7.2438C50.4698 7.22315 50.3868 7.10673 50.4074 6.98415C50.4281 6.86113 50.5441 6.77853 50.6671 6.79918C51.0612 6.86552 51.4549 6.95735 51.8371 7.07158C51.9566 7.10717 52.0243 7.23326 51.9887 7.35232C51.9799 7.38132 51.9658 7.40724 51.9478 7.42965C51.892 7.49819 51.798 7.53026 51.7079 7.50346ZM49.4527 7.12386C49.0718 7.1076 48.6865 7.11463 48.3078 7.14495C48.1834 7.15506 48.0749 7.06235 48.0648 6.93802C48.0547 6.81412 48.1474 6.70516 48.2713 6.69505C48.6689 6.66298 49.0727 6.65551 49.4721 6.67265C49.5964 6.67792 49.6931 6.78336 49.6878 6.9077C49.6856 6.95779 49.6671 7.00348 49.6377 7.03994C49.5946 7.09398 49.527 7.12694 49.4527 7.12386ZM47.1738 7.30619C46.8004 7.38264 46.4287 7.48325 46.0684 7.60495C45.9506 7.64493 45.8223 7.58123 45.7828 7.46304C45.7428 7.34486 45.8061 7.217 45.9247 7.17746C46.3026 7.05005 46.6923 6.94504 47.0833 6.8642C47.2054 6.83916 47.3245 6.91781 47.3495 7.03951C47.3636 7.10848 47.3447 7.17658 47.3038 7.22711C47.2718 7.26665 47.227 7.29521 47.1738 7.30619ZM45.0078 8.0364C44.6647 8.20115 44.329 8.3892 44.0096 8.59525C43.905 8.66291 43.7653 8.6326 43.6976 8.52803C43.6304 8.42347 43.6603 8.28419 43.7649 8.21609C44.0996 8.00037 44.4524 7.8031 44.8123 7.63C44.9247 7.57596 45.0592 7.62341 45.1132 7.73544C45.1523 7.81672 45.1383 7.90986 45.0851 7.97533C45.0649 8.00037 45.039 8.02146 45.0078 8.0364ZM43.0869 9.27361C42.7956 9.51702 42.5162 9.78194 42.2557 10.0609C42.1704 10.1519 42.0281 10.1567 41.9367 10.0719C41.8458 9.98712 41.8418 9.84565 41.9257 9.75295C42.199 9.46034 42.4921 9.18267 42.7974 8.9274C42.8932 8.84744 43.0355 8.86018 43.1151 8.95596C43.1853 9.03988 43.184 9.16026 43.1173 9.24242C43.1085 9.2534 43.0984 9.26395 43.0869 9.27361ZM40.6055 11.9998C40.4965 11.9396 40.457 11.8025 40.5172 11.6931C40.6841 11.3913 40.8704 11.0934 41.0703 10.8087C41.1006 10.7652 41.1309 10.7226 41.1621 10.68C41.232 10.5776 41.3765 10.557 41.4771 10.6303C41.5778 10.7037 41.6002 10.8447 41.5268 10.9454C41.4978 10.9853 41.4688 11.0258 41.4402 11.0671C41.2487 11.3395 41.0707 11.6237 40.9117 11.9115C40.9051 11.9233 40.8976 11.9343 40.8893 11.9444C40.8221 12.0284 40.7026 12.0534 40.6055 11.9998Z" fill="#C6EEEF"/>
</g>
<g opacity="0.3">
<path opacity="0.3" d="M56.5254 22.6471C56.2741 22.9493 56.0017 23.2384 55.7165 23.5073C55.626 23.5925 55.4832 23.5886 55.3976 23.4976C55.3119 23.4067 55.3176 23.2643 55.4072 23.1787C55.6792 22.9225 55.9388 22.6466 56.1787 22.3584C56.2583 22.2626 56.4006 22.2499 56.4964 22.3294C56.5913 22.4085 56.6049 22.5491 56.5276 22.6449C56.5267 22.6457 56.5258 22.6466 56.5254 22.6471ZM56.9133 21.7622C56.8088 21.6945 56.7789 21.5548 56.8466 21.4503C57.05 21.1357 57.2367 20.8053 57.401 20.4687C57.4555 20.3576 57.5908 20.3101 57.7028 20.3651C57.8149 20.4195 57.861 20.5544 57.8065 20.6665C57.6343 21.0193 57.4388 21.365 57.2253 21.695C57.2209 21.702 57.216 21.7086 57.2108 21.7147C57.1392 21.8035 57.0109 21.8255 56.9133 21.7622ZM54.808 24.2634C54.4907 24.4959 54.1564 24.7111 53.815 24.9027C53.7065 24.9638 53.5685 24.9251 53.5079 24.8161C53.4468 24.7076 53.4855 24.5705 53.594 24.509C53.92 24.3263 54.2386 24.1211 54.5417 23.8992C54.6423 23.8254 54.7833 23.8474 54.8567 23.9475C54.9187 24.0319 54.913 24.1453 54.8501 24.223C54.8383 24.2384 54.8242 24.2516 54.808 24.2634ZM57.9717 19.7148C57.854 19.6744 57.7912 19.5461 57.832 19.4279C57.9537 19.0738 58.0552 18.7083 58.133 18.3423C58.1589 18.2206 58.2788 18.1428 58.4005 18.1683C58.5222 18.1942 58.6004 18.3142 58.5745 18.4359C58.4932 18.8198 58.3869 19.2034 58.2591 19.5747C58.2503 19.6001 58.2371 19.6234 58.2208 19.6432C58.1624 19.7152 58.064 19.7464 57.9717 19.7148ZM52.7522 25.4163C52.3893 25.5652 52.0132 25.6935 51.6345 25.7981C51.5146 25.8311 51.3902 25.7603 51.3573 25.6404C51.3243 25.5204 51.3946 25.3961 51.515 25.3631C51.8762 25.2638 52.2347 25.1413 52.5809 24.9994C52.696 24.9519 52.8278 25.0073 52.8752 25.1224C52.9078 25.2015 52.8919 25.288 52.8419 25.3504C52.8186 25.3781 52.7882 25.4014 52.7522 25.4163ZM50.479 26.0424C50.0902 26.1004 49.6943 26.1351 49.3024 26.1456C49.1781 26.1491 49.0744 26.0512 49.0709 25.9264C49.0674 25.8021 49.1653 25.6979 49.2901 25.6949C49.6636 25.6848 50.0414 25.6514 50.4127 25.596C50.5357 25.5775 50.6508 25.6628 50.6688 25.7858C50.6785 25.8508 50.6591 25.9137 50.6209 25.9611C50.5867 26.0037 50.537 26.034 50.479 26.0424ZM48.1214 26.1065C47.7295 26.0696 47.3368 26.0081 46.9536 25.9242C46.8319 25.8974 46.7551 25.7775 46.7814 25.6553C46.8082 25.5336 46.9286 25.4567 47.0499 25.4831C47.415 25.563 47.7897 25.6215 48.1632 25.6566C48.2871 25.6685 48.3785 25.7783 48.3666 25.9022C48.3622 25.9484 48.3446 25.9897 48.3174 26.0231C48.2721 26.0802 48.1997 26.1136 48.1214 26.1065Z" fill="#C6EEEF"/>
<path opacity="0.3" d="M58.7007 17.3792C58.7279 17.3454 58.746 17.3032 58.7499 17.2566C58.7666 17.0642 58.7776 16.8704 58.7829 16.6811C58.7864 16.5567 58.688 16.4526 58.5636 16.4495C58.4393 16.4465 58.3356 16.5444 58.3321 16.6688C58.3272 16.8498 58.3167 17.0343 58.3009 17.218C58.2903 17.3423 58.3822 17.4513 58.5061 17.4622C58.5834 17.4688 58.655 17.4354 58.7007 17.3792Z" fill="#C6EEEF"/>
</g>
<path d="M55.9797 14.0573C55.9696 14.0094 55.9305 13.9734 55.8822 13.9672L54.5031 13.791C54.2293 13.2023 53.8598 12.6531 53.3994 12.169L53.7408 10.8223C53.7526 10.7749 53.7333 10.7257 53.6929 10.6989L52.2984 9.78459C52.2575 9.75779 52.2044 9.75998 52.1657 9.78986L51.0669 10.64C50.4395 10.4107 49.7884 10.2907 49.1394 10.2745L48.4281 9.0803C48.4031 9.03857 48.3543 9.01704 48.3069 9.0267L46.6742 9.36632C46.6263 9.37643 46.5903 9.41553 46.5842 9.46386L46.408 10.843C45.8192 11.1167 45.2701 11.4862 44.7859 11.9466L43.4393 11.6053C43.3918 11.5934 43.3426 11.6127 43.3158 11.6532L42.4015 13.0477C42.3747 13.0885 42.3769 13.1417 42.4068 13.1803L43.2569 14.2792C43.0276 14.9066 42.9077 15.5577 42.8918 16.2066L41.6972 16.9179C41.6555 16.943 41.634 16.9917 41.6441 17.0392L41.9837 18.6718C41.9938 18.7197 42.0329 18.7557 42.0812 18.7619L43.4604 18.9381C43.7341 19.5268 44.1036 20.076 44.564 20.5602L44.2226 21.9068C44.2108 21.9538 44.2301 22.0034 44.2705 22.0302L45.665 22.9445C45.7059 22.9713 45.7591 22.9691 45.7977 22.9392L46.8965 22.0891C47.5239 22.3184 48.1751 22.4384 48.824 22.4542L49.5353 23.6484C49.5603 23.6901 49.6091 23.7116 49.6566 23.702L51.2892 23.3623C51.3371 23.3522 51.3731 23.3131 51.3793 23.2648L51.5554 21.8857C52.1442 21.612 52.6934 21.2425 53.1775 20.782L54.5241 21.1234C54.5712 21.1353 54.6208 21.1159 54.6476 21.0755L55.5619 19.681C55.5887 19.6401 55.5865 19.587 55.5566 19.5483L54.7065 18.4495C54.9358 17.8221 55.0553 17.171 55.0716 16.5221L56.2662 15.8107C56.3079 15.7857 56.3294 15.7369 56.3193 15.6895L55.9797 14.0573Z" fill="#C6EEEF"/>
<path d="M50.1359 17.6205C49.8002 17.9289 49.3648 18.0884 48.9092 18.0691C48.454 18.0497 48.0331 17.8547 47.7251 17.519C47.0885 16.8266 47.1342 15.7467 47.8271 15.1083C48.5199 14.4717 49.6012 14.5178 50.2378 15.2102C50.5462 15.5459 50.7057 15.9813 50.6864 16.4364C50.6706 16.8064 50.5388 17.1539 50.3094 17.4364C50.2567 17.5014 50.1987 17.5629 50.1359 17.6205ZM48.0573 17.2136C48.284 17.4606 48.5937 17.6042 48.9285 17.6183C49.2633 17.6324 49.5836 17.515 49.8305 17.2883C50.077 17.0612 50.2211 16.7519 50.2352 16.4171C50.2492 16.0823 50.1319 15.762 49.9052 15.5151C49.4369 15.0055 48.6416 14.9721 48.132 15.44C48.0858 15.4822 48.0441 15.527 48.0059 15.5744C47.6206 16.0498 47.6311 16.7501 48.0573 17.2136Z" fill="#74A1BB"/>
<path d="M52.2448 19.0474C52.3349 18.9367 52.4196 18.8203 52.4996 18.6986C52.6582 18.4565 52.7927 18.1986 52.899 17.9302C52.9038 17.9179 52.9082 17.906 52.913 17.8937C52.9491 17.8001 52.9187 17.6973 52.8449 17.6376C52.8269 17.6231 52.8063 17.6108 52.7839 17.6024C52.6674 17.5576 52.5374 17.616 52.4926 17.7316C52.3959 17.9829 52.2711 18.225 52.1231 18.4508C52.1152 18.4631 52.1068 18.4754 52.0985 18.4877C51.7426 19.0193 51.2677 19.4424 50.7154 19.7315C50.4158 19.8884 50.0928 20.0061 49.7537 20.0799C49.751 20.0804 49.7479 20.0812 49.7453 20.0817C49.737 20.0834 49.7286 20.0852 49.7198 20.0869C48.7265 20.2934 47.7124 20.101 46.864 19.5448C46.7542 19.4727 46.6488 19.3958 46.5481 19.3146C45.8715 18.7658 45.4076 18.007 45.2279 17.1424C45.0214 16.149 45.2143 15.135 45.7701 14.2866C46.3263 13.4391 47.1795 12.8574 48.1729 12.6505C49.1662 12.444 50.1803 12.6364 51.0287 13.1926C51.1367 13.2634 51.2404 13.3394 51.3402 13.4202C51.772 13.7704 52.1222 14.211 52.3643 14.7119C52.3792 14.7427 52.4003 14.7686 52.4254 14.7888C52.4913 14.8419 52.5844 14.856 52.6657 14.8169C52.7777 14.7624 52.8247 14.628 52.7707 14.5155C52.4996 13.9549 52.1077 13.4619 51.6249 13.07C51.5133 12.9795 51.3973 12.8947 51.2765 12.8152C50.327 12.1926 49.1926 11.9774 48.081 12.2085C46.9699 12.4396 46.0148 13.0885 45.3931 14.0388C44.7705 14.9878 44.5552 16.1227 44.7863 17.2338C44.9876 18.2012 45.506 19.0501 46.2634 19.6643C46.3759 19.7552 46.4937 19.8418 46.6162 19.9222C48.4541 21.1269 50.8898 20.7187 52.2448 19.0474Z" fill="#74A1BB"/>
<path d="M29.5319 125.594C29.5319 125.594 29.2779 126.956 29.147 128.305C29.0956 128.832 29.4985 129.294 30.0275 129.322C31.8253 129.413 35.6705 129.596 37.0514 129.547C37.2592 129.54 37.3967 129.329 37.3216 129.135C37.2588 128.973 37.1358 128.841 36.9785 128.767L30.6522 125.786L29.5319 125.594Z" fill="black"/>
<path d="M29.3422 124.79L29.5201 126.424C29.5201 126.424 30.6281 126.953 31.3939 126.376L30.9502 124.553L29.3422 124.79Z" fill="url(#paint0_linear_77_2706)"/>
<path d="M29.7806 94.1136C29.6928 94.5389 29.1291 115.374 31.2674 124.734C31.3021 124.887 31.2235 125.043 31.078 125.101C30.7349 125.237 30.0631 125.433 29.2604 125.453C29.0118 125.459 28.7903 125.295 28.7227 125.055C28.1067 122.883 25.1591 111.998 24.8599 101.624C24.5255 90.032 24.8638 101.229 24.8638 101.229L25.1929 94.0692L29.7806 94.1136Z" fill="black"/>
<path d="M22.2158 126.235C22.2158 126.235 21.8257 126.92 21.4368 128.747C21.3665 129.077 21.5946 129.396 21.9298 129.432C22.5229 129.496 23.4363 129.58 24.1687 129.582C24.5062 129.582 24.7724 129.291 24.7351 128.956C24.6604 128.287 24.4183 127.188 23.6455 126.327L22.2158 126.235Z" fill="black"/>
<path d="M21.899 124.134L22.3279 126.606C22.3279 126.606 22.772 126.943 23.6591 126.71L23.4684 124.053L21.899 124.134Z" fill="url(#paint1_linear_77_2706)"/>
<path d="M20.958 94.6689C19.0314 105.646 21.0937 121.847 21.8112 125.021C21.8551 125.215 22.0102 125.366 22.2062 125.4C22.5392 125.458 23.0884 125.509 23.6319 125.356C23.819 125.304 23.9517 125.137 23.9614 124.942C24.0861 122.383 24.0554 106.664 25.8124 100.469C25.9016 100.155 26.0962 99.8823 26.3642 99.6955L29.6813 97.3845L29.97 93.6008L20.958 94.6689Z" fill="black"/>
<path d="M32.7651 73.9468C27.3061 73.8044 21.2677 75.2706 21.2677 75.2706C19.5498 84.7509 20.7879 95.7163 20.7879 95.7163C25.0039 96.8652 29.7889 95.1245 29.7889 95.1245C30.5292 91.162 33.9136 80.023 33.9136 80.023C36.5844 79.7173 38.7891 78.9686 40.6084 77.9686C39.2434 76.3553 38.612 74.3132 38.3409 73.1072C36.4051 73.6889 34.4487 73.9907 32.7651 73.9468Z" fill="#C6EEEF"/>
<path d="M48.9689 66.0587C48.4386 65.4058 47.7571 65.7059 47.7571 65.7059C46.9215 69.092 42.6826 71.8037 38.3418 73.1073C38.6129 74.3133 39.2442 76.3559 40.6093 77.9687C47.8301 73.9992 48.9689 66.0587 48.9689 66.0587Z" fill="url(#paint2_linear_77_2706)"/>
<path d="M48.8371 66.2221C48.8916 66.4009 48.2392 66.6667 47.8635 65.933C47.8534 65.5833 47.6552 64.0829 47.8666 63.8C48.994 62.2934 51.1696 60.4121 51.1696 60.4121C51.5308 60.7755 51.2272 61.1261 51.2272 61.1261L50.1701 62.2064C50.3854 62.604 50.649 62.9406 50.7698 63.4203C50.8612 63.7837 50.7993 64.1703 50.6134 64.4985C50.4267 64.8276 50.1719 65.2555 49.9315 65.5903C49.4768 66.2234 48.8371 66.2221 48.8371 66.2221Z" fill="url(#paint3_linear_77_2706)"/>
<path d="M49.7058 62.9098L48.744 63.7094L48.4369 64.5117L49.2783 65.4633C49.2783 65.4633 49.5797 63.8685 49.7954 63.5249C50.0111 63.1809 49.9026 63.0126 49.7058 62.9098Z" fill="url(#paint4_linear_77_2706)"/>
<path d="M23.3115 80.577L21.2681 75.2705C21.2681 75.2705 16.1355 78.6869 15.2546 83.0721C16.2177 83.152 17.9685 83.4196 19.6763 84.3027C20.0735 82.2316 23.3115 80.577 23.3115 80.577Z" fill="#C6EEEF"/>
<path d="M27.7205 85.594C27.7205 85.594 21.964 88.7754 20.0586 85.9938C19.6632 85.4161 19.5726 84.8454 19.6763 84.3028C17.9686 83.4197 16.2173 83.1525 15.2547 83.0721C14.9893 84.3942 15.1093 85.804 15.8742 87.235C19.1992 93.4576 28.4647 87.0132 28.4647 87.0132L27.7205 85.594Z" fill="url(#paint5_linear_77_2706)"/>
<path d="M27.2771 69.4614L25.4921 74.4688C25.4626 74.5518 25.496 74.6441 25.5725 74.6876C26.0434 74.9538 27.7424 75.7271 29.8109 74.4428C30.0262 74.3093 30.1742 74.0892 30.2094 73.8378L30.8135 69.4953L27.2771 69.4614Z" fill="url(#paint6_linear_77_2706)"/>
<path d="M31.1017 64.8456C31.1017 64.8456 32.9752 68.4544 32.7168 69.903C32.4585 71.3511 30.0952 71.2245 28.0421 70.0269L26.6366 66.136L31.1017 64.8456Z" fill="url(#paint7_linear_77_2706)"/>
<path d="M28.151 68.1232C28.2354 68.0867 28.267 67.9843 28.2178 67.907C28.0671 67.672 27.785 67.1931 27.6976 66.7752C27.6976 66.7752 27.3567 66.5525 28.5754 66.2731C29.7938 65.9936 31.6114 65.5591 32.0024 64.5279C32.3837 63.5227 31.4317 60.9758 29.8548 62.9827C29.7951 63.0592 29.6786 63.0596 29.6202 62.9823C29.368 62.6475 28.7033 61.9516 27.7675 62.3606C26.8918 62.7437 26.7873 63.3817 26.796 63.7041C26.7987 63.799 26.7135 63.872 26.6203 63.8531C26.1801 63.7648 25.123 63.6826 24.6186 64.763C24.2034 65.6531 24.4631 66.1619 24.7012 66.4114C24.7785 66.4923 24.743 66.6241 24.6358 66.6557C24.3449 66.7418 23.9688 66.9839 23.9996 67.6632C24.0426 68.6021 25.0927 68.5296 25.3919 68.4896C25.4411 68.483 25.4903 68.5001 25.5228 68.5375C25.7763 68.8235 26.9191 70.0383 28.1668 70.1952C28.2749 70.2088 28.3597 70.1029 28.3254 69.9997L27.8 68.4228C27.7754 68.3494 27.8114 68.2699 27.8821 68.2392L28.151 68.1232Z" fill="black"/>
<path d="M28.3663 68.3481C28.3663 68.3481 27.017 67.4035 26.9103 68.1873C26.8035 68.9711 28.1225 69.3357 28.7802 69.0493L28.3663 68.3481Z" fill="url(#paint8_linear_77_2706)"/>
<path d="M26.5438 90.6215L29.6795 79.6707C29.7151 79.5463 29.821 79.4558 29.9497 79.4409C30.5178 79.3745 32.164 79.1887 34.0651 79.0279C36.3546 78.8341 39.0136 78.6773 40.6023 78.8108C40.8281 78.8297 40.9647 79.0687 40.8641 79.2717C39.9608 81.0994 36.2443 88.535 34.3832 90.9708C34.3217 91.0516 34.2264 91.0986 34.1244 91.0977L26.8487 91.0301C26.6374 91.0283 26.4858 90.8249 26.5438 90.6215Z" fill="black"/>
<path d="M27.3017 87.9757C27.3017 87.9757 26.865 86.1796 27.0411 85.5421C27.2173 84.9051 27.5587 84.0857 28.6966 84.2676C29.8346 84.4495 31.1768 84.9288 31.1768 84.9288C31.1768 84.9288 31.1091 85.7587 30.244 85.4911L30.7805 85.9063C30.7805 85.9063 30.7036 86.5711 29.9734 86.2161L30.4721 86.7666C30.4721 86.7666 30.1584 87.3122 29.621 86.9625C29.0833 86.6119 28.8258 88.1918 27.3017 87.9757Z" fill="url(#paint9_linear_77_2706)"/>
<path d="M33.856 82.2967C33.856 82.805 34.2681 83.2171 34.7764 83.2171C35.2847 83.2171 35.6968 82.805 35.6968 82.2967C35.6968 81.7883 35.2847 81.3762 34.7764 81.3762C34.2681 81.3762 33.856 81.7883 33.856 82.2967Z" fill="#C6EEEF"/>
<path d="M30.0345 82.9035L30.6729 80.7379C30.7511 80.4721 30.965 80.2722 31.2309 80.2168C33.2321 79.7994 38.7091 79.7107 38.764 79.7098L38.7605 79.4651C38.5347 79.4686 33.2049 79.5552 31.1808 79.9774C30.8266 80.0512 30.5419 80.3161 30.4378 80.6689L29.7994 82.8345L30.0345 82.9035Z" fill="#74A1BB"/>
<path d="M111.533 66.6175C111.62 66.4514 111.866 66.4774 111.916 66.6584C112.102 67.3275 112.552 68.4957 113.496 68.9105C113.544 68.9316 113.589 68.9527 113.633 68.9738C113.676 68.8455 113.676 68.6961 113.573 68.5392C113.28 68.0907 113.81 67.4778 113.81 67.4778C113.81 67.4778 113.845 68.0177 114.255 68.3574C114.608 68.65 114.778 69.3015 114.537 69.8358C114.026 71.8212 113.26 74.4472 116.242 76.3654C119.223 78.2836 123.422 72.7452 123.422 72.7452L121.338 79.3517C121.338 79.3517 118.122 81.7255 114.38 78.3878C110.639 75.05 113.119 70.193 113.119 70.193C113.119 70.193 110.265 69.0419 111.533 66.6175Z" fill="url(#paint10_linear_77_2706)"/>
<path d="M123.945 63.0386C123.945 63.0386 123.081 59.164 127.519 60.1899C127.519 60.1899 129.674 59.8379 129.783 61.8713C129.783 61.8713 131.172 62.7864 130.155 64.546C130.155 64.546 134.282 62.9521 136.081 66.5693C137.879 70.1869 136.226 72.1772 134.493 72.6956C134.493 72.6956 135.897 73.4003 135.233 74.9921C134.569 76.5839 131.203 77.7055 129.215 75.7702C129.215 75.7702 123.558 76.5175 123.672 72.522C123.672 72.522 121.041 70.8231 123.804 67.5213C126.567 64.2192 123.945 63.0386 123.945 63.0386Z" fill="black"/>
<path d="M123.701 72.0195C124.593 71.7519 127.189 71.2585 129.659 73.5379C130.078 73.9245 130.249 74.5119 130.1 75.062C129.437 77.5044 127.686 84.7207 129.221 87.8428C129.221 87.8428 126.516 90.8242 123.565 88.4214C123.565 88.4214 122.242 82.6514 120.508 80.1185C119.31 78.3699 122.417 73.5515 123.203 72.3877C123.322 72.211 123.497 72.081 123.701 72.0195Z" fill="#C6EEEF"/>
<path d="M126.163 67.1672C126.163 67.1672 127.482 70.8982 127.582 72.5441C127.582 72.5441 126.124 73.2071 124.75 72.088C124.75 72.088 124.606 68.3614 124.398 67.694L126.163 67.1672Z" fill="url(#paint11_linear_77_2706)"/>
<path d="M124.331 62.0804C124.331 62.0804 120.881 66.9084 122.944 68.3109C125.006 69.7133 127.462 66.2824 127.462 66.2824C127.462 66.2824 128.263 63.6397 127.426 62.7434C126.588 61.8462 124.331 62.0804 124.331 62.0804Z" fill="url(#paint12_linear_77_2706)"/>
<path d="M125.928 60.9261C125.928 60.9261 124.343 61.3018 124.121 62.0188C123.898 62.7358 126.369 63.401 127.061 63.4335L127.618 66.3271C127.618 66.3271 129.267 63.6049 128.614 62.0329C127.961 60.4609 125.928 60.9261 125.928 60.9261Z" fill="black"/>
<path d="M126.793 65.9265C126.793 65.9265 128.136 64.3711 128.67 65.3852C129.204 66.3992 127.461 67.1602 126.858 66.6624L126.793 65.9265Z" fill="url(#paint13_linear_77_2706)"/>
<path d="M120.121 100.536C120.131 100.798 119.671 102.876 119.421 103.984C119.321 104.43 119.391 104.897 119.618 105.293L128.286 119.882C128.391 120.059 128.467 120.25 128.513 120.45C128.672 121.135 129.002 122.813 128.83 124.339L128.381 125.27L130.32 124.83L130.742 119.622L130.193 119.287C129.719 118.998 129.349 118.566 129.138 118.052C128.354 116.148 126.408 111.302 125.906 108.94C125.336 106.256 122.355 104.075 122.355 104.075L122.879 102.837L120.121 100.536Z" fill="url(#paint14_linear_77_2706)"/>
<path d="M132.476 123.038C132.476 123.038 131.428 121.378 131.305 120.731C131.182 120.085 130.839 118.944 130.193 119.287C130.193 119.287 129.889 122.427 129.994 123.654C130.099 124.88 128.607 124.841 128.607 124.841C128.607 124.841 128.196 124.899 127.895 125.2C127.687 125.407 127.836 125.768 128.129 125.787C128.617 125.819 129.393 125.827 130.207 125.669C130.492 125.614 130.703 125.372 130.72 125.083L130.935 121.47L132.256 123.138L132.476 123.038Z" fill="black"/>
<path d="M125.3 102.86C125.3 102.86 125.605 115.909 125.647 117.763C125.688 119.617 125.354 123.724 123.496 124.951L124.304 125.55C124.304 125.55 125.315 124.691 126.302 123.038C127.411 121.182 127.746 120.843 127.746 120.843L127.378 120.089C127.216 119.759 127.169 119.386 127.243 119.026C127.644 117.083 128.983 110.619 129.349 109.227C129.78 107.584 129.811 105.39 128.31 103.553C126.81 101.717 125.3 102.86 125.3 102.86Z" fill="url(#paint15_linear_77_2706)"/>
<path d="M127.015 126.138C127.073 126.139 127.122 126.098 127.13 126.04C127.192 125.606 127.449 123.861 127.66 123.41C127.901 122.892 128.689 120.715 127.659 120.531C127.659 120.531 125.099 124.271 124.608 124.776C124.116 125.28 123.496 124.952 123.496 124.952C123.496 124.952 123.017 125.093 122.656 125.555C122.484 125.774 122.644 126.097 122.923 126.099L124.648 126.116C125.148 126.12 125.599 125.816 125.785 125.351C126.089 124.593 126.61 123.481 127.218 122.987L126.902 126.011C126.895 126.079 126.948 126.138 127.015 126.138Z" fill="black"/>
<path d="M123.158 87.0145C123.158 87.0145 123.546 88.253 122.949 90.2934L119.246 103.226C119.188 103.43 119.297 103.642 119.497 103.713C120.604 104.111 124.246 105.235 129.217 104.892C129.468 104.875 129.677 104.698 129.732 104.453C130.059 102.978 131.177 97.9483 131.407 96.9145C132.284 92.9761 133.263 88.7289 128.956 86.1604C126.971 87.0101 125.119 87.5114 123.158 87.0145Z" fill="black"/>
<path d="M130.013 74.0255C130.013 74.0255 134.227 77.5272 135.272 82.3126C136.318 87.0976 129.115 87.6064 129.115 87.6064C129.115 87.6064 128.137 86.5146 126.976 86.9039C125.815 87.2931 126.886 84.9979 128.245 85.0041C129.603 85.0102 128.973 86.084 130.895 85.2137C132.767 84.3657 133.924 81.7436 129.148 77.7688C128.871 77.5386 128.651 77.2447 128.517 76.9099C127.59 74.5743 128.325 73.0436 130.013 74.0255Z" fill="url(#paint16_linear_77_2706)"/>
<path d="M103.645 109.777H102.142V126.032H103.645V109.777Z" fill="black"/>
<path d="M109.476 126.345H96.3114V125.475C96.3114 125.415 96.3602 125.366 96.4199 125.366H109.367C109.427 125.366 109.475 125.415 109.475 125.475V126.345H109.476Z" fill="black"/>
<path d="M111.965 109.178C111.965 110.123 111.192 110.896 110.247 110.896H96.0926C95.148 110.896 94.3748 110.123 94.3748 109.178V107.625C94.3748 106.68 95.1476 105.907 96.0926 105.907H110.247C111.192 105.907 111.965 106.68 111.965 107.625V109.178Z" fill="black"/>
<path d="M89.57 121.096C89.57 121.096 84.7108 123.189 84.9893 125.379C84.9893 125.379 90.012 124.416 90.9109 122.98C91.8099 121.544 91.3147 120.713 91.3147 120.713L89.57 121.096Z" fill="black"/>
<path d="M90.7601 118.703L91.0066 120.836C91.0439 121.157 90.8651 121.475 90.5602 121.585C90.4078 121.64 90.2074 121.678 89.9447 121.679C89.5739 121.681 89.2457 121.437 89.1468 121.08L88.6688 119.355L90.7601 118.703Z" fill="url(#paint17_linear_77_2706)"/>
<path d="M101.375 102.35C101.375 102.35 92.4376 101.937 87.9905 104.53C83.5434 107.123 88.2159 119.57 88.2159 119.57C88.2159 119.57 89.3776 119.82 91.0502 118.926C91.0502 118.926 88.6632 109.814 92.8093 108.229C97.4709 106.447 102.293 106.88 102.293 106.88L101.4 102.631L101.375 102.35Z" fill="black"/>
<path d="M85.9659 124.417C86.9821 124.195 89.9956 122.946 90.4534 122.963C90.9112 122.98 91.5597 123.665 91.5597 123.665C91.5597 123.665 91.6713 124.04 91.344 124.578C90.5677 125.184 88.8951 126.295 86.95 126.417C85.5195 126.507 84.6588 125.937 84.1667 125.385C84.5978 124.966 85.2893 124.566 85.9659 124.417Z" fill="black"/>
<path d="M86.9501 126.417C88.8946 126.296 90.5673 125.184 91.344 124.579C91.1226 124.943 90.7013 125.381 89.9091 125.828C87.9439 126.939 84.6958 126.777 84.0521 126.527C83.5363 126.326 83.6958 125.845 84.1672 125.386C84.6593 125.938 85.52 126.507 86.9501 126.417Z" fill="#4F52FF"/>
<path d="M92.6265 122.549C92.5602 122.801 91.848 123.557 91.4368 123.979C91.2413 124.179 90.9574 124.265 90.6837 124.205C90.5102 124.168 90.3142 124.108 90.1451 124.016C89.8907 123.878 89.8024 123.555 89.9417 123.302L90.9825 121.409L92.6265 122.549Z" fill="url(#paint18_linear_77_2706)"/>
<path d="M110.232 101.601C110.232 101.601 111.013 107.135 108.757 108.266C106.501 109.397 101.554 110.138 99.8499 113.008C98.1461 115.879 95.0856 121.513 92.3005 123.132C92.3005 123.132 90.7101 122.614 90.2452 121.832C90.2452 121.832 93.5509 113.142 94.9301 111.029C96.1242 109.2 97.8706 106.564 100.352 105.425C101.063 105.098 101.118 104.345 100.993 103.573L100.766 102.168L110.232 101.601Z" fill="black"/>
<path d="M89.327 95.3266C92.4895 96.2295 93.9046 87.3296 93.8919 87.1134L98.7402 92.7824C98.7402 92.7824 95.8514 97.8657 91.4891 98.4069C90.3854 98.544 89.4465 98.3529 88.6592 97.9922C89.2396 97.0414 89.3718 96.103 89.327 95.3266Z" fill="#C6EEEF"/>
<path d="M83.4709 92.4137C84.8491 91.8474 86.0182 92.9774 86.0182 92.9774C87.3838 94.3754 88.4672 95.081 89.327 95.3266C89.3723 96.103 89.2396 97.0414 88.6592 97.9917C86.9554 97.211 85.962 95.6333 85.553 94.8455C85.4058 94.5622 85.0604 94.4422 84.7727 94.5811C84.4805 94.7225 84.1795 94.9378 84.1607 95.2304C84.1233 95.8077 83.4366 95.8415 83.4326 95.6285C83.4287 95.4154 83.9647 94.2753 83.9647 94.2753C83.9647 94.2753 82.3813 95.291 81.7649 95.6794C81.1484 96.0678 80.6234 95.4268 80.6234 95.4268C80.6234 95.4268 82.0926 92.9801 83.4709 92.4137Z" fill="url(#paint19_linear_77_2706)"/>
<path d="M109.014 83.4514C109.014 83.4514 104.765 80.5521 94.5012 85.7954C94.5012 85.7954 93.4441 87.1354 93.9393 88.6454C94.4344 90.1559 100.528 98.3305 100.765 102.168C100.765 102.168 104.931 104.62 110.338 102.189C110.338 102.189 112.151 92.0561 109.014 83.4514Z" fill="#C6EEEF"/>
<path d="M100.165 79.7445L101.844 83.0353C102.011 83.3622 101.976 83.7576 101.747 84.0441C101.284 84.6236 100.319 85.4021 98.6716 84.9004C98.1813 84.751 97.8065 84.3525 97.6884 83.8538L96.818 80.1808L100.165 79.7445Z" fill="url(#paint20_linear_77_2706)"/>
<path d="M112.161 94.9421C112.449 92.9418 107.163 89.0649 107.163 89.0649L109.014 83.4513C109.014 83.4513 119.101 90.6497 116.98 96.5278C116.676 97.3704 116.222 97.9842 115.669 98.4196C114.6 96.229 113.152 95.3187 112.161 94.9421Z" fill="#C6EEEF"/>
<path d="M104.787 95.4971C104.787 95.4971 110.766 97.1671 112.006 95.3469C112.09 95.2234 112.14 95.0872 112.161 94.9418C113.152 95.3183 114.601 96.2286 115.669 98.4192C112.83 100.652 107.356 98.149 105.869 97.3986C105.624 97.2752 105.343 97.251 105.081 97.3327C104.552 97.4979 103.635 97.754 103.124 97.7259C102.377 97.6851 101.575 100.385 100.304 99.7012C100.304 99.7017 100.882 95.0885 104.787 95.4971Z" fill="url(#paint21_linear_77_2706)"/>
<path d="M98.0126 74.3669C97.9595 74.413 95.7442 78.2819 94.6164 80.2542C94.272 80.8561 94.5299 81.6228 95.1674 81.8961L95.6559 82.1052C96.3233 82.3912 97.7587 82.6307 98.3237 82.1746L101.885 78.4155C101.885 78.4159 99.2103 73.33 98.0126 74.3669Z" fill="url(#paint22_linear_77_2706)"/>
<path d="M102.888 77.39C103.325 77.1449 103.85 76.648 103.441 75.7688C103.026 74.8756 102.204 74.7978 101.675 74.8549C101.462 74.8778 101.268 74.742 101.206 74.536C101.17 74.4187 101.084 74.315 100.896 74.2855C100.643 74.2456 100.487 73.9877 100.553 73.7403C100.679 73.2654 100.658 72.6204 99.8939 72.1582C98.5385 71.3375 97.2715 72.5295 96.9187 73.5654C96.5659 74.6014 98.086 75.4077 99.0565 75.5724C99.7942 75.6976 100.154 76.5487 100.285 76.9493C100.326 77.0763 100.306 77.2147 100.233 77.3259L99.1501 78.9708C99.448 79.3456 99.7116 79.7414 99.9717 80.1417C100.069 80.0367 100.154 79.9492 100.221 79.8882C100.691 79.4572 101.527 79.6799 101.872 79.7981C101.985 79.8368 102.107 79.828 102.214 79.7731C102.588 79.5793 103.346 79.035 102.725 78.0051C102.595 77.7912 102.669 77.5135 102.888 77.39Z" fill="black"/>
<path d="M99.5776 80.846C99.5776 80.846 100.27 79.0671 101.057 79.1664C101.843 79.2657 102.432 80.078 101.416 80.9215C100.154 81.9703 99.5776 80.846 99.5776 80.846Z" fill="url(#paint23_linear_77_2706)"/>
<path d="M97.1514 99.3045C97.1408 99.3049 97.1298 99.3054 97.1193 99.3054L83.15 99.29C82.8047 99.2896 82.5253 99.0093 82.5253 98.6639C82.5257 98.3186 82.8069 98.033 83.1513 98.0392L97.1206 98.0545C97.4659 98.055 97.7454 98.3353 97.7454 98.6802C97.7449 99.015 97.4818 99.2878 97.1514 99.3045Z" fill="black"/>
<path d="M70.5926 86.6213H82.2262C83.0842 86.6213 83.8654 87.1165 84.2318 87.8928L89.6099 99.297H75.1526C74.5994 99.297 74.1025 98.9592 73.8996 98.4447L69.7288 87.8919C69.4876 87.2821 69.9366 86.6213 70.5926 86.6213Z" fill="black"/>
<path d="M78.7883 92.4687C79.0405 93.2521 78.8542 94.0126 78.3722 94.1677C77.8902 94.3228 77.2953 93.8136 77.0431 93.0302C76.7909 92.2468 76.9772 91.4863 77.4592 91.3312C77.9412 91.1761 78.5365 91.6853 78.7883 92.4687Z" fill="#C6EEEF"/>
<path d="M72.4783 129.266C72.401 129.266 72.3223 129.251 72.2467 129.219C71.9489 129.095 71.8113 128.761 71.9396 128.473L84.2508 100.765C84.3786 100.477 84.724 100.344 85.0219 100.467C85.3197 100.591 85.4573 100.926 85.329 101.214L73.0178 128.922C72.9225 129.137 72.7059 129.266 72.4783 129.266Z" fill="#74A1BB"/>
<path d="M86.3478 129.266C86.1203 129.266 85.9037 129.137 85.8083 128.922L73.4972 101.214C73.3689 100.926 73.5069 100.591 73.8043 100.467C74.1017 100.344 74.4475 100.477 74.5754 100.765L86.8865 128.473C87.0148 128.761 86.8768 129.095 86.5794 129.219C86.5038 129.251 86.4252 129.266 86.3478 129.266Z" fill="#74A1BB"/>
<path d="M110.587 129.266C110.51 129.266 110.431 129.251 110.356 129.219C110.058 129.095 109.92 128.761 110.049 128.473L122.36 100.765C122.488 100.477 122.833 100.344 123.131 100.467C123.429 100.591 123.566 100.926 123.438 101.214L111.127 128.922C111.031 129.137 110.815 129.266 110.587 129.266Z" fill="#74A1BB"/>
<path d="M124.456 129.266C124.229 129.266 124.013 129.137 123.917 128.922L111.606 101.214C111.477 100.926 111.615 100.591 111.913 100.467C112.21 100.344 112.556 100.477 112.684 100.765L124.995 128.473C125.123 128.761 124.985 129.095 124.688 129.219C124.612 129.251 124.534 129.266 124.456 129.266Z" fill="#74A1BB"/>
<path d="M125.901 99.9095C125.932 99.7276 125.889 99.54 125.784 99.3973C125.679 99.2545 125.522 99.1719 125.357 99.1719H69.3492C69.1318 99.1719 68.9292 99.2958 68.8123 99.5009C68.695 99.7061 68.6797 99.9636 68.7706 100.185L69.3774 101.655C69.5162 101.992 69.8176 102.207 70.1489 102.207H124.972C125.281 102.207 125.546 101.963 125.604 101.624L125.901 99.9095Z" fill="#74A1BB"/>
<defs>
<linearGradient id="paint0_linear_77_2706" x1="29.3348" y1="125.586" x2="31.4016" y2="125.606" gradientUnits="userSpaceOnUse">
<stop stop-color="#FEBBBA"/>
<stop offset="1" stop-color="#FF928E"/>
</linearGradient>
<linearGradient id="paint1_linear_77_2706" x1="21.8869" y1="125.409" x2="23.6713" y2="125.426" gradientUnits="userSpaceOnUse">
<stop stop-color="#FEBBBA"/>
<stop offset="1" stop-color="#FF928E"/>
</linearGradient>
<linearGradient id="paint2_linear_77_2706" x1="38.3542" y1="71.7458" x2="48.9137" y2="71.8462" gradientUnits="userSpaceOnUse">
<stop stop-color="#FEBBBA"/>
<stop offset="1" stop-color="#FF928E"/>
</linearGradient>
<linearGradient id="paint3_linear_77_2706" x1="46.5784" y1="70.054" x2="39.3398" y2="86.1078" gradientUnits="userSpaceOnUse">
<stop stop-color="#FEBBBA"/>
<stop offset="1" stop-color="#FF928E"/>
</linearGradient>
<linearGradient id="paint4_linear_77_2706" x1="48.931" y1="64.7069" x2="51.9307" y2="60.1893" gradientUnits="userSpaceOnUse">
<stop stop-color="#FEBBBA"/>
<stop offset="1" stop-color="#FF928E"/>
</linearGradient>
<linearGradient id="paint5_linear_77_2706" x1="15.1059" y1="86.482" x2="28.4686" y2="86.609" gradientUnits="userSpaceOnUse">
<stop stop-color="#FEBBBA"/>
<stop offset="1" stop-color="#FF928E"/>
</linearGradient>
<linearGradient id="paint6_linear_77_2706" x1="24.93" y1="79.1032" x2="29.979" y2="69.3023" gradientUnits="userSpaceOnUse">
<stop stop-color="#FEBBBA"/>
<stop offset="1" stop-color="#FF928E"/>
</linearGradient>
<linearGradient id="paint7_linear_77_2706" x1="32.0748" y1="68.9953" x2="26.2995" y2="65.3972" gradientUnits="userSpaceOnUse">
<stop stop-color="#FEBBBA"/>
<stop offset="1" stop-color="#FF928E"/>
</linearGradient>
<linearGradient id="paint8_linear_77_2706" x1="30.5364" y1="70.302" x2="25.3404" y2="67.0646" gradientUnits="userSpaceOnUse">
<stop stop-color="#FEBBBA"/>
<stop offset="1" stop-color="#FF928E"/>
</linearGradient>
<linearGradient id="paint9_linear_77_2706" x1="26.9991" y1="86.1191" x2="31.1768" y2="86.1191" gradientUnits="userSpaceOnUse">
<stop stop-color="#FEBBBA"/>
<stop offset="1" stop-color="#FF928E"/>
</linearGradient>
<linearGradient id="paint10_linear_77_2706" x1="110.26" y1="61.9666" x2="121.469" y2="79.9307" gradientUnits="userSpaceOnUse">
<stop stop-color="#FEBBBA"/>
<stop offset="1" stop-color="#FF928E"/>
</linearGradient>
<linearGradient id="paint11_linear_77_2706" x1="124.065" y1="74.3933" x2="126.167" y2="69.7262" gradientUnits="userSpaceOnUse">
<stop stop-color="#FEBBBA"/>
<stop offset="1" stop-color="#FF928E"/>
</linearGradient>
<linearGradient id="paint12_linear_77_2706" x1="123.957" y1="63.0512" x2="128.222" y2="72.2847" gradientUnits="userSpaceOnUse">
<stop stop-color="#FEBBBA"/>
<stop offset="1" stop-color="#FF928E"/>
</linearGradient>
<linearGradient id="paint13_linear_77_2706" x1="125.964" y1="62.1243" x2="130.228" y2="71.3577" gradientUnits="userSpaceOnUse">
<stop stop-color="#FEBBBA"/>
<stop offset="1" stop-color="#FF928E"/>
</linearGradient>
<linearGradient id="paint14_linear_77_2706" x1="135.858" y1="132.514" x2="120.2" y2="104.253" gradientUnits="userSpaceOnUse">
<stop stop-color="#FEBBBA"/>
<stop offset="1" stop-color="#FF928E"/>
</linearGradient>
<linearGradient id="paint15_linear_77_2706" x1="118.009" y1="111.548" x2="141.752" y2="119.389" gradientUnits="userSpaceOnUse">
<stop stop-color="#FEBBBA"/>
<stop offset="1" stop-color="#FF928E"/>
</linearGradient>
<linearGradient id="paint16_linear_77_2706" x1="134.354" y1="88.9135" x2="111.912" y2="55.6387" gradientUnits="userSpaceOnUse">
<stop stop-color="#FEBBBA"/>
<stop offset="1" stop-color="#FF928E"/>
</linearGradient>
<linearGradient id="paint17_linear_77_2706" x1="91.1496" y1="120.378" x2="88.569" y2="119.807" gradientUnits="userSpaceOnUse">
<stop stop-color="#FEBBBA"/>
<stop offset="1" stop-color="#FF928E"/>
</linearGradient>
<linearGradient id="paint18_linear_77_2706" x1="92.4886" y1="123.173" x2="90.0666" y2="122.637" gradientUnits="userSpaceOnUse">
<stop stop-color="#FEBBBA"/>
<stop offset="1" stop-color="#FF928E"/>
</linearGradient>
<linearGradient id="paint19_linear_77_2706" x1="89.4142" y1="95.7505" x2="80.9654" y2="93.8805" gradientUnits="userSpaceOnUse">
<stop stop-color="#FEBBBA"/>
<stop offset="1" stop-color="#FF928E"/>
</linearGradient>
<linearGradient id="paint20_linear_77_2706" x1="102.092" y1="82.9207" x2="96.4864" y2="81.6801" gradientUnits="userSpaceOnUse">
<stop stop-color="#FEBBBA"/>
<stop offset="1" stop-color="#FF928E"/>
</linearGradient>
<linearGradient id="paint21_linear_77_2706" x1="106.544" y1="96.9327" x2="128.806" y2="128.107" gradientUnits="userSpaceOnUse">
<stop stop-color="#FEBBBA"/>
<stop offset="1" stop-color="#FF928E"/>
</linearGradient>
<linearGradient id="paint22_linear_77_2706" x1="98.9895" y1="75.7361" x2="96.1733" y2="88.947" gradientUnits="userSpaceOnUse">
<stop stop-color="#FEBBBA"/>
<stop offset="1" stop-color="#FF928E"/>
</linearGradient>
<linearGradient id="paint23_linear_77_2706" x1="100.098" y1="88.3283" x2="100.795" y2="80.1101" gradientUnits="userSpaceOnUse">
<stop stop-color="#FEBBBA"/>
<stop offset="1" stop-color="#FF928E"/>
</linearGradient>
</defs>
</svg>
