<svg width="215" height="215" viewBox="0 0 215 215" fill="none" xmlns="http://www.w3.org/2000/svg">
<path d="M92.6362 112.625C92.6362 113.184 92.5166 113.822 92.2773 114.54C92.0495 115.257 91.6108 115.986 90.9614 116.727C90.312 117.456 89.3664 118.071 88.1245 118.573C86.8826 119.063 85.3047 119.308 83.3906 119.308C81.4424 119.308 79.853 119.063 78.6226 118.573C77.3921 118.083 76.4408 117.468 75.7686 116.727C75.1077 115.975 74.6748 115.257 74.4697 114.574C74.2646 113.879 74.1621 113.229 74.1621 112.625C74.1621 111.429 74.5039 110.301 75.1875 109.242C75.8711 108.182 76.7996 107.362 77.9731 106.781C77.0161 106.177 76.2756 105.488 75.7515 104.713C75.2274 103.927 74.9653 102.924 74.9653 101.705C74.9653 101.021 75.1077 100.298 75.3926 99.5347C75.6888 98.7713 76.1616 98.0365 76.811 97.3301C77.4718 96.6237 78.3434 96.0597 79.4258 95.6382C80.5195 95.2052 81.8411 94.9888 83.3906 94.9888C85.0085 94.9888 86.3586 95.2052 87.4409 95.6382C88.5233 96.0597 89.3949 96.6237 90.0557 97.3301C90.7165 98.0251 91.1779 98.7485 91.4399 99.5005C91.702 100.252 91.833 100.987 91.833 101.705C91.833 102.958 91.5767 103.961 91.064 104.713C90.5627 105.453 89.8164 106.143 88.8252 106.781C89.6113 107.191 90.2778 107.692 90.8247 108.285C91.383 108.866 91.8216 109.538 92.1406 110.301C92.471 111.065 92.6362 111.839 92.6362 112.625ZM85.8516 102.167C85.8516 101.415 85.6636 100.697 85.2876 100.013C84.923 99.3296 84.3135 98.9878 83.459 98.9878C82.5817 98.9878 81.9437 99.3182 81.5449 99.979C81.1462 100.628 80.9468 101.358 80.9468 102.167C80.9468 103.089 81.1917 103.847 81.6816 104.439C82.1829 105.021 82.7526 105.311 83.3906 105.311C84.04 105.311 84.6097 105.021 85.0996 104.439C85.6009 103.847 85.8516 103.089 85.8516 102.167ZM86.5522 111.993C86.5522 111.264 86.3927 110.637 86.0737 110.113C85.7547 109.578 85.3503 109.179 84.8604 108.917C84.3704 108.644 83.8805 108.507 83.3906 108.507C82.5931 108.507 81.8696 108.82 81.2202 109.447C80.5708 110.073 80.2461 110.922 80.2461 111.993C80.2461 113.144 80.5708 114.021 81.2202 114.625C81.8696 115.229 82.6045 115.531 83.4248 115.531C84.2679 115.531 84.9971 115.206 85.6123 114.557C86.2389 113.907 86.5522 113.053 86.5522 111.993ZM113.349 95.9971L103.232 119.308L97.729 117.564L104.975 100.56H95.3877V95.3135H113.349V95.9971ZM128.149 100.833C128.149 101.916 127.887 102.907 127.363 103.807C126.839 104.696 126.121 105.402 125.209 105.926C124.298 106.45 123.312 106.712 122.253 106.712C121.205 106.712 120.225 106.45 119.313 105.926C118.413 105.402 117.701 104.69 117.177 103.79C116.665 102.89 116.408 101.904 116.408 100.833C116.408 100.047 116.556 99.2954 116.853 98.5776C117.16 97.8485 117.582 97.2161 118.117 96.6807C118.664 96.1452 119.285 95.7293 119.98 95.4331C120.686 95.1369 121.444 94.9888 122.253 94.9888C123.312 94.9888 124.298 95.2508 125.209 95.7749C126.121 96.299 126.839 97.0111 127.363 97.9111C127.887 98.7998 128.149 99.7739 128.149 100.833ZM138.95 94.9888L121.877 119.632H118.374L135.498 94.9888H138.95ZM140.915 113.753C140.915 114.813 140.653 115.799 140.129 116.71C139.605 117.61 138.887 118.322 137.976 118.846C137.076 119.37 136.096 119.632 135.036 119.632C133.977 119.632 132.997 119.37 132.097 118.846C131.208 118.322 130.502 117.604 129.978 116.693C129.453 115.781 129.191 114.802 129.191 113.753C129.191 112.967 129.34 112.215 129.636 111.498C129.943 110.768 130.359 110.142 130.883 109.618C131.419 109.082 132.04 108.666 132.746 108.37C133.464 108.062 134.227 107.909 135.036 107.909C136.084 107.909 137.064 108.171 137.976 108.695C138.887 109.219 139.605 109.931 140.129 110.831C140.653 111.72 140.915 112.694 140.915 113.753ZM124.577 100.868C124.577 100.218 124.349 99.6714 123.894 99.2271C123.438 98.7827 122.891 98.5605 122.253 98.5605C121.615 98.5605 121.074 98.7884 120.629 99.2441C120.196 99.6885 119.98 100.23 119.98 100.868C119.98 101.494 120.202 102.03 120.646 102.474C121.091 102.918 121.626 103.141 122.253 103.141C122.88 103.141 123.421 102.924 123.876 102.491C124.344 102.047 124.577 101.506 124.577 100.868ZM137.343 113.788C137.343 113.138 137.121 112.591 136.677 112.147C136.232 111.703 135.686 111.48 135.036 111.48C134.398 111.48 133.857 111.708 133.413 112.164C132.98 112.608 132.763 113.15 132.763 113.788C132.763 114.414 132.985 114.95 133.43 115.394C133.874 115.838 134.41 116.061 135.036 116.061C135.674 116.061 136.215 115.844 136.66 115.411C137.115 114.967 137.343 114.426 137.343 113.788Z" fill="black"/>
<circle cx="107.5" cy="107.5" r="96.5" stroke="#00FFFF" stroke-opacity="0.1" stroke-width="22"/>
<path d="M21 107.5C21 59.7274 59.7274 21 107.5 21C155.273 21 194 59.7274 194 107.5C194 155.273 155.273 194 107.5 194C59.7274 194 21 155.273 21 107.5ZM176.437 107.5C176.437 69.4274 145.573 38.5634 107.5 38.5634C69.4274 38.5634 38.5634 69.4274 38.5634 107.5C38.5634 145.573 69.4274 176.437 107.5 176.437C145.573 176.437 176.437 145.573 176.437 107.5Z" fill="black"/>
<path d="M107.5 21C94.0348 21 80.7555 24.1436 68.7194 30.1804C56.6833 36.2173 46.2227 44.9807 38.1706 55.773L52.2476 66.276C58.6648 57.675 67.0014 50.6909 76.5936 45.8798C86.1859 41.0687 96.7688 38.5634 107.5 38.5634V21Z" fill="#00FFFF"/>
</svg>
