<svg width="215" height="215" viewBox="0 0 215 215" fill="none" xmlns="http://www.w3.org/2000/svg">
<path d="M90.9614 112.42C90.9614 113.662 90.7165 114.722 90.2266 115.599C89.7367 116.476 89.0872 117.194 88.2783 117.753C87.4808 118.299 86.632 118.698 85.7319 118.949C84.8319 119.188 83.9603 119.308 83.1172 119.308C81.9209 119.308 80.5993 119.142 79.1523 118.812C77.7054 118.47 76.492 118.066 75.5122 117.599V112.284C76.3097 112.945 77.1699 113.503 78.0928 113.959C79.0156 114.403 79.967 114.625 80.9468 114.625C81.6873 114.625 82.3083 114.488 82.8096 114.215C83.3223 113.941 83.7039 113.6 83.9546 113.19C84.2166 112.768 84.3477 112.324 84.3477 111.857C84.3477 111.253 84.1882 110.717 83.8691 110.25C83.5501 109.783 83.0887 109.413 82.4849 109.139C81.881 108.854 81.1803 108.712 80.3828 108.712H79.6138V104.901H80.5195C81.3171 104.901 81.9722 104.747 82.4849 104.44C83.009 104.132 83.3849 103.767 83.6128 103.346C83.8407 102.913 83.9546 102.508 83.9546 102.132C83.9546 101.415 83.6755 100.782 83.1172 100.235C82.5703 99.6771 81.8582 99.398 80.981 99.398C80.1948 99.398 79.3745 99.5461 78.52 99.8423C77.6769 100.139 76.8851 100.537 76.1445 101.039V96.4927C77.2611 96.0256 78.3092 95.661 79.2891 95.399C80.2803 95.1255 81.3911 94.9888 82.6216 94.9888C84.4103 94.9888 85.9028 95.3363 87.0991 96.0313C88.3068 96.7263 89.1841 97.5694 89.731 98.5606C90.2892 99.5404 90.5684 100.463 90.5684 101.329C90.5684 102.036 90.4146 102.742 90.1069 103.448C89.7993 104.155 89.3949 104.781 88.8936 105.328C88.4036 105.875 87.891 106.302 87.3555 106.61C88.3011 107.111 89.1385 107.806 89.8677 108.695C90.5968 109.584 90.9614 110.825 90.9614 112.42ZM113.247 119H95.251V118.539C95.946 117.866 96.7093 117.063 97.541 116.129C98.3727 115.195 99.4437 113.959 100.754 112.42C101.358 111.725 101.922 111.042 102.446 110.37C102.981 109.697 103.437 109.048 103.813 108.421C104.189 107.783 104.508 107.083 104.77 106.319C105.032 105.556 105.163 104.776 105.163 103.978C105.163 102.884 104.844 102.001 104.206 101.329C103.579 100.646 102.776 100.304 101.796 100.304C99.8595 100.304 97.9341 101.306 96.02 103.312V97.7232C96.6922 97.2903 97.2448 96.9428 97.6777 96.6807C98.1107 96.4187 98.6063 96.1623 99.1646 95.9117C99.7342 95.661 100.406 95.4446 101.181 95.2623C101.956 95.08 102.793 94.9888 103.693 94.9888C105.14 94.9888 106.456 95.2851 107.641 95.8775C108.826 96.4586 109.755 97.3074 110.427 98.4239C111.11 99.529 111.452 100.822 111.452 102.303C111.452 103.351 111.298 104.331 110.991 105.243C110.683 106.154 110.364 106.889 110.034 107.447C109.703 108.006 109.265 108.695 108.718 109.515C107.738 110.974 106.69 112.364 105.573 113.685H113.247V119ZM128.149 100.834C128.149 101.916 127.887 102.907 127.363 103.807C126.839 104.696 126.121 105.402 125.209 105.926C124.298 106.45 123.312 106.712 122.253 106.712C121.205 106.712 120.225 106.45 119.313 105.926C118.413 105.402 117.701 104.69 117.177 103.79C116.665 102.89 116.408 101.905 116.408 100.834C116.408 100.047 116.556 99.2955 116.853 98.5777C117.16 97.8485 117.582 97.2162 118.117 96.6807C118.664 96.1452 119.285 95.7294 119.98 95.4332C120.686 95.1369 121.444 94.9888 122.253 94.9888C123.312 94.9888 124.298 95.2509 125.209 95.775C126.121 96.2991 126.839 97.0111 127.363 97.9112C127.887 98.7999 128.149 99.774 128.149 100.834ZM138.95 94.9888L121.877 119.632H118.374L135.498 94.9888H138.95ZM140.915 113.753C140.915 114.813 140.653 115.799 140.129 116.71C139.605 117.61 138.887 118.322 137.976 118.846C137.076 119.37 136.096 119.632 135.036 119.632C133.977 119.632 132.997 119.37 132.097 118.846C131.208 118.322 130.502 117.604 129.978 116.693C129.453 115.781 129.191 114.802 129.191 113.753C129.191 112.967 129.34 112.215 129.636 111.498C129.943 110.768 130.359 110.142 130.883 109.618C131.419 109.082 132.04 108.666 132.746 108.37C133.464 108.063 134.227 107.909 135.036 107.909C136.084 107.909 137.064 108.171 137.976 108.695C138.887 109.219 139.605 109.931 140.129 110.831C140.653 111.72 140.915 112.694 140.915 113.753ZM124.577 100.868C124.577 100.218 124.349 99.6714 123.894 99.2271C123.438 98.7828 122.891 98.5606 122.253 98.5606C121.615 98.5606 121.074 98.7885 120.629 99.2442C120.196 99.6885 119.98 100.23 119.98 100.868C119.98 101.494 120.202 102.03 120.646 102.474C121.091 102.919 121.626 103.141 122.253 103.141C122.88 103.141 123.421 102.924 123.876 102.491C124.344 102.047 124.577 101.506 124.577 100.868ZM137.343 113.788C137.343 113.138 137.121 112.591 136.677 112.147C136.232 111.703 135.686 111.481 135.036 111.481C134.398 111.481 133.857 111.708 133.413 112.164C132.98 112.608 132.763 113.15 132.763 113.788C132.763 114.414 132.985 114.95 133.43 115.394C133.874 115.838 134.41 116.061 135.036 116.061C135.674 116.061 136.215 115.844 136.66 115.411C137.115 114.967 137.343 114.426 137.343 113.788Z" fill="black"/>
<circle cx="107.5" cy="107.5" r="96.5" stroke="#00FFFF" stroke-opacity="0.1" stroke-width="22"/>
<path d="M107.5 194C130.441 194 152.443 184.887 168.665 168.665C184.887 152.443 194 130.441 194 107.5C194 84.5588 184.887 62.5572 168.665 46.3353C152.443 30.1134 130.441 21 107.5 21L107.5 38.5634C125.783 38.5634 143.317 45.8264 156.246 58.7545C169.174 71.6826 176.437 89.2169 176.437 107.5C176.437 125.783 169.174 143.317 156.246 156.246C143.317 169.174 125.783 176.437 107.5 176.437L107.5 194Z" fill="black"/>
<path d="M107.5 21.0001C91.9275 21.0001 76.6438 25.204 63.2619 33.1682C49.88 41.1323 38.8962 52.5613 31.4698 66.2489C24.0434 79.9366 20.4498 95.3752 21.0682 110.935C21.6867 126.496 26.4943 141.6 34.9836 154.655C43.4729 167.71 55.3291 178.232 69.3009 185.109C83.2727 191.986 98.8419 194.963 114.365 193.727C129.889 192.491 144.79 187.088 157.498 178.086C170.206 169.085 180.248 156.821 186.564 142.587L170.511 135.463C165.477 146.806 157.474 156.581 147.346 163.754C137.219 170.928 125.343 175.234 112.971 176.219C100.6 177.204 88.1919 174.831 77.0571 169.351C65.9222 163.87 56.4733 155.485 49.7077 145.081C42.9421 134.676 39.1107 122.639 38.6178 110.238C38.1249 97.8371 40.9889 85.5332 46.9074 74.6248C52.8259 63.7164 61.5794 54.608 72.2442 48.2609C82.909 41.9138 95.0894 38.5635 107.5 38.5635L107.5 21.0001Z" fill="#00FFFF"/>
</svg>
