<svg width="215" height="215" viewBox="0 0 215 215" fill="none" xmlns="http://www.w3.org/2000/svg">
<path d="M91.2007 111.583C91.2007 112.939 90.8817 114.209 90.2437 115.394C89.617 116.579 88.6657 117.53 87.3896 118.248C86.125 118.954 84.5812 119.308 82.7583 119.308C81.3 119.308 79.9043 119.12 78.5713 118.744C77.2383 118.368 76.0135 117.798 74.897 117.035V111.925C75.6261 112.472 76.6515 113.024 77.9731 113.583C79.3062 114.141 80.4626 114.42 81.4424 114.42C82.6045 114.42 83.4191 114.118 83.8862 113.514C84.3534 112.899 84.5869 112.267 84.5869 111.617C84.5869 111.082 84.4502 110.575 84.1768 110.096C83.9033 109.618 83.4305 109.225 82.7583 108.917C82.0975 108.598 81.2031 108.438 80.0752 108.438C78.8333 108.438 77.6427 108.666 76.5034 109.122V95.3135H90.2266V100.304H81.75V104.371C81.9323 104.348 82.1203 104.331 82.314 104.32C82.519 104.297 82.6615 104.286 82.7412 104.286C82.8324 104.274 83.0033 104.269 83.2539 104.269C84.849 104.269 86.2503 104.605 87.458 105.277C88.6657 105.949 89.5885 106.843 90.2266 107.96C90.876 109.065 91.2007 110.273 91.2007 111.583ZM113.452 107.174C113.452 109.225 113.207 111.025 112.717 112.574C112.227 114.124 111.549 115.394 110.683 116.385C109.829 117.365 108.849 118.1 107.744 118.59C106.639 119.068 105.459 119.308 104.206 119.308C102.964 119.308 101.791 119.068 100.686 118.59C99.5804 118.1 98.6006 117.359 97.7461 116.368C96.8916 115.377 96.2137 114.112 95.7124 112.574C95.2225 111.036 94.9775 109.236 94.9775 107.174C94.9775 105.1 95.2225 103.294 95.7124 101.756C96.2137 100.218 96.8859 98.9479 97.729 97.9453C98.5835 96.9427 99.5633 96.2021 100.668 95.7236C101.785 95.2337 102.964 94.9888 104.206 94.9888C105.459 94.9888 106.633 95.228 107.727 95.7065C108.832 96.1851 109.817 96.9313 110.683 97.9453C111.549 98.9479 112.227 100.224 112.717 101.773C113.207 103.323 113.452 105.123 113.452 107.174ZM106.701 107.174C106.701 105.077 106.559 103.357 106.274 102.013C105.989 100.668 105.3 99.9961 104.206 99.9961C103.465 99.9961 102.907 100.372 102.531 101.124C102.167 101.876 101.939 102.742 101.848 103.722C101.768 104.701 101.728 105.852 101.728 107.174C101.728 109.418 101.865 111.167 102.138 112.42C102.423 113.662 103.112 114.283 104.206 114.283C105.311 114.283 106 113.662 106.274 112.42C106.559 111.167 106.701 109.418 106.701 107.174ZM128.149 100.833C128.149 101.916 127.887 102.907 127.363 103.807C126.839 104.696 126.121 105.402 125.209 105.926C124.298 106.45 123.312 106.712 122.253 106.712C121.205 106.712 120.225 106.45 119.313 105.926C118.413 105.402 117.701 104.69 117.177 103.79C116.665 102.89 116.408 101.904 116.408 100.833C116.408 100.047 116.556 99.2954 116.853 98.5776C117.16 97.8485 117.582 97.2161 118.117 96.6807C118.664 96.1452 119.285 95.7293 119.98 95.4331C120.686 95.1369 121.444 94.9888 122.253 94.9888C123.312 94.9888 124.298 95.2508 125.209 95.7749C126.121 96.299 126.839 97.0111 127.363 97.9111C127.887 98.7998 128.149 99.7739 128.149 100.833ZM138.95 94.9888L121.877 119.632H118.374L135.498 94.9888H138.95ZM140.915 113.753C140.915 114.813 140.653 115.799 140.129 116.71C139.605 117.61 138.887 118.322 137.976 118.846C137.076 119.37 136.096 119.632 135.036 119.632C133.977 119.632 132.997 119.37 132.097 118.846C131.208 118.322 130.502 117.604 129.978 116.693C129.453 115.781 129.191 114.802 129.191 113.753C129.191 112.967 129.34 112.215 129.636 111.498C129.943 110.768 130.359 110.142 130.883 109.618C131.419 109.082 132.04 108.666 132.746 108.37C133.464 108.062 134.227 107.909 135.036 107.909C136.084 107.909 137.064 108.171 137.976 108.695C138.887 109.219 139.605 109.931 140.129 110.831C140.653 111.72 140.915 112.694 140.915 113.753ZM124.577 100.868C124.577 100.218 124.349 99.6714 123.894 99.2271C123.438 98.7827 122.891 98.5605 122.253 98.5605C121.615 98.5605 121.074 98.7884 120.629 99.2441C120.196 99.6885 119.98 100.23 119.98 100.868C119.98 101.494 120.202 102.03 120.646 102.474C121.091 102.918 121.626 103.141 122.253 103.141C122.88 103.141 123.421 102.924 123.876 102.491C124.344 102.047 124.577 101.506 124.577 100.868ZM137.343 113.788C137.343 113.138 137.121 112.591 136.677 112.147C136.232 111.703 135.686 111.48 135.036 111.48C134.398 111.48 133.857 111.708 133.413 112.164C132.98 112.608 132.763 113.15 132.763 113.788C132.763 114.414 132.985 114.95 133.43 115.394C133.874 115.838 134.41 116.061 135.036 116.061C135.674 116.061 136.215 115.844 136.66 115.411C137.115 114.967 137.343 114.426 137.343 113.788Z" fill="black"/>
<circle cx="107.5" cy="107.5" r="96.5" stroke="#00FFFF" stroke-opacity="0.1" stroke-width="22"/>
<path d="M107.5 21C84.5588 21 62.5572 30.1134 46.3353 46.3353C30.1134 62.5572 21 84.5588 21 107.5C21 130.441 30.1134 152.443 46.3353 168.665C62.5571 184.887 84.5588 194 107.5 194L107.5 176.437C89.2169 176.437 71.6826 169.174 58.7545 156.246C45.8264 143.317 38.5634 125.783 38.5634 107.5C38.5634 89.2169 45.8264 71.6826 58.7545 58.7545C71.6826 45.8264 89.2169 38.5634 107.5 38.5634V21Z" fill="#00FFFF"/>
<path d="M107.5 194C130.441 194 152.443 184.887 168.665 168.665C184.887 152.443 194 130.441 194 107.5C194 84.5588 184.887 62.5572 168.665 46.3353C152.443 30.1134 130.441 21 107.5 21L107.5 38.5634C125.783 38.5634 143.317 45.8264 156.246 58.7545C169.174 71.6826 176.437 89.2169 176.437 107.5C176.437 125.783 169.174 143.317 156.246 156.246C143.317 169.174 125.783 176.437 107.5 176.437L107.5 194Z" fill="black"/>
</svg>
