<svg width="90" height="93" viewBox="0 0 90 93" fill="none" xmlns="http://www.w3.org/2000/svg">
<circle cx="66" cy="27" r="66" fill="#00FFFF" fill-opacity="0.19"/>
<circle cx="65.5" cy="26.5" r="50.5" fill="#00FFFF"/>
<path d="M72.06 40.4072L68.564 36.9112C67.9313 36.2788 67.1388 35.8301 66.2711 35.6127C65.4033 35.3954 64.4929 35.4177 63.6368 35.6771C62.7807 35.9366 62.0111 36.4236 61.4101 37.0862C60.809 37.7487 60.3991 38.562 60.224 39.4392C54.459 38.3612 48.852 32.7772 48.503 27.7862C49.4831 27.6059 50.385 27.1316 51.089 26.4262C52.0158 25.4992 52.5365 24.2421 52.5365 22.9312C52.5365 21.6204 52.0158 20.3632 51.089 19.4362L47.594 15.9402C46.667 15.0134 45.4098 14.4927 44.099 14.4927C42.7881 14.4927 41.531 15.0134 40.604 15.9402C30.118 26.4262 61.574 57.8822 72.06 47.3962C72.9863 46.4692 73.5066 45.2122 73.5066 43.9017C73.5066 42.5912 72.9863 41.3343 72.06 40.4072V40.4072Z" fill="white"/>
</svg>
