<svg width="36" height="36" viewBox="0 0 36 36" fill="none" xmlns="http://www.w3.org/2000/svg">
<path d="M34.06 26.4072L30.564 22.9112C29.9313 22.2788 29.1388 21.8301 28.2711 21.6127C27.4033 21.3954 26.4929 21.4177 25.6368 21.6771C24.7807 21.9366 24.0111 22.4236 23.4101 23.0862C22.809 23.7487 22.3991 24.562 22.224 25.4392C16.459 24.3612 10.852 18.7772 10.503 13.7862C11.4831 13.6059 12.385 13.1316 13.089 12.4262C14.0158 11.4992 14.5365 10.2421 14.5365 8.93122C14.5365 7.62037 14.0158 6.36319 13.089 5.43622L9.59398 1.94022C8.66701 1.01337 7.40984 0.492676 6.09898 0.492676C4.78813 0.492676 3.53096 1.01337 2.60398 1.94022C-7.88202 12.4262 23.574 43.8822 34.06 33.3962C34.9863 32.4692 35.5066 31.2122 35.5066 29.9017C35.5066 28.5912 34.9863 27.3343 34.06 26.4072Z" fill="white"/>
</svg>
