<svg width="162" height="162" viewBox="0 0 162 162" fill="none" xmlns="http://www.w3.org/2000/svg">
<path d="M21.9603 61.2448C21.8407 61.1898 21.7573 61.0701 21.7568 60.9321C21.7551 60.478 21.7629 60.016 21.78 59.5593C21.787 59.3715 21.9472 59.2279 22.1376 59.2383C22.5996 59.2606 22.4424 59.7121 22.4467 60.9413C22.4476 61.1291 22.2935 61.2793 22.1027 61.2767C22.052 61.2762 22.004 61.2649 21.9603 61.2448Z" fill="#C6EEEF"/>
<path d="M22.2189 55.3089C22.3647 54.4482 22.5472 53.5832 22.7612 52.7378C22.807 52.5562 22.9944 52.4483 23.1795 52.4968C23.683 52.6317 23.3297 52.8963 22.9 55.432C22.8686 55.6167 22.6909 55.739 22.5027 55.7049C22.3119 55.67 22.1879 55.491 22.2189 55.3089ZM24.0694 48.6791C24.3912 47.8639 24.7515 47.0464 25.1283 46.2775C25.33 45.864 25.9453 46.1858 25.751 46.5814C25.3759 47.3482 25.0283 48.1368 24.7135 48.935C24.6449 49.1092 24.4449 49.1926 24.2672 49.1219C24.0877 49.0507 24.0017 48.8516 24.0694 48.6791ZM27.2457 42.5781C27.7269 41.8515 28.2434 41.135 28.7823 40.4486C29.06 40.0949 29.6075 40.518 29.3316 40.8704C28.8041 41.5433 28.2976 42.2454 27.826 42.9572C27.578 43.3309 26.9981 42.951 27.2457 42.5781ZM31.6362 37.7461C31.5004 37.612 31.4991 37.3963 31.6332 37.2653C32.2572 36.6536 32.9143 36.0588 33.5868 35.4977C33.9326 35.2091 34.3841 35.7313 34.0387 36.02C33.3798 36.5702 32.7358 37.1527 32.1244 37.7518C31.9904 37.8828 31.7712 37.8806 31.6362 37.7461ZM36.9499 33.4371C36.8443 33.2791 36.8875 33.0686 37.0464 32.9673C37.7866 32.4957 38.5551 32.0473 39.3302 31.6346C39.7293 31.4233 40.0655 32.0219 39.6664 32.2346C38.9066 32.6389 38.1538 33.0782 37.4285 33.5402C37.27 33.6419 37.0556 33.5956 36.9499 33.4371ZM43.2374 30.4836C43.1588 30.4473 43.0937 30.3827 43.0588 30.2976C42.9876 30.122 43.0732 29.9255 43.25 29.8583C44.0749 29.5456 44.9216 29.2614 45.7678 29.0138C45.9499 28.9605 46.1433 29.0631 46.201 29.2435C46.2582 29.4238 46.1573 29.6129 45.9752 29.6662C45.1464 29.9089 44.3163 30.1875 43.5081 30.4941C43.4168 30.5277 43.3199 30.5216 43.2374 30.4836ZM49.9038 28.7055C49.8034 28.6592 49.7265 28.5671 49.7056 28.4523C49.672 28.2667 49.7964 28.092 49.9842 28.0619C50.8575 27.9217 51.7483 27.8143 52.6316 27.7418C52.8211 27.7261 52.9906 27.8654 53.0093 28.0527C53.0285 28.2396 52.8901 28.4042 52.7002 28.4195C51.8347 28.4902 50.9623 28.5959 50.1064 28.733C50.0353 28.7453 49.965 28.7339 49.9038 28.7055ZM56.6179 27.9859C56.6231 27.7981 56.782 27.6532 56.9724 27.6615C57.8588 27.7008 58.7566 27.7754 59.6404 27.8833C60.0958 27.9401 60.0199 28.6134 59.5671 28.5584C58.7012 28.4527 57.8217 28.3793 56.9532 28.3409C56.7633 28.3326 56.6126 28.1741 56.6179 27.9859ZM78.1831 36.9108C76.2299 35.1877 75.7636 35.1803 76.0771 34.7729C76.191 34.6244 76.4072 34.5978 76.56 34.7122C77.2713 35.248 77.9704 35.8182 78.6381 36.4073C78.9813 36.7095 78.5272 37.2138 78.1831 36.9108ZM63.5061 28.926C63.5502 28.7439 63.7363 28.6343 63.9218 28.6811C64.7847 28.8981 65.651 29.1513 66.4968 29.4339C66.9317 29.5793 66.7195 30.2229 66.2855 30.0775C65.4563 29.8007 64.6074 29.5526 63.762 29.3395C63.5747 29.2928 63.4625 29.1064 63.5061 28.926ZM72.5812 32.8979C70.3241 31.6027 69.8613 31.687 70.0831 31.222C70.2237 30.9272 70.5835 31.0665 70.542 31.0652C71.3489 31.4495 72.1493 31.8691 72.9209 32.3114C73.0868 32.4066 73.1454 32.6154 73.0515 32.7769C72.962 32.9315 72.758 32.9961 72.5812 32.8979Z" fill="#C6EEEF"/>
<path d="M82.0915 40.983C81.3597 40.0813 80.8885 39.7599 81.2409 39.4608C81.3837 39.3394 81.602 39.3556 81.7282 39.4997C82.5225 40.4018 82.9273 40.7677 82.5775 41.0411C82.4723 41.1232 82.2112 41.1302 82.0915 40.983Z" fill="#C6EEEF"/>
<path d="M89.564 66.3346C89.43 66.2725 89.3444 66.1306 89.3632 65.9795C89.4186 65.5359 89.4653 65.0866 89.502 64.6429C89.5177 64.456 89.6841 64.3194 89.8745 64.3382C90.064 64.3574 90.2059 64.5233 90.1906 64.7102C90.1531 65.1626 90.105 65.6215 90.0487 66.0743C90.0256 66.2603 89.8531 66.39 89.664 66.3638C89.6287 66.3586 89.595 66.3485 89.564 66.3346Z" fill="#C6EEEF"/>
<path d="M41.0571 91.5019C40.196 91.0761 39.3424 90.6098 38.5201 90.1155C38.356 90.0168 38.3018 89.8072 38.3992 89.6474C38.6734 89.1972 38.8376 89.6491 41.3575 90.8945C41.5292 90.9792 41.6008 91.184 41.5178 91.3517C41.3728 91.6451 41.0152 91.5006 41.0571 91.5019ZM45.1731 92.8678C45.3399 92.3687 45.6136 92.7782 48.3231 93.4577C48.5091 93.5035 48.6235 93.6895 48.5794 93.8712C48.5353 94.0533 48.3493 94.1629 48.1642 94.1166C47.2371 93.8843 46.3049 93.6096 45.394 93.3C45.2115 93.238 45.1141 93.0442 45.1731 92.8678ZM34.6697 87.4335C33.9226 86.834 33.1907 86.1956 32.4951 85.5363C32.3567 85.4048 32.3506 85.1896 32.4816 85.0551C32.851 84.6765 32.9095 85.152 35.1002 86.9087C35.2491 87.0283 35.274 87.2427 35.1553 87.3877C35.0361 87.5322 34.819 87.5527 34.6697 87.4335ZM52.6678 94.9196C52.5368 94.8594 52.4517 94.7222 52.4661 94.5733C52.4845 94.3869 52.653 94.2524 52.8425 94.2738C53.7765 94.3782 54.7241 94.4441 55.659 94.4703C55.8502 94.4755 56.0026 94.6323 56.0004 94.8196C55.9982 95.0074 55.8423 95.1554 55.6515 95.1502C54.697 95.1235 53.7298 95.0563 52.7766 94.9497C52.7381 94.9454 52.7015 94.9349 52.6678 94.9196ZM60.1316 94.9345C60.026 94.8856 59.9465 94.7856 59.9308 94.6633C59.9068 94.4768 60.0408 94.3087 60.2299 94.2882C61.1582 94.1882 62.0935 94.0476 63.0105 93.8703C63.197 93.8341 63.3804 93.9546 63.4201 94.1389C63.4598 94.3231 63.3411 94.5017 63.1546 94.538C62.2189 94.7187 61.2643 94.8624 60.3168 94.9646C60.2508 94.9716 60.1875 94.9602 60.1316 94.9345ZM67.3898 93.335C67.3077 93.297 67.24 93.228 67.2068 93.1372C67.1422 92.9594 67.2352 92.766 67.4142 92.7053C68.2949 92.4071 69.1735 92.0682 70.0254 91.6979C70.1988 91.6228 70.4036 91.701 70.483 91.873C70.5625 92.0451 70.4865 92.246 70.3132 92.3211C69.4438 92.6988 68.5473 93.0446 67.6487 93.349C67.5609 93.3791 67.4688 93.3717 67.3898 93.335ZM74.0946 90.2089C74.0352 90.1814 73.9828 90.1373 73.9453 90.0788C73.8431 89.9186 73.8907 89.709 74.0518 89.6112C74.8426 89.1304 75.6221 88.6095 76.3683 88.0641C76.5203 87.9532 76.7364 87.9855 76.8521 88.1374C76.9674 88.289 76.9381 88.5016 76.7862 88.6125C76.0247 89.1693 75.2295 89.7007 74.4221 90.1915C74.3199 90.2535 74.1972 90.2561 74.0946 90.2089ZM79.8205 85.6336C79.4411 85.2542 79.9218 85.2175 81.7265 83.136C82.0204 82.7967 82.5492 83.2438 82.2549 83.5831C81.6392 84.2931 80.9847 84.9856 80.3087 85.6415C80.1747 85.7712 79.9563 85.769 79.8205 85.6336ZM84.5386 80.0055C84.0845 79.7165 84.5412 79.5794 85.8311 77.1472C86.0403 76.7529 86.6547 77.0738 86.4442 77.4703C86.004 78.3004 85.5233 79.12 85.0146 79.9073C84.9115 80.0667 84.6954 80.1073 84.5386 80.0055ZM87.8397 73.4648C87.6773 73.3902 87.5956 73.2046 87.6568 73.0378C87.9729 72.1697 88.2541 71.2811 88.4934 70.3973C88.5423 70.2165 88.7314 70.1117 88.9157 70.1628C89.1004 70.2152 89.2095 70.4021 89.1606 70.5829C88.9165 71.485 88.6292 72.3915 88.307 73.2771C88.2432 73.4531 88.0454 73.5417 87.8659 73.4758C87.8568 73.4723 87.848 73.4688 87.8397 73.4648Z" fill="#C6EEEF"/>
<path d="M29.3105 82.0761C28.5577 81.1381 28.1713 80.7556 28.5342 80.4989C28.9114 80.2312 29.0787 80.6993 29.8494 81.6604C29.9686 81.8088 29.9446 82.0228 29.7961 82.1376C29.6468 82.252 29.4298 82.2245 29.3105 82.0761Z" fill="#C6EEEF"/>
<path d="M33.6863 73.7764L38.6288 73.5166C39.9973 75.3781 41.6732 77.0435 43.6212 78.426C43.4779 83.1637 43.1321 83.486 43.6251 83.6899L49.1383 85.9705C49.2994 86.0369 49.4842 85.9963 49.5977 85.8692L52.8434 82.2406C55.1969 82.6375 57.5562 82.6415 59.836 82.2891L63.1581 85.9679C63.2747 86.0967 63.4598 86.14 63.6196 86.0758L69.0875 83.875C69.2473 83.8108 69.3464 83.6528 69.3342 83.482L68.9844 78.6072C70.8502 77.2911 72.5113 75.6685 73.8811 73.7734L78.8262 74.1048C78.9996 74.1166 79.1594 74.0183 79.2245 73.8611L81.444 68.468C81.5091 68.3104 81.4645 68.1278 81.3331 68.0134L77.5931 64.752C77.9551 62.4395 77.9184 60.1147 77.5206 57.8624C81.0445 54.6526 81.5056 54.6823 81.2986 54.2002C78.9206 48.918 79.1074 48.4957 78.566 48.5241L73.6235 48.7839C72.255 46.9224 70.5791 45.257 68.6312 43.8746C68.7744 39.1394 69.1206 38.8146 68.6272 38.6107C63.1105 36.4387 63.0031 36.0409 62.6542 36.4313L59.4085 40.0599C57.0549 39.663 54.6957 39.6586 52.4159 40.0115C49.1366 36.5265 49.1257 36.0265 48.6327 36.2248C43.2605 38.498 42.8806 38.2919 42.9181 38.8185L43.2679 43.6933C41.4021 45.0094 39.741 46.6321 38.3712 48.5276C33.644 48.3079 33.23 47.9473 33.0274 48.4398C30.928 53.8146 30.5144 53.9347 30.9188 54.2875L34.6588 57.5489C34.2968 59.861 34.3339 62.1858 34.7312 64.4385C31.2196 67.6375 30.7454 67.6165 30.9533 68.1008C33.3318 73.3826 33.1449 73.8048 33.6863 73.7764Z" fill="#C6EEEF"/>
<path d="M50.3841 60.281C50.8155 57.1694 53.7424 55.0276 56.9086 55.507C60.0744 55.9874 62.2996 58.9077 61.8686 62.0193C61.4372 65.131 58.5103 67.2728 55.3441 66.7933C52.177 66.3143 49.9527 63.3918 50.3841 60.281ZM55.4139 66.289L55.417 66.2903L55.4139 66.289ZM56.7684 56.5157C54.1987 56.1267 51.7696 57.8427 51.4102 60.4365C51.0557 62.9922 52.8831 65.3921 55.4838 65.7851C58.0841 66.1785 60.4879 64.4197 60.8425 61.8643C61.197 59.3046 59.3644 56.9078 56.7684 56.5157Z" fill="#74A1BB"/>
<path d="M50.1304 74.3331C49.3497 73.9733 48.6 73.5493 47.8961 73.0677C47.6843 72.9232 47.6122 72.6537 47.7135 72.4332C47.7258 72.407 47.7402 72.3813 47.7572 72.3568C47.9175 72.1263 48.2402 72.0712 48.4764 72.2324C49.2859 72.786 50.161 73.2585 51.0762 73.6375C57.9711 76.4898 65.8139 73.4729 68.8395 66.9082C68.9168 66.7405 68.9906 66.5707 69.0617 66.3982C71.9253 59.4392 68.4587 51.4719 61.4001 48.5498C54.3507 45.6338 46.2743 48.8498 43.4151 55.7891C41.7156 59.9204 42.7383 62.846 42.5431 63.27C42.3322 63.728 41.6396 63.6237 41.5593 63.1241C41.1209 60.3946 41.4654 57.5087 42.6933 54.8438C47.9921 43.3461 64.8545 43.8164 69.9088 55.5913C71.4642 59.2152 71.5048 63.194 70.0228 66.796C69.9464 66.9824 69.8661 67.1667 69.7822 67.3488C68.2461 70.6831 65.5248 73.2664 62.0625 74.6602C58.4112 76.13 54.3726 76.1003 50.6907 74.5772C50.5016 74.4999 50.3147 74.4183 50.1304 74.3331Z" fill="#74A1BB"/>
<path d="M93.1673 52.7252C94.0026 53.7099 95.0013 54.5688 96.1392 55.2544L96.1947 58.0171C96.2008 58.3236 96.4628 58.2053 99.5089 59.2467C99.791 59.3376 99.7595 59.0743 101.42 56.9573C102.744 57.0661 104.056 56.9525 105.309 56.6412L107.304 58.5568C107.526 58.7695 107.626 58.5 110.517 57.0831C110.603 57.039 110.652 56.9447 110.638 56.849L110.249 54.1116C111.233 53.2763 112.092 52.2777 112.778 51.1393C115.417 51.031 115.66 51.2135 115.752 50.9262C116.705 47.7827 116.929 47.6971 116.691 47.5181L114.481 45.8588C114.589 44.5344 114.476 43.2223 114.164 41.9691L116.08 39.9748C116.293 39.7539 116.023 39.6522 114.606 36.7619C114.472 36.4995 114.319 36.7052 111.634 37.03C110.799 36.0454 109.801 35.1865 108.663 34.5009L108.607 31.7382C108.601 31.4312 108.339 31.55 105.293 30.5085C105.013 30.4182 105.051 30.6701 103.382 32.7984C102.058 32.6896 100.746 32.8032 99.4927 33.1145L97.4985 31.1989C97.4287 31.1317 97.3239 31.1164 97.2374 31.1605L94.2856 32.6726C94.1996 32.7167 94.1507 32.811 94.1642 32.9067L94.5537 35.6441C93.569 36.4794 92.7101 37.4776 92.0246 38.6164C89.3854 38.7247 89.1426 38.5422 89.0501 38.8295C88.0973 41.9717 87.8728 42.0581 88.1117 42.2376L90.3216 43.8969C90.2129 45.2213 90.3264 46.5334 90.6378 47.7867C88.8479 49.7293 88.5457 49.7721 88.6837 50.0416L90.1959 52.9934C90.3308 53.2575 90.4967 53.0488 93.1673 52.7252Z" fill="#C6EEEF"/>
<path d="M98.947 44.6541C99.071 42.7454 100.715 41.3005 102.625 41.4241C104.533 41.5477 105.978 43.1926 105.855 45.1012C105.731 47.0055 104.081 48.4543 102.177 48.3312C100.273 48.208 98.8239 46.5588 98.947 44.6541ZM102.21 47.8168L102.213 47.8181L102.21 47.8168ZM99.9762 44.7205C99.8898 46.0575 100.907 47.2155 102.243 47.302C104.39 47.4408 105.651 44.8964 104.226 43.2747C102.808 41.6604 100.116 42.5603 99.9762 44.7205Z" fill="#74A1BB"/>
<path d="M85.0298 50.0551C84.8966 49.6097 84.7796 49.153 84.6818 48.6975C84.642 48.5119 84.7599 48.329 84.9455 48.2893C85.4128 48.1888 85.3464 48.7106 85.6887 49.8586C85.7433 50.0407 85.6394 50.2319 85.4577 50.2865C85.2765 50.3407 85.0844 50.238 85.0298 50.0551Z" fill="#C6EEEF"/>
<path d="M84.2945 44.1174C84.3329 43.2052 84.4421 42.2555 84.6316 41.3053C84.7207 40.8582 85.3949 40.9953 85.3058 41.4402C84.8137 43.9021 85.1979 44.5003 84.6229 44.4759C84.432 44.4671 84.2866 44.306 84.2945 44.1174ZM86.2573 37.4081C86.0865 37.3252 86.0154 37.1191 86.0983 36.9483C86.5105 36.1016 86.9935 35.2799 87.5341 34.5061C87.7947 34.1336 88.3585 34.5271 88.0978 34.9C87.5777 35.644 87.1131 36.4344 86.7166 37.2492C86.5712 37.5492 86.2158 37.4073 86.2573 37.4081ZM90.7003 31.6766C90.6566 31.6565 90.6164 31.6268 90.5832 31.5879C90.4597 31.4434 90.4767 31.2268 90.6208 31.1028C91.3373 30.4897 92.1072 29.9282 92.9093 29.4343C93.0709 29.3348 93.2831 29.3854 93.3822 29.5465C93.4818 29.7081 93.4315 29.9203 93.27 30.0194C92.4984 30.495 91.7574 31.0351 91.0679 31.625C90.9627 31.7154 90.8186 31.7307 90.7003 31.6766ZM97.0519 28.1815C96.9659 28.1418 96.8969 28.0671 96.8667 27.9698C96.8108 27.7881 96.913 27.596 97.0947 27.5405C97.9959 27.2646 98.926 27.0576 99.86 26.9266C100.048 26.9004 100.222 27.0314 100.249 27.2196C100.275 27.4074 100.144 27.5816 99.9556 27.6078C99.0574 27.734 98.1627 27.9327 97.296 28.1981C97.2126 28.2239 97.1261 28.2156 97.0519 28.1815ZM104.074 27.1702C104.096 26.9816 104.266 26.8458 104.455 26.8672C105.394 26.9738 106.33 27.1541 107.236 27.4039C107.674 27.5222 107.493 28.1877 107.053 28.0667C106.181 27.8265 105.281 27.6528 104.377 27.5506C104.184 27.5279 104.054 27.355 104.074 27.1702Z" fill="#C6EEEF"/>
<path d="M112.284 30.5055C111.245 29.7898 110.788 29.716 111.021 29.3143C111.116 29.1501 111.323 29.0911 111.491 29.1894C111.892 29.4217 112.29 29.6741 112.675 29.9391C112.831 30.047 112.87 30.2609 112.762 30.4173C112.656 30.5714 112.444 30.6146 112.284 30.5055Z" fill="#C6EEEF"/>
<path d="M119.701 42.6511C119.54 41.3953 119.29 41.0089 119.745 40.9146C119.931 40.8757 120.113 40.9953 120.152 41.1813C120.246 41.635 120.324 42.1005 120.383 42.5638C120.407 42.752 120.274 42.9245 120.086 42.9485C119.897 42.9729 119.725 42.8398 119.701 42.6511Z" fill="#C6EEEF"/>
<path d="M96.4733 61.6462C96.6528 61.1039 97.0593 61.6624 99.5094 62.0715C99.957 62.1453 99.8461 62.8247 99.3963 62.7496C98.4802 62.5968 97.5702 62.3715 96.6916 62.0807C96.5144 62.0226 96.4126 61.8287 96.4733 61.6462ZM103.54 62.6243C103.525 62.4353 103.665 62.2689 103.855 62.2536C106.352 62.0484 106.78 61.5248 106.915 62.082C106.96 62.2667 106.846 62.4523 106.661 62.4968C105.761 62.7143 104.836 62.8632 103.911 62.9387C103.722 62.9544 103.556 62.8138 103.54 62.6243ZM110.421 60.7515C110.153 60.2454 110.832 60.3424 112.828 58.8525C113.192 58.5809 113.604 59.1315 113.239 59.4035C112.496 59.9585 111.704 60.4602 110.886 60.8938C110.719 60.9829 110.511 60.9196 110.421 60.7515ZM116.014 56.3229C115.568 55.9614 116.233 55.7854 117.485 53.6331C117.713 53.2401 118.308 53.5851 118.08 53.9789C117.614 54.7798 117.082 55.5509 116.498 56.2723C116.377 56.4198 116.161 56.4421 116.014 56.3229ZM119.183 49.6303C119.863 47.2212 119.523 46.633 120.093 46.7029C120.282 46.7256 120.416 46.8972 120.393 47.0859C120.28 48.0089 120.096 48.9281 119.845 49.8176C119.793 50.0001 119.603 50.1067 119.42 50.0551C119.238 50.0027 119.131 49.8132 119.183 49.6303Z" fill="#C6EEEF"/>
<path d="M92.5984 60.1226C92.2071 59.8703 91.8207 59.6 91.4508 59.3188C91.2998 59.2039 91.2701 58.9882 91.3849 58.8367C91.6744 58.4559 91.9617 58.8939 92.9708 59.5441C93.1302 59.6471 93.1765 59.8598 93.0734 60.0196C92.9695 60.1816 92.7551 60.2239 92.5984 60.1226Z" fill="#C6EEEF"/>
<path d="M98.2059 52.223C97.9225 52.061 97.8653 51.741 97.9998 51.5082C98.1426 51.2615 98.4605 51.1781 98.7046 51.32C99.1622 51.5846 99.6526 51.8025 100.162 51.9672C100.274 51.9807 102.894 53.0265 105.874 51.5052C111.783 48.4774 111.085 39.7543 104.758 37.7151C101.119 36.5414 97.2235 38.3129 95.6615 41.7035C94.0883 45.1182 95.8668 46.8945 94.7782 47.1465C94.5009 47.2111 94.2236 47.0382 94.159 46.7609C93.8114 45.264 93.8782 43.6964 94.3524 42.2266C95.7908 37.7636 100.598 35.2899 105.075 36.7335C109.893 38.2867 112.351 43.7335 110.191 48.4224C108.449 52.2043 104.066 54.3103 99.8452 52.9488C99.2744 52.7641 98.7225 52.52 98.2059 52.223Z" fill="#74A1BB"/>
<path d="M96.7957 64.5553C96.7826 64.3941 96.618 64.2548 96.3394 64.1426C96.6424 63.9754 96.8096 63.7968 96.7957 63.6208C96.7529 63.0894 95.0704 62.7916 93.0378 62.9558C91.0051 63.1195 89.3921 63.6833 89.4349 64.2142C89.448 64.3754 89.6126 64.5147 89.8912 64.6269C89.5882 64.7941 89.4209 64.9727 89.4349 65.1487C89.448 65.3098 89.6126 65.4491 89.8912 65.5613C89.5882 65.7281 89.4209 65.9072 89.4349 66.0827C89.448 66.2438 89.6126 66.3831 89.8912 66.4953C89.5882 66.6626 89.4209 66.8412 89.4349 67.0171C89.4537 67.2521 89.7938 67.4411 90.3427 67.5651C90.3357 67.7389 90.3397 67.9289 90.3567 68.1393C90.4362 69.1183 91.5374 69.886 92.9937 69.886C94.4499 69.886 95.7106 68.8393 95.725 67.8573C95.7285 67.6167 95.7184 67.4049 95.6966 67.2167C96.3935 66.9839 96.8179 66.6997 96.7957 66.4242C96.7826 66.263 96.618 66.1237 96.3394 66.0119C96.6424 65.8451 96.8096 65.6661 96.7957 65.4901C96.7826 65.329 96.618 65.1897 96.3394 65.0779C96.642 64.9098 96.8096 64.7308 96.7957 64.5553Z" fill="black"/>
<path d="M92.0972 67.7759C91.4938 67.7759 90.9414 67.7314 90.4851 67.6441C90.4585 67.6388 90.4414 67.6135 90.4462 67.5869C90.4515 67.5602 90.4768 67.5432 90.5034 67.548C91.2174 67.6847 92.1715 67.7148 93.1889 67.6327C94.0216 67.5655 94.8006 67.4314 95.4412 67.2441C95.4669 67.2367 95.494 67.2515 95.5019 67.2773C95.5093 67.303 95.4944 67.3301 95.4687 67.338C94.8215 67.5266 94.036 67.6624 93.1967 67.7301C92.8186 67.7611 92.4492 67.7759 92.0972 67.7759Z" fill="url(#paint0_linear_77_3743)"/>
<path d="M92.1073 66.841C91.323 66.841 90.6222 66.7672 90.1279 66.6266C90.1021 66.6192 90.0869 66.5921 90.0943 66.5664C90.1017 66.5406 90.1288 66.5253 90.1545 66.5328C90.8589 66.7332 91.9933 66.7956 93.1889 66.6991C94.3713 66.6039 95.4743 66.3638 96.1394 66.0572C96.1638 66.0459 96.1931 66.0568 96.204 66.0812C96.2153 66.1057 96.2044 66.1345 96.18 66.1459C95.5053 66.4572 94.3901 66.7004 93.1967 66.7965C92.8243 66.8266 92.4575 66.841 92.1073 66.841Z" fill="url(#paint1_linear_77_3743)"/>
<path d="M92.0972 65.9079C91.2505 65.9079 90.5095 65.8214 90.0104 65.6568C89.9847 65.6485 89.9707 65.6205 89.9794 65.5952C89.9877 65.5695 90.0152 65.5555 90.041 65.5642C90.7353 65.793 91.9116 65.8681 93.1884 65.7655C94.3709 65.6703 95.4739 65.4302 96.1389 65.1236C96.1634 65.1123 96.1926 65.1232 96.2035 65.1477C96.2149 65.1721 96.204 65.2009 96.1795 65.2123C95.5049 65.5236 94.3892 65.7668 93.1963 65.8629C92.8186 65.893 92.4487 65.9079 92.0972 65.9079Z" fill="url(#paint2_linear_77_3743)"/>
<path d="M92.1038 64.9734C91.4322 64.9734 90.8213 64.9193 90.3462 64.8136C90.32 64.8079 90.3034 64.7817 90.3091 64.7555C90.3148 64.7293 90.341 64.7127 90.3672 64.7184C91.0815 64.8769 92.1099 64.9184 93.1889 64.831C94.3608 64.7367 95.4582 64.4992 96.1241 64.1961C96.1485 64.1848 96.1773 64.1957 96.1887 64.2202C96.2001 64.2446 96.1891 64.2734 96.1647 64.2848C95.4892 64.5922 94.3796 64.8328 93.1967 64.9284C92.8229 64.9585 92.4553 64.9734 92.1038 64.9734Z" fill="url(#paint3_linear_77_3743)"/>
<path d="M88.0708 59.8401C87.8241 58.9659 87.4045 58.1485 86.8399 57.4368C85.6299 55.912 83.6558 52.8104 83.413 48.5779C83.0598 42.421 88.5197 39.3386 93.5024 39.7574C98.4851 40.1757 103.401 43.886 102.863 49.6136C102.532 53.1379 100.56 55.8111 99.0912 57.3459C98.1585 58.3206 97.4935 59.5148 97.1332 60.8148C96.6926 62.4059 95.6438 64.3892 93.1505 64.5102C89.9244 64.6669 88.5848 61.6597 88.0708 59.8401Z" fill="#74FCFD"/>
<path d="M93.9745 63.2828L95.7181 51.9437C95.7539 51.7096 95.8696 51.552 95.9757 51.5922C96.0818 51.6324 96.1386 51.8551 96.1028 52.0891C96.1019 52.0952 96.1006 52.1031 96.0993 52.1092L94.1133 63.3431C94.0985 63.4274 94.0557 63.4811 94.0177 63.4623C93.9806 63.444 93.9622 63.3645 93.9745 63.2828Z" fill="#597B8E"/>
<path d="M92.1649 63.3727L90.4213 52.0335C90.3851 51.7995 90.2698 51.6419 90.1637 51.682C90.0576 51.7222 90.0008 51.9449 90.0366 52.179C90.0375 52.1851 90.0388 52.1929 90.0401 52.199L92.026 63.4329C92.0409 63.5172 92.0837 63.5709 92.1217 63.5521C92.1588 63.5342 92.1771 63.4543 92.1649 63.3727Z" fill="#597B8E"/>
<path d="M95.7053 50.97C95.6612 50.8988 95.5586 50.8721 95.4765 50.9106L94.5059 51.3643L94.1688 50.404C94.1509 50.3538 94.1098 50.3097 94.0509 50.2853C93.9391 50.2394 93.8055 50.2805 93.7526 50.3774L93.7509 50.3805L92.9527 51.8363L92.2117 49.7639L92.2104 49.7604C92.192 49.7098 92.154 49.6643 92.0981 49.6338C91.9741 49.5661 91.8099 49.5984 91.7318 49.7058L90.6157 51.2424C90.5703 51.3053 90.586 51.3896 90.655 51.4363C90.7288 51.4861 90.8349 51.4743 90.8925 51.4105L91.8754 50.3145L92.7601 52.2856L92.761 52.2869C92.7754 52.3184 92.802 52.3459 92.8391 52.3633C92.9221 52.4022 93.0256 52.3756 93.0706 52.3035L93.9242 50.9333L94.2456 51.6262L94.2482 51.6324C94.2504 51.6372 94.253 51.6424 94.2561 51.6472C94.3002 51.7184 94.4028 51.745 94.4849 51.7066L95.6372 51.1682C95.7189 51.1298 95.7499 51.0411 95.7053 50.97Z" fill="white"/>
<path d="M99.1292 55.8845C99.0834 55.8845 99.0371 55.8705 98.9973 55.8408C98.8991 55.7679 98.8786 55.6294 98.9515 55.5312C99.2484 55.1312 99.5205 54.7181 99.7602 54.3029C99.8213 54.1972 99.9567 54.161 100.062 54.2221C100.168 54.2832 100.205 54.4186 100.143 54.5243C99.8951 54.9539 99.6135 55.3819 99.3065 55.7954C99.2637 55.8535 99.1969 55.8845 99.1292 55.8845Z" fill="white"/>
<path d="M100.563 53.4231C100.534 53.4231 100.504 53.417 100.475 53.4048C100.363 53.3559 100.311 53.2257 100.36 53.1135C102.202 48.8709 100.613 45.31 100.597 45.2742C100.546 45.1633 100.595 45.0319 100.706 44.9808C100.817 44.9301 100.949 44.9786 100.999 45.0895C101.069 45.2415 102.686 48.8675 100.766 53.2895C100.73 53.3733 100.649 53.4231 100.563 53.4231Z" fill="white"/>
<path d="M63.707 134.089C63.707 134.089 63.4193 135.631 63.2712 137.159C63.2132 137.756 63.669 138.279 64.2681 138.31C66.3038 138.414 70.6577 138.621 72.2214 138.566C72.4563 138.557 72.6122 138.319 72.5275 138.099C72.4563 137.915 72.3175 137.766 72.1389 137.681L64.9755 134.306L63.707 134.089Z" fill="black"/>
<path d="M63.4922 133.179L63.6939 135.029C63.6939 135.029 64.9489 135.627 65.8156 134.975L65.3135 132.911L63.4922 133.179Z" fill="url(#paint4_linear_77_3743)"/>
<path d="M63.9883 98.4435C63.8891 98.9251 63.2503 122.517 65.6716 133.116C65.7109 133.289 65.6218 133.466 65.4572 133.531C65.069 133.685 64.3083 133.907 63.3992 133.929C63.1176 133.936 62.8669 133.75 62.7901 133.48C62.0927 131.019 58.7549 118.694 58.4165 106.947C58.0379 93.8214 58.4209 106.501 58.4209 106.501L58.7938 98.3928L63.9883 98.4435Z" fill="black"/>
<path d="M55.4228 134.816C55.4228 134.816 54.9809 135.591 54.5408 137.66C54.4613 138.033 54.7194 138.394 55.0988 138.435C55.7704 138.507 56.8048 138.602 57.634 138.605C58.0161 138.605 58.3178 138.276 58.2755 137.896C58.1908 137.139 57.9166 135.895 57.0419 134.919L55.4228 134.816Z" fill="black"/>
<path d="M55.0638 132.435L55.5494 135.234C55.5494 135.234 56.0524 135.616 57.0568 135.352L56.841 132.344L55.0638 132.435Z" fill="url(#paint5_linear_77_3743)"/>
<path d="M53.9984 99.0722C51.8169 111.502 54.1521 129.846 54.9647 133.44C55.0145 133.66 55.1901 133.83 55.4123 133.869C55.7896 133.935 56.4114 133.992 57.0266 133.82C57.2384 133.761 57.3891 133.572 57.3995 133.352C57.5406 130.453 57.5061 112.655 59.4955 105.639C59.5964 105.284 59.8169 104.975 60.1204 104.764L63.8765 102.148L64.2035 97.863L53.9984 99.0722Z" fill="black"/>
<path d="M67.368 75.6078C61.1871 75.4467 54.3495 77.1068 54.3495 77.1068C52.4042 87.8416 53.8063 100.258 53.8063 100.258C58.5802 101.559 63.9983 99.5878 63.9983 99.5878C64.8367 95.1011 68.6688 82.4882 68.6688 82.4882C71.6926 82.1424 74.1894 81.2944 76.2496 80.1617C74.7038 78.3352 73.989 76.0226 73.6821 74.6567C71.4896 75.3157 69.2744 75.6576 67.368 75.6078Z" fill="#74FCFD"/>
<path d="M85.7155 66.6764C85.1151 65.9372 84.3431 66.2769 84.3431 66.2769C83.3968 70.1112 78.5967 73.1813 73.6816 74.6577C73.9886 76.0235 74.7034 78.3361 76.2492 80.1626C84.426 75.6672 85.7155 66.6764 85.7155 66.6764Z" fill="url(#paint6_linear_77_3743)"/>
<path d="M85.5661 66.8616C85.6277 67.0642 84.8889 67.3647 84.4635 66.5346C84.4522 66.1385 84.2278 64.4399 84.4675 64.1194C85.7438 62.4134 88.2079 60.283 88.2079 60.283C88.617 60.6943 88.2729 61.0912 88.2729 61.0912L87.0761 62.3147C87.3197 62.7649 87.6184 63.1461 87.7551 63.6893C87.8585 64.1007 87.7887 64.5386 87.5778 64.9102C87.366 65.2831 87.0778 65.7674 86.8058 66.1464C86.2905 66.8629 85.5661 66.8616 85.5661 66.8616Z" fill="url(#paint7_linear_77_3743)"/>
<path d="M86.5495 63.1108L85.4604 64.016L85.1124 64.9243L86.0652 66.002C86.0652 66.002 86.4062 64.1964 86.6508 63.8069C86.8957 63.4182 86.7726 63.2274 86.5495 63.1108Z" fill="url(#paint8_linear_77_3743)"/>
<path d="M56.6633 83.1158L54.3495 77.1074C54.3495 77.1074 48.5375 80.9758 47.5406 85.941C48.631 86.0318 50.6134 86.3344 52.5478 87.3344C52.9967 84.9895 56.6633 83.1158 56.6633 83.1158Z" fill="#74FCFD"/>
<path d="M61.6556 88.7967C61.6556 88.7967 55.1376 92.3986 52.9797 89.2495C52.5316 88.5954 52.4295 87.9487 52.5469 87.3343C50.613 86.3343 48.6301 86.0317 47.5398 85.9409C47.2394 87.4378 47.3752 89.0342 48.241 90.6546C52.0059 97.7005 62.4979 90.4031 62.4979 90.4031L61.6556 88.7967Z" fill="url(#paint9_linear_77_3743)"/>
<path d="M61.1539 70.5295L59.1326 76.1991C59.099 76.293 59.137 76.3978 59.2239 76.4467C59.7571 76.7484 61.681 77.6235 64.0228 76.1699C64.2668 76.0183 64.4341 75.769 64.4738 75.4847L65.1576 70.5675L61.1539 70.5295Z" fill="url(#paint10_linear_77_3743)"/>
<path d="M65.4843 65.3025C65.4843 65.3025 67.6056 69.3892 67.313 71.0288C67.0204 72.6685 64.3446 72.5252 62.0198 71.169L60.4282 66.7631L65.4843 65.3025Z" fill="url(#paint11_linear_77_3743)"/>
<path d="M62.1434 69.014C62.2386 68.9729 62.2748 68.8568 62.2189 68.7694C62.0482 68.5035 61.729 67.9612 61.6303 67.4879C61.6303 67.4879 61.2443 67.2355 62.6242 66.9189C64.004 66.6027 66.0615 66.1106 66.5043 64.943C66.9357 63.8046 65.858 60.921 64.0725 63.1933C64.0044 63.2798 63.873 63.2807 63.8071 63.1925C63.5215 62.8134 62.7691 62.0253 61.7094 62.4886C60.7177 62.9222 60.5994 63.6448 60.6094 64.0094C60.6125 64.1169 60.5155 64.1994 60.4103 64.178C59.9121 64.078 58.7147 63.985 58.1436 65.2085C57.6733 66.2163 57.9672 66.7923 58.237 67.0752C58.3244 67.1669 58.2842 67.3162 58.1628 67.352C57.8336 67.4494 57.4074 67.7236 57.4423 68.4926C57.4908 69.5559 58.6798 69.4738 59.0187 69.4284C59.0741 69.4209 59.13 69.4406 59.1671 69.4825C59.454 69.8061 60.7483 71.1815 62.1609 71.3597C62.2831 71.375 62.3792 71.2549 62.3403 71.1379L61.7452 69.3528C61.7176 69.2698 61.7578 69.1795 61.8382 69.145L62.1434 69.014Z" fill="black"/>
<path d="M62.3871 69.2689C62.3871 69.2689 60.8592 68.1991 60.7382 69.0864C60.6173 69.9737 62.1107 70.3868 62.8556 70.0623L62.3871 69.2689Z" fill="url(#paint12_linear_77_3743)"/>
<path d="M60.3238 94.4893L63.8743 82.0895C63.9144 81.9489 64.0345 81.8463 64.1799 81.8293C64.8231 81.7542 66.6872 81.5433 68.8395 81.3616C71.4319 81.1424 74.4427 80.9647 76.2417 81.1158C76.4976 81.1372 76.6522 81.4079 76.5382 81.638C75.5151 83.7078 71.307 92.1274 69.1997 94.8854C69.1299 94.9766 69.022 95.0303 68.9067 95.029L60.6687 94.9522C60.4295 94.9495 60.2579 94.7199 60.3238 94.4893Z" fill="#AED9DA"/>
<path d="M61.1814 91.4933C61.1814 91.4933 60.6866 89.4593 60.8862 88.738C61.0857 88.0162 61.4722 87.0887 62.7607 87.2948C64.0493 87.5009 65.5693 88.0437 65.5693 88.0437C65.5693 88.0437 65.4925 88.9834 64.5131 88.6803L65.1204 89.1502C65.1204 89.1502 65.0336 89.9025 64.2065 89.5008L64.7711 90.1239C64.7711 90.1239 64.4157 90.7418 63.8074 90.3457C63.1992 89.9493 62.9075 91.7383 61.1814 91.4933Z" fill="url(#paint13_linear_77_3743)"/>
<path d="M68.6033 85.0628C68.6033 85.6383 69.0701 86.1051 69.6456 86.1051C70.2211 86.1051 70.6879 85.6383 70.6879 85.0628C70.6879 84.4873 70.2211 84.0205 69.6456 84.0205C69.0696 84.0205 68.6033 84.4873 68.6033 85.0628Z" fill="#C6EEEF"/>
<path d="M64.2759 85.7501L64.01 85.6715L64.7327 83.2192C64.8506 82.8197 65.1728 82.5197 65.5741 82.4363C67.8657 81.9578 73.9008 81.8604 74.1562 81.8564L74.1606 82.1337C74.0981 82.1346 67.8963 82.235 65.6309 82.7075C65.33 82.7704 65.0877 82.9961 64.9986 83.2974L64.2759 85.7501Z" fill="#C6EEEF"/>
<path d="M22.2542 120.451C21.8756 121.012 20.3713 133.692 20.136 138.376C20.1198 138.692 20.3735 138.956 20.6905 138.956C20.9639 138.956 21.1966 138.757 21.239 138.487L23.9904 120.855L22.2542 120.451Z" fill="#C6EEEF"/>
<path d="M34.3488 120.451C34.7274 121.012 36.2317 133.692 36.4671 138.376C36.4832 138.692 36.2295 138.956 35.9125 138.956C35.6391 138.956 35.4064 138.757 35.3641 138.487L32.6127 120.855L34.3488 120.451Z" fill="#C6EEEF"/>
<path d="M19.9788 119.462L19.9775 119.6C19.9683 120.595 20.8255 121.411 21.8988 121.429L34.6164 121.646C35.674 121.663 36.5556 120.899 36.6072 119.92L36.6137 119.793C36.6674 118.772 35.7998 117.911 34.6968 117.892L21.9735 117.664C20.8844 117.644 19.988 118.452 19.9788 119.462Z" fill="#C6EEEF"/>
<path d="M46.7696 137.915C44.509 137.915 43.5086 137.721 43.061 137.544C43.1479 137.915 43.4785 138.208 43.8964 138.208H51.8942C52.1636 138.208 52.3335 137.951 52.2693 137.717C51.358 137.79 49.4214 137.915 46.7696 137.915Z" fill="#C6EEEF"/>
<path d="M52.2697 137.717C52.2566 137.67 52.2378 137.624 52.2042 137.581C51.595 136.803 50.3711 135.581 48.7061 135.605C46.2674 135.64 45.4168 135.904 43.5217 135.62L43.0745 137.102C43.0291 137.253 43.0283 137.404 43.061 137.544C43.5081 137.721 44.5085 137.915 46.7695 137.915C49.4214 137.915 51.3579 137.791 52.2697 137.717Z" fill="#597B8E"/>
<path d="M44.0705 134.023L43.5216 135.89C43.5216 135.89 44.7373 136.443 45.8066 135.999L46.0167 134.382L44.0705 134.023Z" fill="url(#paint14_linear_77_3743)"/>
<path d="M60.6474 136.739C58.885 138.155 57.9842 138.631 57.5253 138.774C57.8244 139.008 58.265 139.028 58.5907 138.766L64.8253 133.757C65.0353 133.588 65.007 133.282 64.8113 133.141C64.1467 133.769 62.7145 135.078 60.6474 136.739Z" fill="#C6EEEF"/>
<path d="M64.8117 133.141C64.7724 133.113 64.7283 133.089 64.6759 133.077C63.7162 132.855 62.0005 132.674 60.7176 133.735C58.8378 135.289 58.34 136.027 56.6855 136.994L57.2606 138.424C57.3191 138.569 57.4126 138.687 57.5257 138.775C57.9846 138.632 58.8854 138.156 60.6478 136.74C62.7145 135.078 64.1467 133.769 64.8117 133.141Z" fill="#597B8E"/>
<path d="M32.3305 112.757C32.3305 112.757 45.866 113.862 48.6427 115.169C51.4194 116.476 46.3765 134.796 46.3765 134.796C46.3765 134.796 45.6206 135.16 43.9386 134.637C43.9386 134.637 45.6634 121.118 44.3801 118.186L29.725 115.789L32.3305 112.757Z" fill="black"/>
<path d="M55.3402 134.42C55.466 134.534 56.6851 136.993 56.6851 136.993C56.6851 136.993 58.0422 136.7 58.3191 135.84L57.0978 133.621L55.3402 134.42Z" fill="url(#paint15_linear_77_3743)"/>
<path d="M24.1782 112.644C24.1782 112.644 23.7371 113.705 23.755 115.116C23.7799 117.066 25.348 118.649 27.2963 118.747L43.2972 119.476C43.6352 119.491 43.9212 119.726 44.0059 120.053C44.3819 121.508 46.2198 125.974 55.204 134.886C55.4428 135.123 55.8153 135.163 56.1 134.984L57.379 134.176C57.513 134.091 57.5563 133.915 57.4759 133.778L48.1594 117.868C47.6699 117.061 46.8835 116.478 45.9687 116.244L32.331 112.757L24.1782 112.644Z" fill="black"/>
<path d="M39.9472 87.792C39.9472 87.792 38.2333 90.8228 36.4854 92.2909L40.0978 94.3065C40.0978 94.3065 40.9118 91.0979 42.7715 90.1587L39.9472 87.792Z" fill="url(#paint16_linear_77_3743)"/>
<path d="M23.8873 112.757C23.8873 112.757 28.2072 113.81 32.3301 112.757C32.3301 112.757 38.0997 105.001 40.3314 102.89C40.3314 102.89 43.8919 108.508 51.8164 109.305L52.2583 108.317C52.2583 108.317 45.9495 105.409 44.0072 100.94C42.065 96.4714 41.2851 94.5658 39.5179 93.3995C38.4176 92.6733 37.7586 92.1773 37.418 91.9066C37.2316 91.7581 36.9744 91.7415 36.7709 91.8655C34.8963 93.0082 26.0728 99.0516 23.8873 112.757Z" fill="#74A1BB"/>
<path d="M40.0978 102.781C40.0144 102.781 39.9323 102.743 39.8777 102.673C38.5022 100.879 37.7359 98.9017 37.704 98.8187C37.6495 98.676 37.7206 98.5157 37.8634 98.4607C38.0066 98.4057 38.1665 98.4773 38.2215 98.6201C38.2289 98.6397 38.9926 100.607 40.3174 102.336C40.4104 102.457 40.3877 102.631 40.2663 102.724C40.2161 102.762 40.1567 102.781 40.0978 102.781Z" fill="url(#paint17_linear_77_3743)"/>
<path d="M51.3405 107.801L52.2325 107.564L54.9407 106.937C55.2669 106.861 55.6092 106.919 55.8926 107.097L58.2213 108.562L51.7906 108.551L51.3405 107.801Z" fill="url(#paint18_linear_77_3743)"/>
<path d="M42.6684 83.2476C42.6684 83.2476 44.3342 86.0168 44.6233 87.5473C44.9124 89.0778 45.3765 90.0345 43.6343 90.5799C41.8925 91.1253 40.2733 90.4349 39.2577 89.0062C39.2577 89.0062 37.6709 86.8076 37.8294 85.8007C37.9879 84.7938 42.6684 83.2476 42.6684 83.2476Z" fill="url(#paint19_linear_77_3743)"/>
<path d="M39.7218 87.8216L39.9471 87.7919C39.9471 87.7919 38.7677 86.0095 39.5393 85.5676C40.3113 85.1252 43.4565 84.0406 44.0028 82.8018C44.5294 81.6075 43.7417 80.2587 42.7919 79.977C42.7317 79.9591 42.6684 79.9949 42.6465 80.0535L42.5906 80.2037C42.5527 80.3067 42.4081 80.3107 42.3645 80.2102C42.3225 80.1146 42.1859 80.1107 42.1431 80.2054C41.975 80.5766 41.4702 81.2102 39.9576 81.7005C37.8114 82.3961 36.4744 83.4782 36.639 85.003C36.6495 85.0995 36.5534 85.1663 36.4648 85.127C36.2892 85.0493 36.0233 85.037 35.7146 85.375C35.1775 85.9623 35.598 87.2474 37.0652 88.1565C37.1351 88.1997 37.1473 88.298 37.0848 88.3513C36.8652 88.539 36.5565 88.9582 37.549 89.3316C38.5642 89.7136 39.1183 89.5844 39.3231 89.5023C39.3782 89.48 39.4096 89.4233 39.3982 89.3647L39.1376 88.0286C39.124 87.9596 39.1716 87.8932 39.2415 87.884L39.7218 87.8216Z" fill="black"/>
<path d="M39.8139 88.0962C39.8139 88.0962 39.079 86.2841 38.307 86.9211C37.535 87.5582 39.0205 88.966 39.7061 88.9472L39.8139 88.0962Z" fill="url(#paint20_linear_77_3743)"/>
<path d="M48.8559 109.823C48.8663 109.824 48.8768 109.824 48.8873 109.824L62.6259 109.811C62.9656 109.81 63.2407 109.535 63.2402 109.196C63.2398 108.857 62.9634 108.577 62.6246 108.583L48.886 108.597C48.5463 108.597 48.2716 108.872 48.2716 109.211C48.2725 109.54 48.531 109.807 48.8559 109.823Z" fill="#74A1BB"/>
<path d="M67.9465 96.3691C67.9417 96.3783 67.9369 96.3879 67.9325 96.3975L62.152 108.861C62.0092 109.168 62.1424 109.534 62.4503 109.677C62.7581 109.819 63.1284 109.687 63.2659 109.377L69.0464 96.9141C69.1892 96.6058 69.056 96.2407 68.7482 96.098C68.45 95.96 68.098 96.0814 67.9465 96.3691Z" fill="#74A1BB"/>
<path d="M103.922 122.349H102.472V138.029H103.922V122.349Z" fill="#C6EEEF"/>
<path d="M109.547 138.332H96.8468C96.8468 137.811 97.2695 137.388 97.7909 137.388H108.603C109.124 137.388 109.547 137.811 109.547 138.332Z" fill="#C6EEEF"/>
<path d="M111.432 121.804C111.432 122.662 110.73 123.364 109.872 123.364H97.0232C96.1656 123.364 95.4639 122.662 95.4639 121.804V120.395C95.4639 119.537 96.1656 118.835 97.0232 118.835H109.872C110.73 118.835 111.432 119.537 111.432 120.395V121.804Z" fill="#C6EEEF"/>
<path d="M92.492 111.893C92.492 111.893 90.3375 112.227 87.9149 113.847C87.5337 114.102 87.3246 114.546 87.3818 115.001C87.6717 117.299 88.8647 124.736 92.7976 132C93.005 132.383 93.0644 132.828 92.9732 133.254L92.2898 136.434L91.0226 137.622H94.2866L96.4599 131.741L95.5307 131.447C94.8102 131.219 94.3159 130.557 94.3028 129.801L94.1936 123.493C94.2866 120.682 92.4701 118.743 92.4701 118.743L97.6825 118.489L92.492 111.893Z" fill="url(#paint21_linear_77_3743)"/>
<path d="M89.7481 138.196C89.4507 138.585 92.9474 139.098 94.7137 138.247C94.7137 138.247 97.1625 133.987 97.1625 131.793C97.1625 131.793 96.9682 131.346 95.5303 131.448C95.5303 131.448 94.708 136.492 93.84 137.057C92.9719 137.622 91.4108 137.114 91.4108 137.114C91.4108 137.114 90.1869 137.621 89.7481 138.196Z" fill="#597B8E"/>
<path d="M97.0231 118.835C96.9952 118.787 91.4112 118.164 91.4112 118.164C91.4112 118.164 91.5942 119.861 91.023 122.199C90.4519 124.536 82.2527 134.663 82.2527 134.663L83.1125 137.388C80.4546 138.314 77.8399 138.462 75.2671 137.86L80.5947 134.663C80.5947 134.663 85.5809 117.671 88.6349 114.639L94.2324 112.703L97.0231 118.835Z" fill="url(#paint22_linear_77_3743)"/>
<path d="M109.546 108.948C109.546 108.948 112.764 113.733 113.028 115.916C113.292 118.099 112.147 118.986 108.771 119.132C105.395 119.278 96.383 119.276 96.383 119.276L88.6913 112.703C88.6913 112.703 94.2967 110.702 95.7542 110.137C97.2113 109.572 109.546 108.948 109.546 108.948Z" fill="black"/>
<path d="M82.7872 136.47C82.7872 136.47 83.7129 137.367 83.0877 138.364C83.0877 138.364 75.7557 139.664 73.765 139.074C73.765 139.074 74.1785 138.131 76.4199 137.057L76.2544 137.184C76.0452 137.345 76.1679 137.679 76.4312 137.664C77.9085 137.58 80.9655 137.309 82.7872 136.47Z" fill="#597B8E"/>
<path d="M95.6101 78.5999C102.187 77.4817 105.283 82.846 105.057 83.973C105.027 84.1223 105.168 84.249 105.315 84.2092C106.07 84.0062 107.738 83.7499 108.772 85.0454C109.685 86.1895 109.002 87.2689 108.446 87.8614C108.312 88.0047 108.425 88.237 108.619 88.2125C110.008 88.0374 113.024 87.9955 113.517 90.8211C113.978 93.4563 112.144 94.1991 111.056 94.4087C110.872 94.4441 110.829 94.686 110.987 94.7864C111.53 95.1305 112.159 95.8422 111.904 97.2461C111.506 99.4464 107.192 99.2665 106.688 99.2377C106.656 99.2359 106.626 99.2268 106.598 99.2106L99.688 95.2698C99.6343 95.2392 99.5968 95.1859 99.5863 95.1248L98.1912 87.068C98.1798 87.003 98.2003 86.9362 98.2462 86.8886L93.7412 80.5313C92.1063 80.2902 95.5324 78.613 95.6101 78.5999Z" fill="black"/>
<path d="M100.846 108.315C100.846 108.315 97.0991 104.747 95.2547 102.384C94.2578 101.107 93.9447 99.4254 94.4058 97.8722C95.2477 95.0357 96.7441 92.0974 96.8808 91.6403C97.0899 90.9394 101.291 90.9687 101.291 90.9687C101.291 90.9687 109.558 96.3339 112.806 105.422L109.158 106.558C109.158 106.558 106.999 102.937 104.867 100.635C104.867 100.635 108.557 105.509 108.687 107.505L100.846 108.315Z" fill="#74A1BB"/>
<path d="M96.3726 87.723C96.4162 87.8689 97.5127 91.5036 97.5987 91.5791C97.6843 91.6547 100.003 91.7791 101.095 91.0333L98.3873 85.7375L96.3726 87.723Z" fill="url(#paint23_linear_77_3743)"/>
<path d="M91.9771 83.0521C91.9771 83.0521 91.447 85.1345 92.9133 87.9352C94.3792 90.7359 96.0389 90.7329 96.9463 89.8364C97.8537 88.94 98.9724 87.4187 98.7065 84.711C98.4405 82.0032 92.7422 80.4033 91.9771 83.0521Z" fill="url(#paint24_linear_77_3743)"/>
<path d="M96.6786 84.8582C96.6786 84.8582 94.2464 81.1396 91.9653 84.0661L91.9243 85.1307C91.9243 85.1307 89.2528 84.8137 89.7205 82.364C90.1881 79.9144 92.4967 78.3835 95.4699 79.4446C98.4431 80.5056 100.147 81.5938 100.339 83.7247C100.53 85.8555 98.8352 85.3883 98.8352 85.3883C98.8352 85.3883 98.2824 83.888 97.496 83.7321C96.71 83.5762 96.9144 84.746 96.9144 84.746L96.6786 84.8582Z" fill="black"/>
<path d="M97.3012 84.8083C97.3012 84.8083 96.0397 82.9041 97.3322 82.6202C98.6247 82.3364 98.4243 84.4756 98.2846 85.2668L97.3012 84.8083Z" fill="url(#paint25_linear_77_3743)"/>
<path d="M93.2129 108.58L95.9656 105.926L99.7737 107.535C99.7737 107.535 103.564 108.122 105.734 107.535C107.903 106.948 107.903 106.948 107.903 106.948L112.805 105.422L113.575 107.597C113.771 108.15 113.574 108.763 113.097 109.103C112.673 109.404 112.175 109.735 111.858 109.874C111.212 110.156 95.9433 109.679 95.9433 109.679L93.2129 108.58Z" fill="url(#paint26_linear_77_3743)"/>
<path d="M103.63 109.831C103.618 109.831 103.606 109.832 103.594 109.832L87.6254 109.814C87.2307 109.814 86.9111 109.494 86.9115 109.099C86.9119 108.704 87.2333 108.378 87.6272 108.385L103.595 108.402C103.99 108.403 104.31 108.723 104.309 109.118C104.308 109.5 104.008 109.812 103.63 109.831Z" fill="#74A1BB"/>
<path d="M73.2707 95.3328H86.5691C87.5503 95.3328 88.4433 95.8991 88.8616 96.7864L95.0093 109.822H78.4831C77.8508 109.822 77.2827 109.436 77.0504 108.848L72.283 96.7851C72.0075 96.0877 72.5214 95.3328 73.2707 95.3328Z" fill="#74A1BB"/>
<path d="M82.6396 102.017C82.9278 102.912 82.7147 103.782 82.1641 103.959C81.6135 104.136 80.9331 103.554 80.6449 102.659C80.3567 101.764 80.5698 100.894 81.1205 100.717C81.6711 100.539 82.3514 101.121 82.6396 102.017Z" fill="black"/>
<path d="M121.835 136.356C121.835 136.356 122.003 137.286 122.068 138.391C122.097 138.862 121.748 139.271 121.279 139.316C119.644 139.475 115.924 139.767 113.548 139.425C113.216 139.377 113.083 138.968 113.33 138.739C114.309 137.826 116.675 136.051 120.568 135.663L121.835 136.356Z" fill="black"/>
<path d="M122.647 134.258L121.821 136.284C121.708 136.561 121.427 136.734 121.128 136.702C120.926 136.682 120.686 136.643 120.453 136.572C119.987 136.43 119.724 135.936 119.863 135.469L120.487 133.383L122.647 134.258Z" fill="url(#paint27_linear_77_3743)"/>
<path d="M136.775 137.969C136.775 137.969 135.12 139.353 134.476 141.129C134.298 141.618 134.673 142.132 135.193 142.132H138.598C139.096 142.132 139.478 141.684 139.392 141.193C139.175 139.967 138.549 137.974 136.775 137.969Z" fill="url(#paint28_linear_77_3743)"/>
<path d="M138.825 136.167C138.825 136.167 138.491 137.647 138.234 138.624C138.187 138.802 137.998 138.899 137.825 138.837C137.31 138.653 136.891 138.572 136.586 138.612C136.445 138.631 136.322 138.514 136.32 138.372L136.288 135.915L138.825 136.167Z" fill="url(#paint29_linear_77_3743)"/>
<path d="M130.024 102.877L119.959 133.583C119.959 133.583 121.89 134.847 122.81 134.795L134.764 110.117C134.764 110.117 136.856 125.323 135.842 136.239L139.267 136.5C139.267 136.5 144.835 108.604 140.617 99.0486L130.024 102.877Z" fill="black"/>
<path d="M134.7 109.852C134.704 109.852 134.708 109.852 134.712 109.851C134.766 109.845 134.804 109.796 134.797 109.743L134.406 106.642C134.4 106.589 134.351 106.552 134.297 106.558C134.244 106.564 134.206 106.613 134.213 106.666L134.604 109.767C134.61 109.816 134.652 109.852 134.7 109.852Z" fill="url(#paint30_linear_77_3743)"/>
<path d="M128.138 75.8577C128.138 75.8577 136.292 76.5816 135.138 82.3923C135.138 82.3923 139.646 90.8752 141.753 100.868C141.822 101.193 141.604 101.51 141.277 101.566L127.696 103.892C127.322 103.956 126.961 103.722 126.866 103.354L123.621 90.8136L122.356 96.6439L118.339 95.5972L121.721 78.4645C121.721 78.4645 122.193 75.9651 128.138 75.8577Z" fill="#74A1BB"/>
<path d="M123.552 90.2527C123.559 90.2527 123.566 90.2518 123.573 90.2505C123.628 90.2387 123.662 90.1845 123.65 90.13L122.519 84.932C122.507 84.8774 122.454 84.8434 122.398 84.8547C122.343 84.8665 122.309 84.9207 122.321 84.9752L123.453 90.1732C123.464 90.2204 123.505 90.2527 123.552 90.2527Z" fill="#C6EEEF"/>
<path d="M124.371 105.72C124.799 105.485 125.3 105.42 125.774 105.537L126.718 105.773C126.919 105.823 127.118 105.685 127.142 105.479L128.119 96.7764C129.342 97.3571 131.106 97.2877 131.687 97.2449L129.437 107.505H121.562L124.371 105.72Z" fill="url(#paint31_linear_77_3743)"/>
<path d="M103.448 86.8424L103.686 86.0512C103.823 85.5957 104.159 85.2276 104.6 85.0503L108.905 83.319C108.905 83.319 108.97 82.7671 107.996 82.3915C107.021 82.0164 107.249 80.9248 107.249 80.9248C107.249 80.9248 108.581 81.5322 110.53 82.4955C111.645 83.0465 112.27 84.019 112.602 84.7512L122.357 96.6436L121.211 97.4305C119.705 98.4653 117.634 97.9571 116.778 96.3423L111.493 86.2088C108.84 87.0066 106.155 87.159 103.448 86.8424Z" fill="url(#paint32_linear_77_3743)"/>
<path d="M125.496 70.31L128.004 77.3297C128.004 77.3297 125.783 79.0658 124.162 78.479L122.899 74.4551C122.898 74.4547 123.864 69.5371 125.496 70.31Z" fill="url(#paint33_linear_77_3743)"/>
<path d="M118.01 67.7888C118.01 67.8971 120.426 74.6282 120.426 74.6282L124.24 73.1671L122.899 66.4469C122.898 66.4469 118.01 65.978 118.01 67.7888Z" fill="url(#paint34_linear_77_3743)"/>
<path d="M122.229 68.0844L123.212 71.5668C123.225 71.6113 123.232 71.6563 123.232 71.703C123.232 71.9868 123.162 72.9645 122.166 72.8313C121.263 72.7108 120.437 72.6139 119.911 72.8614C119.676 72.9724 119.562 73.244 119.651 73.4894C119.87 74.1007 120.391 75.4696 121.024 76.5901C121.153 76.8176 121.435 76.9058 121.673 76.7975C122.389 76.4717 123.881 75.7421 124.943 74.874C125.088 74.7565 125.156 74.5714 125.122 74.3889C124.955 73.4981 124.457 70.7886 124.436 70.0122C124.415 69.2835 125.233 68.7272 125.593 68.518C125.711 68.4495 125.795 68.3364 125.827 68.2036C125.94 67.7346 126.036 66.6731 124.681 66.4391C124.398 66.3902 124.213 66.119 124.271 65.8369C124.385 65.2758 124.349 64.4505 123.284 64.1462C122.201 63.837 121.52 64.489 121.173 64.9885C121.033 65.1907 120.771 65.2562 120.546 65.1557C120.418 65.0985 120.264 65.0959 120.098 65.2361C119.874 65.4247 119.534 65.3671 119.369 65.1252C119.054 64.6606 118.48 64.1964 117.509 64.5108C115.786 65.0684 115.868 67.0552 116.5 68.1351C117.132 69.2149 118.965 68.5045 119.834 67.7888C120.494 67.2447 121.499 67.57 121.943 67.7573C122.083 67.8167 122.188 67.9372 122.229 68.0844Z" fill="url(#paint35_linear_77_3743)"/>
<path d="M124.781 71.2834C124.781 71.2834 123.761 69.3543 124.436 68.7486C125.11 68.143 126.253 68.2421 126.222 69.7507C126.184 71.6266 124.781 71.2834 124.781 71.2834Z" fill="url(#paint36_linear_77_3743)"/>
<path d="M130.896 97.375C131.453 97.375 131.85 97.3326 131.893 97.3278L131.965 97.3195L134.935 83.4753C134.946 83.4207 134.911 83.367 134.857 83.3552C134.802 83.343 134.749 83.3783 134.737 83.4329L131.798 97.1335C131.356 97.1724 128.997 97.3291 127.751 96.4466L130.323 84.4189L129.786 83.4072C129.76 83.3578 129.699 83.339 129.649 83.3652C129.6 83.3914 129.581 83.4526 129.607 83.5019L130.11 84.4486L127.526 96.5318L127.577 96.5707C128.478 97.247 129.927 97.375 130.896 97.375Z" fill="#C6EEEF"/>
<path d="M41.8785 139.584C41.8104 139.584 41.7409 139.569 41.6741 139.538C41.4117 139.415 41.2903 139.082 41.4034 138.796L52.2539 111.265C52.3666 110.978 52.6709 110.846 52.9338 110.969C53.1962 111.092 53.3176 111.424 53.2045 111.711L42.354 139.242C42.2697 139.456 42.0789 139.584 41.8785 139.584Z" fill="#597B8E"/>
<path d="M54.1018 139.584C53.9014 139.584 53.7106 139.456 53.6263 139.242L42.7758 111.711C42.6628 111.425 42.7841 111.093 43.0466 110.969C43.309 110.846 43.6134 110.979 43.7264 111.265L54.5769 138.796C54.69 139.083 54.5686 139.415 54.3062 139.538C54.2394 139.569 54.17 139.584 54.1018 139.584Z" fill="#597B8E"/>
<path d="M115.517 139.584C115.449 139.584 115.38 139.569 115.313 139.538C115.05 139.415 114.929 139.082 115.042 138.796L125.893 111.265C126.006 110.978 126.31 110.846 126.573 110.969C126.835 111.092 126.956 111.424 126.843 111.711L115.993 139.242C115.909 139.456 115.718 139.584 115.517 139.584Z" fill="#597B8E"/>
<path d="M127.741 139.584C127.54 139.584 127.349 139.456 127.265 139.242L116.415 111.711C116.302 111.425 116.423 111.093 116.685 110.969C116.948 110.846 117.252 110.979 117.365 111.265L128.216 138.796C128.329 139.083 128.207 139.415 127.945 139.538C127.879 139.569 127.809 139.584 127.741 139.584Z" fill="#597B8E"/>
<path d="M113.943 109.32H129.658V107.699H113.943C114.279 107.699 114.279 109.32 113.943 109.32Z" fill="#C6EEEF"/>
<path d="M129.511 109.321C129.592 109.321 129.658 109.254 129.658 109.173V107.846C129.658 107.765 129.592 107.699 129.511 107.699H113.611C113.53 107.699 113.464 107.632 113.464 107.551V107.48C113.464 107.398 113.53 107.332 113.611 107.332H130.558C130.933 107.332 131.237 107.636 131.237 108.011V109.047C131.237 109.4 130.95 109.687 130.596 109.687H113.611C113.53 109.687 113.463 109.621 113.463 109.539V109.468C113.463 109.386 113.53 109.32 113.611 109.32H129.511V109.321Z" fill="black"/>
<path d="M131.936 110.414C131.989 110.233 131.917 110.046 131.74 109.903C131.564 109.761 131.3 109.679 131.022 109.679H36.8573C36.4918 109.679 36.1512 109.803 35.9543 110.007C35.7574 110.211 35.7307 110.468 35.8844 110.688L36.9049 112.153C37.1385 112.488 37.645 112.703 38.2022 112.703H130.376C130.894 112.703 131.34 112.46 131.438 112.122L131.936 110.414Z" fill="#597B8E"/>
<defs>
<linearGradient id="paint0_linear_77_3743" x1="93.676" y1="59.7077" x2="91.0939" y2="88.1845" gradientUnits="userSpaceOnUse">
<stop stop-color="#53D8FF"/>
<stop offset="1" stop-color="#3840F7"/>
</linearGradient>
<linearGradient id="paint1_linear_77_3743" x1="93.7513" y1="59.7145" x2="91.1692" y2="88.1914" gradientUnits="userSpaceOnUse">
<stop stop-color="#53D8FF"/>
<stop offset="1" stop-color="#3840F7"/>
</linearGradient>
<linearGradient id="paint2_linear_77_3743" x1="93.6085" y1="59.7016" x2="91.0265" y2="88.1781" gradientUnits="userSpaceOnUse">
<stop stop-color="#53D8FF"/>
<stop offset="1" stop-color="#3840F7"/>
</linearGradient>
<linearGradient id="paint3_linear_77_3743" x1="93.6854" y1="59.7085" x2="91.1033" y2="88.1853" gradientUnits="userSpaceOnUse">
<stop stop-color="#53D8FF"/>
<stop offset="1" stop-color="#3840F7"/>
</linearGradient>
<linearGradient id="paint4_linear_77_3743" x1="63.4836" y1="134.08" x2="65.8238" y2="134.103" gradientUnits="userSpaceOnUse">
<stop stop-color="#FEBBBA"/>
<stop offset="1" stop-color="#FF928E"/>
</linearGradient>
<linearGradient id="paint5_linear_77_3743" x1="55.0502" y1="133.88" x2="57.0708" y2="133.899" gradientUnits="userSpaceOnUse">
<stop stop-color="#FEBBBA"/>
<stop offset="1" stop-color="#FF928E"/>
</linearGradient>
<linearGradient id="paint6_linear_77_3743" x1="73.6965" y1="73.1159" x2="85.6532" y2="73.2294" gradientUnits="userSpaceOnUse">
<stop stop-color="#FEBBBA"/>
<stop offset="1" stop-color="#FF928E"/>
</linearGradient>
<linearGradient id="paint7_linear_77_3743" x1="83.0088" y1="71.2003" x2="74.8123" y2="89.3782" gradientUnits="userSpaceOnUse">
<stop stop-color="#FEBBBA"/>
<stop offset="1" stop-color="#FF928E"/>
</linearGradient>
<linearGradient id="paint8_linear_77_3743" x1="85.6726" y1="65.1458" x2="89.0693" y2="60.0305" gradientUnits="userSpaceOnUse">
<stop stop-color="#FEBBBA"/>
<stop offset="1" stop-color="#FF928E"/>
</linearGradient>
<linearGradient id="paint9_linear_77_3743" x1="47.372" y1="89.802" x2="62.5028" y2="89.9457" gradientUnits="userSpaceOnUse">
<stop stop-color="#FEBBBA"/>
<stop offset="1" stop-color="#FF928E"/>
</linearGradient>
<linearGradient id="paint10_linear_77_3743" x1="59.1446" y1="73.737" x2="65.1271" y2="73.7938" gradientUnits="userSpaceOnUse">
<stop stop-color="#FEBBBA"/>
<stop offset="1" stop-color="#FF928E"/>
</linearGradient>
<linearGradient id="paint11_linear_77_3743" x1="66.5862" y1="70.0017" x2="60.0467" y2="65.9275" gradientUnits="userSpaceOnUse">
<stop stop-color="#FEBBBA"/>
<stop offset="1" stop-color="#FF928E"/>
</linearGradient>
<linearGradient id="paint12_linear_77_3743" x1="64.8443" y1="71.4812" x2="58.9607" y2="67.8155" gradientUnits="userSpaceOnUse">
<stop stop-color="#FEBBBA"/>
<stop offset="1" stop-color="#FF928E"/>
</linearGradient>
<linearGradient id="paint13_linear_77_3743" x1="60.8389" y1="89.391" x2="65.5694" y2="89.391" gradientUnits="userSpaceOnUse">
<stop stop-color="#FEBBBA"/>
<stop offset="1" stop-color="#FF928E"/>
</linearGradient>
<linearGradient id="paint14_linear_77_3743" x1="43.5217" y1="135.097" x2="46.0169" y2="135.097" gradientUnits="userSpaceOnUse">
<stop stop-color="#FEBBBA"/>
<stop offset="1" stop-color="#FF928E"/>
</linearGradient>
<linearGradient id="paint15_linear_77_3743" x1="55.3401" y1="135.307" x2="58.319" y2="135.307" gradientUnits="userSpaceOnUse">
<stop stop-color="#FEBBBA"/>
<stop offset="1" stop-color="#FF928E"/>
</linearGradient>
<linearGradient id="paint16_linear_77_3743" x1="38.7934" y1="93.3299" x2="40.262" y2="89.6264" gradientUnits="userSpaceOnUse">
<stop stop-color="#FEBBBA"/>
<stop offset="1" stop-color="#FF928E"/>
</linearGradient>
<linearGradient id="paint17_linear_77_3743" x1="39.7461" y1="99.4184" x2="68.2954" y2="51.8363" gradientUnits="userSpaceOnUse">
<stop stop-color="#09005D"/>
<stop offset="1" stop-color="#1A0F91"/>
</linearGradient>
<linearGradient id="paint18_linear_77_3743" x1="51.3405" y1="107.733" x2="58.2214" y2="107.733" gradientUnits="userSpaceOnUse">
<stop stop-color="#FEBBBA"/>
<stop offset="1" stop-color="#FF928E"/>
</linearGradient>
<linearGradient id="paint19_linear_77_3743" x1="43.2773" y1="85.7979" x2="36.7037" y2="92.3545" gradientUnits="userSpaceOnUse">
<stop stop-color="#FEBBBA"/>
<stop offset="1" stop-color="#FF928E"/>
</linearGradient>
<linearGradient id="paint20_linear_77_3743" x1="42.2144" y1="84.7323" x2="35.6409" y2="91.2889" gradientUnits="userSpaceOnUse">
<stop stop-color="#FEBBBA"/>
<stop offset="1" stop-color="#FF928E"/>
</linearGradient>
<linearGradient id="paint21_linear_77_3743" x1="76.5508" y1="184.684" x2="94.9421" y2="111.119" gradientUnits="userSpaceOnUse">
<stop stop-color="#FEBBBA"/>
<stop offset="1" stop-color="#FF928E"/>
</linearGradient>
<linearGradient id="paint22_linear_77_3743" x1="85.4873" y1="138.156" x2="89.1656" y2="83.2889" gradientUnits="userSpaceOnUse">
<stop stop-color="#FEBBBA"/>
<stop offset="1" stop-color="#FF928E"/>
</linearGradient>
<linearGradient id="paint23_linear_77_3743" x1="99.9205" y1="96.9927" x2="98.4518" y2="87.5692" gradientUnits="userSpaceOnUse">
<stop stop-color="#FEBBBA"/>
<stop offset="1" stop-color="#FF928E"/>
</linearGradient>
<linearGradient id="paint24_linear_77_3743" x1="91.9357" y1="87.0034" x2="102.946" y2="83.289" gradientUnits="userSpaceOnUse">
<stop stop-color="#FEBBBA"/>
<stop offset="1" stop-color="#FF928E"/>
</linearGradient>
<linearGradient id="paint25_linear_77_3743" x1="91.6079" y1="86.0317" x2="102.618" y2="82.3174" gradientUnits="userSpaceOnUse">
<stop stop-color="#FEBBBA"/>
<stop offset="1" stop-color="#FF928E"/>
</linearGradient>
<linearGradient id="paint26_linear_77_3743" x1="105.951" y1="107.692" x2="126.388" y2="107.692" gradientUnits="userSpaceOnUse">
<stop stop-color="#FEBBBA"/>
<stop offset="1" stop-color="#FF928E"/>
</linearGradient>
<linearGradient id="paint27_linear_77_3743" x1="120.944" y1="137.25" x2="121.685" y2="131.454" gradientUnits="userSpaceOnUse">
<stop stop-color="#FEBBBA"/>
<stop offset="1" stop-color="#FF928E"/>
</linearGradient>
<linearGradient id="paint28_linear_77_3743" x1="136.804" y1="153.389" x2="136.669" y2="167.677" gradientUnits="userSpaceOnUse">
<stop stop-color="#09005D"/>
<stop offset="1" stop-color="#1A0F91"/>
</linearGradient>
<linearGradient id="paint29_linear_77_3743" x1="137.148" y1="139.237" x2="137.87" y2="133.589" gradientUnits="userSpaceOnUse">
<stop stop-color="#FEBBBA"/>
<stop offset="1" stop-color="#FF928E"/>
</linearGradient>
<linearGradient id="paint30_linear_77_3743" x1="137.584" y1="114.363" x2="136.775" y2="112.745" gradientUnits="userSpaceOnUse">
<stop stop-color="#4F52FF"/>
<stop offset="1" stop-color="#4042E2"/>
</linearGradient>
<linearGradient id="paint31_linear_77_3743" x1="131.687" y1="102.14" x2="121.562" y2="102.14" gradientUnits="userSpaceOnUse">
<stop stop-color="#FEBBBA"/>
<stop offset="1" stop-color="#FF928E"/>
</linearGradient>
<linearGradient id="paint32_linear_77_3743" x1="122.356" y1="89.4473" x2="103.448" y2="89.4473" gradientUnits="userSpaceOnUse">
<stop stop-color="#FEBBBA"/>
<stop offset="1" stop-color="#FF928E"/>
</linearGradient>
<linearGradient id="paint33_linear_77_3743" x1="129.164" y1="78.8418" x2="122.583" y2="72.0902" gradientUnits="userSpaceOnUse">
<stop stop-color="#FEBBBA"/>
<stop offset="1" stop-color="#FF928E"/>
</linearGradient>
<linearGradient id="paint34_linear_77_3743" x1="119.62" y1="67.8363" x2="127.825" y2="78.6902" gradientUnits="userSpaceOnUse">
<stop stop-color="#FEBBBA"/>
<stop offset="1" stop-color="#FF928E"/>
</linearGradient>
<linearGradient id="paint35_linear_77_3743" x1="132.127" y1="36.9676" x2="123.471" y2="62.051" gradientUnits="userSpaceOnUse">
<stop stop-color="#E1473D"/>
<stop offset="1" stop-color="#E9605A"/>
</linearGradient>
<linearGradient id="paint36_linear_77_3743" x1="131.637" y1="76.4319" x2="125.056" y2="69.6803" gradientUnits="userSpaceOnUse">
<stop stop-color="#FEBBBA"/>
<stop offset="1" stop-color="#FF928E"/>
</linearGradient>
</defs>
</svg>
