<svg width="148" height="148" viewBox="0 0 148 148" fill="none" xmlns="http://www.w3.org/2000/svg">
<path d="M51.381 69.9658C51.9004 75.5168 53.1199 82.8558 54.5851 89.1803H55.5054C53.6105 81.5485 51.8665 71.0968 52.3799 59.0489C52.8977 46.8993 55.8194 32.148 50.3717 25.1011C45.8379 19.2361 26.5984 18.3593 20.2715 18.2304C19.4808 18.2145 19.0284 19.142 19.5203 19.7723C21.9457 22.8807 27.0248 30.0792 27.4672 36.3654C28.0504 44.651 34.3729 51.1539 40.6552 53.8609C46.9378 56.568 50.3206 58.6328 51.381 69.9658Z" fill="#7FE4E4"/>
<path d="M28.182 23.3517C32.0735 24.3578 35.7543 26.1657 38.9748 28.6422C40.5881 29.8757 42.0501 31.325 43.3111 32.943C44.5585 34.5702 45.6057 36.3725 46.3329 38.3085L46.6022 39.0353C46.6904 39.2783 46.7562 39.5288 46.834 39.7749C46.9058 40.0223 46.9868 40.2716 47.0506 40.5169L47.2429 41.2533C47.5014 42.2347 47.7551 43.2172 47.9992 44.2022C48.4899 46.1716 48.9499 48.1491 49.3795 50.1337C50.2408 54.1026 50.9816 58.0974 51.4814 62.1369C51.4934 62.2338 51.426 62.3224 51.3306 62.3343C51.2389 62.3463 51.1547 62.2825 51.138 62.1911L51.1372 62.1855C50.7821 60.1973 50.3888 58.2087 49.9591 56.232C49.5383 54.2526 49.0939 52.2783 48.6279 50.3097L47.9203 47.3588L47.1799 44.4164C46.9337 43.4354 46.6776 42.4569 46.4171 41.4795L46.2232 40.7463C46.159 40.5018 46.0816 40.2696 46.0118 40.031C45.938 39.7945 45.877 39.5535 45.7936 39.3206L45.5391 38.6224C44.8561 36.7603 43.8489 35.0357 42.6748 33.4468C42.0705 32.6649 41.4386 31.9014 40.7369 31.2033L40.4788 30.9368L40.2107 30.6807C40.0312 30.5108 39.8561 30.3356 39.6729 30.1693C39.302 29.8418 38.9349 29.5091 38.5468 29.2015C37.0161 27.9425 35.3351 26.8742 33.5882 25.9371C31.8409 25.0025 30.0027 24.2126 28.1162 23.6278L28.1074 23.625C28.0336 23.6022 27.9921 23.5229 28.0145 23.4479C28.036 23.3753 28.1102 23.3334 28.182 23.3517Z" fill="white"/>
<path d="M53.2034 78.9946C55.4018 84.7494 54.3351 87.4449 53.8971 89.8345C53.8193 90.2585 53.7064 90.8577 53.5939 91.5702L54.5054 91.7784C54.5394 90.7727 54.6291 89.7718 54.7995 88.8084C55.9671 82.1999 57.0673 70.7165 53.0582 62.7816C49.0494 54.8462 43.1298 52.854 34.1102 57.1751C26.5937 60.7762 22.0428 62.4206 19.6074 62.3631C19.0042 62.3488 18.559 62.9443 18.7194 63.5343C19.5727 66.6751 22.324 74.0699 29.5134 75.2355C38.6838 76.7223 51.0049 73.2397 53.2034 78.9946Z" fill="#C6EEEF"/>
<path d="M34.8613 65.8007C35.4721 65.4301 36.1016 65.1146 36.7442 64.8178C37.3865 64.5222 38.0411 64.2505 38.7109 64.0196C40.0473 63.5516 41.4376 63.2089 42.8641 63.0805C43.577 63.0187 44.2986 63.0103 45.0191 63.0793C45.7383 63.1527 46.456 63.3043 47.1449 63.556C47.3149 63.6254 47.4892 63.6833 47.6551 63.763C47.8191 63.8444 47.991 63.9194 48.1482 64.0068L49.0725 64.5489L49.9593 65.1577L50.7987 65.8358C51.8853 66.7837 52.8008 67.9378 53.4918 69.2091C54.1907 70.4789 54.6479 71.8628 54.965 73.2606L55.0839 73.7856C55.1262 73.9599 55.1445 74.139 55.176 74.3153C55.2303 74.6696 55.2953 75.0218 55.3404 75.3769L55.4497 76.444C55.4936 76.799 55.4916 77.1568 55.5111 77.5131C55.5841 78.9388 55.5331 80.3638 55.4465 81.7819C55.4417 81.8609 55.3747 81.9216 55.2969 81.9176C55.2227 81.9136 55.1653 81.8518 55.1645 81.7772V81.7724C55.1521 80.3602 55.1521 78.9488 55.0109 77.5514C54.9622 76.8505 54.8549 76.1587 54.7671 75.4654C54.7133 75.1203 54.6395 74.7797 54.5772 74.437C54.5417 74.2667 54.519 74.0931 54.4731 73.9256L54.3435 73.4213C54.002 72.077 53.5113 70.7781 52.8427 69.5873C52.1737 68.3965 51.2981 67.3402 50.2781 66.4514L49.485 65.8175L48.6437 65.2466L47.7621 64.736C47.6149 64.6546 47.4673 64.5892 47.3201 64.5142C47.1729 64.4412 47.0161 64.3894 46.8645 64.3255C46.2474 64.095 45.5947 63.9513 44.9309 63.8787C44.2671 63.8013 43.5905 63.793 42.9144 63.8368C41.56 63.9234 40.2089 64.2055 38.8849 64.5904C38.2238 64.7883 37.5652 65.0021 36.9166 65.2486C36.2699 65.496 35.6249 65.766 35.0013 66.062L34.9974 66.064C34.9236 66.0991 34.8366 66.0668 34.8027 65.9922C34.7708 65.9224 34.7975 65.8398 34.8613 65.8007Z" fill="white"/>
<path d="M44.078 38.5519C44.078 34.7861 47.1309 31.7332 50.8968 31.7332H108.884C112.083 31.7332 114.721 34.2404 114.884 37.4353L119.164 121.506C119.291 124.006 117.323 126.115 114.82 126.161L48.3596 127.369C46.0076 127.411 44.078 125.517 44.078 123.164V38.5519Z" fill="black"/>
<path d="M48.8284 33.0272C48.8212 31.8225 49.8808 30.8898 51.0747 31.0518C58.9933 32.1257 86.2237 35.4467 108.737 33.7186C109.764 33.6396 110.655 34.4175 110.71 35.4459L115.198 119.891C115.259 121.049 114.375 122.039 113.218 122.108C103.749 122.668 64.753 124.834 50.8442 123.377C49.9976 123.289 49.355 122.576 49.3502 121.725L48.8284 33.0272Z" fill="#6E8B9C"/>
<path d="M49.761 35.1434C49.7542 33.9838 50.7739 33.0866 51.9228 33.2422C59.5434 34.2758 85.7481 37.472 107.414 35.8085C108.402 35.7327 109.259 36.481 109.312 37.4708L113.631 118.736C113.69 119.85 112.84 120.804 111.726 120.869C102.613 121.409 65.086 123.493 51.7006 122.091C50.886 122.006 50.2676 121.32 50.2629 120.501L49.761 35.1434Z" fill="#C6EEEF"/>
<path opacity="0.58" d="M106.038 48.756H79.2357C79.006 48.756 78.8201 48.5697 78.8201 48.3403V40.5785C78.8201 40.3487 79.0064 40.1628 79.2357 40.1628H106.038C106.267 40.1628 106.453 40.3491 106.453 40.5785V48.3403C106.453 48.5701 106.267 48.756 106.038 48.756Z" fill="white"/>
<path opacity="0.58" d="M107.203 79.8757H54.9486C54.8194 79.8757 54.7148 79.7712 54.7148 79.6419V76.6261C54.7148 76.4969 54.8194 76.3923 54.9486 76.3923H107.203C107.332 76.3923 107.436 76.4969 107.436 76.6261V79.6419C107.436 79.7708 107.331 79.8757 107.203 79.8757Z" fill="white"/>
<path opacity="0.58" d="M107.266 85.2504H54.8856C54.7914 85.2504 54.7148 85.1738 54.7148 85.0797V81.9373C54.7148 81.8432 54.7914 81.7666 54.8856 81.7666H107.266C107.36 81.7666 107.436 81.8432 107.436 81.9373V85.0797C107.436 85.1742 107.36 85.2504 107.266 85.2504Z" fill="white"/>
<path opacity="0.58" d="M108.376 115.94H54.9646C54.8509 115.94 54.7588 115.848 54.7588 115.734V112.662C54.7588 112.549 54.8509 112.457 54.9646 112.457H108.376C108.49 112.457 108.582 112.549 108.582 112.662V115.734C108.582 115.848 108.49 115.94 108.376 115.94Z" fill="white"/>
<path opacity="0.25" d="M106.114 72.7428H55.9786C55.2805 72.7428 54.7148 72.1767 54.7148 71.479V52.7069C54.7148 52.0088 55.2809 51.4431 55.9786 51.4431H105.264C105.94 51.4431 106.496 51.9749 106.526 52.6499L107.377 71.4219C107.409 72.1416 106.834 72.7428 106.114 72.7428Z" fill="white"/>
<path d="M106.143 72.9429H56.0081C55.2007 72.9429 54.5437 72.2859 54.5437 71.4785V52.7064C54.5437 51.899 55.2007 51.2419 56.0081 51.2419H105.293C106.078 51.2419 106.72 51.8559 106.756 52.6402L107.606 71.4122C107.624 71.8155 107.481 72.1985 107.202 72.4901C106.923 72.7821 106.547 72.9429 106.143 72.9429ZM56.0081 51.6429C55.4217 51.6429 54.9446 52.12 54.9446 52.7064V71.4785C54.9446 72.0649 55.4217 72.542 56.0081 72.542H106.143C106.437 72.542 106.71 72.4255 106.912 72.2133C107.115 72.0014 107.219 71.7234 107.206 71.4306L106.356 52.6585C106.33 52.0893 105.863 51.6433 105.293 51.6433H56.0081V51.6429Z" fill="white"/>
<path opacity="0.25" d="M106.915 110.331H56.3617C55.4765 110.331 54.7584 109.614 54.7584 108.728V90.6343C54.7584 89.7491 55.4761 89.031 56.3617 89.031H106.214C107.075 89.031 107.782 89.7116 107.816 90.572L108.517 108.666C108.553 109.575 107.825 110.331 106.915 110.331Z" fill="white"/>
<path d="M106.915 110.532H56.3616C55.3671 110.532 54.5581 109.723 54.5581 108.728V90.6343C54.5581 89.6398 55.3671 88.8308 56.3616 88.8308H106.214C107.187 88.8308 107.978 89.5924 108.016 90.5645L108.717 108.658C108.736 109.153 108.558 109.621 108.215 109.978C107.872 110.335 107.41 110.532 106.915 110.532ZM56.3616 89.2317C55.5881 89.2317 54.959 89.8608 54.959 90.6343V108.728C54.959 109.502 55.5881 110.131 56.3616 110.131H106.915C107.3 110.131 107.659 109.978 107.926 109.7C108.193 109.423 108.332 109.059 108.316 108.674L107.615 90.5801C107.586 89.8237 106.97 89.2317 106.214 89.2317H56.3616Z" fill="white"/>
<path d="M70.5322 51.4421L70.1313 51.4487L70.485 72.7494L70.8858 72.7428L70.5322 51.4421Z" fill="white"/>
<path d="M89.8158 51.4342L89.415 51.4451L89.9904 72.7446L90.3911 72.7337L89.8158 51.4342Z" fill="white"/>
<path d="M54.8749 58.4343L54.8735 58.8352L107.093 59.0188L107.094 58.6179L54.8749 58.4343Z" fill="white"/>
<path d="M107.092 66.0034H54.874V66.4043H107.092V66.0034Z" fill="white"/>
<path d="M70.394 89.0337L70.1299 110.333L70.5308 110.338L70.7949 89.0387L70.394 89.0337Z" fill="white"/>
<path d="M108.022 94.0068H54.874V94.4078H108.022V94.0068Z" fill="white"/>
<path d="M108.154 98.9172H54.874V99.3181H108.154V98.9172Z" fill="white"/>
<path d="M54.7618 104.199L54.7568 104.6L108.375 105.27L108.38 104.869L54.7618 104.199Z" fill="white"/>
<path d="M83.4867 20.2705C81.392 18.8133 79.5709 18.8424 78.2888 19.2206C77.1191 19.5656 76.3612 20.695 76.4725 21.9093L77.0254 27.9442L83.6048 28.5282C83.6048 28.5282 87.5944 23.1284 83.4867 20.2705ZM80.5933 25.1394C79.6874 25.1394 78.953 24.405 78.953 23.499C78.953 22.5931 79.6874 21.8582 80.5933 21.8582C81.4993 21.8582 82.2337 22.5927 82.2337 23.499C82.2337 24.405 81.4993 25.1394 80.5933 25.1394Z" fill="black"/>
<path d="M77.6825 25.4054C77.6015 25.4054 77.5321 25.3436 77.5245 25.261L77.4363 24.3C77.4284 24.2127 77.4926 24.1357 77.58 24.1273C77.6689 24.1189 77.7447 24.1835 77.7527 24.2709L77.8408 25.2319C77.8488 25.3193 77.7846 25.3963 77.6972 25.4047C77.6924 25.4054 77.6873 25.4054 77.6825 25.4054ZM77.5101 23.5221C77.4292 23.5221 77.3597 23.4603 77.3522 23.3777L77.2851 22.6481C77.179 21.4912 77.9071 20.4141 79.0157 20.087C79.8007 19.8552 80.6102 19.8221 81.4204 19.9881C81.5061 20.0056 81.5616 20.0898 81.544 20.1756C81.5265 20.2613 81.4431 20.3164 81.3565 20.2992C80.5974 20.144 79.8402 20.1748 79.1054 20.3914C78.1416 20.6758 77.5089 21.6129 77.6011 22.6194L77.6681 23.349C77.6761 23.4364 77.6119 23.5134 77.5245 23.5217C77.5197 23.5217 77.5149 23.5221 77.5101 23.5221Z" fill="#BDD0FB"/>
<path d="M68.0457 31.844V28.8102C68.0457 27.7626 68.9137 26.9241 69.9605 26.9596L90.8799 27.6764C91.8082 27.7084 92.5602 28.4412 92.6156 29.3683L92.7904 32.2836L68.0457 31.844Z" fill="black"/>
<path d="M75.8461 28.1029H74.9465C74.8587 28.1029 74.7877 28.0319 74.7877 27.9442C74.7877 27.8564 74.8587 27.7854 74.9465 27.7854H75.8461C75.9339 27.7854 76.0049 27.8564 76.0049 27.9442C76.0049 28.0319 75.9335 28.1029 75.8461 28.1029Z" fill="#BDD0FB"/>
<path d="M69.1778 30.8914C69.0901 30.8914 69.019 30.8204 69.019 30.7326V29.5052C69.019 28.5569 69.7906 27.7854 70.7388 27.7854H74.0463C74.134 27.7854 74.205 27.8564 74.205 27.9442C74.205 28.0319 74.134 28.1029 74.0463 28.1029H70.7388C69.9657 28.1029 69.3362 28.732 69.3362 29.5052V30.7326C69.3366 30.8204 69.2656 30.8914 69.1778 30.8914Z" fill="#BDD0FB"/>
<path d="M59.5219 32.6104C59.5726 31.5596 60.439 30.7339 61.491 30.7339L98.0725 30.7327C99.3877 30.7327 100.512 31.6793 100.737 32.9754L100.768 33.1541C101.014 34.5739 99.9207 35.8724 98.4802 35.8724H60.9496C60.0876 35.8724 59.4002 35.1515 59.4417 34.2903L59.5219 32.6104Z" fill="black"/>
<path d="M74.3849 68.3418C74.0973 78.612 73.1646 114.038 73.6098 126.592C73.6568 127.922 74.8612 128.989 76.3635 129.033C83.7934 129.248 111.03 129.794 123.183 129.343C125.714 129.248 127.727 127.433 127.779 125.191C128.032 114.411 128.589 84.0908 127.265 70.2016C127.106 68.5373 125.631 67.212 123.754 67.0457C115.662 66.3292 88.3084 64.5772 77.8092 65.1807C75.9155 65.2892 74.4315 66.6627 74.3849 68.3418Z" fill="black"/>
<path d="M76.5187 72.8699V81.5736C76.5187 83.2427 77.8718 84.5959 79.5409 84.5959H121.125C122.794 84.5959 124.148 83.2427 124.148 81.5736V72.8699C124.148 71.2008 122.794 69.8477 121.125 69.8477H79.5405C77.8714 69.8481 76.5187 71.2012 76.5187 72.8699Z" fill="#C6EEEF"/>
<path opacity="0.2" d="M122.026 72.8201C121.658 72.4399 121.155 72.2217 120.626 72.2133L81.7151 71.595C80.6747 71.5782 79.797 72.3653 79.7001 73.4009L78.8915 82.0336C78.8253 82.7404 79.9881 83.3356 81.4705 83.3536L119.726 83.8171C121.206 83.8351 122.429 83.2706 122.442 82.5641L122.586 74.2398C122.595 73.7109 122.394 73.2003 122.026 72.8201Z" fill="#C6EEEF"/>
<path d="M86.9145 93.4204C86.9145 94.9558 85.6699 96.2009 84.1341 96.2009H80.7492C79.2138 96.2009 77.9688 94.9562 77.9688 93.4204C77.9688 91.8849 79.2134 90.6399 80.7492 90.6399H84.1341C85.6699 90.6399 86.9145 91.8849 86.9145 93.4204Z" fill="#D4F2F3"/>
<path d="M99.4868 93.4204C99.4868 94.9558 98.2421 96.2009 96.7063 96.2009H93.3214C91.7859 96.2009 90.5409 94.9562 90.5409 93.4204C90.5409 91.8849 91.7855 90.6399 93.3214 90.6399H96.7063C98.2421 90.6399 99.4868 91.8849 99.4868 93.4204Z" fill="#D4F2F3"/>
<path d="M111.575 93.4204C111.575 94.9558 110.33 96.2009 108.795 96.2009H105.41C103.874 96.2009 102.629 94.9562 102.629 93.4204C102.629 91.8849 103.874 90.6399 105.41 90.6399H108.795C110.33 90.6399 111.575 91.8849 111.575 93.4204Z" fill="#D4F2F3"/>
<path d="M123.829 93.8285C123.829 95.3891 122.564 96.6541 121.004 96.6541H117.732C116.171 96.6541 114.906 95.3891 114.906 93.8285C114.906 92.2679 116.171 91.0029 117.732 91.0029H121.004C122.564 91.0033 123.829 92.2683 123.829 93.8285Z" fill="#74FCFD"/>
<path d="M86.9145 102.124C86.9145 103.659 85.6699 104.905 84.1341 104.905H80.7492C79.2138 104.905 77.9688 103.66 77.9688 102.124C77.9688 100.589 79.2134 99.3435 80.7492 99.3435H84.1341C85.6699 99.3439 86.9145 100.589 86.9145 102.124Z" fill="#D4F2F3"/>
<path d="M99.4868 102.124C99.4868 103.659 98.2421 104.905 96.7063 104.905H93.3214C91.7859 104.905 90.5409 103.66 90.5409 102.124C90.5409 100.589 91.7855 99.3435 93.3214 99.3435H96.7063C98.2421 99.3439 99.4868 100.589 99.4868 102.124Z" fill="#D4F2F3"/>
<path d="M111.575 102.124C111.575 103.659 110.33 104.905 108.795 104.905H105.41C103.874 104.905 102.629 103.66 102.629 102.124C102.629 100.589 103.874 99.3435 105.41 99.3435H108.795C110.33 99.3439 111.575 100.589 111.575 102.124Z" fill="#D4F2F3"/>
<path d="M124.147 102.124C124.147 103.659 122.902 104.905 121.367 104.905H117.982C116.446 104.905 115.201 103.66 115.201 102.124C115.201 100.589 116.446 99.3435 117.982 99.3435H121.367C122.902 99.3439 124.147 100.589 124.147 102.124Z" fill="#D4F2F3"/>
<path opacity="0.8" d="M86.9145 109.832C86.9145 111.368 85.6699 112.613 84.1341 112.613H80.7492C79.2138 112.613 77.9688 111.368 77.9688 109.832C77.9688 108.297 79.2134 107.052 80.7492 107.052H84.1341C85.6699 107.052 86.9145 108.297 86.9145 109.832Z" fill="#74FCFD"/>
<path opacity="0.8" d="M99.4867 109.832C99.4867 111.368 98.242 112.613 96.7062 112.613H93.3213C91.7858 112.613 90.5408 111.368 90.5408 109.832C90.5408 108.297 91.7854 107.052 93.3213 107.052H96.7062C98.242 107.052 99.4867 108.297 99.4867 109.832Z" fill="#74FCFD"/>
<path opacity="0.8" d="M111.575 109.832C111.575 111.368 110.331 112.613 108.795 112.613H105.41C103.874 112.613 102.629 111.368 102.629 109.832C102.629 108.297 103.874 107.052 105.41 107.052H108.795C110.33 107.052 111.575 108.297 111.575 109.832Z" fill="#74FCFD"/>
<path opacity="0.8" d="M86.9145 118.294C86.9145 119.83 85.6699 121.075 84.1341 121.075H80.7492C79.2138 121.075 77.9688 119.83 77.9688 118.294C77.9688 116.759 79.2134 115.514 80.7492 115.514H84.1341C85.6699 115.514 86.9145 116.759 86.9145 118.294Z" fill="#74FCFD"/>
<path opacity="0.8" d="M99.4867 118.294C99.4867 119.83 98.242 121.075 96.7062 121.075H93.3213C91.7858 121.075 90.5408 119.83 90.5408 118.294C90.5408 116.759 91.7854 115.514 93.3213 115.514H96.7062C98.242 115.514 99.4867 116.759 99.4867 118.294Z" fill="#74FCFD"/>
<path opacity="0.8" d="M111.575 118.294C111.575 119.83 110.331 121.075 108.795 121.075H105.41C103.874 121.075 102.629 119.83 102.629 118.294C102.629 116.759 103.874 115.514 105.41 115.514H108.795C110.33 115.514 111.575 116.759 111.575 118.294Z" fill="#74FCFD"/>
<path d="M122.938 118.067C122.938 120.011 121.362 121.587 119.419 121.587H119.204C117.26 121.587 115.685 120.011 115.685 118.067V111.325C115.685 109.382 117.26 107.806 119.204 107.806H119.419C121.362 107.806 122.938 109.382 122.938 111.325V118.067Z" fill="#D4F2F3"/>
<g opacity="0.7">
<path opacity="0.7" d="M118.103 74.079C118.103 74.4129 117.832 74.6834 117.498 74.6834H115.806C115.472 74.6834 115.202 74.4129 115.202 74.079C115.202 73.7451 115.472 73.4746 115.806 73.4746H117.498C117.832 73.4746 118.103 73.7451 118.103 74.079Z" fill="#74A1BB"/>
<path opacity="0.7" d="M118.103 82.2992C118.103 82.6331 117.832 82.9035 117.498 82.9035H115.806C115.472 82.9035 115.202 82.6331 115.202 82.2992C115.202 81.9653 115.472 81.6948 115.806 81.6948H117.498C117.832 81.6944 118.103 81.9653 118.103 82.2992Z" fill="#74A1BB"/>
<path opacity="0.7" d="M115.443 77.4634C115.443 77.7973 115.173 78.0677 114.839 78.0677C114.505 78.0677 114.235 77.7973 114.235 77.4634V75.7711C114.235 75.4372 114.505 75.1667 114.839 75.1667C115.173 75.1667 115.443 75.4372 115.443 75.7711V77.4634Z" fill="#74A1BB"/>
<path opacity="0.7" d="M115.443 80.8483C115.443 81.1822 115.173 81.4527 114.839 81.4527C114.505 81.4527 114.235 81.1822 114.235 80.8483V79.1561C114.235 78.8222 114.505 78.5518 114.839 78.5518C115.173 78.5518 115.443 78.8222 115.443 79.1561V80.8483Z" fill="#74A1BB"/>
<path opacity="0.7" d="M119.553 77.4634C119.553 77.7973 119.283 78.0677 118.949 78.0677C118.615 78.0677 118.345 77.7973 118.345 77.4634V75.7711C118.345 75.4372 118.615 75.1667 118.949 75.1667C119.283 75.1667 119.553 75.4372 119.553 75.7711V77.4634Z" fill="#74A1BB"/>
<path opacity="0.7" d="M119.553 80.8483C119.553 81.1822 119.283 81.4527 118.949 81.4527C118.615 81.4527 118.345 81.1822 118.345 80.8483V79.1561C118.345 78.8222 118.615 78.5518 118.949 78.5518C119.283 78.5518 119.553 78.8222 119.553 79.1561V80.8483Z" fill="#74A1BB"/>
</g>
<path d="M88.5349 56.2186C91.4294 56.2186 93.7759 53.8721 93.7759 50.9776C93.7759 48.0831 91.4294 45.7366 88.5349 45.7366C85.6403 45.7366 83.2938 48.0831 83.2938 50.9776C83.2938 53.8721 85.6403 56.2186 88.5349 56.2186Z" fill="#597B8E"/>
<path d="M88.5348 56.0443C91.3331 56.0443 93.6015 53.7759 93.6015 50.9776C93.6015 48.1793 91.3331 45.9109 88.5348 45.9109C85.7366 45.9109 83.4681 48.1793 83.4681 50.9776C83.4681 53.7759 85.7366 56.0443 88.5348 56.0443Z" fill="#74A1BB"/>
<path opacity="0.78" d="M83.9953 50.2035C83.9706 50.2103 83.9438 50.2115 83.9171 50.2059C83.8254 50.1872 83.7663 50.0974 83.7855 50.006C84.1561 48.2017 85.4897 46.782 87.2661 46.3001C87.5497 46.2231 87.8405 46.1716 88.1305 46.1469C88.2239 46.1389 88.3056 46.2079 88.3136 46.3013C88.3216 46.3946 88.253 46.4772 88.1592 46.4844C87.8896 46.5075 87.6191 46.5554 87.355 46.6268C85.7031 47.0752 84.4624 48.396 84.1178 50.0739C84.1038 50.1389 84.0551 50.1876 83.9953 50.2035Z" fill="white"/>
<path opacity="0.78" d="M91.7014 54.088C93.3761 52.4133 93.3761 49.698 91.7014 48.0233C90.0267 46.3486 87.3114 46.3486 85.6367 48.0233C83.962 49.698 83.962 52.4133 85.6367 54.088C87.3114 55.7627 90.0267 55.7627 91.7014 54.088Z" fill="white"/>
<path d="M89.0988 54.2422L88.9767 53.7918C88.5024 53.9003 88.0078 53.9155 87.6388 53.8604C87.5071 53.8409 87.411 53.7248 87.4114 53.592L87.4122 53.1416C87.4126 52.9764 87.5582 52.8512 87.7221 52.8731C88.0863 52.9214 88.52 52.9206 88.9552 52.8021C89.4072 52.6796 89.7028 52.4347 89.6178 52.1204C89.5408 51.8367 89.2345 51.739 88.5607 51.741C87.5977 51.739 86.8477 51.5228 86.6339 50.7333C86.4404 50.0204 86.8142 49.3351 87.6786 48.9442L87.5566 48.4938C87.5171 48.349 87.6029 48.1994 87.7477 48.1603L88.0121 48.0885C88.157 48.049 88.3066 48.1347 88.3457 48.2796L88.4554 48.6841C88.8946 48.5835 89.2309 48.572 89.5057 48.5923C89.6465 48.6027 89.7542 48.722 89.7542 48.8632V49.2796C89.7542 49.4404 89.6166 49.5657 89.4567 49.5501C89.2017 49.5254 88.8507 49.523 88.4262 49.6383C87.8897 49.7839 87.7967 50.0476 87.851 50.247C87.9176 50.4924 88.285 50.5733 89.0406 50.5989C90.1181 50.6276 90.6439 50.9292 90.8457 51.6724C91.0308 52.3545 90.6913 53.1045 89.7519 53.5242L89.8887 54.028C89.9282 54.1728 89.8424 54.3224 89.6976 54.3615L89.4331 54.4333C89.2875 54.4728 89.1379 54.387 89.0988 54.2422Z" fill="#74A1BB"/>
<path d="M98.8007 44.6901C103.525 44.6901 107.354 40.8605 107.354 36.1364C107.354 31.4124 103.525 27.5828 98.8007 27.5828C94.0767 27.5828 90.2471 31.4124 90.2471 36.1364C90.2471 40.8605 94.0767 44.6901 98.8007 44.6901Z" fill="#597B8E"/>
<path d="M98.8005 44.4057C103.367 44.4057 107.07 40.7034 107.07 36.1364C107.07 31.5695 103.367 27.8672 98.8005 27.8672C94.2335 27.8672 90.5312 31.5695 90.5312 36.1364C90.5312 40.7034 94.2335 44.4057 98.8005 44.4057Z" fill="#74A1BB"/>
<path opacity="0.78" d="M91.3619 34.7598C91.3388 34.7661 91.3137 34.7673 91.2885 34.7622C91.2024 34.7446 91.1473 34.6604 91.1649 34.5747C91.7605 31.6741 93.9047 29.3907 96.7605 28.616C97.2161 28.4923 97.6836 28.4097 98.1504 28.3702C98.2377 28.3627 98.3147 28.4277 98.3219 28.515C98.3295 28.6024 98.2649 28.6802 98.1771 28.6866C97.7299 28.7245 97.2811 28.8039 96.8439 28.9227C94.1045 29.6659 92.0477 31.856 91.4764 34.6385C91.4637 34.6991 91.4182 34.7446 91.3619 34.7598Z" fill="white"/>
<path opacity="0.78" d="M103.97 41.2124C106.703 38.4793 106.703 34.048 103.97 31.3149C101.236 28.5818 96.8052 28.5818 94.0721 31.3149C91.3389 34.048 91.3389 38.4793 94.0721 41.2124C96.8052 43.9456 101.236 43.9456 103.97 41.2124Z" fill="white"/>
<path d="M99.7209 41.4644L99.5215 40.7296C98.7472 40.9067 97.9401 40.9314 97.3382 40.8421C97.1231 40.8102 96.9668 40.6211 96.9672 40.4037L96.968 39.6685C96.9684 39.3988 97.2061 39.1949 97.4734 39.2304C98.0678 39.3094 98.7751 39.3078 99.486 39.1148C100.224 38.9145 100.706 38.5152 100.567 38.0026C100.441 37.5398 99.9415 37.3802 98.8413 37.383C97.2695 37.3798 96.046 37.0268 95.6966 35.7387C95.381 34.5754 95.9906 33.4569 97.402 32.819L97.2025 32.0842C97.1383 31.8476 97.2779 31.6039 97.5145 31.5396L97.9461 31.4224C98.1827 31.3581 98.4264 31.4978 98.4906 31.7343L98.6698 32.3941C99.3862 32.2302 99.9352 32.2114 100.384 32.2441C100.614 32.2609 100.79 32.456 100.79 32.6861V33.3659C100.79 33.628 100.565 33.8326 100.304 33.8071C99.8885 33.7668 99.3152 33.7628 98.6223 33.9511C97.7467 34.1885 97.5951 34.6189 97.6832 34.9444C97.7917 35.3446 98.3917 35.4774 99.6248 35.5189C101.383 35.5656 102.241 36.0578 102.57 37.2709C102.872 38.3839 102.318 39.6086 100.785 40.2928L101.008 41.1153C101.072 41.3519 100.933 41.5956 100.696 41.6599L100.265 41.7772C100.029 41.8406 99.7852 41.701 99.7209 41.4644Z" fill="#74A1BB"/>
<path d="M109.496 61.8318C114.357 61.8318 118.298 57.8913 118.298 53.0304C118.298 48.1695 114.357 44.229 109.496 44.229C104.635 44.229 100.695 48.1695 100.695 53.0304C100.695 57.8913 104.635 61.8318 109.496 61.8318Z" fill="#597B8E"/>
<path d="M109.496 61.5395C114.195 61.5395 118.005 57.7299 118.005 53.0305C118.005 48.3311 114.195 44.5215 109.496 44.5215C104.797 44.5215 100.987 48.3311 100.987 53.0305C100.987 57.7299 104.797 61.5395 109.496 61.5395Z" fill="#74A1BB"/>
<path opacity="0.78" d="M101.84 51.6094C101.817 51.6158 101.792 51.617 101.767 51.6118C101.681 51.5943 101.626 51.5101 101.643 51.4243C102.256 48.4412 104.461 46.0931 107.398 45.2965C107.866 45.1692 108.347 45.0843 108.827 45.0436C108.914 45.036 108.991 45.101 108.999 45.1884C109.007 45.2757 108.942 45.3531 108.854 45.3599C108.393 45.399 107.931 45.4808 107.481 45.6029C104.661 46.368 102.543 48.6231 101.955 51.4878C101.942 51.5488 101.897 51.5943 101.84 51.6094Z" fill="white"/>
<path opacity="0.74" d="M114.815 58.2537C117.627 55.4413 117.627 50.8815 114.815 48.069C112.002 45.2566 107.442 45.2566 104.63 48.069C101.817 50.8815 101.817 55.4413 104.63 58.2537C107.442 61.0662 112.002 61.0662 114.815 58.2537Z" fill="white"/>
<path d="M110.443 58.5132L110.238 57.7568C109.441 57.9391 108.611 57.9647 107.991 57.8725C107.77 57.8394 107.609 57.6451 107.609 57.4213L107.611 56.665C107.611 56.3873 107.856 56.1775 108.131 56.2142C108.743 56.2956 109.47 56.2936 110.202 56.0953C110.961 55.8895 111.458 55.4782 111.314 54.9508C111.185 54.4749 110.671 54.3101 109.539 54.3133C107.921 54.3101 106.662 53.9467 106.303 52.6215C105.978 51.4247 106.605 50.2734 108.057 49.6172L107.852 48.8608C107.787 48.6175 107.93 48.3666 108.174 48.3008L108.618 48.1803C108.861 48.1145 109.112 48.2581 109.178 48.5014L109.362 49.1804C110.1 49.0116 110.664 48.9925 111.126 49.026C111.363 49.0431 111.544 49.2438 111.544 49.4808V50.1801C111.544 50.4497 111.313 50.6604 111.044 50.6341C110.617 50.5926 110.027 50.5886 109.314 50.7821C108.413 51.0266 108.257 51.4694 108.347 51.8041C108.459 52.2158 109.076 52.3522 110.345 52.3949C112.154 52.4428 113.038 52.9494 113.376 54.1976C113.687 55.3429 113.117 56.6027 111.54 57.3072L111.769 58.1534C111.835 58.3967 111.691 58.6476 111.448 58.7134L111.004 58.8339C110.76 58.9001 110.509 58.7565 110.443 58.5132Z" fill="#74A1BB"/>
<path d="M116.266 43.0457C120.154 43.0457 123.305 39.8943 123.305 36.0067C123.305 32.1192 120.154 28.9678 116.266 28.9678C112.379 28.9678 109.227 32.1192 109.227 36.0067C109.227 39.8943 112.379 43.0457 116.266 43.0457Z" fill="#597B8E"/>
<path d="M116.266 42.8121C120.025 42.8121 123.071 39.7653 123.071 36.0069C123.071 32.2485 120.025 29.2017 116.266 29.2017C112.508 29.2017 109.461 32.2485 109.461 36.0069C109.461 39.7653 112.508 42.8121 116.266 42.8121Z" fill="#74A1BB"/>
<path opacity="0.78" d="M110.156 34.915C110.13 34.9218 110.103 34.923 110.075 34.9174C109.982 34.8983 109.921 34.8065 109.941 34.7128C110.434 32.3096 112.21 30.4184 114.576 29.7765C114.953 29.6744 115.34 29.6057 115.727 29.5726C115.823 29.5647 115.906 29.6353 115.915 29.7306C115.923 29.826 115.853 29.9109 115.757 29.9181C115.391 29.9492 115.024 30.0142 114.667 30.1112C112.428 30.7183 110.748 32.5083 110.28 34.7822C110.267 34.8488 110.217 34.8983 110.156 34.915Z" fill="white"/>
<path opacity="0.78" d="M120.52 40.1842C122.769 37.935 122.769 34.2882 120.52 32.0389C118.27 29.7897 114.624 29.7897 112.374 32.0389C110.125 34.2882 110.125 37.935 112.374 40.1842C114.624 42.4335 118.27 42.4335 120.52 40.1842Z" fill="white"/>
<path d="M117.024 40.3914L116.86 39.7866C116.222 39.9322 115.559 39.9529 115.063 39.8791C114.886 39.8528 114.758 39.6972 114.758 39.5185L114.758 38.9133C114.759 38.6915 114.955 38.5236 115.174 38.5527C115.664 38.6177 116.246 38.6161 116.831 38.4578C117.438 38.293 117.835 37.9643 117.72 37.5422C117.617 37.1613 117.206 37.03 116.3 37.0324C115.006 37.0296 114 36.7392 113.712 35.6793C113.452 34.7223 113.954 33.8016 115.115 33.2766L114.951 32.6718C114.899 32.4771 115.014 32.2765 115.208 32.2238L115.564 32.1273C115.758 32.0746 115.959 32.1895 116.012 32.3842L116.159 32.9271C116.749 32.7923 117.201 32.7767 117.57 32.8039C117.759 32.8178 117.904 32.9782 117.904 33.1677V33.727C117.904 33.9428 117.719 34.1111 117.504 34.09C117.162 34.0569 116.69 34.0537 116.119 34.2085C115.399 34.4039 115.274 34.7582 115.347 35.0258C115.436 35.3554 115.93 35.4643 116.944 35.4986C118.391 35.5369 119.098 35.9422 119.369 36.9403C119.617 37.8562 119.161 38.8639 117.9 39.4272L118.083 40.1041C118.136 40.2988 118.021 40.4995 117.827 40.5521L117.471 40.6487C117.277 40.7009 117.077 40.586 117.024 40.3914Z" fill="#74A1BB"/>
<path d="M46.4408 124.69C46.4408 124.69 46.1504 126.247 46.0004 127.79C45.9418 128.394 46.4021 128.922 47.0073 128.953C49.0629 129.058 53.4606 129.267 55.04 129.211C55.2773 129.203 55.4349 128.962 55.3491 128.74C55.2773 128.554 55.1369 128.403 54.9566 128.319L47.7217 124.909L46.4408 124.69Z" fill="url(#paint0_linear_131_32)"/>
<path d="M46.2238 123.771L46.4272 125.639C46.4272 125.639 47.6946 126.244 48.5702 125.585L48.0628 123.5L46.2238 123.771Z" fill="url(#paint1_linear_131_32)"/>
<path d="M46.7249 88.6893C46.6248 89.1756 45.9797 113.003 48.4251 123.707C48.465 123.881 48.3748 124.06 48.2085 124.126C47.8163 124.282 47.048 124.506 46.1297 124.528C45.8453 124.535 45.5923 124.348 45.5146 124.074C44.8101 121.589 41.4392 109.142 41.0973 97.2781C40.7151 84.0216 41.1017 96.8269 41.1017 96.8269L41.4783 88.6387L46.7249 88.6893Z" fill="#74A1BB"/>
<path d="M38.0739 125.424C38.0739 125.424 37.6275 126.208 37.1831 128.296C37.1029 128.674 37.3634 129.038 37.7468 129.079C38.4253 129.153 39.4697 129.249 40.3075 129.251C40.6936 129.252 40.998 128.918 40.9553 128.534C40.8699 127.77 40.5927 126.514 39.7095 125.528L38.0739 125.424Z" fill="url(#paint2_linear_131_32)"/>
<path d="M37.7115 123.02L38.2018 125.847C38.2018 125.847 38.7096 126.233 39.7241 125.967L39.5063 122.928L37.7115 123.02Z" fill="url(#paint3_linear_131_32)"/>
<path d="M36.6353 89.3246C34.432 101.878 36.7909 120.405 37.6115 124.035C37.6617 124.257 37.8388 124.429 38.0634 124.468C38.4444 124.535 39.0723 124.592 39.6934 124.419C39.9076 124.359 40.0592 124.168 40.07 123.945C40.2128 121.019 40.1777 103.043 42.1867 95.9575C42.2884 95.5984 42.5114 95.2865 42.8174 95.0731L46.6107 92.4306L46.941 88.1035L36.6353 89.3246Z" fill="#74A1BB"/>
<path d="M50.138 65.6269C43.8953 65.4641 36.99 67.1408 36.99 67.1408C35.0253 77.9823 36.4415 90.5224 36.4415 90.5224C41.2628 91.8361 46.7348 89.8454 46.7348 89.8454C47.5814 85.3141 51.4517 72.5757 51.4517 72.5757C54.5058 72.2262 57.0274 71.3701 59.1078 70.226C57.5468 68.381 56.8248 66.0457 56.5148 64.6663C54.3008 65.3321 52.0632 65.6771 50.138 65.6269Z" fill="#74FCFD"/>
<path d="M68.6679 56.6064C68.0616 55.8596 67.2821 56.2027 67.2821 56.2027C66.3263 60.075 61.4786 63.1758 56.5148 64.667C56.8247 66.0465 57.5468 68.3818 59.1078 70.2268C67.3658 65.6867 68.6679 56.6064 68.6679 56.6064Z" fill="url(#paint4_linear_131_32)"/>
<path d="M68.5176 56.7935C68.5798 56.9981 67.8338 57.3017 67.4042 56.4631C67.3926 56.063 67.166 54.3477 67.4078 54.0241C68.6971 52.3012 71.1852 50.1494 71.1852 50.1494C71.5985 50.5651 71.251 50.966 71.251 50.966L70.0419 52.2015C70.288 52.6562 70.5896 53.0412 70.7276 53.5897C70.8322 54.005 70.7616 54.4474 70.5485 54.8228C70.3347 55.1994 70.0435 55.6888 69.7686 56.071C69.2488 56.7951 68.5176 56.7935 68.5176 56.7935Z" fill="url(#paint5_linear_131_32)"/>
<path d="M69.5105 53.0054L68.4107 53.9197L68.0592 54.8372L69.0214 55.9255C69.0214 55.9255 69.3657 54.102 69.6126 53.7087C69.8599 53.3157 69.7358 53.1231 69.5105 53.0054Z" fill="url(#paint6_linear_131_32)"/>
<path d="M39.327 73.2095L36.9897 67.1411C36.9897 67.1411 31.1199 71.0477 30.113 76.0626C31.2141 76.1543 33.2167 76.4599 35.1698 77.4696C35.6238 75.1016 39.327 73.2095 39.327 73.2095Z" fill="#74FCFD"/>
<path d="M44.3689 78.9468C44.3689 78.9468 37.7859 82.5845 35.6066 79.404C35.1542 78.7433 35.0509 78.0903 35.1697 77.47C33.2166 76.4603 31.214 76.1543 30.113 76.063C29.8094 77.5749 29.947 79.1869 30.8215 80.8237C34.624 87.9397 45.2202 80.57 45.2202 80.57L44.3689 78.9468Z" fill="url(#paint7_linear_131_32)"/>
<path d="M43.8622 60.4978L41.821 66.2239C41.7871 66.3189 41.8254 66.4246 41.9131 66.4741C42.4517 66.7784 44.3944 67.6625 46.76 66.1944C47.0065 66.0416 47.1757 65.7899 47.2156 65.5027L47.9061 60.5365L43.8622 60.4978Z" fill="url(#paint8_linear_131_32)"/>
<path d="M48.2356 55.219C48.2356 55.219 50.3778 59.3462 50.0826 61.0022C49.787 62.6581 47.0847 62.5133 44.7366 61.1438L43.1294 56.6942L48.2356 55.219Z" fill="url(#paint9_linear_131_32)"/>
<path d="M44.8615 58.9673C44.958 58.9258 44.9943 58.8085 44.9377 58.7203C44.7654 58.4519 44.443 57.9037 44.3429 57.4258C44.3429 57.4258 43.9531 57.1709 45.3466 56.8514C46.74 56.5319 48.8184 56.0352 49.2656 54.856C49.7016 53.7063 48.613 50.7942 46.8098 53.0888C46.7412 53.1762 46.6084 53.177 46.5417 53.088C46.2533 52.705 45.4934 51.9092 44.4231 52.3771C43.4214 52.8151 43.3021 53.5448 43.3125 53.9134C43.3153 54.0219 43.2179 54.1052 43.1114 54.0837C42.608 53.9828 41.3988 53.8886 40.8224 55.1245C40.3477 56.1425 40.6445 56.7241 40.9169 57.0098C41.0051 57.1023 40.9648 57.2531 40.842 57.2894C40.5097 57.3875 40.0792 57.6648 40.1143 58.4415C40.1634 59.5154 41.3641 59.4324 41.7064 59.3865C41.7627 59.379 41.8185 59.3989 41.856 59.4412C42.146 59.7683 43.4525 61.1573 44.8798 61.3369C45.0035 61.3524 45.1004 61.2311 45.061 61.1131L44.4598 59.3099C44.4319 59.2262 44.4725 59.1352 44.5535 59.1001L44.8615 58.9673Z" fill="black"/>
<path d="M45.1076 59.2245C45.1076 59.2245 43.5646 58.1438 43.4425 59.0402C43.3205 59.9366 44.8288 60.3535 45.5812 60.026L45.1076 59.2245Z" fill="url(#paint10_linear_131_32)"/>
<path d="M43.0237 84.696L46.5254 72.467C46.6171 72.1463 46.8924 71.9125 47.2243 71.8746C48.0517 71.7805 49.7275 71.5978 51.6248 71.4374C53.923 71.2431 56.5463 71.0812 58.3821 71.1474C58.9821 71.1689 59.3579 71.8032 59.0902 72.3406C57.7291 75.0728 54.1252 82.1796 52.1334 84.9014C51.9763 85.116 51.7257 85.2409 51.4593 85.2385L43.3723 85.1631C43.1302 85.1611 42.957 84.9289 43.0237 84.696Z" fill="#74A1BB"/>
<path d="M43.4497 85.5021L46.9514 73.2732C47.0431 72.9525 47.3184 72.7187 47.6503 72.6808C48.4777 72.5866 50.1535 72.4039 52.0508 72.2436C54.349 72.0493 56.9723 71.8873 58.8081 71.9536C59.4081 71.9751 59.7839 72.6094 59.5162 73.1467C58.1551 75.8789 54.5512 82.9857 52.5594 85.7076C52.4023 85.9222 52.1517 86.0471 51.8853 86.0447L43.7983 85.9693C43.5566 85.9673 43.383 85.7347 43.4497 85.5021Z" fill="black"/>
<path d="M43.8901 81.6707C43.8901 81.6707 43.3906 79.6166 43.5921 78.8878C43.7935 78.159 44.1841 77.2219 45.4853 77.4301C46.7866 77.6384 48.3217 78.1865 48.3217 78.1865C48.3217 78.1865 48.2443 79.1355 47.255 78.8296L47.8681 79.3043C47.8681 79.3043 47.7803 80.0642 46.945 79.6581L47.5155 80.2876C47.5155 80.2876 47.1568 80.9119 46.5421 80.5114C45.9278 80.1109 45.633 81.918 43.8901 81.6707Z" fill="url(#paint11_linear_131_32)"/>
<path d="M47.0145 75.8696L46.748 75.791L47.4781 73.3145C47.597 72.9116 47.9221 72.6088 48.327 72.5246C50.6411 72.0419 56.7363 71.943 56.9944 71.939L56.9987 72.217C56.9357 72.2178 50.6718 72.3191 48.3836 72.7967C48.0792 72.8601 47.8343 73.0891 47.7446 73.3935L47.0145 75.8696Z" fill="#91B3FA"/>
<defs>
<linearGradient id="paint0_linear_131_32" x1="54.8723" y1="122.614" x2="27.9882" y2="151.304" gradientUnits="userSpaceOnUse">
<stop stop-color="#09005D"/>
<stop offset="1" stop-color="#1A0F91"/>
</linearGradient>
<linearGradient id="paint1_linear_131_32" x1="46.2149" y1="124.681" x2="48.5784" y2="124.704" gradientUnits="userSpaceOnUse">
<stop stop-color="#FEBBBA"/>
<stop offset="1" stop-color="#FF928E"/>
</linearGradient>
<linearGradient id="paint2_linear_131_32" x1="48.9551" y1="117.069" x2="22.07" y2="145.76" gradientUnits="userSpaceOnUse">
<stop stop-color="#09005D"/>
<stop offset="1" stop-color="#1A0F91"/>
</linearGradient>
<linearGradient id="paint3_linear_131_32" x1="37.6975" y1="124.479" x2="39.7382" y2="124.498" gradientUnits="userSpaceOnUse">
<stop stop-color="#FEBBBA"/>
<stop offset="1" stop-color="#FF928E"/>
</linearGradient>
<linearGradient id="paint4_linear_131_32" x1="56.5295" y1="63.11" x2="68.6052" y2="63.2247" gradientUnits="userSpaceOnUse">
<stop stop-color="#FEBBBA"/>
<stop offset="1" stop-color="#FF928E"/>
</linearGradient>
<linearGradient id="paint5_linear_131_32" x1="65.9346" y1="61.1753" x2="57.6566" y2="79.5343" gradientUnits="userSpaceOnUse">
<stop stop-color="#FEBBBA"/>
<stop offset="1" stop-color="#FF928E"/>
</linearGradient>
<linearGradient id="paint6_linear_131_32" x1="68.6249" y1="55.0606" x2="72.0554" y2="49.8943" gradientUnits="userSpaceOnUse">
<stop stop-color="#FEBBBA"/>
<stop offset="1" stop-color="#FF928E"/>
</linearGradient>
<linearGradient id="paint7_linear_131_32" x1="29.9431" y1="79.9622" x2="45.2245" y2="80.1074" gradientUnits="userSpaceOnUse">
<stop stop-color="#FEBBBA"/>
<stop offset="1" stop-color="#FF928E"/>
</linearGradient>
<linearGradient id="paint8_linear_131_32" x1="41.8328" y1="63.7372" x2="47.8748" y2="63.7946" gradientUnits="userSpaceOnUse">
<stop stop-color="#FEBBBA"/>
<stop offset="1" stop-color="#FF928E"/>
</linearGradient>
<linearGradient id="paint9_linear_131_32" x1="49.3483" y1="59.9647" x2="42.7438" y2="55.85" gradientUnits="userSpaceOnUse">
<stop stop-color="#FEBBBA"/>
<stop offset="1" stop-color="#FF928E"/>
</linearGradient>
<linearGradient id="paint10_linear_131_32" x1="47.5892" y1="61.4591" x2="41.6469" y2="57.7569" gradientUnits="userSpaceOnUse">
<stop stop-color="#FEBBBA"/>
<stop offset="1" stop-color="#FF928E"/>
</linearGradient>
<linearGradient id="paint11_linear_131_32" x1="43.544" y1="79.5474" x2="48.3215" y2="79.5474" gradientUnits="userSpaceOnUse">
<stop stop-color="#FEBBBA"/>
<stop offset="1" stop-color="#FF928E"/>
</linearGradient>
</defs>
</svg>
