<svg width="116" height="110" viewBox="0 0 116 110" fill="none" xmlns="http://www.w3.org/2000/svg">
<g opacity="0.3">
<path opacity="0.3" d="M30.6704 37.1999C30.6798 36.9541 30.8868 36.7627 31.1327 36.7725C31.6099 36.7913 32.0953 36.7896 32.5751 36.767C32.8179 36.7559 33.0242 36.9413 33.0399 37.1825C33.0399 37.1854 33.0404 37.188 33.0404 37.191C33.0519 37.4364 32.8618 37.6448 32.616 37.6563C32.111 37.6797 31.6001 37.6814 31.0978 37.6618C30.8681 37.6529 30.6857 37.4709 30.6708 37.2468C30.67 37.2315 30.6695 37.2157 30.6704 37.1999ZM34.9024 36.4986C35.3745 36.4112 35.8471 36.303 36.3077 36.1764C36.5446 36.1112 36.7896 36.2506 36.8548 36.4879C36.9196 36.7261 36.7802 36.9698 36.5433 37.035C36.0589 37.168 35.5612 37.2822 35.0648 37.3742C34.8232 37.4189 34.5905 37.2591 34.5458 37.0176C34.5424 37.0001 34.5402 36.9826 34.5394 36.9651C34.5245 36.7427 34.6783 36.5399 34.9024 36.4986ZM38.517 35.4005C38.9563 35.2109 39.3931 34.9995 39.8145 34.7729C40.031 34.6565 40.3011 34.7375 40.4174 34.9539C40.5333 35.1704 40.4528 35.4401 40.2363 35.5569C39.7923 35.7959 39.3326 36.0183 38.8698 36.2178C38.644 36.3153 38.382 36.2109 38.2848 35.9855C38.2639 35.9374 38.2524 35.8875 38.249 35.8381C38.2371 35.6557 38.3393 35.4772 38.517 35.4005ZM41.7955 33.5218C42.1819 33.2385 42.5603 32.9347 42.9208 32.6198C43.1057 32.4578 43.3874 32.4766 43.5489 32.662C43.7103 32.8473 43.6916 33.1281 43.5067 33.29C43.127 33.622 42.7286 33.9415 42.3221 34.2398C42.124 34.3851 41.8453 34.3425 41.7 34.1444C41.648 34.0736 41.6199 33.9922 41.6148 33.9104C41.605 33.7634 41.668 33.6151 41.7955 33.5218ZM44.5732 30.9592C44.8864 30.5979 45.1885 30.2178 45.4706 29.8301C45.6154 29.6315 45.8937 29.5876 46.0927 29.7325C46.2917 29.8774 46.3351 30.1556 46.1903 30.3546C45.8933 30.7628 45.5754 31.1625 45.246 31.5426C45.0849 31.7284 44.8037 31.7484 44.6179 31.5873C44.5242 31.5064 44.4726 31.3947 44.4654 31.2801C44.4581 31.1672 44.4935 31.0513 44.5732 30.9592ZM46.7152 27.8462C46.941 27.4239 47.1511 26.9867 47.3403 26.5466C47.4374 26.3207 47.6995 26.2163 47.9249 26.3135C48.1507 26.4106 48.2551 26.6723 48.158 26.8985C47.959 27.3617 47.7374 27.8219 47.4997 28.2663C47.3838 28.4832 47.114 28.565 46.8972 28.4491C46.7561 28.3737 46.6726 28.2335 46.6628 28.0852C46.6581 28.0047 46.6743 27.922 46.7152 27.8462ZM46.8903 11.3152C47.1072 11.1988 47.3769 11.2806 47.4928 11.4971C47.7306 11.9411 47.9522 12.4017 48.1516 12.8653C48.2487 13.0911 48.1439 13.3532 47.9181 13.4499C47.6923 13.5471 47.4306 13.4423 47.3335 13.2164C47.1443 12.7758 46.9338 12.3387 46.708 11.9172C46.6769 11.8593 46.6602 11.7979 46.656 11.7361C46.6449 11.5683 46.7314 11.4004 46.8903 11.3152ZM48.1128 24.3376C48.2389 23.8762 48.3467 23.4032 48.4324 22.9328C48.4767 22.6908 48.7085 22.5306 48.9505 22.5749C49.1926 22.6192 49.3515 22.851 49.3085 23.093C49.2177 23.5886 49.1044 24.0867 48.9718 24.5729C48.9071 24.8102 48.6621 24.95 48.4251 24.8848C48.2372 24.8332 48.1103 24.6687 48.0983 24.4842C48.0945 24.4361 48.0992 24.3867 48.1128 24.3376ZM48.4175 14.882C48.6548 14.8173 48.8994 14.9575 48.9642 15.1944C49.0967 15.6801 49.2096 16.1782 49.3008 16.6747C49.3464 16.9167 49.1849 17.1485 48.9433 17.1928C48.7017 17.2371 48.4695 17.0769 48.4251 16.8353C48.3386 16.3636 48.2313 15.8902 48.1051 15.4287C48.097 15.3993 48.0924 15.3695 48.0907 15.3405C48.077 15.1334 48.21 14.9387 48.4175 14.882ZM48.691 20.6059C48.7106 20.1278 48.7098 19.6429 48.6889 19.1639C48.6778 18.9181 48.8683 18.7106 49.1137 18.6995C49.3562 18.6888 49.562 18.8738 49.5778 19.1149C49.5778 19.1179 49.5782 19.1213 49.5782 19.1243C49.6008 19.6284 49.6016 20.1388 49.5807 20.6421C49.5705 20.8879 49.3634 21.0788 49.1176 21.0686C48.8883 21.0592 48.7064 20.8777 48.6915 20.6536C48.6906 20.6378 48.6906 20.6216 48.691 20.6059Z" fill="#91B3FA"/>
<path opacity="0.3" d="M44.9365 9.12627C44.9421 9.21362 44.9736 9.30055 45.0324 9.37426C45.1756 9.55365 45.317 9.73901 45.4538 9.92564C45.5991 10.1238 45.8778 10.1668 46.0759 10.0215C46.2745 9.87621 46.3175 9.59754 46.1718 9.3994C46.0282 9.2034 45.8791 9.00824 45.7287 8.81948C45.5753 8.62731 45.2953 8.59578 45.1031 8.74875C44.9847 8.84334 44.9272 8.98566 44.9365 9.12627Z" fill="#91B3FA"/>
</g>
<g opacity="0.3">
<path opacity="0.3" d="M33.0033 2.65952C33.0174 2.87385 33.1853 3.05239 33.406 3.07327C33.6344 3.09457 33.8666 3.12142 34.095 3.1521C34.3387 3.18533 34.5628 3.01447 34.5961 2.77074C34.6293 2.52616 34.4584 2.30288 34.2147 2.26964C33.974 2.23683 33.7298 2.20914 33.4891 2.18655C33.2445 2.16354 33.0272 2.34336 33.0042 2.58837C33.002 2.61265 33.002 2.63652 33.0033 2.65952Z" fill="#91B3FA"/>
<path opacity="0.3" d="M14.0321 20.1603C14.0278 19.9144 14.2242 19.712 14.4701 19.7077C14.7159 19.7039 14.9179 19.8995 14.9222 20.1458C14.9298 20.6136 14.9575 21.0887 15.0044 21.563C15.0296 21.8063 14.8502 22.0257 14.6052 22.05C14.3606 22.0743 14.1424 21.8958 14.1181 21.6512C14.0977 21.4458 14.0806 21.2409 14.0674 21.0363C14.0491 20.7444 14.0367 20.4496 14.0321 20.1603ZM14.8514 23.5069C15.0905 23.4498 15.3308 23.5972 15.3879 23.8362C15.4978 24.2951 15.6282 24.7549 15.7752 25.2015C15.8528 25.4345 15.7254 25.6868 15.4919 25.7639C15.2584 25.841 15.0065 25.7141 14.9298 25.4806C14.7747 25.0101 14.6375 24.5265 14.5221 24.0433C14.5161 24.0182 14.5123 23.993 14.5106 23.9683C14.4965 23.7557 14.6371 23.558 14.8514 23.5069ZM14.159 17.7375C14.2187 17.2457 14.3001 16.7498 14.4015 16.2636C14.4518 16.0228 14.6874 15.8686 14.9281 15.9184C15.1689 15.9687 15.3231 16.2043 15.2733 16.4451C15.177 16.907 15.0994 17.3778 15.0432 17.8448C15.0134 18.089 14.7918 18.2628 14.5476 18.233C14.3316 18.2066 14.171 18.0302 14.1573 17.8205C14.1548 17.7933 14.1556 17.7656 14.159 17.7375ZM16.0496 27.1317C16.2704 27.0235 16.5371 27.1147 16.6453 27.3354C16.8528 27.7585 17.0812 28.1778 17.3233 28.5817C17.4498 28.7926 17.3816 29.0658 17.1707 29.1923C16.9598 29.3189 16.6867 29.2507 16.5601 29.0398C16.3049 28.6145 16.0646 28.1731 15.846 27.7274C15.8195 27.6737 15.8051 27.617 15.8012 27.5608C15.7901 27.3861 15.883 27.2135 16.0496 27.1317ZM15.0577 13.9298C15.2239 13.4637 15.4126 12.9979 15.618 12.5458C15.7198 12.3221 15.9836 12.2233 16.2073 12.3247C16.4314 12.4265 16.5303 12.6903 16.4284 12.9144C16.2333 13.3439 16.0539 13.7862 15.8962 14.2289C15.8136 14.4607 15.5588 14.5813 15.3274 14.4987C15.1548 14.4373 15.044 14.2801 15.0325 14.1084C15.0287 14.0496 15.0364 13.9891 15.0577 13.9298ZM16.7697 10.4119C17.0344 9.99223 17.3203 9.57891 17.6185 9.18349C17.7668 8.98706 18.0459 8.94828 18.2419 9.09614C18.4384 9.24442 18.4776 9.52352 18.3293 9.71952C18.0459 10.0953 17.7745 10.4882 17.5227 10.887C17.3914 11.095 17.1166 11.1572 16.9087 11.0259C16.7834 10.9467 16.7109 10.8155 16.702 10.6782C16.696 10.5875 16.7178 10.4942 16.7697 10.4119ZM19.2079 7.3504C19.5582 6.99802 19.9267 6.65671 20.3043 6.33586C20.4917 6.1765 20.7725 6.19908 20.9319 6.38657C21.0913 6.57405 21.0687 6.85485 20.8812 7.01421C20.5228 7.3193 20.1722 7.64356 19.8394 7.97805C19.666 8.15233 19.3843 8.15318 19.21 7.97976C19.1299 7.90007 19.0865 7.79781 19.0796 7.69342C19.0711 7.57027 19.1142 7.44457 19.2079 7.3504ZM22.2558 4.89351C22.6742 4.62634 23.1093 4.37409 23.5482 4.14357C23.7659 4.02938 24.0352 4.11332 24.1494 4.33106C24.2636 4.54837 24.1796 4.81766 23.9619 4.93228C23.5452 5.15087 23.1323 5.39077 22.7347 5.6443C22.5276 5.77639 22.2524 5.71588 22.1203 5.50837C22.0785 5.44275 22.056 5.37074 22.0513 5.2983C22.0406 5.1415 22.1139 4.98427 22.2558 4.89351ZM25.7707 3.16567C26.2369 2.99779 26.7162 2.8478 27.1956 2.71954C27.4333 2.65605 27.6771 2.79709 27.7406 3.03443C27.8036 3.27134 27.663 3.51593 27.4257 3.57941C26.9702 3.70128 26.5147 3.84402 26.072 4.00338C25.8406 4.0869 25.5858 3.96674 25.5023 3.73537C25.4878 3.69489 25.4792 3.65398 25.4767 3.6135C25.4643 3.42048 25.5798 3.23427 25.7707 3.16567ZM29.5754 2.25296C29.9375 2.20694 30.3053 2.17158 30.6692 2.14771C30.8008 2.13919 30.9321 2.13195 31.0633 2.12641C31.3087 2.11576 31.5214 2.30282 31.5273 2.55166C31.538 2.79709 31.3475 3.00503 31.1021 3.01568C30.9776 3.02122 30.8524 3.02804 30.7275 3.03614C30.382 3.05872 30.0321 3.09238 29.6878 3.13584C29.4441 3.16695 29.2213 2.99438 29.1902 2.75022C29.1889 2.74085 29.188 2.7319 29.1876 2.72295C29.1723 2.48987 29.341 2.28236 29.5754 2.25296Z" fill="#91B3FA"/>
<path opacity="0.3" d="M17.8589 30.7889C17.8649 30.8771 17.8968 30.9644 17.9565 31.0385C18.1078 31.2265 18.2658 31.4144 18.426 31.5976C18.588 31.7825 18.8692 31.8013 19.0541 31.6394C19.239 31.4774 19.2578 31.1962 19.0959 31.0113C18.9433 30.8374 18.7933 30.6585 18.6498 30.4804C18.4955 30.289 18.2156 30.2588 18.0238 30.4126C17.9062 30.5072 17.8495 30.6491 17.8589 30.7889Z" fill="#91B3FA"/>
</g>
<path d="M25.4461 31.6151C25.5186 31.6666 25.6153 31.6666 25.6877 31.6151L27.7492 30.1446C28.8434 30.5933 30.0173 30.8707 31.2317 30.9482L32.4414 33.1712C32.484 33.2492 32.571 33.2918 32.6587 33.2769L35.6542 32.7741C35.742 32.7596 35.8106 32.6906 35.8251 32.6032L36.2427 30.1071C37.3654 29.6371 38.3842 28.992 39.2722 28.2105L41.701 28.9277C41.7862 28.9528 41.8778 28.9213 41.9294 28.8488L43.6922 26.3749C43.7437 26.3025 43.7437 26.2057 43.6922 26.1333L42.2217 24.0718C42.6704 22.9776 42.9478 21.8037 43.0253 20.5893L45.2483 19.3796C45.3263 19.337 45.3689 19.2501 45.354 19.1623L44.8512 16.1664C44.8363 16.079 44.7677 16.0104 44.6803 15.9955L42.1842 15.5779C41.7142 14.4552 41.0691 13.4364 40.2876 12.5484L41.0048 10.1196C41.0299 10.0344 40.9984 9.94276 40.9259 9.89121L38.452 8.12843C38.3796 8.07687 38.2828 8.07687 38.2104 8.12843L36.1489 9.59932C35.0547 9.15064 33.8812 8.87325 32.6664 8.7957L31.4567 6.57273C31.4145 6.49476 31.3272 6.45215 31.2394 6.46706L28.2435 6.96986C28.1561 6.98477 28.0875 7.05338 28.0726 7.14073L27.655 9.63682C26.5323 10.1068 25.5134 10.7519 24.6255 11.5334L22.1967 10.8163C22.1115 10.7911 22.0198 10.8227 21.9683 10.8951L20.2055 13.369C20.154 13.4415 20.154 13.5382 20.2055 13.6106L21.676 15.6721C21.2273 16.7663 20.9499 17.9402 20.8724 19.1546L18.6494 20.3643C18.5714 20.4069 18.5288 20.4939 18.5437 20.5816L19.0465 23.5776C19.0614 23.6649 19.1296 23.7335 19.2174 23.7484L21.7135 24.166C22.1835 25.2888 22.8286 26.3076 23.6101 27.1956L22.8929 29.6243C22.8678 29.7096 22.8993 29.8012 22.9718 29.8527L25.4461 31.6151Z" fill="#74A1BB"/>
<path d="M28.9056 19.6252C29.042 17.9472 30.518 16.6928 32.1959 16.8287C33.0089 16.8947 33.7474 17.2731 34.2757 17.8948C34.8037 18.516 35.0585 19.306 34.9924 20.119C34.8561 21.797 33.3801 23.0515 31.7021 22.9155C30.1754 22.7915 28.9993 21.5588 28.9022 20.0734C28.8924 19.926 28.8932 19.7764 28.9056 19.6252ZM33.7325 18.3563C33.3277 17.8799 32.7614 17.5897 32.138 17.539C30.8516 17.4346 29.7194 18.3963 29.6155 19.6831C29.5107 20.97 30.4728 22.1017 31.7596 22.2061C33.046 22.3105 34.1782 21.3488 34.2826 20.0619C34.2919 19.9452 34.2928 19.8293 34.2851 19.7147C34.2523 19.2161 34.0618 18.7432 33.7325 18.3563Z" fill="#BDD0FB"/>
<path d="M24.4973 20.2991C24.5139 20.5544 24.5438 20.81 24.5864 21.0657C24.6 21.1462 24.6145 21.2263 24.6307 21.3064C24.7099 21.7006 24.8207 22.0883 24.9605 22.4625C24.9622 22.4676 24.9643 22.4727 24.966 22.4778C24.9716 22.4923 24.9771 22.5068 24.9826 22.5213C24.9933 22.5494 25.0044 22.5775 25.0155 22.6052C25.0449 22.6789 25.1173 22.722 25.1923 22.7173C25.2106 22.716 25.2289 22.7122 25.2468 22.7049C25.338 22.6687 25.3823 22.5651 25.3465 22.4735C25.1595 22.0031 25.0219 21.5097 24.9375 21.0065C24.5178 18.5074 25.4552 16.0884 27.2107 14.5055C28.1869 13.6247 29.4167 13.003 30.8066 12.7695C31.0503 12.7286 31.2945 12.7001 31.5378 12.6843C33.1753 12.5773 34.7859 13.0329 36.1405 13.998C37.6962 15.1067 38.7274 16.7544 39.0435 18.6382C39.6963 22.5289 37.063 26.2224 33.1744 26.8747C32.9345 26.9148 32.6938 26.9429 32.4526 26.9587C31.4082 27.0268 30.3605 26.8658 29.3851 26.4831C29.36 26.4733 29.334 26.4695 29.3084 26.4712C29.242 26.4755 29.1802 26.5177 29.1542 26.5837C29.1184 26.6753 29.1631 26.7789 29.2552 26.8147C30.2791 27.2165 31.3793 27.3856 32.4756 27.314C32.7287 27.2974 32.9814 27.268 33.2332 27.2263C37.3161 26.5411 40.0798 22.6606 39.3946 18.5794C39.0627 16.6014 37.9804 14.8715 36.3472 13.7078C34.9253 12.6945 33.2341 12.2164 31.5152 12.3285C31.26 12.3451 31.0035 12.375 30.7478 12.418C28.7698 12.7499 27.0399 13.8322 25.8762 15.4655C24.8629 16.8878 24.3848 18.5798 24.4973 20.2991Z" fill="#BDD0FB"/>
<g opacity="0.3">
<path opacity="0.3" d="M19.9562 53.1724C19.9639 53.2913 20.0487 53.3952 20.1705 53.4225C20.3985 53.4736 20.6307 53.5184 20.8612 53.5555C21.0112 53.5797 21.1523 53.4779 21.1766 53.3279C21.2013 53.1779 21.099 53.0369 20.949 53.0126C20.7291 52.9772 20.5076 52.9342 20.2903 52.8856C20.1424 52.8524 19.9954 52.9457 19.9617 53.094C19.9562 53.1204 19.9545 53.1468 19.9562 53.1724Z" fill="#91B3FA"/>
<path opacity="0.3" d="M22.0535 53.415C22.059 53.2633 22.1864 53.1448 22.3385 53.1504C22.7216 53.164 23.1098 53.1585 23.492 53.1338C23.5725 53.1286 23.6535 53.1223 23.7344 53.115C23.8857 53.1022 24.0191 53.2139 24.0319 53.3651C24.0387 53.5087 23.933 53.6498 23.7813 53.663C23.6965 53.6702 23.6117 53.6766 23.5274 53.6821C23.1264 53.7086 22.7195 53.7141 22.3177 53.6996C22.1753 53.6945 22.0624 53.582 22.0535 53.4431C22.0535 53.4337 22.0535 53.4244 22.0535 53.415ZM25.1159 52.9101C25.5705 52.8142 26.0234 52.6889 26.4615 52.5381C26.6051 52.4886 26.7615 52.5649 26.8109 52.7085C26.8599 52.8512 26.784 53.0085 26.6404 53.0579C26.1811 53.216 25.7064 53.3472 25.2296 53.4478C25.0809 53.4793 24.9352 53.3843 24.9037 53.2356C24.9011 53.2228 24.8994 53.2092 24.8985 53.1964C24.8896 53.0622 24.9804 52.9386 25.1159 52.9101ZM27.7513 52.0025C28.168 51.7984 28.5758 51.5657 28.9644 51.3113C29.0914 51.2282 29.2618 51.2636 29.3449 51.3906C29.4284 51.518 29.3931 51.688 29.2656 51.7711C28.8583 52.0382 28.4301 52.282 27.9933 52.4963C27.857 52.5632 27.6921 52.507 27.6252 52.3706C27.609 52.3374 27.6 52.3024 27.5979 52.2675C27.5906 52.1597 27.6482 52.0532 27.7513 52.0025ZM30.0829 50.4753C30.4374 50.1749 30.7762 49.8494 31.0898 49.5085C31.1929 49.3969 31.3668 49.3896 31.4784 49.4923C31.5896 49.595 31.5973 49.7688 31.4946 49.8809C31.1656 50.2384 30.8103 50.5797 30.4387 50.895C30.3228 50.9934 30.1494 50.979 30.051 50.8631C30.0118 50.8162 29.99 50.7604 29.9866 50.7033C29.9811 50.6189 30.0139 50.5337 30.0829 50.4753ZM31.9714 48.4249C32.242 48.0474 32.4912 47.6494 32.7132 47.2425C32.7857 47.1091 32.9527 47.0601 33.0861 47.133C33.2194 47.2058 33.2689 47.3724 33.1956 47.5062C32.9629 47.9328 32.7013 48.3499 32.4179 48.7458C32.3293 48.8693 32.1576 48.8975 32.0344 48.8093C31.9646 48.7594 31.9254 48.6827 31.9203 48.6035C31.9164 48.5417 31.9326 48.4786 31.9714 48.4249ZM33.3047 45.9782C33.4751 45.5466 33.62 45.1005 33.7354 44.6518C33.7734 44.5048 33.9234 44.4162 34.0704 44.4541C34.2174 44.492 34.3056 44.6411 34.2681 44.789C34.1471 45.2594 33.9949 45.7277 33.8164 46.1802C33.7606 46.3213 33.6008 46.3907 33.4598 46.3349C33.3575 46.2944 33.2931 46.1998 33.2863 46.0971C33.2833 46.0579 33.2893 46.0175 33.3047 45.9782ZM33.9988 43.2815C34.058 42.8225 34.0887 42.3543 34.0908 41.8885C34.0917 41.7368 34.2152 41.6141 34.3669 41.615C34.5186 41.6154 34.6392 41.739 34.6409 41.8911C34.6388 42.379 34.6064 42.8703 34.5442 43.3518C34.5246 43.5022 34.387 43.6087 34.2361 43.5895C34.1036 43.5725 34.0052 43.4638 33.9971 43.3351C33.9962 43.3172 33.9966 43.2994 33.9988 43.2815ZM33.9621 38.7878C34.1096 38.7516 34.2583 38.8415 34.2949 38.9889C34.3955 39.3971 34.4752 39.8177 34.5318 40.2382C34.5408 40.3022 34.5489 40.3656 34.5565 40.4296C34.5787 40.5791 34.4666 40.7172 34.3154 40.7347C34.1645 40.7525 34.0282 40.6447 34.0103 40.4939C34.0035 40.4343 33.9958 40.3742 33.9873 40.3132C33.9332 39.911 33.8569 39.5096 33.761 39.1202C33.7572 39.104 33.7546 39.0882 33.7538 39.072C33.7448 38.9416 33.8309 38.8202 33.9621 38.7878Z" fill="#91B3FA"/>
</g>
<g opacity="0.3">
<path opacity="0.3" d="M10.9032 42.4411C10.878 41.9626 10.8823 41.4785 10.9147 41.0017C10.9253 40.8505 11.0562 40.7358 11.2078 40.7465C11.3595 40.7567 11.4725 40.8892 11.4631 41.0397C11.4316 41.4939 11.4281 41.9558 11.452 42.4125C11.4601 42.5642 11.3433 42.6938 11.1917 42.7014C11.0412 42.7091 10.9126 42.5945 10.9028 42.4449C10.9036 42.4437 10.9032 42.442 10.9032 42.4411ZM11.2888 43.5541C11.4384 43.5281 11.5807 43.6282 11.6067 43.7778C11.6851 44.2277 11.7916 44.6777 11.9233 45.1149C11.9663 45.2593 11.8849 45.4136 11.7392 45.4575C11.5939 45.5014 11.4405 45.4187 11.3966 45.2734C11.2586 44.8153 11.1473 44.3441 11.0651 43.8724C11.0634 43.8626 11.0621 43.8528 11.0617 43.8425C11.0523 43.7041 11.149 43.5784 11.2888 43.5541ZM11.1013 39.5734C11.1925 39.1026 11.3135 38.6335 11.4605 38.1792C11.5074 38.0348 11.6625 37.9555 11.8069 38.0024C11.9514 38.0489 12.0302 38.2035 11.9842 38.3484C11.844 38.7817 11.7285 39.2292 11.6412 39.6783C11.6122 39.8274 11.4678 39.9246 11.3191 39.8956C11.1938 39.8713 11.1052 39.7652 11.0971 39.6437C11.0954 39.6207 11.0971 39.5973 11.1013 39.5734ZM12.0366 46.2624C12.1755 46.201 12.3379 46.2641 12.3992 46.403C12.5833 46.821 12.7951 47.2317 13.029 47.6238C13.1066 47.7541 13.0635 47.9229 12.9336 48.0009C12.8032 48.0784 12.634 48.0358 12.5565 47.9054C12.3115 47.4942 12.089 47.0634 11.896 46.625C11.8828 46.5947 11.8751 46.5632 11.8734 46.5321C11.8657 46.4196 11.928 46.3101 12.0366 46.2624ZM11.9868 36.8396C12.1883 36.4058 12.4184 35.9797 12.6707 35.5728C12.7508 35.4437 12.9203 35.404 13.0495 35.4842C13.1786 35.5643 13.2182 35.7339 13.1381 35.863C12.8969 36.2507 12.6779 36.6572 12.4857 37.071C12.4218 37.2086 12.2582 37.2687 12.1206 37.2043C12.0264 37.1604 11.9684 37.0697 11.962 36.9725C11.9586 36.9286 11.9667 36.8826 11.9868 36.8396ZM13.502 34.3976C13.802 34.0239 14.1275 33.6651 14.4692 33.3311C14.5779 33.225 14.7517 33.2271 14.8578 33.3353C14.9639 33.4436 14.9622 33.6178 14.8536 33.7244C14.528 34.0431 14.2174 34.3852 13.9311 34.7419C13.836 34.8603 13.663 34.8791 13.5446 34.7841C13.4819 34.7338 13.4474 34.6618 13.4423 34.5876C13.4376 34.5212 13.4572 34.4534 13.502 34.3976ZM15.5583 32.3885C15.9393 32.0971 16.3419 31.8269 16.754 31.5849C16.8852 31.5078 17.0535 31.5517 17.1302 31.6829C17.2073 31.8137 17.163 31.9825 17.0322 32.0592C16.6389 32.2897 16.2554 32.5475 15.8924 32.8257C15.7718 32.9178 15.5992 32.8947 15.5068 32.7742C15.4723 32.7294 15.4544 32.6774 15.451 32.6254C15.4454 32.5364 15.4825 32.4465 15.5583 32.3885Z" fill="#91B3FA"/>
<path opacity="0.3" d="M13.3179 48.9552C13.3213 49.0081 13.3401 49.0605 13.375 49.1057C13.5195 49.2914 13.6699 49.4738 13.822 49.6481C13.9221 49.7623 14.096 49.7738 14.2102 49.6737C14.324 49.5735 14.3359 49.4001 14.2357 49.2855C14.0904 49.1197 13.9469 48.9454 13.8092 48.7682C13.7159 48.648 13.5433 48.6267 13.4236 48.7196C13.349 48.778 13.3124 48.8675 13.3179 48.9552Z" fill="#91B3FA"/>
</g>
<path d="M18.5032 49.6751C18.5517 49.7096 18.6165 49.7096 18.6647 49.6751L20.0444 48.6908C20.7764 48.9908 21.5621 49.1766 22.3747 49.2286L23.1843 50.7161C23.2129 50.7681 23.2712 50.7966 23.3296 50.7868L25.334 50.4502C25.3928 50.4404 25.4384 50.3944 25.4482 50.336L25.7277 48.6657C26.4789 48.3512 27.1607 47.9196 27.7547 47.3968L29.3798 47.8765C29.4369 47.8936 29.4983 47.8723 29.5328 47.8237L30.7122 46.1683C30.7467 46.1202 30.7467 46.055 30.7122 46.0068L29.7279 44.6271C30.0283 43.8951 30.2137 43.1093 30.2657 42.2968L31.7532 41.4872C31.8052 41.4586 31.8337 41.4002 31.8239 41.3419L31.4873 39.3371C31.4775 39.2783 31.4315 39.2327 31.3731 39.2229L29.7028 38.9433C29.3883 38.1921 28.9567 37.5104 28.4339 36.9164L28.9137 35.2912C28.9303 35.2341 28.9094 35.1728 28.8608 35.1383L27.2054 33.9588C27.1573 33.9243 27.0921 33.9243 27.0439 33.9588L25.6642 34.9431C24.9322 34.6427 24.1464 34.4574 23.3339 34.4054L22.5243 32.9179C22.4957 32.8659 22.4374 32.8373 22.379 32.8471L20.3742 33.1837C20.3158 33.1935 20.2698 33.2396 20.26 33.2979L19.9805 34.9683C19.2292 35.2827 18.5475 35.7144 17.9535 36.2372L16.3283 35.7574C16.2712 35.7408 16.2099 35.7617 16.1754 35.8102L14.9959 37.4656C14.9614 37.5142 14.9614 37.579 14.9959 37.6271L15.9802 39.0068C15.6802 39.7389 15.4945 40.5246 15.4425 41.3372L13.955 42.1468C13.903 42.1753 13.8744 42.2337 13.8842 42.2921L14.2209 44.2964C14.2307 44.3548 14.2767 44.4008 14.3351 44.4106L16.0054 44.6902C16.3198 45.4414 16.7515 46.1231 17.2743 46.7171L16.7945 48.3423C16.7775 48.3994 16.7988 48.4607 16.8473 48.4952L18.5032 49.6751Z" fill="#74A1BB"/>
<path d="M20.7817 41.6491C20.8264 41.0951 21.0842 40.5919 21.5077 40.2323C21.9309 39.8727 22.469 39.6992 23.0229 39.744C24.1657 39.8369 25.0188 40.8408 24.9276 41.9853C24.8347 43.1285 23.8291 43.9828 22.6863 43.8899C22.1324 43.8452 21.6296 43.5874 21.2695 43.1639C20.9772 42.8196 20.8076 42.3999 20.7787 41.9571C20.7727 41.8553 20.7731 41.7526 20.7817 41.6491ZM22.9786 40.2919C22.5713 40.2587 22.1754 40.3865 21.864 40.6511C21.5529 40.9158 21.3629 41.286 21.33 41.693C21.2977 42.1003 21.4246 42.4962 21.6893 42.8076C21.9539 43.1191 22.3241 43.3087 22.7311 43.3415C23.5718 43.4097 24.3115 42.7812 24.3801 41.9405C24.386 41.8647 24.3865 41.7897 24.3818 41.716C24.3328 40.972 23.7431 40.3542 22.9786 40.2919Z" fill="#BDD0FB"/>
<path d="M17.7132 42.1181C17.7247 42.2916 17.7447 42.4663 17.7741 42.6414C17.8325 42.9891 17.9262 43.3312 18.0532 43.6593C18.0592 43.6738 18.0647 43.6887 18.0707 43.7032C18.1158 43.817 18.2279 43.8835 18.3438 43.8762C18.3719 43.8745 18.4005 43.8681 18.4277 43.8571C18.5688 43.8008 18.637 43.641 18.5816 43.5C18.4601 43.1949 18.3711 42.8753 18.317 42.5506C18.314 42.5327 18.311 42.5148 18.3084 42.4969C18.1866 41.7265 18.2616 40.9549 18.5164 40.239C18.6544 39.8504 18.8462 39.478 19.0882 39.1316C19.0903 39.1286 19.092 39.1261 19.0942 39.1231C19.1006 39.1146 19.1061 39.106 19.1125 39.0975C19.83 38.0906 20.897 37.4229 22.1165 37.2184C22.2742 37.192 22.4322 37.1737 22.5899 37.163C23.65 37.094 24.6927 37.3888 25.5696 38.0135C26.5765 38.7311 27.2438 39.798 27.4487 41.0175C27.6528 42.2362 27.3707 43.4633 26.6536 44.4706C25.9361 45.4775 24.8691 46.1452 23.6496 46.3497C23.4945 46.3757 23.3386 46.3941 23.1826 46.4043C22.5064 46.4486 21.828 46.3442 21.1965 46.0966C21.1578 46.0813 21.1173 46.0758 21.0781 46.0783C20.9754 46.0851 20.88 46.1499 20.8399 46.2522C20.7849 46.3936 20.854 46.553 20.9954 46.6088C21.7019 46.8858 22.4608 47.0025 23.2171 46.9535C23.3918 46.942 23.5661 46.922 23.7399 46.893C25.1047 46.6638 26.2983 45.9172 27.101 44.7902C27.9038 43.6636 28.2208 42.292 27.9907 40.9272C27.7619 39.5628 27.0154 38.3693 25.8883 37.5661C24.9075 36.8669 23.7408 36.5371 22.5545 36.6146C22.3786 36.6261 22.2017 36.6466 22.0253 36.676C19.3835 37.1191 17.5419 39.5006 17.7132 42.1181Z" fill="#BDD0FB"/>
<path d="M70.1783 83.87C70.14 83.3958 69.6555 82.985 68.8353 82.656C69.7267 82.1643 70.2201 81.6377 70.1783 81.1208C70.0522 79.557 65.1001 78.6801 59.1168 79.1629C53.1339 79.6452 48.3859 81.304 48.512 82.8678C48.5503 83.3421 49.0348 83.7528 49.855 84.0818C48.9632 84.5735 48.4702 85.1002 48.512 85.617C48.5503 86.0913 49.0348 86.502 49.855 86.831C48.9632 87.3227 48.4702 87.8494 48.512 88.3662C48.5503 88.8405 49.0348 89.2512 49.855 89.5802C48.9632 90.0719 48.4702 90.5986 48.512 91.1154C48.5678 91.807 49.5687 92.3639 51.1841 92.7286C51.1632 93.2395 51.1747 93.7998 51.225 94.4185C51.4589 97.3003 54.7002 99.5595 58.9872 99.5595C63.2742 99.5595 66.9847 96.4787 67.0269 93.5881C67.0371 92.8795 67.0069 92.2561 66.943 91.7017C68.9942 91.017 70.2435 90.1801 70.1779 89.3684C70.1396 88.8942 69.6551 88.4834 68.8348 88.1544C69.7262 87.6627 70.2197 87.1361 70.1779 86.6192C70.1396 86.145 69.6551 85.7342 68.8348 85.4052C69.7267 84.9135 70.2201 84.3864 70.1783 83.87Z" fill="black"/>
<path d="M56.3488 93.3512C54.5719 93.3512 52.9459 93.2204 51.6029 92.9635C51.5249 92.9486 51.4738 92.8732 51.4887 92.7952C51.5036 92.7172 51.5786 92.6661 51.657 92.681C53.7589 93.0832 56.5665 93.1723 59.5624 92.9307C62.0138 92.733 64.3066 92.3376 66.1926 91.787C66.2688 91.7649 66.3485 91.8083 66.3707 91.8846C66.3928 91.9609 66.3494 92.0406 66.2731 92.0627C64.3688 92.6184 62.0564 93.0176 59.5859 93.2166C58.4725 93.3069 57.3846 93.3512 56.3488 93.3512Z" fill="url(#paint0_linear_132_1629)"/>
<path d="M56.3786 90.5993C54.07 90.5993 52.0068 90.382 50.5516 89.9678C50.4754 89.9461 50.4311 89.8664 50.4528 89.7901C50.4745 89.7139 50.5538 89.6696 50.6305 89.6913C52.7043 90.2819 56.0432 90.4647 59.5624 90.1813C63.0436 89.9005 66.2901 89.194 68.2472 88.2916C68.3192 88.2583 68.4048 88.2898 68.4381 88.3619C68.4713 88.4339 68.4398 88.5195 68.3678 88.5528C66.3817 89.4689 63.0986 90.1847 59.5858 90.4681C58.4891 90.5563 57.4089 90.5993 56.3786 90.5993Z" fill="#91B3FA"/>
<path d="M56.3487 87.8519C53.856 87.8519 51.6748 87.5971 50.2065 87.1126C50.1311 87.0879 50.0902 87.0065 50.1149 86.9311C50.1396 86.8556 50.2205 86.8147 50.2964 86.8395C52.3395 87.5131 55.8033 87.7343 59.5619 87.4313C63.0428 87.1505 66.2897 86.444 68.2467 85.5416C68.3187 85.5083 68.4044 85.5398 68.4376 85.6119C68.4709 85.6839 68.4393 85.7695 68.3673 85.8028C66.3813 86.7189 63.0982 87.4347 59.5854 87.7181C58.472 87.8084 57.3833 87.8519 56.3487 87.8519Z" fill="#91B3FA"/>
<path d="M56.368 85.1013C54.3909 85.1013 52.5923 84.9415 51.1943 84.6309C51.1167 84.6138 51.0681 84.5367 51.0852 84.4596C51.1022 84.382 51.1794 84.333 51.2565 84.3505C53.3589 84.8175 56.3863 84.9385 59.562 84.6824C63.0122 84.4042 66.242 83.7054 68.2025 82.8131C68.2745 82.7799 68.3597 82.8123 68.393 82.8843C68.4258 82.9563 68.3938 83.0415 68.3218 83.0748C66.3328 83.9802 63.0667 84.6884 59.5855 84.9688C58.4853 85.0574 57.4021 85.1013 56.368 85.1013Z" fill="#91B3FA"/>
<path d="M44.4969 69.9915C43.7704 67.4179 42.536 65.0125 40.8737 62.9174C37.312 58.4284 31.5016 49.2997 30.7862 36.84C29.7461 18.7171 45.8191 9.64374 60.4859 10.8756C75.1527 12.1075 89.6252 23.028 88.0409 39.8879C87.066 50.2618 81.2595 58.1306 76.9363 62.6498C74.191 65.5196 72.233 69.0341 71.1729 72.8613C69.8754 77.5454 66.7879 83.383 59.4492 83.7388C49.9527 84.1986 46.0087 75.3472 44.4969 69.9915Z" fill="#C6EEEF"/>
<path d="M61.8746 80.1241L67.0066 46.7455C67.1127 46.0561 67.4518 45.5929 67.7646 45.7114C68.0773 45.8298 68.2448 46.4847 68.1387 47.1742C68.1357 47.1925 68.1319 47.2151 68.1289 47.2334L62.2832 80.3018C62.2393 80.5506 62.1128 80.7074 62.0012 80.6525C61.8929 80.5992 61.838 80.3648 61.8746 80.1241Z" fill="#74FCFD"/>
<path d="M56.5474 80.3892L51.4155 47.0106C51.3094 46.3212 50.9702 45.858 50.6575 45.9765C50.3447 46.095 50.1772 46.7499 50.2833 47.4393C50.2863 47.4576 50.2902 47.4802 50.2931 47.4985L56.1388 80.5669C56.1827 80.8158 56.3092 80.9726 56.4209 80.9176C56.5295 80.8643 56.5845 80.63 56.5474 80.3892Z" fill="#74FCFD"/>
<path opacity="0.65" d="M66.9698 43.8799C66.8394 43.6702 66.5377 43.5918 66.2961 43.7047L63.4387 45.0397L62.4467 42.2134C62.3943 42.066 62.2724 41.9351 62.099 41.8636C61.7705 41.7281 61.3772 41.8491 61.2208 42.1341L61.2157 42.1435L58.8658 46.4284L56.685 40.3287L56.6816 40.3185C56.6283 40.1698 56.5158 40.036 56.3513 39.9465C55.9858 39.7467 55.5026 39.8421 55.2725 40.1592L51.9872 44.6818C51.8534 44.8671 51.8994 45.1156 52.1031 45.2523C52.3204 45.3985 52.6332 45.3648 52.8019 45.1765L55.6947 41.9496L58.2991 47.7523L58.3012 47.7565C58.3429 47.8494 58.4213 47.9304 58.5304 47.9815C58.775 48.0961 59.0801 48.0169 59.2122 47.8051L61.7258 43.7721L62.6717 45.8118L62.6802 45.8301C62.687 45.8446 62.6947 45.8591 62.7037 45.8736C62.834 46.0828 63.1353 46.1612 63.3769 46.0483L66.7687 44.4632C67.0098 44.3507 67.1002 44.0891 66.9698 43.8799Z" fill="white"/>
<path d="M114.144 107.151H53.2817V94.9688H114.144C112.841 94.9692 112.841 107.151 114.144 107.151Z" fill="#C6EEEF"/>
<path d="M53.2813 104.102V98.5278C53.2813 96.5626 54.4842 94.9694 55.9679 94.9694H115.857C115.936 94.9694 116 94.9051 116 94.8262V92.3583C116 92.2794 115.936 92.2151 115.857 92.2151H52.0563C50.6046 92.2151 48.2998 94.4977 48.2998 97.313V105.099C48.2998 107.754 50.5373 109.906 51.9063 109.906H115.857C115.936 109.906 116 109.841 116 109.762V107.294C116 107.216 115.936 107.151 115.857 107.151H55.5827C54.3117 107.151 53.2813 105.786 53.2813 104.102Z" fill="#74A1BB"/>
<path d="M112.036 97.612H54.9691C54.8898 97.612 54.8259 97.5481 54.8259 97.4688C54.8259 97.3896 54.8898 97.3257 54.9691 97.3257H112.036C112.116 97.3257 112.18 97.3896 112.18 97.4688C112.18 97.5481 112.116 97.612 112.036 97.612Z" fill="url(#paint1_linear_132_1629)"/>
<path d="M112.036 99.4199H54.9691C54.8898 99.4199 54.8259 99.356 54.8259 99.2767C54.8259 99.1975 54.8898 99.1335 54.9691 99.1335H112.036C112.116 99.1335 112.18 99.1975 112.18 99.2767C112.18 99.356 112.116 99.4199 112.036 99.4199Z" fill="url(#paint2_linear_132_1629)"/>
<path d="M112.036 101.228H54.9691C54.8898 101.228 54.8259 101.165 54.8259 101.085C54.8259 101.006 54.8898 100.942 54.9691 100.942H112.036C112.116 100.942 112.18 101.006 112.18 101.085C112.18 101.165 112.116 101.228 112.036 101.228Z" fill="url(#paint3_linear_132_1629)"/>
<path d="M112.036 103.036H54.9691C54.8898 103.036 54.8259 102.972 54.8259 102.893C54.8259 102.814 54.8898 102.75 54.9691 102.75H112.036C112.116 102.75 112.18 102.814 112.18 102.893C112.18 102.972 112.116 103.036 112.036 103.036Z" fill="url(#paint4_linear_132_1629)"/>
<path d="M112.036 104.845H54.9691C54.8898 104.845 54.8259 104.781 54.8259 104.702C54.8259 104.622 54.8898 104.558 54.9691 104.558H112.036C112.116 104.558 112.18 104.622 112.18 104.702C112.18 104.781 112.116 104.845 112.036 104.845Z" fill="url(#paint5_linear_132_1629)"/>
<path d="M60.1732 92.2979H115.187C115.512 92.2979 115.775 92.0345 115.775 91.7099V81.0194C115.775 80.6947 115.512 80.4314 115.187 80.4314H60.1732C59.8485 80.4314 59.5852 80.6947 59.5852 81.0194V91.7099C59.5852 92.0345 59.8485 92.2979 60.1732 92.2979Z" fill="#597B8E"/>
<path d="M110.219 81.7947H104.444V90.9337H110.219V81.7947Z" fill="#C6EEEF"/>
<path d="M103.595 81.7947H101.427V90.9337H103.595V81.7947Z" fill="#C6EEEF"/>
<path d="M15.4505 92.0012H14.0959V106.65H15.4505V92.0012Z" fill="#7D97F4"/>
<path d="M20.7052 106.933H8.84131V106.46C8.84131 106.234 9.02453 106.051 9.25036 106.051H20.2646C20.5079 106.051 20.7052 106.248 20.7052 106.491V106.933Z" fill="#7D97F4"/>
<path d="M22.9486 91.4607C22.9486 92.312 22.2519 93.0087 21.4006 93.0087H8.64397C7.79262 93.0087 7.09595 92.312 7.09595 91.4607V90.061C7.09595 89.2096 7.79262 88.5129 8.64397 88.5129H21.4006C22.2519 88.5129 22.9486 89.2096 22.9486 90.061V91.4607Z" fill="#7D97F4"/>
<path d="M28.2882 103.962C28.2882 103.962 32.1563 106.75 31.4843 108.623C31.4843 108.623 27.2523 106.798 26.741 105.359C26.2297 103.92 26.8275 103.285 26.8275 103.285L28.2882 103.962Z" fill="black"/>
<path d="M27.7069 101.626L27.0745 103.454C26.9791 103.73 27.0745 104.044 27.3212 104.2C27.4448 104.278 27.614 104.351 27.8445 104.403C28.1705 104.477 28.5066 104.326 28.6634 104.031L29.4202 102.607L27.7069 101.626Z" fill="url(#paint6_linear_132_1629)"/>
<path d="M21.5518 85.168C21.5518 85.168 29.4965 86.5447 32.9044 89.6932C36.3124 92.8416 29.7764 102.884 29.7764 102.884C29.7764 102.884 28.7057 102.877 27.4078 101.765C27.4078 101.765 31.2831 94.212 27.9434 92.0094C24.1886 89.5334 19.8611 88.9756 19.8611 88.9756L21.4747 85.4108L21.5518 85.168Z" fill="#597B8E"/>
<path d="M30.8123 107.587C29.9614 107.194 27.5531 105.508 27.147 105.433C26.7409 105.359 26.0366 105.836 26.0366 105.836C26.0366 105.836 25.8653 106.144 26.0485 106.681C26.6139 107.365 27.8692 108.67 29.5566 109.155C30.7978 109.513 31.6662 109.18 32.2069 108.79C31.9095 108.337 31.379 107.85 30.8123 107.587Z" fill="black"/>
<path d="M29.5567 109.155C27.8693 108.67 26.614 107.365 26.0486 106.681C26.1726 107.044 26.4581 107.512 27.0678 108.061C28.5809 109.42 31.4703 109.911 32.0856 109.816C32.5786 109.74 32.5321 109.285 32.2066 108.79C31.6663 109.18 30.7983 109.513 29.5567 109.155Z" fill="black"/>
<path d="M25.3152 104.646C25.3246 104.88 25.8039 105.684 26.0839 106.135C26.2168 106.349 26.4499 106.48 26.7021 106.481C26.8619 106.482 27.046 106.467 27.213 106.42C27.464 106.348 27.6046 106.081 27.5313 105.83L26.9842 103.962L25.3152 104.646Z" fill="url(#paint7_linear_132_1629)"/>
<path d="M13.9043 82.7832C13.9043 82.7832 12.1398 87.501 13.9043 88.9357C15.6688 90.3703 19.8778 91.9857 20.8182 94.8436C21.7586 97.7014 23.354 103.255 25.4896 105.222C25.4896 105.222 26.9899 105.076 27.5515 104.479C27.5515 104.479 26.3354 96.1875 25.533 94.0604C24.8385 92.2179 23.815 89.5591 21.8537 88.0728C21.2921 87.6476 21.3901 86.9735 21.6504 86.319L22.1247 85.1272L13.9043 82.7832Z" fill="#597B8E"/>
<path d="M32.3058 79.0852C29.3474 79.2638 30.2691 74.5375 30.3228 74.3491L25.8325 77.5206C25.8325 77.5206 26.0703 80.0482 29.8033 81.3738C30.748 81.7092 31.6109 81.7241 32.3744 81.56C32.0489 80.6111 32.1149 79.7598 32.3058 79.0852Z" fill="#74FCFD"/>
<path d="M38.0262 77.6631C36.9239 76.8962 35.675 77.6631 35.675 77.6631C34.2011 78.627 33.1103 79.0373 32.3058 79.0859C32.115 79.7604 32.0489 80.6118 32.3744 81.5611C34.0256 81.2062 35.2072 80.011 35.7206 79.3978C35.9055 79.1771 36.2328 79.1387 36.4586 79.3173C36.6883 79.4984 36.9111 79.7468 36.8707 80.008C36.791 80.5231 37.3888 80.6868 37.434 80.5001C37.4791 80.3131 37.2294 79.2056 37.2294 79.2056C37.2294 79.2056 38.4251 80.4081 38.8917 80.87C39.3582 81.3319 39.9454 80.87 39.9454 80.87C39.9454 80.87 39.1286 78.4297 38.0262 77.6631Z" fill="url(#paint8_linear_132_1629)"/>
<path d="M18.5112 67.0502C18.5112 67.0502 22.8153 65.327 30.8251 71.9397C30.8251 71.9397 31.4941 73.3245 30.7642 74.5572C30.0343 75.7899 23.0799 81.7958 22.1241 85.1266C22.1241 85.1266 17.9812 86.4727 13.6963 83.2803C13.6963 83.2808 14.0747 74.0109 18.5112 67.0502Z" fill="#74FCFD"/>
<path d="M27.0196 65.5125L24.9011 68.081C24.6906 68.3358 24.6446 68.6907 24.7899 68.9877C25.0839 69.5877 25.7818 70.4608 27.3294 70.3402C27.7896 70.3044 28.1974 70.0266 28.3985 69.6107L29.8801 66.5483L27.0196 65.5125Z" fill="url(#paint9_linear_132_1629)"/>
<path d="M15.1791 78.0509C14.6793 76.0159 19.7405 71.4796 19.7405 71.4796L18.5116 67.0503C18.5116 67.0503 7.58343 74.3251 10.3684 80.1755C10.7677 81.014 11.2977 81.6016 11.9126 81.9945C12.7921 79.6262 14.1948 78.5397 15.1791 78.0509Z" fill="#74FCFD"/>
<path d="M15.1757 77.7549C15.122 77.7549 15.073 77.7187 15.0598 77.6637C14.5489 75.5831 19.4486 71.1623 19.6574 70.9748C19.7064 70.9309 19.7818 70.9348 19.8261 70.9842C19.87 71.0332 19.8662 71.109 19.8168 71.1529C19.7665 71.1977 14.8148 75.6645 15.2916 77.6067C15.3073 77.671 15.2681 77.7358 15.2038 77.7511C15.1949 77.7537 15.1851 77.7549 15.1757 77.7549Z" fill="#597B8E"/>
<path d="M22.8446 77.8758C22.8446 77.8758 16.8443 80.2053 15.3798 78.4531C15.2805 78.3343 15.2157 78.1992 15.1795 78.0509C14.1952 78.5397 12.7925 79.6262 11.9126 81.9945C15.0683 84.0112 20.4627 80.8726 21.9213 79.9475C22.1612 79.7954 22.4492 79.7421 22.7275 79.7996C23.2899 79.9164 24.2618 80.0877 24.7859 80.0071C25.5529 79.8891 26.654 82.5936 27.8969 81.7593C27.8965 81.7597 26.8321 77.0581 22.8446 77.8758Z" fill="url(#paint10_linear_132_1629)"/>
<path d="M32.3051 62.5562C32.3051 62.5562 32.3417 65.3532 31.8896 66.6234C31.4376 67.8936 31.3673 68.8114 29.8269 68.4586C28.287 68.1062 27.3781 66.8837 27.2422 65.3723C27.2422 65.3723 27.0159 63.0365 27.5737 62.353C28.131 61.6695 32.3051 62.5562 32.3051 62.5562Z" fill="url(#paint11_linear_132_1629)"/>
<path d="M28.106 64.6895L28.2876 64.7658C28.2876 64.7658 28.1836 62.9187 28.9535 62.925C29.7235 62.9314 32.5481 63.493 33.4971 62.8057C34.4119 62.1432 34.4119 60.7907 33.8247 60.166C33.7877 60.1264 33.7246 60.1256 33.6828 60.1596L33.5755 60.2479C33.5022 60.3084 33.3922 60.2483 33.4033 60.1541C33.4135 60.0646 33.3134 60.002 33.2397 60.054C32.9521 60.2581 32.298 60.5116 30.9537 60.218C29.0456 59.8013 27.5743 60.0267 27.0318 61.2381C26.9973 61.3148 26.8968 61.3229 26.8473 61.2547C26.7502 61.1201 26.5567 60.9948 26.1784 61.1128C25.5205 61.3174 25.2742 62.4614 25.9738 63.7815C26.0071 63.8441 25.9734 63.923 25.9035 63.9358C25.6577 63.9805 25.2439 64.159 25.8226 64.871C26.4148 65.5997 26.8853 65.745 27.074 65.7727C27.1247 65.7804 27.1733 65.7514 27.1903 65.7028L27.5785 64.5903C27.5985 64.5327 27.6629 64.5042 27.7191 64.5276L28.106 64.6895Z" fill="#74A1BB"/>
<path d="M28.0553 64.9352C28.0553 64.9352 28.2969 63.2598 27.4417 63.3991C26.5865 63.5384 27.0825 65.239 27.6032 65.5241L28.0553 64.9352Z" fill="url(#paint12_linear_132_1629)"/>
<path d="M48.1546 109.472C48.2245 109.472 48.2953 109.459 48.3634 109.431C48.6319 109.319 48.7559 109.018 48.6404 108.758L37.5452 83.7866C37.4297 83.5267 37.1186 83.4069 36.8502 83.5186C36.5818 83.6302 36.4578 83.9315 36.5732 84.1914L47.6685 109.163C47.7545 109.356 47.9497 109.472 48.1546 109.472Z" fill="#91B3FA"/>
<path d="M35.6554 109.472C35.8604 109.472 36.0555 109.356 36.1416 109.163L47.2368 84.1914C47.3523 83.9315 47.2283 83.6302 46.9599 83.5186C46.6918 83.4069 46.3804 83.5267 46.2649 83.7866L35.1697 108.758C35.0542 109.018 35.1782 109.319 35.4466 109.431C35.5148 109.459 35.5855 109.472 35.6554 109.472Z" fill="#91B3FA"/>
<path d="M13.8097 109.472C13.8796 109.472 13.9503 109.459 14.0185 109.431C14.2869 109.319 14.4109 109.018 14.2954 108.758L3.20019 83.7866C3.08472 83.5267 2.77367 83.4069 2.50522 83.5186C2.23678 83.6302 2.11278 83.9315 2.22826 84.1914L13.3235 109.163C13.4096 109.356 13.6047 109.472 13.8097 109.472Z" fill="#91B3FA"/>
<path d="M1.31045 109.472C1.5154 109.472 1.71056 109.356 1.79663 109.162L12.8919 84.1912C13.0073 83.9312 12.8833 83.63 12.6149 83.5183C12.3469 83.4067 12.0354 83.5264 11.9199 83.7864L0.824693 108.758C0.70922 109.017 0.833215 109.319 1.10166 109.43C1.16983 109.458 1.24099 109.472 1.31045 109.472Z" fill="#91B3FA"/>
<path d="M0.00901838 83.015C-0.0191043 82.8514 0.0192461 82.6818 0.114267 82.5531C0.209287 82.4244 0.350325 82.3499 0.499461 82.3499H50.9753C51.1713 82.3499 51.3537 82.4615 51.4594 82.6464C51.5651 82.8314 51.5791 83.0636 51.4969 83.2626L50.9498 84.5877C50.8245 84.8911 50.5531 85.0854 50.2544 85.0854H0.845454C0.567636 85.0854 0.329021 84.8647 0.276184 84.5596L0.00901838 83.015Z" fill="#91B3FA"/>
<path d="M25.9185 82.4702C25.9283 82.4707 25.9377 82.4711 25.9475 82.4711L38.537 82.4574C38.8481 82.457 39.1003 82.2048 39.0999 81.8933C39.0995 81.5818 38.846 81.3249 38.5358 81.3304L25.9462 81.344C25.6351 81.3445 25.3829 81.5967 25.3833 81.9082C25.3837 82.2095 25.6206 82.4553 25.9185 82.4702Z" fill="black"/>
<path d="M49.8544 71.0398H39.3697C38.5964 71.0398 37.8925 71.4864 37.5622 72.1856L32.7153 82.4636H45.7451C46.2436 82.4636 46.6914 82.1589 46.8747 81.6953L50.6333 72.1847C50.8502 71.6351 50.4454 71.0398 49.8544 71.0398Z" fill="black"/>
<path d="M42.4677 76.3093C42.2406 77.0153 42.4085 77.7009 42.8427 77.8407C43.2769 77.9805 43.8133 77.5215 44.0404 76.8155C44.2675 76.1094 44.0997 75.4239 43.6655 75.2841C43.2313 75.1443 42.6948 75.6032 42.4677 76.3093Z" fill="#C6EEEF"/>
<path d="M75.65 92.8951C75.6688 92.8879 85.8292 75.0948 87.2025 73.4202C87.4334 73.1385 87.7909 72.995 88.1527 73.0384L90.9888 73.3763L94.3205 80.5838L88.7701 77.3514C89.3194 81.1497 82.189 86.7946 79.7436 88.8544C79.4956 89.0636 79.4752 89.4377 79.6993 89.6725L80.6755 90.6943C79.0725 92.319 77.2232 93.3621 75.1357 93.8445L75.65 92.8951Z" fill="url(#paint13_linear_132_1629)"/>
<path d="M80.1104 90.1426C80.1104 90.1426 80.7334 90.3437 80.9443 90.8989C81.0453 91.1644 80.9366 91.4652 80.7057 91.6305C79.6796 92.3655 76.2955 94.7385 74.7339 95.2034C74.6061 95.2413 74.4842 95.1258 74.5127 94.995C74.5928 94.6324 74.8519 93.9076 75.6875 92.847L75.6125 92.9987C75.5179 93.1905 75.7267 93.3903 75.9129 93.2851C76.9573 92.6958 79.0848 91.4051 80.1104 90.1426Z" fill="black"/>
<path d="M79.6073 97.2622C79.6244 97.2512 81.1489 93.5786 81.166 93.5675C82.5636 85.0579 85.9737 77.7698 86.9793 75.8524C87.1484 75.5298 87.4697 75.3172 87.8323 75.2861L90.6778 75.0432L95.399 81.4275L89.3092 79.3852C90.6156 82.9938 84.7755 89.9648 82.7975 92.4767C82.5968 92.7315 82.6526 93.1022 82.9198 93.2867L84.0826 94.0899C82.8418 96.0052 81.2418 97.4011 79.2954 98.2959L79.6073 97.2622Z" fill="url(#paint14_linear_132_1629)"/>
<path d="M83.4183 93.6638C83.4183 93.6638 84.0694 93.735 84.3881 94.2357C84.5407 94.4751 84.4951 94.7917 84.3025 95.0005C83.4465 95.9281 80.6125 98.9368 79.1774 99.7081C79.0598 99.7711 78.917 99.6825 78.9187 99.5491C78.9238 99.1776 79.0312 98.4157 79.6341 97.2081L79.5915 97.3717C79.5374 97.5788 79.7824 97.7322 79.9435 97.5912C80.8472 96.8021 82.6697 95.1079 83.4183 93.6638Z" fill="black"/>
<path d="M103.998 73.6987C103.998 73.6987 106.572 77.5276 106.783 79.2742C106.995 81.0208 106.071 81.6246 103.377 81.8475C95.3592 82.5105 91.4067 80.1073 91.4067 80.1073C90.8583 76.6102 90.468 75.7205 85.887 73.8189C85.887 73.8189 91.6811 74.2791 92.8469 73.8265C94.0135 73.374 103.998 73.6987 103.998 73.6987Z" fill="black"/>
<path d="M93.7329 52.2468C93.7329 52.2468 95.5259 50.1253 97.4319 52.7283C97.777 53.1996 99.1031 52.811 99.5892 53.7974C99.8402 54.307 100.382 54.5964 100.941 54.4932C102.332 54.2367 104.605 54.215 105.728 56.3949C106.585 58.0588 105.923 59.0325 105.066 59.5873C104.437 59.995 104.213 60.823 104.593 61.4685C104.958 62.0881 105.026 62.927 104.084 63.9369C101.973 66.1995 97.7937 62.5009 97.7937 62.5009L94.4756 54.6598L93.7329 52.2468Z" fill="black"/>
<path d="M97.0365 73.1913C97.0365 73.1913 94.0389 70.3369 92.5633 68.4463C91.7656 67.4245 91.5151 66.0789 91.8841 64.8359C92.5577 62.5661 93.7551 60.2153 93.8642 59.8497C94.0316 59.289 97.3927 59.3124 97.3927 59.3124C97.3927 59.3124 104.007 63.6049 106.606 70.8768L103.687 71.7852C103.687 71.7852 101.961 68.8877 100.254 67.0457C100.254 67.0457 103.206 70.9462 103.31 72.5428L97.0365 73.1913Z" fill="#C6EEEF"/>
<path d="M91.325 74.3181L93.5773 71.8671L96.1787 72.5677C96.1787 72.5677 99.2117 73.0377 100.947 72.5677C102.683 72.0977 102.683 72.0977 102.683 72.0977L106.606 70.8765L107.222 72.6175C107.378 73.0594 107.221 73.5503 106.839 73.8221C106.5 74.0633 106.102 74.3283 105.848 74.4391C105.332 74.6649 93.9489 74.5107 93.9489 74.5107L91.325 74.3181Z" fill="url(#paint15_linear_132_1629)"/>
<path d="M95.0823 55.271L97.3415 59.4719C97.1924 60.3889 94.8829 60.4149 94.5259 59.8673C94.4896 59.8115 94.4687 59.7472 94.4551 59.682L93.1035 56.8753C93.0456 56.6017 93.7959 55.6792 94.0426 55.548L94.9404 55.0699C95.2869 54.8858 93.8441 54.8713 95.0823 55.271Z" fill="url(#paint16_linear_132_1629)"/>
<path d="M90.5102 54.2853C90.5102 54.2853 90.2554 55.7047 91.3709 57.5092C92.4864 59.3137 93.5973 59.2324 94.1614 58.5885C94.7256 57.9451 95.4018 56.873 95.0941 55.0732C94.7869 53.2733 90.8958 52.4753 90.5102 54.2853Z" fill="url(#paint17_linear_132_1629)"/>
<path d="M93.7439 55.2687C93.7439 55.2687 91.9377 52.8962 90.5507 54.9645L90.5742 55.6791C90.5742 55.6791 88.7709 55.5947 88.9665 53.9325C89.1621 52.2703 90.6343 51.1347 92.6753 51.7027C94.7163 52.2707 95.9089 52.9175 96.1395 54.3343C96.37 55.7515 95.2127 55.5197 95.2127 55.5197C95.2127 55.5197 94.7708 54.5418 94.2369 54.4753C93.703 54.4084 93.896 55.1818 93.896 55.1818L93.7439 55.2687Z" fill="black"/>
<path d="M94.1585 55.2057C94.1585 55.2057 93.2227 53.9917 94.0745 53.7395C94.9263 53.4876 94.8943 54.9291 94.8389 55.4656L94.1585 55.2057Z" fill="url(#paint18_linear_132_1629)"/>
<path d="M98.781 75.2877C98.7729 75.2881 98.7653 75.2881 98.7572 75.2881L88.3965 75.2766C88.1404 75.2762 87.9329 75.0687 87.9334 74.8126C87.9338 74.5565 88.1421 74.3448 88.3978 74.3494L98.7584 74.3609C99.0145 74.3609 99.222 74.5689 99.2216 74.825C99.2212 75.0734 99.026 75.2758 98.781 75.2877Z" fill="#C6EEEF"/>
<path d="M79.0832 65.8811H87.7113C88.3479 65.8811 88.927 66.2484 89.1988 66.8241L93.1875 75.2822H82.4647C82.0544 75.2822 81.6858 75.0316 81.5354 74.6503L78.4423 66.8236C78.2634 66.3711 78.5966 65.8811 79.0832 65.8811Z" fill="black"/>
<path d="M85.1614 70.2181C85.3485 70.7989 85.2104 71.363 84.8529 71.4781C84.4954 71.5931 84.0544 71.2156 83.8674 70.6344C83.6803 70.0536 83.8184 69.4894 84.1759 69.3744C84.5334 69.2594 84.9748 69.6369 85.1614 70.2181Z" fill="#C6EEEF"/>
<path d="M67.5516 5.99414L64.009 11.6093C64.009 11.6093 64.2587 21.7974 74.4447 27.087C84.6302 32.3766 90.0374 27.9405 90.0374 27.9405L94.5728 19.5744L67.5516 5.99414Z" fill="#597B8E"/>
<path d="M86.089 0.00232693L63.1916 1.27765C62.0126 1.34327 61.3832 2.69699 62.0939 3.63995C65.5603 8.24013 73.3929 18.9012 75.9793 24.6591C76.2558 25.2752 76.9167 25.6225 77.5818 25.5049L101.395 21.295C102.472 21.1045 102.976 19.8505 102.329 18.9685C98.9171 14.3172 90.2017 2.63222 87.0473 0.287388C86.7716 0.08286 86.432 -0.0168476 86.089 0.00232693Z" fill="black"/>
<path d="M83.1613 11.0383C83.1613 11.0383 93.0545 20.8297 93.5646 22.6798C94.0746 24.53 90.6471 31.671 90.6471 31.671C91.0484 38.4447 89.7868 45.4251 85.9301 48.3707C85.9301 48.3707 84.0135 39.1563 86.4777 35.9959C88.9418 32.8351 89.9107 31.5304 89.9107 31.5304C89.9107 31.5304 93.1576 23.8277 92.9454 22.5771C92.945 22.5771 82.0841 11.2821 83.1613 11.0383Z" fill="#597B8E"/>
<path d="M65.696 3.89009C65.696 3.89009 70.0051 10.556 74.3147 17.2215C74.8533 18.055 75.3919 18.888 75.922 19.7082C76.187 20.1181 76.4499 20.5251 76.7098 20.9273C76.8398 21.1284 76.9689 21.3278 77.0971 21.5264C77.1602 21.6227 77.2275 21.7309 77.2863 21.8166C77.3571 21.9197 77.4116 21.9896 77.4874 22.0697C77.7772 22.3837 78.1615 22.5976 78.5646 22.6828C78.7657 22.7267 78.9716 22.7399 79.1727 22.7237C79.3819 22.7054 79.6026 22.6794 79.8131 22.6581C80.661 22.5691 81.463 22.4843 82.2027 22.4063C85.1628 22.0944 87.1361 21.8869 87.1361 21.8869C87.2123 21.8788 87.2809 21.9342 87.289 22.0104C87.2971 22.0863 87.2422 22.1545 87.1663 22.163C87.1663 22.163 85.1948 22.3892 82.2376 22.7284C81.4983 22.8132 80.6973 22.9053 79.8506 23.0024C79.6367 23.0258 79.4283 23.0527 79.2025 23.0748C78.9677 23.0961 78.7265 23.0829 78.4901 23.0335C78.0167 22.9376 77.562 22.6909 77.2169 22.3236C77.1312 22.2371 77.0417 22.1217 76.98 22.0317C76.9054 21.9248 76.8479 21.8332 76.7806 21.7326C76.6506 21.5353 76.5198 21.3368 76.3877 21.1369C76.1239 20.7377 75.8572 20.3329 75.5883 19.9255C75.0506 19.1104 74.5039 18.2821 73.9576 17.4541C69.5867 10.8287 65.2157 4.20327 65.2157 4.20327C65.1288 4.07118 65.165 3.8935 65.2971 3.80657C65.4292 3.71965 65.6069 3.75586 65.6938 3.88796L65.696 3.89009Z" fill="#91B3FA"/>
<path d="M88.9857 35.3976C88.9857 35.3976 88.9435 35.4249 88.892 35.4658C88.8651 35.4845 88.8285 35.5161 88.785 35.5544C88.742 35.5919 88.6913 35.6328 88.6389 35.6878C88.5865 35.7415 88.5247 35.7973 88.4637 35.865C88.4032 35.9341 88.338 36.0086 88.2682 36.0883C88.1991 36.1689 88.1344 36.2635 88.0611 36.358C88.0257 36.4066 87.9865 36.4539 87.9516 36.5063C87.9175 36.5596 87.8825 36.6146 87.8468 36.6699C87.7782 36.7833 87.6946 36.8941 87.6294 37.0219C87.5613 37.1485 87.491 37.2793 87.4185 37.4135C87.3444 37.5469 87.2894 37.6956 87.2212 37.8417C87.1578 37.9896 87.0836 38.137 87.0325 38.2977C86.9762 38.4562 86.9187 38.6172 86.8608 38.78L86.8169 38.9027L86.7819 39.0293C86.7585 39.1141 86.7351 39.1989 86.7116 39.2845C86.6652 39.4554 86.6179 39.6279 86.5706 39.8009C86.5352 39.9773 86.4999 40.1542 86.4645 40.3314C86.4317 40.5091 86.3878 40.6847 86.3639 40.8636C86.3409 41.0426 86.3175 41.2207 86.2949 41.3975C86.2723 41.5744 86.2497 41.7503 86.2276 41.9238C86.2165 42.0985 86.205 42.271 86.1943 42.4411C86.1833 42.6111 86.1726 42.7781 86.162 42.9417C86.1568 43.0235 86.1521 43.1045 86.147 43.1842C86.1466 43.2643 86.1466 43.3435 86.1462 43.4219C86.1453 43.7347 86.1441 44.0304 86.1432 44.3035C86.136 44.5767 86.1577 44.8268 86.1679 45.0484C86.1798 45.2704 86.1905 45.4638 86.199 45.6227C86.2165 45.9415 86.2263 46.1234 86.2263 46.1234L86.2267 46.1285C86.2297 46.1835 86.1875 46.2304 86.1326 46.2334C86.0789 46.2363 86.0324 46.1959 86.0277 46.1426C86.0277 46.1426 86.012 45.9598 85.9843 45.6394C85.9706 45.4792 85.9536 45.2849 85.9344 45.0616C85.9169 44.8383 85.8867 44.5869 85.8854 44.3108C85.8777 44.0347 85.8688 43.736 85.8598 43.4194C85.8577 43.3406 85.8556 43.26 85.853 43.1791C85.8556 43.0977 85.8577 43.0154 85.8603 42.9323C85.8658 42.7662 85.8714 42.5962 85.8769 42.4236C85.8824 42.2506 85.8884 42.0746 85.8939 41.8969C85.911 41.7192 85.928 41.5399 85.9455 41.3588C85.9634 41.1777 85.9809 40.9949 85.9992 40.8116C86.0179 40.6284 86.0567 40.4465 86.0848 40.2633C86.1155 40.0805 86.1458 39.8972 86.1764 39.7153C86.2195 39.535 86.2621 39.3557 86.3047 39.1775C86.3264 39.0885 86.3477 38.9999 86.369 38.9117L86.401 38.7796L86.4423 38.6505C86.4973 38.4792 86.5518 38.3096 86.6051 38.143C86.6532 37.9742 86.7257 37.8166 86.7875 37.6594C86.8539 37.5038 86.9072 37.3466 86.9809 37.2021C87.0529 37.0573 87.1232 36.9162 87.191 36.7799C87.2562 36.6423 87.3414 36.5195 87.4113 36.3964C87.4479 36.3355 87.4833 36.2758 87.5182 36.2174C87.5545 36.1595 87.5949 36.1062 87.632 36.0525C87.7083 35.9469 87.7752 35.8429 87.848 35.7517C87.9222 35.6609 87.9916 35.5761 88.056 35.4982C88.122 35.4206 88.1893 35.3546 88.2473 35.2924C88.304 35.2297 88.3623 35.1782 88.4118 35.1322C88.4608 35.0866 88.5029 35.0478 88.5447 35.0158C88.6269 34.9485 88.661 34.9259 88.661 34.9259L88.67 34.92C88.8016 34.8322 88.9793 34.8671 89.0675 34.9984C89.1553 35.13 89.1204 35.3077 88.9891 35.3959C88.9887 35.3955 88.9861 35.3972 88.9857 35.3976Z" fill="#91B3FA"/>
<path d="M88.7056 38.3943C88.7056 38.3943 88.697 38.4254 88.6804 38.4842C88.6642 38.5425 88.6523 38.6129 88.6293 38.71C88.5816 38.9299 88.5138 39.2439 88.4324 39.6206C88.2743 40.3833 88.0639 41.4 87.8534 42.4171C87.44 44.4534 87.0267 46.4893 87.0267 46.4893C87.0101 46.5737 86.9279 46.6287 86.8435 46.6116C86.7608 46.595 86.7067 46.5153 86.7204 46.4331C86.7204 46.4331 87.0693 44.3844 87.4187 42.3353C87.5973 41.3113 87.7762 40.287 87.91 39.5192C87.9812 39.1318 88.0404 38.8093 88.0818 38.583C88.1073 38.4582 88.1286 38.3525 88.1431 38.2933C88.1576 38.234 88.1653 38.2025 88.1653 38.2025C88.2028 38.0491 88.3579 37.9554 88.5108 37.9929C88.6642 38.0304 88.758 38.185 88.7205 38.3384C88.7196 38.341 88.7192 38.3436 88.7183 38.3461L88.7056 38.3943Z" fill="#91B3FA"/>
<defs>
<linearGradient id="paint0_linear_132_1629" x1="58.2853" y1="94.7258" x2="48.8975" y2="128.924" gradientUnits="userSpaceOnUse">
<stop stop-color="#4F52FF"/>
<stop offset="1" stop-color="#4042E2"/>
</linearGradient>
<linearGradient id="paint1_linear_132_1629" x1="54.826" y1="97.4688" x2="112.18" y2="97.4688" gradientUnits="userSpaceOnUse">
<stop stop-color="#DAE3FE"/>
<stop offset="1" stop-color="#E9EFFD"/>
</linearGradient>
<linearGradient id="paint2_linear_132_1629" x1="54.826" y1="99.2768" x2="112.18" y2="99.2768" gradientUnits="userSpaceOnUse">
<stop stop-color="#DAE3FE"/>
<stop offset="1" stop-color="#E9EFFD"/>
</linearGradient>
<linearGradient id="paint3_linear_132_1629" x1="54.826" y1="101.085" x2="112.18" y2="101.085" gradientUnits="userSpaceOnUse">
<stop stop-color="#DAE3FE"/>
<stop offset="1" stop-color="#E9EFFD"/>
</linearGradient>
<linearGradient id="paint4_linear_132_1629" x1="54.826" y1="102.893" x2="112.18" y2="102.893" gradientUnits="userSpaceOnUse">
<stop stop-color="#DAE3FE"/>
<stop offset="1" stop-color="#E9EFFD"/>
</linearGradient>
<linearGradient id="paint5_linear_132_1629" x1="54.826" y1="104.701" x2="112.18" y2="104.701" gradientUnits="userSpaceOnUse">
<stop stop-color="#DAE3FE"/>
<stop offset="1" stop-color="#E9EFFD"/>
</linearGradient>
<linearGradient id="paint6_linear_132_1629" x1="27.0379" y1="103.023" x2="29.4199" y2="103.023" gradientUnits="userSpaceOnUse">
<stop stop-color="#FEBBBA"/>
<stop offset="1" stop-color="#FF928E"/>
</linearGradient>
<linearGradient id="paint7_linear_132_1629" x1="25.3154" y1="105.222" x2="27.551" y2="105.222" gradientUnits="userSpaceOnUse">
<stop stop-color="#FEBBBA"/>
<stop offset="1" stop-color="#FF928E"/>
</linearGradient>
<linearGradient id="paint8_linear_132_1629" x1="32.1466" y1="79.4413" x2="39.9452" y2="79.4413" gradientUnits="userSpaceOnUse">
<stop stop-color="#FEBBBA"/>
<stop offset="1" stop-color="#FF928E"/>
</linearGradient>
<linearGradient id="paint9_linear_132_1629" x1="24.7055" y1="67.932" x2="29.8798" y2="67.932" gradientUnits="userSpaceOnUse">
<stop stop-color="#FEBBBA"/>
<stop offset="1" stop-color="#FF928E"/>
</linearGradient>
<linearGradient id="paint10_linear_132_1629" x1="21.177" y1="79.5352" x2="1.36697" y2="113.959" gradientUnits="userSpaceOnUse">
<stop stop-color="#FEBBBA"/>
<stop offset="1" stop-color="#FF928E"/>
</linearGradient>
<linearGradient id="paint11_linear_132_1629" x1="31.6468" y1="64.7286" x2="23.8716" y2="66.7606" gradientUnits="userSpaceOnUse">
<stop stop-color="#FEBBBA"/>
<stop offset="1" stop-color="#FF928E"/>
</linearGradient>
<linearGradient id="paint12_linear_132_1629" x1="31.3175" y1="63.4682" x2="23.5423" y2="65.5002" gradientUnits="userSpaceOnUse">
<stop stop-color="#FEBBBA"/>
<stop offset="1" stop-color="#FF928E"/>
</linearGradient>
<linearGradient id="paint13_linear_132_1629" x1="73.2146" y1="77.9896" x2="89.2331" y2="87.1327" gradientUnits="userSpaceOnUse">
<stop stop-color="#FEBBBA"/>
<stop offset="1" stop-color="#FF928E"/>
</linearGradient>
<linearGradient id="paint14_linear_132_1629" x1="74.7642" y1="80.2698" x2="19.9568" y2="45.9596" gradientUnits="userSpaceOnUse">
<stop stop-color="#FEBBBA"/>
<stop offset="1" stop-color="#FF928E"/>
</linearGradient>
<linearGradient id="paint15_linear_132_1629" x1="101.27" y1="72.7195" x2="117.227" y2="72.7195" gradientUnits="userSpaceOnUse">
<stop stop-color="#FEBBBA"/>
<stop offset="1" stop-color="#FF928E"/>
</linearGradient>
<linearGradient id="paint16_linear_132_1629" x1="94.7758" y1="65.093" x2="95.1446" y2="59.3454" gradientUnits="userSpaceOnUse">
<stop stop-color="#FEBBBA"/>
<stop offset="1" stop-color="#FF928E"/>
</linearGradient>
<linearGradient id="paint17_linear_132_1629" x1="95.3188" y1="60.2298" x2="88.3755" y2="46.9419" gradientUnits="userSpaceOnUse">
<stop stop-color="#FEBBBA"/>
<stop offset="1" stop-color="#FF928E"/>
</linearGradient>
<linearGradient id="paint18_linear_132_1629" x1="96.9081" y1="59.3992" x2="89.9648" y2="46.1113" gradientUnits="userSpaceOnUse">
<stop stop-color="#FEBBBA"/>
<stop offset="1" stop-color="#FF928E"/>
</linearGradient>
</defs>
</svg>
