<svg width="118" height="117" viewBox="0 0 118 117" fill="none" xmlns="http://www.w3.org/2000/svg">
<path d="M6.1974 3.2598C6.08989 2.80153 6.73453 2.49685 7.12928 2.81689C11.1391 6.06832 20.7734 15.8052 18.3725 32.8212C15.3602 54.1703 20.5103 61.9604 26.921 66.7119C26.921 66.7119 18.1168 64.4775 12.5778 56.5729C-1.02234 37.1651 8.11181 11.4106 6.1974 3.2598Z" fill="#74FCFD"/>
<path d="M9.24878 9.92789C9.75022 12.3047 10.1977 14.6886 10.543 17.0833C10.9029 19.4759 11.179 21.8768 11.3678 24.2819C11.5459 26.6873 11.6717 29.0953 11.6787 31.5041C11.6983 33.9129 11.5982 36.3196 11.4878 38.7359C11.3932 41.1513 11.2819 43.5837 11.4587 46.034C11.6327 48.479 12.1474 50.9454 13.1685 53.2575C13.4238 53.8337 13.6924 54.4082 13.997 54.9631C14.2901 55.5235 14.6122 56.0723 14.9455 56.6165C15.6184 57.7015 16.376 58.75 17.2203 59.7454C18.9147 61.7325 20.9582 63.495 23.2092 64.9868C23.4463 65.1437 23.7858 65.1051 23.9676 64.9005C24.1461 64.6996 24.1063 64.4132 23.8804 64.2542L23.8788 64.253C23.3433 63.8769 22.8132 63.4958 22.3047 63.0957C22.0466 62.8989 21.7992 62.693 21.5476 62.4909C21.3052 62.2808 21.0528 62.0791 20.8183 61.8628C19.8623 61.0119 18.9769 60.1045 18.1733 59.1444C16.5574 57.2337 15.2635 55.1047 14.2835 52.8972C13.8078 51.7885 13.4271 50.6516 13.1494 49.493C12.8726 48.3345 12.6986 47.1556 12.6023 45.9672C12.4097 43.5891 12.4965 41.1808 12.5712 38.7649C12.6422 36.3487 12.6941 33.9199 12.6306 31.4933C12.6023 30.28 12.5492 29.0675 12.4707 27.8562C12.4355 27.2506 12.3869 26.6454 12.3392 26.0402C12.2848 25.4354 12.2267 24.831 12.1632 24.2275C11.9029 21.8125 11.5575 19.4057 11.1242 17.0115C10.678 14.6193 10.1583 12.2379 9.53312 9.87767C9.51527 9.81001 9.43765 9.76808 9.3592 9.78344C9.28324 9.79839 9.23509 9.86272 9.24878 9.92789Z" fill="white"/>
<path d="M16.5844 54.3605C16.0929 54.8823 15.2283 54.7321 14.9323 54.0791C13.3002 50.4761 9.60748 39.8725 15.7065 27.6567C20.857 17.3408 22.6693 11.2576 23.3006 8.43907C23.4343 7.84299 24.2508 7.76412 24.4973 8.32284C27.2174 14.4882 34.3998 35.4588 16.5844 54.3605Z" fill="#D3E9F8"/>
<path d="M15.6915 53.9803C15.6741 53.9836 15.6563 53.9848 15.6376 53.9844C15.4832 53.9819 15.3599 53.8549 15.362 53.7005C15.3645 53.5253 15.7057 36.0133 22.2189 21.346C22.2816 21.2048 22.4468 21.1413 22.5883 21.2036C22.7295 21.2663 22.7934 21.4319 22.7307 21.573C16.2648 36.1333 15.9244 53.5349 15.9219 53.7088C15.9194 53.8454 15.8206 53.9574 15.6915 53.9803Z" fill="white"/>
<path d="M86.2866 27.31C84.7275 24.5712 83.5275 20.8881 85.9778 18.1311C90.4039 13.152 99.2558 12.0454 101.469 19.791C102.384 22.9951 101.738 25.4853 100.665 27.3042C99.6709 28.9887 100.896 31.1119 102.852 31.1119H116.959V49.9352C116.959 51.635 115.05 52.6075 113.653 51.6387C104.189 45.0699 99.2542 52.818 99.2438 56.3052C99.2322 60.178 100.915 69.3064 107.001 69.0299C109.782 68.9037 112.101 67.9685 113.799 66.9902C115.205 66.1799 116.959 67.1666 116.959 68.7896V86.334H102.359C100.626 86.334 99.5916 88.2484 100.535 89.7029C101.618 91.374 102.525 93.7969 102.575 97.2451C102.7 106.023 89.2965 104.437 85.9774 101.671C83.6064 99.6954 83.5088 93.3598 85.3547 89.4418C86.0367 87.9943 84.9152 86.334 83.3145 86.334H69.1034V67.135C69.1034 65.7353 67.5833 64.8748 66.3799 65.5896C63.9342 67.0433 60.1564 68.8651 56.3787 69.0295C50.0165 69.3064 49.1863 62.114 48.9099 56.5817C48.6654 51.6956 57.9813 43.7855 65.3347 48.6077C66.5398 49.3976 69.0125 50.5541 69.0125 49.1133V31.1119H84.0937C86.0475 31.1123 87.253 29.0074 86.2866 27.31Z" fill="#D3E9F8"/>
<path d="M94.1053 104.137C93.3623 104.137 92.5927 104.088 91.8061 103.989C89.2736 103.669 86.9715 102.864 85.7989 101.886C83.2402 99.7538 83.2772 93.1953 85.1023 89.3225C85.3767 88.7405 85.3319 88.0884 84.9799 87.5334C84.6146 86.9577 83.9924 86.6136 83.3153 86.6136H69.1042C68.9498 86.6136 68.8244 86.4882 68.8244 86.3338V67.1348C68.8244 66.5807 68.538 66.0871 68.0577 65.814C67.5758 65.5396 67.0025 65.5454 66.5235 65.8302C64.0068 67.3258 60.2062 69.1431 56.3915 69.3091C53.4584 69.4394 51.341 68.0186 50.1049 65.093C49.0564 62.6116 48.7712 59.405 48.6309 56.5956C48.4972 53.9253 50.9762 50.512 54.5252 48.4788C58.2988 46.3174 62.295 46.2793 65.4891 48.3738C66.5982 49.1015 68.0967 49.7233 68.5836 49.461C68.6247 49.439 68.7335 49.38 68.7335 49.1135V31.1121C68.7335 30.9577 68.8588 30.8323 69.0133 30.8323H84.0945C84.9052 30.8323 85.6312 30.4156 86.0371 29.7174C86.4476 29.0113 86.4501 28.1629 86.0433 27.4485C83.8155 23.5358 83.7205 20.2495 85.7685 17.9453C88.4741 14.9019 92.7733 13.3257 96.221 14.1115C98.9225 14.7275 100.882 16.7171 101.738 19.714C102.545 22.54 102.265 25.1418 100.906 27.4464C100.493 28.1467 100.487 28.9868 100.891 29.6937C101.298 30.4065 102.032 30.8319 102.852 30.8319H116.96C117.114 30.8319 117.239 30.9573 117.239 31.1117V49.935C117.239 50.8312 116.767 51.6132 115.975 52.0279C115.183 52.4422 114.232 52.3811 113.494 51.8685C108.798 48.6088 105.517 49.1214 103.592 50.1247C100.825 51.5671 99.5289 54.6658 99.5239 56.3059C99.5148 59.3033 100.478 64.6987 103.168 67.2772C104.257 68.3203 105.538 68.8139 106.989 68.75C109.29 68.6454 111.535 67.9717 113.66 66.7471C114.415 66.3117 115.313 66.3105 116.063 66.7434C116.8 67.1693 117.24 67.9343 117.24 68.7894V86.3338C117.24 86.4882 117.114 86.6136 116.96 86.6136H102.36C101.652 86.6136 101.029 86.9834 100.692 87.6023C100.354 88.2245 100.383 88.9526 100.77 89.5504C102.11 91.6171 102.812 94.2048 102.855 97.2408C102.894 99.9505 101.659 101.982 99.2824 103.116C97.8719 103.789 96.0832 104.137 94.1053 104.137ZM69.3844 86.054H83.3158C84.1854 86.054 84.9844 86.4948 85.4531 87.2337C85.903 87.9431 85.9616 88.8131 85.6092 89.5611C83.7284 93.5527 84.0102 99.667 86.1575 101.456C88.3583 103.29 95.0056 104.537 99.0416 102.611C101.237 101.564 102.332 99.7596 102.296 97.2491C102.254 94.3198 101.583 91.8321 100.301 89.855C99.8008 89.0829 99.763 88.1407 100.201 87.3354C100.637 86.533 101.444 86.054 102.36 86.054H116.68V68.7894C116.68 68.1365 116.345 67.5528 115.783 67.2282C115.209 66.8966 114.52 66.8982 113.94 67.2324C111.736 68.5017 109.406 69.2008 107.014 69.3091C105.411 69.383 103.985 68.8342 102.782 67.6811C99.9644 64.9809 98.9553 59.3979 98.9648 56.3042C98.9702 54.4753 100.33 51.1944 103.334 49.6282C105.396 48.5531 108.888 47.9899 113.814 51.4086C114.389 51.8079 115.1 51.8536 115.716 51.5319C116.32 51.216 116.681 50.6191 116.681 49.935V31.3919H102.853C101.829 31.3919 100.914 30.861 100.406 29.9714C99.9013 29.0877 99.9083 28.0375 100.425 27.1621C101.703 24.9945 101.964 22.5404 101.201 19.868C100.179 16.2899 97.8615 15.0596 96.0978 14.6574C92.8393 13.9135 88.7639 15.4191 86.1882 18.3173C84.8815 19.7871 83.8807 22.5163 86.5311 27.1716C87.0375 28.0612 87.0342 29.1184 86.5224 29.9988C86.0151 30.8714 85.1081 31.3919 84.0957 31.3919H69.2943V49.1131C69.2943 49.6096 69.0531 49.8437 68.851 49.9533C67.7821 50.5307 65.289 48.911 65.1832 48.842C62.1717 46.8666 58.3889 46.9114 54.8046 48.9649C51.483 50.8677 49.0696 54.1362 49.1913 56.5678C49.3295 59.3282 49.6072 62.4742 50.6221 64.8755C51.7736 67.6006 53.6515 68.8683 56.3687 68.7504C60.0667 68.5897 63.7777 66.8123 66.2392 65.3495C66.8934 64.961 67.6771 64.9531 68.3362 65.3279C68.9933 65.7019 69.3856 66.3773 69.3856 67.1353V86.054H69.3844Z" fill="#FCFCFC"/>
<path d="M15.2972 66.1997C13.6377 67.3134 11.4472 68.3968 8.97822 68.6437C3.51143 69.1904 1.32471 63.1769 1.05117 57.9833C0.778033 52.7896 5.4246 47.8695 9.5249 48.4162C11.4559 48.6736 13.5692 49.9014 15.2644 51.128C16.6334 52.1188 18.5453 51.1446 18.5453 49.4543V30.8004H37.4172C38.99 30.8004 40.0323 29.1762 39.3752 27.7474C37.8945 24.5292 36.2312 19.639 38.5508 17.5282C42.1555 14.2481 51.8936 14.2481 53.5336 19.1682C54.4518 21.9232 53.2045 25.2377 51.9285 27.6216C51.1593 29.0587 52.1974 30.7929 53.8271 30.7929H69.934V48.0688C69.934 49.9118 67.8498 51.0566 66.3467 49.9902C59.3794 45.0452 51.7703 50.2613 51.0729 56.0701C50.2527 62.9038 54.6266 68.6437 59.2735 68.0975C61.6334 67.8198 64.3452 66.4848 66.4435 65.2383C67.9843 64.3226 69.9344 65.4222 69.9344 67.215V86.2965H51.3826C49.2598 86.2965 47.8402 84.0823 48.76 82.1692C49.8567 79.8895 54.3501 77.0909 54.0803 74.9312C53.5336 70.5577 43.7959 69.4756 38.5508 70.29C34.5476 70.9114 36.5376 77.1735 38.8127 82.192C39.6848 84.1156 38.2959 86.2965 36.1839 86.2965H18.5453V67.8991C18.5453 66.2287 16.6844 65.2694 15.2972 66.1997Z" fill="#74A1BB"/>
<path d="M69.9344 86.5756H51.3826C50.2801 86.5756 49.271 86.0177 48.6832 85.0829C48.1029 84.1597 48.0373 83.0249 48.5076 82.0473C48.9787 81.0677 50.0414 80.0051 51.0687 78.9777C52.4826 77.5639 53.9445 76.1019 53.8026 74.9654C53.6975 74.124 53.2048 73.3665 52.3389 72.7131C50.3656 71.2246 44.4912 69.6505 38.5935 70.5658C37.7969 70.6895 37.2478 71.0494 36.914 71.6666C36.0012 73.3552 36.7459 76.9545 39.0675 82.0755C39.5187 83.0705 39.4361 84.2108 38.8467 85.1257C38.2614 86.0335 37.2664 86.5756 36.1843 86.5756H18.5453C18.3909 86.5756 18.2655 86.4502 18.2655 86.2958V67.8988C18.2655 67.2301 17.9152 66.644 17.3286 66.331C16.7267 66.0102 16.0256 66.0479 15.4532 66.4323C13.3093 67.871 11.14 68.7091 9.00599 68.9225C7.24267 69.0989 5.70059 68.6306 4.42003 67.5319C3.4292 66.6814 1.09014 64.0501 0.771347 57.9984C0.624819 55.2156 1.8921 52.2332 4.07799 50.2154C5.76659 48.6567 7.7661 47.9004 9.56138 48.1395C11.228 48.3616 13.2018 49.291 15.4279 50.902C15.9846 51.3046 16.6811 51.3594 17.2913 51.0477C17.9006 50.7363 18.2647 50.1411 18.2647 49.4554V30.8014C18.2647 30.647 18.39 30.5217 18.5444 30.5217H37.4163C38.0597 30.5217 38.6504 30.1991 38.9966 29.6591C39.3423 29.1195 39.3884 28.4487 39.1198 27.8655C37.4578 24.2533 35.9772 19.4918 38.3615 17.3225C40.6461 15.2433 45.3828 14.3836 49.1444 15.3662C51.5569 15.9959 53.2094 17.3154 53.798 19.0808C54.7552 21.9533 53.4435 25.3832 52.1741 27.7546C51.8595 28.3424 51.8757 29.0336 52.2173 29.6039C52.5585 30.1738 53.1604 30.5142 53.8262 30.5142H69.9331C70.0875 30.5142 70.2129 30.6396 70.2129 30.794V48.0698C70.2129 49.049 69.6683 49.9385 68.7916 50.3914C67.934 50.8343 66.959 50.7704 66.184 50.22C63.2314 48.1246 59.9127 47.7207 56.8386 49.083C53.8578 50.4034 51.7034 53.1601 51.3498 56.1052C50.9023 59.8323 52.0492 63.5756 54.3422 65.874C55.795 67.3302 57.533 68.0221 59.2395 67.8212C61.6209 67.541 64.3929 66.1318 66.299 64.999C67.1126 64.5154 68.0889 64.5054 68.9091 64.972C69.7252 65.4365 70.2125 66.2754 70.2125 67.216V86.2975C70.2146 86.4502 70.0892 86.5756 69.9344 86.5756ZM42.1401 69.7643C45.8103 69.7643 50.2402 70.4288 52.6764 72.2665C53.6676 73.014 54.2338 73.899 54.3584 74.8961C54.5344 76.3041 52.974 77.8644 51.4652 79.3733C50.471 80.3678 49.4424 81.396 49.0128 82.2901C48.6263 83.0934 48.6807 84.0261 49.1576 84.7853C49.6421 85.5561 50.4739 86.0164 51.383 86.0164H69.655V67.2143C69.655 66.4776 69.2735 65.8205 68.6343 65.4568C67.9909 65.0907 67.2259 65.0986 66.5866 65.4784C64.634 66.6386 61.7856 68.0831 59.3067 68.3749C57.4292 68.5962 55.524 67.8474 53.9478 66.2671C51.5366 63.85 50.3286 59.9299 50.796 56.0363C51.1725 52.899 53.456 49.968 56.6136 48.5691C59.8754 47.1242 63.39 47.5476 66.5094 49.7617C67.1113 50.1884 67.8689 50.2374 68.5363 49.8925C69.2262 49.5359 69.6546 48.8369 69.6546 48.0681V31.0725H53.8275C52.9628 31.0725 52.182 30.6304 51.7383 29.8899C51.2946 29.1489 51.2734 28.2515 51.6814 27.489C52.8989 25.2147 54.1624 21.94 53.2679 19.2564C52.7412 17.6762 51.2269 16.4865 49.0041 15.9062C45.4064 14.9673 40.8981 15.7705 38.7392 17.7351C37.7749 18.6126 36.6085 21.0646 39.6296 27.6301C39.9778 28.3877 39.9181 29.259 39.4689 29.9596C39.0194 30.6616 38.2523 31.0804 37.4175 31.0804H18.8255V49.4545C18.8255 50.3416 18.3356 51.1427 17.547 51.5454C16.7575 51.9484 15.8202 51.8758 15.1008 51.3548C12.9809 49.8206 11.04 48.9004 9.48833 48.6937C7.85825 48.4757 6.02437 49.1806 4.45863 50.6259C2.39146 52.5341 1.19308 55.3476 1.33089 57.9685C1.54425 62.0174 2.8352 65.4336 4.78489 67.1068C5.94467 68.1022 7.34644 68.5265 8.95037 68.3654C10.9918 68.1612 13.0747 67.3546 15.1415 65.9674C15.8779 65.4734 16.8168 65.4236 17.5922 65.8371C18.3643 66.2488 18.8255 67.0197 18.8255 67.8988V86.016H36.1843C37.0751 86.016 37.8949 85.5698 38.3764 84.8226C38.8625 84.0684 38.9306 83.1282 38.5582 82.3072C36.1274 76.9454 35.4085 73.276 36.4221 71.401C36.8385 70.6302 37.5404 70.1636 38.508 70.0133C39.52 69.8556 40.7777 69.7643 42.1401 69.7643Z" fill="#FCFCFC"/>
<g opacity="0.3">
<path opacity="0.3" d="M89.0632 19.0015C88.8893 19.0339 88.7158 18.9305 88.6643 18.7574C88.5518 18.3789 88.4539 17.9895 88.3733 17.601C88.3343 17.4117 88.4559 17.2266 88.6448 17.1876C88.6469 17.1871 88.6494 17.1867 88.6515 17.1863C88.8382 17.1514 89.0192 17.2722 89.0578 17.459C89.1342 17.8285 89.2272 18.1979 89.3343 18.5578C89.3895 18.7429 89.2841 18.9376 89.0989 18.9928C89.0873 18.9965 89.0753 18.9994 89.0632 19.0015ZM88.5257 16.0029C88.5124 16.0054 88.4983 16.007 88.4846 16.0083C88.292 16.0211 88.1251 15.8754 88.1122 15.6828C88.0857 15.2868 88.0757 14.8863 88.0828 14.4915C88.0861 14.2985 88.2447 14.1453 88.4385 14.1482C88.6315 14.1516 88.7851 14.311 88.7818 14.504C88.7751 14.8792 88.7847 15.2599 88.81 15.6359C88.822 15.8144 88.6975 15.9709 88.5257 16.0029ZM88.6614 12.9607C88.6232 12.9677 88.583 12.9685 88.5423 12.9623C88.3517 12.932 88.2214 12.7527 88.2517 12.5622C88.3136 12.1711 88.3937 11.778 88.4891 11.3937C88.5356 11.206 88.7253 11.0923 88.913 11.1384C89.1002 11.1849 89.2147 11.3746 89.1682 11.5622C89.0778 11.9271 89.0018 12.3007 88.9428 12.6718C88.9188 12.8216 88.803 12.9341 88.6614 12.9607ZM89.4746 10.0243C89.4115 10.0359 89.3442 10.0305 89.2799 10.0048C89.1006 9.93254 89.0142 9.72873 89.0861 9.54982C89.2342 9.18247 89.3999 8.81677 89.5783 8.46352C89.6655 8.29126 89.876 8.22235 90.0482 8.30952C90.2205 8.39669 90.2894 8.60715 90.2022 8.77941C90.0325 9.11481 89.8751 9.46182 89.7344 9.81133C89.6888 9.92631 89.5879 10.0031 89.4746 10.0243ZM90.922 7.34318C90.8332 7.35979 90.7381 7.34235 90.6584 7.28673C90.4999 7.17673 90.4604 6.95881 90.5704 6.80024C90.7958 6.47564 91.0382 6.15601 91.291 5.8505C91.4139 5.70149 91.6343 5.68073 91.7833 5.80401C91.9319 5.9273 91.9531 6.14771 91.8298 6.29631C91.5895 6.58647 91.3591 6.89031 91.1449 7.19873C91.0901 7.2776 91.0092 7.327 90.922 7.34318ZM92.9261 5.04896C92.8111 5.07054 92.6882 5.03402 92.6036 4.94145C92.4732 4.79907 92.4832 4.57783 92.6256 4.44749C92.9174 4.18017 93.2245 3.92239 93.5384 3.68081C93.6915 3.56292 93.9111 3.59156 94.029 3.74473C94.1469 3.89749 94.1182 4.11707 93.9651 4.23496C93.667 4.46451 93.3752 4.70941 93.0979 4.96345C93.0477 5.00911 92.9879 5.03733 92.9261 5.04896ZM105.369 1.87598C105.321 1.88469 105.271 1.88386 105.221 1.87183C104.856 1.78175 104.482 1.70662 104.11 1.64851C103.919 1.61862 103.789 1.43971 103.819 1.24918C103.849 1.05824 104.028 0.927901 104.219 0.957788C104.611 1.01922 105.004 1.09851 105.388 1.19315C105.576 1.23922 105.69 1.42892 105.644 1.61654C105.61 1.75311 105.499 1.85149 105.369 1.87598ZM95.3872 3.25741C95.2444 3.28398 95.0945 3.21964 95.019 3.08639C94.9235 2.91828 94.9825 2.70492 95.1502 2.60945C95.4943 2.41394 95.8513 2.23088 96.2107 2.06526C96.3863 1.98556 96.5939 2.06111 96.6744 2.23669C96.7549 2.41228 96.6781 2.61982 96.5025 2.70035C96.1609 2.85726 95.8222 3.03118 95.4955 3.21673C95.4611 3.23707 95.4245 3.25035 95.3872 3.25741ZM102.347 1.48496C102.325 1.48911 102.301 1.49118 102.277 1.49118C101.901 1.48537 101.52 1.49534 101.145 1.52149C100.952 1.53477 100.785 1.38949 100.771 1.19688C100.758 1.00428 100.903 0.836165 101.096 0.823712C101.492 0.796316 101.893 0.785524 102.288 0.79175C102.481 0.794656 102.635 0.954052 102.632 1.14707C102.63 1.3156 102.508 1.45507 102.347 1.48496ZM98.187 2.06028C98.0135 2.09266 97.84 1.98971 97.7881 1.81703C97.7325 1.6319 97.8379 1.43722 98.0226 1.3816C98.4016 1.26828 98.7901 1.16949 99.1782 1.08854C99.1807 1.08813 99.1832 1.0873 99.1857 1.08688C99.3721 1.05201 99.5531 1.17239 99.5921 1.35918C99.6315 1.54847 99.5103 1.7336 99.321 1.77303C98.9524 1.84983 98.5834 1.94364 98.2235 2.05156C98.2115 2.0553 98.199 2.0582 98.187 2.06028Z" fill="#91B3FA"/>
<path opacity="0.3" d="M107.69 2.67684C107.622 2.68929 107.55 2.68223 107.482 2.65193C107.318 2.57805 107.149 2.50623 106.981 2.43857C106.801 2.36676 106.715 2.16295 106.787 1.98363C106.859 1.80431 107.063 1.71714 107.242 1.78978C107.419 1.86076 107.596 1.93631 107.769 2.01435C107.945 2.09363 108.024 2.30076 107.945 2.47676C107.896 2.5851 107.799 2.6565 107.69 2.67684Z" fill="#91B3FA"/>
</g>
<g opacity="0.3">
<path opacity="0.3" d="M114.932 10.5009C114.766 10.532 114.597 10.4391 114.539 10.2751C114.478 10.1053 114.413 9.93389 114.345 9.76577C114.272 9.58687 114.358 9.38264 114.537 9.31042C114.717 9.23777 114.92 9.32411 114.993 9.50302C115.064 9.67985 115.133 9.86042 115.197 10.0393C115.262 10.2211 115.168 10.4212 114.986 10.4864C114.968 10.4926 114.95 10.4976 114.932 10.5009Z" fill="#91B3FA"/>
<path opacity="0.3" d="M104.629 28.4849C104.471 28.5144 104.311 28.5414 104.151 28.5659C103.96 28.5949 103.782 28.4638 103.753 28.2728C103.724 28.0819 103.856 27.9026 104.046 27.8743C104.416 27.8179 104.783 27.7469 105.14 27.6614C105.328 27.617 105.517 27.7328 105.562 27.9204C105.606 28.1085 105.49 28.2969 105.303 28.3417C105.081 28.3945 104.855 28.4426 104.629 28.4849ZM102.311 28.7186C102.292 28.7224 102.272 28.7245 102.252 28.7245C101.862 28.7307 101.467 28.7203 101.079 28.6933C100.886 28.68 100.741 28.5132 100.754 28.3206C100.767 28.128 100.935 27.9819 101.127 27.9956C101.495 28.0209 101.871 28.0304 102.241 28.025C102.434 28.0221 102.593 28.1761 102.596 28.3691C102.599 28.5422 102.476 28.6875 102.311 28.7186ZM107.059 27.7922C106.897 27.8225 106.731 27.7345 106.669 27.5751C106.599 27.3949 106.688 27.1923 106.868 27.1222C107.213 26.9885 107.556 26.8378 107.889 26.6747C108.062 26.59 108.272 26.6614 108.356 26.8349C108.442 27.0085 108.37 27.2181 108.196 27.3028C107.846 27.4746 107.484 27.6328 107.122 27.7739C107.101 27.7826 107.08 27.7884 107.059 27.7922ZM99.3265 28.4347C99.2829 28.443 99.2368 28.4426 99.1908 28.4331C98.8093 28.3534 98.4266 28.2562 98.053 28.145C97.8679 28.0898 97.7628 27.8951 97.818 27.71C97.8733 27.5248 98.0679 27.4198 98.2531 27.475C98.6076 27.5809 98.9708 27.673 99.3331 27.7486C99.522 27.788 99.6436 27.9731 99.6038 28.1624C99.5747 28.3052 99.4614 28.4094 99.3265 28.4347ZM109.713 26.4037C109.581 26.4286 109.439 26.3746 109.359 26.2551C109.251 26.0948 109.293 25.8777 109.454 25.7698C109.76 25.5635 110.062 25.3414 110.351 25.109C110.501 24.9882 110.721 25.0119 110.842 25.1625C110.963 25.3132 110.939 25.5332 110.789 25.654C110.484 25.8985 110.167 26.1326 109.844 26.3497C109.804 26.3775 109.759 26.3954 109.713 26.4037ZM111.999 24.4664C111.893 24.4863 111.779 24.4569 111.695 24.3768C111.554 24.2439 111.548 24.0227 111.681 23.8824C111.935 23.6134 112.182 23.3303 112.412 23.0414C112.533 22.8903 112.753 22.8658 112.904 22.9866C113.055 23.1074 113.079 23.3274 112.959 23.4781C112.716 23.7819 112.457 24.08 112.189 24.3631C112.136 24.4187 112.069 24.4531 111.999 24.4664ZM113.809 22.0767C113.728 22.0917 113.641 22.0788 113.565 22.0331C113.4 21.9343 113.345 21.7193 113.445 21.5537C113.635 21.2353 113.813 20.9057 113.976 20.5737C114.06 20.4002 114.269 20.3283 114.443 20.413C114.617 20.4977 114.689 20.7073 114.604 20.8808C114.433 21.2303 114.245 21.5774 114.045 21.9123C113.991 22.0016 113.904 22.0589 113.809 22.0767ZM115.054 19.3491C114.998 19.3595 114.938 19.3566 114.881 19.3375C114.697 19.2773 114.597 19.0797 114.658 18.8963C114.773 18.5443 114.876 18.1835 114.961 17.8237C115.006 17.6356 115.194 17.5198 115.382 17.5642C115.57 17.6086 115.686 17.7975 115.641 17.9851C115.551 18.3641 115.444 18.7439 115.322 19.1146C115.281 19.2404 115.175 19.3267 115.054 19.3491ZM115.67 16.414C115.638 16.4198 115.605 16.4215 115.572 16.4182C115.379 16.3999 115.238 16.2289 115.257 16.0367C115.292 15.6689 115.312 15.2945 115.316 14.9242C115.318 14.7312 115.477 14.5764 115.67 14.5785C115.863 14.5805 116.018 14.7391 116.016 14.9321C116.011 15.3219 115.99 15.7162 115.953 16.1031C115.938 16.2625 115.819 16.3862 115.67 16.414ZM115.626 13.4174C115.619 13.4187 115.611 13.4199 115.604 13.4208C115.412 13.4448 115.237 13.3087 115.214 13.1169C115.18 12.8463 115.138 12.574 115.088 12.3062C115.069 12.2095 115.05 12.1128 115.03 12.0169C114.991 11.8276 115.112 11.6425 115.301 11.6031C115.492 11.5591 115.675 11.6844 115.715 11.8733C115.736 11.9742 115.756 12.0754 115.775 12.1775C115.828 12.459 115.872 12.7458 115.908 13.0302C115.931 13.2149 115.806 13.3838 115.626 13.4174Z" fill="#91B3FA"/>
<path opacity="0.3" d="M96.4694 27.4966C96.4009 27.5094 96.3283 27.502 96.2602 27.4708C96.0879 27.3924 95.914 27.3085 95.7434 27.2222C95.5711 27.135 95.5022 26.9246 95.5894 26.7523C95.6766 26.58 95.887 26.5111 96.0593 26.5983C96.2216 26.6805 96.3864 26.7598 96.5499 26.8345C96.7255 26.9146 96.8031 27.1217 96.723 27.2977C96.6744 27.4057 96.5777 27.4762 96.4694 27.4966Z" fill="#91B3FA"/>
</g>
<path d="M96.1879 23.4227C96.241 23.4675 96.317 23.4738 96.3772 23.4385L98.0861 22.4207C98.9138 22.8424 99.8146 23.1355 100.761 23.2749L101.564 25.0935C101.592 25.1574 101.658 25.196 101.727 25.1902L104.105 24.9901C104.174 24.9843 104.232 24.9349 104.249 24.8672L104.738 22.9404C105.647 22.6452 106.486 22.2056 107.231 21.6515L109.087 22.37C109.152 22.3953 109.225 22.3763 109.27 22.3231L110.81 20.5004C110.855 20.4473 110.862 20.3713 110.826 20.3112L109.808 18.6022C110.229 17.7745 110.522 16.8738 110.662 15.9278L112.48 15.1246C112.544 15.0963 112.583 15.0307 112.577 14.9614L112.377 12.5838C112.371 12.5144 112.322 12.4563 112.254 12.4389L110.327 11.9507C110.032 11.0413 109.593 10.2024 109.038 9.45685L109.757 7.6018C109.782 7.53663 109.763 7.46316 109.71 7.41791L107.887 5.87791C107.834 5.83267 107.758 5.82685 107.698 5.86214L105.989 6.87995C105.161 6.4578 104.261 6.16516 103.315 6.02568L102.511 4.20716C102.483 4.14323 102.418 4.10463 102.348 4.11044L99.9707 4.31051C99.9013 4.31633 99.8432 4.36572 99.8258 4.43338L99.3376 6.36025C98.4282 6.65538 97.5893 7.09455 96.8433 7.64912L94.9883 6.93059C94.9231 6.90527 94.8492 6.92436 94.8044 6.9775L93.2644 8.80017C93.2196 8.85331 93.2133 8.92927 93.2486 8.98946L94.2664 10.6984C93.8447 11.5261 93.5516 12.4269 93.4122 13.3729L91.5936 14.1761C91.5297 14.2043 91.4911 14.2699 91.4969 14.3392L91.697 16.7169C91.7028 16.7862 91.7522 16.8443 91.8199 16.8617L93.7467 17.3499C94.0419 18.2589 94.4814 19.0982 95.0356 19.8438L94.3175 21.6988C94.2922 21.764 94.3113 21.8375 94.3644 21.8827L96.1879 23.4227Z" fill="#74A1BB"/>
<path d="M102.477 17.0088C101.328 17.2238 100.161 16.5683 99.7698 15.4306C99.3397 14.1799 100.008 12.8126 101.258 12.3825C101.864 12.1742 102.514 12.2144 103.09 12.4954C103.666 12.7765 104.098 13.265 104.306 13.8707C104.736 15.1213 104.068 16.4887 102.818 16.9187C102.705 16.9573 102.591 16.9872 102.477 17.0088ZM101.704 12.842C101.615 12.8587 101.527 12.8819 101.44 12.9118C100.481 13.2414 99.9694 14.2899 100.299 15.2488C100.629 16.2076 101.677 16.7199 102.636 16.3899C103.595 16.0603 104.107 15.0117 103.777 14.0529C103.617 13.5884 103.286 13.214 102.845 12.9981C102.486 12.823 102.089 12.7702 101.704 12.842Z" fill="#BDD0FB"/>
<path d="M103.162 20.4047C102.965 20.4417 102.764 20.4687 102.561 20.4861C102.497 20.4915 102.433 20.4957 102.37 20.499C102.054 20.5152 101.738 20.5064 101.426 20.4728C101.421 20.4724 101.417 20.472 101.413 20.4716C101.401 20.4703 101.389 20.4687 101.377 20.4674C101.353 20.4649 101.33 20.4616 101.306 20.4587C101.244 20.4508 101.197 20.4039 101.187 20.3458C101.184 20.3317 101.184 20.3167 101.185 20.3018C101.195 20.225 101.265 20.1715 101.342 20.181C101.736 20.2321 102.138 20.2408 102.538 20.2072C104.521 20.0407 106.18 18.8569 107.043 17.2131C107.523 16.2986 107.757 15.2422 107.665 14.1389C107.649 13.9455 107.623 13.7541 107.588 13.5661C107.351 12.2992 106.691 11.1618 105.693 10.3188C104.547 9.35037 103.092 8.8863 101.597 9.01207C98.5087 9.27192 96.21 11.9941 96.4694 15.0803C96.4856 15.2704 96.5109 15.4593 96.5458 15.6461C96.6969 16.4543 97.0235 17.2201 97.5042 17.888C97.5167 17.9055 97.5246 17.9246 97.5283 17.9441C97.5378 17.9955 97.5179 18.0507 97.4727 18.0831C97.41 18.128 97.3224 18.1143 97.2776 18.0512C96.7728 17.3501 96.43 16.5456 96.2714 15.6972C96.2349 15.5012 96.2079 15.3032 96.1909 15.1036C95.9186 11.8629 98.334 9.00543 101.573 8.73312C103.143 8.60112 104.67 9.08845 105.873 10.105C106.921 10.99 107.614 12.1842 107.862 13.5142C107.899 13.7118 107.926 13.9127 107.944 14.1157C108.076 15.6855 107.589 17.2127 106.572 18.4156C105.687 19.4633 104.492 20.1561 103.162 20.4047Z" fill="#BDD0FB"/>
<g opacity="0.3">
<path opacity="0.3" d="M79.027 30.2528C78.9353 30.2699 78.8394 30.2259 78.795 30.1383C78.7119 29.9747 78.6327 29.8066 78.5592 29.6385C78.5115 29.5293 78.5617 29.4019 78.6713 29.3542C78.7804 29.306 78.9079 29.3567 78.9556 29.4662C79.0253 29.6265 79.1009 29.7867 79.1802 29.9428C79.2341 30.049 79.1918 30.179 79.0855 30.2333C79.0664 30.2429 79.0465 30.2491 79.027 30.2528Z" fill="#91B3FA"/>
<path opacity="0.3" d="M78.4131 28.709C78.3056 28.7289 78.1981 28.665 78.1665 28.5579C78.0773 28.2549 78.0026 27.944 77.9445 27.6339C77.9324 27.5688 77.9208 27.5032 77.9096 27.4372C77.8901 27.3193 77.9768 27.2114 78.0877 27.1885C78.2056 27.169 78.3164 27.2487 78.3359 27.3662C78.3463 27.4293 78.3571 27.492 78.3691 27.5542C78.4243 27.8502 78.4957 28.1466 78.5808 28.4355C78.6144 28.55 78.5493 28.67 78.4347 28.7036C78.4272 28.7061 78.4202 28.7078 78.4131 28.709ZM78.0478 26.4966C78.0379 26.4986 78.0275 26.4999 78.0171 26.5003C77.898 26.5053 77.7971 26.4127 77.7921 26.2936C77.7759 25.9113 77.7834 25.5244 77.8145 25.1442C77.8241 25.0251 77.9291 24.9371 78.0474 24.9466C78.1665 24.9562 78.2549 25.0603 78.245 25.1795C78.2155 25.5423 78.2085 25.9113 78.2238 26.2757C78.228 26.3837 78.1516 26.4771 78.0478 26.4966ZM78.2296 24.2613C78.2027 24.2663 78.1744 24.2663 78.1458 24.2605C78.0291 24.236 77.954 24.1214 77.9785 24.0048C78.0565 23.6308 78.1591 23.2572 78.2828 22.8952C78.3214 22.7823 78.4438 22.7221 78.5571 22.7607C78.67 22.7993 78.7302 22.9222 78.6916 23.0351C78.5733 23.3805 78.4758 23.7362 78.4015 24.0928C78.3832 24.1816 78.3131 24.2459 78.2296 24.2613ZM78.9556 22.1393C78.9116 22.1476 78.8647 22.1422 78.8216 22.1211C78.7145 22.0688 78.6696 21.9392 78.7219 21.8322C78.8896 21.488 79.0802 21.1514 79.2881 20.8314C79.3533 20.7313 79.487 20.7035 79.587 20.7683C79.687 20.8334 79.7153 20.9671 79.6501 21.0671C79.4517 21.3722 79.2699 21.6935 79.11 22.0214C79.0793 22.0858 79.0208 22.1273 78.9556 22.1393ZM80.1781 20.2589C80.1166 20.2706 80.0506 20.2552 79.9992 20.212C79.9079 20.1352 79.8962 19.9991 79.973 19.9078C80.2192 19.6151 80.4857 19.3349 80.765 19.0751C80.8522 18.9937 80.9892 18.9987 81.0701 19.0859C81.1515 19.1735 81.1465 19.31 81.0593 19.391C80.7928 19.6392 80.5384 19.9065 80.3039 20.1855C80.2702 20.2257 80.2254 20.2502 80.1781 20.2589ZM81.8194 18.7326C81.7397 18.7476 81.655 18.7169 81.6044 18.6467C81.5346 18.55 81.5562 18.4151 81.6529 18.3454C81.9626 18.1212 82.2897 17.9145 82.6238 17.731C82.7288 17.6737 82.8596 17.7119 82.9173 17.8165C82.9746 17.9211 82.9364 18.0523 82.8318 18.1096C82.5126 18.2848 82.2013 18.4819 81.9061 18.6953C81.8796 18.7148 81.8497 18.7268 81.8194 18.7326ZM83.7836 17.6542C83.684 17.6729 83.5823 17.6194 83.5433 17.5218C83.4993 17.411 83.5536 17.2852 83.6645 17.2412C84.0185 17.1005 84.3863 16.9805 84.757 16.8838C84.8732 16.8556 84.9907 16.9233 85.0206 17.0386C85.0505 17.154 84.9816 17.2719 84.8662 17.3022C84.5121 17.394 84.1617 17.5089 83.8239 17.643C83.8106 17.6476 83.7969 17.6513 83.7836 17.6542ZM87.0745 17.0108C87.0624 17.0133 87.0496 17.0146 87.0367 17.0146C86.7216 17.0175 86.4016 17.0374 86.0849 17.0743C86.0367 17.0797 85.9898 17.0856 85.9429 17.0918C85.8246 17.1076 85.7159 17.0245 85.7001 16.9062C85.6839 16.7879 85.7673 16.6754 85.8856 16.6634C85.9359 16.6568 85.9857 16.6505 86.0359 16.6447C86.3667 16.6061 86.7025 16.5849 87.033 16.582C87.1521 16.5808 87.2496 16.6767 87.2509 16.7958C87.2517 16.9029 87.1757 16.9922 87.0745 17.0108Z" fill="#91B3FA"/>
</g>
<g opacity="0.3">
<path opacity="0.3" d="M88.9515 35.0562C88.8357 35.0778 88.7236 35.0023 88.7 34.8865C88.6767 34.7694 88.7523 34.6557 88.8693 34.6324C89.2213 34.5619 89.5721 34.4693 89.912 34.3572C90.0249 34.3211 90.1474 34.3813 90.1847 34.4946C90.2221 34.6079 90.1607 34.73 90.0474 34.7673C89.6912 34.8848 89.3234 34.9819 88.9544 35.0558C88.9536 35.0558 88.9523 35.0562 88.9515 35.0562ZM87.8569 35.2077C87.849 35.209 87.8415 35.2102 87.8336 35.2106C87.4588 35.2401 87.0782 35.2468 86.7029 35.231C86.5838 35.226 86.4912 35.1251 86.4962 35.006C86.5012 34.8865 86.6025 34.7943 86.7212 34.7993C87.0794 34.8146 87.4426 34.808 87.8 34.7802C87.9188 34.7706 88.0229 34.8599 88.0321 34.9786C88.0408 35.0899 87.964 35.1878 87.8569 35.2077ZM91.0452 34.3643C90.951 34.3817 90.8535 34.3348 90.8103 34.2443C90.7592 34.1368 90.8053 34.0081 90.9132 33.9571C91.2378 33.8031 91.5562 33.6287 91.8588 33.4374C91.9601 33.3739 92.0929 33.4037 92.1569 33.505C92.2204 33.6059 92.1905 33.7391 92.0896 33.8031C91.7725 34.0036 91.4387 34.1866 91.0984 34.3477C91.0809 34.3551 91.0631 34.3609 91.0452 34.3643ZM85.6523 35.1131C85.6283 35.1177 85.6029 35.1181 85.5772 35.1139C85.2061 35.0521 84.835 34.967 84.4743 34.8603C84.3597 34.8267 84.2946 34.7063 84.3282 34.5917C84.3622 34.4776 84.4822 34.4124 84.5963 34.446C84.94 34.5477 85.2937 34.6287 85.6478 34.6876C85.7652 34.7071 85.8449 34.8184 85.8254 34.9363C85.8105 35.0284 85.7391 35.0969 85.6523 35.1131ZM92.9098 33.1871C92.8347 33.2012 92.7542 33.1746 92.7027 33.1115C92.6272 33.019 92.6409 32.8828 92.7334 32.8077C93.0111 32.581 93.2776 32.3353 93.5258 32.0763C93.6084 31.9899 93.7454 31.9874 93.8314 32.07C93.9173 32.1526 93.9202 32.2896 93.8376 32.3756C93.5773 32.6466 93.2975 32.9048 93.0066 33.1422C92.9775 33.1655 92.9443 33.1804 92.9098 33.1871ZM94.4374 31.5964C94.3797 31.6072 94.3183 31.5948 94.268 31.557C94.1726 31.4852 94.1535 31.3499 94.2249 31.2544C94.4407 30.9671 94.6408 30.6641 94.8201 30.3545C94.8799 30.2511 95.0119 30.2158 95.1152 30.2756C95.2186 30.3354 95.2539 30.4674 95.1941 30.5703C95.0065 30.8953 94.7964 31.2129 94.5706 31.5138C94.5366 31.5587 94.4884 31.5869 94.4374 31.5964ZM95.5399 29.6857C95.4996 29.6932 95.4564 29.6895 95.4158 29.672C95.3058 29.6256 95.2547 29.4985 95.3016 29.3885C95.4423 29.0581 95.564 28.7161 95.6632 28.372C95.6964 28.2578 95.8159 28.1914 95.9305 28.2242C96.045 28.2574 96.111 28.377 96.0783 28.4915C95.9741 28.8522 95.8466 29.2109 95.6993 29.5575C95.6698 29.6272 95.6088 29.6729 95.5399 29.6857Z" fill="#91B3FA"/>
<path opacity="0.3" d="M83.527 34.4845C83.4859 34.492 83.4424 34.4883 83.4013 34.4704C83.2319 34.3969 83.0638 34.3176 82.9015 34.2355C82.7952 34.1815 82.7525 34.0516 82.8064 33.9453C82.8604 33.8395 82.9903 33.7967 83.097 33.8502C83.2514 33.9287 83.4121 34.0038 83.5735 34.0744C83.6831 34.1221 83.7329 34.2492 83.6856 34.3587C83.6557 34.4264 83.5951 34.4716 83.527 34.4845Z" fill="#91B3FA"/>
</g>
<path d="M83.1908 31.7089C83.2265 31.7392 83.2771 31.7434 83.3174 31.7193L84.461 31.0381C85.0147 31.3204 85.6174 31.5163 86.2505 31.6097L86.788 32.8264C86.8067 32.8691 86.8507 32.8953 86.8972 32.8911L88.4882 32.7575C88.5347 32.7537 88.5737 32.7205 88.5849 32.6753L88.9116 31.386C89.5202 31.1884 90.0818 30.8945 90.5807 30.5238L91.8218 31.0045C91.8654 31.0215 91.9148 31.0087 91.9447 30.973L92.975 29.7534C93.0053 29.7177 93.0094 29.6671 92.9854 29.6268L92.3042 28.4832C92.5865 27.9295 92.7824 27.3268 92.8758 26.6938L94.0924 26.1562C94.1352 26.1375 94.1613 26.0935 94.1572 26.0471L94.0235 24.456C94.0198 24.4095 93.9866 24.3705 93.9413 24.3593L92.652 24.0326C92.4545 23.4241 92.1606 22.8624 91.7899 22.3635L92.2706 21.1224C92.2876 21.0788 92.2747 21.0294 92.239 20.9995L91.0195 19.9692C90.9838 19.9389 90.9331 19.9348 90.8929 19.9589L89.7493 20.64C89.1955 20.3578 88.5928 20.1618 87.9598 20.0684L87.4223 18.8518C87.4036 18.8091 87.3596 18.7829 87.3131 18.7871L85.722 18.9207C85.6755 18.9244 85.6365 18.9577 85.6253 19.0029L85.2986 20.2922C84.6901 20.4898 84.1285 20.7837 83.6296 21.1543L82.3884 20.6737C82.3448 20.6566 82.2954 20.6695 82.2655 20.7052L81.2353 21.9247C81.205 21.9604 81.2008 22.0111 81.2249 22.0514L81.9061 23.1949C81.6238 23.7487 81.4279 24.3514 81.3345 24.9844L80.1178 25.522C80.0751 25.5406 80.0494 25.5846 80.0531 25.6311L80.1868 27.2222C80.1905 27.2687 80.2237 27.3077 80.2689 27.3189L81.5582 27.6456C81.7558 28.2541 82.0497 28.8157 82.4204 29.3147L81.9397 30.5558C81.9227 30.5994 81.9355 30.6488 81.9712 30.6787L83.1908 31.7089Z" fill="#74A1BB"/>
<path d="M87.4019 27.4459C87.0595 27.5098 86.707 27.4629 86.3883 27.3073C85.996 27.1159 85.7021 26.783 85.5601 26.3704C85.2671 25.5186 85.722 24.5876 86.5738 24.2945C87.4272 24.0027 88.357 24.4564 88.6501 25.3082C88.7921 25.7208 88.7647 26.1641 88.5733 26.556C88.3819 26.9482 88.049 27.2421 87.6364 27.3841C87.5592 27.4106 87.4808 27.431 87.4019 27.4459ZM86.8851 24.6577C86.8278 24.6685 86.771 24.6835 86.7145 24.7026C86.0881 24.918 85.7536 25.6033 85.969 26.2297C86.0732 26.5331 86.2895 26.778 86.5779 26.9187C86.8664 27.0595 87.1923 27.0794 87.4961 26.9752C87.7996 26.871 88.0445 26.6543 88.1852 26.3663C88.3259 26.0778 88.3463 25.7515 88.2416 25.4481C88.0457 24.8781 87.4609 24.5498 86.8851 24.6577Z" fill="#BDD0FB"/>
<path d="M87.8756 29.8101C87.7411 29.8355 87.6045 29.8537 87.4655 29.8653C87.1894 29.8886 86.9109 29.884 86.6365 29.8508C86.6241 29.8492 86.612 29.8475 86.5996 29.8463C86.5045 29.8342 86.4319 29.7616 86.4149 29.6719C86.4107 29.6503 86.4099 29.6275 86.4132 29.6043C86.4286 29.486 86.5369 29.4029 86.6552 29.4179C86.9109 29.4511 87.1716 29.4565 87.4294 29.4349C87.4435 29.4336 87.4576 29.4324 87.4717 29.4312C88.0815 29.3739 88.6543 29.1667 89.1495 28.8338C89.4185 28.6533 89.6646 28.4349 89.8813 28.183C89.883 28.1809 89.8846 28.1788 89.8867 28.1767C89.8921 28.1705 89.8975 28.1643 89.9029 28.1581C90.5297 27.4159 90.8302 26.4744 90.7489 25.5064C90.7385 25.3811 90.7215 25.2574 90.6986 25.1358C90.545 24.3155 90.1179 23.5792 89.472 23.0333C88.7298 22.4065 87.7884 22.106 86.8204 22.1873C85.8532 22.2691 84.9741 22.7224 84.3473 23.4642C83.7205 24.2064 83.42 25.1478 83.5013 26.1158C83.5117 26.2391 83.5283 26.3611 83.5507 26.4819C83.6487 27.0053 83.86 27.501 84.1713 27.9335C84.1904 27.9601 84.2028 27.9895 84.2082 28.0198C84.2232 28.0995 84.1924 28.1842 84.1223 28.2349C84.0252 28.3042 83.8907 28.2826 83.8209 28.1855C83.4727 27.7019 83.2361 27.1469 83.1265 26.5616C83.1012 26.4263 83.0825 26.2897 83.0709 26.1519C82.98 25.0689 83.3162 24.0154 84.0173 23.1852C84.7188 22.355 85.7005 21.8474 86.7843 21.7569C87.8673 21.6656 88.9208 22.0018 89.751 22.7033C90.4737 23.3139 90.9518 24.1375 91.1233 25.0552C91.1486 25.1914 91.1677 25.33 91.1793 25.4699C91.3553 27.567 89.9012 29.4316 87.8756 29.8101Z" fill="#BDD0FB"/>
<path d="M52.0753 58.6952C52.0753 58.6952 51.4253 56.9838 50.6657 57.1403C49.906 57.2972 49.0754 57.8804 49.0754 57.8804L47.8555 59.5304C47.8555 59.5304 51.2804 60.8794 52.4846 60.1065C52.4846 60.1065 55.9826 60.7109 60.4004 59.9861C59.7608 58.6358 59.3797 57.2843 59.156 56.2354C56.9186 57.5018 54.5086 58.4478 52.0753 58.6952Z" fill="url(#paint0_linear_131_1524)"/>
<path d="M70.6056 46.2808C70.6056 46.2808 65.597 52.5889 59.156 56.2347C59.3797 57.2841 59.7608 58.6356 60.4005 59.9855C63.7416 59.4372 67.6086 58.1288 70.887 55.2215L70.6056 46.2808Z" fill="black"/>
<path d="M76.8514 74.2405C75.8718 69.5881 74.8926 66.8945 71.613 58.0759C70.581 55.3005 69.6437 52.4928 70.0966 49.5668L70.6055 46.2805C70.6055 46.2805 76.9793 44.1237 84.0442 46.1896C84.0442 46.1896 93.6831 50.3771 87.1362 71.0571C84.1849 74.3588 80.7313 75.2998 76.8514 74.2405Z" fill="black"/>
<path d="M71.6902 42.0863L73.3427 46.0567C73.4473 46.3074 73.6727 46.4863 73.9404 46.532C74.8935 46.6956 77.1977 46.9508 78.7115 45.9554C78.8917 45.8367 78.9377 45.5918 78.8145 45.4146L75.761 41.0308L71.6902 42.0863Z" fill="url(#paint1_linear_131_1524)"/>
<path d="M73.3995 36.0118C73.3302 36.077 70.4702 41.6932 70.4702 41.6932L73.7117 43.2581L77.213 38.338C77.213 38.3376 74.5614 34.9177 73.3995 36.0118Z" fill="url(#paint2_linear_131_1524)"/>
<path d="M75.7402 38.9284L74.1234 41.6232C74.099 41.6643 74.0699 41.7013 74.0346 41.7337C73.842 41.913 73.1837 42.4339 72.6748 41.7245C72.241 41.1197 71.8338 40.5701 71.3975 40.3435C71.1426 40.2111 70.8293 40.3169 70.7002 40.5731C70.4337 41.1011 69.9177 42.177 69.5939 43.1977C69.5126 43.4534 69.6446 43.7282 69.8932 43.8286C70.5495 44.0947 71.8466 44.5754 72.9981 44.7344C73.1874 44.7605 73.3746 44.6808 73.4871 44.5264C73.9823 43.8477 75.3783 41.952 75.8548 41.4771C76.2973 41.0363 77.1142 41.2023 77.4824 41.3082C77.6223 41.3484 77.7709 41.3289 77.8954 41.2542C78.269 41.0292 78.9207 40.4693 78.3242 39.5208C78.176 39.285 78.2516 38.9708 78.4844 38.818C78.9016 38.5437 79.354 38.0289 78.9228 37.195C78.4865 36.3511 77.7069 36.2752 77.1765 36.3399C76.9415 36.3686 76.7033 36.2453 76.6132 36.0265C76.5729 35.9294 76.494 35.8464 76.3463 35.8165C76.0682 35.76 75.8855 35.5056 75.9403 35.2271C76.0337 34.7493 75.9636 34.1291 75.201 33.7099C73.8026 32.9407 72.5772 34.1939 72.2659 35.2515C71.9542 36.3092 73.5182 37.0568 74.5016 37.1813C75.2243 37.273 75.6203 38.0617 75.7797 38.4739C75.8365 38.6238 75.8224 38.7906 75.7402 38.9284Z" fill="#597B8E"/>
<path d="M75.1732 42.2843C75.1732 42.2843 75.8689 40.6476 76.6651 40.7144C77.4612 40.7812 78.0876 41.5741 77.1009 42.4657C75.8739 43.5748 75.1732 42.2843 75.1732 42.2843Z" fill="url(#paint3_linear_131_1524)"/>
<path d="M76.2243 115.244C77.7634 115.377 80.4354 115.593 82.5416 115.686C83.8076 115.741 84.5365 115.618 84.9562 115.45C84.9553 115.497 84.9541 115.542 84.9524 115.583C84.9425 115.805 84.7623 115.982 84.5386 115.995C80.5587 116.217 77.3936 116.071 76.267 116.003C76.0341 115.989 75.8951 115.736 76.0142 115.537C76.0736 115.437 76.1458 115.34 76.2243 115.244Z" fill="#74A1BB"/>
<path d="M82.5412 115.685C80.435 115.593 77.7635 115.376 76.2239 115.243C77.7373 113.386 82.5412 112.135 82.5412 112.135H83.8977C84.8309 113.48 84.9658 114.761 84.9558 115.449C84.5361 115.617 83.8072 115.741 82.5412 115.685Z" fill="black"/>
<path d="M84.1265 109.92L83.9994 112.433C83.9857 112.705 83.7819 112.934 83.5096 112.973C83.2386 113.011 82.8754 113.016 82.4906 112.888C82.2535 112.809 82.078 112.61 82.034 112.367L81.5952 109.921H84.1265V109.92Z" fill="url(#paint4_linear_131_1524)"/>
<path d="M101.748 115.667C102.416 115.574 102.718 115.227 102.845 114.856C102.845 114.859 102.846 114.863 102.847 114.866C102.945 115.257 102.718 115.662 102.262 115.855C101.712 116.088 101.11 116.128 100.643 116.109C100.142 116.088 99.6824 115.881 99.4296 115.549L99.4259 115.544C99.9294 115.793 100.635 115.822 101.748 115.667Z" fill="#74A1BB"/>
<path d="M98.6012 109.904H99.7198C101.424 109.869 102.494 113.464 102.845 114.856C102.718 115.226 102.416 115.573 101.748 115.666C100.635 115.822 99.929 115.793 99.4264 115.544C98.5057 114.332 98.0491 112.557 97.8299 111.522C97.58 110.344 98.6012 109.904 98.6012 109.904Z" fill="black"/>
<path d="M99.5762 107.572L100.198 110.043C100.274 110.346 100.129 110.66 99.8485 110.803C99.5011 110.982 99.0117 111.169 98.5617 111.115C98.35 111.09 98.1744 110.941 98.1047 110.742L97.1927 108.142L99.5762 107.572Z" fill="url(#paint5_linear_131_1524)"/>
<path d="M100.317 108.287C99.5443 108.972 97.03 109.063 97.03 109.063C87.9735 87.3261 84.1974 81.3421 84.1974 81.3421C85.5049 89.5464 84.4793 110.606 84.4793 110.606C82.9849 111.266 81.058 110.606 81.058 110.606C80.9368 97.1742 79.0457 82.7414 76.6066 73.5063C82.728 73.3689 86.0545 72.0344 87.1172 71.1938C92.2199 79.4198 100.317 108.287 100.317 108.287Z" fill="#74A1BB"/>
<path d="M75.0645 79.5804L76.1906 86.5859C76.3869 87.8075 77.5185 88.6547 78.7526 88.5045L95.6104 86.4481C96.4352 86.3477 97.0603 85.659 97.0769 84.8321C97.113 83.0219 97.042 79.8004 96.282 76.8652L75.0645 79.5804Z" fill="#74FCFD"/>
<path d="M79.2246 88.0388C79.2005 88.0388 79.1798 88.021 79.1769 87.9965C79.1736 87.9699 79.1927 87.9463 79.2188 87.943L79.6003 87.8965C79.6277 87.8923 79.6505 87.9122 79.6538 87.9384C79.6571 87.965 79.6381 87.9886 79.6119 87.9919L79.2304 88.0384C79.2284 88.0388 79.2267 88.0388 79.2246 88.0388ZM78.333 88.0168C78.3297 88.0168 78.3259 88.0164 78.3222 88.0156C78.1952 87.987 78.0694 87.9463 77.9486 87.8956C77.9241 87.8853 77.9125 87.857 77.9229 87.8325C77.9333 87.808 77.9615 87.7964 77.986 87.8068C78.1014 87.8554 78.2218 87.894 78.3434 87.9218C78.3691 87.9276 78.3853 87.9533 78.3795 87.9795C78.3749 88.0015 78.355 88.0168 78.333 88.0168ZM80.4969 87.8836C80.4728 87.8836 80.4521 87.8657 80.4491 87.8412C80.4458 87.8147 80.4649 87.791 80.4911 87.7877L80.873 87.7412C80.8983 87.7379 80.9232 87.757 80.9265 87.7831C80.9298 87.8093 80.9107 87.8334 80.8846 87.8367L80.5027 87.8832C80.5006 87.8836 80.499 87.8836 80.4969 87.8836ZM81.7691 87.7288C81.7451 87.7288 81.7243 87.7109 81.7214 87.6864C81.7181 87.6599 81.7372 87.6362 81.7633 87.6329L82.1452 87.5864C82.1726 87.5827 82.1954 87.6017 82.1988 87.6283C82.2021 87.6549 82.183 87.6785 82.1568 87.6819L81.7754 87.7283C81.7729 87.7283 81.7712 87.7288 81.7691 87.7288ZM83.0414 87.5735C83.0173 87.5735 82.9966 87.5557 82.9937 87.5312C82.9904 87.505 83.0095 87.4809 83.0356 87.4776L83.4171 87.4311C83.4445 87.4266 83.4673 87.4469 83.4706 87.4731C83.4739 87.4996 83.4548 87.5233 83.4287 87.5266L83.0472 87.5731C83.0451 87.5731 83.0435 87.5735 83.0414 87.5735ZM84.3137 87.4183C84.2896 87.4183 84.2688 87.4004 84.2659 87.3759C84.2626 87.3494 84.2817 87.3257 84.3079 87.3224L84.6893 87.2759C84.7167 87.273 84.7396 87.2917 84.7429 87.3178C84.7462 87.3444 84.7271 87.368 84.701 87.3714L84.3195 87.4179C84.3174 87.4183 84.3158 87.4183 84.3137 87.4183ZM77.2334 87.3946C77.221 87.3946 77.2081 87.3896 77.1985 87.3797C77.108 87.2854 77.0254 87.1825 76.9528 87.0742C76.9379 87.0522 76.9441 87.0223 76.9661 87.0073C76.9877 86.9924 77.018 86.9982 77.0329 87.0206C77.1027 87.1244 77.1815 87.2228 77.2683 87.3133C77.2865 87.3323 77.2861 87.3631 77.267 87.3813C77.2575 87.39 77.2454 87.3946 77.2334 87.3946ZM85.5859 87.263C85.5619 87.263 85.5411 87.2452 85.5382 87.2207C85.5349 87.1941 85.554 87.1705 85.5801 87.1671L85.962 87.1207C85.9894 87.1169 86.0122 87.1364 86.0156 87.1626C86.0189 87.1891 85.9998 87.2128 85.9736 87.2161L85.5922 87.2626C85.5897 87.263 85.5876 87.263 85.5859 87.263ZM86.8582 87.1078C86.8341 87.1078 86.8134 87.0899 86.8105 87.0654C86.8071 87.0389 86.8262 87.0152 86.8524 87.0119L87.2339 86.9654C87.2592 86.9613 87.2841 86.9812 87.2874 87.0073C87.2907 87.0335 87.2716 87.0576 87.2455 87.0609L86.864 87.1074C86.8619 87.1078 86.8599 87.1078 86.8582 87.1078ZM88.1305 86.9525C88.1064 86.9525 88.0856 86.9347 88.0827 86.9102C88.0794 86.8836 88.0985 86.86 88.1247 86.8566L88.5061 86.8102C88.5331 86.8073 88.5564 86.8259 88.5597 86.8521C88.563 86.8787 88.5439 86.9023 88.5178 86.9056L88.1363 86.9521C88.1342 86.9525 88.1325 86.9525 88.1305 86.9525ZM89.4027 86.7973C89.3787 86.7973 89.3579 86.7794 89.355 86.755C89.3517 86.7288 89.3708 86.7047 89.3969 86.7014L89.7784 86.6549C89.8054 86.6512 89.8286 86.6707 89.8319 86.6968C89.8353 86.7234 89.8162 86.7471 89.79 86.7504L89.4081 86.7969C89.4065 86.7973 89.4048 86.7973 89.4027 86.7973ZM90.675 86.6425C90.6509 86.6425 90.6302 86.6246 90.6273 86.6001C90.6239 86.5736 90.643 86.5499 90.6692 86.5466L91.0507 86.5001C91.0776 86.4959 91.1009 86.5159 91.1042 86.542C91.1075 86.5686 91.0884 86.5922 91.0623 86.5956L90.6808 86.642C90.6787 86.642 90.6771 86.6425 90.675 86.6425ZM91.9473 86.4872C91.9232 86.4872 91.9024 86.4694 91.8995 86.4449C91.8962 86.4183 91.9153 86.3946 91.9415 86.3913L92.3229 86.3448C92.3499 86.3419 92.3731 86.3606 92.3765 86.3868C92.3798 86.4133 92.3607 86.437 92.3345 86.4403L91.9527 86.4868C91.951 86.4868 91.9493 86.4872 91.9473 86.4872ZM93.2195 86.332C93.1954 86.332 93.1747 86.3141 93.1718 86.2896C93.1685 86.2631 93.1876 86.2394 93.2137 86.2361L93.5952 86.1896C93.6222 86.1859 93.6454 86.2054 93.6487 86.2315C93.6521 86.2577 93.633 86.2817 93.6068 86.2851L93.2253 86.3316C93.2233 86.3316 93.2216 86.332 93.2195 86.332ZM76.6602 86.2693C76.6373 86.2693 76.617 86.2527 76.6128 86.2294L76.5514 85.8492C76.5473 85.8231 76.5651 85.7986 76.5913 85.794C76.6178 85.7894 76.6419 85.8077 76.6465 85.8339L76.7079 86.2128C76.7125 86.239 76.695 86.2639 76.6689 86.2685C76.6656 86.2689 76.6631 86.2693 76.6602 86.2693ZM94.4918 86.1767C94.4677 86.1767 94.447 86.1589 94.444 86.1344C94.4407 86.1078 94.4598 86.0842 94.486 86.0808L94.8675 86.0343C94.8944 86.0302 94.9177 86.0501 94.921 86.0763C94.9243 86.1028 94.9052 86.1265 94.8791 86.1298L94.4976 86.1763C94.4955 86.1767 94.4935 86.1767 94.4918 86.1767ZM95.7325 85.9003C95.7159 85.9003 95.6997 85.8916 95.691 85.8758C95.6777 85.853 95.686 85.8235 95.7088 85.8102C95.8168 85.7488 95.9168 85.6736 96.0069 85.5881C96.0264 85.5699 96.0567 85.5707 96.075 85.5898C96.0932 85.6089 96.0924 85.6396 96.0733 85.6579C95.9774 85.7492 95.8707 85.8285 95.7562 85.8936C95.7487 85.8982 95.7408 85.9003 95.7325 85.9003ZM76.4564 85.0041C76.4331 85.0041 76.4128 84.9871 76.409 84.9638L76.348 84.584C76.3439 84.5579 76.3617 84.5334 76.3879 84.5288C76.4153 84.5238 76.4385 84.5425 76.4431 84.5687L76.5041 84.9485C76.5082 84.9746 76.4904 84.9991 76.4642 85.0037C76.4613 85.0037 76.4588 85.0041 76.4564 85.0041ZM96.4851 84.9065C96.4813 84.9065 96.4776 84.9061 96.4734 84.9049C96.4477 84.8986 96.4319 84.8725 96.4382 84.8468C96.4651 84.7376 96.4797 84.6243 96.4822 84.5109L96.483 84.4765C96.4834 84.4499 96.505 84.4288 96.5311 84.4288H96.5316C96.5581 84.4292 96.5793 84.4508 96.5793 84.4773L96.5785 84.5126C96.576 84.633 96.5602 84.753 96.5316 84.8692C96.5266 84.892 96.5067 84.9065 96.4851 84.9065ZM76.253 83.7385C76.2297 83.7385 76.2094 83.7219 76.2056 83.6982L76.1446 83.3184C76.1405 83.2922 76.1583 83.2677 76.1845 83.2632C76.2114 83.259 76.2351 83.2769 76.2397 83.303L76.3007 83.6828C76.3048 83.709 76.287 83.7335 76.2608 83.738C76.2579 83.7385 76.2554 83.7385 76.253 83.7385ZM96.537 83.6285C96.5104 83.6285 96.4892 83.6073 96.4888 83.5807C96.488 83.4566 96.4867 83.3283 96.4842 83.1968C96.4838 83.1702 96.505 83.1482 96.5316 83.1478C96.5569 83.1432 96.5801 83.1685 96.5805 83.1951C96.583 83.3271 96.5843 83.4554 96.5851 83.5803C96.5851 83.6065 96.5635 83.628 96.537 83.6285ZM76.0496 82.4728C76.0263 82.4728 76.006 82.4562 76.0022 82.4326L75.9412 82.0528C75.9371 82.0266 75.9549 82.0021 75.9811 81.9976C76.0089 81.993 76.0321 82.0113 76.0363 82.0374L76.0973 82.4172C76.1014 82.4434 76.0836 82.4679 76.0574 82.4724C76.0545 82.4728 76.0516 82.4728 76.0496 82.4728ZM96.5062 82.3467C96.4805 82.3467 96.4593 82.3263 96.4581 82.3006C96.4527 82.1744 96.4469 82.0465 96.4398 81.917C96.4382 81.8905 96.4585 81.8676 96.4851 81.8664C96.515 81.8635 96.5341 81.8855 96.5357 81.9116C96.5428 82.0416 96.5486 82.1702 96.554 82.2964C96.5552 82.323 96.5345 82.3454 96.5079 82.3467C96.5075 82.3467 96.5067 82.3467 96.5062 82.3467ZM75.8462 81.2076C75.8229 81.2076 75.8026 81.1906 75.7988 81.1674L75.7378 80.7876C75.7337 80.7614 75.7515 80.7369 75.7777 80.7323C75.8047 80.7286 75.8283 80.7461 75.8329 80.7722L75.8939 81.152C75.8981 81.1782 75.8802 81.2027 75.8541 81.2072C75.8511 81.2072 75.8487 81.2076 75.8462 81.2076ZM96.4278 81.0669C96.4029 81.0669 96.3817 81.0478 96.3796 81.0225C96.3697 80.8959 96.3585 80.7685 96.3464 80.6398C96.3439 80.6132 96.3634 80.59 96.39 80.5875C96.4182 80.5846 96.4398 80.6045 96.4423 80.6311C96.4544 80.7597 96.4652 80.888 96.4755 81.0146C96.4776 81.0412 96.4581 81.0644 96.4315 81.0665C96.4307 81.0669 96.429 81.0669 96.4278 81.0669ZM75.6424 79.942C75.6191 79.942 75.5988 79.925 75.595 79.9017L75.5261 79.473L75.7241 79.4476C75.754 79.4447 75.7744 79.463 75.7781 79.4891C75.7814 79.5157 75.7627 79.5394 75.7366 79.5431L75.637 79.556L75.6901 79.8864C75.6942 79.9125 75.6764 79.937 75.6502 79.9416C75.6478 79.942 75.6448 79.942 75.6424 79.942ZM96.2979 79.7917C96.2738 79.7917 96.253 79.7739 96.2501 79.7498C96.2344 79.6232 96.2173 79.4966 96.1999 79.3692C96.1962 79.343 96.2144 79.3185 96.241 79.3152C96.2659 79.3094 96.2916 79.3297 96.295 79.3563C96.3128 79.4842 96.3294 79.6116 96.3452 79.7382C96.3485 79.7648 96.3298 79.7884 96.3037 79.7917C96.3016 79.7917 96.2995 79.7917 96.2979 79.7917ZM76.6203 79.4298C76.5962 79.4298 76.5759 79.4119 76.5726 79.3879C76.5693 79.3613 76.5879 79.3376 76.6141 79.3339L76.9956 79.2849C77.025 79.2808 77.0458 79.3003 77.0495 79.3264C77.0528 79.353 77.0342 79.3767 77.008 79.3804L76.6265 79.4294C76.624 79.4294 76.622 79.4298 76.6203 79.4298ZM77.8913 79.2671C77.8673 79.2671 77.8469 79.2492 77.8436 79.2251C77.8403 79.1986 77.859 79.1749 77.8851 79.1712L78.2666 79.1222C78.2956 79.1181 78.3172 79.1376 78.3205 79.1637C78.3239 79.1903 78.3052 79.2139 78.279 79.2177L77.8976 79.2667C77.8955 79.2671 77.8934 79.2671 77.8913 79.2671ZM79.1628 79.1043C79.1387 79.1043 79.1184 79.0865 79.115 79.0624C79.1117 79.0359 79.1304 79.0122 79.1565 79.0085L79.538 78.9595C79.5671 78.9557 79.5887 78.9753 79.592 79.001C79.5953 79.0276 79.5766 79.0512 79.5505 79.055L79.169 79.1039C79.1665 79.1039 79.1648 79.1043 79.1628 79.1043ZM80.4342 78.9416C80.4101 78.9416 80.3898 78.9238 80.3865 78.8997C80.3831 78.8731 80.4018 78.8495 80.428 78.8457L80.8094 78.7968C80.8402 78.7934 80.8597 78.8121 80.8634 78.8383C80.8667 78.8648 80.8481 78.8885 80.8219 78.8922L80.4404 78.9412C80.4379 78.9416 80.4359 78.9416 80.4342 78.9416ZM81.7052 78.7789C81.6811 78.7789 81.6608 78.7611 81.6575 78.737C81.6542 78.7104 81.6728 78.6868 81.699 78.683L82.0805 78.6341C82.1108 78.6311 82.1307 78.6494 82.1344 78.6756C82.1378 78.7021 82.1191 78.7258 82.0929 78.7295L81.7114 78.7785C81.7094 78.7789 81.7073 78.7789 81.7052 78.7789ZM82.9767 78.6162C82.9526 78.6162 82.9322 78.5983 82.9289 78.5743C82.9256 78.5477 82.9443 78.5241 82.9704 78.5203L83.3519 78.4713C83.3818 78.4688 83.4021 78.4867 83.4059 78.5128C83.4092 78.5394 83.3905 78.5631 83.3644 78.5668L82.9829 78.6158C82.9808 78.6162 82.9787 78.6162 82.9767 78.6162ZM96.1077 78.524C96.0849 78.524 96.0646 78.5074 96.0604 78.4842C96.038 78.3584 96.0148 78.2326 95.9903 78.1069C95.9853 78.0807 96.0023 78.0558 96.0285 78.0504C96.0542 78.0446 96.0795 78.0625 96.0849 78.0886C96.1098 78.2148 96.1331 78.341 96.1555 78.4676C96.1601 78.4937 96.1426 78.5186 96.1165 78.5232C96.1131 78.524 96.1102 78.524 96.1077 78.524ZM84.2481 78.4535C84.224 78.4535 84.2037 78.4356 84.2004 78.4116C84.197 78.385 84.2157 78.3613 84.2419 78.3576L84.6233 78.3086C84.6532 78.3045 84.6736 78.324 84.6773 78.3501C84.6806 78.3767 84.6619 78.4004 84.6358 78.4041L84.2543 78.4531C84.2518 78.4535 84.2498 78.4535 84.2481 78.4535ZM85.5195 78.2908C85.4954 78.2908 85.4751 78.2729 85.4718 78.2488C85.4685 78.2223 85.4871 78.1986 85.5133 78.1949L85.8948 78.1459C85.9242 78.1422 85.945 78.1613 85.9487 78.1874C85.9521 78.214 85.9334 78.2376 85.9072 78.2414L85.5258 78.2904C85.5233 78.2908 85.5212 78.2908 85.5195 78.2908ZM86.7905 78.128C86.7665 78.128 86.7461 78.1102 86.7428 78.0861C86.7395 78.0596 86.7582 78.0359 86.7843 78.0322L87.1658 77.9832C87.1953 77.9799 87.2164 77.9985 87.2198 78.0247C87.2231 78.0513 87.2044 78.0749 87.1782 78.0786L86.7968 78.1276C86.7947 78.128 86.7926 78.128 86.7905 78.128ZM88.062 77.9653C88.0379 77.9653 88.0176 77.9475 88.0142 77.9234C88.0109 77.8968 88.0296 77.8732 88.0557 77.8694L88.4372 77.8205C88.4663 77.8171 88.4879 77.8358 88.4912 77.862C88.4945 77.8885 88.4758 77.9122 88.4497 77.9159L88.0682 77.9649C88.0661 77.9653 88.064 77.9653 88.062 77.9653ZM89.3334 77.8026C89.3093 77.8026 89.289 77.7848 89.2857 77.7607C89.2824 77.7341 89.301 77.7105 89.3272 77.7067L89.7087 77.6577C89.7377 77.6548 89.7593 77.6731 89.7626 77.6993C89.7659 77.7258 89.7473 77.7495 89.7211 77.7532L89.3396 77.8022C89.3371 77.8026 89.3351 77.8026 89.3334 77.8026ZM90.6044 77.6403C90.5803 77.6403 90.56 77.6225 90.5567 77.5984C90.5534 77.5718 90.5721 77.5482 90.5982 77.5444L90.9797 77.4954C91.0104 77.4913 91.0299 77.5108 91.0336 77.5369C91.037 77.5635 91.0183 77.5872 90.9921 77.5909L90.6107 77.6399C90.6086 77.6399 90.6065 77.6403 90.6044 77.6403ZM91.8759 77.4776C91.8518 77.4776 91.8315 77.4597 91.8281 77.4357C91.8248 77.4091 91.8435 77.3854 91.8696 77.3817L92.2511 77.3327C92.2814 77.329 92.3013 77.3481 92.3051 77.3742C92.3084 77.4008 92.2897 77.4245 92.2636 77.4282L91.8821 77.4772C91.88 77.4772 91.8779 77.4776 91.8759 77.4776ZM93.1473 77.3149C93.1232 77.3149 93.1029 77.297 93.0996 77.273C93.0962 77.2464 93.1149 77.2227 93.1411 77.219L93.5225 77.17C93.5528 77.1663 93.5728 77.1858 93.5765 77.2115C93.5798 77.2381 93.5611 77.2617 93.535 77.2655L93.1535 77.3145C93.151 77.3145 93.149 77.3149 93.1473 77.3149ZM95.8467 77.2692C95.8251 77.2692 95.8051 77.2543 95.7998 77.2323C95.7798 77.1493 95.7591 77.0662 95.7379 76.9832L95.696 76.9886C95.6686 76.9928 95.6458 76.9733 95.642 76.9471C95.6387 76.9205 95.6574 76.8969 95.6835 76.8931L95.8097 76.877L95.8201 76.918C95.8454 77.0148 95.8695 77.1119 95.8931 77.2094C95.8994 77.2352 95.8836 77.2613 95.8579 77.2676C95.8541 77.2688 95.8504 77.2692 95.8467 77.2692ZM94.4187 77.1522C94.3947 77.1522 94.3743 77.1343 94.371 77.1102C94.3677 77.0837 94.3864 77.06 94.4125 77.0563L94.794 77.0073C94.8239 77.004 94.8442 77.0226 94.8479 77.0488C94.8513 77.0754 94.8326 77.099 94.8064 77.1028L94.425 77.1517C94.4225 77.1517 94.4204 77.1522 94.4187 77.1522Z" fill="white"/>
<path d="M79.3479 73.8419L79.3292 73.2928C79.3699 73.1558 79.477 73.0491 79.6144 73.0088C80.1287 72.8582 81.4113 72.5448 82.0979 72.9329L82.2722 73.5514L79.3479 73.8419Z" fill="#74A1BB"/>
<path d="M80.9206 73.1104C80.8036 73.1552 80.6824 73.1705 80.5574 73.1564C80.4059 73.139 80.286 73.0211 80.2665 72.8709L80.049 71.1719L80.9136 71.061L81.1307 72.7584C81.1502 72.9099 81.0634 73.0556 80.9206 73.1104Z" fill="#74A1BB"/>
<path d="M87.7216 72.7707L87.7029 72.2215C87.7436 72.0845 87.8507 71.9778 87.9881 71.9376C88.5024 71.7869 89.785 71.4735 90.4716 71.8616L90.6459 72.4801L87.7216 72.7707Z" fill="#74A1BB"/>
<path d="M89.2939 72.0388C89.1769 72.0836 89.0557 72.099 88.9307 72.0849C88.7792 72.0674 88.6593 71.9495 88.6398 71.7993L88.3994 69.9214L89.2641 69.8105L89.504 71.6872C89.5235 71.8383 89.4367 71.984 89.2939 72.0388Z" fill="#74A1BB"/>
<path d="M80.0145 71.5992L89.2724 70.1016C89.4832 70.0675 89.6439 69.8915 89.6534 69.679C89.6671 69.3814 89.6563 68.9401 89.5314 68.4968C89.3894 67.9929 88.8988 67.6679 88.3758 67.7222C86.6361 67.9028 82.2207 68.469 79.9103 69.7433C79.6658 69.8782 79.5031 70.1223 79.4724 70.3988C79.4429 70.6623 79.4454 71.0089 79.5708 71.3456C79.638 71.5245 79.8252 71.6299 80.0145 71.5992Z" fill="#74A1BB"/>
<path opacity="0.58" d="M79.7862 71.224C79.7281 71.224 79.6754 71.1842 79.6612 71.1248C79.6579 71.1095 79.5757 70.7492 79.626 70.3855C79.6662 70.0912 79.8617 69.8339 80.1365 69.7139C80.6388 69.4939 81.6031 69.1058 82.4187 68.9784C82.4889 68.9684 82.5544 69.0153 82.5652 69.0851C82.576 69.1552 82.5283 69.2208 82.4586 69.2316C81.6421 69.3594 80.6346 69.7758 80.2395 69.9489C80.046 70.0336 79.9086 70.2141 79.8804 70.4208C79.8364 70.7384 79.9107 71.0642 79.9115 71.0671C79.9277 71.136 79.8846 71.205 79.8157 71.2211C79.8057 71.2228 79.7961 71.224 79.7862 71.224Z" fill="white"/>
<path d="M75.0072 74.1825C78.0058 73.76 90.9821 71.9605 94.8147 71.9331C95.1447 71.9306 95.4402 72.1345 95.5515 72.4437C95.9035 73.4233 96.6519 75.7084 96.896 78.0367C96.9292 78.3534 96.7316 78.6498 96.4273 78.7486L88.0204 81.4811L84.9599 81.873L75.5464 81.2229C75.2148 81.2001 74.9412 80.9565 74.8823 80.6306C74.6731 79.47 74.2293 76.7412 74.3194 74.9368C74.3381 74.5532 74.6253 74.2365 75.0072 74.1825Z" fill="#74FCFD"/>
<path d="M84.9375 81.1693C84.9363 81.1693 84.9354 81.1693 84.9342 81.1693L84.5506 81.1427C84.5241 81.1407 84.5041 81.1178 84.5058 81.0917C84.5079 81.0651 84.5311 81.0493 84.5569 81.0468L84.9404 81.0734C84.967 81.0755 84.9869 81.0983 84.9852 81.1245C84.984 81.1498 84.9628 81.1693 84.9375 81.1693ZM85.2878 81.1245C85.2638 81.1245 85.2434 81.1066 85.2401 81.0825C85.2368 81.056 85.2555 81.0323 85.2816 81.0286L85.6631 80.9796C85.6934 80.9755 85.7133 80.995 85.7171 81.0211C85.7204 81.0477 85.7017 81.0713 85.6755 81.0751L85.2941 81.1241C85.292 81.1245 85.2899 81.1245 85.2878 81.1245ZM83.659 81.0809C83.6578 81.0809 83.6569 81.0809 83.6557 81.0809L83.2721 81.0543C83.2456 81.0522 83.2257 81.0294 83.2273 81.0033C83.2294 80.9767 83.2522 80.9605 83.2784 80.9584L83.6619 80.985C83.6885 80.9871 83.7084 81.0099 83.7068 81.0361C83.7051 81.0618 83.6843 81.0809 83.659 81.0809ZM82.3805 80.9925C82.3793 80.9925 82.3784 80.9925 82.3772 80.9925L81.9937 80.9659C81.9671 80.9642 81.9472 80.941 81.9488 80.9148C81.9505 80.8883 81.9766 80.8721 81.9999 80.87L82.3834 80.8966C82.41 80.8982 82.4299 80.9215 82.4283 80.9476C82.4266 80.9734 82.4054 80.9925 82.3805 80.9925ZM86.5593 80.9617C86.5352 80.9617 86.5149 80.9439 86.5115 80.9198C86.5082 80.8933 86.5269 80.8696 86.5531 80.8659L86.9345 80.8169C86.9644 80.8131 86.9848 80.8322 86.9885 80.8584C86.9918 80.885 86.9731 80.9086 86.947 80.9124L86.5655 80.9613C86.5634 80.9617 86.5614 80.9617 86.5593 80.9617ZM81.1016 80.9045C81.1004 80.9045 81.0996 80.9045 81.0983 80.9045L80.7147 80.8779C80.6882 80.8758 80.6683 80.853 80.6699 80.8268C80.672 80.8003 80.6969 80.7837 80.721 80.782L81.1045 80.8086C81.1311 80.8107 81.151 80.8335 81.1494 80.8596C81.1481 80.885 81.1269 80.9045 81.1016 80.9045ZM79.8231 80.8161C79.8219 80.8161 79.8211 80.8161 79.8198 80.8161L79.4363 80.7895C79.4097 80.7874 79.3898 80.7646 79.3914 80.7384C79.3935 80.7119 79.418 80.6953 79.4425 80.6936L79.826 80.7202C79.8526 80.7222 79.8725 80.7451 79.8709 80.7712C79.8692 80.7965 79.8484 80.8161 79.8231 80.8161ZM87.8307 80.799C87.8066 80.799 87.7863 80.7812 87.783 80.7571C87.7797 80.731 87.7983 80.7069 87.8245 80.7036L87.8494 80.7002L88.1823 80.5911C88.2076 80.5832 88.2346 80.5969 88.2429 80.6218C88.2512 80.6471 88.2371 80.6741 88.2122 80.6824L87.8365 80.7986C87.8349 80.799 87.8328 80.799 87.8307 80.799ZM78.5446 80.7276C78.5434 80.7276 78.5426 80.7276 78.5413 80.7276L78.1578 80.7011C78.1312 80.699 78.1113 80.6762 78.1129 80.65C78.115 80.6234 78.1391 80.6064 78.164 80.6052L78.5475 80.6318C78.5741 80.6338 78.594 80.6567 78.5924 80.6828C78.5907 80.7085 78.5696 80.7276 78.5446 80.7276ZM77.2657 80.6392C77.2645 80.6392 77.2637 80.6392 77.2624 80.6392L76.8789 80.6127C76.8523 80.611 76.8324 80.5878 76.834 80.5616C76.8361 80.535 76.8598 80.5176 76.8851 80.5168L77.2686 80.5433C77.2952 80.545 77.3151 80.5682 77.3135 80.5944C77.3118 80.6201 77.2911 80.6392 77.2657 80.6392ZM75.9872 80.5512C75.986 80.5512 75.9852 80.5512 75.9839 80.5512L75.5746 80.523L75.568 80.4865C75.563 80.4603 75.5792 80.4296 75.6054 80.425C75.6195 80.4217 75.6332 80.4246 75.6435 80.4317L75.9906 80.4558C76.0171 80.4574 76.0371 80.4807 76.0354 80.5068C76.0333 80.5317 76.0121 80.5512 75.9872 80.5512ZM89.0507 80.4072C89.0303 80.4072 89.0117 80.3943 89.005 80.374C88.9967 80.3487 89.0108 80.3217 89.0357 80.3134L89.4014 80.1947C89.4263 80.1872 89.4537 80.2005 89.462 80.2254C89.4703 80.2507 89.4562 80.2777 89.4313 80.286L89.0656 80.4047C89.0606 80.4064 89.0557 80.4072 89.0507 80.4072ZM90.2698 80.0112C90.2495 80.0112 90.2308 79.9983 90.2241 79.978C90.2158 79.9527 90.23 79.9257 90.2549 79.9174L90.6206 79.7987C90.6463 79.7912 90.6729 79.8045 90.6812 79.8294C90.6895 79.8547 90.6754 79.8817 90.6505 79.89L90.2847 80.0087C90.2798 80.0104 90.2744 80.0112 90.2698 80.0112ZM75.463 79.6289C75.4397 79.6289 75.4194 79.6123 75.4157 79.5882C75.3961 79.4666 75.3762 79.3396 75.3563 79.2076C75.3522 79.1814 75.3704 79.1569 75.3966 79.1528C75.424 79.1503 75.4472 79.1669 75.4514 79.193C75.4713 79.3246 75.4908 79.4516 75.5103 79.5733C75.5145 79.5994 75.4966 79.6239 75.4705 79.6281C75.468 79.6285 75.4651 79.6289 75.463 79.6289ZM91.4885 79.6152C91.4682 79.6152 91.4495 79.6023 91.4429 79.582C91.4346 79.5567 91.4487 79.5297 91.4736 79.5214L91.8393 79.4027C91.8646 79.3948 91.8916 79.4081 91.8999 79.4334C91.9082 79.4587 91.8941 79.4857 91.8692 79.494L91.5035 79.6127C91.4985 79.6144 91.4935 79.6152 91.4885 79.6152ZM92.7072 79.2188C92.6869 79.2188 92.6682 79.2059 92.6616 79.1856C92.6533 79.1602 92.6674 79.1333 92.6923 79.125L93.058 79.0062C93.0833 78.9984 93.1103 79.0121 93.1186 79.037C93.1269 79.0623 93.1132 79.0893 93.0879 79.0976L92.7222 79.2163C92.7172 79.2179 92.7122 79.2188 92.7072 79.2188ZM93.9264 78.8228C93.906 78.8228 93.8874 78.8099 93.8807 78.7896C93.8724 78.7642 93.8865 78.7373 93.9114 78.729L94.2771 78.6102C94.3025 78.6015 94.3294 78.6161 94.3377 78.641C94.346 78.6663 94.3319 78.6933 94.307 78.7016L93.9413 78.8203C93.9363 78.8219 93.9314 78.8228 93.9264 78.8228ZM95.1451 78.4268C95.1248 78.4268 95.1061 78.4139 95.0994 78.3936C95.0911 78.3682 95.1052 78.3413 95.1301 78.333L95.4958 78.2142C95.5208 78.2059 95.5481 78.2201 95.5564 78.245C95.5648 78.2703 95.5511 78.2973 95.5257 78.3056L95.16 78.4243C95.1555 78.4259 95.1501 78.4268 95.1451 78.4268ZM75.2778 78.3595C75.2542 78.3595 75.2334 78.3421 75.2301 78.3176C75.2135 78.1918 75.1977 78.064 75.1824 77.9353C75.1791 77.9087 75.1982 77.8851 75.2243 77.8818C75.2509 77.8788 75.2745 77.8975 75.2778 77.9237C75.2932 78.0519 75.3094 78.1794 75.3256 78.3047C75.3289 78.3313 75.3102 78.3554 75.2841 78.3587C75.282 78.3595 75.2799 78.3595 75.2778 78.3595ZM96.1185 77.8726C96.0944 77.8726 96.0737 77.8548 96.0708 77.8303C96.055 77.7033 96.038 77.5767 96.0197 77.4501C96.016 77.4235 96.0342 77.3994 96.0604 77.3957C96.0869 77.3903 96.111 77.4102 96.1147 77.4364C96.133 77.5634 96.1505 77.6908 96.1662 77.8187C96.1695 77.8452 96.1509 77.8689 96.1243 77.8722C96.1222 77.8726 96.1201 77.8726 96.1185 77.8726ZM75.1363 77.0848C75.1118 77.0848 75.0906 77.0661 75.0886 77.0408C75.0769 76.9125 75.0666 76.7842 75.057 76.6568C75.0549 76.6302 75.0749 76.6074 75.1014 76.6053C75.1313 76.6078 75.1508 76.6232 75.1529 76.6498C75.1624 76.7768 75.1728 76.9046 75.1844 77.0325C75.1869 77.059 75.1674 77.0823 75.1409 77.0844C75.1392 77.0848 75.1375 77.0848 75.1363 77.0848ZM95.9168 76.607C95.8943 76.607 95.874 76.5908 95.8694 76.568C95.8445 76.4414 95.8192 76.316 95.793 76.1919C95.7877 76.1658 95.8043 76.1404 95.83 76.135C95.857 76.1296 95.8815 76.1462 95.8869 76.172C95.9134 76.2965 95.9388 76.4227 95.9632 76.5497C95.9682 76.5759 95.9512 76.6008 95.9251 76.6062C95.9226 76.6066 95.9197 76.607 95.9168 76.607ZM75.0591 75.805C75.0329 75.805 75.0118 75.7843 75.0109 75.7581C75.0085 75.6539 75.0072 75.5518 75.0072 75.4514L75.0076 75.3721C75.0076 75.3455 75.0292 75.3244 75.0558 75.3244C75.0558 75.3244 75.0558 75.3244 75.0562 75.3244C75.0828 75.3244 75.1043 75.3464 75.1039 75.3729L75.1035 75.4514C75.1035 75.551 75.1048 75.6527 75.1072 75.7561C75.1077 75.7826 75.0869 75.8046 75.0603 75.8054C75.0599 75.805 75.0595 75.805 75.0591 75.805ZM95.6382 75.3555C95.6166 75.3555 95.5971 75.341 95.5917 75.319C95.5602 75.1928 95.5282 75.0687 95.4958 74.947C95.4892 74.9213 95.5042 74.8952 95.5299 74.8881C95.5556 74.8819 95.5818 74.8964 95.5888 74.9221C95.6212 75.0437 95.6532 75.1687 95.6847 75.2953C95.6909 75.321 95.6756 75.3472 95.6498 75.3534C95.6461 75.3551 95.642 75.3555 95.6382 75.3555ZM75.5335 74.9126C75.5099 74.9126 75.4891 74.8951 75.4858 74.8711C75.4821 74.8445 75.5003 74.8204 75.5265 74.8167L75.9075 74.7636C75.9329 74.7586 75.9582 74.7781 75.9615 74.8047C75.9652 74.8308 75.947 74.8553 75.9204 74.8586L75.5394 74.9117C75.5377 74.9126 75.5356 74.9126 75.5335 74.9126ZM76.8033 74.7362C76.7797 74.7362 76.7589 74.7187 76.7556 74.6947C76.7518 74.6685 76.7705 74.644 76.7967 74.6407L77.1777 74.5884C77.2031 74.583 77.228 74.6029 77.2317 74.6295C77.2354 74.6556 77.2168 74.6801 77.1906 74.6834L76.8095 74.7357C76.8079 74.7362 76.8058 74.7362 76.8033 74.7362ZM78.0739 74.5622C78.0503 74.5622 78.0295 74.5448 78.0262 74.5207C78.0225 74.4946 78.0411 74.4705 78.0673 74.4668L78.4488 74.4153C78.4757 74.4124 78.4994 74.4302 78.5027 74.4564C78.5065 74.4825 78.4878 74.507 78.4616 74.5104L78.0806 74.5618C78.0785 74.5618 78.076 74.5622 78.0739 74.5622ZM79.3445 74.3908C79.3209 74.3908 79.3001 74.3734 79.2968 74.3493C79.2935 74.3227 79.3117 74.2987 79.3379 74.2953L79.7194 74.2443C79.7467 74.2397 79.7696 74.2592 79.7733 74.2854C79.7766 74.3119 79.7584 74.336 79.7322 74.3393L79.3508 74.3904C79.3487 74.3908 79.3466 74.3908 79.3445 74.3908ZM80.6155 74.2219C80.5919 74.2219 80.5711 74.2044 80.5678 74.1799C80.5645 74.1538 80.5828 74.1297 80.6093 74.126L80.9908 74.0758C81.0174 74.0724 81.0414 74.0911 81.0448 74.1173C81.0481 74.1438 81.0294 74.1675 81.0032 74.1712L80.6218 74.2215C80.6197 74.2219 80.6176 74.2219 80.6155 74.2219ZM95.2983 74.1189C95.2775 74.1189 95.2584 74.1052 95.2522 74.0845C95.214 73.9566 95.1762 73.8342 95.1393 73.7175C95.1314 73.6922 95.1451 73.6652 95.1704 73.6573C95.1966 73.6486 95.2227 73.6636 95.2306 73.6885C95.2675 73.8055 95.3053 73.9284 95.3439 74.0571C95.3514 74.0824 95.3373 74.1094 95.3115 74.1168C95.3074 74.1181 95.3028 74.1189 95.2983 74.1189ZM81.887 74.0554C81.8629 74.0554 81.8426 74.038 81.8392 74.0135C81.8359 73.9873 81.8546 73.9633 81.8808 73.9595L82.2622 73.9101C82.288 73.9068 82.3124 73.9255 82.3162 73.9516C82.3195 73.9782 82.3008 74.0019 82.2747 74.0056L81.8932 74.055C81.8911 74.0554 81.8891 74.0554 81.887 74.0554ZM83.1584 73.8927C83.1343 73.8927 83.114 73.8749 83.1107 73.8508C83.1074 73.8246 83.126 73.8005 83.1522 73.7972L83.5337 73.7491C83.5606 73.7449 83.5843 73.7644 83.5872 73.7906C83.5905 73.8171 83.5719 73.8408 83.5457 73.8441L83.1642 73.8923C83.1626 73.8923 83.1605 73.8927 83.1584 73.8927ZM84.4303 73.7329C84.4062 73.7329 84.3854 73.715 84.3825 73.6905C84.3792 73.664 84.3979 73.6403 84.4245 73.637L84.8059 73.5897C84.8341 73.5855 84.8561 73.6055 84.8595 73.6316C84.8628 73.6582 84.8441 73.6818 84.8175 73.6851L84.4361 73.7325C84.434 73.7325 84.4319 73.7329 84.4303 73.7329ZM85.7021 73.5768C85.678 73.5768 85.6573 73.559 85.6544 73.5345C85.6511 73.5083 85.6701 73.4842 85.6963 73.4809L86.0778 73.4349C86.106 73.4307 86.128 73.4506 86.1313 73.4768C86.1346 73.5033 86.1156 73.527 86.0894 73.5303L85.7075 73.5764C85.7063 73.5768 85.7042 73.5768 85.7021 73.5768ZM86.9752 73.4253C86.9511 73.4253 86.9304 73.4075 86.9275 73.383C86.9242 73.3564 86.9432 73.3327 86.9694 73.3298L87.3513 73.2854C87.3787 73.2813 87.4015 73.3012 87.4044 73.3273C87.4077 73.3539 87.3886 73.3776 87.3625 73.3805L86.9806 73.4249C86.9789 73.4253 86.9769 73.4253 86.9752 73.4253ZM88.2487 73.2796C88.2246 73.2796 88.2039 73.2613 88.201 73.2368C88.1981 73.2103 88.2172 73.1866 88.2433 73.1837L88.6256 73.1414C88.6547 73.1401 88.6758 73.158 88.6788 73.1841C88.6817 73.2107 88.6626 73.2339 88.636 73.2373L88.2541 73.2796C88.252 73.2796 88.2504 73.2796 88.2487 73.2796ZM89.5226 73.1405C89.4982 73.1405 89.4774 73.1223 89.4749 73.0974C89.472 73.0708 89.4915 73.0476 89.5177 73.0447L89.9 73.0044C89.9286 73.0036 89.9502 73.021 89.9527 73.0471C89.9556 73.0737 89.9361 73.0974 89.9099 73.0999L89.5276 73.1401C89.526 73.1401 89.5243 73.1405 89.5226 73.1405ZM90.7978 73.0102C90.7733 73.0102 90.7526 72.9915 90.7501 72.9666C90.7476 72.9401 90.7667 72.9168 90.7932 72.9143L91.176 72.8774C91.2029 72.8736 91.2258 72.8944 91.2283 72.9205C91.2307 72.9471 91.2112 72.9704 91.1851 72.9728L90.8024 73.0098C90.8011 73.0102 90.7995 73.0102 90.7978 73.0102ZM94.9023 72.8994C94.8823 72.8994 94.8637 72.8869 94.857 72.8674L94.808 72.7296C94.752 72.73 94.6939 72.7308 94.6333 72.7321C94.6329 72.7321 94.6324 72.7321 94.6324 72.7321C94.6063 72.7321 94.5847 72.7113 94.5843 72.6848C94.5839 72.6582 94.6046 72.6362 94.6316 72.6358C94.6972 72.6345 94.7599 72.6333 94.8205 72.6333C94.8537 72.6333 94.8827 72.6524 94.8927 72.6806L94.9479 72.8354C94.9566 72.8604 94.9434 72.8877 94.9185 72.8969C94.9131 72.8981 94.9077 72.8994 94.9023 72.8994ZM92.0742 72.8919C92.0493 72.8919 92.0286 72.8732 92.0265 72.8479C92.024 72.8213 92.0435 72.7981 92.0701 72.796C92.2012 72.7848 92.3291 72.774 92.4536 72.7636C92.4802 72.762 92.503 72.7811 92.5055 72.8076C92.5076 72.8342 92.4881 72.8574 92.4615 72.8595C92.3374 72.8695 92.2095 72.8803 92.0788 72.8915C92.0771 72.8919 92.0755 72.8919 92.0742 72.8919ZM93.3523 72.7931C93.327 72.7931 93.3058 72.7736 93.3041 72.7483C93.3025 72.7217 93.3224 72.6989 93.349 72.6972C93.4822 72.6885 93.6105 72.6802 93.7334 72.6736C93.762 72.6694 93.7828 72.6922 93.784 72.7188C93.7857 72.7454 93.7653 72.7682 93.7387 72.7695C93.6163 72.7765 93.4884 72.7844 93.3552 72.7931C93.3544 72.7931 93.3531 72.7931 93.3523 72.7931Z" fill="white"/>
<path d="M87.8964 82.8032L85.2153 83.1465C84.8641 83.1913 84.5345 82.968 84.4486 82.6259L83.8085 80.0856C83.7064 79.6808 83.9829 79.2782 84.3988 79.2246L87.6199 78.8125C88.0271 78.7601 88.3916 79.0673 88.4073 79.4758L88.5074 82.0851C88.5211 82.4454 88.2558 82.7571 87.8964 82.8032Z" fill="#74A1BB"/>
<path d="M87.5057 82.3703L85.4651 82.6314C85.1978 82.6654 84.9471 82.4957 84.8815 82.2354L84.3946 80.3019C84.317 79.9939 84.5274 79.6871 84.8437 79.6469L87.2953 79.333C87.6053 79.2932 87.8826 79.5269 87.8947 79.8378L87.971 81.824C87.981 82.0984 87.7797 82.3354 87.5057 82.3703Z" fill="#74FCFD"/>
<path d="M85.9113 61.8105C86.5439 64.4236 86.5605 66.9801 86.4642 67.9112C86.4281 68.2619 86.1458 68.5363 85.7938 68.5608C85.3941 68.5886 84.8499 68.6256 84.3638 68.6534C83.8292 68.6841 83.236 68.3462 82.8392 68.0639C82.6366 67.9199 82.3747 68.144 82.4876 68.3657C82.6823 68.7472 83.021 69.0473 83.3568 69.3026C83.5589 69.4562 84.2305 69.7289 84.1836 70.0315C84.1687 70.127 84.1114 70.21 84.0496 70.2843C83.6764 70.7322 83.1115 70.9712 82.554 71.1427C82.4842 71.1643 82.4104 71.1871 82.361 71.2411C82.3473 71.6018 83.456 72.0019 83.742 72.097C84.1708 72.2394 84.6253 72.2996 85.0757 72.2522C86.1915 72.1348 87.2217 71.3648 87.8228 70.4362C89.4292 67.9539 90.2598 64.9561 90.5632 62.6636C89.0697 61.1692 86.8137 61.5478 85.9113 61.8105Z" fill="url(#paint6_linear_131_1524)"/>
<path d="M90.5645 62.8995C91.7562 53.8961 84.8179 46.9731 84.8179 46.9731L80.6898 51.7858C83.8238 55.6922 85.314 59.272 85.9943 62.0834C86.8967 61.8207 89.0697 61.4051 90.5645 62.8995Z" fill="black"/>
<path d="M85.896 62.0395C85.7806 62.0395 85.676 61.9611 85.6478 61.844C84.8089 58.378 83.0406 54.9468 80.3927 51.646C80.3043 51.536 80.3217 51.3749 80.4321 51.2865C80.5421 51.1985 80.7032 51.216 80.7916 51.326C83.4872 54.6861 85.2883 58.1846 86.145 61.7237C86.1782 61.8611 86.094 61.9989 85.9566 62.0321C85.9358 62.0371 85.9159 62.0395 85.896 62.0395Z" fill="url(#paint7_linear_131_1524)"/>
<path d="M29.9874 115.413C29.9882 115.369 29.9853 115.325 29.9737 115.28C29.3099 112.648 26.0145 111.008 26.0145 111.008L24.7086 111.111C23.9577 113.431 24.0544 114.854 24.1748 115.487C24.1781 115.505 24.1835 115.522 24.1881 115.539C25.2661 115.635 27.4831 115.698 29.9874 115.413Z" fill="black"/>
<path d="M24.189 115.54C24.2471 115.752 24.4032 115.916 24.6032 115.958C26.1353 116.28 28.5707 116.021 29.5935 115.888C29.8189 115.858 29.9841 115.649 29.9878 115.414C27.4832 115.699 25.2661 115.636 24.189 115.54Z" fill="#74A1BB"/>
<path d="M24.184 109.166L24.7369 111.828C24.7775 112.024 24.9274 112.17 25.1088 112.187C25.3309 112.207 25.6476 112.22 25.9655 112.173C26.2507 112.131 26.4495 111.841 26.3989 111.53L26.0145 109.166H24.184Z" fill="url(#paint8_linear_131_1524)"/>
<path d="M35.6426 115.505C34.2006 115.465 33.4546 115.295 33.069 115.138C33.0682 115.281 33.069 115.427 33.0736 115.578C33.0786 115.74 33.1981 115.869 33.3455 115.868L41.2638 115.817C41.5166 115.815 41.664 115.522 41.5548 115.29C40.5162 115.376 37.8721 115.568 35.6426 115.505Z" fill="#74A1BB"/>
<path d="M41.5544 115.291C41.5449 115.27 41.5366 115.25 41.5229 115.231C40.8235 114.254 39.0427 112.308 35.5231 111.464L33.8349 111.411C33.8349 111.411 33.0832 112.718 33.0691 115.138C33.4547 115.296 34.2006 115.466 35.6427 115.506C37.8721 115.568 40.5163 115.376 41.5544 115.291Z" fill="black"/>
<path d="M33.4468 108.931C33.4733 109.055 33.8249 110.949 33.9607 111.684C33.993 111.858 34.1288 111.986 34.2907 111.996C34.5796 112.012 35.0461 112.014 35.4471 111.905C35.6634 111.846 35.8087 111.625 35.7933 111.381L35.6044 108.384L33.4468 108.931Z" fill="url(#paint9_linear_131_1524)"/>
<path d="M32.1675 73.953C32.1675 73.953 34.4899 89.9121 36.1661 108.903C36.1972 109.257 35.9153 109.565 35.5679 109.638C35.0557 109.746 34.3031 109.874 33.6801 109.856C33.3476 109.847 33.0695 109.6 33.0134 109.272C32.4427 105.924 28.3681 87.9529 27.2988 83.9978C27.2988 83.9978 26.0706 100.798 26.4632 109.515C26.4732 109.731 26.3142 109.919 26.0988 109.944C25.7717 109.982 25.2487 110.011 24.5833 109.94C24.3305 109.913 24.1267 109.722 24.0905 109.471C23.6838 106.637 21.343 89.7685 21.4427 77.617C21.4485 76.9317 22.2467 71.3018 22.2467 71.3018L32.1675 73.953Z" fill="black"/>
<path d="M21.8976 74.873C21.6589 74.7883 21.4925 74.5717 21.4663 74.3197C21.1575 71.3231 19.6619 52.7448 29.1028 45.102C29.1028 45.102 29.6441 43.6853 34.0943 47.1676C38.5445 50.6494 36.1619 54.2993 35.0964 59.3331C33.8071 65.4246 31.5448 70.4041 32.546 74.1528C32.6149 74.4114 32.4792 74.6833 32.2276 74.7759C28.7707 76.0498 25.3275 76.0917 21.8976 74.873Z" fill="#C6EEEF"/>
<path d="M32.7855 39.5352C32.7826 39.7996 29.0127 45.1539 29.0127 45.1539C29.0127 45.1539 29.6893 46.4863 32.9196 47.5685L35.7082 41.8352L32.7855 39.5352Z" fill="url(#paint10_linear_131_1524)"/>
<path d="M35.7534 36.4673C35.7534 36.4673 37.0945 39.5485 37.185 41.1662C37.2751 42.7834 37.6238 43.8327 35.7534 44.1586C33.8834 44.4844 32.3081 43.5525 31.4546 41.9415C31.4546 41.9415 30.1176 39.4593 30.4173 38.4427C30.7174 37.4257 35.7534 36.4673 35.7534 36.4673Z" fill="url(#paint11_linear_131_1524)"/>
<path d="M32.0935 40.7829L32.1998 40.736C32.3351 40.6762 32.3932 40.5147 32.3251 40.3836C32.0616 39.8742 31.5473 38.7066 32.2114 38.4343C33.0673 38.0831 36.4574 37.392 37.1888 36.189C37.892 35.033 37.2689 33.5403 36.3329 33.1161C36.2702 33.0879 36.1963 33.1103 36.1644 33.1709L36.0863 33.3187C36.0328 33.4195 35.8837 33.4046 35.8518 33.2946C35.8215 33.1891 35.6812 33.1688 35.6231 33.2618C35.3981 33.6217 34.7912 34.2053 33.1678 34.5046C30.8607 34.9305 29.3356 35.864 29.2974 37.458C29.295 37.5593 29.1874 37.6157 29.1007 37.563C28.9305 37.4592 28.6578 37.4107 28.2933 37.717C27.6599 38.2496 27.9189 39.6318 29.3078 40.7684C29.3738 40.8223 29.3734 40.9253 29.302 40.9717C29.0501 41.1357 28.6748 41.5255 29.6474 42.0456C30.6536 42.5836 31.4045 42.5391 31.6938 42.4914C31.7656 42.4794 31.8121 42.41 31.7963 42.3387L31.4875 40.9377C31.47 40.8584 31.5302 40.7833 31.6116 40.7833H32.0935V40.7829Z" fill="black"/>
<path d="M32.1517 41.0784C32.1517 41.0784 31.6399 39.1101 30.7574 39.6621C29.8749 40.2142 31.2152 41.8675 31.9246 41.9414L32.1517 41.0784Z" fill="url(#paint12_linear_131_1524)"/>
<path d="M35.526 48.7832L35.7859 55.7638C36.5243 56.0179 37.2271 56.2155 37.8962 56.3632C38.315 55.0154 39.2365 53.3613 39.9916 52.1314C37.2183 51.1509 35.526 48.7832 35.526 48.7832Z" fill="#D9E6FD"/>
<path d="M49.3724 48.6646C45.568 52.7719 42.4888 53.0139 39.9916 52.131C39.237 53.3609 38.3151 55.0151 37.8962 56.3629C48.0557 58.6027 50.4479 49.2631 50.4479 49.2631L49.3724 48.6646Z" fill="url(#paint13_linear_131_1524)"/>
<path d="M50.1436 48.2282C50.1436 48.2282 50.5819 47.7575 51.393 47.9057C52.2041 48.0535 52.9259 48.3353 53.4315 47.9057C53.9367 47.4761 54.1143 48.0526 54.1143 48.0526L52.6013 49.2028L50.1436 48.2282Z" fill="url(#paint14_linear_131_1524)"/>
<path d="M49.2386 49.0327C49.2386 49.0327 49.5388 47.7771 50.4437 47.9493C51.3486 48.1216 53.4029 49.2386 53.9321 49.0327C54.4614 48.8268 55.1384 48.3345 55.4858 48.5085L54.874 49.2689C54.874 49.2689 56.4468 48.3615 56.7174 48.919L54.1002 50.3918C54.1011 50.3922 50.2722 50.0086 49.2386 49.0327Z" fill="url(#paint15_linear_131_1524)"/>
<path d="M31.3029 57.9193C31.3029 57.9193 38.4553 63.9095 46.1786 61.2957C46.6576 61.1334 47.1815 61.1687 47.6285 61.4049L49.8489 62.5775C50.7807 63.0698 51.9351 62.7464 52.4756 61.8419C52.784 61.326 53.0472 60.7365 53.0995 60.172L48.7547 58.4133L49.0751 57.8807C49.0751 57.8807 46.954 57.701 46.3986 59.2215C46.3986 59.2215 42.3581 60.9022 35.5443 53.4072C35.5447 53.4068 32.4527 56.036 31.3029 57.9193Z" fill="url(#paint16_linear_131_1524)"/>
<path d="M30.918 57.8574C30.8944 57.8574 30.8707 57.8508 30.8495 57.8363C27.838 55.8015 26.4213 52.5172 26.4072 52.4845C26.381 52.4222 26.4101 52.3504 26.4719 52.3238C26.5342 52.2972 26.606 52.3263 26.6326 52.3886C26.6463 52.4209 28.0369 55.64 30.9865 57.6333C31.0426 57.6711 31.0575 57.747 31.0193 57.8035C30.9956 57.8383 30.957 57.8574 30.918 57.8574Z" fill="#74A1BB"/>
<path d="M35.4035 53.3054C35.3633 53.3054 35.3238 53.2855 35.3006 53.2494C35.2914 53.2353 34.3716 51.8032 32.6191 48.6655C32.0803 47.7008 31.3721 47.0898 30.5141 46.8495C29.0937 46.4526 27.7243 47.2143 27.711 47.2218C27.652 47.2542 27.5777 47.2347 27.5441 47.1757C27.5109 47.1168 27.5313 47.0425 27.5902 47.0089C27.6491 46.9752 29.0576 46.1874 30.578 46.6133C31.502 46.871 32.2608 47.5211 32.8328 48.546C34.5808 51.6758 35.4973 53.1029 35.5065 53.117C35.543 53.1738 35.5268 53.2494 35.4699 53.2859C35.4492 53.2992 35.4263 53.3054 35.4035 53.3054Z" fill="#74A1BB"/>
<defs>
<linearGradient id="paint0_linear_131_1524" x1="48.1529" y1="61.1102" x2="49.5047" y2="60.6416" gradientUnits="userSpaceOnUse">
<stop stop-color="#FEBBBA"/>
<stop offset="1" stop-color="#FF928E"/>
</linearGradient>
<linearGradient id="paint1_linear_131_1524" x1="76.8949" y1="48.6531" x2="74.8833" y2="42.6181" gradientUnits="userSpaceOnUse">
<stop stop-color="#FEBBBA"/>
<stop offset="1" stop-color="#FF928E"/>
</linearGradient>
<linearGradient id="paint2_linear_131_1524" x1="71.2258" y1="38.3364" x2="78.4561" y2="41.48" gradientUnits="userSpaceOnUse">
<stop stop-color="#FEBBBA"/>
<stop offset="1" stop-color="#FF928E"/>
</linearGradient>
<linearGradient id="paint3_linear_131_1524" x1="70.7752" y1="39.373" x2="78.0056" y2="42.5167" gradientUnits="userSpaceOnUse">
<stop stop-color="#FEBBBA"/>
<stop offset="1" stop-color="#FF928E"/>
</linearGradient>
<linearGradient id="paint4_linear_131_1524" x1="84.1265" y1="111.458" x2="81.5954" y2="111.458" gradientUnits="userSpaceOnUse">
<stop stop-color="#FEBBBA"/>
<stop offset="1" stop-color="#FF928E"/>
</linearGradient>
<linearGradient id="paint5_linear_131_1524" x1="100.218" y1="109.348" x2="97.1927" y2="109.348" gradientUnits="userSpaceOnUse">
<stop stop-color="#FEBBBA"/>
<stop offset="1" stop-color="#FF928E"/>
</linearGradient>
<linearGradient id="paint6_linear_131_1524" x1="88.324" y1="63.2716" x2="81.4743" y2="76.4442" gradientUnits="userSpaceOnUse">
<stop stop-color="#FEBBBA"/>
<stop offset="1" stop-color="#FF928E"/>
</linearGradient>
<linearGradient id="paint7_linear_131_1524" x1="83.9944" y1="53.679" x2="88.5655" y2="35.6742" gradientUnits="userSpaceOnUse">
<stop stop-color="#09005D"/>
<stop offset="1" stop-color="#1A0F91"/>
</linearGradient>
<linearGradient id="paint8_linear_131_1524" x1="25.7322" y1="106.603" x2="24.6062" y2="116.43" gradientUnits="userSpaceOnUse">
<stop stop-color="#FEBBBA"/>
<stop offset="1" stop-color="#FF928E"/>
</linearGradient>
<linearGradient id="paint9_linear_131_1524" x1="34.7506" y1="107.642" x2="34.2449" y2="117.52" gradientUnits="userSpaceOnUse">
<stop stop-color="#FEBBBA"/>
<stop offset="1" stop-color="#FF928E"/>
</linearGradient>
<linearGradient id="paint10_linear_131_1524" x1="27.8733" y1="46.5159" x2="35.7096" y2="41.8514" gradientUnits="userSpaceOnUse">
<stop stop-color="#FEBBBA"/>
<stop offset="1" stop-color="#FF928E"/>
</linearGradient>
<linearGradient id="paint11_linear_131_1524" x1="36.4216" y1="43.3718" x2="31.848" y2="36.6514" gradientUnits="userSpaceOnUse">
<stop stop-color="#FEBBBA"/>
<stop offset="1" stop-color="#FF928E"/>
</linearGradient>
<linearGradient id="paint12_linear_131_1524" x1="34.2026" y1="44.8818" x2="29.6314" y2="38.165" gradientUnits="userSpaceOnUse">
<stop stop-color="#FEBBBA"/>
<stop offset="1" stop-color="#FF928E"/>
</linearGradient>
<linearGradient id="paint13_linear_131_1524" x1="54.3948" y1="48.0782" x2="37.9439" y2="56.2615" gradientUnits="userSpaceOnUse">
<stop stop-color="#FEBBBA"/>
<stop offset="1" stop-color="#FF928E"/>
</linearGradient>
<linearGradient id="paint14_linear_131_1524" x1="54.1539" y1="46.0256" x2="48.5268" y2="51.9028" gradientUnits="userSpaceOnUse">
<stop stop-color="#FEBBBA"/>
<stop offset="1" stop-color="#FF928E"/>
</linearGradient>
<linearGradient id="paint15_linear_131_1524" x1="54.4729" y1="47.9812" x2="38.0221" y2="56.1645" gradientUnits="userSpaceOnUse">
<stop stop-color="#FEBBBA"/>
<stop offset="1" stop-color="#FF928E"/>
</linearGradient>
<linearGradient id="paint16_linear_131_1524" x1="61.3475" y1="61.8659" x2="13.6058" y2="53.2329" gradientUnits="userSpaceOnUse">
<stop stop-color="#FEBBBA"/>
<stop offset="1" stop-color="#FF928E"/>
</linearGradient>
</defs>
</svg>
