<svg width="115" height="111" viewBox="0 0 115 111" fill="none" xmlns="http://www.w3.org/2000/svg">
<path d="M0.0390981 29.1512C-0.137364 28.8052 0.318975 28.4342 0.698574 28.6127C4.55078 30.4274 14.1848 36.3295 15.6125 50.4313C17.4038 68.1247 23.0629 73.35 29.1336 75.8935C29.1336 75.8935 21.6417 75.8373 15.6482 70.5968C0.932899 57.7302 3.17766 35.3027 0.0390981 29.1512Z" fill="#C6EEEF"/>
<path opacity="0.5" d="M3.79617 33.8915C4.66617 35.6964 5.49349 37.518 6.24202 39.368C7.00163 41.2135 7.69516 43.0823 8.32017 44.9717C8.93655 46.8631 9.51149 48.7673 9.99163 50.6952C10.4816 52.6207 10.8756 54.5684 11.263 56.5255C11.6627 58.4789 12.053 60.4491 12.6767 62.3766C13.2976 64.3009 14.1955 66.1751 15.4685 67.8256C15.7866 68.2368 16.1145 68.6443 16.4682 69.0288C16.8133 69.4199 17.1794 69.7962 17.5532 70.1664C18.3059 70.903 19.1192 71.5937 19.9913 72.2248C21.7399 73.4826 23.7237 74.4922 25.8207 75.2436C26.0415 75.3228 26.3058 75.2251 26.4112 75.0253C26.5146 74.8291 26.4264 74.6079 26.2142 74.525L26.2126 74.5246C25.7095 74.3288 25.2101 74.1278 24.7238 73.9074C24.4783 73.8007 24.2395 73.6845 23.9982 73.5721C23.7626 73.4519 23.5209 73.3398 23.2903 73.2126C22.3571 72.7193 21.4691 72.1666 20.6364 71.5563C18.9658 70.3441 17.5101 68.8934 16.2905 67.3188C15.6909 66.5243 15.1624 65.6884 14.7118 64.8155C14.262 63.9418 13.8906 63.032 13.5791 62.0992C12.9566 60.2324 12.552 58.286 12.1359 56.3363C11.7169 54.387 11.2802 52.4311 10.7512 50.5003C10.4898 49.5339 10.2083 48.5732 9.90709 47.6186C9.75977 47.1401 9.60136 46.6653 9.44419 46.1901C9.28168 45.7165 9.1163 45.2438 8.94599 44.7727C8.26189 42.8895 7.51131 41.0296 6.69302 39.1973C5.86447 37.3691 4.97929 35.5638 4.01367 33.7967C3.98618 33.7463 3.91559 33.7278 3.85609 33.7557C3.79822 33.7807 3.77237 33.8419 3.79617 33.8915Z" fill="white"/>
<path d="M17.62 58.5417C17.3291 59.0563 16.6068 59.1063 16.2416 58.6418C14.225 56.0774 9.17899 48.3114 11.6585 37.3256C13.7522 28.0486 14.0063 22.8192 13.957 20.4374C13.9468 19.9338 14.5853 19.7094 14.8927 20.1086C18.2848 24.5108 28.1671 39.8937 17.62 58.5417Z" fill="#74A1BB"/>
<path opacity="0.5" d="M16.8297 58.4133C16.8161 58.4195 16.8022 58.424 16.7874 58.4272C16.663 58.456 16.5391 58.378 16.5108 58.2541C16.4784 58.1133 13.3029 44.0193 15.6318 30.9886C15.6543 30.8631 15.7742 30.7797 15.8997 30.8019C16.0253 30.8245 16.1086 30.9443 16.0865 31.0699C13.7748 44.0058 16.929 58.0107 16.961 58.1507C16.986 58.2602 16.929 58.3694 16.8297 58.4133Z" fill="white"/>
<path d="M83.8097 95.7976H20.7545V5.60747C20.7545 2.43526 23.1638 -0.105384 26.0693 0.00336555L85.6183 0.8906C88.6551 0.935742 91.0714 3.68239 90.9889 6.99537L88.9111 90.3799C88.8364 93.3957 86.5745 95.7976 83.8097 95.7976Z" fill="#74A1BB"/>
<path opacity="0.6" d="M82.6878 82.1153H21.7341V7.08161C21.7341 4.44248 24.0634 2.32862 26.8721 2.41932L84.4364 3.15759C87.3723 3.19534 89.7081 5.48032 89.6281 8.23641L87.6197 77.6082C87.5471 80.1168 85.3602 82.1153 82.6878 82.1153Z" fill="white"/>
<path d="M21.8174 8.32908L89.8336 8.86052V5.59351C89.7425 4.23434 88.4043 2.41637 86.3245 2.41637L24.912 1.64609C23.4482 1.62968 21.7185 3.68074 21.7472 5.25331L21.8174 8.32908Z" fill="#74A1BB"/>
<path opacity="0.6" d="M25.7512 5.5492C26.1222 5.1782 26.1222 4.57668 25.7512 4.20568C25.3802 3.83467 24.7787 3.83468 24.4077 4.20568C24.0367 4.57668 24.0367 5.1782 24.4077 5.5492C24.7787 5.9202 25.3802 5.9202 25.7512 5.5492Z" fill="white"/>
<path opacity="0.6" d="M29.5515 5.65858C29.9225 5.28757 29.9225 4.68606 29.5515 4.31505C29.1805 3.94405 28.579 3.94405 28.208 4.31505C27.837 4.68606 27.837 5.28757 28.208 5.65858C28.579 6.02958 29.1805 6.02958 29.5515 5.65858Z" fill="white"/>
<path opacity="0.6" d="M33.4523 5.20885C33.5729 4.69823 33.2567 4.18654 32.7461 4.06597C32.2355 3.9454 31.7238 4.2616 31.6032 4.77222C31.4826 5.28284 31.7988 5.79452 32.3094 5.91509C32.8201 6.03566 33.3318 5.71947 33.4523 5.20885Z" fill="white"/>
<path d="M49.9844 27.3957H25.8165C25.6445 27.3957 25.505 27.2562 25.505 27.0843V12.1059C25.505 11.934 25.6445 11.7944 25.8165 11.7944H49.9844C50.1563 11.7944 50.2959 11.934 50.2959 12.1059V27.0838C50.2959 27.2562 50.1563 27.3957 49.9844 27.3957Z" fill="#74A1BB"/>
<path d="M48.4065 26.7601H27.3948C26.7772 26.7601 26.2749 26.2578 26.2749 25.6402V13.5784C26.2749 12.9608 26.7772 12.4585 27.3948 12.4585H48.4065C49.0241 12.4585 49.5264 12.9608 49.5264 13.5784V25.6406C49.5264 26.2578 49.0241 26.7601 48.4065 26.7601ZM27.3944 12.5968C26.8531 12.5968 26.4128 13.0371 26.4128 13.5784V25.6406C26.4128 26.1819 26.8531 26.6222 27.3944 26.6222H48.4061C48.9474 26.6222 49.3877 26.1819 49.3877 25.6406V13.5784C49.3877 13.0371 48.9474 12.5968 48.4061 12.5968H27.3944Z" fill="white"/>
<path d="M29.7319 24.9956H42.1926C42.5804 24.9956 42.8217 24.5741 42.6247 24.2397L37.6916 15.8536C37.486 15.504 36.9714 15.5306 36.8031 15.8996L34.4213 21.1188C34.2797 21.4286 33.8771 21.5102 33.626 21.28L32.6624 20.3969C32.4387 20.1917 32.085 20.2311 31.9118 20.4802L29.3199 24.2072C29.0888 24.5405 29.3268 24.9956 29.7319 24.9956Z" fill="white"/>
<path d="M42.711 17.2553C43.625 16.8767 44.059 15.8288 43.6804 14.9148C43.3018 14.0008 42.2539 13.5667 41.3399 13.9453C40.4259 14.3239 39.9919 15.3718 40.3705 16.2858C40.7491 17.1999 41.797 17.6339 42.711 17.2553Z" fill="white"/>
<path d="M49.9167 45.7571H25.8842C25.6745 45.7571 25.505 45.5872 25.505 45.378V30.5354C25.505 30.3257 25.6749 30.1562 25.8842 30.1562H49.9167C50.1264 30.1562 50.2959 30.3261 50.2959 30.5354V45.378C50.2959 45.5872 50.126 45.7571 49.9167 45.7571Z" fill="#74A1BB"/>
<path d="M30.3293 43.3496H42.79C43.1778 43.3496 43.4191 42.9281 43.2221 42.5937L38.289 34.2076C38.0834 33.858 37.5688 33.8847 37.4005 34.2536L35.0187 39.4728C34.8771 39.7826 34.4745 39.8643 34.2234 39.634L33.2598 38.7509C33.0361 38.5457 32.6824 38.5851 32.5092 38.8342L29.9173 42.5613C29.6862 42.8941 29.9243 43.3496 30.3293 43.3496Z" fill="white"/>
<path d="M43.3086 35.6088C44.2226 35.2302 44.6567 34.1823 44.2781 33.2683C43.8995 32.3543 42.8516 31.9202 41.9376 32.2988C41.0236 32.6775 40.5895 33.7253 40.9681 34.6394C41.3467 35.5534 42.3946 35.9874 43.3086 35.6088Z" fill="white"/>
<path d="M48.3889 45.2401H27.3768C26.7591 45.2401 26.2568 44.7378 26.2568 44.1202V32.0584C26.2568 31.4408 26.7591 30.9385 27.3768 30.9385H48.3889C49.0065 30.9385 49.5088 31.4408 49.5088 32.0584V44.1206C49.5084 44.7378 49.0061 45.2401 48.3889 45.2401ZM27.3768 31.0768C26.8355 31.0768 26.3951 31.5171 26.3951 32.0584V44.1206C26.3951 44.6619 26.8355 45.1022 27.3768 45.1022H48.3889C48.9302 45.1022 49.3705 44.6619 49.3705 44.1206V32.0584C49.3705 31.5171 48.9302 31.0768 48.3889 31.0768H27.3768Z" fill="white"/>
<path d="M85.1823 30.16H56.6221C56.4502 30.16 56.3107 30.0205 56.3107 29.8486V12.1059C56.3107 11.934 56.4502 11.7944 56.6221 11.7944H85.1823C85.3543 11.7944 85.4938 11.934 85.4938 12.1059V29.8481C85.4938 30.0205 85.3543 30.16 85.1823 30.16Z" fill="#74A1BB"/>
<path d="M83.4554 29.3995H58.3486C57.7309 29.3995 57.2286 28.8972 57.2286 28.2795V13.7083C57.2286 13.0907 57.7309 12.5884 58.3486 12.5884H83.4554C84.073 12.5884 84.5753 13.0907 84.5753 13.7083V28.2795C84.5753 28.8972 84.073 29.3995 83.4554 29.3995ZM58.3486 12.7267C57.8073 12.7267 57.3669 13.167 57.3669 13.7083V28.2795C57.3669 28.8208 57.8073 29.2612 58.3486 29.2612H83.4554C83.9967 29.2612 84.437 28.8208 84.437 28.2795V13.7083C84.437 13.167 83.9967 12.7267 83.4554 12.7267H58.3486Z" fill="white"/>
<g opacity="0.9">
<path opacity="0.9" d="M70.7199 26.0863C67.8625 26.0863 65.5381 23.7615 65.5381 20.9045C65.5381 18.0474 67.8629 15.7227 70.7199 15.7227C73.577 15.7227 75.9017 18.0474 75.9017 20.9045C75.9017 23.7615 73.5774 26.0863 70.7199 26.0863ZM70.7199 16.591C68.3414 16.591 66.4064 18.5259 66.4064 20.9045C66.4064 23.283 68.3414 25.218 70.7199 25.218C73.0985 25.218 75.0334 23.283 75.0334 20.9045C75.0338 18.5259 73.0985 16.591 70.7199 16.591Z" fill="white"/>
<path opacity="0.9" fill-rule="evenodd" clip-rule="evenodd" d="M69.0964 22.9003V19.1749C69.0964 18.7768 69.5298 18.5302 69.872 18.7333L73.0114 20.596C73.3467 20.7951 73.3467 21.2806 73.0114 21.4796L69.872 23.3423C69.5298 23.545 69.0964 23.2984 69.0964 22.9003Z" fill="white"/>
</g>
<path d="M85.0002 51.6376H56.44C56.2681 51.6376 56.1285 51.4981 56.1285 51.3262V33.5839C56.1285 33.412 56.2681 33.2725 56.44 33.2725H85.0002C85.1721 33.2725 85.3117 33.412 85.3117 33.5839V51.3262C85.3117 51.4981 85.1721 51.6376 85.0002 51.6376Z" fill="#74A1BB"/>
<path d="M83.2733 50.8779H58.1664C57.5488 50.8779 57.0465 50.3756 57.0465 49.758V35.1863C57.0465 34.5687 57.5488 34.0664 58.1664 34.0664H83.2733C83.8909 34.0664 84.3932 34.5687 84.3932 35.1863V49.7576C84.3932 50.3752 83.8909 50.8779 83.2733 50.8779ZM58.1664 34.2051C57.6251 34.2051 57.1848 34.6454 57.1848 35.1867V49.758C57.1848 50.2993 57.6251 50.7396 58.1664 50.7396H83.2733C83.8146 50.7396 84.2549 50.2993 84.2549 49.758V35.1863C84.2549 34.645 83.8146 34.2047 83.2733 34.2047H58.1664V34.2051Z" fill="white"/>
<g opacity="0.9">
<path opacity="0.9" d="M70.5378 47.5643C67.6803 47.5643 65.356 45.2396 65.356 42.3825C65.356 39.5251 67.6807 37.2007 70.5378 37.2007C73.3948 37.2007 75.7196 39.5255 75.7196 42.3825C75.72 45.24 73.3952 47.5643 70.5378 47.5643ZM70.5378 38.0686C68.1592 38.0686 66.2243 40.0036 66.2243 42.3821C66.2243 44.7606 68.1592 46.6956 70.5378 46.6956C72.9163 46.6956 74.8513 44.7606 74.8513 42.3821C74.8513 40.0036 72.9163 38.0686 70.5378 38.0686Z" fill="white"/>
<path opacity="0.9" fill-rule="evenodd" clip-rule="evenodd" d="M68.9147 44.3783V40.6529C68.9147 40.2549 69.348 40.0082 69.6903 40.2114L72.8297 42.0741C73.165 42.2731 73.165 42.7586 72.8297 42.9576L69.6903 44.8203C69.3476 45.023 68.9147 44.7764 68.9147 44.3783Z" fill="white"/>
</g>
<path d="M11.2133 76.8705L12.0393 102.558C12.1834 107.037 15.8591 110.601 20.3618 110.628L81.874 110.99C84.8833 111.008 87.4469 108.821 87.886 105.858C88.8479 99.3715 90.0733 87.7644 88.6932 76.8701H11.2133V76.8705Z" fill="#597B8E"/>
<path d="M79.695 109.412H79.6945L79.2464 109.41C79.205 109.41 79.1721 109.376 79.1721 109.335C79.1726 109.294 79.2058 109.26 79.2468 109.26H79.2472L79.6954 109.263C79.7364 109.263 79.7696 109.297 79.7696 109.338C79.7692 109.379 79.736 109.412 79.695 109.412ZM80.7398 109.405C80.7008 109.405 80.668 109.375 80.6655 109.335C80.663 109.294 80.6942 109.258 80.7353 109.256C80.8818 109.247 81.0295 109.232 81.1752 109.212C81.2154 109.205 81.2536 109.234 81.2593 109.275C81.2651 109.316 81.2367 109.354 81.1957 109.359C81.0463 109.38 80.8945 109.395 80.7443 109.405C80.7431 109.405 80.7414 109.405 80.7398 109.405ZM78.2012 109.404H78.2008L77.7526 109.401C77.7112 109.4 77.6784 109.367 77.6784 109.326C77.6784 109.285 77.712 109.251 77.7531 109.251H77.7535L78.2016 109.254C78.243 109.255 78.2759 109.288 78.2759 109.329C78.2759 109.37 78.2422 109.404 78.2012 109.404ZM76.7078 109.395H76.7074L76.2593 109.392C76.2178 109.392 76.185 109.358 76.185 109.317C76.1854 109.276 76.2187 109.243 76.2597 109.243H76.2601L76.7082 109.245C76.7493 109.245 76.7825 109.279 76.7825 109.32C76.7821 109.361 76.7489 109.395 76.7078 109.395ZM75.214 109.386H75.2136L74.7655 109.384C74.7241 109.383 74.6912 109.35 74.6912 109.308C74.6916 109.267 74.731 109.236 74.7663 109.234L75.2145 109.237C75.2555 109.237 75.2887 109.271 75.2887 109.312C75.2887 109.353 75.2551 109.386 75.214 109.386ZM73.7207 109.377H73.7203L73.2722 109.374C73.2307 109.374 73.1979 109.34 73.1979 109.299C73.1983 109.258 73.2315 109.225 73.2726 109.225H73.273L73.7211 109.228C73.7626 109.228 73.7954 109.262 73.7954 109.303C73.7954 109.344 73.7617 109.377 73.7207 109.377ZM72.2273 109.368H72.2269L71.7788 109.366C71.7373 109.365 71.7045 109.332 71.7045 109.291C71.7049 109.25 71.7443 109.215 71.7796 109.216L72.2277 109.219C72.2692 109.219 72.302 109.253 72.302 109.294C72.3016 109.335 72.2684 109.368 72.2273 109.368ZM70.7336 109.359H70.7331L70.285 109.357C70.244 109.356 70.2107 109.323 70.2107 109.282C70.2111 109.241 70.2444 109.207 70.2854 109.207H70.2858L70.734 109.21C70.7754 109.21 70.8082 109.244 70.8082 109.285C70.8082 109.326 70.7746 109.359 70.7336 109.359ZM69.2402 109.351H69.2398L68.7916 109.348C68.7506 109.348 68.7174 109.315 68.7174 109.273C68.7178 109.232 68.751 109.199 68.7921 109.199H68.7925L69.2406 109.201C69.2821 109.202 69.3149 109.235 69.3149 109.276C69.3145 109.317 69.2812 109.351 69.2402 109.351ZM67.7464 109.342H67.746L67.2979 109.34C67.2568 109.339 67.2236 109.306 67.2236 109.265C67.224 109.223 67.2573 109.19 67.2983 109.19H67.2987L67.7468 109.193C67.7883 109.193 67.8211 109.227 67.8211 109.268C67.8211 109.309 67.7875 109.342 67.7464 109.342ZM66.2531 109.333H66.2527L65.8045 109.331C65.7635 109.33 65.7302 109.297 65.7302 109.255C65.7307 109.214 65.7639 109.181 65.8049 109.181H65.8053L66.2535 109.184C66.2949 109.184 66.3278 109.217 66.3278 109.259C66.3273 109.3 66.2941 109.333 66.2531 109.333ZM64.7597 109.324H64.7593L64.3112 109.322C64.2701 109.322 64.2369 109.288 64.2369 109.247C64.2373 109.206 64.2705 109.173 64.3116 109.173H64.312L64.7601 109.175C64.8016 109.175 64.8344 109.209 64.8344 109.25C64.834 109.291 64.8007 109.324 64.7597 109.324ZM63.2659 109.315H63.2655L62.8174 109.313C62.7759 109.312 62.7431 109.278 62.7431 109.237C62.7435 109.196 62.7768 109.163 62.8178 109.163H62.8182L63.2663 109.166C63.3078 109.166 63.3406 109.2 63.3406 109.241C63.3406 109.283 63.307 109.315 63.2659 109.315ZM61.7726 109.307H61.7721L61.324 109.304C61.2826 109.304 61.2497 109.271 61.2497 109.229C61.2502 109.188 61.2834 109.155 61.3244 109.155H61.3248L61.773 109.157C61.8144 109.158 61.8473 109.191 61.8473 109.232C61.8468 109.274 61.8136 109.307 61.7726 109.307ZM60.2788 109.298H60.2784L59.8303 109.295C59.7888 109.295 59.756 109.261 59.756 109.22C59.7564 109.179 59.7896 109.146 59.8307 109.146H59.8311L60.2792 109.148C60.3207 109.149 60.3535 109.182 60.3535 109.223C60.3535 109.265 60.3198 109.298 60.2788 109.298ZM58.7854 109.289H58.785L58.3369 109.286C58.2954 109.286 58.2626 109.252 58.2626 109.211C58.263 109.17 58.2963 109.137 58.3373 109.137H58.3377L58.7858 109.14C58.8273 109.14 58.8601 109.174 58.8601 109.215C58.8597 109.256 58.8265 109.289 58.7854 109.289ZM57.2917 109.28H57.2912L56.8431 109.278C56.8017 109.277 56.7688 109.244 56.7688 109.203C56.7692 109.161 56.8074 109.133 56.8439 109.128L57.2921 109.131C57.3331 109.131 57.3663 109.164 57.3663 109.206C57.3663 109.247 57.3331 109.28 57.2917 109.28ZM55.7983 109.271H55.7979L55.3498 109.269C55.3083 109.269 55.2755 109.235 55.2755 109.194C55.2759 109.153 55.3091 109.12 55.3502 109.12H55.3506L55.7987 109.122C55.8397 109.123 55.873 109.156 55.873 109.197C55.8726 109.238 55.8393 109.271 55.7983 109.271ZM54.3049 109.263H54.3045L53.8564 109.26C53.8149 109.26 53.7821 109.227 53.7821 109.185C53.7825 109.144 53.8203 109.113 53.8572 109.111L54.3053 109.113C54.3468 109.114 54.3796 109.147 54.3796 109.189C54.3792 109.23 54.346 109.263 54.3049 109.263ZM52.8112 109.254H52.8108L52.3626 109.251C52.3212 109.251 52.2883 109.217 52.2883 109.176C52.2888 109.135 52.322 109.102 52.363 109.102H52.3634L52.8116 109.104C52.853 109.105 52.8859 109.138 52.8859 109.18C52.8859 109.221 52.8522 109.254 52.8112 109.254ZM51.3178 109.245H51.3174L50.8693 109.243C50.8278 109.243 50.795 109.209 50.795 109.168C50.7954 109.127 50.8331 109.092 50.8701 109.093L51.3182 109.096C51.3597 109.096 51.3925 109.13 51.3925 109.171C51.3921 109.212 51.3588 109.245 51.3178 109.245ZM49.824 109.236H49.8236L49.3755 109.234C49.334 109.234 49.3012 109.2 49.3012 109.159C49.3016 109.118 49.3349 109.084 49.3759 109.084H49.3763L49.8244 109.087C49.8659 109.087 49.8987 109.12 49.8987 109.162C49.8987 109.203 49.8651 109.236 49.824 109.236ZM48.3307 109.228H48.3303L47.8821 109.225C47.8407 109.224 47.8078 109.191 47.8078 109.15C47.8083 109.109 47.8415 109.075 47.8825 109.075H47.8829L48.3311 109.078C48.3725 109.079 48.4054 109.112 48.4054 109.153C48.4049 109.194 48.3717 109.228 48.3307 109.228ZM46.8369 109.219H46.8365L46.3884 109.216C46.3473 109.216 46.3141 109.182 46.3141 109.141C46.3145 109.1 46.3477 109.067 46.3888 109.067H46.3892L46.8373 109.069C46.8788 109.07 46.9116 109.103 46.9116 109.144C46.9116 109.185 46.8779 109.219 46.8369 109.219ZM45.3435 109.21H45.3431L44.895 109.207C44.854 109.207 44.8207 109.174 44.8207 109.132C44.8211 109.091 44.8544 109.058 44.8954 109.058H44.8958L45.3439 109.061C45.3854 109.061 45.4182 109.094 45.4182 109.136C45.4182 109.177 45.3846 109.21 45.3435 109.21ZM43.8502 109.201H43.8498L43.4016 109.198C43.3606 109.198 43.3274 109.164 43.3274 109.123C43.3278 109.082 43.361 109.049 43.402 109.049H43.4025L43.8506 109.052C43.892 109.052 43.9249 109.085 43.9249 109.127C43.9244 109.168 43.8912 109.201 43.8502 109.201ZM42.3564 109.192H42.356L41.9079 109.19C41.8664 109.189 41.8336 109.156 41.8336 109.115C41.834 109.074 41.8672 109.04 41.9083 109.04H41.9087L42.3568 109.043C42.3983 109.043 42.4311 109.077 42.4311 109.118C42.4311 109.159 42.3974 109.192 42.3564 109.192ZM40.863 109.184H40.8626L40.4145 109.181C40.3731 109.181 40.3402 109.148 40.3402 109.106C40.3406 109.065 40.3739 109.032 40.4149 109.032H40.4153L40.8634 109.034C40.9049 109.035 40.9377 109.068 40.9377 109.109C40.9373 109.15 40.9041 109.184 40.863 109.184ZM39.3693 109.175H39.3689L38.9207 109.172C38.8793 109.172 38.8464 109.139 38.8464 109.097C38.8469 109.056 38.8801 109.023 38.9211 109.023H38.9215L39.3697 109.025C39.4111 109.026 39.444 109.059 39.444 109.1C39.444 109.141 39.4103 109.175 39.3693 109.175ZM37.8759 109.166H37.8755L37.4274 109.163C37.3859 109.163 37.3531 109.129 37.3531 109.088C37.3535 109.047 37.3867 109.014 37.4278 109.014H37.4282L37.8763 109.017C37.9178 109.017 37.9506 109.051 37.9506 109.092C37.9502 109.133 37.9169 109.166 37.8759 109.166ZM36.3825 109.157H36.3821L35.934 109.155C35.8926 109.154 35.8597 109.12 35.8597 109.079C35.8601 109.038 35.8967 109.009 35.9348 109.005L36.383 109.008C36.424 109.008 36.4572 109.041 36.4572 109.083C36.4568 109.124 36.4236 109.157 36.3825 109.157ZM34.8888 109.148H34.8884L34.4402 109.146C34.3988 109.146 34.366 109.112 34.366 109.071C34.3664 109.03 34.3996 108.997 34.4406 108.997H34.4411L34.8892 108.999C34.9302 108.999 34.9635 109.033 34.9635 109.074C34.963 109.115 34.9298 109.148 34.8888 109.148ZM33.3954 109.139H33.395L32.9469 109.136C32.9054 109.136 32.8726 109.102 32.8726 109.061C32.873 109.02 32.9095 108.988 32.9477 108.987L33.3958 108.99C33.4373 108.99 33.4701 109.024 33.4701 109.065C33.4697 109.107 33.4364 109.139 33.3954 109.139ZM31.9016 109.131H31.9012L31.4531 109.128C31.4117 109.128 31.3788 109.094 31.3788 109.053C31.3792 109.012 31.4125 108.979 31.4535 108.979H31.4539L31.9021 108.981C31.9435 108.982 31.9763 109.015 31.9763 109.056C31.9763 109.097 31.9427 109.131 31.9016 109.131ZM82.2019 109.123C82.1708 109.123 82.1416 109.103 82.131 109.071C82.1178 109.032 82.1392 108.99 82.1782 108.977C82.3177 108.93 82.4568 108.878 82.5922 108.821C82.6304 108.806 82.6739 108.823 82.6899 108.861C82.7059 108.899 82.6882 108.943 82.6501 108.959C82.5114 109.017 82.3681 109.071 82.2253 109.118C82.2175 109.121 82.2097 109.123 82.2019 109.123ZM30.4083 109.122H30.4079L29.9597 109.119C29.9183 109.119 29.8855 109.086 29.8855 109.044C29.8859 109.003 29.922 108.968 29.9606 108.97L30.4087 108.972C30.4501 108.973 30.483 109.006 30.483 109.047C30.4826 109.088 30.4493 109.122 30.4083 109.122ZM28.9145 109.113H28.9141L28.466 109.111C28.4245 109.11 28.3917 109.077 28.3917 109.036C28.3921 108.994 28.4253 108.961 28.4664 108.961H28.4668L28.9149 108.964C28.9564 108.964 28.9892 108.997 28.9892 109.039C28.9892 109.08 28.956 109.113 28.9145 109.113ZM27.4211 109.104H27.4207L26.9726 109.102C26.9312 109.101 26.8983 109.068 26.8983 109.026C26.8987 108.985 26.932 108.952 26.973 108.952H26.9734L27.4216 108.955C27.463 108.955 27.4958 108.989 27.4958 109.03C27.4954 109.071 27.4622 109.104 27.4211 109.104ZM25.9274 109.095H25.927L25.4788 109.093C25.4374 109.093 25.4046 109.059 25.4046 109.018C25.405 108.977 25.4382 108.944 25.4792 108.944H25.4797L25.9278 108.946C25.9692 108.946 26.0021 108.98 26.0021 109.021C26.0021 109.062 25.9688 109.095 25.9274 109.095ZM24.434 109.087H24.4336L23.9855 109.084C23.9444 109.084 23.9112 109.051 23.9112 109.009C23.9116 108.968 23.9448 108.935 23.9859 108.935H23.9863L24.4344 108.937C24.4759 108.937 24.5087 108.971 24.5087 109.013C24.5087 109.054 24.475 109.087 24.434 109.087ZM22.9406 109.078H22.9402L22.4921 109.075C22.4507 109.075 22.4178 109.041 22.4178 109C22.4182 108.959 22.4515 108.926 22.4925 108.926H22.4929L22.9411 108.928C22.9825 108.929 23.0153 108.962 23.0153 109.004C23.0149 109.045 22.9817 109.078 22.9406 109.078ZM21.4473 109.061C21.4461 109.061 21.4448 109.061 21.4436 109.061C21.2942 109.054 21.1428 109.042 20.993 109.026C20.952 109.022 20.9224 108.985 20.9265 108.944C20.931 108.903 20.9667 108.872 21.0086 108.877C21.1555 108.893 21.3041 108.904 21.451 108.912C21.492 108.914 21.524 108.949 21.522 108.99C21.5199 109.03 21.4867 109.061 21.4473 109.061ZM19.9716 108.848C19.9658 108.848 19.9601 108.848 19.9539 108.846C19.8082 108.811 19.6613 108.772 19.5177 108.728C19.4783 108.716 19.4557 108.675 19.4676 108.635C19.4795 108.596 19.5214 108.573 19.5608 108.585C19.702 108.628 19.846 108.667 19.9888 108.701C20.029 108.711 20.0536 108.751 20.0438 108.791C20.036 108.825 20.0052 108.848 19.9716 108.848ZM83.5427 108.474C83.5184 108.474 83.4946 108.462 83.4803 108.44C83.4577 108.406 83.4671 108.36 83.5016 108.337C83.6247 108.256 83.7458 108.17 83.8619 108.081C83.8943 108.056 83.9415 108.061 83.9666 108.094C83.9916 108.127 83.9859 108.174 83.953 108.199C83.8344 108.291 83.7101 108.379 83.5837 108.462C83.571 108.47 83.5566 108.474 83.5427 108.474ZM18.5611 108.365C18.5508 108.365 18.5406 108.363 18.5303 108.358C18.3941 108.296 18.2574 108.23 18.1245 108.161C18.0879 108.141 18.0736 108.097 18.0929 108.06C18.1122 108.023 18.1569 108.009 18.1938 108.028C18.3247 108.096 18.4585 108.161 18.5923 108.222C18.6301 108.239 18.6465 108.283 18.6296 108.321C18.6169 108.349 18.5898 108.365 18.5611 108.365ZM17.2668 107.627C17.252 107.627 17.2368 107.622 17.2241 107.613C17.1014 107.527 16.9795 107.436 16.8617 107.344C16.8293 107.318 16.824 107.271 16.8494 107.238C16.8749 107.206 16.9221 107.201 16.9545 107.226C17.0702 107.317 17.1896 107.406 17.3103 107.491C17.3439 107.515 17.3521 107.561 17.3283 107.595C17.3132 107.616 17.2902 107.627 17.2668 107.627ZM84.672 107.504C84.6544 107.504 84.6363 107.497 84.6219 107.484C84.5912 107.457 84.5887 107.41 84.6162 107.379C84.7139 107.27 84.8087 107.155 84.8981 107.039C84.9232 107.006 84.9699 107 85.0028 107.025C85.0356 107.05 85.0418 107.096 85.0167 107.129C84.9252 107.249 84.8275 107.367 84.727 107.479C84.713 107.495 84.6925 107.504 84.672 107.504ZM16.1317 106.661C16.1124 106.661 16.0927 106.654 16.0783 106.639C15.9737 106.531 15.8703 106.419 15.7718 106.306C15.7447 106.275 15.748 106.228 15.7792 106.201C15.8104 106.174 15.8571 106.177 15.8846 106.208C15.9815 106.319 16.0824 106.429 16.1854 106.534C16.2142 106.564 16.2138 106.611 16.1842 106.64C16.169 106.654 16.1506 106.661 16.1317 106.661ZM85.5133 106.275C85.5018 106.275 85.4903 106.272 85.4796 106.267C85.4427 106.248 85.4283 106.203 85.4468 106.166C85.5129 106.035 85.5748 105.9 85.6311 105.765C85.6467 105.727 85.6906 105.709 85.7287 105.724C85.7669 105.74 85.785 105.784 85.7694 105.822C85.7119 105.961 85.6483 106.1 85.5802 106.234C85.567 106.26 85.5408 106.275 85.5133 106.275ZM15.1948 105.501C15.1706 105.501 15.1468 105.489 15.1324 105.467C15.0491 105.341 14.9687 105.212 14.8932 105.083C14.8722 105.047 14.8841 105.002 14.9198 104.981C14.9555 104.96 15.0011 104.972 15.022 105.007C15.0963 105.134 15.1751 105.261 15.2568 105.384C15.2793 105.419 15.2703 105.465 15.2358 105.488C15.2235 105.496 15.2091 105.501 15.1948 105.501ZM86.007 104.871C86.002 104.871 85.9967 104.87 85.9914 104.869C85.9512 104.86 85.9253 104.821 85.9335 104.781C85.9565 104.671 85.9766 104.559 85.9934 104.447L86.0086 104.344C86.0148 104.303 86.0525 104.274 86.0931 104.28C86.1338 104.286 86.1621 104.324 86.1563 104.365L86.1412 104.468C86.1239 104.583 86.1034 104.699 86.0796 104.811C86.0726 104.846 86.0418 104.871 86.007 104.871ZM14.4918 104.185C14.4627 104.185 14.4348 104.168 14.4229 104.139C14.365 104.001 14.3104 103.858 14.2599 103.716C14.2464 103.677 14.2665 103.635 14.3055 103.621C14.3441 103.608 14.3868 103.628 14.4007 103.667C14.45 103.806 14.5037 103.946 14.5603 104.081C14.5763 104.12 14.5583 104.163 14.5201 104.179C14.5115 104.183 14.5017 104.185 14.4918 104.185ZM86.2314 103.394C86.2282 103.394 86.2245 103.394 86.2212 103.393C86.1806 103.388 86.1518 103.35 86.1576 103.309C86.1777 103.163 86.1982 103.015 86.2183 102.866C86.2241 102.825 86.261 102.796 86.3024 102.801C86.3435 102.807 86.3718 102.845 86.3664 102.886C86.3459 103.036 86.3258 103.184 86.3053 103.33C86.3 103.367 86.268 103.394 86.2314 103.394ZM14.0494 102.759C14.015 102.759 13.9838 102.735 13.9764 102.7C13.9456 102.552 13.9189 102.403 13.8968 102.255C13.8906 102.214 13.9189 102.176 13.9596 102.17C14.001 102.165 14.0383 102.192 14.0445 102.233C14.0662 102.378 14.0925 102.525 14.1229 102.669C14.1315 102.71 14.1056 102.749 14.065 102.758C14.0597 102.759 14.0543 102.759 14.0494 102.759ZM86.4284 101.913C86.4251 101.913 86.4223 101.913 86.419 101.913C86.3779 101.908 86.3492 101.87 86.3541 101.83L86.41 101.385C86.4149 101.344 86.4526 101.315 86.4933 101.32C86.5343 101.325 86.5634 101.363 86.5581 101.404L86.5023 101.849C86.4978 101.886 86.4658 101.913 86.4284 101.913ZM13.8828 101.278C13.8426 101.278 13.8094 101.246 13.8081 101.206L13.7938 100.758C13.7925 100.717 13.8249 100.682 13.866 100.681C13.9074 100.677 13.9415 100.712 13.9431 100.753L13.9575 101.201C13.9587 101.242 13.9263 101.276 13.8853 101.278C13.8845 101.278 13.8836 101.278 13.8828 101.278ZM86.609 100.43C86.6061 100.43 86.6032 100.43 86.6004 100.43C86.5593 100.425 86.5302 100.388 86.5347 100.347C86.5519 100.2 86.5688 100.052 86.5856 99.9022C86.5901 99.8611 86.6275 99.8324 86.6681 99.8361C86.7091 99.8406 86.7387 99.8775 86.7342 99.9186C86.7173 100.068 86.7005 100.217 86.6833 100.364C86.6787 100.402 86.6463 100.43 86.609 100.43ZM13.8348 99.7848C13.7946 99.7848 13.7613 99.7528 13.7601 99.7126L13.7457 99.2649C13.7445 99.2238 13.7769 99.1893 13.818 99.1877C13.8586 99.1852 13.8939 99.2189 13.8951 99.2599L13.9095 99.7077C13.9107 99.7487 13.8783 99.7832 13.8373 99.7848C13.8364 99.7848 13.8356 99.7848 13.8348 99.7848ZM86.7723 98.9456C86.7699 98.9456 86.767 98.9456 86.7645 98.9452C86.7235 98.9411 86.6935 98.9041 86.698 98.8631C86.7132 98.7158 86.7288 98.5672 86.7436 98.4174C86.7477 98.3764 86.7842 98.3468 86.8253 98.3505C86.8663 98.3546 86.8962 98.3912 86.8921 98.4322C86.877 98.582 86.8618 98.7305 86.8462 98.8783C86.8425 98.9169 86.8101 98.9456 86.7723 98.9456ZM13.7868 98.2923C13.7466 98.2923 13.7133 98.2603 13.7121 98.22L13.6977 97.7723C13.6965 97.7313 13.7289 97.6968 13.77 97.6952C13.8053 97.6894 13.8459 97.7259 13.8471 97.7674L13.8615 98.2151C13.8627 98.2561 13.8303 98.2906 13.7892 98.2923C13.7884 98.2923 13.7876 98.2923 13.7868 98.2923ZM86.9184 97.4588C86.916 97.4588 86.9139 97.4588 86.9114 97.4584C86.8704 97.4547 86.84 97.4182 86.8441 97.3771C86.8577 97.2294 86.8712 97.0808 86.8848 96.931C86.8885 96.89 86.9237 96.8592 86.9656 96.8633C87.0066 96.867 87.037 96.9031 87.0333 96.9442C87.0202 97.094 87.0066 97.2429 86.9927 97.3907C86.9894 97.4297 86.9566 97.4588 86.9184 97.4588ZM13.7388 96.7993C13.6986 96.7993 13.6653 96.7673 13.6641 96.7271L13.6497 96.2794C13.6485 96.2383 13.6809 96.2038 13.7219 96.2022C13.7576 96.1969 13.7975 96.233 13.7991 96.2744L13.8135 96.7222C13.8147 96.7632 13.7823 96.7977 13.7412 96.7993C13.7404 96.7993 13.7396 96.7993 13.7388 96.7993ZM87.0477 95.9703C87.0456 95.9703 87.0436 95.9703 87.0415 95.9699C87.0005 95.9667 86.9697 95.9305 86.973 95.8895L87.0083 95.443C87.0116 95.402 87.0456 95.3712 87.0887 95.3745C87.1298 95.3778 87.1605 95.4135 87.1572 95.4549L87.122 95.9018C87.1191 95.9408 87.0863 95.9703 87.0477 95.9703ZM13.6908 95.3064C13.6505 95.3064 13.6173 95.2744 13.6161 95.2341L13.6017 94.7864C13.6005 94.7454 13.6329 94.7109 13.6739 94.7093C13.7137 94.7072 13.7498 94.7404 13.7511 94.7815L13.7654 95.2292C13.7667 95.2702 13.7343 95.3047 13.6932 95.3064C13.6924 95.3064 13.6916 95.3064 13.6908 95.3064ZM87.1589 94.4807C87.1572 94.4807 87.1556 94.4807 87.1536 94.4807C87.1125 94.4778 87.0813 94.4421 87.0842 94.4011L87.1142 93.9542C87.1166 93.9131 87.1515 93.8828 87.1938 93.8844C87.2348 93.8873 87.266 93.9226 87.2635 93.964L87.2336 94.4113C87.2307 94.4507 87.1979 94.4807 87.1589 94.4807ZM13.6427 93.8138C13.6025 93.8138 13.5693 93.7818 13.5681 93.7416L13.5537 93.2939C13.5525 93.2528 13.5849 93.2184 13.6259 93.2167C13.6653 93.2122 13.7018 93.2479 13.7031 93.2889L13.7174 93.7367C13.7187 93.7777 13.6862 93.8122 13.6452 93.8138C13.6444 93.8138 13.6436 93.8138 13.6427 93.8138ZM87.2516 92.9898C87.2504 92.9898 87.2488 92.9898 87.2475 92.9898C87.2065 92.9873 87.1749 92.952 87.1774 92.911C87.1856 92.7624 87.1938 92.6135 87.2016 92.4637C87.2036 92.4226 87.2393 92.3906 87.28 92.3931C87.321 92.3951 87.353 92.4304 87.3505 92.4715C87.3427 92.6213 87.3345 92.7706 87.3263 92.9192C87.3239 92.959 87.291 92.9898 87.2516 92.9898ZM13.5947 92.3209C13.5545 92.3209 13.5213 92.2889 13.52 92.2486L13.5057 91.8009C13.5044 91.7599 13.5369 91.7254 13.5779 91.7238C13.6173 91.7205 13.6538 91.755 13.6551 91.796L13.6694 92.2437C13.6706 92.2848 13.6382 92.3192 13.5972 92.3209C13.5964 92.3209 13.5955 92.3209 13.5947 92.3209ZM87.3255 91.4981C87.3243 91.4981 87.3234 91.4981 87.3222 91.4981C87.2812 91.4964 87.2492 91.4615 87.2508 91.4201C87.2574 91.2715 87.2635 91.1222 87.2693 90.9728C87.2709 90.9317 87.3062 90.8977 87.3468 90.901C87.3879 90.9026 87.4203 90.9375 87.4187 90.9785C87.4129 91.1283 87.4068 91.2777 87.4002 91.4267C87.3981 91.4665 87.3653 91.4981 87.3255 91.4981ZM13.5467 90.8283C13.5065 90.8283 13.4733 90.7963 13.472 90.7561L13.4577 90.3084C13.4564 90.2673 13.4888 90.2329 13.5299 90.2312C13.5664 90.2267 13.6054 90.262 13.607 90.3034L13.6214 90.7512C13.6226 90.7922 13.5902 90.8267 13.5492 90.8283C13.5484 90.8283 13.5475 90.8283 13.5467 90.8283ZM87.3797 90.0051C87.3789 90.0051 87.378 90.0051 87.3776 90.0051C87.3366 90.0039 87.3038 89.9694 87.305 89.9284C87.3095 89.7794 87.3136 89.6304 87.3173 89.4807C87.3185 89.4396 87.3514 89.408 87.394 89.408C87.4351 89.4092 87.4679 89.4433 87.4667 89.4847C87.463 89.6345 87.4589 89.7839 87.4544 89.9329C87.4531 89.9731 87.4199 90.0051 87.3797 90.0051ZM13.4987 89.3354C13.4585 89.3354 13.4252 89.3034 13.424 89.2632L13.4096 88.8154C13.4084 88.7744 13.4408 88.7399 13.4819 88.7383C13.5184 88.7342 13.5574 88.7691 13.559 88.8105L13.5734 89.2582C13.5746 89.2993 13.5422 89.3337 13.5012 89.3354C13.5003 89.3354 13.4995 89.3354 13.4987 89.3354ZM87.4129 88.5117C87.4125 88.5117 87.4121 88.5117 87.4117 88.5117C87.3702 88.5109 87.3374 88.4773 87.3382 88.4358C87.3403 88.2869 87.3423 88.1375 87.344 87.9881C87.3444 87.9467 87.3834 87.9155 87.4195 87.9142C87.4609 87.9146 87.4938 87.9483 87.4934 87.9897C87.4917 88.1395 87.4897 88.2889 87.4876 88.4383C87.4868 88.4789 87.4535 88.5117 87.4129 88.5117ZM13.4507 87.8424C13.4105 87.8424 13.3772 87.8104 13.376 87.7702L13.3616 87.3225C13.3604 87.2814 13.3928 87.247 13.4339 87.2453C13.4704 87.2412 13.5094 87.2761 13.511 87.3175L13.5254 87.7653C13.5266 87.8063 13.4942 87.8408 13.4531 87.8424C13.4523 87.8424 13.4515 87.8424 13.4507 87.8424ZM87.4244 87.018C87.3834 87.018 87.3497 86.9847 87.3497 86.9433V86.9072C87.3497 86.7701 87.3493 86.633 87.3489 86.496C87.3489 86.4549 87.3821 86.4213 87.4232 86.4209H87.4236C87.4646 86.4209 87.4983 86.4541 87.4983 86.4952C87.4987 86.6326 87.4991 86.7701 87.4991 86.9072V86.9433C87.4991 86.9847 87.4659 87.018 87.4244 87.018ZM13.4027 86.3499C13.3625 86.3499 13.3292 86.3179 13.328 86.2777L13.3136 85.8299C13.3124 85.7889 13.3448 85.7544 13.3858 85.7528C13.4273 85.7474 13.4614 85.784 13.463 85.825L13.4774 86.2727C13.4786 86.3138 13.4462 86.3482 13.4051 86.3499C13.4043 86.3499 13.4035 86.3499 13.4027 86.3499ZM87.4137 85.525C87.3731 85.525 87.3399 85.4922 87.3391 85.4516C87.337 85.3026 87.3341 85.1536 87.3312 85.0043C87.3304 84.9632 87.3633 84.9287 87.4043 84.9279C87.44 84.9251 87.4794 84.9595 87.4806 85.001C87.4835 85.1503 87.4864 85.3001 87.4884 85.4491C87.4888 85.4901 87.456 85.5242 87.415 85.525C87.4141 85.525 87.4141 85.525 87.4137 85.525ZM13.3547 84.8569C13.3144 84.8569 13.2812 84.8249 13.28 84.7847L13.2656 84.337C13.2644 84.2959 13.2968 84.2615 13.3378 84.2598C13.3748 84.2561 13.4133 84.2906 13.415 84.3321L13.4293 84.7798C13.4306 84.8208 13.3982 84.8553 13.3571 84.8569C13.3563 84.8569 13.3555 84.8569 13.3547 84.8569ZM87.3784 84.0325C87.3382 84.0325 87.305 84.0005 87.3038 83.9603C87.2988 83.8113 87.2939 83.6623 87.2886 83.5129C87.2869 83.4719 87.3193 83.437 87.3604 83.4354C87.4022 83.4317 87.4363 83.4662 87.438 83.5072C87.4437 83.6566 87.4486 83.806 87.4535 83.9553C87.4548 83.9964 87.4223 84.0308 87.3813 84.0325C87.3801 84.0325 87.3793 84.0325 87.3784 84.0325ZM13.3066 83.3644C13.2664 83.3644 13.2332 83.3324 13.232 83.2922L13.2176 82.8444C13.2164 82.8034 13.2488 82.7689 13.2898 82.7673C13.3309 82.7648 13.3653 82.7985 13.367 82.8395L13.3813 83.2872C13.3826 83.3283 13.3501 83.3628 13.3091 83.3644C13.3083 83.3644 13.3075 83.3644 13.3066 83.3644ZM87.3181 82.5404C87.2787 82.5404 87.2455 82.5092 87.2434 82.4694C87.236 82.3204 87.2282 82.1714 87.2204 82.0225C87.218 81.9814 87.2496 81.9461 87.291 81.9437C87.3312 81.942 87.3674 81.9728 87.3698 82.0142C87.378 82.1636 87.3858 82.313 87.3932 82.462C87.3953 82.503 87.3633 82.5383 87.3222 82.5404C87.3206 82.5404 87.3194 82.5404 87.3181 82.5404ZM13.2586 81.8714C13.2184 81.8714 13.1852 81.8394 13.1839 81.7992L13.1696 81.3515C13.1683 81.3105 13.2008 81.276 13.2418 81.2743C13.2849 81.2747 13.3177 81.3055 13.319 81.3466L13.3333 81.7943C13.3345 81.8353 13.3021 81.8698 13.2611 81.8714C13.2603 81.8714 13.2594 81.8714 13.2586 81.8714ZM87.2311 81.0495C87.1921 81.0495 87.1593 81.0191 87.1568 80.9797C87.147 80.8307 87.1363 80.6822 87.1252 80.5332C87.1224 80.4922 87.1532 80.4565 87.1942 80.4532C87.2373 80.4503 87.2713 80.4811 87.2742 80.5221C87.2853 80.6711 87.296 80.8205 87.3058 80.9694C87.3087 81.0105 87.2775 81.0462 87.2365 81.049C87.2344 81.049 87.2328 81.0495 87.2311 81.0495ZM13.2106 80.3785C13.1704 80.3785 13.1372 80.3465 13.1359 80.3063L13.1216 79.8585C13.1203 79.8175 13.1527 79.783 13.1938 79.7814C13.2311 79.7752 13.2693 79.8122 13.2709 79.8536L13.2853 80.3013C13.2865 80.3424 13.2541 80.3768 13.2131 80.3785C13.2123 80.3785 13.2114 80.3785 13.2106 80.3785ZM87.1154 79.5602C87.0772 79.5602 87.0444 79.5311 87.0411 79.4921C87.028 79.3435 87.0144 79.195 87.0005 79.0464C86.9968 79.0054 87.0267 78.9688 87.0678 78.9652C87.1092 78.9619 87.1453 78.9914 87.149 79.0325C87.163 79.1814 87.1765 79.3304 87.1897 79.4789C87.1934 79.52 87.163 79.5565 87.122 79.5598C87.1195 79.5602 87.1174 79.5602 87.1154 79.5602ZM13.1626 78.8859C13.1224 78.8859 13.0891 78.8539 13.0879 78.8137L13.0735 78.366C13.0723 78.325 13.1047 78.2905 13.1458 78.2888C13.1835 78.2864 13.2213 78.3196 13.2229 78.3611L13.2373 78.8088C13.2385 78.8498 13.2061 78.8843 13.1651 78.8859C13.1642 78.8859 13.1634 78.8859 13.1626 78.8859ZM86.9689 78.0738C86.9311 78.0738 86.8987 78.0455 86.8946 78.0073C86.8782 77.8592 86.8618 77.7106 86.8445 77.5625C86.8396 77.5214 86.8692 77.4845 86.9102 77.4796C86.9521 77.4747 86.9882 77.5042 86.9931 77.5452C87.0103 77.6938 87.0272 77.8424 87.0432 77.9913C87.0477 78.0324 87.0181 78.0693 86.9771 78.0738C86.9746 78.0738 86.9718 78.0738 86.9689 78.0738ZM13.1146 77.393C13.0744 77.393 13.0411 77.361 13.0399 77.3208L13.0231 76.7959H13.2939C13.3354 76.7959 13.3686 76.8291 13.3686 76.8706C13.3686 76.9116 13.3354 76.9453 13.2939 76.9453H13.177L13.1889 77.3158C13.1901 77.3569 13.1577 77.3914 13.1166 77.393C13.1162 77.393 13.1154 77.393 13.1146 77.393ZM86.4789 76.9453H86.0308C85.9893 76.9453 85.9561 76.9116 85.9561 76.8706C85.9561 76.8291 85.9893 76.7959 86.0308 76.7959H86.4789C86.5203 76.7959 86.5536 76.8291 86.5536 76.8706C86.5536 76.9116 86.5199 76.9453 86.4789 76.9453ZM84.9851 76.9453H84.537C84.4956 76.9453 84.4623 76.9116 84.4623 76.8706C84.4623 76.8291 84.4956 76.7959 84.537 76.7959H84.9851C85.0266 76.7959 85.0598 76.8291 85.0598 76.8706C85.0598 76.9116 85.0266 76.9453 84.9851 76.9453ZM83.4918 76.9453H83.0436C83.0022 76.9453 82.9689 76.9116 82.9689 76.8706C82.9689 76.8291 83.0022 76.7959 83.0436 76.7959H83.4918C83.5332 76.7959 83.5665 76.8291 83.5665 76.8706C83.5665 76.9116 83.5328 76.9453 83.4918 76.9453ZM81.998 76.9453H81.5499C81.5084 76.9453 81.4752 76.9116 81.4752 76.8706C81.4752 76.8291 81.5084 76.7959 81.5499 76.7959H81.998C82.0394 76.7959 82.0727 76.8291 82.0727 76.8706C82.0727 76.9116 82.0394 76.9453 81.998 76.9453ZM80.5046 76.9453H80.0565C80.015 76.9453 79.9818 76.9116 79.9818 76.8706C79.9818 76.8291 80.015 76.7959 80.0565 76.7959H80.5046C80.5461 76.7959 80.5793 76.8291 80.5793 76.8706C80.5793 76.9116 80.5457 76.9453 80.5046 76.9453ZM79.0109 76.9453H78.5627C78.5213 76.9453 78.488 76.9116 78.488 76.8706C78.488 76.8291 78.5213 76.7959 78.5627 76.7959H79.0109C79.0523 76.7959 79.0855 76.8291 79.0855 76.8706C79.0855 76.9116 79.0523 76.9453 79.0109 76.9453ZM77.5175 76.9453H77.0694C77.0279 76.9453 76.9947 76.9116 76.9947 76.8706C76.9947 76.8291 77.0279 76.7959 77.0694 76.7959H77.5175C77.5589 76.7959 77.5922 76.8291 77.5922 76.8706C77.5922 76.9116 77.5585 76.9453 77.5175 76.9453ZM76.0237 76.9453H75.5756C75.5341 76.9453 75.5009 76.9116 75.5009 76.8706C75.5009 76.8291 75.5341 76.7959 75.5756 76.7959H76.0237C76.0652 76.7959 76.0984 76.8291 76.0984 76.8706C76.0984 76.9116 76.0652 76.9453 76.0237 76.9453ZM74.5304 76.9453H74.0822C74.0408 76.9453 74.0075 76.9116 74.0075 76.8706C74.0075 76.8291 74.0408 76.7959 74.0822 76.7959H74.5304C74.5718 76.7959 74.6051 76.8291 74.6051 76.8706C74.6051 76.9116 74.5714 76.9453 74.5304 76.9453ZM73.0366 76.9453H72.5885C72.547 76.9453 72.5138 76.9116 72.5138 76.8706C72.5138 76.8291 72.547 76.7959 72.5885 76.7959H73.0366C73.078 76.7959 73.1113 76.8291 73.1113 76.8706C73.1113 76.9116 73.078 76.9453 73.0366 76.9453ZM71.5432 76.9453H71.0951C71.0536 76.9453 71.0204 76.9116 71.0204 76.8706C71.0204 76.8291 71.0536 76.7959 71.0951 76.7959H71.5432C71.5847 76.7959 71.6179 76.8291 71.6179 76.8706C71.6179 76.9116 71.5843 76.9453 71.5432 76.9453ZM70.0495 76.9453H69.6013C69.5599 76.9453 69.5266 76.9116 69.5266 76.8706C69.5266 76.8291 69.5599 76.7959 69.6013 76.7959H70.0495C70.0909 76.7959 70.1242 76.8291 70.1242 76.8706C70.1242 76.9116 70.0909 76.9453 70.0495 76.9453ZM68.5561 76.9453H68.108C68.0665 76.9453 68.0333 76.9116 68.0333 76.8706C68.0333 76.8291 68.0665 76.7959 68.108 76.7959H68.5561C68.5975 76.7959 68.6308 76.8291 68.6308 76.8706C68.6308 76.9116 68.5971 76.9453 68.5561 76.9453ZM67.0623 76.9453H66.6142C66.5728 76.9453 66.5395 76.9116 66.5395 76.8706C66.5395 76.8291 66.5728 76.7959 66.6142 76.7959H67.0623C67.1038 76.7959 67.137 76.8291 67.137 76.8706C67.137 76.9116 67.1038 76.9453 67.0623 76.9453ZM65.569 76.9453H65.1208C65.0794 76.9453 65.0461 76.9116 65.0461 76.8706C65.0461 76.8291 65.0794 76.7959 65.1208 76.7959H65.569C65.6104 76.7959 65.6437 76.8291 65.6437 76.8706C65.6437 76.9116 65.6104 76.9453 65.569 76.9453ZM64.0752 76.9453H63.6271C63.5856 76.9453 63.5524 76.9116 63.5524 76.8706C63.5524 76.8291 63.5856 76.7959 63.6271 76.7959H64.0752C64.1166 76.7959 64.1499 76.8291 64.1499 76.8706C64.1499 76.9116 64.1166 76.9453 64.0752 76.9453ZM62.5818 76.9453H62.1337C62.0922 76.9453 62.059 76.9116 62.059 76.8706C62.059 76.8291 62.0922 76.7959 62.1337 76.7959H62.5818C62.6233 76.7959 62.6565 76.8291 62.6565 76.8706C62.6565 76.9116 62.6233 76.9453 62.5818 76.9453ZM61.0881 76.9453H60.6399C60.5985 76.9453 60.5652 76.9116 60.5652 76.8706C60.5652 76.8291 60.5985 76.7959 60.6399 76.7959H61.0881C61.1295 76.7959 61.1627 76.8291 61.1627 76.8706C61.1627 76.9116 61.1295 76.9453 61.0881 76.9453ZM59.5947 76.9453H59.1466C59.1051 76.9453 59.0719 76.9116 59.0719 76.8706C59.0719 76.8291 59.1051 76.7959 59.1466 76.7959H59.5947C59.6361 76.7959 59.6694 76.8291 59.6694 76.8706C59.6694 76.9116 59.6361 76.9453 59.5947 76.9453ZM58.1013 76.9453H57.6532C57.6118 76.9453 57.5785 76.9116 57.5785 76.8706C57.5785 76.8291 57.6118 76.7959 57.6532 76.7959H58.1013C58.1428 76.7959 58.176 76.8291 58.176 76.8706C58.1756 76.9116 58.1424 76.9453 58.1013 76.9453ZM56.6076 76.9453H56.1594C56.118 76.9453 56.0847 76.9116 56.0847 76.8706C56.0847 76.8291 56.118 76.7959 56.1594 76.7959H56.6076C56.649 76.7959 56.6822 76.8291 56.6822 76.8706C56.6822 76.9116 56.649 76.9453 56.6076 76.9453ZM55.1142 76.9453H54.6661C54.6246 76.9453 54.5914 76.9116 54.5914 76.8706C54.5914 76.8291 54.6246 76.7959 54.6661 76.7959H55.1142C55.1556 76.7959 55.1889 76.8291 55.1889 76.8706C55.1889 76.9116 55.1552 76.9453 55.1142 76.9453ZM53.6204 76.9453H53.1723C53.1308 76.9453 53.0976 76.9116 53.0976 76.8706C53.0976 76.8291 53.1308 76.7959 53.1723 76.7959H53.6204C53.6619 76.7959 53.6951 76.8291 53.6951 76.8706C53.6951 76.9116 53.6619 76.9453 53.6204 76.9453ZM52.1271 76.9453H51.6789C51.6375 76.9453 51.6042 76.9116 51.6042 76.8706C51.6042 76.8291 51.6375 76.7959 51.6789 76.7959H52.1271C52.1685 76.7959 52.2018 76.8291 52.2018 76.8706C52.2018 76.9116 52.1681 76.9453 52.1271 76.9453ZM50.6333 76.9453H50.1852C50.1437 76.9453 50.1105 76.9116 50.1105 76.8706C50.1105 76.8291 50.1437 76.7959 50.1852 76.7959H50.6333C50.6747 76.7959 50.708 76.8291 50.708 76.8706C50.708 76.9116 50.6747 76.9453 50.6333 76.9453ZM49.1399 76.9453H48.6918C48.6504 76.9453 48.6171 76.9116 48.6171 76.8706C48.6171 76.8291 48.6504 76.7959 48.6918 76.7959H49.1399C49.1814 76.7959 49.2146 76.8291 49.2146 76.8706C49.2146 76.9116 49.181 76.9453 49.1399 76.9453ZM47.6462 76.9453H47.198C47.1566 76.9453 47.1233 76.9116 47.1233 76.8706C47.1233 76.8291 47.1566 76.7959 47.198 76.7959H47.6462C47.6876 76.7959 47.7208 76.8291 47.7208 76.8706C47.7208 76.9116 47.6876 76.9453 47.6462 76.9453ZM46.1528 76.9453H45.7047C45.6632 76.9453 45.63 76.9116 45.63 76.8706C45.63 76.8291 45.6632 76.7959 45.7047 76.7959H46.1528C46.1942 76.7959 46.2275 76.8291 46.2275 76.8706C46.2275 76.9116 46.1938 76.9453 46.1528 76.9453ZM44.659 76.9453H44.2109C44.1694 76.9453 44.1362 76.9116 44.1362 76.8706C44.1362 76.8291 44.1694 76.7959 44.2109 76.7959H44.659C44.7005 76.7959 44.7337 76.8291 44.7337 76.8706C44.7337 76.9116 44.7005 76.9453 44.659 76.9453ZM43.1657 76.9453H42.7175C42.6761 76.9453 42.6428 76.9116 42.6428 76.8706C42.6428 76.8291 42.6761 76.7959 42.7175 76.7959H43.1657C43.2071 76.7959 43.2404 76.8291 43.2404 76.8706C43.2404 76.9116 43.2067 76.9453 43.1657 76.9453ZM41.6719 76.9453H41.2238C41.1823 76.9453 41.1491 76.9116 41.1491 76.8706C41.1491 76.8291 41.1823 76.7959 41.2238 76.7959H41.6719C41.7133 76.7959 41.7466 76.8291 41.7466 76.8706C41.7466 76.9116 41.7133 76.9453 41.6719 76.9453ZM40.1785 76.9453H39.7304C39.689 76.9453 39.6557 76.9116 39.6557 76.8706C39.6557 76.8291 39.689 76.7959 39.7304 76.7959H40.1785C40.22 76.7959 40.2532 76.8291 40.2532 76.8706C40.2532 76.9116 40.2196 76.9453 40.1785 76.9453ZM38.6848 76.9453H38.2366C38.1952 76.9453 38.1619 76.9116 38.1619 76.8706C38.1619 76.8291 38.1952 76.7959 38.2366 76.7959H38.6848C38.7262 76.7959 38.7594 76.8291 38.7594 76.8706C38.7594 76.9116 38.7262 76.9453 38.6848 76.9453ZM37.1914 76.9453H36.7433C36.7018 76.9453 36.6686 76.9116 36.6686 76.8706C36.6686 76.8291 36.7018 76.7959 36.7433 76.7959H37.1914C37.2328 76.7959 37.2661 76.8291 37.2661 76.8706C37.2661 76.9116 37.2324 76.9453 37.1914 76.9453ZM35.6976 76.9453H35.2495C35.208 76.9453 35.1748 76.9116 35.1748 76.8706C35.1748 76.8291 35.208 76.7959 35.2495 76.7959H35.6976C35.7391 76.7959 35.7723 76.8291 35.7723 76.8706C35.7723 76.9116 35.7391 76.9453 35.6976 76.9453ZM34.2043 76.9453H33.7561C33.7147 76.9453 33.6814 76.9116 33.6814 76.8706C33.6814 76.8291 33.7147 76.7959 33.7561 76.7959H34.2043C34.2457 76.7959 34.279 76.8291 34.279 76.8706C34.279 76.9116 34.2453 76.9453 34.2043 76.9453ZM32.7105 76.9453H32.2624C32.2209 76.9453 32.1877 76.9116 32.1877 76.8706C32.1877 76.8291 32.2209 76.7959 32.2624 76.7959H32.7105C32.7519 76.7959 32.7852 76.8291 32.7852 76.8706C32.7852 76.9116 32.7519 76.9453 32.7105 76.9453ZM31.2171 76.9453H30.769C30.7276 76.9453 30.6943 76.9116 30.6943 76.8706C30.6943 76.8291 30.7276 76.7959 30.769 76.7959H31.2171C31.2586 76.7959 31.2918 76.8291 31.2918 76.8706C31.2918 76.9116 31.2582 76.9453 31.2171 76.9453ZM29.7234 76.9453H29.2752C29.2338 76.9453 29.2005 76.9116 29.2005 76.8706C29.2005 76.8291 29.2338 76.7959 29.2752 76.7959H29.7234C29.7648 76.7959 29.798 76.8291 29.798 76.8706C29.798 76.9116 29.7648 76.9453 29.7234 76.9453ZM28.23 76.9453H27.7819C27.7404 76.9453 27.7072 76.9116 27.7072 76.8706C27.7072 76.8291 27.7404 76.7959 27.7819 76.7959H28.23C28.2714 76.7959 28.3047 76.8291 28.3047 76.8706C28.3047 76.9116 28.271 76.9453 28.23 76.9453ZM26.7362 76.9453H26.2881C26.2466 76.9453 26.2134 76.9116 26.2134 76.8706C26.2134 76.8291 26.2466 76.7959 26.2881 76.7959H26.7362C26.7777 76.7959 26.8109 76.8291 26.8109 76.8706C26.8109 76.9116 26.7777 76.9453 26.7362 76.9453ZM25.2429 76.9453H24.7947C24.7533 76.9453 24.72 76.9116 24.72 76.8706C24.72 76.8291 24.7533 76.7959 24.7947 76.7959H25.2429C25.2843 76.7959 25.3176 76.8291 25.3176 76.8706C25.3176 76.9116 25.2839 76.9453 25.2429 76.9453ZM23.7491 76.9453H23.301C23.2595 76.9453 23.2263 76.9116 23.2263 76.8706C23.2263 76.8291 23.2595 76.7959 23.301 76.7959H23.7491C23.7905 76.7959 23.8238 76.8291 23.8238 76.8706C23.8238 76.9116 23.7905 76.9453 23.7491 76.9453ZM22.2557 76.9453H21.8076C21.7662 76.9453 21.7329 76.9116 21.7329 76.8706C21.7329 76.8291 21.7662 76.7959 21.8076 76.7959H22.2557C22.2972 76.7959 22.3304 76.8291 22.3304 76.8706C22.3304 76.9116 22.2968 76.9453 22.2557 76.9453ZM20.762 76.9453H20.3138C20.2724 76.9453 20.2391 76.9116 20.2391 76.8706C20.2391 76.8291 20.2724 76.7959 20.3138 76.7959H20.762C20.8034 76.7959 20.8366 76.8291 20.8366 76.8706C20.8366 76.9116 20.8034 76.9453 20.762 76.9453ZM19.2686 76.9453H18.8205C18.779 76.9453 18.7458 76.9116 18.7458 76.8706C18.7458 76.8291 18.779 76.7959 18.8205 76.7959H19.2686C19.31 76.7959 19.3433 76.8291 19.3433 76.8706C19.3433 76.9116 19.3096 76.9453 19.2686 76.9453ZM17.7748 76.9453H17.3267C17.2852 76.9453 17.252 76.9116 17.252 76.8706C17.252 76.8291 17.2852 76.7959 17.3267 76.7959H17.7748C17.8163 76.7959 17.8495 76.8291 17.8495 76.8706C17.8495 76.9116 17.8163 76.9453 17.7748 76.9453ZM16.2815 76.9453H15.8333C15.7919 76.9453 15.7586 76.9116 15.7586 76.8706C15.7586 76.8291 15.7919 76.7959 15.8333 76.7959H16.2815C16.3229 76.7959 16.3562 76.8291 16.3562 76.8706C16.3562 76.9116 16.3225 76.9453 16.2815 76.9453ZM14.7877 76.9453H14.3396C14.2981 76.9453 14.2649 76.9116 14.2649 76.8706C14.2649 76.8291 14.2981 76.7959 14.3396 76.7959H14.7877C14.8291 76.7959 14.8624 76.8291 14.8624 76.8706C14.8624 76.9116 14.8291 76.9453 14.7877 76.9453Z" fill="white"/>
<path d="M29.2402 58.2231L29.4253 56.2422C29.6342 55.769 30.068 55.4346 30.5805 55.3529C32.497 55.048 37.2496 54.5116 39.5382 56.2217L39.8801 58.5239L29.2402 58.2231Z" fill="black"/>
<path d="M35.2398 56.0188C34.7987 56.1264 34.3567 56.126 33.9139 56.0172C33.378 55.8855 33 55.4062 33 54.8571V48.6538H36.157V54.8526C36.1566 55.4041 35.7782 55.8875 35.2398 56.0188Z" fill="black"/>
<path d="M59.817 58.2231L60.0021 56.2422C60.211 55.769 60.6447 55.4346 61.1573 55.3529C63.0738 55.048 67.8263 54.5116 70.115 56.2217L70.4569 58.5239L59.817 58.2231Z" fill="black"/>
<path d="M65.8161 56.0188C65.375 56.1263 64.933 56.1259 64.4902 56.0171C63.9543 55.8854 63.5763 55.4061 63.5763 54.857V48H66.7333V54.8521C66.7333 55.404 66.355 55.8874 65.8161 56.0188Z" fill="black"/>
<path d="M32.6661 50.4722L66.6162 49.3482C67.3901 49.3228 68.0467 48.7642 68.1797 48.0046C68.3656 46.9417 68.5298 45.3507 68.2852 43.7014C68.0073 41.8256 66.3937 40.4323 64.4896 40.3872C58.1562 40.2366 42.0329 40.2411 33.1462 43.7564C32.2065 44.1282 31.5092 44.9313 31.2712 45.9096C31.0443 46.8428 30.8933 48.0887 31.19 49.3572C31.348 50.0311 31.9717 50.4952 32.6661 50.4722Z" fill="#9AD0D1"/>
<path d="M32.0785 48.7079C32.003 48.7079 31.9377 48.6504 31.9299 48.5737C31.9246 48.5199 31.801 47.2437 32.133 46.015C32.3854 45.0814 33.1241 44.3308 34.061 44.0559C35.9524 43.501 39.5666 42.5576 42.5193 42.4747C42.6022 42.4722 42.6703 42.5375 42.6728 42.6199C42.6752 42.7024 42.61 42.771 42.5275 42.7734C39.6081 42.8555 36.0226 43.792 34.1447 44.3427C33.3071 44.5885 32.6468 45.2591 32.4211 46.0934C32.1035 47.2671 32.2254 48.5314 32.2266 48.5437C32.2348 48.6258 32.1749 48.6989 32.0928 48.7071C32.0883 48.7075 32.0834 48.7079 32.0785 48.7079Z" fill="#91B3FA"/>
<path d="M13.4884 57.4512C24.4565 57.3109 71.9047 56.8123 85.6872 58.4751C86.874 58.6184 87.8421 59.4863 88.0994 60.6485C88.914 64.3304 90.5522 72.8835 90.3581 81.3614C90.3319 82.515 89.4857 83.4888 88.3465 83.7043L56.8853 89.6564H45.7099L12.1879 82.9931C11.0064 82.7584 10.1352 81.7575 10.074 80.5596C9.85613 76.2941 9.51552 66.2863 10.6691 59.8442C10.9141 58.4751 12.0919 57.4693 13.4884 57.4512Z" fill="#9AD0D1"/>
<path d="M56.6268 87.0201H56.1787C56.1376 87.0201 56.104 86.9868 56.104 86.9454C56.104 86.9039 56.1376 86.8707 56.1787 86.8707H56.6268C56.6682 86.8707 56.7015 86.9039 56.7015 86.9454C56.7015 86.9868 56.6682 87.0201 56.6268 87.0201ZM55.1334 87.0201H54.6853C54.6442 87.0201 54.6106 86.9868 54.6106 86.9454C54.6106 86.9039 54.6442 86.8707 54.6853 86.8707H55.1334C55.1749 86.8707 55.2081 86.9039 55.2081 86.9454C55.2081 86.9868 55.1745 87.0201 55.1334 87.0201ZM53.6396 87.0201H53.1915C53.1505 87.0201 53.1168 86.9868 53.1168 86.9454C53.1168 86.9039 53.1505 86.8707 53.1915 86.8707H53.6396C53.6811 86.8707 53.7143 86.9039 53.7143 86.9454C53.7143 86.9868 53.6811 87.0201 53.6396 87.0201ZM52.1463 87.0201H51.6982C51.6571 87.0201 51.6235 86.9868 51.6235 86.9454C51.6235 86.9039 51.6571 86.8707 51.6982 86.8707H52.1463C52.1877 86.8707 52.221 86.9039 52.221 86.9454C52.221 86.9868 52.1873 87.0201 52.1463 87.0201ZM50.6525 87.0201H50.2044C50.1633 87.0201 50.1297 86.9868 50.1297 86.9454C50.1297 86.9039 50.1633 86.8707 50.2044 86.8707H50.6525C50.694 86.8707 50.7272 86.9039 50.7272 86.9454C50.7272 86.9868 50.694 87.0201 50.6525 87.0201ZM49.1592 87.0201H48.711C48.67 87.0201 48.6363 86.9868 48.6363 86.9454C48.6363 86.9039 48.67 86.8707 48.711 86.8707H49.1592C49.2006 86.8707 49.2338 86.9039 49.2338 86.9454C49.2338 86.9868 49.2002 87.0201 49.1592 87.0201ZM47.6654 87.0201H47.2173C47.1762 87.0201 47.1426 86.9868 47.1426 86.9454C47.1426 86.9039 47.1762 86.8707 47.2173 86.8707H47.6654C47.7068 86.8707 47.7401 86.9039 47.7401 86.9454C47.7401 86.9868 47.7068 87.0201 47.6654 87.0201ZM46.172 87.0201H45.9767L45.5228 86.9314C45.4826 86.9232 45.4559 86.8843 45.4641 86.8436C45.4723 86.8034 45.5109 86.7767 45.5519 86.7849L45.9915 86.8724L46.172 86.8707C46.2135 86.8707 46.2467 86.9039 46.2467 86.9454C46.2467 86.9868 46.2131 87.0201 46.172 87.0201ZM57.654 86.8264C57.6187 86.8264 57.5875 86.8014 57.5805 86.7656C57.5727 86.725 57.5994 86.686 57.64 86.6782L58.0803 86.5949C58.1205 86.5871 58.16 86.6138 58.1677 86.6544C58.1755 86.6951 58.1489 86.7341 58.1082 86.7419L57.6679 86.8252C57.6634 86.826 57.6585 86.8264 57.654 86.8264ZM44.512 86.7287C44.5071 86.7287 44.5022 86.7283 44.4973 86.7271L44.0578 86.6397C44.0175 86.6315 43.9909 86.5925 43.9991 86.5518C44.0073 86.5116 44.0459 86.4845 44.0869 86.4932L44.5264 86.5806C44.5666 86.5888 44.5933 86.6278 44.5851 86.6684C44.5781 86.7045 44.5469 86.7287 44.512 86.7287ZM59.1215 86.549C59.0862 86.549 59.055 86.5239 59.048 86.4882C59.0402 86.4476 59.0669 86.4086 59.1075 86.4008L59.5478 86.3175C59.5885 86.3101 59.6275 86.3364 59.6353 86.377C59.6431 86.4177 59.6164 86.4566 59.5757 86.4644L59.1354 86.5477C59.1309 86.5486 59.1264 86.549 59.1215 86.549ZM43.047 86.4378C43.0421 86.4378 43.0371 86.4373 43.0322 86.4361L42.5927 86.3487C42.5525 86.3405 42.5258 86.3015 42.534 86.2609C42.5418 86.2203 42.5808 86.1936 42.6218 86.2022L43.0614 86.2896C43.1016 86.2978 43.1283 86.3368 43.12 86.3774C43.1131 86.4131 43.0819 86.4378 43.047 86.4378ZM60.589 86.2711C60.5537 86.2711 60.5225 86.2461 60.5155 86.2104C60.5077 86.1698 60.5344 86.1308 60.575 86.123L61.0154 86.0397C61.056 86.0323 61.095 86.0586 61.1028 86.0992C61.1106 86.1398 61.0839 86.1788 61.0433 86.1866L60.6029 86.2699C60.5984 86.2707 60.5939 86.2711 60.589 86.2711ZM41.582 86.1464C41.577 86.1464 41.5721 86.146 41.5672 86.1448L41.1277 86.0573C41.0875 86.0491 41.0608 86.0101 41.069 85.9695C41.0772 85.9293 41.1158 85.9022 41.1568 85.9108L41.5963 85.9982C41.6365 86.0065 41.6632 86.0454 41.655 86.0861C41.648 86.1222 41.6172 86.1464 41.582 86.1464ZM62.0565 85.9937C62.0212 85.9937 61.99 85.9687 61.983 85.933C61.9752 85.8924 62.0019 85.8534 62.0425 85.8456L62.4829 85.7623C62.5235 85.7553 62.5625 85.7812 62.5703 85.8218C62.5781 85.8624 62.5514 85.9014 62.5108 85.9092L62.0704 85.9925C62.0659 85.9933 62.0614 85.9937 62.0565 85.9937ZM40.1173 85.8554C40.1124 85.8554 40.1075 85.855 40.1025 85.8538L39.663 85.7664C39.6228 85.7582 39.5961 85.7192 39.6043 85.6786C39.6126 85.6383 39.6511 85.6117 39.6922 85.6199L40.1317 85.7073C40.1719 85.7155 40.1986 85.7545 40.1904 85.7951C40.1834 85.8308 40.1522 85.8554 40.1173 85.8554ZM63.524 85.7159C63.4887 85.7159 63.4575 85.6909 63.4505 85.6552C63.4427 85.6145 63.4694 85.5756 63.51 85.5678L63.9504 85.4845C63.991 85.4771 64.03 85.5033 64.0378 85.544C64.0456 85.5846 64.0189 85.6236 63.9783 85.6314L63.5379 85.7147C63.5334 85.7155 63.5289 85.7159 63.524 85.7159ZM38.6523 85.5641C38.6473 85.5641 38.6424 85.5637 38.6375 85.5624L38.198 85.475C38.1578 85.4668 38.1311 85.4278 38.1393 85.3872C38.1475 85.3466 38.1861 85.3199 38.2271 85.3285L38.6666 85.4159C38.7069 85.4241 38.7335 85.4631 38.7253 85.5037C38.7183 85.5394 38.6872 85.5641 38.6523 85.5641ZM64.9919 85.4385C64.9566 85.4385 64.9254 85.4135 64.9184 85.3778C64.9107 85.3371 64.9373 85.2981 64.978 85.2903L65.4183 85.207C65.4589 85.1997 65.4979 85.2259 65.5057 85.2665C65.5135 85.3072 65.4868 85.3462 65.4462 85.354L65.0059 85.4373C65.0009 85.4381 64.9964 85.4385 64.9919 85.4385ZM37.1872 85.2731C37.1823 85.2731 37.1774 85.2727 37.1725 85.2715L36.7329 85.1841C36.6927 85.1758 36.666 85.1369 36.6743 85.0962C36.6821 85.056 36.7215 85.0293 36.7621 85.0376L37.2016 85.125C37.2418 85.1332 37.2685 85.1722 37.2603 85.2128C37.2533 85.2485 37.2225 85.2731 37.1872 85.2731ZM66.4594 85.1607C66.4241 85.1607 66.3929 85.1356 66.386 85.0999C66.3782 85.0593 66.4048 85.0203 66.4455 85.0125L66.8858 84.9292C66.9268 84.9218 66.9654 84.9481 66.9728 84.9887C66.9806 85.0293 66.9539 85.0683 66.9133 85.0761L66.4729 85.1594C66.4684 85.1603 66.4639 85.1607 66.4594 85.1607ZM35.7226 84.9817C35.7177 84.9817 35.7127 84.9813 35.7078 84.9801L35.2683 84.8927C35.2281 84.8845 35.2014 84.8455 35.2096 84.8049C35.2178 84.7642 35.2568 84.7376 35.2974 84.7462L35.737 84.8336C35.7776 84.8418 35.8038 84.8808 35.7956 84.9214C35.7887 84.9571 35.7575 84.9817 35.7226 84.9817ZM67.9269 84.8833C67.8916 84.8833 67.8604 84.8582 67.8535 84.8225C67.8457 84.7819 67.8723 84.7429 67.913 84.7351L68.3533 84.6518C68.3943 84.6448 68.4329 84.6707 68.4407 84.7113C68.4485 84.7519 68.4218 84.7909 68.3812 84.7987L67.9409 84.882C67.9359 84.8828 67.9314 84.8833 67.9269 84.8833ZM34.2575 84.6908C34.2526 84.6908 34.2477 84.6904 34.2428 84.6891L33.8033 84.6017C33.763 84.5935 33.7364 84.5545 33.7446 84.5139C33.7528 84.4737 33.7918 84.447 33.8324 84.4552L34.2719 84.5426C34.3121 84.5508 34.3388 84.5898 34.3306 84.6305C34.3236 84.6662 34.2924 84.6908 34.2575 84.6908ZM69.3944 84.6054C69.3591 84.6054 69.3279 84.5804 69.321 84.5447C69.3132 84.5041 69.3398 84.4651 69.3805 84.4573L69.8208 84.374C69.8618 84.3666 69.9004 84.3929 69.9082 84.4335C69.916 84.4741 69.8893 84.5131 69.8487 84.5209L69.4084 84.6042C69.4035 84.605 69.3989 84.6054 69.3944 84.6054ZM32.7925 84.3994C32.7876 84.3994 32.7826 84.399 32.7777 84.3978L32.3382 84.3104C32.298 84.3022 32.2713 84.2632 32.2795 84.2225C32.2873 84.1819 32.3263 84.1552 32.3673 84.1639L32.8069 84.2513C32.8471 84.2595 32.8738 84.2985 32.8655 84.3391C32.859 84.3748 32.8278 84.3994 32.7925 84.3994ZM70.8619 84.328C70.8266 84.328 70.7955 84.303 70.7885 84.2673C70.7807 84.2267 70.8074 84.1877 70.848 84.1799L71.2883 84.0966C71.3285 84.0892 71.3679 84.1154 71.3757 84.1561C71.3835 84.1967 71.3568 84.2357 71.3162 84.2435L70.8759 84.3268C70.871 84.3272 70.8665 84.328 70.8619 84.328ZM31.3279 84.108C31.3229 84.108 31.318 84.1076 31.3131 84.1064L30.8736 84.019C30.8334 84.0108 30.8067 83.9718 30.8149 83.9312C30.8231 83.891 30.8617 83.8643 30.9027 83.8725L31.3422 83.9599C31.3824 83.9681 31.4091 84.0071 31.4009 84.0477C31.3939 84.0838 31.3627 84.108 31.3279 84.108ZM72.3294 84.0502C72.2942 84.0502 72.263 84.0252 72.256 83.9895C72.2482 83.9488 72.2749 83.9098 72.3155 83.9024L72.7558 83.8191C72.796 83.8118 72.8354 83.838 72.8432 83.8787C72.851 83.9193 72.8244 83.9583 72.7837 83.9661L72.3434 84.0494C72.3385 84.0498 72.334 84.0502 72.3294 84.0502ZM29.8628 83.8171C29.8579 83.8171 29.853 83.8167 29.848 83.8155L29.4085 83.728C29.3683 83.7198 29.3416 83.6808 29.3498 83.6402C29.3581 83.6 29.3966 83.5733 29.4377 83.5815L29.8772 83.6689C29.9174 83.6772 29.9441 83.7161 29.9359 83.7568C29.9289 83.7925 29.8977 83.8171 29.8628 83.8171ZM73.797 83.7724C73.7617 83.7724 73.7305 83.7473 73.7235 83.7116C73.7157 83.671 73.7424 83.632 73.783 83.6242L74.2233 83.5409C74.264 83.5331 74.3029 83.5598 74.3103 83.6004C74.3181 83.641 74.2915 83.68 74.2508 83.6878L73.8105 83.7711C73.8064 83.7719 73.8015 83.7724 73.797 83.7724ZM28.3982 83.5257C28.3933 83.5257 28.3883 83.5253 28.3834 83.5241L27.9439 83.4367C27.9037 83.4285 27.877 83.3895 27.8852 83.3489C27.8934 83.3086 27.932 83.2816 27.973 83.2902L28.4125 83.3776C28.4528 83.3858 28.4794 83.4248 28.4712 83.4654C28.4643 83.5011 28.4331 83.5257 28.3982 83.5257ZM75.2645 83.4949C75.2292 83.4949 75.198 83.4699 75.191 83.4342C75.1832 83.3936 75.2099 83.3546 75.2505 83.3468L75.6908 83.2635C75.7315 83.2561 75.7705 83.2824 75.7782 83.323C75.786 83.3636 75.7594 83.4026 75.7187 83.4104L75.2784 83.4937C75.2739 83.4945 75.269 83.4949 75.2645 83.4949ZM26.9331 83.2348C26.9282 83.2348 26.9233 83.2344 26.9184 83.2331L26.4788 83.1457C26.4386 83.1375 26.412 83.0985 26.4202 83.0579C26.4284 83.0177 26.467 82.991 26.508 82.9992L26.9475 83.0866C26.9877 83.0948 27.0144 83.1338 27.0062 83.1744C26.9992 83.2101 26.968 83.2348 26.9331 83.2348ZM76.732 83.2171C76.6967 83.2171 76.6655 83.1921 76.6585 83.1564C76.6507 83.1158 76.6774 83.0768 76.718 83.069L77.1583 82.9857C77.199 82.9783 77.238 83.0045 77.2458 83.0452C77.2536 83.0858 77.2269 83.1248 77.1863 83.1326L76.7459 83.2159C76.7414 83.2167 76.7365 83.2171 76.732 83.2171ZM25.4681 82.9434C25.4632 82.9434 25.4582 82.943 25.4533 82.9418L25.0138 82.8543C24.9736 82.8461 24.9469 82.8072 24.9551 82.7665C24.9633 82.7263 25.0019 82.6992 25.0429 82.7078L25.4825 82.7953C25.5227 82.8035 25.5493 82.8425 25.5411 82.8831C25.5342 82.9188 25.503 82.9434 25.4681 82.9434ZM78.1995 82.9397C78.1642 82.9397 78.133 82.9147 78.126 82.879C78.1182 82.8383 78.1449 82.7994 78.1855 82.7916L78.6259 82.7083C78.6665 82.7013 78.7055 82.7271 78.7133 82.7678C78.7211 82.8084 78.6944 82.8474 78.6538 82.8552L78.2134 82.9385C78.2089 82.9393 78.204 82.9397 78.1995 82.9397ZM79.667 82.6619C79.6317 82.6619 79.6005 82.6368 79.5935 82.6011C79.5857 82.5605 79.6124 82.5215 79.653 82.5137L80.0934 82.4304C80.134 82.4226 80.173 82.4493 80.1808 82.4899C80.1886 82.5306 80.1619 82.5695 80.1213 82.5773L79.6809 82.6606C79.6764 82.6615 79.6715 82.6619 79.667 82.6619ZM24.0035 82.6524C23.9985 82.6524 23.9936 82.652 23.9887 82.6508L23.5492 82.5634C23.509 82.5552 23.4823 82.5162 23.4905 82.4756C23.4983 82.4354 23.5377 82.4087 23.5783 82.4169L24.0178 82.5043C24.058 82.5125 24.0847 82.5515 24.0765 82.5921C24.0695 82.6278 24.0383 82.6524 24.0035 82.6524ZM81.1345 82.3845C81.0992 82.3845 81.068 82.3594 81.061 82.3237C81.0532 82.2831 81.0799 82.2441 81.1205 82.2363L81.5609 82.153C81.6015 82.1456 81.6405 82.1719 81.6483 82.2125C81.6561 82.2531 81.6294 82.2921 81.5888 82.2995L81.1484 82.3828C81.1439 82.3841 81.139 82.3845 81.1345 82.3845ZM22.5384 82.3611C22.5335 82.3611 22.5286 82.3607 22.5236 82.3594L22.0841 82.272C22.0439 82.2638 22.0172 82.2248 22.0254 82.1842C22.0336 82.144 22.0722 82.1169 22.1133 82.1255L22.5528 82.2129C22.593 82.2211 22.6197 82.2601 22.6115 82.3007C22.6045 82.3364 22.5733 82.3611 22.5384 82.3611ZM82.602 82.1066C82.5667 82.1066 82.5355 82.0816 82.5285 82.0459C82.5207 82.0053 82.5474 81.9663 82.5881 81.9585L83.0284 81.8752C83.0694 81.8678 83.108 81.8941 83.1154 81.9347C83.1232 81.9753 83.0965 82.0143 83.0559 82.0221L82.6155 82.1054C82.6114 82.1062 82.6065 82.1066 82.602 82.1066ZM21.0734 82.0701C21.0684 82.0701 21.0635 82.0697 21.0586 82.0685L20.6191 81.9811C20.5789 81.9729 20.5522 81.9339 20.5604 81.8932C20.5686 81.853 20.6076 81.8264 20.6482 81.8346L21.0877 81.922C21.1279 81.9302 21.1546 81.9692 21.1464 82.0098C21.1394 82.0455 21.1082 82.0701 21.0734 82.0701ZM84.0695 81.8292C84.0342 81.8292 84.003 81.8042 83.996 81.7685C83.9883 81.7279 84.0149 81.6889 84.0556 81.6815L84.4959 81.5982C84.5361 81.5912 84.5755 81.6171 84.5833 81.6577C84.5911 81.6983 84.5644 81.7373 84.5238 81.7451L84.0835 81.8284C84.0789 81.8288 84.074 81.8292 84.0695 81.8292ZM19.6087 81.7787C19.6038 81.7787 19.5989 81.7783 19.594 81.7771L19.1544 81.6897C19.1142 81.6815 19.0876 81.6425 19.0958 81.6019C19.1036 81.5617 19.1425 81.5346 19.1836 81.5432L19.6231 81.6306C19.6633 81.6388 19.69 81.6778 19.6818 81.7184C19.6748 81.7541 19.6436 81.7787 19.6087 81.7787ZM85.537 81.5514C85.5017 81.5514 85.4705 81.5264 85.4636 81.4907C85.4558 81.45 85.4824 81.4111 85.5231 81.4033L85.9634 81.32C86.0036 81.3126 86.043 81.3388 86.0508 81.3795C86.0586 81.4201 86.0319 81.4591 85.9913 81.4669L85.551 81.5502C85.5465 81.551 85.5419 81.5514 85.537 81.5514ZM18.1437 81.4878C18.1388 81.4878 18.1338 81.4874 18.1289 81.4862L17.6894 81.3987C17.6492 81.3905 17.6225 81.3515 17.6307 81.3109C17.6389 81.2707 17.6775 81.244 17.7185 81.2522L18.1581 81.3396C18.1983 81.3479 18.2249 81.3868 18.2167 81.4275C18.2098 81.4632 18.1786 81.4878 18.1437 81.4878ZM87.0045 81.274C86.9692 81.274 86.938 81.2489 86.9311 81.2132C86.9233 81.1726 86.9499 81.1336 86.9906 81.1258L87.4309 81.0425C87.4715 81.0351 87.5105 81.0614 87.5183 81.102C87.5261 81.1427 87.4994 81.1817 87.4588 81.1895L87.0185 81.2728C87.014 81.2736 87.0094 81.274 87.0045 81.274ZM16.6786 81.1964C16.6737 81.1964 16.6688 81.196 16.6639 81.1948L16.2244 81.1074C16.1841 81.0992 16.1575 81.0602 16.1657 81.0196C16.1739 80.9789 16.2125 80.9523 16.2535 80.9609L16.693 81.0483C16.7332 81.0565 16.7599 81.0955 16.7517 81.1361C16.7447 81.1718 16.7139 81.1964 16.6786 81.1964ZM15.214 80.9051C15.2091 80.9051 15.2042 80.9047 15.1992 80.9034L14.7597 80.816C14.7195 80.8078 14.6928 80.7688 14.701 80.7282C14.7092 80.688 14.7478 80.6613 14.7889 80.6695L15.2284 80.7569C15.2686 80.7651 15.2953 80.8041 15.2871 80.8447C15.2801 80.8804 15.2489 80.9051 15.214 80.9051ZM13.749 80.6141C13.744 80.6141 13.7391 80.6137 13.7342 80.6125L13.2947 80.5251C13.2545 80.5168 13.2278 80.4779 13.236 80.4372C13.2438 80.397 13.2828 80.3699 13.3238 80.3785L13.7633 80.466C13.8035 80.4742 13.8302 80.5132 13.822 80.5538C13.815 80.5895 13.7838 80.6141 13.749 80.6141ZM87.6624 80.317C87.6624 80.317 87.6619 80.317 87.6624 80.317C87.6209 80.317 87.5877 80.2833 87.5877 80.2419L87.5881 79.9714L87.5877 79.7942C87.5877 79.7527 87.6209 79.7195 87.6619 79.7195H87.6624C87.7034 79.7195 87.737 79.7527 87.737 79.7938L87.7375 79.971L87.737 80.2423C87.7366 80.2837 87.7034 80.317 87.6624 80.317ZM12.753 79.9181C12.7136 79.9181 12.6803 79.8869 12.6783 79.8471C12.6713 79.7035 12.6643 79.5537 12.6578 79.399C12.6561 79.3579 12.6877 79.3231 12.7292 79.321C12.771 79.3198 12.8051 79.351 12.8071 79.3924C12.8141 79.5467 12.8211 79.6961 12.8277 79.8397C12.8297 79.8808 12.7977 79.9161 12.7567 79.9181C12.7554 79.9181 12.7542 79.9181 12.753 79.9181ZM87.6509 78.8236C87.6102 78.8236 87.577 78.7912 87.5762 78.7506C87.5733 78.6012 87.57 78.4522 87.5659 78.3037C87.5651 78.2622 87.5975 78.2282 87.6385 78.2269C87.6837 78.2241 87.7141 78.2585 87.7153 78.2996C87.719 78.4489 87.7227 78.5979 87.7256 78.7477C87.7264 78.7887 87.6935 78.8232 87.6525 78.824C87.6517 78.8236 87.6513 78.8236 87.6509 78.8236ZM12.6885 78.4256C12.6487 78.4256 12.6155 78.394 12.6139 78.3537L12.597 77.9056C12.5954 77.8646 12.6278 77.8297 12.6688 77.8285C12.7082 77.8268 12.7448 77.8592 12.746 77.9003L12.7628 78.348C12.7645 78.389 12.7325 78.4239 12.691 78.4256C12.6906 78.4256 12.6898 78.4256 12.6885 78.4256ZM87.6053 77.3315C87.5655 77.3315 87.5323 77.2999 87.5306 77.2597C87.5245 77.1107 87.5179 76.9622 87.5109 76.8136C87.5089 76.7726 87.5409 76.7373 87.5819 76.7356C87.623 76.7323 87.6582 76.7656 87.6599 76.8066C87.6669 76.9556 87.6734 77.1046 87.6796 77.2535C87.6812 77.2946 87.6492 77.3294 87.6082 77.3311C87.6074 77.3315 87.6066 77.3315 87.6053 77.3315ZM12.6372 76.9326C12.597 76.9326 12.5638 76.9006 12.5626 76.8604L12.5494 76.4122C12.5482 76.3708 12.5806 76.3367 12.6221 76.3355C12.6643 76.3363 12.6976 76.3667 12.6988 76.4082L12.7119 76.8559C12.7132 76.8969 12.6807 76.9314 12.6397 76.9326C12.6389 76.9326 12.6381 76.9326 12.6372 76.9326ZM87.5286 75.841C87.4896 75.841 87.4563 75.8106 87.4543 75.7708C87.4453 75.6215 87.4354 75.4725 87.4256 75.3239C87.4227 75.2829 87.4539 75.2472 87.4949 75.2443C87.5376 75.2435 87.5717 75.2726 87.5745 75.3137C87.5844 75.4626 87.5942 75.6116 87.6033 75.7614C87.6057 75.8024 87.5745 75.8381 87.5335 75.8406C87.5319 75.8406 87.5302 75.841 87.5286 75.841ZM12.5987 75.4392C12.558 75.4392 12.5248 75.4068 12.524 75.3662L12.515 74.9177C12.5141 74.8766 12.547 74.8426 12.5884 74.8417C12.6278 74.8385 12.6635 74.8737 12.6643 74.9152L12.6734 75.3629C12.6742 75.4044 12.6414 75.4384 12.6003 75.4392C12.5999 75.4392 12.5995 75.4392 12.5987 75.4392ZM87.4227 74.3505C87.3841 74.3505 87.3513 74.321 87.3484 74.282C87.3365 74.1326 87.3242 73.9841 87.3115 73.8355C87.3078 73.7945 87.3386 73.7583 87.3796 73.7546C87.4198 73.7497 87.4568 73.7817 87.4605 73.8228C87.4732 73.9713 87.4855 74.1203 87.4978 74.2697C87.5011 74.3107 87.4703 74.3468 87.4293 74.3501C87.4268 74.3505 87.4247 74.3505 87.4227 74.3505ZM12.5741 73.9455C12.533 73.9455 12.4998 73.9126 12.4994 73.8716L12.4944 73.4231C12.494 73.382 12.5273 73.348 12.5683 73.3476C12.5687 73.3476 12.5687 73.3476 12.5691 73.3476C12.6102 73.3476 12.6434 73.3804 12.6438 73.4214L12.6487 73.8696C12.6492 73.9106 12.6163 73.9447 12.5749 73.9451C12.5745 73.9455 12.5741 73.9455 12.5741 73.9455ZM87.2901 72.8621C87.252 72.8621 87.2196 72.8334 87.2159 72.7948C87.2011 72.6458 87.1863 72.4973 87.1711 72.3491C87.167 72.3081 87.197 72.2715 87.2376 72.267C87.2791 72.2629 87.3152 72.2925 87.3197 72.3335C87.3349 72.4817 87.3501 72.6306 87.3644 72.7796C87.3685 72.8206 87.3386 72.8572 87.2975 72.8613C87.2947 72.8621 87.2922 72.8621 87.2901 72.8621ZM12.5634 72.4517C12.5223 72.4517 12.4887 72.4185 12.4887 72.377L12.4883 72.1205V71.9293C12.4883 71.8883 12.5219 71.8546 12.563 71.8546C12.6044 71.8546 12.6377 71.8878 12.6377 71.9293V72.1209L12.6381 72.3774C12.6381 72.4181 12.6048 72.4517 12.5634 72.4517C12.5638 72.4517 12.5634 72.4517 12.5634 72.4517ZM87.1321 71.3765C87.0948 71.3765 87.0624 71.3486 87.0579 71.3105C87.0406 71.1615 87.0234 71.0129 87.0058 70.8656C87.0008 70.8246 87.03 70.7876 87.071 70.7827C87.1133 70.777 87.149 70.8069 87.1539 70.848C87.1715 70.9957 87.1888 71.1442 87.206 71.2936C87.2109 71.3347 87.1814 71.3716 87.1404 71.3765C87.1379 71.3761 87.135 71.3765 87.1321 71.3765ZM12.5691 70.9588C12.5687 70.9588 12.5687 70.9588 12.5683 70.9588C12.5273 70.9583 12.494 70.9247 12.4944 70.8832C12.4957 70.7343 12.4973 70.5853 12.4994 70.4355C12.4998 70.3945 12.533 70.3617 12.5741 70.3617C12.5745 70.3617 12.5745 70.3617 12.5749 70.3617C12.6159 70.3621 12.6492 70.3961 12.6487 70.4372C12.6467 70.5865 12.645 70.7359 12.6438 70.8845C12.6434 70.9255 12.6098 70.9588 12.5691 70.9588ZM86.9503 69.8934C86.9134 69.8934 86.8814 69.8659 86.8765 69.8286C86.8572 69.6796 86.8375 69.5315 86.8174 69.3845C86.812 69.3435 86.8408 69.3062 86.8814 69.3004C86.9233 69.2947 86.9598 69.3238 86.9655 69.3644C86.9852 69.5114 87.0049 69.6599 87.0246 69.8089C87.03 69.8499 87.0012 69.8873 86.9602 69.8926C86.9569 69.893 86.9536 69.8934 86.9503 69.8934ZM12.5921 69.4658C12.5917 69.4658 12.5909 69.4658 12.5905 69.4658C12.5494 69.465 12.5166 69.4309 12.5174 69.3895C12.5207 69.2401 12.5244 69.0907 12.5281 68.9413C12.5289 68.8999 12.5622 68.865 12.6048 68.8687C12.6459 68.8699 12.6787 68.904 12.6775 68.9454C12.6738 69.0948 12.6701 69.2438 12.6668 69.3932C12.6656 69.4334 12.6323 69.4658 12.5921 69.4658ZM86.746 68.4132C86.7095 68.4132 86.6775 68.3865 86.6721 68.3492C86.6504 68.2002 86.6286 68.0525 86.6065 67.906C86.6003 67.8653 86.6286 67.8272 86.6692 67.821C86.7103 67.8157 86.748 67.8432 86.7542 67.8838C86.7764 68.0303 86.7981 68.1784 86.8199 68.3274C86.826 68.3685 86.7977 68.4062 86.7567 68.412C86.753 68.4128 86.7493 68.4132 86.746 68.4132ZM12.6352 67.9724C12.6344 67.9724 12.6336 67.9724 12.6323 67.9724C12.5913 67.9708 12.5589 67.9363 12.5605 67.8953C12.5658 67.7455 12.5716 67.5961 12.5777 67.4467C12.5794 67.4053 12.6176 67.3737 12.6553 67.3753C12.6963 67.377 12.7284 67.4119 12.7267 67.4529C12.7206 67.6019 12.7148 67.7512 12.7095 67.9006C12.7082 67.9408 12.675 67.9724 12.6352 67.9724ZM86.5195 66.9362C86.4833 66.9362 86.4518 66.91 86.4456 66.8735C86.4218 66.7245 86.3976 66.5767 86.3734 66.4315C86.3668 66.3908 86.3943 66.3523 86.4349 66.3457C86.4764 66.3387 86.5141 66.3666 86.5207 66.4073C86.5449 66.553 86.5687 66.7007 86.5929 66.8501C86.5995 66.8907 86.5716 66.9293 86.5309 66.9358C86.5273 66.9358 86.5236 66.9362 86.5195 66.9362ZM12.7013 66.4791C12.7 66.4791 12.6984 66.4791 12.6972 66.4791C12.6561 66.477 12.6241 66.4417 12.6266 66.4007C12.6348 66.2509 12.643 66.1011 12.6516 65.9522C12.6541 65.9111 12.6885 65.8795 12.7304 65.882C12.7714 65.8844 12.803 65.9197 12.8006 65.9608C12.792 66.1097 12.7833 66.2591 12.7755 66.4085C12.7739 66.4483 12.7407 66.4791 12.7013 66.4791ZM86.2716 65.4626C86.2359 65.4626 86.2043 65.4371 86.1981 65.401C86.1719 65.2516 86.146 65.1047 86.1197 64.9599C86.1124 64.9192 86.1395 64.8803 86.1801 64.8733C86.2207 64.8659 86.2597 64.893 86.2667 64.9336C86.2925 65.0785 86.3188 65.2258 86.345 65.3752C86.352 65.4158 86.3249 65.4544 86.2843 65.4618C86.2802 65.4622 86.2761 65.4626 86.2716 65.4626ZM12.7952 64.9874C12.7936 64.9874 12.7916 64.9874 12.7895 64.9869C12.7485 64.9841 12.7173 64.948 12.7206 64.9069C12.7316 64.7571 12.7427 64.6082 12.7546 64.4596C12.7579 64.4186 12.7928 64.389 12.8351 64.3911C12.8761 64.3944 12.9069 64.4305 12.9036 64.4715C12.8917 64.6197 12.8802 64.7682 12.8695 64.918C12.8667 64.9574 12.8338 64.9874 12.7952 64.9874ZM86.0028 63.9926C85.9675 63.9926 85.9363 63.9676 85.9293 63.9319C85.9006 63.7817 85.8727 63.6352 85.8448 63.492C85.837 63.4513 85.8633 63.4123 85.9039 63.4045C85.9437 63.3959 85.9835 63.423 85.9913 63.4636C86.0192 63.6073 86.0475 63.7538 86.0763 63.9044C86.0841 63.945 86.0574 63.984 86.0167 63.9918C86.0122 63.9922 86.0073 63.9926 86.0028 63.9926ZM12.9216 63.4985C12.9192 63.4985 12.9167 63.4985 12.9143 63.4981C12.8732 63.494 12.8433 63.4575 12.8474 63.4164C12.8621 63.2666 12.8773 63.1177 12.8929 62.97C12.8974 62.9289 12.9331 62.8994 12.975 62.9035C13.016 62.908 13.0456 62.9445 13.0415 62.9855C13.0259 63.1329 13.0107 63.2814 12.9959 63.4308C12.9922 63.4698 12.9598 63.4985 12.9216 63.4985ZM85.7122 62.5263C85.6774 62.5263 85.6466 62.5021 85.6392 62.4668C85.608 62.3146 85.5772 62.1685 85.5477 62.0281C85.5391 61.9879 85.5649 61.9481 85.6051 61.9395C85.6458 61.9313 85.6852 61.9567 85.6938 61.9969C85.7233 62.1373 85.7541 62.2838 85.7857 62.4365C85.7939 62.4767 85.7681 62.5165 85.7278 62.5247C85.7225 62.5259 85.7172 62.5263 85.7122 62.5263ZM13.0899 62.0146C13.0866 62.0146 13.0833 62.0142 13.08 62.0138C13.039 62.0084 13.0103 61.9711 13.0156 61.9301C13.0349 61.7803 13.0554 61.6321 13.0759 61.4848C13.0817 61.4442 13.1194 61.4163 13.1605 61.4212C13.2011 61.4269 13.2298 61.4647 13.2241 61.5057C13.2032 61.6522 13.1831 61.8 13.1638 61.9489C13.1592 61.9871 13.1268 62.0146 13.0899 62.0146ZM85.2333 61.2258C85.2305 61.2258 85.2276 61.2258 85.2247 61.2254C85.0807 61.2086 84.9325 61.1918 84.7799 61.1754C84.7388 61.1709 84.7093 61.1339 84.7138 61.0929C84.7183 61.0518 84.754 61.0223 84.7963 61.0268C84.9493 61.0436 85.0979 61.0605 85.242 61.0773C85.283 61.0822 85.3121 61.1191 85.3076 61.1602C85.3031 61.1979 85.2707 61.2258 85.2333 61.2258ZM83.7478 61.0711C83.7453 61.0711 83.7433 61.0711 83.7408 61.0707C83.5951 61.0572 83.4466 61.044 83.2947 61.0305C83.2537 61.0268 83.2233 60.9907 83.227 60.9497C83.2307 60.9086 83.2672 60.8787 83.3078 60.8819C83.4597 60.8951 83.6087 60.9086 83.7543 60.9222C83.7954 60.9259 83.8257 60.9624 83.822 61.0034C83.8184 61.042 83.7859 61.0711 83.7478 61.0711ZM82.2593 60.9456C82.2573 60.9456 82.2556 60.9456 82.2536 60.9451C82.1071 60.9341 81.9581 60.9226 81.8071 60.9119C81.7661 60.909 81.7349 60.8733 81.7382 60.8319C81.741 60.7908 81.7776 60.7605 81.8182 60.7629C81.9696 60.774 82.1186 60.7851 82.2655 60.7962C82.3065 60.7995 82.3373 60.8352 82.3344 60.8762C82.3307 60.916 82.2983 60.9456 82.2593 60.9456ZM80.7693 60.8405C80.7676 60.8405 80.766 60.8405 80.7643 60.8405L80.3174 60.8118C80.2764 60.8093 80.2452 60.7736 80.2477 60.7326C80.2501 60.6915 80.2838 60.6612 80.3269 60.6628L80.7742 60.6915C80.8152 60.6944 80.8464 60.7297 80.8439 60.7711C80.8411 60.8101 80.8082 60.8405 80.7693 60.8405ZM79.2784 60.7498C79.2767 60.7498 79.2755 60.7498 79.2743 60.7498L78.8269 60.7248C78.7859 60.7227 78.7543 60.6874 78.7564 60.646C78.7584 60.6045 78.7937 60.5742 78.8351 60.5754L79.2829 60.6004C79.3239 60.6025 79.3555 60.6382 79.353 60.6792C79.3506 60.719 79.3177 60.7498 79.2784 60.7498ZM77.7866 60.6706C77.7854 60.6706 77.7842 60.6706 77.7829 60.6706L77.3356 60.6489C77.2946 60.6468 77.2626 60.6119 77.2646 60.5705C77.2667 60.5294 77.3024 60.4974 77.3426 60.4995L77.7903 60.5212C77.8314 60.5233 77.8634 60.5582 77.8613 60.5996C77.8593 60.6394 77.8264 60.6706 77.7866 60.6706ZM76.2949 60.6004C76.2937 60.6004 76.2929 60.6004 76.2916 60.6004L75.8439 60.5811C75.8029 60.5795 75.7709 60.5446 75.7725 60.5032C75.7741 60.4621 75.8111 60.4305 75.8505 60.4318L76.2982 60.4511C76.3392 60.4527 76.3713 60.4876 76.3696 60.529C76.3676 60.5692 76.3347 60.6004 76.2949 60.6004ZM74.8028 60.5381C74.802 60.5381 74.8007 60.5381 74.7999 60.5381L74.3522 60.5208C74.3111 60.5192 74.2787 60.4847 74.2804 60.4433C74.282 60.4018 74.3198 60.3682 74.3579 60.3714L74.8057 60.3887C74.8467 60.3903 74.8791 60.4252 74.8775 60.4662C74.8754 60.5065 74.8426 60.5381 74.8028 60.5381ZM13.3127 60.5372C13.3086 60.5372 13.3041 60.5368 13.3 60.536C13.2594 60.529 13.2323 60.4905 13.2393 60.4498L13.2643 60.3087C13.2873 60.1798 13.3936 60.0887 13.5224 60.087L13.5614 60.0866C13.607 60.0809 13.6365 60.1186 13.6373 60.1601C13.6382 60.2011 13.6049 60.2352 13.5639 60.236L13.5249 60.2364C13.4674 60.2372 13.4219 60.2766 13.4116 60.3349L13.387 60.4753C13.38 60.5118 13.3484 60.5372 13.3127 60.5372ZM73.3098 60.4822C73.309 60.4822 73.3082 60.4822 73.307 60.4822L72.8592 60.4666C72.8178 60.4654 72.7858 60.4305 72.787 60.3895C72.7887 60.3485 72.8231 60.3144 72.8642 60.3173L73.3119 60.3329C73.3529 60.3345 73.3853 60.369 73.3837 60.41C73.3829 60.4506 73.3501 60.4822 73.3098 60.4822ZM71.8173 60.4322C71.8165 60.4322 71.8157 60.4322 71.8148 60.4322L71.3671 60.4182C71.3261 60.417 71.2936 60.3825 71.2949 60.3415C71.2961 60.3004 71.3298 60.2701 71.372 60.2693L71.8198 60.2832C71.8608 60.2844 71.8932 60.3189 71.892 60.3604C71.8903 60.4006 71.8571 60.4322 71.8173 60.4322ZM70.3239 60.387C70.3231 60.387 70.3223 60.387 70.3219 60.387L69.8742 60.3743C69.8327 60.3731 69.8003 60.3386 69.8015 60.2976C69.8028 60.2561 69.8368 60.2217 69.8783 60.2249L70.3264 60.2377C70.3674 60.2389 70.4003 60.2734 70.399 60.3144C70.3974 60.355 70.3641 60.387 70.3239 60.387ZM68.831 60.3464C68.8302 60.3464 68.8298 60.3464 68.8289 60.3464L68.3812 60.3349C68.3402 60.3337 68.3073 60.2996 68.3086 60.2582C68.3098 60.2171 68.3373 60.1868 68.3853 60.1855L68.8334 60.197C68.8745 60.1983 68.9073 60.2323 68.9061 60.2738C68.9044 60.314 68.8712 60.3464 68.831 60.3464ZM67.3376 60.3095C67.3372 60.3095 67.3364 60.3095 67.336 60.3095L66.8883 60.2992C66.8468 60.2984 66.8144 60.2639 66.8152 60.2229C66.816 60.1818 66.8443 60.1498 66.8915 60.1498L67.3397 60.1601C67.3807 60.1609 67.4135 60.1954 67.4127 60.2364C67.4115 60.2771 67.3782 60.3095 67.3376 60.3095ZM65.8447 60.2758C65.8443 60.2758 65.8434 60.2758 65.843 60.2758L65.3953 60.2664C65.3543 60.2656 65.3214 60.2315 65.3223 60.1901C65.3231 60.1486 65.3612 60.1158 65.3986 60.117L65.8467 60.1264C65.8878 60.1273 65.9206 60.1613 65.9198 60.2028C65.9185 60.2434 65.8849 60.2758 65.8447 60.2758ZM64.3513 60.2459C64.3509 60.2459 64.3505 60.2459 64.3497 60.2459L63.9015 60.2372C63.8605 60.2364 63.8277 60.2024 63.8281 60.1613C63.8289 60.1203 63.8605 60.0838 63.904 60.0879L64.3521 60.0965C64.3932 60.0973 64.426 60.1314 64.4252 60.1728C64.4252 60.2134 64.3919 60.2459 64.3513 60.2459ZM14.6083 60.2229C14.5673 60.2229 14.534 60.1901 14.5336 60.149C14.5332 60.108 14.566 60.0739 14.6075 60.0735L15.0556 60.0682C15.0909 60.0674 15.1307 60.1006 15.1311 60.142C15.1315 60.1831 15.0987 60.2171 15.0572 60.2176L14.6091 60.2229C14.6091 60.2229 14.6087 60.2229 14.6083 60.2229ZM62.8579 60.2188C62.8575 60.2188 62.8571 60.2188 62.8567 60.2188L62.409 60.2114C62.368 60.2106 62.3347 60.1769 62.3355 60.1355C62.3363 60.0944 62.3696 60.062 62.4102 60.062C62.4106 60.062 62.411 60.062 62.4115 60.062L62.8596 60.0694C62.9006 60.0702 62.9339 60.1043 62.933 60.1453C62.9318 60.186 62.8986 60.2188 62.8579 60.2188ZM16.1029 60.2052C16.0623 60.2052 16.0286 60.1724 16.0282 60.1314C16.0278 60.0899 16.0606 60.0563 16.1021 60.0559L16.5502 60.0509C16.5925 60.0468 16.6253 60.0834 16.6257 60.1248C16.6261 60.1663 16.5933 60.1999 16.5518 60.2003L16.1037 60.2052C16.1033 60.2052 16.1033 60.2052 16.1029 60.2052ZM61.3646 60.1942C61.3642 60.1942 61.3638 60.1942 61.3633 60.1942L60.9152 60.1872C60.8738 60.1864 60.8409 60.1527 60.8418 60.1113C60.8426 60.0698 60.8717 60.0353 60.9177 60.0378L61.3658 60.0448C61.4068 60.0456 61.4401 60.0793 61.4393 60.1207C61.4384 60.1617 61.4052 60.1942 61.3646 60.1942ZM17.5971 60.1888C17.556 60.1888 17.5228 60.156 17.5224 60.115C17.522 60.0739 17.5548 60.0399 17.5962 60.0394L18.0444 60.0345C18.0899 60.0362 18.1195 60.0674 18.1199 60.1084C18.1203 60.1494 18.0871 60.1835 18.046 60.1839L17.5979 60.1888C17.5975 60.1888 17.5975 60.1888 17.5971 60.1888ZM19.0912 60.1736C19.0502 60.1736 19.017 60.1408 19.0166 60.0998C19.0161 60.0587 19.0494 60.0247 19.0904 60.0243L19.5386 60.0197C19.5845 60.0226 19.6137 60.0526 19.6141 60.0936C19.6145 60.1347 19.5812 60.1687 19.5402 60.1691L19.0921 60.1736C19.0917 60.1736 19.0917 60.1736 19.0912 60.1736ZM59.8708 60.1724C59.8704 60.1724 59.87 60.1724 59.8696 60.1724L59.4214 60.1663C59.3804 60.1658 59.3472 60.1318 59.348 60.0907C59.3484 60.0497 59.382 60.0173 59.4227 60.0173C59.4231 60.0173 59.4235 60.0173 59.4235 60.0173L59.8716 60.0234C59.9131 60.0239 59.9459 60.0579 59.9451 60.099C59.9451 60.1396 59.9118 60.1724 59.8708 60.1724ZM20.5854 60.1589C20.5444 60.1589 20.5112 60.126 20.5107 60.085C20.5103 60.0436 20.5436 60.0099 20.5846 60.0095L21.0327 60.0054C21.0787 60.0091 21.1078 60.0382 21.1082 60.0793C21.1087 60.1203 21.0754 60.1544 21.0344 60.1548L20.5862 60.1589C20.5858 60.1589 20.5858 60.1589 20.5854 60.1589ZM58.3774 60.1527C58.377 60.1527 58.377 60.1527 58.3766 60.1527L57.9285 60.1474C57.8875 60.147 57.8542 60.1129 57.8546 60.0719C57.855 60.0304 57.8871 59.9943 57.9301 59.998L58.3783 60.0033C58.4193 60.0037 58.4525 60.0378 58.4521 60.0788C58.4517 60.1199 58.4185 60.1527 58.3774 60.1527ZM22.0796 60.1453C22.0386 60.1453 22.0053 60.1121 22.0049 60.0715C22.0045 60.0304 22.0378 59.9964 22.0788 59.9959L22.5269 59.9918C22.5273 59.9918 22.5273 59.9918 22.5277 59.9918C22.5688 59.9918 22.602 60.0251 22.6024 60.0657C22.6028 60.1072 22.5696 60.1408 22.5286 60.1412L22.0804 60.1453C22.08 60.1453 22.08 60.1453 22.0796 60.1453ZM56.8841 60.1355C56.8837 60.1355 56.8837 60.1355 56.8833 60.1355L56.4351 60.1306C56.3941 60.1301 56.3609 60.0965 56.3613 60.055C56.3617 60.0136 56.3978 59.9791 56.4368 59.9812L56.8849 59.9861C56.9264 59.9865 56.9592 60.0206 56.9588 60.0616C56.9584 60.1026 56.9247 60.1355 56.8841 60.1355ZM23.5738 60.1326C23.5328 60.1326 23.4995 60.0994 23.4991 60.0587C23.4987 60.0173 23.5319 59.9836 23.573 59.9832L24.0211 59.9795C24.0215 59.9795 24.0215 59.9795 24.0215 59.9795C24.0626 59.9795 24.0958 60.0124 24.0962 60.0538C24.0966 60.0953 24.0634 60.1289 24.0219 60.1289L23.5738 60.1326C23.5742 60.1326 23.5738 60.1326 23.5738 60.1326ZM25.0676 60.1211C25.0265 60.1211 24.9933 60.0883 24.9929 60.0468C24.9925 60.0058 25.0257 59.9717 25.0672 59.9717L25.5153 59.9684C25.5157 59.9684 25.5157 59.9684 25.5157 59.9684C25.5567 59.9684 25.59 60.0017 25.5904 60.0427C25.5908 60.0842 25.5576 60.1178 25.5161 60.1178L25.068 60.1211C25.068 60.1211 25.068 60.1211 25.0676 60.1211ZM55.3903 60.1199C55.3899 60.1199 55.3899 60.1199 55.3895 60.1199L54.9414 60.1158C54.8999 60.1154 54.8671 60.0817 54.8675 60.0403C54.8679 59.9992 54.9011 59.9664 54.9422 59.9664C54.9426 59.9664 54.9426 59.9664 54.943 59.9664L55.3911 59.9705C55.4326 59.9709 55.4654 60.0046 55.465 60.046C55.4646 60.087 55.4313 60.1199 55.3903 60.1199ZM26.5617 60.11C26.5207 60.11 26.4875 60.0768 26.4871 60.0358C26.4866 59.9947 26.5199 59.9607 26.5613 59.9607L27.0095 59.9578C27.0501 59.9541 27.0842 59.9906 27.0846 60.0321C27.085 60.0735 27.0517 60.1067 27.0103 60.1072L26.5622 60.11C26.5622 60.11 26.5622 60.11 26.5617 60.11ZM53.8969 60.1067C53.8969 60.1067 53.8965 60.1067 53.8961 60.1067L53.448 60.1031C53.4066 60.1026 53.3737 60.069 53.3737 60.028C53.3741 59.9869 53.4074 59.9537 53.4484 59.9537C53.4488 59.9537 53.4488 59.9537 53.4488 59.9537L53.8969 59.9574C53.9384 59.9578 53.9712 59.9914 53.9712 60.0329C53.9712 60.0735 53.938 60.1067 53.8969 60.1067ZM28.0559 60.1002C28.0149 60.1002 27.9816 60.0669 27.9812 60.0259C27.9808 59.9845 28.0141 59.9508 28.0555 59.9508L28.5037 59.9479H28.5041C28.5451 59.9479 28.5783 59.9812 28.5788 60.0222C28.5792 60.0637 28.5459 60.0973 28.5045 60.0973L28.0563 60.1002C28.0559 60.1002 28.0559 60.1002 28.0559 60.1002ZM52.4032 60.0948H52.4028L51.9546 60.0916C51.9136 60.0912 51.8804 60.0575 51.8804 60.0165C51.8808 59.975 51.9165 59.9369 51.9555 59.9422L52.4036 59.9455C52.445 59.9459 52.4779 59.9795 52.4779 60.0206C52.4779 60.062 52.4442 60.0948 52.4032 60.0948ZM29.5497 60.0916C29.5087 60.0916 29.4754 60.0583 29.475 60.0173C29.4746 59.9758 29.5078 59.9426 29.5493 59.9422L29.9974 59.9397H29.9978C30.0389 59.9397 30.0721 59.973 30.0725 60.014C30.0729 60.0555 30.0393 60.0891 29.9982 60.0891L29.5501 60.0916H29.5497ZM50.9098 60.085H50.9094L50.4613 60.0825C50.4202 60.0821 50.387 60.0489 50.387 60.0074C50.3874 59.9664 50.4211 59.9352 50.4621 59.9332L50.9102 59.9356C50.9517 59.936 50.9845 59.9693 50.9845 60.0107C50.9841 60.0518 50.9509 60.085 50.9098 60.085ZM31.0439 60.0834C31.0028 60.0834 30.9696 60.0501 30.9692 60.0091C30.9688 59.9676 31.0024 59.9344 31.0435 59.934L31.4916 59.9319H31.492C31.5331 59.9319 31.5663 59.9652 31.5667 60.0062C31.5671 60.0477 31.5335 60.0809 31.4924 60.0813L31.0439 60.0834ZM49.416 60.0768L48.9675 60.0747C48.9265 60.0743 48.8928 60.0411 48.8932 59.9996C48.8936 59.9586 48.9269 59.9254 48.9679 59.9254H48.9683L49.4165 59.9274C49.4579 59.9278 49.4911 59.9611 49.4907 60.0025C49.4907 60.0436 49.4571 60.0768 49.416 60.0768ZM32.5377 60.0764C32.4966 60.0764 32.463 60.0431 32.463 60.0021C32.4626 59.9611 32.4962 59.9274 32.5372 59.927L32.9854 59.9254H32.9858C33.0268 59.9254 33.0605 59.9586 33.0605 59.9996C33.0605 60.0411 33.0272 60.0743 32.9862 60.0747L32.5377 60.0764C32.5381 60.0764 32.5377 60.0764 32.5377 60.0764ZM34.0318 60.0706C33.9908 60.0706 33.9572 60.0374 33.9572 59.9964C33.9572 59.9553 33.9904 59.9217 34.0314 59.9213L34.4796 59.9196H34.48C34.521 59.9196 34.5547 59.9529 34.5547 59.9939C34.5547 60.0349 34.5214 60.0686 34.4804 60.069L34.0318 60.0706ZM47.9227 60.0702L47.4741 60.0686C47.4327 60.0686 47.3995 60.0349 47.3999 59.9935C47.3999 59.9524 47.4335 59.9192 47.4746 59.9192H47.475L47.9231 59.9208C47.9645 59.9208 47.9978 59.9545 47.9974 59.9959C47.997 60.037 47.9637 60.0702 47.9227 60.0702ZM35.5256 60.0657C35.4846 60.0657 35.4509 60.0325 35.4509 59.9914C35.4509 59.95 35.4842 59.9167 35.5252 59.9163L35.9733 59.9151C36.0144 59.9151 36.048 59.9483 36.048 59.9894C36.048 60.0308 36.0148 60.0641 35.9737 60.0641L35.5256 60.0657ZM46.4289 60.0649L45.9808 60.0637C45.9393 60.0637 45.9061 60.03 45.9065 59.9886C45.9065 59.9475 45.9402 59.9143 45.9812 59.9143H45.9816L46.4297 59.9155C46.4712 59.9155 46.5044 59.9492 46.504 59.9902C46.5036 60.0316 46.4704 60.0649 46.4289 60.0649ZM37.0198 60.0616C36.9788 60.0616 36.9451 60.0284 36.9451 59.9869C36.9451 59.9455 36.9783 59.9122 37.0198 59.9122L37.4679 59.9114C37.5094 59.9114 37.5426 59.9447 37.5426 59.9861C37.5426 60.0275 37.5094 60.0608 37.4679 60.0608L37.0198 60.0616ZM44.9356 60.0612C44.9356 60.0612 44.9351 60.0612 44.9356 60.0612L44.4874 60.0604C44.446 60.0604 44.4127 60.0267 44.4127 59.9857C44.4127 59.9446 44.4464 59.911 44.4874 59.911L44.9356 59.9118C44.977 59.9118 45.0102 59.9455 45.0102 59.9865C45.0098 60.0275 44.9766 60.0612 44.9356 60.0612ZM38.5136 60.0591C38.4725 60.0591 38.4389 60.0259 38.4389 59.9845C38.4389 59.9434 38.4721 59.9098 38.5136 59.9098L38.9617 59.9094C39.0031 59.9094 39.0364 59.9426 39.0364 59.984C39.0364 60.0251 39.0031 60.0587 38.9617 60.0587L38.5136 60.0591ZM43.4418 60.0587L42.9937 60.0583C42.9522 60.0583 42.919 60.0247 42.919 59.9836C42.919 59.9426 42.9526 59.9089 42.9937 59.9089L43.4418 59.9094C43.4828 59.9094 43.5165 59.943 43.5165 59.984C43.5165 60.0251 43.4832 60.0587 43.4418 60.0587ZM40.0073 60.0575C39.9659 60.0575 39.9326 60.0243 39.9326 59.9828C39.9326 59.9418 39.9659 59.9081 40.0073 59.9081L40.4542 59.9077C40.4957 59.9077 40.5289 59.941 40.5289 59.9824C40.5289 60.0234 40.4957 60.0571 40.4542 60.0571L40.0073 60.0575ZM41.9484 60.0575H41.5003C41.4588 60.0575 41.4256 60.0243 41.4256 59.9828C41.4256 59.9414 41.4588 59.9081 41.5003 59.9081H41.9484C41.9899 59.9081 42.0231 59.9418 42.0231 59.9828C42.0227 60.0239 41.9895 60.0575 41.9484 60.0575Z" fill="white"/>
<path d="M55.8331 94.3483H46.0423C44.7595 94.3483 43.6789 93.3938 43.5267 92.1257L42.3957 82.7047C42.2155 81.204 43.3929 79.8838 44.9113 79.8838H56.6731C58.1607 79.8838 59.3282 81.1535 59.1969 82.6284L58.3569 92.0494C58.2412 93.3507 57.1459 94.3483 55.8331 94.3483Z" fill="black"/>
<mask id="mask0_132_1747" style="mask-type:alpha" maskUnits="userSpaceOnUse" x="44" y="81" width="14" height="12">
<path d="M54.6291 92.6156H47.1775C46.2008 92.6156 45.3784 91.8893 45.2627 90.9241L44.4017 83.7535C44.2646 82.6115 45.1609 81.6064 46.3165 81.6064H55.2685C56.4007 81.6064 57.2896 82.5729 57.1894 83.6957L56.5501 90.8662C56.4614 91.856 55.628 92.6156 54.6291 92.6156Z" fill="url(#paint0_linear_132_1747)"/>
</mask>
<g mask="url(#mask0_132_1747)">
<path d="M54.6291 92.6156H47.1775C46.2008 92.6156 45.3784 91.8893 45.2627 90.9241L44.4017 83.7535C44.2646 82.6115 45.1609 81.6064 46.3165 81.6064H55.2685C56.4007 81.6064 57.2896 82.5729 57.1894 83.6957L56.5501 90.8662C56.4614 91.856 55.628 92.6156 54.6291 92.6156Z" fill="#C6EEEF"/>
</g>
<path d="M92.1485 110.378C89.8602 110.483 87.645 110.417 86.166 110.341C87.5125 109.382 90.6149 107.297 93.211 106.467L94.9928 106.36C94.9928 106.36 95.5965 107.279 95.8123 109.38C95.5169 109.749 94.6538 110.263 92.1485 110.378Z" fill="url(#paint1_linear_132_1747)"/>
<path d="M86.1476 110.354C86.1533 110.35 86.1599 110.345 86.166 110.341C87.645 110.416 89.8602 110.483 92.1485 110.378C94.6534 110.262 95.5169 109.748 95.8123 109.38C95.8222 109.477 95.8325 109.573 95.8407 109.675C95.8776 110.136 95.5353 110.541 95.0741 110.576C93.1999 110.717 88.5528 111.038 86.3121 110.921C86.0162 110.905 85.9067 110.525 86.1476 110.354Z" fill="url(#paint2_linear_132_1747)"/>
<path d="M108.516 109.765C108.684 108.691 108.953 107.138 109.16 106.741C109.486 106.118 110.601 106.741 110.601 106.741C110.601 106.741 111.384 107.106 111.744 107.714C111.974 108.102 112.609 109.205 113.039 109.955C113.089 110.041 113.109 110.133 113.107 110.222L108.642 110.378C108.533 110.203 108.481 109.989 108.516 109.765Z" fill="url(#paint3_linear_132_1747)"/>
<path d="M113.107 110.221C113.099 110.476 112.897 110.707 112.612 110.715L109.431 110.803C109.095 110.812 108.804 110.637 108.642 110.377L113.107 110.221Z" fill="url(#paint4_linear_132_1747)"/>
<path d="M108.175 103.17C108.214 103.298 108.79 106.096 109.043 107.323C109.113 107.662 109.418 107.9 109.764 107.883C109.953 107.874 110.173 107.857 110.404 107.827C110.813 107.774 111.124 107.433 111.14 107.021C111.181 105.945 111.201 103.881 110.806 103.081C110.262 101.977 108.175 103.17 108.175 103.17Z" fill="url(#paint5_linear_132_1747)"/>
<path d="M95.3433 103.97C95.0958 103.962 95.4422 105.248 95.0675 106.511C94.9829 106.796 94.77 107.02 94.4728 107.024C94.2804 107.026 94.0518 107.023 93.8204 107.004C93.4719 106.976 93.1917 106.706 93.1592 106.358L92.8547 103.081L95.3433 103.97Z" fill="url(#paint6_linear_132_1747)"/>
<path d="M88.4219 69.133C88.5323 69.6706 92.4308 92.4096 92.6672 104.176C92.6713 104.373 92.8162 104.539 93.0119 104.566C93.5069 104.635 94.4708 104.723 95.4053 104.55C95.5333 104.526 95.6297 104.421 95.6379 104.291C95.7742 102.099 96.8699 83.5594 95.528 74.8323C95.528 74.8323 106.613 98.1614 108.293 104.594C108.334 104.75 108.477 104.856 108.639 104.847C109.113 104.822 110.101 104.737 110.885 104.448C111.166 104.345 111.326 104.05 111.255 103.759C110.316 99.9092 103.737 73.3858 99.2702 67.542L88.4219 69.133Z" fill="black"/>
<path d="M95.5276 74.9777C95.5641 74.9777 95.6011 74.9637 95.6294 74.9362C95.6868 74.88 95.6881 74.7881 95.6318 74.7306L94.1475 73.2127C94.0913 73.1552 93.9994 73.1544 93.9419 73.2102C93.8845 73.2664 93.8836 73.3588 93.9394 73.4158L95.4238 74.9338C95.4521 74.9629 95.4898 74.9777 95.5276 74.9777Z" fill="url(#paint7_linear_132_1747)"/>
<path d="M84.6727 39.7893C87.989 39.2907 94.4975 38.5766 98.7433 39.8221L98.2829 52.9439L82.9015 51.2856L81.5969 49.4311C81.5965 49.4307 82.201 40.1607 84.6727 39.7893Z" fill="#D3E9F8"/>
<path d="M92.3336 32.7642C92.3336 32.7642 92.641 37.9833 92.5827 39.6068C92.5827 39.6068 88.3099 40.3061 87.293 39.5752L88.0965 33.3883L92.3336 32.7642Z" fill="url(#paint8_linear_132_1747)"/>
<path d="M88.1797 27.5371C88.1797 27.5371 86.4594 30.5571 86.1877 32.2101C85.9161 33.8631 85.4417 34.9034 87.3282 35.4455C89.2151 35.9872 90.9378 35.2038 91.9937 33.6419C91.9937 33.6419 93.6434 31.2375 93.4477 30.159C93.2519 29.0801 88.1797 27.5371 88.1797 27.5371Z" fill="url(#paint9_linear_132_1747)"/>
<path d="M91.4651 32.3798L91.2221 32.3536C91.2221 32.3536 92.4451 30.4071 91.6038 29.9512C90.7625 29.4957 87.3531 28.4094 86.7342 27.0913C86.1376 25.8208 86.9501 24.35 87.9637 24.0233C88.0278 24.0028 88.0971 24.0393 88.1217 24.1017L88.1853 24.2621C88.2292 24.3721 88.384 24.3725 88.4291 24.2634C88.4718 24.1596 88.6183 24.1518 88.6671 24.2527C88.8575 24.6475 89.4161 25.316 91.0551 25.8048C93.3807 26.4979 94.8458 27.6272 94.7075 29.2708C94.6988 29.375 94.8035 29.444 94.8983 29.3997C95.085 29.3118 95.3706 29.2917 95.7112 29.6471C96.3038 30.2651 95.884 31.6571 94.3303 32.6724C94.2565 32.7208 94.2458 32.8267 94.3139 32.8825C94.5548 33.0791 94.8975 33.5215 93.8399 33.9483C92.7582 34.3849 92.159 34.2602 91.937 34.1773C91.8771 34.1551 91.8418 34.0944 91.8525 34.0316L92.0987 32.5883C92.1114 32.5136 92.0585 32.4438 91.9834 32.4356L91.4651 32.3798Z" fill="black"/>
<path d="M91.3728 32.6778C91.3728 32.6778 92.1168 30.7104 92.9634 31.3756C93.8096 32.0408 92.2486 33.5925 91.5107 33.59L91.3728 32.6778Z" fill="url(#paint10_linear_132_1747)"/>
<path d="M72.949 50.054L73.3569 48.4506C73.5588 47.6574 74.3475 47.1624 75.1494 47.3262L113.563 55.1631C114.438 55.3417 114.999 56.1981 114.815 57.0718L112.473 68.1729L72.949 50.054Z" fill="#74FCFD"/>
<path d="M69.3069 69.5272L72.1959 48.7621C72.2559 48.3324 72.6691 48.0452 73.0926 48.1396L112.546 56.9007C113.388 57.0878 113.916 57.925 113.723 58.7655L110.411 73.1188L69.3069 69.5272Z" fill="#C6EEEF"/>
<path d="M70.3489 68.5862L71.4557 50.0519C71.484 49.5755 71.9296 49.2357 72.3967 49.3346L112.265 57.7711C112.827 57.8901 113.198 58.4285 113.108 58.9961L110.984 72.3846L70.3489 68.5862Z" fill="#597B8E"/>
<path d="M67.474 72.6691L69.9838 52.5939C70.109 51.5934 71.0521 50.9056 72.0431 51.0928L112.925 58.8091C113.754 58.9654 114.3 59.7644 114.143 60.5934L110.69 78.8876C110.527 79.7506 109.718 80.3358 108.847 80.2197L69.2152 74.927C68.1129 74.7793 67.3361 73.7718 67.474 72.6691Z" fill="#74FCFD"/>
<path d="M86.4155 54.1059C86.2546 54.9578 85.4338 55.518 84.5823 55.3571L75.467 53.6368C74.6151 53.476 74.0549 52.6552 74.2158 51.8037C74.3766 50.9517 75.1974 50.3916 76.0489 50.5524L85.1642 52.2727C86.0162 52.4332 86.5763 53.254 86.4155 54.1059Z" fill="#74A1BB"/>
<path d="M94.4529 45.5432L98.7434 39.8218C98.7434 39.8218 105.637 47.1454 106.96 56.4408L102.66 58.5378C101.325 55.4079 98.8677 51.1675 94.4529 45.5432Z" fill="#D3E9F8"/>
<path d="M100.6 71.318C101.108 70.4677 102.101 68.8487 102.583 68.3436C102.583 68.3436 102.142 68.0649 101.295 68.1687C100.449 68.2726 99.7861 67.8597 99.8115 67.3993L103.85 66.1604C104.031 65.7812 104.83 63.63 102.659 58.5384L106.959 56.4414C107.455 59.9214 107.17 63.6772 105.449 67.4292C105.449 67.4292 104.114 71.5769 102.579 72.4974C98.5754 74.8993 100.404 71.6442 100.6 71.318Z" fill="url(#paint11_linear_132_1747)"/>
<defs>
<linearGradient id="paint0_linear_132_1747" x1="44.3877" y1="87.1108" x2="57.1969" y2="87.1108" gradientUnits="userSpaceOnUse">
<stop stop-color="white"/>
<stop offset="1"/>
</linearGradient>
<linearGradient id="paint1_linear_132_1747" x1="89.9873" y1="134.906" x2="89.3013" y2="152.058" gradientUnits="userSpaceOnUse">
<stop stop-color="#09005D"/>
<stop offset="1" stop-color="#1A0F91"/>
</linearGradient>
<linearGradient id="paint2_linear_132_1747" x1="90.9295" y1="110.512" x2="90.9295" y2="72.23" gradientUnits="userSpaceOnUse">
<stop stop-color="#09005D"/>
<stop offset="1" stop-color="#1A0F91"/>
</linearGradient>
<linearGradient id="paint3_linear_132_1747" x1="109.78" y1="135.698" x2="109.094" y2="152.85" gradientUnits="userSpaceOnUse">
<stop stop-color="#09005D"/>
<stop offset="1" stop-color="#1A0F91"/>
</linearGradient>
<linearGradient id="paint4_linear_132_1747" x1="110.874" y1="110.512" x2="110.874" y2="72.2301" gradientUnits="userSpaceOnUse">
<stop stop-color="#09005D"/>
<stop offset="1" stop-color="#1A0F91"/>
</linearGradient>
<linearGradient id="paint5_linear_132_1747" x1="111.161" y1="105.248" x2="108.175" y2="105.248" gradientUnits="userSpaceOnUse">
<stop stop-color="#FEBBBA"/>
<stop offset="1" stop-color="#FF928E"/>
</linearGradient>
<linearGradient id="paint6_linear_132_1747" x1="95.3434" y1="105.053" x2="92.8548" y2="105.053" gradientUnits="userSpaceOnUse">
<stop stop-color="#FEBBBA"/>
<stop offset="1" stop-color="#FF928E"/>
</linearGradient>
<linearGradient id="paint7_linear_132_1747" x1="89.1553" y1="66.7942" x2="99.3405" y2="79.9622" gradientUnits="userSpaceOnUse">
<stop stop-color="#CB236D"/>
<stop offset="1" stop-color="#4C246D"/>
</linearGradient>
<linearGradient id="paint8_linear_132_1747" x1="90.1483" y1="42.4017" x2="89.759" y2="35.1404" gradientUnits="userSpaceOnUse">
<stop stop-color="#FEBBBA"/>
<stop offset="1" stop-color="#FF928E"/>
</linearGradient>
<linearGradient id="paint9_linear_132_1747" x1="87.5904" y1="30.2951" x2="94.8259" y2="37.1766" gradientUnits="userSpaceOnUse">
<stop stop-color="#FEBBBA"/>
<stop offset="1" stop-color="#FF928E"/>
</linearGradient>
<linearGradient id="paint10_linear_132_1747" x1="88.706" y1="29.1221" x2="95.9414" y2="36.0036" gradientUnits="userSpaceOnUse">
<stop stop-color="#FEBBBA"/>
<stop offset="1" stop-color="#FF928E"/>
</linearGradient>
<linearGradient id="paint11_linear_132_1747" x1="105.953" y1="60.4955" x2="125.437" y2="29.4859" gradientUnits="userSpaceOnUse">
<stop stop-color="#FEBBBA"/>
<stop offset="1" stop-color="#FF928E"/>
</linearGradient>
</defs>
</svg>
