<svg width="139" height="131" viewBox="0 0 139 131" fill="none" xmlns="http://www.w3.org/2000/svg">
<g opacity="0.3">
<path opacity="0.3" d="M41.641 24.594C41.8994 24.5301 42.1691 24.6702 42.2619 24.9261C42.4638 25.485 42.6448 26.0615 42.7994 26.6384C42.8747 26.9192 42.7082 27.2079 42.4274 27.2832C42.4239 27.2842 42.4209 27.2847 42.4175 27.2857C42.1397 27.3545 41.857 27.1884 41.7827 26.9107C41.6361 26.3622 41.464 25.8152 41.2721 25.2841C41.1733 25.0108 41.3144 24.7091 41.5882 24.6104C41.6056 24.6034 41.6231 24.5984 41.641 24.594ZM42.7092 29.0524C42.7291 29.0474 42.7496 29.0434 42.7705 29.0409C43.0587 29.0045 43.322 29.209 43.3584 29.4977C43.4327 30.0901 43.4821 30.6915 43.506 31.2854C43.5175 31.5756 43.2926 31.8199 43.0014 31.8324C42.7112 31.8439 42.4663 31.6175 42.4544 31.3273C42.4319 30.7628 42.3845 30.1918 42.3137 29.6288C42.2803 29.3616 42.4539 29.1157 42.7092 29.0524ZM42.769 33.6355C42.8258 33.6216 42.8862 33.6166 42.9475 33.6231C43.2367 33.652 43.4477 33.9098 43.4187 34.199C43.3594 34.7919 43.2736 35.3893 43.1639 35.9752C43.1101 36.2609 42.8348 36.4484 42.5496 36.3956C42.2639 36.3417 42.0759 36.0669 42.1297 35.7812C42.2344 35.2247 42.3157 34.6573 42.3721 34.0943C42.3945 33.8669 42.5591 33.6879 42.769 33.6355ZM41.8021 38.1179C41.8964 38.0945 41.9976 38.097 42.0963 38.1304C42.3716 38.2231 42.5197 38.5218 42.4269 38.7971C42.2364 39.362 42.019 39.9255 41.7812 40.472C41.665 40.7383 41.3548 40.86 41.0885 40.7443C40.8223 40.6281 40.7001 40.318 40.8163 40.0517C41.0422 39.5331 41.2486 38.9975 41.4296 38.461C41.4895 38.284 41.6336 38.1598 41.8021 38.1179ZM39.8604 42.2722C39.992 42.2398 40.1366 42.2577 40.2613 42.334C40.5091 42.4856 40.5874 42.8097 40.4358 43.0576C40.1256 43.5647 39.7891 44.0663 39.4355 44.547C39.2635 44.7814 38.9344 44.8318 38.7 44.6597C38.4656 44.4877 38.4153 44.1586 38.5873 43.9237C38.9234 43.4664 39.243 42.9902 39.5377 42.508C39.613 42.3854 39.7307 42.3041 39.8604 42.2722ZM37.048 45.8929C37.2185 45.8505 37.4065 45.8949 37.5421 46.0265C37.7506 46.2295 37.7551 46.5626 37.5521 46.771C37.1367 47.1979 36.6974 47.6122 36.2471 48.0022C36.0272 48.1927 35.6951 48.1687 35.5046 47.9488C35.3142 47.7294 35.3381 47.3968 35.558 47.2063C35.9858 46.8353 36.4032 46.4419 36.7981 46.0365C36.8689 45.9637 36.9562 45.9158 37.048 45.8929ZM18.6282 51.7406C18.6991 51.7231 18.7744 51.7201 18.8506 51.7341C19.4066 51.8378 19.9746 51.9181 20.5386 51.9735C20.8278 52.0019 21.0392 52.2592 21.0108 52.5484C20.9824 52.8376 20.7251 53.049 20.4359 53.0206C19.842 52.9623 19.2436 52.8775 18.6582 52.7688C18.3724 52.7154 18.1839 52.4407 18.2373 52.155C18.2762 51.946 18.4343 51.789 18.6282 51.7406ZM33.5055 48.7985C33.7175 48.7462 33.9483 48.8299 34.0735 49.0234C34.2316 49.2673 34.1618 49.5934 33.9179 49.7515C33.4178 50.0751 32.8977 50.3813 32.3716 50.661C32.1143 50.7961 31.7962 50.7004 31.66 50.4436C31.5234 50.1868 31.6211 49.8681 31.8779 49.7315C32.3776 49.4662 32.8713 49.1755 33.3465 48.8678C33.3963 48.8354 33.4507 48.812 33.5055 48.7985ZM23.2014 52.0662C23.2353 52.0577 23.2702 52.0527 23.3061 52.0512C23.8716 52.0278 24.443 51.9789 25.0055 51.9076C25.2937 51.8712 25.5575 52.0752 25.5939 52.3634C25.6303 52.6516 25.4269 52.9164 25.1382 52.9518C24.5463 53.0271 23.9449 53.078 23.35 53.1029C23.0598 53.1149 22.8144 52.8895 22.802 52.5993C22.792 52.3444 22.9635 52.125 23.2014 52.0662ZM29.4031 50.84C29.6609 50.7762 29.9307 50.9158 30.0234 51.1711C30.1227 51.4444 29.9821 51.7461 29.7088 51.8458C29.1493 52.0492 28.5739 52.2313 27.9979 52.3863C27.9944 52.3873 27.9909 52.3883 27.987 52.3893C27.7097 52.4581 27.4275 52.2926 27.3527 52.0153C27.2769 51.7346 27.4429 51.4459 27.7237 51.3701C28.2707 51.2225 28.8172 51.0495 29.3488 50.856C29.3667 50.85 29.3847 50.8445 29.4031 50.84Z" fill="#91B3FA"/>
<path opacity="0.3" d="M15.0714 50.7386C15.1722 50.7136 15.2809 50.7181 15.3851 50.758C15.6384 50.8547 15.8982 50.948 16.157 51.0353C16.4323 51.128 16.5809 51.4262 16.4881 51.702C16.3954 51.9777 16.0972 52.1263 15.8214 52.0331C15.5491 51.9418 15.2759 51.8436 15.0096 51.7414C14.7383 51.6376 14.6022 51.3335 14.7059 51.0622C14.7698 50.8941 14.9099 50.7785 15.0714 50.7386Z" fill="#91B3FA"/>
</g>
<g opacity="0.3">
<path opacity="0.3" d="M3.51137 39.6119C3.7577 39.5511 4.019 39.6763 4.12172 39.9171C4.22743 40.1669 4.34063 40.4187 4.45781 40.6651C4.58247 40.9279 4.47028 41.2415 4.20749 41.3662C3.9437 41.4913 3.63104 41.3787 3.50638 41.1159C3.38321 40.8561 3.26453 40.5913 3.15284 40.328C3.03914 40.0602 3.16431 39.7515 3.43158 39.6379C3.45751 39.6274 3.48444 39.6184 3.51137 39.6119Z" fill="#91B3FA"/>
<path opacity="0.3" d="M17.4306 11.6963C17.6655 11.638 17.9029 11.5836 18.1412 11.5332C18.4255 11.4729 18.7052 11.6549 18.765 11.9391C18.8254 12.2234 18.6424 12.5041 18.3591 12.5635C17.8081 12.6801 17.2631 12.8193 16.733 12.9783C16.4543 13.0616 16.1611 12.904 16.0778 12.6258C15.994 12.347 16.1521 12.0538 16.4303 11.9701C16.759 11.8713 17.095 11.7791 17.4306 11.6963ZM20.8923 11.1443C20.9207 11.1373 20.9506 11.1323 20.981 11.1303C21.5665 11.0874 22.1609 11.0685 22.7463 11.075C23.037 11.078 23.2699 11.3163 23.2669 11.6065C23.2639 11.8973 23.025 12.1311 22.7348 12.1271C22.1783 12.1211 21.6143 12.1391 21.0578 12.1795C20.7681 12.2009 20.5158 11.983 20.4944 11.6933C20.4754 11.434 20.6479 11.2046 20.8923 11.1443ZM13.8398 12.9479C14.0807 12.8881 14.3375 13.0063 14.4442 13.2401C14.5649 13.5044 14.4487 13.8166 14.1844 13.9377C13.6788 14.1686 13.1761 14.4244 12.69 14.6987C12.4366 14.8408 12.1155 14.752 11.9729 14.4987C11.8303 14.2454 11.9195 13.9243 12.1729 13.7817C12.6845 13.4934 13.214 13.2237 13.7466 12.9803C13.7775 12.9664 13.8084 12.9554 13.8398 12.9479ZM25.4021 11.3118C25.4669 11.2959 25.5357 11.2919 25.606 11.3024C26.1865 11.3891 26.7699 11.5013 27.3404 11.637C27.6231 11.7038 27.7981 11.9875 27.7308 12.2702C27.664 12.5535 27.3802 12.728 27.0975 12.6612C26.556 12.533 26.0015 12.4258 25.4505 12.3435C25.1632 12.3007 24.9648 12.0329 25.0077 11.7452C25.0406 11.5277 25.2011 11.3612 25.4021 11.3118ZM9.9713 15.2646C10.1688 15.2158 10.3857 15.2846 10.5168 15.4571C10.6929 15.6885 10.648 16.0186 10.4166 16.1946C9.97429 16.5312 9.54047 16.8913 9.12609 17.2652C8.91017 17.4602 8.57757 17.4433 8.38259 17.2273C8.18762 17.0114 8.20458 16.6788 8.42049 16.4844C8.85631 16.0904 9.31308 15.7114 9.77882 15.3569C9.83816 15.312 9.90399 15.2811 9.9713 15.2646ZM6.70513 18.3742C6.8632 18.3354 7.03673 18.3698 7.17087 18.4825C7.39327 18.6699 7.42169 19.0016 7.2342 19.224C6.87517 19.6503 6.5301 20.0971 6.20797 20.5509C6.04043 20.7882 5.71182 20.8441 5.47446 20.676C5.2371 20.508 5.18125 20.1794 5.34929 19.942C5.68788 19.4643 6.0514 18.9941 6.42937 18.5458C6.50367 18.4575 6.60091 18.3997 6.70513 18.3742ZM4.19392 22.1216C4.31409 22.0917 4.44524 22.1042 4.56342 22.166C4.82122 22.3001 4.92095 22.6183 4.78681 22.8761C4.52901 23.3707 4.28916 23.8819 4.07374 24.395C3.96154 24.6627 3.65338 24.7894 3.3851 24.6767C3.11733 24.564 2.99067 24.2559 3.10336 23.9881C3.32975 23.448 3.58207 22.9105 3.85334 22.3899C3.92614 22.2498 4.0523 22.1565 4.19392 22.1216ZM2.56033 26.3272C2.64361 26.3068 2.73287 26.3063 2.82163 26.3297C3.10237 26.4045 3.26942 26.6928 3.19462 26.9735C3.05101 27.5126 2.92933 28.0636 2.8321 28.6111C2.78123 28.8973 2.50797 29.0883 2.22225 29.0374C1.93602 28.9866 1.74504 28.7133 1.7959 28.4271C1.89812 27.8496 2.02677 27.2697 2.17787 26.7022C2.22873 26.5108 2.37982 26.3721 2.56033 26.3272ZM1.88965 30.7912C1.93652 30.7797 1.98588 30.7742 2.03625 30.7762C2.32646 30.7872 2.55335 31.0315 2.54238 31.3218C2.52144 31.8777 2.52393 32.4417 2.54986 32.9982C2.56332 33.2884 2.33793 33.5348 2.04871 33.5482C1.7585 33.5617 1.51216 33.3373 1.4987 33.0471C1.47127 32.4607 1.46878 31.8673 1.49122 31.2819C1.4992 31.0425 1.66774 30.846 1.88965 30.7912ZM2.21526 35.2895C2.22574 35.287 2.23621 35.2845 2.24718 35.2825C2.53291 35.2302 2.80716 35.4192 2.86002 35.7049C2.93432 36.1083 3.02158 36.5142 3.11982 36.9121C3.15522 37.0563 3.19262 37.1994 3.23102 37.3415C3.30681 37.6222 3.14076 37.9109 2.86052 37.9867C2.57778 38.069 2.29106 37.897 2.21526 37.6162C2.17487 37.4661 2.13548 37.3161 2.09808 37.1645C1.99486 36.7466 1.90261 36.3192 1.82482 35.8949C1.77396 35.6206 1.94749 35.3558 2.21526 35.2895Z" fill="#91B3FA"/>
<path opacity="0.3" d="M29.7763 12.4729C29.878 12.4479 29.9877 12.4524 30.0924 12.4933C30.3582 12.5965 30.6265 12.7072 30.8903 12.8219C31.1566 12.9381 31.2787 13.2483 31.1621 13.5146C31.0459 13.7808 30.7357 13.903 30.4694 13.7863C30.2186 13.6771 29.9638 13.5719 29.7115 13.4742C29.4407 13.3695 29.3061 13.0643 29.4113 12.7935C29.4761 12.6275 29.6152 12.5128 29.7763 12.4729Z" fill="#91B3FA"/>
</g>
<path d="M30.5526 18.5692C30.4688 18.5064 30.3542 18.5034 30.2669 18.5622L27.7876 20.2402C26.5076 19.6782 25.1283 19.3162 23.6952 19.189L22.3303 16.5267C22.2825 16.4335 22.1807 16.3806 22.0765 16.3956L18.5216 16.9022C18.4179 16.9172 18.3346 16.996 18.3147 17.0992L17.7482 20.0367C16.4078 20.5593 15.1847 21.2923 14.1126 22.1894L11.2633 21.2709C11.1635 21.2385 11.0543 21.2734 10.991 21.3572L8.83532 24.2294C8.77249 24.3132 8.76949 24.4279 8.82833 24.5151L10.5063 26.9944C9.94432 28.2745 9.5823 29.6537 9.45514 31.0869L6.79284 32.4517C6.69959 32.4996 6.64673 32.6013 6.66169 32.7055L7.16832 36.2604C7.18328 36.3641 7.26207 36.4474 7.36529 36.4673L10.3028 37.0338C10.8254 38.3742 11.558 39.5974 12.4555 40.6695L11.537 43.5188C11.5051 43.6185 11.5395 43.7277 11.6233 43.791L14.4955 45.9467C14.5793 46.0095 14.694 46.0125 14.7812 45.9537L17.2605 44.2757C18.5406 44.8377 19.9199 45.1997 21.353 45.3269L22.7178 47.9892C22.7657 48.0824 22.8674 48.1353 22.9716 48.1203L26.5265 47.6137C26.6302 47.5987 26.7135 47.52 26.7334 47.4167L27.2999 44.4792C28.6403 43.9566 29.8635 43.2236 30.9356 42.3265L33.7849 43.245C33.8846 43.2774 33.9943 43.2425 34.0571 43.1587L36.2128 40.2865C36.2757 40.2027 36.2786 40.088 36.2198 40.0008L34.5418 37.5215C35.1038 36.2414 35.4658 34.8622 35.593 33.429L38.2553 32.0642C38.3486 32.0164 38.4014 31.9146 38.3865 31.8104L37.8798 28.2555C37.8649 28.1518 37.7861 28.0685 37.6828 28.0486L34.7453 27.4821C34.2227 26.1417 33.4897 24.9185 32.5926 23.8464L33.5111 20.9971C33.5435 20.8974 33.5086 20.7882 33.4249 20.7249L30.5526 18.5692Z" fill="#74FCFD"/>
<path d="M21.6596 28.7527C23.3675 28.3304 25.1776 29.2135 25.8642 30.8889C26.6187 32.731 25.7346 34.8428 23.8926 35.5977C23.0005 35.9637 22.0191 35.9597 21.13 35.5872C20.2409 35.2148 19.5493 34.5186 19.1843 33.626C18.4298 31.784 19.3139 29.6722 21.156 28.9173C21.322 28.8495 21.4906 28.7946 21.6596 28.7527ZM23.1835 34.946C23.3156 34.9136 23.4458 34.8712 23.5739 34.8183C24.9861 34.2399 25.6643 32.6203 25.0858 31.2081C24.5074 29.7959 22.8878 29.1172 21.4756 29.6962C20.0634 30.2746 19.3853 31.8942 19.9637 33.3064C20.2439 33.9906 20.774 34.5246 21.4557 34.8098C22.0097 35.0422 22.6105 35.0876 23.1835 34.946Z" fill="white"/>
<path d="M20.3363 23.7093C20.6295 23.6365 20.9282 23.5787 21.2314 23.5353C21.3266 23.5219 21.4223 23.5094 21.5186 23.4989C21.9913 23.4471 22.4675 23.4326 22.9392 23.4565C22.9457 23.457 22.9522 23.457 22.9587 23.4575C22.9771 23.4585 22.9951 23.4595 23.0135 23.4605C23.0489 23.4625 23.0848 23.465 23.1202 23.4675C23.2135 23.474 23.2883 23.5403 23.3097 23.6266C23.3147 23.6475 23.3167 23.6695 23.3152 23.6924C23.3072 23.8086 23.206 23.8953 23.0903 23.8874C22.4934 23.845 21.8881 23.8669 21.2912 23.9522C18.3252 24.3745 15.9362 26.2974 14.7818 28.842C14.1395 30.2572 13.8792 31.8653 14.1146 33.5148C14.156 33.8041 14.2113 34.0893 14.2806 34.369C14.7469 36.2519 15.8369 37.9035 17.4097 39.0838C19.2158 40.4391 21.4418 41.0106 23.6772 40.6919C28.2943 40.0332 31.5121 35.7443 30.8543 31.1293C30.814 30.8446 30.7591 30.5633 30.6903 30.2861C30.3931 29.0848 29.8361 27.9624 29.0557 27.0005C29.0358 26.9755 29.0218 26.9476 29.0148 26.9187C28.9959 26.8419 29.0208 26.7576 29.0866 26.7048C29.1774 26.632 29.3095 26.6449 29.3828 26.7357C30.2021 27.7454 30.787 28.9243 31.0992 30.1848C31.1715 30.4756 31.2288 30.7713 31.2712 31.07C31.9618 35.9154 28.5805 40.4187 23.7371 41.1093C21.3899 41.4439 19.0532 40.8445 17.1574 39.4214C15.5063 38.1827 14.3619 36.4484 13.8722 34.4718C13.7994 34.1781 13.7411 33.8789 13.6982 33.5752C13.3636 31.228 13.963 28.8913 15.3861 26.995C16.6243 25.3434 18.3591 24.1985 20.3363 23.7093Z" fill="white"/>
<g opacity="0.3">
<path opacity="0.3" d="M55.7445 6.81764C55.8811 6.78374 56.0287 6.84158 56.103 6.96973C56.2421 7.20809 56.3758 7.45392 56.5004 7.70026C56.5812 7.86032 56.5174 8.0558 56.3568 8.13708C56.1968 8.21886 56.0013 8.15403 55.92 7.99346C55.8013 7.7586 55.6737 7.52423 55.541 7.29685C55.4508 7.14177 55.5031 6.94281 55.6582 6.85205C55.6861 6.83609 55.7151 6.82512 55.7445 6.81764Z" fill="#91B3FA"/>
<path opacity="0.3" d="M56.8006 9.08391C56.9607 9.04451 57.1277 9.13128 57.1841 9.28985C57.3446 9.73714 57.4838 10.1979 57.5975 10.6587C57.6214 10.7559 57.6443 10.8531 57.6668 10.9514C57.7062 11.1269 57.585 11.2964 57.4209 11.3403C57.2459 11.3797 57.0719 11.2695 57.0325 11.095C57.0115 11.0012 56.9896 10.908 56.9667 10.8152C56.8579 10.3754 56.7253 9.93611 56.5722 9.50976C56.5114 9.34071 56.5996 9.15472 56.7682 9.09388C56.7792 9.08989 56.7901 9.0864 56.8006 9.08391ZM57.5416 12.3765C57.5566 12.373 57.572 12.37 57.5875 12.3685C57.766 12.3506 57.9256 12.4812 57.9435 12.6597C58.0009 13.2327 58.0233 13.8146 58.0098 14.3886C58.0058 14.5681 57.8558 14.7097 57.6772 14.7057C57.4977 14.7012 57.3556 14.5526 57.3601 14.3731C57.3731 13.8256 57.3516 13.2706 57.2968 12.7241C57.2803 12.5615 57.387 12.4149 57.5416 12.3765ZM57.4618 15.7509C57.5017 15.7409 57.5446 15.7384 57.5875 15.7449C57.765 15.7713 57.8877 15.9369 57.8612 16.1144C57.7765 16.6834 57.6553 17.2528 57.5002 17.8078C57.4518 17.9809 57.2733 18.0816 57.0998 18.0337C56.9268 17.9853 56.826 17.8063 56.8739 17.6333C57.0215 17.1042 57.1372 16.5612 57.218 16.0187C57.2384 15.884 57.3381 15.7813 57.4618 15.7509ZM56.5553 19.0021C56.6206 18.9861 56.6914 18.9901 56.7582 19.0176C56.9238 19.0869 57.0021 19.2774 56.9327 19.4429C56.7108 19.9745 56.4535 20.4971 56.1688 20.9957C56.0796 21.1513 55.8811 21.2051 55.7255 21.1164C55.5694 21.0276 55.5156 20.8292 55.6043 20.6731C55.8761 20.1979 56.1214 19.6992 56.3329 19.1921C56.3743 19.0939 56.459 19.026 56.5553 19.0021ZM54.8823 21.9332C54.9735 21.9107 55.0738 21.9277 55.155 21.9885C55.2987 22.0957 55.3281 22.2997 55.2209 22.4433C54.8763 22.9041 54.5003 23.3484 54.1029 23.7632C53.9787 23.8934 53.7728 23.8974 53.6431 23.7732C53.5135 23.649 53.509 23.4431 53.6332 23.3134C54.0121 22.9175 54.3712 22.4937 54.6998 22.0539C54.7467 21.9915 54.812 21.9506 54.8823 21.9332ZM52.5486 24.3691C52.6668 24.3397 52.7969 24.3786 52.8787 24.4793C52.9919 24.6184 52.971 24.8229 52.8318 24.9366C52.386 25.3001 51.9128 25.6392 51.4261 25.9438C51.273 26.0391 51.0736 25.9927 50.9778 25.8406C50.8826 25.6885 50.9285 25.4881 51.0806 25.3928C51.5448 25.1021 51.9956 24.779 52.4209 24.4324C52.4598 24.4015 52.5032 24.3806 52.5486 24.3691ZM49.6908 26.1603C49.8389 26.1239 49.9965 26.1957 50.0633 26.3388C50.1391 26.5013 50.0683 26.6948 49.9057 26.7706C49.3856 27.0129 48.8441 27.2254 48.2951 27.4024C48.1231 27.4548 47.9411 27.3635 47.8857 27.1925C47.8303 27.0219 47.9246 26.8384 48.0951 26.7831C48.6187 26.614 49.1358 26.4116 49.6315 26.1807C49.6509 26.1722 49.6709 26.1652 49.6908 26.1603ZM44.8015 27.4124C44.8195 27.4079 44.8389 27.4049 44.8584 27.4034C45.3311 27.372 45.8108 27.3136 46.2835 27.2309C46.3553 27.2189 46.4256 27.2059 46.4955 27.1925C46.672 27.1586 46.842 27.2737 46.8764 27.4503C46.9108 27.6268 46.7951 27.8028 46.6191 27.8312C46.5443 27.8452 46.47 27.8592 46.3947 27.8721C45.9006 27.9589 45.3984 28.0197 44.9023 28.0526C44.7232 28.0646 44.5682 27.9295 44.5562 27.75C44.5452 27.5899 44.6514 27.4498 44.8015 27.4124Z" fill="#91B3FA"/>
</g>
<g opacity="0.3">
<path opacity="0.3" d="M40.4154 0.461701C40.5875 0.419315 40.763 0.523035 40.8079 0.69507C40.8532 0.868601 40.749 1.04662 40.5755 1.0915C40.0524 1.22813 39.5333 1.39767 39.0327 1.59564C38.8661 1.65996 38.6766 1.58018 38.6108 1.41313C38.545 1.24608 38.6267 1.05709 38.7933 0.991269C39.3184 0.78383 39.8624 0.605812 40.4104 0.462699C40.4124 0.462699 40.4144 0.462199 40.4154 0.461701ZM42.047 0.139071C42.0585 0.136079 42.0699 0.134087 42.0819 0.132591C42.6424 0.055799 43.2139 0.0129141 43.7793 0.00393834C43.9588 0.00144508 44.1064 0.144557 44.1094 0.324072C44.1124 0.504086 43.9678 0.651188 43.7898 0.65418C43.2503 0.662657 42.7052 0.703547 42.1702 0.776849C41.9922 0.801283 41.8286 0.676619 41.8042 0.498601C41.7807 0.332051 41.8879 0.178465 42.047 0.139071ZM37.3293 1.6834C37.4694 1.64899 37.62 1.71083 37.6928 1.84347C37.7785 2.00054 37.7207 2.19801 37.5631 2.28427C37.0884 2.54357 36.6257 2.83379 36.1878 3.14694C36.0412 3.25116 35.8388 3.21775 35.7346 3.07165C35.6304 2.92604 35.6638 2.72259 35.8099 2.61787C36.2691 2.28926 36.7543 1.98508 37.252 1.71382C37.2769 1.69985 37.3028 1.68988 37.3293 1.6834ZM45.3675 0.0902042C45.4034 0.0812285 45.4413 0.0782384 45.4802 0.0827262C46.0432 0.143063 46.6082 0.239302 47.1592 0.367954C47.3342 0.408843 47.4424 0.583871 47.402 0.758399C47.3611 0.932429 47.1861 1.04113 47.0116 1.00074C46.486 0.878075 45.9475 0.786322 45.4109 0.728478C45.2324 0.709031 45.1032 0.548964 45.1227 0.370447C45.1372 0.231323 45.2384 0.122118 45.3675 0.0902042ZM34.6306 3.61418C34.7422 3.58675 34.8654 3.61917 34.9482 3.70992C35.0699 3.84256 35.0609 4.04801 34.9287 4.16918C34.5313 4.53369 34.1518 4.92663 33.8013 5.33702C33.6846 5.47366 33.4792 5.48961 33.343 5.37293C33.2064 5.25624 33.1904 5.0508 33.3071 4.91466C33.6746 4.48483 34.0726 4.07244 34.4889 3.69047C34.5303 3.65208 34.5792 3.62665 34.6306 3.61418ZM32.4734 6.13636C32.5587 6.11542 32.6524 6.12888 32.7317 6.18124C32.8813 6.28047 32.9222 6.48243 32.8224 6.63202C32.5232 7.08231 32.2485 7.55503 32.0066 8.03573C31.9259 8.1963 31.7304 8.26062 31.5703 8.17984C31.4098 8.09906 31.3454 7.90408 31.4262 7.74352C31.68 7.23888 31.9677 6.74372 32.2814 6.2715C32.3273 6.20169 32.3971 6.15531 32.4734 6.13636ZM30.9824 9.10285C31.0422 9.08788 31.1076 9.08988 31.1699 9.11282C31.3389 9.17316 31.4267 9.35965 31.3659 9.5287C31.1829 10.0373 31.0298 10.5619 30.9106 11.0875C30.8707 11.262 30.6967 11.3722 30.5217 11.3323C30.3466 11.2924 30.2369 11.1184 30.2763 10.9434C30.4015 10.3924 30.5615 9.84235 30.7535 9.30879C30.7924 9.20208 30.8802 9.12828 30.9824 9.10285Z" fill="#91B3FA"/>
<path opacity="0.3" d="M48.6153 0.849725C48.6761 0.834766 48.742 0.83726 48.8053 0.860198C49.0666 0.955939 49.3259 1.06016 49.5767 1.16986C49.7413 1.24167 49.8166 1.43315 49.7447 1.5977C49.6724 1.76176 49.4815 1.83706 49.3169 1.76575C49.0781 1.66153 48.8302 1.5623 48.5814 1.47055C48.4128 1.40871 48.3266 1.22172 48.3884 1.05318C48.4268 0.948459 48.5141 0.875156 48.6153 0.849725Z" fill="#91B3FA"/>
</g>
<path d="M49.3617 4.99091C49.3054 4.94902 49.2291 4.94703 49.1708 4.98642L47.5117 6.10939C46.6551 5.7334 45.7325 5.49106 44.7736 5.40579L43.8606 3.6241C43.8287 3.56177 43.7604 3.52636 43.6911 3.53634L41.312 3.87542C41.2427 3.8854 41.1868 3.93825 41.1734 4.00707L40.7944 5.97275C39.8973 6.32231 39.079 6.81298 38.3615 7.41336L36.4546 6.79902C36.3878 6.77758 36.3145 6.80052 36.2726 6.85686L34.83 8.77867C34.7876 8.83502 34.7861 8.91181 34.8255 8.96965L35.9485 10.6287C35.5725 11.4854 35.3302 12.4079 35.2449 13.3673L33.4632 14.2803C33.4009 14.3122 33.3655 14.3805 33.3754 14.4498L33.7145 16.8289C33.7245 16.8982 33.7774 16.9541 33.8462 16.967L35.8119 17.346C36.1614 18.2431 36.6521 19.0614 37.2525 19.7789L36.6381 21.6858C36.6167 21.7526 36.6396 21.8259 36.696 21.8678L38.6178 23.3104C38.6741 23.3528 38.7504 23.3543 38.8088 23.3149L40.4678 22.1919C41.3245 22.5679 42.247 22.8102 43.2059 22.8955L44.1189 24.6772C44.1508 24.7395 44.2191 24.7749 44.2885 24.765L46.6675 24.4259C46.7368 24.4159 46.7927 24.363 46.8056 24.2942L47.1846 22.3286C48.0817 21.979 48.9 21.4883 49.6175 20.8879L51.5244 21.5023C51.5912 21.5237 51.6645 21.5008 51.7064 21.4444L53.149 19.5226C53.1909 19.4663 53.1929 19.39 53.1535 19.3316L52.031 17.6726C52.407 16.8159 52.6494 15.8934 52.7346 14.934L54.5163 14.021C54.5786 13.9891 54.614 13.9208 54.6041 13.8515L54.265 11.4724C54.255 11.4031 54.2022 11.3472 54.1333 11.3338L52.1677 10.9548C51.8181 10.0577 51.3274 9.23943 50.7271 8.52187L51.3414 6.61502C51.3628 6.5482 51.3399 6.4749 51.2835 6.43301L49.3617 4.99091Z" fill="#74FCFD"/>
<path d="M43.4037 11.7621C43.9129 11.636 44.4464 11.6764 44.9391 11.8828C45.545 12.1366 46.0157 12.6108 46.2645 13.2187C46.7786 14.4728 46.1763 15.9114 44.9216 16.426C43.6645 16.9386 42.2279 16.3373 41.7143 15.0832C41.465 14.4753 41.468 13.8071 41.7213 13.2012C41.9751 12.5954 42.4493 12.1247 43.0572 11.8758C43.1709 11.829 43.2871 11.7911 43.4037 11.7621ZM44.423 15.9064C44.5078 15.8855 44.592 15.8581 44.6753 15.8242C45.5978 15.4457 46.0411 14.3875 45.6631 13.4645C45.4801 13.0177 45.1336 12.6682 44.6883 12.4822C44.2425 12.2957 43.7513 12.2942 43.304 12.4767C42.8572 12.6597 42.5082 13.0063 42.3212 13.4516C42.1347 13.8974 42.1327 14.389 42.3157 14.8363C42.6598 15.6756 43.5668 16.1184 44.423 15.9064Z" fill="white"/>
<path d="M42.4872 8.25057C42.6867 8.2012 42.8906 8.16181 43.0986 8.13189C43.5115 8.07305 43.9303 8.05609 44.3452 8.08153C44.3637 8.08302 44.3826 8.08402 44.4011 8.08552C44.5452 8.09549 44.6609 8.19821 44.6938 8.33135C44.7017 8.36376 44.7047 8.39817 44.7022 8.43308C44.6898 8.61209 44.5337 8.74623 44.3552 8.73426C43.9682 8.70684 43.5763 8.7208 43.1908 8.77615C43.1699 8.77914 43.1484 8.78263 43.1275 8.78562C42.216 8.92425 41.3737 9.28527 40.6582 9.8283C40.2697 10.123 39.9192 10.4721 39.6155 10.8695C39.613 10.8725 39.6105 10.876 39.608 10.879C39.6005 10.8889 39.5931 10.8989 39.5856 10.9089C38.7079 12.0782 38.3384 13.5193 38.5449 14.9664C38.5713 15.1539 38.6072 15.3379 38.6521 15.5194C38.9538 16.7386 39.6599 17.8077 40.6776 18.5717C41.847 19.4493 43.2881 19.8188 44.7352 19.6124C46.1812 19.4054 47.4628 18.6485 48.3404 17.4796C49.218 16.3103 49.5875 14.8692 49.3811 13.4221C49.3552 13.2381 49.3193 13.0556 49.2749 12.8766C49.0824 12.0987 48.7219 11.3721 48.2167 10.7498C48.1858 10.7114 48.1649 10.668 48.1539 10.6232C48.1245 10.505 48.1634 10.3743 48.2646 10.2926C48.4042 10.1799 48.6087 10.2008 48.7219 10.3404C49.2874 11.037 49.6908 11.8503 49.9062 12.72C49.956 12.9209 49.9954 13.1244 50.0249 13.3303C50.2557 14.95 49.8419 16.5621 48.86 17.8701C47.8782 19.178 46.447 20.0267 44.8269 20.2561C43.2078 20.487 41.5956 20.0736 40.2872 19.0913C39.1483 18.2366 38.3584 17.0403 38.0208 15.6765C37.9709 15.474 37.9305 15.2676 37.9006 15.0582C37.4538 11.9231 39.4769 8.99556 42.4872 8.25057Z" fill="white"/>
<path d="M87.7925 106.32L113.827 56.4435H108.493C107.509 56.4435 106.969 55.3001 107.592 54.5396L135.34 20.721C136.543 19.2555 138.918 20.185 138.807 22.0774L136.856 55.148C136.744 57.0414 135.066 58.4521 133.181 58.2366L129.462 57.8108L103.631 113.753C102.958 115.209 101.5 116.141 99.8963 116.141H90.9435L87.7925 106.32Z" fill="black"/>
<path d="M66.2678 71.3394L84.6476 112.168C85.7362 114.587 88.1417 116.141 90.794 116.141H100.269C101.527 116.141 102.685 115.459 103.295 114.36L103.632 113.753C102.614 113.753 101.682 113.182 101.219 112.275L76.73 64.293L66.2678 71.3394Z" fill="black"/>
<path d="M79.2028 69.1391C77.3598 67.6836 74.6671 68.1114 73.3656 70.0666L46.3421 110.667C44.178 113.919 40.5303 115.873 36.6244 115.873H32.8217L29.7271 106.958C29.7271 106.958 54.8497 68.4375 61.3247 62.6108C61.3247 62.6108 67.7732 56.799 74.131 61.1931C75.811 62.354 77.0861 64.011 77.8649 65.8984L79.2028 69.1391Z" fill="black"/>
<path d="M0.335449 82.9826C0.335449 82.9826 4.85872 77.3284 13.6245 76.4487C13.6245 76.4487 17.7878 77.8674 26.0819 92.7292C34.3759 107.592 39.8816 114.369 46.3421 110.667L45.807 111.555C44.0443 114.482 40.8774 116.272 37.4611 116.272H33.8883C29.9544 116.272 26.5381 110.212 24.2408 107.019C17.7853 98.0449 4.30073 84.3753 0.335449 82.9826Z" fill="black"/>
<path d="M135.676 32.5271C135.666 32.5271 135.657 32.5266 135.647 32.5256C135.51 32.5101 135.411 32.386 135.427 32.2484L135.61 30.6337C135.625 30.4961 135.748 30.3969 135.887 30.4128C136.025 30.4283 136.123 30.5524 136.107 30.6901L135.924 32.3047C135.91 32.4324 135.801 32.5271 135.676 32.5271Z" fill="#BDD0FB"/>
<path d="M112.513 52.9106C112.459 52.9106 112.406 52.8936 112.36 52.8587C112.251 52.7744 112.23 52.6169 112.314 52.5076L135.227 22.7356C135.495 22.3871 135.932 22.2684 136.34 22.4329C136.748 22.598 136.98 22.9869 136.93 23.4243L136.525 26.9931C136.51 27.1307 136.385 27.2295 136.248 27.214C136.111 27.1986 136.012 27.0744 136.028 26.9368L136.432 23.3679C136.461 23.1161 136.306 22.9595 136.152 22.8972C135.998 22.8353 135.778 22.8398 135.623 23.0408L112.711 52.8128C112.662 52.8766 112.588 52.9106 112.513 52.9106Z" fill="#BDD0FB"/>
<path d="M60.5333 84.1211C60.4849 84.1211 60.436 84.1071 60.3932 84.0782C60.2785 84.0009 60.2481 83.8449 60.3258 83.7307L72.1758 66.1656C72.5997 65.5378 73.3038 65.1977 74.0587 65.2541C74.8142 65.3114 75.4584 65.7542 75.7826 66.4389C75.8419 66.5641 75.7885 66.7132 75.6634 66.7725C75.5387 66.8318 75.3891 66.7785 75.3298 66.6533C75.0835 66.1332 74.5943 65.7971 74.0208 65.7537C73.4444 65.7104 72.9128 65.9692 72.5912 66.4459L60.7412 84.0109C60.6923 84.0822 60.6136 84.1211 60.5333 84.1211Z" fill="#BDD0FB"/>
<path d="M57.4537 88.6861C57.4053 88.6861 57.3565 88.6721 57.3136 88.6432C57.1989 88.5659 57.1685 88.4103 57.2463 88.2956L58.0062 87.1692C58.0835 87.0545 58.2396 87.0241 58.3538 87.1013C58.4684 87.1786 58.4989 87.3342 58.4211 87.4489L57.6611 88.5754C57.6133 88.6472 57.5345 88.6861 57.4537 88.6861Z" fill="white"/>
<path d="M61.5953 123.665C61.5953 123.665 61.2637 125.543 61.1007 127.403C61.0368 128.13 61.5973 128.761 62.3263 128.791C64.8032 128.894 70.1008 129.095 72.0017 129.01C72.2874 128.997 72.4744 128.705 72.3687 128.439C72.2799 128.216 72.1089 128.036 71.8915 127.937L63.1406 123.915L61.5953 123.665Z" fill="url(#paint0_linear_133_2001)"/>
<path d="M61.3237 122.56L61.5905 124.808C61.5905 124.808 63.1234 125.521 64.17 124.718L63.5353 122.214L61.3237 122.56Z" fill="url(#paint1_linear_133_2001)"/>
<path d="M61.5241 80.312C61.4089 80.899 60.9057 109.597 63.9735 122.458C64.0233 122.668 63.9171 122.884 63.7176 122.966C63.2469 123.158 62.3249 123.436 61.2194 123.473C60.8773 123.485 60.5701 123.262 60.4734 122.934C59.5963 119.95 55.3946 105 54.8466 90.7184C54.2343 74.76 54.8466 90.1749 54.8466 90.1749L55.2056 80.3105L61.5241 80.312Z" fill="black"/>
<path d="M51.529 124.645C51.529 124.645 51.001 125.593 50.4893 128.113C50.3971 128.568 50.7152 129.004 51.177 129.05C51.9948 129.13 53.2539 129.234 54.2621 129.227C54.7269 129.224 55.0899 128.819 55.0341 128.357C54.9224 127.437 54.5743 125.928 53.4992 124.751L51.529 124.645Z" fill="url(#paint2_linear_133_2001)"/>
<path d="M51.0649 121.754L51.6878 125.153C51.6878 125.153 52.3036 125.611 53.5223 125.279L53.2251 121.622L51.0649 121.754Z" fill="url(#paint3_linear_133_2001)"/>
<path d="M49.382 81.1927C46.8733 96.3343 49.9261 118.617 50.9558 122.978C51.0186 123.245 51.2345 123.449 51.5048 123.494C51.9646 123.571 52.721 123.632 53.467 123.416C53.7238 123.341 53.9048 123.109 53.9153 122.842C54.0534 119.316 53.8046 97.6712 56.1428 89.1168C56.2615 88.6834 56.5262 88.305 56.8923 88.0447L61.4295 84.8189L61.7775 79.605L49.382 81.1927Z" fill="black"/>
<path d="M65.3691 52.5021C57.8505 52.378 49.5544 54.4763 49.5544 54.4763C47.3134 67.5535 49.1624 82.6372 49.1624 82.6372C54.9832 84.1636 61.5495 81.7037 61.5495 81.7037C62.5169 76.2375 67.0307 60.8546 67.0307 60.8546C70.7042 60.3988 73.7305 59.3387 76.2228 57.9374C74.3219 55.7339 73.4259 52.93 73.0364 51.2725C70.3781 52.0992 67.6879 52.5405 65.3691 52.5021Z" fill="#597B8E"/>
<path d="M87.5781 41.4268C86.8396 40.5347 85.9046 40.9566 85.9046 40.9566C84.7981 45.6305 78.9968 49.4202 73.0364 51.2722C73.4258 52.9297 74.3219 55.7337 76.2228 57.9372C86.1145 52.3757 87.5781 41.4268 87.5781 41.4268Z" fill="url(#paint4_linear_133_2001)"/>
<path d="M87.3993 41.6538C87.4766 41.8997 86.5815 42.2737 86.0544 41.2689C86.036 40.7872 85.7433 38.7243 86.031 38.3318C87.5638 36.2425 90.5353 33.623 90.5353 33.623C91.0374 34.1187 90.6236 34.6054 90.6236 34.6054L89.182 36.1068C89.4836 36.6519 89.8512 37.1116 90.0237 37.7708C90.1543 38.27 90.0745 38.8035 89.8222 39.2573C89.5694 39.7131 89.2238 40.306 88.8977 40.7697C88.2799 41.6474 87.3993 41.6538 87.3993 41.6538Z" fill="url(#paint5_linear_133_2001)"/>
<path d="M88.5518 37.0811L87.2383 38.1945L86.8259 39.3031L87.9973 40.6025C87.9973 40.6025 88.3912 38.4025 88.6839 37.9263C88.9761 37.4506 88.824 37.2202 88.5518 37.0811Z" fill="url(#paint6_linear_133_2001)"/>
<path d="M52.4381 61.7564L49.5544 54.4761C49.5544 54.4761 42.5313 59.2477 41.3765 65.2978C42.7034 65.3956 45.1183 65.7406 47.4815 66.9339C48.0006 64.0776 52.4381 61.7564 52.4381 61.7564Z" fill="#FF928E"/>
<path d="M58.5751 68.6069C58.5751 68.6069 50.6899 73.0634 48.0296 69.2581C47.4771 68.4683 47.3449 67.6829 47.4811 66.9344C45.1175 65.7411 42.703 65.3961 41.3761 65.2983C41.028 67.1224 41.212 69.0622 42.2836 71.0229C46.944 79.5478 59.6188 70.5516 59.6188 70.5516L58.5751 68.6069Z" fill="url(#paint7_linear_133_2001)"/>
<path d="M57.6275 74.2448L61.9309 59.2164C61.9798 59.0459 62.1254 58.9212 62.3014 58.9008C63.0813 58.81 65.3402 58.5542 67.9491 58.3338C71.0911 58.068 74.7403 57.8526 76.9204 58.0361C77.2306 58.0621 77.4176 58.3902 77.2799 58.6689C76.0398 61.1776 70.9396 71.3816 68.3855 74.7245C68.3007 74.8352 68.17 74.9001 68.0304 74.8986L58.0459 74.8058C57.7557 74.8028 57.5478 74.5241 57.6275 74.2448Z" fill="#C6EEEF"/>
<path d="M68.3955 57.0311L71.5156 56.511C71.6817 56.4831 71.8178 56.6422 71.7649 56.8022L71.4563 57.7382C71.4293 57.8195 71.3585 57.8788 71.2733 57.8898L68.2709 58.2907C68.1153 58.3117 67.9876 58.1705 68.023 58.0179L68.214 57.2007C68.235 57.1129 68.3068 57.0456 68.3955 57.0311Z" fill="#74A1BB"/>
<path d="M66.0593 59.6725L66.3161 58.3336C66.342 58.1994 66.4527 58.0977 66.5888 58.0843L72.8903 57.445C73.1022 57.4235 73.2723 57.618 73.2224 57.825L72.8215 59.4934C72.7896 59.6271 72.6734 59.7233 72.5363 59.7303L66.3784 60.0405C66.1784 60.0499 66.0219 59.8694 66.0593 59.6725Z" fill="#74A1BB"/>
<path d="M58.6672 70.6139C58.6672 70.6139 58.0678 68.149 58.3097 67.2744C58.5515 66.3998 59.0198 65.2753 60.5816 65.5251C62.1433 65.775 63.9854 66.4327 63.9854 66.4327C63.9854 66.4327 63.8921 67.5716 62.7053 67.2041L63.4413 67.7736C63.4413 67.7736 63.3361 68.6856 62.3338 68.1984L63.0185 68.9539C63.0185 68.9539 62.5881 69.7028 61.8501 69.2226C61.1126 68.7424 60.7591 70.9106 58.6672 70.6139Z" fill="url(#paint8_linear_133_2001)"/>
<path d="M57.7533 46.3979L55.3608 53.3163C55.3214 53.4309 55.3682 53.5576 55.4744 53.6164C56.1267 53.977 58.4763 55.0191 61.3077 53.224C61.6024 53.037 61.8033 52.7318 61.8482 52.3858L62.6231 46.3979H57.7533Z" fill="url(#paint9_linear_133_2001)"/>
<path d="M61.5729 38.9183C61.6667 39.0066 65.5198 46.5736 65.5198 46.5736L61.1521 48.6819L56.4343 42.0523C56.4343 42.0523 60.0072 37.4443 61.5729 38.9183Z" fill="url(#paint10_linear_133_2001)"/>
<path d="M58.3666 42.2359C58.2888 42.4374 58.3077 42.6623 58.4189 42.8478L60.5971 46.479C60.63 46.5338 60.6694 46.5837 60.7167 46.6276C60.976 46.8689 61.8631 47.571 62.5493 46.6151C63.1337 45.8003 63.6822 45.0598 64.2701 44.7546C64.6132 44.5761 65.0356 44.7187 65.2101 45.0638C65.5691 45.7754 66.2642 47.2249 66.7011 48.6002C66.8103 48.9448 66.6327 49.3148 66.2977 49.4504C65.4135 49.809 63.6653 50.4567 62.1145 50.6706C61.8596 50.706 61.6073 50.5983 61.4557 50.3904C60.7885 49.4764 58.9076 46.9213 58.2659 46.282C57.6695 45.6881 56.5689 45.912 56.0728 46.0546C55.8843 46.1085 55.6838 46.0825 55.5163 45.9818C55.0131 45.6786 54.135 44.9242 54.9384 43.6461C55.1383 43.3285 55.0361 42.9051 54.7229 42.6992C54.161 42.3297 53.5516 41.6361 54.1325 40.5126C54.7204 39.3752 55.7706 39.2734 56.4857 39.3607C56.8023 39.3996 57.1234 39.2335 57.2446 38.9388C57.2985 38.8077 57.4052 38.696 57.6041 38.6556C57.9791 38.5793 58.225 38.2367 58.1512 37.8618C58.025 37.218 58.1203 36.3823 59.1475 35.8173C61.0319 34.7811 62.6829 36.4695 63.1023 37.8947C63.5222 39.3198 61.4148 40.3271 60.0894 40.4951C59.1156 40.6178 58.5815 41.6804 58.3666 42.2359Z" fill="black"/>
<path d="M59.0831 47.616C59.0831 47.616 58.2454 45.1641 57.1723 45.2539C56.0997 45.3441 55.2555 46.4122 56.5849 47.6135C58.2389 49.1084 59.0831 47.616 59.0831 47.616Z" fill="url(#paint11_linear_133_2001)"/>
<path d="M37.5629 43.5601C37.5629 43.5601 35.6091 44.5105 35.2496 45.602C34.9614 46.4782 32.8007 46.5909 32.5873 48.3137C32.4771 49.2033 31.8189 49.9154 30.9328 50.0515C28.7262 50.3896 25.3259 51.5355 24.7814 55.3666C24.366 58.2907 25.857 59.3997 27.4213 59.7832C28.5702 60.0649 29.3341 61.1829 29.1017 62.3428C28.8788 63.4553 29.2114 64.7418 31.1387 65.7591C35.4585 68.0384 39.7724 60.3591 39.7724 60.3591L40.6565 46.9504L37.5629 43.5601Z" fill="black"/>
<path d="M19.8069 127.637L19.5272 129.935C19.4743 130.371 19.1307 130.716 18.6944 130.765C17.9579 130.849 16.7756 130.936 15.6187 130.813C15.1111 130.76 14.7815 130.245 14.9361 129.759C15.2178 128.872 15.7339 127.54 16.4774 126.757H19.0265C19.4987 126.757 19.8638 127.169 19.8069 127.637Z" fill="url(#paint12_linear_133_2001)"/>
<path d="M39.7729 100.717L40.2032 103.248C40.2032 103.248 38.7626 117.843 38.5063 123.681C38.4659 124.596 38.7028 125.501 39.1835 126.281L41.6887 130.35L35.3214 126.592L35.1948 125.815L36.237 124.382L34.8717 108.033C34.7914 107.072 34.9898 106.109 35.4426 105.258L36.7596 102.784L39.7729 100.717Z" fill="url(#paint13_linear_133_2001)"/>
<path d="M42.108 130.939H40.076C39.6956 130.939 39.337 130.765 39.1052 130.463C38.4719 129.64 37.1594 128.034 36.5316 127.992C35.6869 127.936 35.7951 130.939 35.7951 130.939H35.3214L34.7215 127.207C34.5704 126.268 35.0377 125.338 35.8809 124.898C35.8809 124.898 36.0739 126.326 37.121 126.958C38.1682 127.59 41.382 129.852 41.382 129.852C41.382 129.852 41.7754 129.796 42.2078 129.874C42.849 129.99 42.7593 130.939 42.108 130.939Z" fill="url(#paint14_linear_133_2001)"/>
<path d="M31.0521 101.92C31.0521 101.92 22.6109 117.931 21.269 121.587C19.9272 125.242 19.4574 128.292 19.439 128.581C19.4111 129.032 18.8496 129.465 17.3023 129.465C16.5039 129.465 16.113 129.145 15.9215 128.835C15.7579 128.571 15.7495 128.24 15.8871 127.962C16.3753 126.973 17.9251 123.815 18.499 122.383C19.1842 120.673 20.6582 112.923 21.4665 110.229C22.2748 107.534 23.1883 104.611 26.7083 101.919C26.7083 101.92 29.1248 99.5529 31.0521 101.92Z" fill="url(#paint15_linear_133_2001)"/>
<path d="M36.3841 75.6833C38.5617 66.4567 33.0457 61.2383 33.0457 61.2383C36.5262 57.8973 42.8676 56.3774 42.8676 56.3774C42.8676 56.3774 48.9188 60.8015 48.2007 64.2641C47.7798 66.2936 43.9472 76.4203 43.9472 76.4203C43.9472 76.4203 40.4033 78.0972 36.3841 75.6833Z" fill="black"/>
<path d="M31.5566 80.2508C32.4427 77.5815 36.3841 75.6831 36.3841 75.6831C40.4032 78.0971 43.9471 76.4196 43.9471 76.4196C43.9471 76.4196 44.742 79.4574 44.1935 82.2808C43.6449 85.1041 40.2032 103.248 40.2032 103.248C34.7804 104.347 26.4399 102.143 26.4399 102.143C29.8946 96.0102 30.6705 82.9205 31.5566 80.2508Z" fill="#C6EEEF"/>
<path d="M38.9118 50.2798L37.1416 58.2314C36.9721 58.932 37.6108 58.8173 38.3189 58.6836C39.4788 58.4652 40.9732 58.0149 41.4729 57.1124C41.5238 57.0206 41.5492 56.9169 41.5637 56.8127L42.3241 51.2986C42.3844 50.8613 42.1481 50.4364 41.7442 50.2574L40.2766 49.6067C39.7112 49.3568 39.0569 49.679 38.9118 50.2798Z" fill="url(#paint16_linear_133_2001)"/>
<path d="M33.0455 61.2383C33.0455 61.2383 20.6899 70.0779 31.4653 79.3668C31.4653 79.3668 31.8762 79.8315 32.6845 80.0734C33.0924 80.1955 34.2996 81.1086 34.9115 81.5848C35.1085 81.7379 35.3927 81.6855 35.5248 81.4746C35.6286 81.309 35.6405 81.1021 35.5572 80.9256L34.0274 77.6908C33.6025 77.2944 32.9523 77.2665 32.495 77.6245C32.2033 77.8529 31.7755 77.7571 31.6124 77.4245C30.7797 75.7281 29.2064 70.7381 35.644 65.1003C35.8859 64.8884 35.9472 64.5379 35.7986 64.2526C35.3468 63.3835 34.3121 61.6581 33.0455 61.2383Z" fill="url(#paint17_linear_133_2001)"/>
<path d="M42.3022 43.0313C42.3022 43.0313 44.1871 44.3069 44.9969 47.5561C45.8067 50.8053 44.4907 51.9701 43.1414 51.8988C41.7925 51.8275 39.8363 51.4102 38.1414 49.0795C36.447 46.7488 39.8328 41.4725 42.3022 43.0313Z" fill="url(#paint18_linear_133_2001)"/>
<path d="M39.8507 47.7688C39.8507 47.7688 39.16 43.1133 43.0251 43.8254L43.8065 44.6392C43.8065 44.6392 45.6984 42.5085 43.6045 40.8983C41.5107 39.2877 38.6055 39.7001 36.9984 42.6321C35.3912 45.5642 34.8078 47.6246 36.1552 49.4462C37.5025 51.2683 38.5158 49.7055 38.5158 49.7055C38.5158 49.7055 37.898 48.1288 38.4106 47.4521C38.9232 46.7754 39.5849 47.8456 39.5849 47.8456L39.8507 47.7688Z" fill="black"/>
<path d="M39.3225 48.1674C39.3225 48.1674 38.9814 45.7724 37.7582 46.4571C36.535 47.1417 38.199 48.6945 38.8662 49.2226L39.3225 48.1674Z" fill="url(#paint19_linear_133_2001)"/>
<path d="M67.4745 19.8886C70.5028 11.9022 86.9723 10.6226 89.1578 22.3609C91.149 33.054 69.4785 36.5201 69.4785 36.5201C80.8508 30.5468 64.4461 27.875 67.4745 19.8886Z" fill="#C6EEEF"/>
<path d="M85.937 21.6878L76.1245 21.5811C76.0527 21.5801 75.9954 21.5213 75.9959 21.4495C75.9969 21.3777 76.0557 21.3203 76.1275 21.3208L85.94 21.4275C86.0118 21.4285 86.0691 21.4874 86.0686 21.5592C86.0676 21.631 86.0088 21.6883 85.937 21.6878Z" fill="white"/>
<path d="M73.2109 21.5495L70.2993 21.5181C70.2275 21.5171 70.1702 21.4583 70.1707 21.3865C70.1717 21.3147 70.2305 21.2573 70.3023 21.2578L73.2139 21.2892C73.2857 21.2902 73.3431 21.3491 73.3426 21.4209C73.3416 21.4927 73.2828 21.55 73.2109 21.5495Z" fill="white"/>
<path d="M86.2458 23.6776L82.5613 23.6377C82.4895 23.6367 82.4321 23.5779 82.4326 23.5061C82.4336 23.4343 82.4925 23.3769 82.5643 23.3774L86.2488 23.4173C86.3206 23.4183 86.378 23.4772 86.3775 23.549C86.3765 23.6208 86.3176 23.6781 86.2458 23.6776Z" fill="white"/>
<path d="M77.1552 23.5792L70.6084 23.5079C70.5366 23.5069 70.4792 23.448 70.4797 23.3762C70.4807 23.3044 70.5396 23.2471 70.6114 23.2476L77.1582 23.3189C77.23 23.3199 77.2873 23.3787 77.2868 23.4505C77.2858 23.5223 77.227 23.5797 77.1552 23.5792Z" fill="white"/>
<path d="M86.5548 25.6678L76.7602 25.5616C76.6884 25.5606 76.6311 25.5017 76.6316 25.4299C76.6326 25.3581 76.6914 25.3008 76.7632 25.3013L86.5578 25.4075C86.6296 25.4085 86.6869 25.4673 86.6864 25.5391C86.6854 25.6109 86.6266 25.6683 86.5548 25.6678Z" fill="white"/>
<path d="M74.3081 25.535L70.9172 25.4981C70.8454 25.4971 70.7881 25.4383 70.7886 25.3664C70.7896 25.2946 70.8484 25.2373 70.9202 25.2378L74.3111 25.2747C74.3829 25.2757 74.4402 25.3345 74.4397 25.4063C74.4387 25.4781 74.3799 25.536 74.3081 25.535Z" fill="white"/>
<path d="M119.066 93.7338C127.188 93.7338 133.771 87.15 133.771 79.0285C133.771 70.907 127.188 64.3232 119.066 64.3232C110.945 64.3232 104.361 70.907 104.361 79.0285C104.361 87.15 110.945 93.7338 119.066 93.7338Z" fill="#597B8E"/>
<path d="M119.066 93.2442C126.918 93.2442 133.282 86.8794 133.282 79.0281C133.282 71.1768 126.918 64.812 119.066 64.812C111.215 64.812 104.85 71.1768 104.85 79.0281C104.85 86.8794 111.215 93.2442 119.066 93.2442Z" fill="#74A1BB"/>
<path opacity="0.78" d="M107.344 73.4493C107.295 73.4493 107.244 73.4384 107.197 73.4144C107.036 73.3331 106.972 73.1372 107.053 72.9761C109.357 68.4134 113.96 65.5791 119.067 65.5791C119.882 65.5791 120.698 65.6524 121.493 65.7975C121.67 65.8299 121.787 66 121.755 66.177C121.723 66.3545 121.553 66.4707 121.376 66.4393C120.619 66.3012 119.842 66.2313 119.066 66.2313C114.207 66.2313 109.827 68.9285 107.635 73.2698C107.578 73.3835 107.463 73.4493 107.344 73.4493Z" fill="white"/>
<path opacity="0.78" d="M127.882 87.8462C132.581 83.1475 132.581 75.5293 127.882 70.8306C123.183 66.1318 115.565 66.1318 110.866 70.8306C106.167 75.5293 106.167 83.1475 110.866 87.8462C115.565 92.5449 123.183 92.5449 127.882 87.8462Z" fill="white"/>
<path d="M118.196 88.2826V86.9736C116.831 86.9188 115.481 86.5971 114.522 86.1773C114.18 86.0272 114.006 85.6432 114.104 85.2827L114.437 84.0635C114.559 83.6162 115.045 83.3848 115.473 83.5638C116.424 83.9628 117.598 84.2779 118.864 84.2779C120.179 84.2779 121.159 83.8321 121.159 82.9191C121.159 82.0948 120.402 81.6046 118.575 81.1145C115.969 80.4014 114.097 79.2655 114.097 76.9707C114.097 74.8988 115.612 73.317 118.241 72.8937V71.5847C118.241 71.1634 118.582 70.8218 119.004 70.8218H119.773C120.194 70.8218 120.536 71.1634 120.536 71.5847V72.76C121.798 72.8104 122.718 73.0263 123.447 73.2826C123.82 73.4138 124.025 73.8167 123.921 74.1987L123.615 75.3261C123.498 75.7609 123.032 75.9993 122.611 75.8397C121.939 75.5859 120.99 75.3211 119.756 75.3211C118.197 75.3211 117.751 75.9669 117.751 76.5463C117.751 77.2594 118.686 77.7491 120.714 78.3734C123.61 79.242 124.813 80.4453 124.813 82.6059C124.813 84.5886 123.342 86.3707 120.491 86.8165V88.2816C120.491 88.7029 120.149 89.0445 119.728 89.0445H118.958C118.537 89.0455 118.196 88.7039 118.196 88.2826Z" fill="#74A1BB"/>
<path d="M133.292 103.035H104.841C104.741 103.035 104.66 102.953 104.66 102.854V97.7274C104.66 97.6272 104.741 97.5464 104.841 97.5464H133.292C133.392 97.5464 133.473 97.6277 133.473 97.7274V102.854C133.473 102.954 133.392 103.035 133.292 103.035Z" fill="#74A1BB"/>
<path d="M133.315 109.552H104.864C104.763 109.552 104.683 109.47 104.683 109.371V104.244C104.683 104.144 104.764 104.063 104.864 104.063H133.315C133.415 104.063 133.496 104.145 133.496 104.244V109.371C133.496 109.471 133.415 109.552 133.315 109.552Z" fill="#74A1BB"/>
<path d="M133.337 116.069H104.886C104.786 116.069 104.705 115.988 104.705 115.888V110.762C104.705 110.662 104.786 110.581 104.886 110.581H133.337C133.437 110.581 133.518 110.662 133.518 110.762V115.888C133.519 115.988 133.437 116.069 133.337 116.069Z" fill="#74A1BB"/>
<path d="M133.36 122.586H104.909C104.809 122.586 104.728 122.505 104.728 122.405V117.279C104.728 117.179 104.809 117.098 104.909 117.098H133.36C133.46 117.098 133.541 117.179 133.541 117.279V122.405C133.541 122.506 133.46 122.586 133.36 122.586Z" fill="#74A1BB"/>
<path d="M133.382 129.104H104.931C104.831 129.104 104.75 129.023 104.75 128.923V123.797C104.75 123.696 104.832 123.616 104.931 123.616H133.382C133.483 123.616 133.563 123.697 133.563 123.797V128.923C133.563 129.023 133.483 129.104 133.382 129.104Z" fill="#74A1BB"/>
<path d="M86.8254 107.95C94.9469 107.95 101.531 101.366 101.531 93.2443C101.531 85.1228 94.9469 78.5391 86.8254 78.5391C78.7039 78.5391 72.1201 85.1228 72.1201 93.2443C72.1201 101.366 78.7039 107.95 86.8254 107.95Z" fill="#597B8E"/>
<path d="M86.8252 107.46C94.6765 107.46 101.041 101.096 101.041 93.2444C101.041 85.3931 94.6765 79.0283 86.8252 79.0283C78.9739 79.0283 72.6091 85.3931 72.6091 93.2444C72.6091 101.096 78.9739 107.46 86.8252 107.46Z" fill="#74A1BB"/>
<path opacity="0.78" d="M75.103 87.6651C75.0536 87.6651 75.0033 87.6542 74.9564 87.6302C74.7953 87.5489 74.731 87.353 74.8123 87.1919C77.115 82.6297 81.7186 79.7954 86.8258 79.7954C87.6411 79.7954 88.4574 79.8687 89.2518 80.0138C89.4288 80.0462 89.5465 80.2163 89.514 80.3933C89.4816 80.5708 89.3116 80.688 89.1346 80.6556C88.3786 80.518 87.6017 80.4481 86.8253 80.4481C81.9659 80.4481 77.5853 83.1454 75.3942 87.4866C75.3369 87.5998 75.2222 87.6651 75.103 87.6651Z" fill="white"/>
<path opacity="0.78" d="M95.6411 102.062C100.34 97.3633 100.34 89.7451 95.6411 85.0464C90.9424 80.3477 83.3242 80.3477 78.6255 85.0464C73.9268 89.7451 73.9268 97.3633 78.6255 102.062C83.3242 106.761 90.9424 106.761 95.6411 102.062Z" fill="white"/>
<path d="M85.9546 102.499V101.19C84.5898 101.135 83.2404 100.813 82.2815 100.394C81.939 100.243 81.7649 99.8595 81.8632 99.499L82.1958 98.2798C82.3179 97.8325 82.8041 97.6011 83.232 97.7801C84.1829 98.1786 85.3572 98.4942 86.6233 98.4942C87.9377 98.4942 88.9181 98.0484 88.9181 97.1354C88.9181 96.3111 88.1607 95.8209 86.3341 95.3313C83.7276 94.6182 81.8562 93.4823 81.8562 91.1875C81.8562 89.1156 83.3711 87.5338 86 87.1105V85.801C86 85.3797 86.3416 85.0381 86.7629 85.0381H87.5319C87.9532 85.0381 88.2948 85.3797 88.2948 85.801V86.9764C89.5574 87.0267 90.4769 87.2426 91.2059 87.4989C91.5794 87.6301 91.7839 88.033 91.6801 88.415L91.3745 89.5424C91.2568 89.9772 90.7915 90.2156 90.3702 90.056C89.6985 89.8022 88.7491 89.5374 87.5149 89.5374C85.9556 89.5374 85.5098 90.1832 85.5098 90.7626C85.5098 91.4757 86.4453 91.9654 88.4728 92.5897C91.369 93.4583 92.5717 94.6616 92.5717 96.8222C92.5717 98.8049 91.1012 100.587 88.2499 101.033V102.498C88.2499 102.919 87.9083 103.261 87.487 103.261H86.718C86.2957 103.262 85.9546 102.92 85.9546 102.499Z" fill="#74A1BB"/>
<path d="M102.099 116.069H73.6483C73.5481 116.069 73.4673 115.988 73.4673 115.888V110.762C73.4673 110.662 73.5486 110.581 73.6483 110.581H102.099C102.2 110.581 102.28 110.662 102.28 110.762V115.888C102.281 115.988 102.2 116.069 102.099 116.069Z" fill="#74A1BB"/>
<path d="M102.122 122.587H73.6712C73.571 122.587 73.4902 122.506 73.4902 122.406V117.28C73.4902 117.179 73.5715 117.099 73.6712 117.099H102.122C102.223 117.099 102.303 117.18 102.303 117.28V122.406C102.303 122.506 102.222 122.587 102.122 122.587Z" fill="#74A1BB"/>
<path d="M102.145 129.104H73.6937C73.5935 129.104 73.5127 129.023 73.5127 128.923V123.797C73.5127 123.696 73.594 123.616 73.6937 123.616H102.145C102.245 123.616 102.326 123.697 102.326 123.797V128.923C102.326 129.023 102.245 129.104 102.145 129.104Z" fill="#74A1BB"/>
<defs>
<linearGradient id="paint0_linear_133_2001" x1="71.7248" y1="121.068" x2="39.6797" y2="155.924" gradientUnits="userSpaceOnUse">
<stop stop-color="#09005D"/>
<stop offset="1" stop-color="#1A0F91"/>
</linearGradient>
<linearGradient id="paint1_linear_133_2001" x1="61.3236" y1="123.656" x2="64.17" y2="123.656" gradientUnits="userSpaceOnUse">
<stop stop-color="#FEBBBA"/>
<stop offset="1" stop-color="#FF928E"/>
</linearGradient>
<linearGradient id="paint2_linear_133_2001" x1="64.536" y1="114.459" x2="32.4909" y2="149.315" gradientUnits="userSpaceOnUse">
<stop stop-color="#09005D"/>
<stop offset="1" stop-color="#1A0F91"/>
</linearGradient>
<linearGradient id="paint3_linear_133_2001" x1="51.0652" y1="123.511" x2="53.5228" y2="123.511" gradientUnits="userSpaceOnUse">
<stop stop-color="#FEBBBA"/>
<stop offset="1" stop-color="#FF928E"/>
</linearGradient>
<linearGradient id="paint4_linear_133_2001" x1="73.0363" y1="49.3974" x2="87.5781" y2="49.3974" gradientUnits="userSpaceOnUse">
<stop stop-color="#FEBBBA"/>
<stop offset="1" stop-color="#FF928E"/>
</linearGradient>
<linearGradient id="paint5_linear_133_2001" x1="84.3389" y1="46.96" x2="74.581" y2="69.1614" gradientUnits="userSpaceOnUse">
<stop stop-color="#FEBBBA"/>
<stop offset="1" stop-color="#FF928E"/>
</linearGradient>
<linearGradient id="paint6_linear_133_2001" x1="87.5086" y1="39.566" x2="91.5802" y2="33.3059" gradientUnits="userSpaceOnUse">
<stop stop-color="#FEBBBA"/>
<stop offset="1" stop-color="#FF928E"/>
</linearGradient>
<linearGradient id="paint7_linear_133_2001" x1="41.216" y1="69.9955" x2="59.6188" y2="69.9955" gradientUnits="userSpaceOnUse">
<stop stop-color="#FEBBBA"/>
<stop offset="1" stop-color="#FF928E"/>
</linearGradient>
<linearGradient id="paint8_linear_133_2001" x1="58.2523" y1="68.0659" x2="63.9855" y2="68.0659" gradientUnits="userSpaceOnUse">
<stop stop-color="#FEBBBA"/>
<stop offset="1" stop-color="#FF928E"/>
</linearGradient>
<linearGradient id="paint9_linear_133_2001" x1="52.9909" y1="62.1403" x2="60.1717" y2="48.7806" gradientUnits="userSpaceOnUse">
<stop stop-color="#FEBBBA"/>
<stop offset="1" stop-color="#FF928E"/>
</linearGradient>
<linearGradient id="paint10_linear_133_2001" x1="60.3034" y1="40.3488" x2="63.0101" y2="56.2762" gradientUnits="userSpaceOnUse">
<stop stop-color="#FEBBBA"/>
<stop offset="1" stop-color="#FF928E"/>
</linearGradient>
<linearGradient id="paint11_linear_133_2001" x1="54.0742" y1="49.3989" x2="62.257" y2="43.2201" gradientUnits="userSpaceOnUse">
<stop stop-color="#FEBBBA"/>
<stop offset="1" stop-color="#FF928E"/>
</linearGradient>
<linearGradient id="paint12_linear_133_2001" x1="-125.747" y1="-186.048" x2="-135.84" y2="-208.252" gradientUnits="userSpaceOnUse">
<stop stop-color="#09005D"/>
<stop offset="1" stop-color="#1A0F91"/>
</linearGradient>
<linearGradient id="paint13_linear_133_2001" x1="40.5792" y1="148.196" x2="33.5069" y2="65.5377" gradientUnits="userSpaceOnUse">
<stop stop-color="#FEBBBA"/>
<stop offset="1" stop-color="#FF928E"/>
</linearGradient>
<linearGradient id="paint14_linear_133_2001" x1="-108.512" y1="-193.882" x2="-118.604" y2="-216.085" gradientUnits="userSpaceOnUse">
<stop stop-color="#09005D"/>
<stop offset="1" stop-color="#1A0F91"/>
</linearGradient>
<linearGradient id="paint15_linear_133_2001" x1="26.3529" y1="149.426" x2="19.2787" y2="66.7459" gradientUnits="userSpaceOnUse">
<stop stop-color="#FEBBBA"/>
<stop offset="1" stop-color="#FF928E"/>
</linearGradient>
<linearGradient id="paint16_linear_133_2001" x1="39.352" y1="61.396" x2="40.02" y2="49.5393" gradientUnits="userSpaceOnUse">
<stop stop-color="#FEBBBA"/>
<stop offset="1" stop-color="#FF928E"/>
</linearGradient>
<linearGradient id="paint17_linear_133_2001" x1="35.8793" y1="71.4556" x2="27.0541" y2="71.4556" gradientUnits="userSpaceOnUse">
<stop stop-color="#FEBBBA"/>
<stop offset="1" stop-color="#FF928E"/>
</linearGradient>
<linearGradient id="paint18_linear_133_2001" x1="43.7205" y1="55.0151" x2="36.3583" y2="32.5272" gradientUnits="userSpaceOnUse">
<stop stop-color="#FEBBBA"/>
<stop offset="1" stop-color="#FF928E"/>
</linearGradient>
<linearGradient id="paint19_linear_133_2001" x1="41.0305" y1="55.8954" x2="33.6684" y2="33.4074" gradientUnits="userSpaceOnUse">
<stop stop-color="#FEBBBA"/>
<stop offset="1" stop-color="#FF928E"/>
</linearGradient>
</defs>
</svg>
