<svg width="114" height="114" viewBox="0 0 114 114" fill="none" xmlns="http://www.w3.org/2000/svg">
<g opacity="0.3">
<path opacity="0.3" d="M102.011 26.2587C101.809 26.1424 101.741 25.8851 101.857 25.6843C102.083 25.2939 102.296 24.8879 102.489 24.4778C102.587 24.27 102.832 24.1795 103.041 24.2729C103.043 24.2741 103.046 24.2749 103.048 24.2762C103.258 24.3749 103.349 24.6257 103.25 24.8358C103.047 25.2677 102.823 25.695 102.585 26.1059C102.476 26.294 102.244 26.3661 102.05 26.2792C102.037 26.2727 102.024 26.2661 102.011 26.2587ZM103.292 22.4157C103.427 21.9831 103.545 21.5406 103.642 21.1002C103.692 20.8736 103.917 20.7306 104.144 20.7806C104.371 20.8318 104.513 21.0555 104.463 21.2821C104.361 21.7454 104.236 22.2113 104.094 22.6665C104.025 22.8881 103.789 23.0114 103.567 22.9422C103.551 22.9373 103.536 22.9311 103.521 22.9246C103.329 22.8385 103.227 22.621 103.292 22.4157ZM103.969 18.9132C104.005 18.4625 104.021 18.0048 104.018 17.5525C104.016 17.3202 104.203 17.1305 104.435 17.1289C104.667 17.1273 104.856 17.3141 104.858 17.546C104.862 18.0221 104.845 18.5043 104.808 18.9787C104.79 19.2102 104.587 19.3831 104.356 19.3651C104.307 19.361 104.26 19.3491 104.217 19.3298C104.059 19.2594 103.955 19.0951 103.969 18.9132ZM103.846 15.3467C103.78 14.8989 103.694 14.449 103.59 14.009C103.536 13.7828 103.676 13.5563 103.902 13.503C104.128 13.4498 104.354 13.5895 104.408 13.8152C104.518 14.2786 104.608 14.7522 104.678 15.2234C104.712 15.4532 104.554 15.6667 104.324 15.7007C104.241 15.713 104.161 15.7003 104.091 15.6687C103.964 15.6122 103.869 15.4942 103.846 15.3467ZM102.932 11.897C102.769 11.4762 102.585 11.0563 102.385 10.6494C102.283 10.4409 102.37 10.1889 102.578 10.0869C102.787 9.9849 103.038 10.0709 103.14 10.2799C103.35 10.708 103.544 11.1497 103.716 11.5926C103.801 11.8089 103.693 12.0527 103.477 12.1367C103.368 12.1793 103.252 12.1727 103.153 12.1285C103.055 12.0846 102.974 12.0043 102.932 11.897ZM101.278 8.7353C101.025 8.36042 100.752 7.9921 100.468 7.64016C100.323 7.45948 100.351 7.19482 100.532 7.04896C100.712 6.90311 100.977 6.93138 101.123 7.11206C101.422 7.48243 101.708 7.87042 101.974 8.26496C102.104 8.45752 102.054 8.7185 101.861 8.84879C101.736 8.93319 101.582 8.94138 101.454 8.88402C101.385 8.85248 101.323 8.80249 101.278 8.7353ZM87.5513 1.29713C87.55 1.06483 87.7369 0.875548 87.9692 0.874319C88.4448 0.871451 88.9271 0.889478 89.4023 0.92799C89.6338 0.946836 89.8063 1.14923 89.7874 1.38071C89.769 1.61219 89.5662 1.78468 89.3347 1.76583C88.8832 1.72937 88.4256 1.71257 87.9737 1.71503C87.9118 1.71544 87.8528 1.70233 87.7996 1.67857C87.6545 1.61342 87.5521 1.46757 87.5513 1.29713ZM98.9644 6.0206C98.6346 5.71169 98.2872 5.41342 97.9323 5.13401C97.75 4.9902 97.7185 4.72594 97.8619 4.54362C98.0057 4.3609 98.2691 4.33058 98.4523 4.47316C98.8263 4.76732 99.1918 5.08156 99.5392 5.40687C99.7088 5.56542 99.7174 5.83173 99.5585 6.00094C99.4327 6.13532 99.2393 6.16851 99.0799 6.09722C99.0385 6.07919 98.9996 6.05338 98.9644 6.0206ZM91.2034 1.59499C91.2542 1.36842 91.4787 1.22584 91.7053 1.27665C92.1695 1.3803 92.6353 1.50567 93.0897 1.64866C93.3117 1.71749 93.4342 1.9543 93.3646 2.17595C93.2949 2.39719 93.0589 2.52051 92.8373 2.45086C92.4054 2.31484 91.9626 2.19602 91.5217 2.09728C91.4934 2.09114 91.4668 2.08172 91.4414 2.07065C91.2628 1.99035 91.1591 1.79328 91.2034 1.59499ZM96.1034 3.89138C95.713 3.66399 95.3078 3.45094 94.8985 3.25715C94.6883 3.15801 94.599 2.90727 94.6981 2.6975C94.7961 2.49019 95.0415 2.40005 95.2496 2.49347C95.2525 2.4947 95.2549 2.49592 95.2578 2.49715C95.6888 2.70078 96.1153 2.9253 96.5262 3.16415C96.727 3.28092 96.795 3.53821 96.6782 3.73897C96.5693 3.9262 96.3374 3.9979 96.1436 3.91145C96.1301 3.90572 96.1165 3.89875 96.1034 3.89138Z" fill="#91B3FA"/>
<path opacity="0.3" d="M84.8619 1.96274C84.9373 1.99675 85.0237 2.00863 85.1114 1.99183C85.3244 1.95127 85.5416 1.91521 85.7575 1.88326C85.9873 1.84925 86.1459 1.6358 86.1123 1.40595C86.0787 1.17611 85.8648 1.01714 85.635 1.05156C85.408 1.08515 85.1794 1.12326 84.9553 1.16587C84.7271 1.20889 84.5771 1.4289 84.6202 1.6571C84.6464 1.79763 84.7402 1.90866 84.8619 1.96274Z" fill="#91B3FA"/>
</g>
<g opacity="0.3">
<path opacity="0.3" d="M74.198 9.07468C74.3832 9.15744 74.6064 9.09598 74.7212 8.92104C74.84 8.73954 74.9641 8.55763 75.0911 8.38023C75.2263 8.19135 75.1825 7.92873 74.9936 7.79353C74.8039 7.65792 74.5421 7.70217 74.4069 7.89104C74.2734 8.07787 74.1423 8.2692 74.0173 8.46012C73.8903 8.65432 73.9448 8.91489 74.139 9.04231C74.1578 9.05501 74.1779 9.06566 74.198 9.07468Z" fill="#91B3FA"/>
<path opacity="0.3" d="M80.4427 32.6356C80.2358 32.5307 80.153 32.2775 80.2579 32.0702C80.3632 31.8633 80.6156 31.781 80.8229 31.8858C81.217 32.0858 81.6259 32.2722 82.0426 32.4422C82.2569 32.5287 82.3609 32.7753 82.2733 32.9904C82.1856 33.2055 81.9402 33.3087 81.7251 33.2211C81.5444 33.1473 81.3658 33.0711 81.1892 32.992C80.938 32.8794 80.6865 32.7593 80.4427 32.6356ZM83.5982 33.428C83.656 33.203 83.885 33.0678 84.11 33.1256C84.5418 33.2362 84.9826 33.3301 85.421 33.4042C85.6496 33.4423 85.8041 33.6599 85.7656 33.8889C85.7271 34.1179 85.5099 34.272 85.2809 34.2334C84.8196 34.1556 84.355 34.0569 83.901 33.9401C83.8773 33.934 83.8547 33.9262 83.8334 33.9163C83.6499 33.834 83.5466 33.6295 83.5982 33.428ZM78.4757 31.4614C78.0914 31.1947 77.7133 30.9079 77.3519 30.6088C77.1729 30.4609 77.1479 30.1958 77.2962 30.0168C77.4441 29.8381 77.7092 29.8132 77.8882 29.9611C78.2315 30.2454 78.5904 30.5174 78.9551 30.7706C79.146 30.903 79.1931 31.1652 79.0608 31.3557C78.9436 31.5245 78.7252 31.5806 78.5441 31.4999C78.5208 31.4893 78.4974 31.4766 78.4757 31.4614ZM87.1541 34.0261C87.161 33.7942 87.3548 33.6115 87.5867 33.6185C88.0317 33.632 88.4823 33.6263 88.9264 33.6021C89.1583 33.5894 89.3566 33.7668 89.3693 33.9991C89.382 34.231 89.2042 34.4289 88.9727 34.4416C88.5049 34.467 88.0304 34.4731 87.5621 34.4588C87.5056 34.4571 87.4519 34.4444 87.4032 34.4227C87.252 34.3555 87.1487 34.2019 87.1541 34.0261ZM75.6926 29.0314C75.3767 28.6869 75.0711 28.3243 74.7843 27.9527C74.6421 27.7691 74.6761 27.5049 74.8597 27.3631C75.0436 27.221 75.3075 27.255 75.4497 27.4385C75.7221 27.7913 76.0126 28.1358 76.3125 28.4628C76.4694 28.634 76.4579 28.8999 76.2867 29.0568C76.1593 29.1736 75.979 29.1974 75.8307 29.1306C75.7799 29.1081 75.7328 29.0749 75.6926 29.0314ZM73.5101 26.0496C73.2766 25.6436 73.0574 25.2224 72.8587 24.7988C72.7604 24.5886 72.8505 24.3383 73.0611 24.2395C73.2717 24.1408 73.522 24.2314 73.6203 24.4419C73.8092 24.8447 74.0173 25.2446 74.2394 25.6305C74.3553 25.8317 74.2857 26.0889 74.0845 26.2045C73.9632 26.2741 73.8215 26.2766 73.7031 26.2237C73.6244 26.1889 73.556 26.1299 73.5101 26.0496ZM72.0295 22.6634C71.8897 22.2156 71.7676 21.7572 71.666 21.3007C71.6156 21.0742 71.7586 20.8497 71.9852 20.7989C72.2122 20.7485 72.4363 20.8915 72.4867 21.118C72.583 21.5519 72.6993 21.9874 72.8321 22.4131C72.9013 22.6347 72.7776 22.8703 72.5559 22.9396C72.4539 22.9715 72.3494 22.9625 72.2593 22.9219C72.1528 22.8744 72.0667 22.7835 72.0295 22.6634ZM71.3223 19.0347C71.2838 18.5672 71.2649 18.0928 71.2662 17.6249C71.2666 17.3926 71.4555 17.2049 71.6878 17.2058C71.9196 17.2062 72.1077 17.395 72.1069 17.6273C72.1057 18.0719 72.1237 18.5221 72.1601 18.9663C72.179 19.1977 72.0069 19.4005 71.7754 19.4198C71.7025 19.4259 71.632 19.4128 71.5698 19.3846C71.4346 19.3235 71.3354 19.1932 71.3223 19.0347ZM71.4301 15.3375C71.4952 14.8745 71.5816 14.4079 71.6861 13.9507C71.7377 13.7241 71.9635 13.5828 72.1896 13.6344C72.4154 13.686 72.5576 13.9113 72.5059 14.1379C72.4068 14.5722 72.3248 15.0151 72.263 15.4551C72.2306 15.6849 72.018 15.8451 71.7881 15.8124C71.748 15.8066 71.7103 15.7956 71.6751 15.78C71.5079 15.7054 71.4034 15.5272 71.4301 15.3375ZM72.3462 11.7579C72.4674 11.4355 72.6002 11.1122 72.7407 10.7984C72.7915 10.6845 72.8435 10.5718 72.8968 10.46C72.9963 10.2502 73.2463 10.1556 73.4564 10.2601C73.6662 10.3592 73.7559 10.6099 73.6564 10.8201C73.606 10.9266 73.5564 11.034 73.5081 11.1421C73.3745 11.4408 73.2483 11.7477 73.1328 12.0541C73.0513 12.2713 72.8087 12.3815 72.5912 12.2996C72.583 12.2963 72.5748 12.293 72.567 12.2897C72.3662 12.1992 72.2675 11.9669 72.3462 11.7579Z" fill="#91B3FA"/>
<path opacity="0.3" d="M91.0057 34.1286C91.0819 34.1626 91.1691 34.1745 91.2572 34.1573C91.4805 34.1139 91.7075 34.0647 91.9312 34.0119C92.1569 33.9582 92.2966 33.7316 92.243 33.5059C92.1893 33.2801 91.9627 33.1404 91.737 33.1941C91.5243 33.2445 91.3092 33.2912 91.097 33.3322C90.8692 33.3764 90.7201 33.5968 90.7647 33.825C90.7918 33.9647 90.8852 34.0745 91.0057 34.1286Z" fill="#91B3FA"/>
</g>
<path d="M95.0425 28.1578C95.1175 28.1201 95.1601 28.039 95.1491 27.9562L94.8303 25.5861C95.6874 24.8704 96.4368 24.0124 97.0374 23.0324L99.4272 23.0029C99.5112 23.0017 99.5849 22.9476 99.6111 22.8681L100.513 20.1448C100.539 20.0654 100.512 19.9777 100.446 19.9269L98.5455 18.4769C98.6483 17.3322 98.559 16.1969 98.298 15.1108L99.968 13.3991C100.027 13.3393 100.041 13.2487 100.003 13.1737L98.7147 10.6106C98.677 10.5357 98.5959 10.493 98.5131 10.5041L96.143 10.8229C95.4272 9.96576 94.5693 9.21641 93.5893 8.61579L93.5598 6.22599C93.5586 6.142 93.5045 6.06825 93.425 6.04203L90.7017 5.14027C90.6222 5.11405 90.5346 5.14109 90.4838 5.20746L89.0338 7.10767C87.8891 7.00483 86.7538 7.09415 85.6677 7.35513L83.956 5.68518C83.8961 5.62659 83.8056 5.61266 83.7306 5.65035L81.1675 6.93846C81.0925 6.97615 81.0499 7.05727 81.061 7.14003L81.3797 9.51017C80.5226 10.2259 79.7733 11.0838 79.1727 12.0638L76.7829 12.0933C76.6989 12.0942 76.6251 12.1487 76.5989 12.2281L75.6972 14.9514C75.6709 15.0309 75.698 15.1186 75.7643 15.1694L77.6645 16.6193C77.5617 17.7641 77.651 18.8993 77.912 19.9855L76.2421 21.6972C76.1835 21.757 76.1695 21.8476 76.2072 21.9225L77.4953 24.4856C77.533 24.5606 77.6142 24.6032 77.6969 24.5922L80.0671 24.2734C80.7828 25.1305 81.6407 25.8799 82.6207 26.4805L82.6502 28.8703C82.6515 28.9539 82.7055 29.028 82.785 29.0543L85.5083 29.956C85.5878 29.9822 85.6755 29.9552 85.7263 29.8888L87.1762 27.9886C88.3209 28.0914 89.4562 28.0021 90.5423 27.7412L92.2541 29.4111C92.3139 29.4697 92.4045 29.4836 92.4794 29.4459L95.0425 28.1578Z" fill="#74FCFD"/>
<path opacity="0.56" d="M86.5564 19.9801C85.2155 19.1262 84.8189 17.3403 85.6727 15.999C86.0865 15.3492 86.7281 14.8993 87.4803 14.7326C88.2321 14.5658 89.004 14.7014 89.6538 15.1152C90.9947 15.9691 91.3913 17.755 90.5375 19.0963C89.7607 20.3164 88.2124 20.7548 86.9292 20.1808C86.8022 20.1239 86.6777 20.0571 86.5564 19.9801ZM87.6262 15.3897C87.0497 15.5176 86.5576 15.8625 86.2401 16.3607C85.5854 17.3891 85.8894 18.7583 86.9178 19.413C87.9461 20.0681 89.3154 19.7637 89.9701 18.7354C90.6248 17.707 90.3208 16.3378 89.2924 15.6831C89.199 15.6237 89.1027 15.5721 89.0036 15.5278C88.5738 15.3352 88.0949 15.2857 87.6262 15.3897Z" fill="#91B3FA"/>
<path d="M85.1748 23.9585C85.3952 24.0572 85.6218 24.1453 85.8541 24.2219C85.927 24.2461 86.0008 24.2691 86.0745 24.2912C86.4387 24.3989 86.8112 24.4776 87.1856 24.5255C87.1906 24.5264 87.1959 24.5268 87.2008 24.5276C87.2151 24.5292 87.2299 24.5313 87.2442 24.5329C87.2725 24.5362 87.3008 24.5395 87.329 24.5427C87.4032 24.5509 87.4716 24.5091 87.5007 24.4444C87.5077 24.4288 87.5126 24.4116 87.5142 24.3936C87.524 24.3014 87.4573 24.2187 87.3651 24.2084C86.8898 24.1572 86.417 24.0544 85.9598 23.9028C83.6876 23.151 82.0816 21.3012 81.5342 19.1371C81.2294 17.9334 81.2527 16.6326 81.671 15.3687C81.7444 15.147 81.8284 14.9307 81.9226 14.7205C82.5556 13.3062 83.6466 12.1619 85.0498 11.4568C86.6616 10.6468 88.4926 10.5129 90.2051 11.0799C93.7417 12.2512 95.6644 16.0787 94.4939 19.614C94.4218 19.832 94.3386 20.0454 94.2456 20.2536C93.8417 21.1557 93.2452 21.9596 92.4954 22.6053C92.4761 22.6221 92.4614 22.6421 92.4516 22.6638C92.4257 22.7212 92.4335 22.7913 92.4778 22.8421C92.5388 22.9121 92.6445 22.9207 92.715 22.8597C93.502 22.1816 94.1285 21.338 94.5525 20.3908C94.6504 20.1724 94.7373 19.9483 94.8131 19.7193C96.0418 16.0078 94.0207 11.9886 90.3109 10.7599C88.5131 10.1646 86.5912 10.3051 84.8987 11.1557C83.4254 11.896 82.2803 13.0973 81.6153 14.582C81.5166 14.8029 81.4285 15.0298 81.3515 15.2621C80.7562 17.0603 80.8967 18.9822 81.7472 20.6743C82.488 22.1488 83.6896 23.2944 85.1748 23.9585Z" fill="#BDD0FB"/>
<g opacity="0.3">
<path opacity="0.3" d="M110.622 42.2511C110.724 42.2969 110.849 42.2724 110.925 42.1822C111.068 42.0147 111.208 41.8401 111.341 41.664C111.427 41.5497 111.405 41.387 111.29 41.3001C111.176 41.2133 111.013 41.2366 110.926 41.3509C110.8 41.5189 110.666 41.6849 110.53 41.845C110.437 41.954 110.45 42.1179 110.559 42.2109C110.579 42.2281 110.599 42.2412 110.622 42.2511Z" fill="#91B3FA"/>
<path opacity="0.3" d="M111.749 40.6067C111.625 40.535 111.582 40.3765 111.654 40.2519C111.834 39.9381 112.001 39.6116 112.148 39.2813C112.18 39.2117 112.21 39.1412 112.24 39.0707C112.296 38.9388 112.448 38.877 112.58 38.9327C112.703 38.9904 112.774 39.1408 112.718 39.2731C112.687 39.3473 112.655 39.4206 112.622 39.4936C112.468 39.8398 112.293 40.1823 112.103 40.5113C112.037 40.6276 111.893 40.6727 111.773 40.619C111.765 40.6149 111.757 40.6108 111.749 40.6067ZM112.678 37.8269C112.799 37.4049 112.894 36.9718 112.961 36.5392C112.983 36.3974 113.116 36.3007 113.258 36.3229C113.399 36.345 113.497 36.4777 113.474 36.6195C113.404 37.0726 113.304 37.527 113.178 37.9695C113.138 38.1075 112.995 38.1874 112.856 38.1481C112.845 38.1448 112.833 38.1403 112.821 38.135C112.706 38.0829 112.642 37.9523 112.678 37.8269ZM113.083 35.2261C113.096 34.7881 113.082 34.3448 113.041 33.9081C113.027 33.7655 113.132 33.6389 113.275 33.6254C113.419 33.6119 113.545 33.7163 113.558 33.8593C113.601 34.3174 113.616 34.7824 113.603 35.2417C113.598 35.385 113.478 35.4977 113.335 35.4936C113.3 35.4924 113.267 35.4846 113.237 35.4711C113.143 35.4293 113.08 35.3342 113.083 35.2261ZM112.836 32.6052C112.741 32.1767 112.619 31.7502 112.473 31.338C112.425 31.2028 112.495 31.0541 112.63 31.0065C112.765 30.9586 112.914 31.0291 112.962 31.1643C113.115 31.5969 113.243 32.0439 113.343 32.4934C113.374 32.6335 113.285 32.772 113.145 32.8031C113.089 32.8154 113.033 32.8084 112.983 32.7867C112.911 32.7539 112.855 32.6888 112.836 32.6052ZM111.957 30.124C111.761 29.7316 111.539 29.3477 111.297 28.983C111.218 28.8638 111.25 28.7024 111.37 28.6233C111.49 28.5438 111.651 28.5762 111.73 28.6962C111.983 29.0785 112.216 29.4812 112.422 29.8922C112.486 30.0204 112.434 30.1765 112.305 30.2404C112.233 30.2765 112.152 30.2756 112.083 30.2453C112.03 30.2211 111.985 30.1798 111.957 30.124ZM110.502 27.9313C110.217 27.5986 109.908 27.2807 109.585 26.9865C109.478 26.8903 109.471 26.726 109.567 26.6199C109.663 26.5137 109.827 26.506 109.934 26.6022C110.274 26.9107 110.597 27.2442 110.896 27.5933C110.99 27.7023 110.977 27.8662 110.869 27.9596C110.79 28.0272 110.682 28.0391 110.593 27.9993C110.56 27.9842 110.528 27.9616 110.502 27.9313ZM108.557 26.1618C108.2 25.9102 107.822 25.6775 107.434 25.4706C107.307 25.403 107.26 25.2457 107.327 25.1191C107.395 24.9925 107.551 24.9466 107.679 25.0122C108.085 25.2293 108.482 25.4731 108.856 25.7369C108.973 25.8197 109.002 25.9815 108.919 26.0987C108.846 26.202 108.712 26.236 108.601 26.186C108.585 26.1802 108.571 26.172 108.557 26.1618ZM104.788 24.2104C104.823 24.0711 104.964 23.9867 105.103 24.0215C105.488 24.1178 105.874 24.2366 106.25 24.3747C106.308 24.3952 106.364 24.4169 106.421 24.4386C106.556 24.4861 106.621 24.6406 106.569 24.7745C106.518 24.9085 106.367 24.9749 106.233 24.9233C106.18 24.9028 106.127 24.8827 106.072 24.863C105.712 24.7307 105.344 24.6172 104.976 24.5254C104.961 24.5218 104.947 24.5164 104.933 24.5107C104.821 24.4599 104.757 24.3345 104.788 24.2104Z" fill="#91B3FA"/>
</g>
<g opacity="0.3">
<path opacity="0.3" d="M97.6671 45.0767C97.2566 44.8866 96.8538 44.6694 96.4704 44.4322C96.3487 44.3568 96.311 44.1966 96.3864 44.0746C96.4618 43.9525 96.622 43.9168 96.744 43.9906C97.1095 44.2171 97.4938 44.424 97.8855 44.6055C98.0158 44.6658 98.0723 44.8202 98.0121 44.9501C97.9523 45.0791 97.7998 45.1361 97.6704 45.0779C97.6696 45.0775 97.6683 45.0771 97.6671 45.0767ZM98.7667 45.2455C98.811 45.1091 98.9573 45.0345 99.0937 45.0787C99.5042 45.2119 99.9266 45.3213 100.35 45.404C100.49 45.4319 100.582 45.5679 100.555 45.7089C100.527 45.8498 100.391 45.9412 100.25 45.9137C99.8066 45.8269 99.3637 45.7121 98.9339 45.5724C98.9249 45.5696 98.9163 45.5663 98.9077 45.5622C98.788 45.5093 98.7254 45.3733 98.7667 45.2455ZM95.3601 43.646C95.0073 43.3621 94.6689 43.0544 94.3542 42.7311C94.2543 42.6283 94.2563 42.4636 94.3592 42.364C94.462 42.2641 94.6255 42.2661 94.7263 42.369C95.0262 42.6775 95.349 42.9708 95.6854 43.242C95.7972 43.3322 95.8148 43.4956 95.7247 43.6071C95.6489 43.7009 95.5215 43.7284 95.4166 43.6812C95.3973 43.6722 95.3781 43.6603 95.3601 43.646ZM101.358 45.8158C101.368 45.6728 101.493 45.5651 101.635 45.5753C102.066 45.6056 102.502 45.6101 102.933 45.588C103.076 45.581 103.198 45.6912 103.205 45.8338C103.213 45.9772 103.103 46.0993 102.959 46.1067C102.508 46.13 102.05 46.1255 101.599 46.0936C101.568 46.0911 101.538 46.0837 101.511 46.0714C101.414 46.028 101.35 45.9276 101.358 45.8158ZM93.4681 41.7011C93.1944 41.3414 92.9403 40.9612 92.7121 40.5712C92.6396 40.4474 92.6814 40.2881 92.8051 40.216C92.9289 40.1435 93.0883 40.1848 93.1604 40.309C93.3779 40.6814 93.6205 41.0436 93.8814 41.3865C93.9683 41.5008 93.9462 41.6634 93.8319 41.7503C93.7536 41.8097 93.6524 41.8179 93.5684 41.7806C93.5299 41.7638 93.4951 41.7368 93.4681 41.7011ZM92.0972 39.3589C91.9173 38.9434 91.7612 38.5132 91.6334 38.0806C91.5928 37.9433 91.6711 37.7987 91.8083 37.7582C91.9456 37.7172 92.0902 37.7958 92.1312 37.9335C92.2533 38.3461 92.4024 38.7562 92.5741 39.1528C92.631 39.2843 92.5704 39.4371 92.4389 39.4941C92.3692 39.524 92.2938 39.5215 92.2295 39.4928C92.1722 39.467 92.1242 39.4207 92.0972 39.3589ZM91.3269 36.7552C91.252 36.3086 91.2036 35.8534 91.1831 35.4024C91.1766 35.259 91.2876 35.1377 91.431 35.1311C91.5744 35.1246 91.6953 35.236 91.7022 35.3786C91.7215 35.8088 91.7674 36.2427 91.8395 36.6683C91.8632 36.8097 91.7678 36.9437 91.6264 36.9674C91.574 36.9764 91.5228 36.9687 91.4777 36.9486C91.4007 36.915 91.3421 36.8441 91.3269 36.7552Z" fill="#91B3FA"/>
<path opacity="0.3" d="M104.172 45.9338C104.218 45.9543 104.27 45.9617 104.323 45.9523C104.542 45.9137 104.76 45.8687 104.973 45.8183C105.112 45.7851 105.199 45.645 105.166 45.5057C105.132 45.3664 104.992 45.2803 104.853 45.3131C104.65 45.3615 104.442 45.4045 104.233 45.4414C104.091 45.4663 103.997 45.6011 104.022 45.7421C104.038 45.8298 104.096 45.8998 104.172 45.9338Z" fill="#91B3FA"/>
</g>
<path d="M107.06 41.9216C107.11 41.8962 107.139 41.8421 107.131 41.7864L106.918 40.2004C107.492 39.7215 107.993 39.1475 108.395 38.4916L109.994 38.4719C110.05 38.4711 110.1 38.435 110.118 38.3818L110.721 36.5594C110.738 36.5061 110.72 36.4476 110.676 36.4136L109.404 35.4434C109.473 34.6772 109.413 33.9176 109.239 33.1908L110.356 32.0453C110.396 32.0051 110.405 31.9445 110.38 31.8945L109.518 30.1795C109.493 30.1295 109.438 30.1008 109.383 30.1082L107.797 30.3213C107.318 29.7477 106.744 29.2462 106.088 28.8443L106.068 27.2452C106.067 27.1891 106.031 27.1395 105.978 27.1219L104.156 26.5184C104.102 26.5008 104.044 26.5188 104.01 26.5635L103.04 27.8348C102.273 27.7659 101.514 27.8258 100.787 28.0003L99.6415 26.8826C99.6013 26.8433 99.5407 26.8339 99.4907 26.8593L97.7757 27.7213C97.7257 27.7463 97.697 27.8008 97.7044 27.8561L97.9175 29.442C97.3439 29.921 96.8424 30.495 96.4405 31.1509L94.8414 31.1706C94.7853 31.1714 94.7357 31.2074 94.7181 31.2607L94.1146 33.0831C94.097 33.1363 94.115 33.1949 94.1597 33.2289L95.431 34.1991C95.3621 34.9652 95.422 35.7248 95.5965 36.4517L94.4788 37.5972C94.4395 37.6373 94.4301 37.698 94.4555 37.748L95.3175 39.463C95.3425 39.513 95.397 39.5416 95.4527 39.5343L97.0386 39.3212C97.5176 39.8948 98.0916 40.3963 98.7475 40.7982L98.7672 42.3973C98.768 42.4534 98.804 42.503 98.8573 42.5206L100.68 43.1237C100.733 43.1413 100.792 43.1233 100.826 43.0786L101.796 41.8073C102.562 41.8761 103.321 41.8163 104.048 41.6418L105.194 42.7595C105.234 42.7988 105.295 42.8078 105.345 42.7828L107.06 41.9216Z" fill="#74FCFD"/>
<path d="M101.363 36.4787C100.92 36.1968 100.614 35.7597 100.5 35.2475C100.386 34.7354 100.479 34.2097 100.761 33.7673C101.342 32.8536 102.557 32.5844 103.473 33.1654C104.386 33.7472 104.656 34.9636 104.074 35.8768C103.792 36.3193 103.355 36.6258 102.843 36.7397C102.427 36.8318 102.002 36.788 101.619 36.6172C101.532 36.5774 101.446 36.5315 101.363 36.4787ZM101.199 34.0459C100.992 34.3716 100.924 34.7583 101.007 35.1353C101.091 35.5118 101.316 35.8334 101.642 36.0407C101.968 36.2476 102.354 36.316 102.731 36.2324C103.107 36.1489 103.429 35.9235 103.636 35.5982C104.064 34.9263 103.866 34.0315 103.194 33.6034C103.133 33.5649 103.071 33.5313 103.007 33.503C102.364 33.215 101.588 33.4346 101.199 34.0459Z" fill="#BDD0FB"/>
<path d="M100.402 39.2478C100.552 39.315 100.706 39.3748 100.866 39.4277C101.182 39.5325 101.509 39.6051 101.839 39.6436C101.853 39.6452 101.868 39.6469 101.883 39.6485C101.998 39.6608 102.103 39.5965 102.148 39.4965C102.16 39.4723 102.166 39.4457 102.17 39.4178C102.185 39.2753 102.082 39.1478 101.939 39.1319C101.631 39.0987 101.325 39.0319 101.03 38.934C101.014 38.9286 100.998 38.9229 100.982 38.9176C100.285 38.6795 99.6734 38.2764 99.1879 37.7483C98.9245 37.4615 98.6979 37.1374 98.5152 36.7822C98.5136 36.7793 98.5123 36.7765 98.5107 36.7736C98.5062 36.7646 98.5017 36.756 98.4972 36.747C97.9728 35.7035 97.8863 34.5182 98.253 33.4095C98.3005 33.2661 98.3546 33.126 98.4156 32.99C98.8254 32.0743 99.5317 31.3336 100.44 30.8772C101.484 30.3527 102.669 30.2663 103.777 30.6334C104.885 31.0005 105.785 31.7773 106.31 32.8208C106.834 33.8643 106.921 35.0496 106.554 36.1582C106.507 36.2992 106.454 36.4376 106.393 36.572C106.132 37.1563 105.746 37.6766 105.261 38.0945C105.231 38.1203 105.208 38.1514 105.193 38.185C105.153 38.2739 105.166 38.3817 105.233 38.4604C105.327 38.5689 105.49 38.5812 105.599 38.4874C106.142 38.0199 106.574 37.4373 106.867 36.7843C106.935 36.6335 106.995 36.479 107.047 36.3209C107.458 35.0803 107.361 33.7545 106.774 32.5868C106.187 31.4196 105.182 30.5498 103.941 30.1397C102.701 29.7288 101.375 29.8259 100.207 30.4126C99.1908 30.923 98.4005 31.7519 97.942 32.7765C97.874 32.9285 97.813 33.0855 97.7601 33.2457C96.9645 35.6482 98.1403 38.2362 100.402 39.2478Z" fill="#BDD0FB"/>
<path d="M1.61088 19.0293C2.27665 18.4058 3.17717 18.0956 4.0859 18.1776C13.8069 19.0519 31.9437 14.3694 43.7972 2.24091C44.6203 1.39856 46.1207 1.87464 47.0642 2.57974C60.2464 12.4327 82.0984 14.473 89.6844 14.8901C91.2536 14.9765 92.5266 16.1938 92.6888 17.7568C99.5874 84.3852 56.2059 108.529 47.2088 112.791C46.2251 113.257 45.0673 113.189 44.1434 112.614C-0.699441 84.6823 1.21879 48.358 0.598501 21.4433C0.577606 20.5313 0.945111 19.6533 1.61088 19.0293Z" fill="#74A1BB"/>
<path d="M45.9952 107.933C45.7982 107.933 45.6011 107.877 45.4298 107.768C28.2415 96.7806 17.0394 83.6455 11.1827 67.6118C5.95162 53.2906 5.69555 38.7072 5.4694 25.8405L5.43867 24.1251C5.43334 23.844 5.53905 23.5789 5.7357 23.3782C5.93441 23.1758 6.20072 23.0643 6.48587 23.0643C6.48587 23.0643 6.48587 23.0643 6.48628 23.0643C17.1361 23.0643 33.1215 18.3622 44.8456 7.85655C45.1996 7.53944 45.7236 7.50174 46.1194 7.76436C59.0009 16.3116 77.374 18.8001 87.1798 19.5229C87.6924 19.561 88.0972 19.9604 88.1418 20.4734C90.4202 46.4662 85.0141 68.4455 72.0732 85.8014C62.4088 98.7632 50.9485 105.516 46.4701 107.818C46.3213 107.895 46.1583 107.933 45.9952 107.933ZM46.2878 107.463L46.3791 107.641L46.2878 107.463C50.7416 105.174 62.1388 98.4576 71.7533 85.5625C84.6335 68.2878 90.0138 46.4002 87.744 20.5082C87.7166 20.1915 87.4666 19.9444 87.1507 19.9215C77.306 19.1959 58.8562 16.6947 45.8989 8.09704C45.6544 7.9348 45.3311 7.95856 45.1127 8.15399C39.7128 12.9926 32.9072 17.0011 25.4318 19.7461C18.9032 22.1433 12.1783 23.4638 6.4957 23.4638C6.4957 23.4638 6.4957 23.4638 6.49529 23.4638C6.30929 23.4638 6.14418 23.5326 6.02127 23.658C5.9004 23.7813 5.83526 23.9444 5.83854 24.1177L5.86927 25.8335C6.0946 38.6687 6.35026 53.2169 11.5584 67.475C17.384 83.4231 28.5341 96.493 45.6453 107.432C45.8387 107.555 46.0849 107.567 46.2878 107.463Z" fill="#C6EEEF"/>
<path d="M58.6326 33.8548L69.1316 54.9673L82.6285 24.9766L68.6093 40.4982L58.6326 33.8548Z" fill="#C6EEEF"/>
<path d="M29.278 113.132C29.2771 113.086 29.2804 113.039 29.2923 112.992C29.988 110.234 32.8329 108.82 32.8329 108.82L34.2014 108.927C34.988 111.358 35.4952 112.545 35.369 113.209C35.3653 113.228 35.36 113.246 35.3551 113.264C34.2255 113.364 31.9025 113.43 29.278 113.132Z" fill="black"/>
<path d="M35.3544 113.263C35.2933 113.485 35.1299 113.658 34.9201 113.702C33.3145 114.039 30.7624 113.768 29.6911 113.628C29.4547 113.597 29.2818 113.378 29.2781 113.131C31.9026 113.43 34.2257 113.364 35.3544 113.263Z" fill="#74A1BB"/>
<path d="M31.7061 106.69L32.305 109.574C32.3489 109.786 32.5111 109.944 32.7082 109.962C32.9491 109.985 33.2916 109.998 33.6362 109.947C33.9451 109.902 34.1606 109.588 34.1057 109.251L33.689 106.69H31.7061V106.69Z" fill="url(#paint0_linear_132_1828)"/>
<path d="M46.981 113.239C45.5196 113.198 44.7637 113.026 44.3728 112.866C44.372 113.012 44.3728 113.16 44.3773 113.313C44.3823 113.476 44.5035 113.607 44.6527 113.606L52.6767 113.555C52.9328 113.553 53.0823 113.256 52.9713 113.021C51.92 113.108 49.2401 113.303 46.981 113.239Z" fill="#74A1BB"/>
<path d="M52.9721 113.021C52.9622 113.001 52.954 112.98 52.9401 112.961C52.2313 111.97 50.4266 109.999 46.8601 109.144L45.1492 109.09C45.1492 109.09 44.3876 110.414 44.3728 112.867C44.7637 113.027 45.5196 113.199 46.981 113.24C49.2401 113.303 51.9199 113.108 52.9721 113.021Z" fill="black"/>
<path d="M44.832 106.497C44.8509 106.624 45.0856 108.562 45.1762 109.314C45.1979 109.492 45.327 109.63 45.49 109.65C45.7813 109.685 46.2529 109.716 46.665 109.632C46.8875 109.587 47.0485 109.373 47.0485 109.124V106.082L44.832 106.497Z" fill="url(#paint1_linear_132_1828)"/>
<path d="M32.8491 68.8174C32.8491 68.8174 30.1115 93.1534 31.6323 108.363C31.6323 108.363 33.4576 108.363 34.37 108.059C34.37 108.059 37.2149 84.2644 38.1351 77.4556C38.17 77.1987 38.5362 77.1872 38.5866 77.4412C39.7223 83.1693 44.1824 105.633 44.7125 107.754C44.7125 107.754 46.2333 108.363 47.4506 107.754C47.4506 107.754 45.0169 75.2051 43.1917 69.4254L32.8491 68.8174Z" fill="black"/>
<path d="M27.3734 40.5272C27.3734 40.5272 38.9332 38.702 48.059 41.1356L47.4505 50.5658C47.4505 50.5658 45.0169 63.6464 43.1917 69.426C43.1917 69.426 36.1952 70.6429 32.8487 68.8176C32.8487 68.8176 30.1111 52.391 28.5898 49.9573C28.5902 49.9573 27.0694 43.5692 27.3734 40.5272Z" fill="#74FCFD"/>
<path d="M35.4039 32.2148L34.2522 40.0025C34.2522 40.0025 37.4696 41.4803 39.7221 39.939L39.2371 34.4432L35.4039 32.2148Z" fill="url(#paint2_linear_132_1828)"/>
<path d="M40.3619 27.1435C40.3984 27.2095 41.0924 31.1361 41.5193 33.5668C41.6959 34.571 40.9576 35.5043 39.9395 35.5645L39.0074 35.6199C37.2949 35.7215 35.7863 34.5018 35.527 32.806L34.853 28.4029C34.853 28.4025 39.4815 25.5465 40.3619 27.1435Z" fill="url(#paint3_linear_132_1828)"/>
<path d="M33.8479 28.4137C33.4907 27.9692 33.1789 27.2506 33.9401 26.4951C34.7107 25.7302 35.5846 25.9207 36.1394 26.1771C36.3848 26.2906 36.6872 26.2402 36.8621 26.0337C36.9399 25.942 37.0551 25.8797 37.2259 25.8989C37.5484 25.935 37.836 25.7224 37.8745 25.4003C37.94 24.8481 38.2342 24.1979 39.2105 24.0094C41.0013 23.6632 41.8945 25.4552 41.8629 26.7151C41.831 27.9745 39.8681 28.2396 38.7545 28.0306C37.9363 27.877 37.2292 28.596 36.9113 28.9885C36.7957 29.1311 36.7527 29.3175 36.7945 29.4961L37.0776 30.713C36.8814 31.0911 36.6892 31.4775 36.4135 31.8003C36.2152 32.0326 35.9976 32.1609 35.767 32.2153C35.4331 31.5938 34.4993 31.4885 34.0655 31.4746C33.8995 31.4693 33.7443 31.3959 33.6353 31.271C33.3079 30.8953 32.7954 30.0579 33.7762 29.2352C34.0196 29.0299 34.0474 28.6616 33.8479 28.4137Z" fill="black"/>
<path d="M36.0897 33.5174C36.0897 33.5174 36.0512 31.3201 35.1617 31.1136C34.2723 30.9072 33.3131 31.5504 34.0736 32.8659C35.0196 34.5023 36.0897 33.5174 36.0897 33.5174Z" fill="url(#paint4_linear_132_1828)"/>
<path d="M27.3734 40.5269C27.3734 40.5269 9.42547 59.9956 30.5674 67.4485V65.9277C30.5674 65.9277 22.6581 59.2351 28.7422 50.1094C28.7426 50.109 27.9818 41.4393 27.3734 40.5269Z" fill="#74FCFD"/>
<path d="M30.7199 66.0793C30.7199 66.0793 33.4575 64.254 34.6744 64.8624C35.8912 65.4709 35.8912 66.3833 35.8912 66.3833C35.8912 66.3833 35.2828 67.6001 34.3704 67.2957C33.458 66.9917 31.3283 67.6001 30.4159 67.2957C30.4155 67.2961 30.1115 66.0793 30.7199 66.0793Z" fill="url(#paint5_linear_132_1828)"/>
<path d="M48.0594 41.1353C48.0594 41.1353 66.7677 59.9955 45.6257 67.4485V65.9276C45.6257 65.9276 53.5351 59.2351 47.451 50.1094C47.451 50.109 46.8426 42.6561 48.0594 41.1353Z" fill="#74FCFD"/>
<path d="M45.4733 66.0793C45.4733 66.0793 42.7356 64.254 41.5188 64.8624C40.302 65.4709 40.302 66.3833 40.302 66.3833C40.302 66.3833 40.9104 67.6001 41.8228 67.2957C42.7352 66.9917 44.8649 67.6001 45.7773 67.2957C45.7777 67.2961 46.0817 66.0793 45.4733 66.0793Z" fill="url(#paint6_linear_132_1828)"/>
<path d="M22.3747 28.3774C22.3747 28.3774 20.4684 29.3046 20.1181 30.3698C19.837 31.2245 17.7291 31.3347 17.521 33.0153C17.4136 33.883 16.7712 34.5783 15.9067 34.7106C13.7542 35.0405 10.4364 36.1585 9.9054 39.8963C9.5002 42.7494 10.9547 43.8311 12.4808 44.2055C13.6017 44.4804 14.347 45.5711 14.12 46.7027C13.9025 47.7884 14.227 49.0433 16.1075 50.0356C20.3221 52.2595 24.5306 44.7672 24.5306 44.7672L25.393 31.6854L22.3747 28.3774Z" fill="black"/>
<path d="M5.05153 110.406L4.77867 112.648C4.72705 113.073 4.39191 113.409 3.96622 113.458C3.2476 113.54 2.09429 113.624 0.965557 113.505C0.470225 113.453 0.148608 112.951 0.299788 112.476C0.5747 111.611 1.07822 110.311 1.80381 109.547H4.29071C4.75081 109.547 5.10684 109.949 5.05153 110.406Z" fill="black"/>
<path d="M24.531 84.1421L24.9509 86.6114C24.9509 86.6114 23.5452 100.851 23.2953 106.546C23.256 107.439 23.487 108.322 23.9557 109.083L26.4 113.052L20.1877 109.386L20.064 108.628L21.0809 107.23L19.7489 91.2787C19.6707 90.3417 19.864 89.4019 20.3057 88.5718L21.5905 86.1578L24.531 84.1421Z" fill="url(#paint7_linear_132_1828)"/>
<path d="M26.8088 113.627H24.8263C24.4551 113.627 24.1052 113.457 23.879 113.163C23.2612 112.36 21.9805 110.793 21.3684 110.752C20.5441 110.697 20.6498 113.627 20.6498 113.627H20.1876L19.6026 109.986C19.4555 109.07 19.9111 108.163 20.7338 107.733C20.7338 107.733 20.9222 109.127 21.944 109.743C22.9658 110.359 26.1013 112.567 26.1013 112.567C26.1013 112.567 26.4852 112.512 26.9072 112.588C27.532 112.701 27.4447 113.627 26.8088 113.627Z" fill="black"/>
<path d="M16.0222 85.3153C16.0222 85.3153 7.78677 100.937 6.47776 104.504C5.16876 108.07 4.70989 111.046 4.69269 111.328C4.66524 111.768 4.11746 112.19 2.60811 112.19C1.82927 112.19 1.44742 111.878 1.2606 111.576C1.10122 111.318 1.09303 110.995 1.22741 110.724C1.7039 109.759 3.21571 106.678 3.77536 105.281C4.444 103.613 5.88165 96.0516 6.67033 93.4225C7.459 90.7939 8.35052 87.9419 11.7847 85.3153C11.7847 85.3153 14.1421 83.0062 16.0222 85.3153Z" fill="url(#paint8_linear_132_1828)"/>
<path d="M21.2247 59.718C23.349 50.7164 17.9675 45.6251 17.9675 45.6251C21.3632 42.3655 27.5501 40.8823 27.5501 40.8823C27.5501 40.8823 33.4539 45.1986 32.7533 48.5766C32.3428 50.5567 28.6034 60.4367 28.6034 60.4367C28.6034 60.4367 25.1459 62.0734 21.2247 59.718Z" fill="#597B8E"/>
<path d="M16.5146 64.1751C17.3791 61.5706 21.2246 59.7188 21.2246 59.7188C25.1458 62.0737 28.6037 60.4374 28.6037 60.4374C28.6037 60.4374 29.3793 63.4012 28.8438 66.1556C28.3087 68.91 24.9508 86.6121 24.9508 86.6121C19.6599 87.6843 11.5232 85.5338 11.5232 85.5338C14.893 79.55 15.6501 66.7796 16.5146 64.1751Z" fill="black"/>
<path d="M23.6905 34.934L21.9632 42.6922C21.7977 43.3756 22.4209 43.2637 23.1116 43.1334C24.2432 42.92 25.7014 42.4808 26.1889 41.6003C26.2385 41.5106 26.2635 41.4094 26.2774 41.3078L27.0194 35.9284C27.0784 35.5015 26.8477 35.0873 26.4536 34.9127L25.0217 34.2777C24.4702 34.0335 23.8323 34.3478 23.6905 34.934Z" fill="url(#paint9_linear_132_1828)"/>
<path d="M17.9675 45.625C17.9675 45.625 5.91278 54.2493 16.4258 63.3119C16.4258 63.3119 16.8265 63.7654 17.6151 64.001C18.0134 64.1198 19.1909 65.0109 19.7882 65.4755C19.9804 65.6247 20.2573 65.5739 20.3864 65.3678C20.4876 65.2064 20.4995 65.0044 20.4179 64.8319L18.9254 61.6764C18.5112 61.2896 17.8765 61.2622 17.4304 61.6116C17.1456 61.8345 16.7285 61.7411 16.5692 61.4166C15.7563 59.7614 14.222 54.8933 20.5027 49.3926C20.7387 49.1857 20.7985 48.8436 20.6535 48.5654C20.2127 47.7182 19.2036 46.0347 17.9675 45.625Z" fill="url(#paint10_linear_132_1828)"/>
<path d="M26.9985 27.8618C26.9985 27.8618 28.8372 29.1065 29.6271 32.2764C30.4175 35.4462 29.1335 36.5832 27.8171 36.5135C26.5011 36.4439 24.5927 36.0366 22.9391 33.7628C21.286 31.4885 24.589 26.341 26.9985 27.8618Z" fill="url(#paint11_linear_132_1828)"/>
<path d="M24.6067 32.4839C24.6067 32.4839 23.9331 27.9419 27.704 28.6368L28.4665 29.4308C28.4665 29.4308 30.3122 27.352 28.2698 25.7807C26.227 24.2095 23.3927 24.6119 21.8244 27.4724C20.256 30.333 19.6869 32.343 21.0013 34.1207C22.3156 35.8984 23.3042 34.3739 23.3042 34.3739C23.3042 34.3739 22.7015 32.8354 23.2014 32.1754C23.7016 31.5154 24.3469 32.5593 24.3469 32.5593L24.6067 32.4839Z" fill="black"/>
<path d="M24.0914 32.8733C24.0914 32.8733 23.7587 30.5364 22.5652 31.2046C21.3717 31.8729 22.9954 33.3875 23.6464 33.9029L24.0914 32.8733Z" fill="url(#paint12_linear_132_1828)"/>
<defs>
<linearGradient id="paint0_linear_132_1828" x1="33.3831" y1="103.914" x2="32.1632" y2="114.56" gradientUnits="userSpaceOnUse">
<stop stop-color="#FEBBBA"/>
<stop offset="1" stop-color="#FF928E"/>
</linearGradient>
<linearGradient id="paint1_linear_132_1828" x1="46.2328" y1="105.276" x2="45.0917" y2="115.234" gradientUnits="userSpaceOnUse">
<stop stop-color="#FEBBBA"/>
<stop offset="1" stop-color="#FF928E"/>
</linearGradient>
<linearGradient id="paint2_linear_132_1828" x1="34.2522" y1="36.4276" x2="39.7222" y2="36.4276" gradientUnits="userSpaceOnUse">
<stop stop-color="#FEBBBA"/>
<stop offset="1" stop-color="#FF928E"/>
</linearGradient>
<linearGradient id="paint3_linear_132_1828" x1="492.963" y1="-385.913" x2="500.229" y2="-392.581" gradientUnits="userSpaceOnUse">
<stop stop-color="#FEBBBA"/>
<stop offset="1" stop-color="#FF928E"/>
</linearGradient>
<linearGradient id="paint4_linear_132_1828" x1="492.002" y1="-386.97" x2="499.268" y2="-393.639" gradientUnits="userSpaceOnUse">
<stop stop-color="#FEBBBA"/>
<stop offset="1" stop-color="#FF928E"/>
</linearGradient>
<linearGradient id="paint5_linear_132_1828" x1="35.5837" y1="64.3406" x2="25.8493" y2="72.6553" gradientUnits="userSpaceOnUse">
<stop stop-color="#FEBBBA"/>
<stop offset="1" stop-color="#FF928E"/>
</linearGradient>
<linearGradient id="paint6_linear_132_1828" x1="41.4407" y1="64.7887" x2="46.9163" y2="70.2643" gradientUnits="userSpaceOnUse">
<stop stop-color="#FEBBBA"/>
<stop offset="1" stop-color="#FF928E"/>
</linearGradient>
<linearGradient id="paint7_linear_132_1828" x1="25.3176" y1="130.464" x2="18.4176" y2="49.8197" gradientUnits="userSpaceOnUse">
<stop stop-color="#FEBBBA"/>
<stop offset="1" stop-color="#FF928E"/>
</linearGradient>
<linearGradient id="paint8_linear_132_1828" x1="11.4377" y1="131.664" x2="4.53589" y2="50.9986" gradientUnits="userSpaceOnUse">
<stop stop-color="#FEBBBA"/>
<stop offset="1" stop-color="#FF928E"/>
</linearGradient>
<linearGradient id="paint9_linear_132_1828" x1="26.0742" y1="50.973" x2="24.778" y2="41.4907" gradientUnits="userSpaceOnUse">
<stop stop-color="#FEBBBA"/>
<stop offset="1" stop-color="#FF928E"/>
</linearGradient>
<linearGradient id="paint10_linear_132_1828" x1="20.7322" y1="55.5935" x2="12.122" y2="55.5935" gradientUnits="userSpaceOnUse">
<stop stop-color="#FEBBBA"/>
<stop offset="1" stop-color="#FF928E"/>
</linearGradient>
<linearGradient id="paint11_linear_132_1828" x1="28.3821" y1="39.5536" x2="21.1993" y2="17.6137" gradientUnits="userSpaceOnUse">
<stop stop-color="#FEBBBA"/>
<stop offset="1" stop-color="#FF928E"/>
</linearGradient>
<linearGradient id="paint12_linear_132_1828" x1="25.758" y1="40.413" x2="18.5753" y2="18.4728" gradientUnits="userSpaceOnUse">
<stop stop-color="#FEBBBA"/>
<stop offset="1" stop-color="#FF928E"/>
</linearGradient>
</defs>
</svg>
