<svg width="73" height="73" fill="none" xmlns="http://www.w3.org/2000/svg"><rect width="73" height="73" rx="11" fill="#0FF"/><path d="M44.333 26.334H29.667a3.3 3.3 0 00-3.334 3.333v14.666a3.3 3.3 0 003.334 3.334h14.666a3.3 3.3 0 003.334-3.334V29.668a3.301 3.301 0 00-3.334-3.334zm0 20H29.667c-1.134 0-2-.867-2-2V29.666c0-1.134.866-2 2-2h14.666c1.134 0 2 .866 2 2V31.6h-16c-.4 0-.666.267-.666.667s.266.666.666.666h16v11.4c0 1.134-.866 2-2 2z" fill="#000"/><path d="M31.733 34.067c-.6 0-1.133.533-1.133 1.133s.533 1.134 1.133 1.134 1.134-.534 1.134-1.134c0-.6-.534-1.133-1.134-1.133zm5.267 0c-.6 0-1.133.533-1.133 1.133S36.4 36.334 37 36.334s1.133-.534 1.133-1.134c0-.6-.533-1.133-1.133-1.133zm5.267 2.267c.6 0 1.133-.534 1.133-1.134 0-.6-.533-1.133-1.133-1.133s-1.134.533-1.134 1.133.534 1.134 1.134 1.134zm-10.534 2.133c-.6 0-1.133.533-1.133 1.133s.533 1.134 1.133 1.134 1.134-.534 1.134-1.134c0-.666-.534-1.133-1.134-1.133zm5.267 0c-.6 0-1.133.533-1.133 1.133S36.4 40.734 37 40.734s1.133-.534 1.133-1.134c0-.666-.533-1.133-1.133-1.133zm5.267 0c-.6 0-1.134.533-1.134 1.133V44c0 .6.534 1.134 1.134 1.134.666 0 1.133-.534 1.133-1.134v-4.4c0-.666-.467-1.133-1.133-1.133zM31.733 42.8c-.6 0-1.133.534-1.133 1.134 0 .6.533 1.133 1.133 1.133s1.134-.533 1.134-1.133-.534-1.134-1.134-1.134zm5.267 0c-.6 0-1.133.534-1.133 1.134 0 .6.533 1.133 1.133 1.133s1.133-.533 1.133-1.133S37.6 42.8 37 42.8z" fill="#000"/></svg>