<svg width="73" height="73" fill="none" xmlns="http://www.w3.org/2000/svg"><rect width="73" height="73" rx="11" fill="#0FF"/><path fill-rule="evenodd" clip-rule="evenodd" d="M44.5 32a1.875 1.875 0 113.75 0v12.69l-1.875 2.812-1.875-2.813V32zm1.875-.625a.625.625 0 00-.625.625v12.31l.625.938.625-.937V32a.625.625 0 00-.625-.625z" fill="#333"/><path fill-rule="evenodd" clip-rule="evenodd" d="M47.625 34.5h-2.5v-1.25h2.5v1.25zM28.25 27c-.69 0-1.25.56-1.25 1.25v17.5c0 .69.56 1.25 1.25 1.25h12.5c.69 0 1.25-.56 1.25-1.25v-17.5c0-.69-.56-1.25-1.25-1.25h-12.5zm-2.5 1.25a2.5 2.5 0 012.5-2.5h12.5a2.5 2.5 0 012.5 2.5v17.5a2.5 2.5 0 01-2.5 2.5h-12.5a2.5 2.5 0 01-2.5-2.5v-17.5z" fill="#333"/><path fill-rule="evenodd" clip-rule="evenodd" d="M34.5 31.375c0-.345.28-.625.625-.625h5a.625.625 0 110 1.25h-5a.625.625 0 01-.625-.625zm0 2.5c0-.345.28-.625.625-.625h5a.625.625 0 110 1.25h-5a.625.625 0 01-.625-.625zm0 5.625c0-.345.28-.625.625-.625h5a.625.625 0 110 1.25h-5a.625.625 0 01-.625-.625zm0 2.5c0-.345.28-.625.625-.625h5a.625.625 0 110 1.25h-5A.625.625 0 0134.5 42zm-5-2.5v1.875h1.875V39.5H29.5zm-.625-1.25H32c.345 0 .625.28.625.625V42c0 .345-.28.625-.625.625h-3.125A.625.625 0 0128.25 42v-3.125c0-.345.28-.625.625-.625zm4.192-7.317a.625.625 0 010 .884l-2.942 2.942-1.692-1.692a.625.625 0 11.884-.884l.808.808 2.058-2.058a.625.625 0 01.884 0z" fill="#333"/></svg>