<svg width="73" height="73" fill="none" xmlns="http://www.w3.org/2000/svg"><rect width="73" height="73" rx="11" fill="#0FF"/><path d="M34.833 26.166c-.65 0-1.083.434-1.083 1.084v19.5c0 .65.433 1.083 1.083 1.083.65 0 1.084-.433 1.084-1.083v-19.5c0-.65-.434-1.084-1.084-1.084zM29.417 37c-.65 0-1.084.433-1.084 1.083v8.667c0 .65.434 1.083 1.084 1.083.65 0 1.083-.433 1.083-1.083v-8.667c0-.65-.433-1.083-1.083-1.083zm10.833-4.334c-.65 0-1.083.434-1.083 1.084v13c0 .65.433 1.083 1.083 1.083.65 0 1.083-.433 1.083-1.083v-13c0-.65-.433-1.084-1.083-1.084zm5.417 8.667c-.65 0-1.084.434-1.084 1.084v4.333c0 .65.434 1.083 1.084 1.083.65 0 1.083-.433 1.083-1.083v-4.334c0-.65-.433-1.083-1.083-1.083z" fill="#000"/></svg>