<svg width="73" height="73" fill="none" xmlns="http://www.w3.org/2000/svg"><rect width="73" height="73" rx="11" fill="#0FF"/><g clip-path="url(#clip0_401_28)"><path d="M36.25 23.997v1.5h1.5v-1.5h-1.5zm-6.144 2.543l-1.06 1.06 1.06 1.061 1.061-1.06-1.06-1.061zm13.788 0l-1.061 1.06 1.06 1.061 1.061-1.06-1.06-1.061zm-6.853.457c-4.098 0-7.488 3.122-7.488 7.02 0 2.678 1.265 4.51 2.423 5.88.578.685 1.132 1.274 1.508 1.798.377.525.56.949.56 1.374v4.937h5.994v-4.937c0-.425.186-.855.563-1.383.376-.527.927-1.12 1.505-1.807 1.157-1.375 2.423-3.203 2.423-5.862 0-3.898-3.39-7.02-7.488-7.02zm0 1.5c3.344 0 5.988 2.493 5.988 5.52 0 2.196-.982 3.604-2.071 4.898-.545.647-1.114 1.249-1.58 1.901-.465.653-.84 1.391-.84 2.253v.683a.748.748 0 00-.138-.012h-.65v-6.243h.75v-1.5h-3v1.5h.75v6.243h-.706v-.67c0-.863-.375-1.602-.84-2.25-.467-.65-1.039-1.246-1.583-1.89-1.088-1.288-2.068-2.693-2.068-4.913 0-3.027 2.644-5.52 5.988-5.52zm-10.541 4.5v1.5H28v-1.5h-1.5zm19.5 0v1.5h1.5v-1.5H46zm-7.462 12.231v1.278h-2.994v-1.269h.003a.713.713 0 00.053.003h2.8a.74.74 0 00.138-.012z" fill="#000"/></g><defs><clipPath id="clip0_401_28"><path fill="#fff" transform="translate(25 24)" d="M0 0h24v24H0z"/></clipPath></defs></svg>