<svg width="73" height="73" fill="none" xmlns="http://www.w3.org/2000/svg"><rect width="73" height="73" rx="11" fill="#0FF"/><path fill-rule="evenodd" clip-rule="evenodd" d="M42.695 26.408c2.149 0 3.894 1.727 3.894 3.857s-1.744 3.858-3.894 3.858c-2.15 0-3.895-1.727-3.895-3.858 0-2.13 1.744-3.857 3.895-3.857zm0 .688c-1.767 0-3.2 1.42-3.2 3.17s1.433 3.17 3.2 3.17c1.766 0 3.199-1.42 3.199-3.17s-1.433-3.17-3.2-3.17z" fill="#231F20" stroke="#231F20" stroke-width=".75" stroke-miterlimit="2.613"/><path d="M38.81 44.458l-8.146-5.04a3.805 3.805 0 00.535-1.955c0-.713-.195-1.381-.535-1.954l8.142-5.039c.104 1.96 1.684 3.533 3.66 3.646v6.767c-1.953.113-3.518 1.649-3.655 3.575z" stroke="#231F20" stroke-width="1.5" stroke-miterlimit="2.613"/><path fill-rule="evenodd" clip-rule="evenodd" d="M42.695 40.878c2.15 0 3.894 1.727 3.894 3.857s-1.744 3.858-3.894 3.858c-2.15 0-3.895-1.728-3.895-3.858s1.744-3.857 3.895-3.857zm0 .687c-1.767 0-3.2 1.42-3.2 3.17 0 1.749 1.433 3.17 3.2 3.17 1.766 0 3.2-1.42 3.2-3.17 0-1.752-1.434-3.17-3.2-3.17zm-15.39-7.958c2.15 0 3.894 1.727 3.894 3.858 0 2.13-1.743 3.857-3.894 3.857-2.15 0-3.893-1.727-3.893-3.857s1.743-3.858 3.893-3.858zm0 .688c-1.766 0-3.199 1.42-3.199 3.17s1.433 3.17 3.2 3.17c1.766 0 3.199-1.42 3.199-3.17s-1.433-3.17-3.2-3.17z" fill="#231F20" stroke="#231F20" stroke-width=".75" stroke-miterlimit="2.613"/></svg>