<svg width="111" height="111" fill="none" xmlns="http://www.w3.org/2000/svg"><path d="M73.666 39.205c-1.227 4.449-3.292 10.253-5.416 15.194l-.764-.134c2.668-5.944 5.614-14.21 6.916-24.105 1.312-9.98 1.002-22.43 6.535-27.38 4.606-4.118 20.705-2.022 25.976-1.204a.787.787 0 01.402 1.367c-2.459 2.18-7.708 7.305-8.977 12.365-1.672 6.669-7.854 11.046-13.458 12.336-5.604 1.288-8.709 2.477-11.214 11.56z" fill="#74A1BB"/><path d="M99.611 4.596a25.569 25.569 0 00-9.719 2.736 20.017 20.017 0 00-4.217 2.872c-1.269 1.145-2.397 2.461-3.278 3.933l-.327.553c-.108.185-.199.38-.299.569-.095.19-.198.382-.286.573l-.265.572a166.21 166.21 0 00-3.048 6.927c-1.284 3.109-2.472 6.257-3.466 9.477a.146.146 0 00.277.095l.001-.005c.58-1.569 1.192-3.133 1.832-4.681a217.904 217.904 0 011.955-4.633l1.01-2.302 1.037-2.29c.345-.765.698-1.525 1.055-2.284l.266-.569c.088-.19.185-.368.278-.552.095-.182.18-.37.283-.547l.311-.532c.834-1.418 1.918-2.677 3.12-3.8.614-.55 1.248-1.08 1.93-1.546l.253-.18.26-.17c.173-.112.344-.229.52-.338.355-.213.707-.43 1.074-.624 1.451-.803 3-1.428 4.584-1.937a26.67 26.67 0 014.875-1.083l.007-.001a.117.117 0 00-.023-.233z" fill="url(#paint0_linear_77_3265)"/><path d="M82.653 41.711c-.86 5.374.567 7.484 1.389 9.454.145.35.354.842.584 1.433l-.758.356a18.321 18.321 0 00-.802-2.496c-2.235-5.455-5.307-15.113-3.27-22.712 2.038-7.6 6.836-10.461 15.5-8.496 7.22 1.638 11.493 2.168 13.608 1.647a.807.807 0 01.99.834c-.166 2.866-1.206 9.757-7.264 12.154-7.728 3.056-19.118 2.453-19.977 7.826z" fill="#C6EEEF"/><path opacity=".5" d="M96.228 26.81c-.6-.2-1.208-.349-1.823-.479a19.268 19.268 0 00-1.863-.305c-1.252-.143-2.528-.168-3.796-.001-.634.085-1.265.218-1.881.417a8.004 8.004 0 00-1.767.822c-.135.092-.277.176-.407.277-.128.102-.264.2-.385.305l-.706.646-.662.695-.608.746a10.923 10.923 0 00-1.728 3.422c-.376 1.227-.52 2.506-.54 3.769l-.007.475c-.005.158.011.315.016.473.018.315.026.63.052.944l.101.939c.027.313.095.62.143.93.199 1.24.505 2.455.842 3.657a.126.126 0 00.245-.058v-.004c-.25-1.216-.509-2.43-.643-3.659-.086-.612-.12-1.227-.17-1.84-.017-.307-.016-.614-.024-.921 0-.153-.013-.307-.004-.46l.02-.458c.051-1.222.24-2.434.605-3.587a10.634 10.634 0 011.66-3.194l.576-.698.629-.655.675-.61c.113-.098.23-.183.344-.276.115-.091.243-.166.364-.25a7.309 7.309 0 011.604-.76 10.156 10.156 0 011.752-.427c1.197-.188 2.428-.208 3.654-.134a23.57 23.57 0 013.659.512h.004c.07.016.14-.028.157-.1a.134.134 0 00-.088-.152z" fill="#fff"/><path d="M5.81 19.853a6.837 6.837 0 016.836-6.837h58.14a6.024 6.024 0 016.016 5.717l4.291 84.293a4.442 4.442 0 01-4.355 4.667l-66.636 1.211a4.217 4.217 0 01-4.293-4.216V19.853z" fill="#000"/><path d="M10.572 14.314a1.986 1.986 0 012.253-1.981c7.94 1.076 35.241 4.407 57.814 2.674 1.03-.08 1.923.7 1.978 1.731l4.5 84.669a2.114 2.114 0 01-1.985 2.222c-9.494.561-48.593 2.733-62.538 1.273a1.674 1.674 0 01-1.498-1.657l-.524-88.931z" fill="#C6EEEF"/><path d="M11.507 16.435a1.911 1.911 0 012.168-1.906c7.64 1.037 33.914 4.241 55.638 2.573.99-.076 1.85.675 1.903 1.667l4.33 81.48a2.034 2.034 0 01-1.91 2.139c-9.137.541-46.763 2.63-60.184 1.225a1.61 1.61 0 01-1.441-1.594l-.504-85.584z" fill="#74A1BB"/><path d="M18.58 22.718l.812 17.468a1.11 1.11 0 001.078 1.06c3.235.09 13.316.337 19.008.04a1.24 1.24 0 001.175-1.2c.108-3.275.346-12.81-.4-16.796a1.4 1.4 0 00-1.33-1.138l-19.122-.669a1.18 1.18 0 00-1.22 1.235z" fill="#fff"/><path d="M29.584 32.718a3.755 3.755 0 100-7.51 3.755 3.755 0 000 7.51zm-5.704 7.27h11.963a.926.926 0 00.778-1.428c-1.016-1.59-3.142-3.926-6.824-3.82-3.55.101-5.652 2.211-6.71 3.724a.968.968 0 00.793 1.524z" fill="#74FCFD"/><path opacity=".6" d="M66.929 24.238a.169.169 0 00.169-.174l-.024-.824a.185.185 0 00-.18-.177l-21.983-.392c-.095-.002-.147.07-.116.16l.438 1.243c.032.09.136.164.232.164h21.464zm-22.018 1.69c-.096-.002-.148.07-.116.161l.437 1.242c.032.09.136.164.232.164h21.465a.169.169 0 00.168-.174l-.023-.824a.185.185 0 00-.18-.177l-21.983-.392zm0 3.303c-.096-.001-.148.07-.116.161l.437 1.242c.032.09.136.165.232.165h21.465a.169.169 0 00.168-.174l-.023-.825a.185.185 0 00-.18-.177l-21.983-.392zm24.054 17.5a.161.161 0 00.163-.173l-.055-.825a.19.19 0 00-.185-.175l-50.14-.395c-.095-.001-.124.06-.065.135l1.034 1.297a.41.41 0 00.282.136h48.966zM18.749 48.42c-.096-.002-.125.06-.066.134l1.034 1.298a.41.41 0 00.282.136h48.967a.161.161 0 00.162-.174l-.054-.825a.19.19 0 00-.186-.175l-50.14-.395z" fill="#fff"/><path d="M25.374 70.63h-.011l-4.147-.039c-.592-.006-1.08-.413-1.137-.948l-.364-3.479a.755.755 0 01.178-.568.91.91 0 01.635-.313c.349-.024.84-.066 1.362-.11 1.096-.094 2.461-.21 3.229-.22.557-.002 1.03.327 1.16.813.217.798.198 2.31.157 3.92-.014.523-.489.945-1.062.945zm-4.825-5.03a.59.59 0 00-.412.2.44.44 0 00-.105.331l.364 3.479c.04.374.394.659.824.663l4.146.04h.008c.402 0 .735-.283.744-.635.04-1.586.06-3.072-.145-3.83-.092-.339-.445-.575-.85-.576-.756.009-2.115.125-3.206.218a84.63 84.63 0 01-1.368.11z" fill="#fff"/><path d="M20.995 65.96c.871-.06 2.764-.252 3.662-.263.38-.005.714.225.803.555.174.64.151 1.917.12 3.096-.008.353-.332.635-.728.631l-3.314-.032c-.407-.004-.745-.281-.783-.643l-.291-2.78c-.03-.288.208-.542.531-.564z" fill="#fff"/><path opacity=".6" d="M29.015 68.32c.12.456.534.772 1.004.768l38.361-.327a.779.779 0 00-.003-1.557l-38.362-.175a1.03 1.03 0 00-1 1.292z" fill="#fff"/><path d="M21.172 66.505a.637.637 0 01.878.239l.817 1.466a.204.204 0 00.365-.016l2.029-4.516c.1-.225.436-.149.433.098-.021 1.381-.387 4.007-2.595 6.205 0 0-1.216-.473-2.195-2.624a.667.667 0 01.268-.852z" fill="#74FCFD"/><path d="M25.374 79.517h-.011l-4.147-.04c-.592-.006-1.08-.413-1.137-.948l-.364-3.479a.753.753 0 01.178-.568.91.91 0 01.635-.313c.349-.024.84-.066 1.362-.11 1.096-.094 2.461-.21 3.229-.22h.017c.545 0 1.014.333 1.144.813.216.798.197 2.31.156 3.92-.014.523-.489.945-1.062.945zm-4.825-5.03a.59.59 0 00-.412.2.44.44 0 00-.105.33l.364 3.48c.04.373.394.658.824.662l4.146.04h.008c.402 0 .735-.283.744-.635.04-1.585.06-3.072-.145-3.83-.092-.338-.45-.582-.85-.576-.756.01-2.115.125-3.206.218-.523.045-1.016.087-1.368.11z" fill="#fff"/><path d="M20.995 74.846c.871-.06 2.764-.252 3.662-.263.38-.005.714.225.803.555.174.64.151 1.917.12 3.096-.008.353-.332.635-.728.631l-3.314-.032c-.407-.004-.745-.281-.783-.643l-.291-2.78c-.03-.288.208-.542.531-.564z" fill="#fff"/><path opacity=".6" d="M29.015 77.207c.12.455.534.77 1.004.767l38.361-.327a.779.779 0 00-.003-1.557l-38.362-.175a1.03 1.03 0 00-1 1.292z" fill="#fff"/><path d="M21.172 75.391a.637.637 0 01.878.239l.817 1.466a.204.204 0 00.365-.016l2.029-4.516c.1-.225.436-.149.433.098-.021 1.381-.387 4.007-2.595 6.205 0 0-1.216-.473-2.195-2.624a.667.667 0 01.268-.852z" fill="#74FCFD"/><path d="M25.374 88.403h-.011l-4.147-.04c-.592-.005-1.08-.413-1.137-.948l-.364-3.478a.755.755 0 01.178-.569.91.91 0 01.634-.313c.35-.024.841-.066 1.362-.11 1.097-.093 2.462-.21 3.23-.22h.016c.545 0 1.015.333 1.145.813.216.799.197 2.31.156 3.92-.014.523-.489.945-1.062.945zm-4.825-5.03a.59.59 0 00-.412.2.44.44 0 00-.105.33l.364 3.48c.04.373.394.658.824.662l4.146.04h.008c.402 0 .735-.283.744-.635.04-1.585.06-3.072-.145-3.83-.092-.338-.45-.584-.85-.576-.756.01-2.115.125-3.206.218-.523.044-1.016.087-1.368.11z" fill="#fff"/><path d="M20.995 83.732c.871-.06 2.764-.252 3.662-.263.38-.005.714.225.803.555.174.64.151 1.918.12 3.096-.008.353-.332.635-.728.631l-3.314-.031c-.407-.004-.745-.282-.783-.644l-.291-2.78c-.03-.288.208-.542.531-.564z" fill="#fff"/><path opacity=".6" d="M29.015 86.093c.12.455.534.771 1.004.767l38.361-.327a.778.778 0 00-.003-1.557L30.015 84.8a1.03 1.03 0 00-1 1.292z" fill="#fff"/><path d="M21.172 84.277a.637.637 0 01.878.239l.817 1.466a.204.204 0 00.365-.016l2.029-4.516c.1-.225.436-.149.433.098-.021 1.382-.387 4.007-2.595 6.205 0 0-1.216-.473-2.195-2.624a.667.667 0 01.268-.852z" fill="#74FCFD"/><path d="M25.374 97.289h-.011l-4.147-.04c-.592-.006-1.08-.413-1.137-.948l-.364-3.478a.755.755 0 01.178-.57.91.91 0 01.634-.312c.35-.024.841-.066 1.362-.11 1.097-.094 2.462-.21 3.23-.22h.016c.545 0 1.015.332 1.145.813.216.798.197 2.31.156 3.92-.014.524-.489.945-1.062.945zm-4.825-5.03a.59.59 0 00-.412.2.439.439 0 00-.105.33l.364 3.48c.04.373.394.658.824.662l4.146.04h.008c.402 0 .735-.283.744-.635.04-1.585.06-3.071-.145-3.829-.092-.339-.45-.586-.85-.577-.756.01-2.115.125-3.206.218-.523.045-1.016.087-1.368.11z" fill="#fff"/><path opacity=".6" d="M20.995 92.618c.871-.06 2.764-.252 3.662-.263.38-.005.714.225.803.555.174.64.151 1.918.12 3.097-.008.353-.332.634-.728.63l-3.314-.031c-.407-.004-.745-.282-.783-.644l-.291-2.78c-.03-.287.208-.542.531-.564zm8.02 2.362c.12.454.534.77 1.004.766l38.361-.327a.779.779 0 00-.003-1.557l-38.362-.174a1.03 1.03 0 00-1 1.291z" fill="#fff"/><path d="M24.8 61.935h-.012l-4.146-.04c-.593-.005-1.082-.413-1.138-.947l-.364-3.48a.755.755 0 01.179-.568.91.91 0 01.634-.313c.349-.024.84-.066 1.362-.11 1.096-.093 2.46-.21 3.229-.22h.017c.545 0 1.014.333 1.144.813.216.798.197 2.31.156 3.92-.013.524-.489.945-1.062.945zm-4.825-5.03a.59.59 0 00-.413.2.441.441 0 00-.106.33l.365 3.48c.04.374.393.659.824.662l4.146.04h.008c.402 0 .735-.283.744-.634.04-1.586.06-3.072-.145-3.83-.092-.339-.45-.585-.85-.577-.756.01-2.115.126-3.206.218-.522.045-1.015.087-1.367.111z" fill="#fff"/><path d="M20.42 57.264c.872-.06 2.765-.251 3.663-.263.38-.004.714.225.803.555.173.641.15 1.918.12 3.097-.009.353-.333.635-.729.63l-3.313-.03c-.408-.005-.746-.283-.783-.644l-.292-2.78c-.03-.288.209-.543.532-.565z" fill="#fff"/><path opacity=".6" d="M28.44 59.626c.12.455.534.77 1.005.767l38.36-.327a.779.779 0 00-.002-1.557l-38.362-.175a1.029 1.029 0 00-1 1.291z" fill="#fff"/><path d="M20.597 57.81a.637.637 0 01.878.238l.818 1.466a.204.204 0 00.365-.015l2.028-4.516c.101-.226.437-.15.433.098-.02 1.38-.387 4.006-2.594 6.204 0 0-1.216-.472-2.195-2.623a.667.667 0 01.267-.852z" fill="#74FCFD"/><path d="M45.322 1.523C43.222.063 41.396.091 40.11.471a2.564 2.564 0 00-1.821 2.695l.554 6.051 6.597.586s4-5.414-.118-8.28zm-2.901 4.882a1.645 1.645 0 110-3.29 1.645 1.645 0 010 3.29z" fill="#000"/><path d="M39.503 6.672a.159.159 0 01-.159-.145l-.088-.964a.159.159 0 11.317-.028l.088.963a.159.159 0 01-.144.173h-.014zm-.174-1.889a.159.159 0 01-.158-.144l-.067-.732a2.448 2.448 0 011.735-2.568 4.932 4.932 0 012.411-.099.16.16 0 01-.064.312 4.62 4.62 0 00-2.257.092 2.128 2.128 0 00-1.508 2.234l.067.732a.159.159 0 01-.144.173h-.015z" fill="#C6EEEF"/><path d="M29.84 13.127v-3.042c0-1.05.87-1.891 1.92-1.855l20.975.719c.93.032 1.684.766 1.74 1.696l.175 2.923-24.81-.44z" fill="#000"/><path d="M37.66 9.376h-.901a.16.16 0 010-.318h.902a.16.16 0 010 .318zm-6.684 2.796a.16.16 0 01-.16-.159v-1.23c0-.951.774-1.725 1.725-1.725h3.316a.16.16 0 010 .318h-3.316c-.775 0-1.406.632-1.406 1.407v1.23a.16.16 0 01-.16.16z" fill="#C6EEEF"/><path d="M21.294 13.896a1.976 1.976 0 011.974-1.882l36.678-.001a2.71 2.71 0 012.672 2.248l.03.18a2.328 2.328 0 01-2.293 2.725h-37.63a1.514 1.514 0 01-1.512-1.586l.081-1.684z" fill="#000"/><path d="M42.43 39.93a2.39 2.39 0 011.848-.637c7.26.653 20.804-2.844 29.657-11.901.614-.63 1.735-.274 2.44.253 9.844 7.358 26.164 8.882 31.829 9.193a2.391 2.391 0 012.244 2.141c5.151 49.76-27.246 67.791-33.966 70.973a2.395 2.395 0 01-2.29-.132C40.705 88.96 42.138 61.833 41.674 41.733a2.394 2.394 0 01.756-1.804z" fill="#C6EEEF"/><path d="M75.576 106.371a.828.828 0 01-.447-.131C62.283 98.029 53.91 88.212 49.534 76.228c-3.91-10.703-4.101-21.599-4.27-31.211l-.022-1.281a.826.826 0 01.828-.84c7.945 0 19.87-3.508 28.617-11.345a.826.826 0 011.008-.073c9.611 6.377 23.324 8.234 30.642 8.774.406.03.726.346.762.752 1.702 19.424-2.338 35.85-12.01 48.82-7.223 9.688-15.789 14.736-19.136 16.456a.834.834 0 01-.377.091zm-29.5-63.084a.443.443 0 00-.32.131.429.429 0 00-.124.31l.023 1.282c.168 9.581.359 20.442 4.245 31.083 4.347 11.9 12.668 21.654 25.439 29.817.13.084.296.092.433.022 3.323-1.708 11.828-6.72 19.002-16.343 9.613-12.891 13.628-29.226 11.934-48.551a.434.434 0 00-.401-.396c-7.356-.543-21.144-2.412-30.83-8.838a.435.435 0 00-.53.038c-8.823 7.907-20.858 11.445-28.87 11.445zM.453 99.03l.275 8.555a2.783 2.783 0 002.772 2.687l20.485.121a2.008 2.008 0 002.003-1.709c.32-2.161.729-6.026.269-9.654H.453z" fill="#C6EEEF"/><path d="M23.26 109.868l-.15-.001a.025.025 0 01-.024-.025c0-.014.011-.025.024-.025l.15.001c.013 0 .024.011.024.025a.025.025 0 01-.024.025zm.348-.003a.025.025 0 01-.025-.023c0-.014.01-.026.023-.026.049-.004.098-.008.147-.015.013-.003.026.007.028.021a.024.024 0 01-.021.028c-.05.007-.1.012-.15.015h-.002zm-.846 0l-.149-.001a.025.025 0 01-.025-.025c0-.014.012-.025.025-.025l.15.001c.013 0 .024.012.024.025a.025.025 0 01-.025.025zm-.497-.003l-.15-.001a.025.025 0 01-.024-.025c0-.014.011-.025.025-.025l.149.001c.014 0 .025.011.025.025a.025.025 0 01-.025.025zm-.497-.003l-.15-.001a.025.025 0 01-.024-.025c0-.013.013-.024.025-.024h.149c.014 0 .025.012.025.025a.025.025 0 01-.025.025zm-.498-.003l-.15-.001a.025.025 0 01-.024-.025c0-.014.012-.025.025-.025l.15.001c.013 0 .024.012.024.025a.025.025 0 01-.025.025zm-.497-.003l-.15-.001a.025.025 0 01-.024-.025c0-.013.013-.025.025-.024h.149c.014 0 .025.012.025.026a.025.025 0 01-.025.024zm-.498-.003l-.15-.001a.025.025 0 01-.024-.025c0-.014.012-.024.025-.024h.15c.013 0 .024.012.024.025a.025.025 0 01-.025.025zm-.497-.003h-.15c-.013 0-.024-.012-.024-.026 0-.013.011-.024.024-.024l.15.001c.014 0 .024.011.024.025a.024.024 0 01-.024.024zm-.497-.003l-.15-.001a.025.025 0 01-.025-.025c0-.013.012-.024.025-.024h.15c.013 0 .024.012.024.025 0 .014-.01.025-.024.025zm-.498-.003h-.15a.025.025 0 010-.05l.15.001a.024.024 0 110 .049zm-.497-.003h-.15c-.013 0-.024-.012-.024-.026 0-.013.011-.024.024-.024l.15.001c.013 0 .024.011.024.025 0 .013-.01.024-.024.024zm-.498-.002l-.149-.001a.025.025 0 01-.025-.025c0-.014.012-.025.025-.025l.15.001c.013 0 .024.011.024.025a.025.025 0 01-.025.025zm-.497-.004h-.15a.025.025 0 010-.05l.15.001c.014 0 .025.011.025.025a.025.025 0 01-.025.024zm-.497-.002l-.15-.001a.025.025 0 01-.024-.025c0-.014.011-.025.024-.025l.15.001c.013 0 .024.011.024.025a.025.025 0 01-.024.025zm-.498-.003l-.15-.001a.025.025 0 010-.05l.15.001c.014 0 .025.011.025.025a.025.025 0 01-.025.025zm-.497-.003l-.15-.001a.025.025 0 01-.024-.025c0-.014.012-.023.025-.025l.149.001a.025.025 0 110 .05zm-.498-.003l-.15-.001a.025.025 0 01-.024-.025c0-.014.012-.025.025-.025l.15.001c.013 0 .024.011.024.025a.025.025 0 01-.025.025zm-.497-.003l-.15-.001a.025.025 0 01-.024-.025c0-.014.013-.024.025-.025l.15.001c.013 0 .024.012.024.025a.025.025 0 01-.025.025zm-.498-.003l-.149-.001a.025.025 0 01-.024-.025c0-.014.01-.025.024-.025l.15.001c.013 0 .024.011.024.025a.025.025 0 01-.024.025zm-.497-.003l-.15-.001a.025.025 0 01-.024-.025c0-.014.013-.025.025-.025l.15.001c.013 0 .024.012.024.025a.025.025 0 01-.025.025zm-.497-.003l-.15-.001a.025.025 0 01-.024-.025c0-.014.011-.025.024-.025l.15.001c.014 0 .024.012.024.025a.025.025 0 01-.024.025zm-.497-.003l-.15-.001a.025.025 0 01-.025-.025c0-.013.012-.024.025-.024h.15c.013 0 .024.012.024.025a.025.025 0 01-.024.025zm-.498-.003l-.15-.001a.025.025 0 01-.024-.025c0-.014.011-.025.024-.025l.15.001c.013 0 .024.012.024.025a.024.024 0 01-.024.025zm-.498-.003h-.149a.026.026 0 01-.025-.026c0-.013.012-.024.025-.024l.15.001c.013 0 .024.011.024.025 0 .013-.01.024-.025.024zm-.497-.003l-.15-.001a.025.025 0 01-.024-.025c0-.013.011-.024.025-.024h.149c.014 0 .025.012.025.025a.024.024 0 01-.025.025zm-.497-.003h-.15a.025.025 0 010-.05l.15.001c.013 0 .024.011.024.025 0 .013-.01.024-.024.024zm-.498-.002l-.149-.001a.025.025 0 01-.025-.025c0-.014.012-.025.025-.025l.15.001c.013 0 .024.011.024.025a.025.025 0 01-.025.025zm-.497-.003l-.15-.001a.025.025 0 01-.024-.025c0-.014.011-.025.025-.025l.149.001c.014 0 .025.011.025.025a.025.025 0 01-.025.025zm-.497-.003l-.15-.001a.025.025 0 01-.024-.025c0-.014.01-.025.024-.025l.15.001c.013 0 .024.011.024.025a.025.025 0 01-.024.025zm-.498-.003l-.15-.001a.025.025 0 01-.024-.025c0-.014.012-.024.025-.025l.15.001c.013 0 .024.011.024.025a.025.025 0 01-.025.025zm-.497-.003l-.15-.001a.025.025 0 01-.024-.025c0-.014.011-.025.025-.025l.149.001c.014 0 .025.012.025.025a.025.025 0 01-.025.025zm-.497-.003l-.15-.001a.025.025 0 01-.024-.025c0-.014.012-.024.025-.025l.149.001c.014 0 .025.011.025.025a.026.026 0 01-.025.025zm-.498-.003l-.15-.001a.025.025 0 01-.024-.025c0-.014.011-.025.024-.025l.15.001c.014 0 .024.012.024.025a.024.024 0 01-.024.025zm16.752-.003a.024.024 0 01-.024-.017.025.025 0 01.016-.031 1.74 1.74 0 00.138-.052.025.025 0 01.032.014.024.024 0 01-.013.032c-.046.02-.094.037-.142.054h-.008zm-17.25 0l-.149-.001a.025.025 0 01-.025-.025c0-.014.013-.025.026-.025l.149.001a.025.025 0 110 .05zm-.497-.003l-.15-.001a.025.025 0 01-.024-.025c0-.013.011-.024.025-.024h.15c.013 0 .024.012.024.025a.025.025 0 01-.025.025zm-.497-.003l-.15-.001a.025.025 0 01-.024-.025c0-.014.011-.025.024-.025l.15.001c.013 0 .024.012.024.025a.025.025 0 01-.024.025zm-.498-.003l-.149-.001a.025.025 0 01-.025-.025c0-.013.012-.024.025-.024l.15.001a.024.024 0 010 .049zm-.497-.003l-.15-.001a.025.025 0 01-.024-.025c0-.013.011-.024.025-.024h.149c.014 0 .025.012.025.025a.025.025 0 01-.025.025zm-.497-.003h-.15a.025.025 0 01-.024-.025c0-.014.011-.025.024-.025l.15.001a.024.024 0 010 .049zm-.498-.005a1.919 1.919 0 01-.151-.012.024.024 0 01-.022-.027.024.024 0 01.028-.022c.049.005.098.009.147.011a.025.025 0 01.023.026c0 .013-.012.024-.025.024zm-.491-.071l-.006-.001a3.541 3.541 0 01-.145-.039.024.024 0 01-.017-.031.024.024 0 01.031-.017c.047.014.095.027.143.039a.025.025 0 01.018.03.026.026 0 01-.024.019zm21.171-.125a.025.025 0 01-.02-.011.026.026 0 01.007-.035c.04-.027.081-.055.12-.085a.026.026 0 01.034.004.025.025 0 01-.004.035 2.02 2.02 0 01-.123.088.023.023 0 01-.014.004zM2.9 109.519a3.26 3.26 0 01-.145-.068.026.026 0 01-.011-.034.026.026 0 01.034-.011c.043.023.088.045.132.065.013.006.018.02.013.033a.025.025 0 01-.023.015zm-.431-.246a.02.02 0 01-.014-.005 2.241 2.241 0 01-.121-.089.025.025 0 01-.004-.035.024.024 0 01.035-.004c.038.03.078.059.118.088a.024.024 0 01.006.034.024.024 0 01-.02.011zm22.448-.041a.025.025 0 01-.016-.006.026.026 0 01-.002-.036c.032-.036.064-.074.094-.113a.025.025 0 01.035-.005c.01.009.013.024.004.035-.03.04-.063.08-.096.117a.027.027 0 01-.019.008zm-22.826-.281a.024.024 0 01-.018-.007 2.455 2.455 0 01-.102-.111.025.025 0 01.038-.033c.032.037.066.074.1.109.01.01.01.026 0 .035a.025.025 0 01-.018.007zm23.106-.128a.024.024 0 01-.011-.003.024.024 0 01-.011-.033 2.01 2.01 0 00.061-.134.026.026 0 01.033-.014c.012.006.019.02.013.033-.019.046-.04.092-.063.137a.024.024 0 01-.022.014zm-23.418-.258a.025.025 0 01-.02-.011 2.645 2.645 0 01-.08-.128.025.025 0 01.009-.034.025.025 0 01.034.009 2.9 2.9 0 00.078.126.024.024 0 01-.021.038zm23.583-.21h-.005a.025.025 0 01-.02-.03c.009-.036.015-.074.02-.111l.006-.034a.024.024 0 01.028-.021.024.024 0 01.021.028l-.005.035a2.27 2.27 0 01-.02.114.026.026 0 01-.025.019zm-23.817-.228a.025.025 0 01-.023-.016 2.567 2.567 0 01-.054-.14.025.025 0 01.015-.032.025.025 0 01.032.015c.016.047.034.093.053.138a.025.025 0 01-.013.033l-.01.002zm23.891-.264h-.003a.025.025 0 01-.021-.028l.02-.148a.024.024 0 01.028-.021.024.024 0 01.021.028l-.02.147a.024.024 0 01-.025.022zm-24.038-.211a.025.025 0 01-.025-.02 2.786 2.786 0 01-.026-.148.024.024 0 01.02-.028.024.024 0 01.029.021c.007.048.016.097.026.145.002.013-.006.027-.02.029l-.004.001zm24.104-.282H25.5a.024.024 0 01-.021-.027l.018-.149a.025.025 0 01.028-.021c.014.001.023.014.021.028l-.018.148a.025.025 0 01-.025.021zm-24.16-.211a.025.025 0 01-.025-.024l-.004-.15c0-.013.01-.025.024-.025a.024.024 0 01.025.024l.005.149c0 .014-.01.025-.024.026h-.001zm24.22-.282h-.003a.025.025 0 01-.021-.028l.016-.148a.025.025 0 01.028-.022.025.025 0 01.022.027l-.017.149a.025.025 0 01-.025.022zm-24.236-.216a.024.024 0 01-.025-.024l-.004-.149c0-.014.01-.025.023-.025a.024.024 0 01.026.024l.005.149c0 .014-.01.025-.024.025h-.001zm24.29-.279h-.002a.026.026 0 01-.022-.028l.015-.148a.024.024 0 01.027-.022.024.024 0 01.023.027l-.016.149a.024.024 0 01-.024.022zm-24.306-.218a.024.024 0 01-.025-.024l-.005-.149c0-.014.01-.025.024-.025.012-.002.025.01.026.024l.005.149c0 .014-.01.025-.024.025H1.31zm24.355-.277h-.002a.024.024 0 01-.022-.027l.013-.149a.024.024 0 01.027-.022.025.025 0 01.023.027l-.014.148a.026.026 0 01-.025.023zm-24.37-.22a.025.025 0 01-.025-.024l-.005-.149c0-.014.01-.025.024-.026.011-.002.025.011.026.024l.004.15c0 .013-.01.025-.024.025zm24.413-.276h-.002a.025.025 0 01-.022-.027l.011-.148a.025.025 0 01.027-.023.025.025 0 01.023.027l-.012.149a.025.025 0 01-.025.022zm-24.43-.221a.024.024 0 01-.025-.024l-.004-.149c0-.014.01-.025.024-.026.013 0 .025.011.025.024l.005.15c0 .013-.01.025-.024.025zm24.467-.275h-.001a.025.025 0 01-.023-.027l.01-.149c0-.013.012-.024.026-.023a.025.025 0 01.023.027l-.01.148a.025.025 0 01-.025.024zm-24.483-.222a.025.025 0 01-.025-.024l-.004-.149c0-.014.01-.025.024-.026.013-.001.025.011.025.024l.005.149c0 .014-.01.025-.024.026zm24.514-.275h-.001a.024.024 0 01-.024-.026l.008-.149a.025.025 0 01.027-.023c.013 0 .024.012.023.026l-.008.149a.024.024 0 01-.025.023zm-24.53-.222a.025.025 0 01-.025-.024l-.004-.149c0-.014.01-.026.024-.026a.025.025 0 01.025.024l.005.149c0 .014-.01.025-.024.026h-.001zm24.555-.274H25.8a.025.025 0 01-.024-.026l.006-.149c0-.014.012-.025.026-.024a.025.025 0 01.024.026l-.006.149a.025.025 0 01-.025.024zm-24.571-.224a.024.024 0 01-.025-.023l-.004-.15c0-.014.01-.025.023-.025.013-.002.026.01.026.024l.005.149c0 .014-.01.025-.024.025H1.23zm24.589-.274a.024.024 0 01-.025-.025l.004-.149c0-.014.011-.024.025-.024.014 0 .025.012.025.025l-.004.15a.024.024 0 01-.025.023zm-24.605-.223a.024.024 0 01-.024-.023l-.005-.15c0-.013.01-.025.024-.025.012-.002.025.01.025.024l.005.149c0 .014-.01.025-.024.025zm24.616-.274a.024.024 0 01-.025-.025l.002-.149c0-.014.013-.024.025-.025.014 0 .025.012.025.025l-.002.15a.025.025 0 01-.025.024zm-24.632-.223a.024.024 0 01-.025-.024l-.004-.149c0-.014.01-.025.024-.026.012-.001.025.011.025.024l.005.15c0 .013-.01.025-.024.025zm24.636-.274a.025.025 0 01-.025-.025v-.149c0-.014.01-.025.024-.025s.025.011.026.024v.15a.026.026 0 01-.025.025zm-24.652-.223a.024.024 0 01-.025-.024l-.004-.149c0-.013.01-.025.024-.025.013-.002.025.01.025.024l.005.149c0 .013-.01.025-.024.026v-.001zm24.648-.275a.024.024 0 01-.024-.024l-.003-.149c0-.014.01-.025.024-.026.012 0 .025.011.026.025l.002.149c0 .014-.01.025-.024.025zm-24.664-.222a.025.025 0 01-.025-.024l-.004-.149c0-.014.01-.026.024-.026.012-.001.025.01.025.024l.005.149c0 .014-.01.025-.024.026h-.001zm24.653-.275a.024.024 0 01-.025-.023l-.005-.149c0-.014.01-.025.024-.026a.024.024 0 01.026.024l.005.149c0 .014-.01.025-.024.025h-.001zm-24.669-.222a.025.025 0 01-.024-.024l-.005-.149c0-.014.01-.025.024-.026a.024.024 0 01.025.024l.005.149c0 .014-.01.025-.024.026zm24.649-.275a.024.024 0 01-.025-.023l-.008-.149a.025.025 0 01.05-.003l.008.149c0 .014-.01.026-.024.026zm-24.665-.223a.024.024 0 01-.024-.023l-.005-.15c0-.013.01-.025.024-.026.014 0 .025.011.025.024l.005.15c0 .013-.01.025-.024.025zm24.636-.273a.025.025 0 01-.025-.023l-.01-.149a.025.025 0 01.022-.026.024.024 0 01.027.023l.01.149a.025.025 0 01-.023.026h-.001zm-24.652-.223a.025.025 0 01-.024-.024l-.005-.15c0-.013.01-.025.024-.025.012-.002.025.01.025.024l.005.149c0 .014-.01.025-.024.026zm24.613-.273a.025.025 0 01-.025-.023l-.013-.148a.025.025 0 01.022-.027.025.025 0 01.027.022l.014.15a.025.025 0 01-.023.026h-.002zm-24.629-.224a.025.025 0 01-.025-.024l-.004-.15c0-.013.01-.025.024-.026.012 0 .025.01.025.024l.005.15c0 .013-.01.025-.024.025zm24.58-.27a.025.025 0 01-.024-.023 18.66 18.66 0 00-.017-.148.025.025 0 01.022-.028.024.024 0 01.027.022l.017.149a.025.025 0 01-.022.027h-.003zm-24.596-.228a.025.025 0 01-.025-.024l-.005-.175h.09c.014 0 .025.011.025.025a.025.025 0 01-.025.025h-.039l.004.123c0 .014-.01.025-.024.026zm24.433-.149h-.15a.025.025 0 01-.024-.024c0-.014.011-.025.025-.025h.15c.013 0 .024.01.024.025a.025.025 0 01-.025.024zm-.498 0h-.149a.025.025 0 01-.025-.024c0-.014.011-.025.025-.025h.15c.013 0 .024.01.024.025a.025.025 0 01-.025.024zm-.497 0h-.15a.025.025 0 01-.024-.024c0-.014.011-.025.025-.025h.149c.014 0 .025.01.025.025a.025.025 0 01-.025.024zm-.497 0h-.15a.025.025 0 01-.024-.024c0-.014.01-.025.024-.025h.15c.013 0 .024.01.024.025a.025.025 0 01-.024.024zm-.498 0h-.149a.025.025 0 01-.025-.024c0-.014.011-.025.025-.025h.15c.013 0 .024.01.024.025a.025.025 0 01-.025.024zm-.497 0h-.15a.025.025 0 01-.024-.024c0-.014.01-.025.025-.025h.149c.014 0 .025.01.025.025a.025.025 0 01-.025.024zm-.497 0h-.15a.025.025 0 01-.024-.024c0-.014.01-.025.024-.025h.15c.013 0 .024.01.024.025a.025.025 0 01-.024.024zm-.498 0h-.15a.025.025 0 01-.024-.024c0-.014.011-.025.025-.025h.15c.013 0 .024.01.024.025a.025.025 0 01-.025.024zm-.497 0h-.15a.025.025 0 01-.024-.024c0-.014.01-.025.024-.025h.15c.013 0 .024.01.024.025 0 .013-.01.024-.024.024zm-.498 0h-.15a.025.025 0 01-.024-.024c0-.014.011-.025.025-.025h.15c.013 0 .024.01.024.025a.025.025 0 01-.025.024zm-.497 0h-.15a.025.025 0 01-.024-.024c0-.014.01-.025.024-.025h.15c.013 0 .024.01.024.025a.025.025 0 01-.024.024zm-.498 0h-.149a.025.025 0 01-.025-.024c0-.014.011-.025.025-.025h.15c.013 0 .024.01.024.025 0 .013-.01.024-.024.024zm-.497 0h-.15a.025.025 0 01-.024-.024c0-.014.011-.025.025-.025h.15c.013 0 .024.01.024.025a.025.025 0 01-.025.024zm-.497 0h-.15a.025.025 0 01-.024-.024c0-.014.01-.025.024-.025h.15c.014 0 .024.01.024.025 0 .013-.01.024-.024.024zm-.498 0h-.149a.025.025 0 01-.025-.024c0-.014.011-.025.025-.025h.15c.013 0 .024.01.024.025a.025.025 0 01-.025.024zm-.497 0h-.15a.025.025 0 01-.024-.024c0-.014.011-.025.025-.025h.149a.025.025 0 110 .049zm-.498 0h-.149a.025.025 0 01-.025-.024c0-.014.011-.025.025-.025h.15c.013 0 .024.01.024.025a.025.025 0 01-.025.024zm-.497 0h-.15a.025.025 0 01-.024-.024c0-.014.01-.025.025-.025h.149a.025.025 0 110 .049zm-.497 0h-.15a.025.025 0 01-.024-.024c0-.014.01-.025.024-.025h.15c.013 0 .024.01.024.025a.025.025 0 01-.024.024zm-.498 0h-.15a.025.025 0 01-.024-.024c0-.014.011-.025.025-.025h.15c.013 0 .024.01.024.025a.025.025 0 01-.025.024zm-.497 0h-.15a.025.025 0 01-.024-.024c0-.014.01-.025.025-.025h.149c.014 0 .025.01.025.025a.025.025 0 01-.025.024zm-.498 0h-.149a.025.025 0 01-.024-.024c0-.014.01-.025.024-.025h.15c.013 0 .024.01.024.025a.025.025 0 01-.025.024zm-.497 0h-.15a.025.025 0 01-.024-.024c0-.014.011-.025.025-.025h.15c.013 0 .024.01.024.025a.025.025 0 01-.025.024zm-.498 0h-.149a.025.025 0 01-.025-.024c0-.014.011-.025.025-.025h.15c.013 0 .024.01.024.025 0 .013-.01.024-.025.024zm-.497 0h-.15a.025.025 0 01-.024-.024c0-.014.011-.025.025-.025h.15c.013 0 .024.01.024.025a.025.025 0 01-.025.024zm-.497 0h-.15a.025.025 0 01-.024-.024c0-.014.01-.025.024-.025h.15c.013 0 .024.01.024.025a.025.025 0 01-.024.024zm-.498 0h-.149a.025.025 0 01-.025-.024c0-.014.011-.025.025-.025h.15c.013 0 .024.01.024.025a.025.025 0 01-.025.024zm-.497 0h-.15a.025.025 0 01-.024-.024c0-.014.011-.025.025-.025h.149c.014 0 .025.01.025.025a.025.025 0 01-.025.024zm-.497 0h-.15a.025.025 0 01-.024-.024c0-.014.01-.025.024-.025h.15c.013 0 .024.01.024.025 0 .013-.01.024-.024.024zm-.498 0h-.149a.025.025 0 01-.025-.024c0-.014.011-.025.025-.025h.15c.013 0 .024.01.024.025a.025.025 0 01-.025.024zm-.497 0h-.15a.025.025 0 01-.024-.024c0-.014.01-.025.025-.025h.149a.025.025 0 110 .049zm-.498 0h-.15a.025.025 0 01-.024-.024c0-.014.011-.025.025-.025h.15c.013 0 .024.01.024.025a.025.025 0 01-.025.024zm-.497 0h-.15a.025.025 0 01-.024-.024c0-.014.01-.025.025-.025h.149c.014 0 .025.01.025.025a.025.025 0 01-.025.024zm-.498 0h-.149a.025.025 0 01-.025-.024c0-.014.011-.025.025-.025h.15c.013 0 .024.01.024.025a.025.025 0 01-.025.024zm-.497 0h-.15a.025.025 0 01-.024-.024c0-.014.011-.025.025-.025h.15c.013 0 .024.01.024.025a.025.025 0 01-.025.024zm-.497 0h-.15a.025.025 0 01-.024-.024c0-.014.01-.025.024-.025h.15c.014 0 .024.01.024.025a.025.025 0 01-.024.024zm-.498 0h-.149a.025.025 0 01-.025-.024c0-.014.011-.025.025-.025h.15c.013 0 .024.01.024.025a.025.025 0 01-.025.024zm-.497 0h-.15a.025.025 0 01-.024-.024c0-.014.011-.025.025-.025h.15c.013 0 .024.01.024.025a.025.025 0 01-.025.024zm-.498 0h-.149a.025.025 0 01-.025-.024c0-.014.011-.025.025-.025h.15c.013 0 .024.01.024.025 0 .013-.01.024-.025.024zm-.497 0h-.15a.025.025 0 01-.024-.024c0-.014.01-.025.025-.025h.149c.014 0 .025.01.025.025a.025.025 0 01-.025.024zm-.497 0h-.15a.025.025 0 01-.024-.024c0-.014.01-.025.024-.025h.15c.013 0 .024.01.024.025a.025.025 0 01-.024.024zm-.498 0h-.149a.025.025 0 01-.025-.024c0-.014.011-.025.025-.025h.15c.013 0 .024.01.024.025a.025.025 0 01-.025.024zm-.497 0h-.15a.025.025 0 01-.024-.024c0-.014.01-.025.025-.025h.149c.014 0 .025.01.025.025a.025.025 0 01-.025.024zm-.497 0h-.15a.025.025 0 01-.024-.024c0-.014.01-.025.024-.025h.15c.013 0 .024.01.024.025a.025.025 0 01-.024.024zm-.498 0h-.15a.025.025 0 01-.024-.024c0-.014.011-.025.025-.025h.15c.013 0 .024.01.024.025a.025.025 0 01-.025.024zm-.498 0h-.149a.025.025 0 01-.025-.024c0-.014.011-.025.025-.025h.15c.013 0 .024.01.024.025 0 .013-.01.024-.025.024zm-.497 0h-.15a.025.025 0 01-.024-.024c0-.014.011-.025.025-.025h.15c.013 0 .024.01.024.025a.025.025 0 01-.025.024zm-.497 0h-.15a.025.025 0 01-.024-.024c0-.014.01-.025.024-.025h.15c.013 0 .024.01.024.025a.025.025 0 01-.024.024zm-.498 0h-.149a.025.025 0 01-.025-.024c0-.014.011-.025.025-.025h.15c.013 0 .024.01.024.025a.025.025 0 01-.025.024z" fill="#fff"/><path d="M6.457 92.82l.061-.66a.508.508 0 01.385-.296c.638-.101 2.221-.28 2.983.29l.114.766-3.543-.1z" fill="#000"/><path d="M8.45 92.185a.92.92 0 01-.441 0 .399.399 0 01-.304-.387v-2.066h1.051v2.065a.402.402 0 01-.306.388zm8.19.635l.061-.66a.507.507 0 01.385-.296c.638-.101 2.221-.28 2.983.29l.114.766-3.543-.1z" fill="#000"/><path d="M18.633 92.185a.92.92 0 01-.441 0 .399.399 0 01-.305-.387v-2.283h1.052v2.282a.401.401 0 01-.306.388z" fill="#000"/><path d="M7.598 90.239l11.306-.375a.545.545 0 00.521-.447c.062-.354.117-.884.035-1.434a1.304 1.304 0 00-1.264-1.103c-2.109-.05-7.478-.049-10.438 1.122a1.033 1.033 0 00-.624.717c-.076.31-.126.726-.027 1.148.052.225.26.38.49.371z" fill="#000"/><path d="M7.402 89.651a.05.05 0 01-.05-.045 2.642 2.642 0 01.068-.852c.085-.31.33-.56.642-.652.63-.185 1.834-.5 2.817-.527a.05.05 0 11.003.1c-.973.027-2.167.338-2.792.522a.843.843 0 00-.574.582c-.106.391-.065.812-.065.816a.05.05 0 01-.044.055l-.005.001zM1.21 92.563c3.653-.047 19.455-.213 24.045.341a.935.935 0 01.804.724c.271 1.226.817 4.074.752 6.898a.817.817 0 01-.67.78l-10.478 1.983h-3.721L.778 101.07a.874.874 0 01-.704-.811C0 98.839-.112 95.506.272 93.36a.965.965 0 01.939-.797z" fill="#C6EEEF"/><path d="M15.577 102.41h-.15a.024.024 0 110-.049h.15a.024.024 0 110 .049zm-.497 0h-.15a.024.024 0 110-.049h.15c.014 0 .024.011.024.024 0 .014-.01.025-.024.025zm-.498 0h-.149a.024.024 0 110-.049h.15a.024.024 0 110 .049zm-.497 0h-.15a.024.024 0 110-.049h.15c.014 0 .025.011.025.024a.025.025 0 01-.025.025zm-.497 0h-.15a.025.025 0 01-.024-.025c0-.013.01-.024.024-.024h.15a.024.024 0 110 .049zm-.498 0h-.149a.024.024 0 110-.049h.15c.013 0 .024.011.024.024 0 .014-.01.025-.025.025zm-.497 0h-.15a.025.025 0 01-.024-.025c0-.013.01-.024.024-.024h.15c.013 0 .024.011.024.024 0 .014-.01.025-.024.025zm-.498 0h-.065l-.151-.029a.026.026 0 01-.02-.03.025.025 0 01.03-.019l.146.029.06-.001c.014 0 .024.011.024.025a.023.023 0 01-.024.025zm3.824-.064a.024.024 0 01-.024-.021c-.003-.013.006-.026.02-.029l.146-.027a.024.024 0 01.03.02.026.026 0 01-.02.029l-.147.027-.005.001zm-4.376-.033h-.005l-.146-.029a.025.025 0 01-.02-.029.025.025 0 01.03-.02l.146.029a.026.026 0 01.02.029.026.026 0 01-.025.02zm4.865-.06a.024.024 0 01-.024-.02.025.025 0 01.02-.029l.146-.028a.025.025 0 01.03.02.025.025 0 01-.02.029l-.147.028h-.005zm-5.353-.036l-.005-.001-.146-.029c-.014-.003-.023-.016-.02-.029a.025.025 0 01.03-.02l.146.029a.026.026 0 01.02.03.026.026 0 01-.025.02zm5.842-.056a.024.024 0 01-.025-.021.026.026 0 01.02-.029l.147-.027a.024.024 0 01.029.02c.003.013-.006.026-.02.029l-.147.027-.004.001zm-6.33-.042h-.005l-.146-.029a.025.025 0 01-.02-.029.025.025 0 01.03-.02l.146.029a.026.026 0 01.02.029.025.025 0 01-.025.02zm6.819-.051a.024.024 0 01-.025-.02.025.025 0 01.02-.029l.147-.028a.025.025 0 01.029.02.025.025 0 01-.02.029l-.147.028h-.005zm-7.307-.045l-.005-.001-.146-.029a.025.025 0 01-.02-.029.025.025 0 01.03-.02l.146.029a.026.026 0 01.02.03.026.026 0 01-.025.02zm7.795-.047a.024.024 0 01-.024-.02.024.024 0 01.02-.029l.146-.028a.024.024 0 01.03.02.026.026 0 01-.02.029l-.147.027-.005.001zm-8.283-.051h-.004l-.147-.029a.025.025 0 01-.02-.029.025.025 0 01.03-.02l.146.029a.025.025 0 01.02.029.026.026 0 01-.025.02zm8.772-.042a.024.024 0 01-.024-.02.025.025 0 01.02-.029l.146-.028c.014-.002.027.006.03.02a.025.025 0 01-.02.029l-.147.028h-.005zm-9.26-.054l-.004-.001-.147-.029a.025.025 0 01-.02-.029.025.025 0 01.03-.02l.146.029a.026.026 0 01.02.03.026.026 0 01-.025.02zm9.749-.038a.024.024 0 01-.025-.02c-.002-.014.007-.027.02-.029l.147-.028a.024.024 0 01.029.02c.003.013-.006.026-.02.029l-.147.028h-.004zm-10.237-.06h-.004l-.147-.029a.025.025 0 01-.02-.029.025.025 0 01.03-.02l.146.029a.025.025 0 01.02.029.025.025 0 01-.025.02zm10.725-.032a.024.024 0 01-.024-.021c-.003-.013.006-.026.02-.029l.147-.027a.024.024 0 01.029.02.026.026 0 01-.02.029l-.147.027-.005.001zm-11.213-.064l-.004-.001-.147-.029a.025.025 0 01-.02-.029.025.025 0 01.03-.02l.146.029a.026.026 0 01.02.03.026.026 0 01-.025.02zm11.702-.029a.024.024 0 01-.024-.02.025.025 0 01.02-.029l.146-.028c.014-.002.027.006.03.02a.025.025 0 01-.02.029l-.147.028h-.005zm-12.19-.068l-.004-.001-.146-.029a.024.024 0 01-.02-.029.026.026 0 01.03-.02l.146.029a.026.026 0 01.02.03.027.027 0 01-.025.02zm12.679-.024a.024.024 0 01-.024-.021c-.003-.013.006-.026.02-.029l.146-.027a.024.024 0 01.03.02.026.026 0 01-.02.029l-.147.027-.005.001zm-13.166-.073l-.005-.001-.146-.029a.025.025 0 01-.02-.029.025.025 0 01.03-.02l.146.029a.026.026 0 01.02.03.027.027 0 01-.025.02zm13.655-.02a.024.024 0 01-.025-.02.025.025 0 01.02-.029l.147-.028a.025.025 0 01.029.02.025.025 0 01-.02.029l-.147.028h-.004zm-14.143-.077l-.005-.001-.146-.029a.024.024 0 01-.02-.029.026.026 0 01.03-.02l.146.029a.026.026 0 01.02.03.026.026 0 01-.025.02zm14.631-.015a.024.024 0 01-.024-.021c-.003-.013.006-.026.02-.029l.147-.027a.024.024 0 01.029.02.026.026 0 01-.02.029l-.147.027-.005.001zm-15.119-.082l-.005-.001-.146-.029a.025.025 0 01-.02-.029.025.025 0 01.03-.02l.146.029a.026.026 0 01.02.03.026.026 0 01-.025.02zm15.608-.011a.024.024 0 01-.024-.02.025.025 0 01.02-.029l.146-.028c.014-.002.027.006.03.02a.025.025 0 01-.02.029l-.147.028h-.005zm-16.096-.086l-.005-.001-.146-.029a.024.024 0 01-.02-.029.026.026 0 01.03-.02l.146.029a.026.026 0 01.02.03.026.026 0 01-.025.02zm16.585-.006a.024.024 0 01-.024-.021.025.025 0 01.02-.029l.146-.027a.024.024 0 01.029.02c.003.013-.006.026-.02.029l-.146.027-.005.001zM5.2 101.053l-.004-.001-.146-.029a.025.025 0 01-.02-.029.025.025 0 01.03-.02l.146.029a.026.026 0 01.02.03.026.026 0 01-.026.02zm17.562-.002a.024.024 0 01-.025-.02.025.025 0 01.02-.029l.147-.028a.025.025 0 01.029.02.025.025 0 01-.02.029l-.147.028h-.004zm.488-.092a.024.024 0 01-.024-.021c-.003-.013.006-.026.02-.029l.146-.027a.024.024 0 01.03.02.026.026 0 01-.02.029l-.147.027-.005.001zm-18.537-.003l-.005-.001-.146-.029a.024.024 0 01-.02-.029.026.026 0 01.03-.02l.146.029a.026.026 0 01.02.03.026.026 0 01-.025.02zm19.026-.09a.024.024 0 01-.024-.02.025.025 0 01.02-.029l.146-.028c.014-.002.027.006.03.02a.025.025 0 01-.02.029l-.147.028h-.005zm-19.514-.007H4.22l-.146-.029a.026.026 0 01-.02-.03.025.025 0 01.03-.019l.146.029a.024.024 0 01.02.029.025.025 0 01-.025.02zm20.003-.085a.024.024 0 01-.025-.021.026.026 0 01.02-.029l.147-.027a.024.024 0 01.029.02c.003.013-.006.026-.02.029l-.147.027-.004.001zm-20.491-.012l-.005-.001-.146-.029a.024.024 0 01-.02-.029.026.026 0 01.03-.02l.146.029a.026.026 0 01.02.03.026.026 0 01-.025.02zm20.98-.081a.024.024 0 01-.025-.02.025.025 0 01.02-.029l.147-.028a.025.025 0 01.029.02.025.025 0 01-.02.029l-.147.028h-.005zm-21.468-.016h-.005l-.146-.029a.026.026 0 01-.02-.03.025.025 0 01.03-.019l.146.029a.024.024 0 01.02.029.026.026 0 01-.025.02zm21.956-.076a.024.024 0 01-.024-.02.025.025 0 01.02-.029l.146-.028c.014-.002.027.006.03.02a.025.025 0 01-.02.029l-.147.028h-.005zm-22.444-.021l-.005-.001-.146-.029a.024.024 0 01-.02-.029.026.026 0 01.03-.02l.146.029a.026.026 0 01.02.03.027.027 0 01-.025.02zm22.933-.071a.024.024 0 01-.024-.021c-.003-.013.006-.026.02-.029l.146-.027a.024.024 0 01.03.02.026.026 0 01-.02.029l-.147.027-.005.001zm-23.42-.026h-.006l-.146-.029a.026.026 0 01-.02-.03.025.025 0 01.03-.019l.146.029a.024.024 0 01.02.029.025.025 0 01-.025.02zm-.489-.097l-.004-.001-.147-.029a.024.024 0 01-.02-.029.026.026 0 01.03-.02l.146.029a.026.026 0 01.02.03.025.025 0 01-.025.02zm-.488-.097l-.004-.001-.147-.029a.024.024 0 01-.02-.029.026.026 0 01.03-.02l.146.03a.024.024 0 01.02.029.025.025 0 01-.025.02zm24.616-.099a.024.024 0 01-.025-.025v-.149c0-.014.012-.025.025-.025.014 0 .025.011.025.025v.149a.024.024 0 01-.025.025zm-24.947-.133a.024.024 0 01-.025-.023 42.888 42.888 0 01-.007-.15c0-.013.01-.025.024-.025s.025.01.026.024l.007.148c0 .014-.01.026-.024.026H.966zm24.943-.365a.024.024 0 01-.024-.024l-.004-.149c0-.014.01-.025.024-.025a.024.024 0 01.026.024l.003.15c0 .013-.01.024-.024.025zM.944 99.548a.025.025 0 01-.025-.024l-.005-.15c0-.013.01-.024.024-.025.013 0 .025.01.026.024l.005.149c0 .013-.01.025-.024.025zm24.95-.364a.025.025 0 01-.024-.024l-.007-.149a.024.024 0 01.023-.025.024.024 0 01.026.023l.007.149c0 .014-.01.025-.024.026zM.927 99.05a.025.025 0 01-.024-.024l-.005-.15c0-.013.01-.025.025-.025.014 0 .025.01.025.024l.004.15c0 .013-.01.025-.024.025zm24.942-.364a.025.025 0 01-.025-.023l-.01-.15c0-.013.01-.025.024-.026.014 0 .025.01.026.023l.01.15c0 .013-.01.025-.023.025l-.002.001zM.914 98.554a.025.025 0 01-.024-.025l-.003-.149c0-.014.01-.025.024-.025.013-.002.025.01.025.024l.003.15c0 .013-.01.024-.024.025zm24.92-.363a.025.025 0 01-.025-.023l-.012-.148a.025.025 0 01.022-.027.025.025 0 01.027.023l.013.148a.024.024 0 01-.023.027h-.003zM.905 98.056a.025.025 0 01-.025-.024l-.001-.15a.025.025 0 11.049 0l.002.15c0 .013-.01.024-.025.024zm24.883-.36a.025.025 0 01-.025-.023l-.014-.149a.025.025 0 01.05-.005l.014.149a.025.025 0 01-.022.027h-.003zM.903 97.557a.025.025 0 01-.025-.024v-.149c0-.014.01-.026.025-.026.013 0 .024.011.024.025v.15a.024.024 0 01-.024.025zm24.834-.358a.025.025 0 01-.025-.022l-.017-.148a.025.025 0 01.05-.006l.016.148a.025.025 0 01-.022.028h-.002zM.905 97.061a.024.024 0 01-.025-.025l.001-.149c0-.014.012-.025.025-.025.014 0 .025.012.025.026l-.002.148a.025.025 0 01-.024.025zm24.77-.355a.025.025 0 01-.024-.021l-.02-.148a.024.024 0 01.022-.028.024.024 0 01.028.022l.02.148a.025.025 0 01-.022.027h-.003zM.913 96.564a.025.025 0 01-.025-.025l.004-.15c0-.013.011-.025.025-.024.014 0 .025.012.025.026l-.004.148a.025.025 0 01-.025.025zm24.696-.35a.025.025 0 01-.025-.022l-.022-.147a.025.025 0 01.049-.007l.022.147a.025.025 0 01-.021.028h-.003zM.927 96.066H.926a.025.025 0 01-.024-.026l.006-.15c0-.013.013-.024.026-.023.013 0 .024.012.023.026l-.005.149a.025.025 0 01-.025.024zm24.605-.345a.025.025 0 01-.024-.021l-.024-.148a.025.025 0 01.02-.028.025.025 0 01.029.02 13 13 0 01.024.147.025.025 0 01-.021.03h-.004zM.948 95.57a.025.025 0 01-.024-.027l.008-.15c0-.013.012-.023.026-.023a.026.026 0 01.024.027l-.008.149a.025.025 0 01-.026.023zm24.502-.34a.025.025 0 01-.024-.02 9.604 9.604 0 00-.026-.146.025.025 0 01.02-.03.025.025 0 01.028.02l.027.147a.025.025 0 01-.02.03h-.005zM.98 95.074H.978a.025.025 0 01-.023-.027l.011-.15a.025.025 0 01.027-.022.025.025 0 01.022.027l-.01.148a.024.024 0 01-.025.023zm24.38-.332a.024.024 0 01-.024-.02 17.01 17.01 0 00-.028-.147.025.025 0 01.02-.029.024.024 0 01.028.02l.029.147a.025.025 0 01-.02.028l-.005.001zm-24.338-.164H1.02a.025.025 0 01-.023-.028l.015-.148a.024.024 0 01.028-.022.025.025 0 01.022.027l-.016.148a.024.024 0 01-.024.023zm24.242-.324a.025.025 0 01-.025-.02l-.03-.146a.025.025 0 01.049-.01l.03.146a.025.025 0 01-.02.03.01.01 0 01-.004 0zm-24.186-.17h-.003a.025.025 0 01-.022-.029l.02-.148a.025.025 0 01.028-.021.025.025 0 01.021.028 7.94 7.94 0 00-.02.148.025.025 0 01-.024.021zm24.026-.263h-.003l-.148-.017a.025.025 0 01-.022-.027.024.024 0 01.028-.022l.148.016a.025.025 0 01.022.028.025.025 0 01-.025.022zm-.495-.051h-.002l-.148-.014a.025.025 0 11.004-.05l.149.014a.024.024 0 01.022.027.025.025 0 01-.025.023zm-.495-.042h-.002a14.427 14.427 0 00-.15-.011.025.025 0 01-.022-.027.026.026 0 01.026-.023l.15.01a.025.025 0 01.022.028.024.024 0 01-.024.023zm-.497-.035h-.001l-.149-.01a.024.024 0 01-.023-.026c0-.014.012-.024.026-.023l.149.01c.014 0 .024.012.023.026a.025.025 0 01-.024.023zm-.496-.03l-.15-.009a.025.025 0 11.003-.05l.148.009c.014 0 .025.012.024.026a.025.025 0 01-.025.024zm-.497-.027l-.15-.008a.025.025 0 01-.023-.025c0-.014.012-.025.026-.024l.148.007a.026.026 0 01.024.027.025.025 0 01-.025.023zm-.497-.023l-.15-.007a.025.025 0 01-.024-.026c0-.013.013-.024.026-.024l.15.007c.013 0 .023.012.023.026a.025.025 0 01-.025.024zm-.497-.021l-.15-.006a.025.025 0 01-.024-.026c0-.013.013-.025.026-.024l.15.006c.013 0 .024.012.023.026a.025.025 0 01-.025.024zm-20.478 0h-.004a.025.025 0 01-.02-.03l.008-.046a.088.088 0 01.086-.074h.013c.015-.002.025.01.025.024s-.01.025-.024.026h-.013a.038.038 0 00-.038.033l-.008.046a.025.025 0 01-.025.02zm19.981-.019l-.15-.005a.025.025 0 01-.023-.026c0-.013.012-.025.026-.024l.149.005c.014 0 .024.013.024.026a.026.026 0 01-.026.024zm-.497-.016l-.15-.005a.024.024 0 01-.024-.025c0-.014.012-.024.026-.024l.15.004c.013 0 .024.012.023.026a.025.025 0 01-.025.024zm-.497-.016h-.001l-.149-.004a.025.025 0 01-.024-.025c0-.014.012-.026.025-.025l.15.005c.013 0 .024.011.024.025a.025.025 0 01-.025.024zm-.497-.013l-.15-.004a.025.025 0 01-.024-.025c0-.014.01-.024.025-.025l.15.004c.013 0 .024.012.024.026a.026.026 0 01-.025.024zm-.498-.012l-.15-.004a.025.025 0 01-.024-.025c0-.014.01-.025.026-.025l.15.004c.013 0 .024.012.023.025a.025.025 0 01-.025.025zm-.497-.011l-.15-.004a.025.025 0 01-.024-.025c0-.014.013-.025.026-.024l.149.003c.014 0 .024.012.024.025a.025.025 0 01-.025.025zm-.497-.01L18 93.49a.025.025 0 01-.024-.026c0-.014.01-.026.025-.024l.15.003a.025.025 0 01-.001.05zm-16.566-.008a.025.025 0 010-.05l.15-.002c.01 0 .024.011.024.025a.025.025 0 01-.024.025l-.15.002zm16.068-.002l-.15-.002a.025.025 0 01-.024-.025c0-.014.012-.025.025-.025l.15.003c.014 0 .024.011.024.025 0 .014-.01.024-.025.024zm-15.57-.004a.025.025 0 010-.05l.149-.001c.014-.002.025.01.025.025a.025.025 0 01-.025.025l-.15.001zm15.073-.003l-.15-.003a.025.025 0 01-.024-.025c0-.014.01-.025.025-.025l.149.003c.014 0 .025.011.024.025 0 .014-.01.025-.024.025zm-14.576-.002a.025.025 0 010-.05l.15-.002c.014 0 .024.011.024.025a.025.025 0 01-.024.025l-.15.002zm.498-.005a.025.025 0 010-.05l.149-.002c.015.001.025.011.025.025a.025.025 0 01-.025.025l-.15.001zm13.58 0l-.15-.003a.025.025 0 010-.05h.001l.15.002c.013 0 .024.012.024.026 0 .013-.01.024-.024.024zm-13.083-.005a.025.025 0 010-.05l.15-.001c.015 0 .025.01.025.024a.025.025 0 01-.025.025l-.15.002zm12.586-.002l-.15-.002a.025.025 0 01-.024-.026c0-.013.01-.025.025-.024l.15.002c.013 0 .024.011.024.025a.025.025 0 01-.025.025zM4.072 93.46a.025.025 0 010-.05h.15c.013 0 .024.01.024.024a.025.025 0 01-.025.025l-.15.001zm11.59-.003l-.148-.002a.025.025 0 010-.05l.15.002c.013 0 .024.012.024.025a.025.025 0 01-.025.025zM4.57 93.456a.025.025 0 010-.05l.15-.001c.014 0 .024.01.024.025a.025.025 0 01-.024.025h-.15zm.498-.004a.025.025 0 010-.05l.15-.001c.013 0 .024.01.024.025a.025.025 0 01-.024.025h-.15zm10.099 0l-.15-.002a.025.025 0 010-.05l.15.002c.013 0 .024.011.024.025a.025.025 0 01-.024.024zm-9.601-.004a.025.025 0 010-.05h.149c.013-.002.025.01.025.024a.025.025 0 01-.025.025l-.15.001zm9.103 0l-.15-.002a.025.025 0 010-.05l.15.001c.014 0 .025.012.025.025a.025.025 0 01-.025.025zm-8.606-.003a.025.025 0 010-.05h.15c.013 0 .024.01.024.024a.025.025 0 01-.024.026h-.15zm8.108-.002h-.149a.025.025 0 01-.025-.026c0-.014.013-.027.026-.025l.149.002c.014 0 .025.01.025.025a.025.025 0 01-.025.024zm-7.61 0a.025.025 0 010-.05l.149-.002c.014 0 .025.011.025.025a.025.025 0 01-.025.025l-.15.001zm7.113-.003h-.15a.025.025 0 01-.024-.026c0-.013.011-.024.025-.024h.15a.025.025 0 110 .05zm-6.616 0a.025.025 0 01-.025-.025c0-.014.011-.025.025-.025l.15-.001c.013 0 .024.01.024.025a.025.025 0 01-.024.025h-.15zm6.119-.003h-.15a.025.025 0 010-.05h.15c.014 0 .024.012.024.026a.025.025 0 01-.024.024zm-5.621 0a.025.025 0 010-.05h.15c.013 0 .024.01.024.024a.025.025 0 01-.025.025l-.15.001zm.497-.002a.025.025 0 010-.05h.15c.013 0 .024.01.025.025a.025.025 0 01-.025.025h-.15zm4.626 0h-.149a.025.025 0 01-.025-.025c0-.014.012-.025.025-.025h.15a.025.025 0 010 .05zm-4.128-.002a.025.025 0 010-.05h.15c.013 0 .024.011.024.025a.025.025 0 01-.025.025h-.15zm3.631 0h-.15a.025.025 0 010-.05h.15c.014 0 .025.012.025.026a.025.025 0 01-.025.024zm-3.134 0a.025.025 0 010-.05h.15c.013 0 .024.01.025.024a.025.025 0 01-.025.025h-.15zm2.637-.001h-.15a.025.025 0 010-.05h.15c.013 0 .024.011.024.025a.025.025 0 01-.024.025zm-2.139 0a.025.025 0 01-.025-.025c0-.014.011-.025.025-.025h.15c.013 0 .024.01.024.024a.025.025 0 01-.024.025h-.15zm1.641 0h-.149a.025.025 0 01-.025-.026c0-.014.011-.025.025-.025h.15c.013 0 .024.011.024.025a.025.025 0 01-.025.025zm-1.144-.001a.025.025 0 01-.025-.025c0-.014.011-.025.025-.025h.149c.014 0 .025.011.025.025a.025.025 0 01-.025.025h-.149zm.647 0h-.15a.025.025 0 01-.024-.025c0-.014.01-.025.024-.025h.15c.013 0 .024.011.024.025a.024.024 0 01-.024.025z" fill="#fff"/><path d="M15.313 104.851h-3.26a.843.843 0 01-.838-.741l-.377-3.137a.84.84 0 01.838-.939h3.917a.84.84 0 01.84.914l-.28 3.137a.842.842 0 01-.84.766z" fill="#000"/><mask id="mask0_77_3265" style="mask-type:alpha" maskUnits="userSpaceOnUse" x="11" y="100" width="5" height="5"><path d="M14.912 104.274H12.43a.64.64 0 01-.637-.563l-.287-2.388a.64.64 0 01.637-.716h2.982a.64.64 0 01.64.696l-.213 2.388a.641.641 0 01-.64.583z" fill="url(#paint1_linear_77_3265)"/></mask><g mask="url(#mask0_77_3265)"><path d="M14.912 104.274H12.43a.64.64 0 01-.637-.563l-.287-2.388a.64.64 0 01.637-.716h2.982a.64.64 0 01.64.696l-.213 2.388a.641.641 0 01-.64.583z" fill="#000"/></g><path d="M86.436 48.197l7.761 15.606 9.976-22.168-10.362 11.473-7.375-4.91z" fill="#000"/><path d="M57.1 53.258c-.051.16.533.404.876-.251.013-.315.203-1.66.016-1.917-1-1.363-2.939-3.072-2.939-3.072-.328.323-.057.64-.057.64l.94.98c-.197.356-.437.656-.549 1.086a1.32 1.32 0 00.131.97c.165.298.39.684.603.987.403.573.978.577.978.577z" fill="url(#paint2_linear_77_3265)"/><path d="M56.347 50.274l.857.727.27.723-.765.848s-.257-1.435-.448-1.746c-.19-.31-.092-.46.086-.552z" fill="url(#paint3_linear_77_3265)"/><path d="M73.935 106.766s.217 1.226.322 2.44a.835.835 0 01-.8.905c-1.615.068-5.072.199-6.312.143a.272.272 0 01-.24-.373.609.609 0 01.312-.328l5.71-2.624 1.008-.163z" fill="#000"/><path d="M74.112 106.046l-.174 1.467s-1 .465-1.683-.059l.414-1.634 1.444.226z" fill="url(#paint4_linear_77_3265)"/><path d="M73.981 78.48c.076.383.404 19.108-1.598 27.499a.285.285 0 00.167.331 4.94 4.94 0 001.63.331.49.49 0 00.487-.352c.572-1.946 3.314-11.7 3.671-21.019.4-10.412 0-.355 0-.355l-.234-6.436-4.123.001zm6.522 28.926s.344.619.678 2.263a.51.51 0 01-.449.611c-.533.053-1.355.12-2.013.116a.508.508 0 01-.503-.567c.073-.601.3-1.585 1.001-2.353l1.286-.07z" fill="#000"/><path d="M80.806 105.52l-.407 2.217s-.402.299-1.197.082l.194-2.385 1.41.086z" fill="url(#paint5_linear_77_3265)"/><path d="M81.904 79.055c1.637 9.88-.355 24.418-1.027 27.263a.444.444 0 01-.358.337c-.3.05-.794.091-1.28-.05a.407.407 0 01-.293-.375c-.09-2.301.072-16.423-1.453-22.005a1.268 1.268 0 00-.49-.7l-2.96-2.104-.227-3.402 8.088 1.036z" fill="#000"/><path d="M71.473 60.336c4.906-.081 10.319 1.288 10.319 1.288 1.462 8.533.255 18.374.255 18.374-3.798.996-8.082-.61-8.082-.61-.632-3.566-3.577-13.603-3.577-13.603-2.397-.297-4.371-.989-5.997-1.903 1.24-1.437 1.825-3.267 2.079-4.348 1.735.539 3.49.827 5.003.802z" fill="#000"/><path d="M56.982 53.11c.482-.582 1.092-.307 1.092-.307.722 3.05 4.507 5.522 8.396 6.73-.254 1.082-.838 2.911-2.079 4.349-6.454-3.629-7.409-10.772-7.409-10.772z" fill="url(#paint6_linear_77_3265)"/><path d="M79.91 66.374l1.882-4.75s4.582 3.113 5.335 7.061c-.865.064-2.441.289-3.983 1.068-.339-1.864-3.234-3.379-3.234-3.379z" fill="#000"/><path d="M76.442 56.353l1.561 4.514a.163.163 0 01-.074.196c-.426.235-1.959.915-3.806-.256a.766.766 0 01-.353-.547l-.505-3.907h3.177z" fill="url(#paint7_linear_77_3265)"/><path d="M73.046 52.173s-1.714 3.226-1.495 4.53c.22 1.303 2.344 1.21 4.2.15l1.295-3.483-4-1.197z" fill="url(#paint8_linear_77_3265)"/><path d="M75.668 55.143a.133.133 0 01-.058-.195c.138-.21.395-.637.477-1.012 0 0 .308-.198-.784-.459s-2.721-.667-3.064-1.597c-.334-.907.544-3.187 1.943-1.37.053.07.158.07.211.002.23-.299.832-.919 1.67-.543.784.352.872.926.861 1.216a.132.132 0 00.157.135c.396-.076 1.347-.14 1.79.835.366.803.128 1.258-.088 1.48a.132.132 0 00.057.22c.26.08.596.301.563.911-.047.843-.99.769-1.258.73a.133.133 0 00-.118.042c-.23.255-1.267 1.337-2.39 1.467a.134.134 0 01-.141-.177l.486-1.413a.134.134 0 00-.072-.165l-.242-.107z" fill="#000"/><path d="M75.473 55.343s1.22-.837 1.31-.132c.089.705-1.1 1.022-1.688.759l.378-.627z" fill="url(#paint9_linear_77_3265)"/><path d="M83.144 69.752s1.601 7.225.15 11.288c1.78.824 1.451.669 1.451.669s3.519-10.281 2.383-13.025c-2.24-.237-3.351.365-3.984 1.068z" fill="url(#paint10_linear_77_3265)"/><path d="M83.295 81.04s-.916 1.186-.843 1.658c.073.473.09.665.09.665s.461-.315.432-.717c-.064 1.277-.491 2.73-.102 2.66.388-.07 2.4-1.925 1.946-3.903-1.033-.717-1.322-.639-1.523-.363z" fill="url(#paint11_linear_77_3265)"/><defs><linearGradient id="paint0_linear_77_3265" x1="77.472" y1="17.079" x2="96.96" y2="20.508" gradientUnits="userSpaceOnUse"><stop stop-color="#DAE3FE"/><stop offset="1" stop-color="#E9EFFD"/></linearGradient><linearGradient id="paint1_linear_77_3265" x1="11.501" y1="102.441" x2="15.767" y2="102.441" gradientUnits="userSpaceOnUse"><stop stop-color="#fff"/><stop offset="1"/></linearGradient><linearGradient id="paint2_linear_77_3265" x1="55.645" y1="48.236" x2="58.921" y2="57.598" gradientUnits="userSpaceOnUse"><stop stop-color="#FEBBBA"/><stop offset="1" stop-color="#FF928E"/></linearGradient><linearGradient id="paint3_linear_77_3265" x1="58.162" y1="54.217" x2="55.694" y2="49.238" gradientUnits="userSpaceOnUse"><stop stop-color="#FEBBBA"/><stop offset="1" stop-color="#FF928E"/></linearGradient><linearGradient id="paint4_linear_77_3265" x1="74.112" y1="106.762" x2="72.255" y2="106.762" gradientUnits="userSpaceOnUse"><stop stop-color="#FEBBBA"/><stop offset="1" stop-color="#FF928E"/></linearGradient><linearGradient id="paint5_linear_77_3265" x1="80.806" y1="106.666" x2="79.202" y2="106.666" gradientUnits="userSpaceOnUse"><stop stop-color="#FEBBBA"/><stop offset="1" stop-color="#FF928E"/></linearGradient><linearGradient id="paint6_linear_77_3265" x1="58.445" y1="47.256" x2="61.722" y2="56.618" gradientUnits="userSpaceOnUse"><stop stop-color="#FEBBBA"/><stop offset="1" stop-color="#FF928E"/></linearGradient><linearGradient id="paint7_linear_77_3265" x1="78.012" y1="58.913" x2="73.265" y2="58.913" gradientUnits="userSpaceOnUse"><stop stop-color="#FEBBBA"/><stop offset="1" stop-color="#FF928E"/></linearGradient><linearGradient id="paint8_linear_77_3265" x1="72.136" y1="55.893" x2="77.355" y2="52.71" gradientUnits="userSpaceOnUse"><stop stop-color="#FEBBBA"/><stop offset="1" stop-color="#FF928E"/></linearGradient><linearGradient id="paint9_linear_77_3265" x1="73.507" y1="57.08" x2="78.203" y2="54.216" gradientUnits="userSpaceOnUse"><stop stop-color="#FEBBBA"/><stop offset="1" stop-color="#FF928E"/></linearGradient><linearGradient id="paint10_linear_77_3265" x1="81.987" y1="93.818" x2="85.847" y2="66.101" gradientUnits="userSpaceOnUse"><stop stop-color="#FEBBBA"/><stop offset="1" stop-color="#FF928E"/></linearGradient><linearGradient id="paint11_linear_77_3265" x1="82.447" y1="91.152" x2="85.526" y2="69.033" gradientUnits="userSpaceOnUse"><stop stop-color="#FEBBBA"/><stop offset="1" stop-color="#FF928E"/></linearGradient></defs></svg>