<svg width="100" height="113" fill="none" xmlns="http://www.w3.org/2000/svg"><path d="M27.67 52.812c2.7-5.246 7.724-8.945 13.558-9.605l.4-25.261a.385.385 0 00-.388-.391c-16.458.178-30.979 10.421-37.756 25.593-.099.22.01.48.236.565l23.95 9.099z" fill="#C6EEEF"/><path d="M60.19 64.914a.754.754 0 00-.742.529c-.282.903-.799 2.636-.884 2.855a23.187 23.187 0 01-1.458 3.1c-1.046 1.843-2.385 3.532-4.037 4.87-4.186 3.39-10.204 4.02-15.223 2.342a12.86 12.86 0 01-.426-.152.561.561 0 00-.69.255l-12.656 23.081c6.145 3.082 11.93 3.888 19.185 3.423 21.081-1.351 37.635-18.468 39.473-39.695l-22.543-.608z" fill="#000"/><path d="M60.19 64.914c-1.373 8.423-7.598 15.004-16.057 15.292-2.38.08-5.219-.472-7.306-1.318a.473.473 0 00-.585.204l-13.01 22.38a39.54 39.54 0 0020.342 4.125c21.082-1.351 37.635-18.988 39.473-40.215l-22.858-.468zM20.52 97.939l12.596-22.593a.381.381 0 00-.088-.478c-3.878-3.265-6.979-7.644-6.979-13.322 0-1.4-.62-3.439-.336-4.752L2.025 48.323A46.049 46.049 0 000 61.87c0 15.248 8.103 28.66 19.227 36.37a.896.896 0 001.293-.301z" fill="#C6EEEF"/><path d="M19.26 97.297l13.054-22.314a.686.686 0 00-.138-.861c-3.744-3.294-6.126-8.244-6.126-13.83 0-1.4.15-2.765.435-4.08L2.38 47.203a.355.355 0 00-.464.229A46.073 46.073 0 000 60.616c0 15.62 7.718 29.07 19.26 36.68z" fill="#000"/><path d="M45.846 43.326c7.472 1.25 13.266 7.541 14.248 15.404.053.42.4.741.823.756l36.138 1.21.284-.274C97.23 30.19 75.551 4.289 46.514.862l-.668 42.464z" fill="#597B8E"/><path d="M73.199 26.272a8.746 8.746 0 10-12.368-12.368 8.746 8.746 0 0012.368 12.368z" fill="#C6EEEF"/><path d="M72.556 25.738a7.954 7.954 0 10-11.248-11.249 7.954 7.954 0 0011.248 11.249z" fill="#fff"/><path d="M62.597 27.923c.125-.582.224-.963.224-.963l-2.21-3.744s-.716.724-1.145 3.88c-.06.437.28.827.721.827h2.41zm11.958-.839c-.614-2.737-1.707-4.01-1.707-4.01l-1.383 4.583s.042.09.106.266h2.313c.44 0 .768-.41.671-.84z" fill="#000"/><path d="M62.58 27.923c2.273.836 5.361.719 8.965 0 .085-.35.2-.725.352-1.157l.951-3.694c-1.332-1.195-3.206-1.59-3.927-1.701-1.675-.416-3.632-.048-3.632-.048-2.655.185-4.678 1.889-4.678 1.889l1.644 3.742c.13.316.238.639.325.969z" fill="#000"/><path d="M65.629 19.519l-.057 1.866a.423.423 0 00.283.411c.477.169 1.465.425 2.4.09a.423.423 0 00.274-.46l-.28-1.907h-2.62z" fill="#EEC6BA"/><path d="M64.938 16.386s.11 2.52.548 3.507c.438.986 1.534.986 1.643.986.11 0 1.096-.22 1.644-1.096.548-.876.767-3.725.767-3.725s-.986-1.096-2.301-1.206c-1.315-.11-2.301.987-2.301 1.534z" fill="#EEC6BA"/><path d="M69.061 17.296s.504-.754.755-.503c.251.252-.252 1.886-.755 1.886-.502 0 0-1.383 0-1.383z" fill="#EEC6BA"/><path d="M65.29 17.422s-.629-.88-.88-.628c-.251.251.377 1.885.88 1.885v-1.257z" fill="url(#paint0_linear_77_2828)"/><path d="M69.85 15.77c.003-.171-.006-.347-.015-.548-.009-.201.01-.402.032-.602.061-.576-.54-1.032-1.084-.888-.042.011-.087.026-.127.01-.051-.02-.073-.077-.094-.128-.125-.313-.46-.719-.776-.852a1.744 1.744 0 00-.867-.128 1.77 1.77 0 00-1.383 1.005c-.014.03-.028.063-.057.081a.167.167 0 01-.088.018c-.297.004-.638-.061-.889.12a.902.902 0 00-.383.663c-.016.29.109.569.238.83.078.159.16.34.097.504-.019.051-.05.096-.075.144-.27.536.44 1.064.57 1.544l.298 1.095c.044-.233.057-.472.037-.709-.027-.325-.115-.646-.103-.973a1.59 1.59 0 01.17-.675c.105-.201.294-.29.436-.466.13.122.273.25.45.276a.754.754 0 00.333-.044c.163-.051.394-.235.552-.247.158-.013.213.153.317.24.29.244.783.311 1.13.166-.08.034.39.911.406.99.09.467.143.941.161 1.416.038.028.08-.028.092-.073.086-.316.112-.646.167-.969.063-.365.21-.709.33-1.058.092-.272.121-.502.125-.743z" fill="#000"/><path d="M90.02 21.337a8.014 8.014 0 10-11.334-11.333A8.014 8.014 0 0090.02 21.337z" fill="#C6EEEF"/><path d="M84.278 22.982a7.289 7.289 0 100-14.577 7.289 7.289 0 000 14.577z" fill="#fff"/><path d="M82.715 14.11c-.462 0-.94.059-1.121-.497-.34-1.047.231-2.612 1.168-3.182.313-.19.679-.274 1.038-.346.423-.085.789-.106 1.17.1.352.188.693-.116 1.058.127.31.207.548.532.713.86.217.43.329.902.423 1.374a.78.78 0 01.018.323.779.779 0 01-.119.245c-.378.586-.882.996-1.61.996h-2.738z" fill="#000"/><path d="M82.623 12.268s.083.174-.46.447c-.303.153-.893.377-.97 1.035-.041.34-.174 1.177-.496 1.229-.805.129-1.89.63-1.991 1.606-.117 1.12.206 1.709.776 1.854.418.108.525.22.44.663-.081.425.24 1.948.943 2.336 1.574.87 2.946-3.093 2.946-3.093l.322-5.116-1.51-.961zm3.602-.448s-.084.185.469.475c.308.16.908.4.987 1.096.041.36.137.865.466.92.818.137 1.767.934 1.97 2.483.153 1.182-.183 2.45-.764 2.605-.426.114-.394-.112-.308.357.083.45-.111.276-.826.687-1.603.922-3.204-2.183-3.204-2.183l-.328-5.42 1.538-1.02z" fill="#000"/><path d="M84.083 17.5s1.216-.313 1.475.075c.129.644.195 1.284.195 1.284l-1.402.263-.927-.213-.22-.128-.092-.913s.474-.274.97-.367z" fill="url(#paint1_linear_77_2828)"/><path d="M82.623 14.25s-.196-.588-.489-.392c-.293.196.44 1.444.44 1.444l.05-1.053z" fill="url(#paint2_linear_77_2828)"/><path d="M85.557 14.25s0-.881.49-.392c.489.49-.49 1.174-.49 1.174v-.783z" fill="url(#paint3_linear_77_2828)"/><path d="M90.164 22.244c-.41-1.977-.997-3.522-1.183-3.611l-1.11 2.747s-.224.819-.206 1.835h1.707c.512 0 .896-.47.792-.971zm-8.548.971c.052-.883.029-1.439.029-1.439l-1.565-2.54s-.196.778-.391 2.833c-.01.095-.018.192-.026.29a.79.79 0 00.787.856h1.166z" fill="#74A1BB"/><path d="M83.783 23.22h1.704l.462-4.857s-.391-.1-.587-.785c-.196-.684-.293-2.055-.293-2.055l-1.761.39s.196 1.864-.196 2.744l.67 4.564z" fill="url(#paint4_linear_77_2828)"/><path d="M86.406 23.22l.245-3.066c-1.784 1.068-3.62 1.016-5.482.45l.529 2.616h4.708z" fill="#000"/><path d="M84.2 23.215c-.528-2.551-1.088-5.344-1.088-5.344l-.293.586-2.739.784c.134.626.544 2.348.955 3.974h3.166zm3.914 0c.146-.782.275-1.392.275-1.392l.592-3.19c-.186-.187-3.11-.588-3.11-.588l-.313-.467s-.39 2.838-.725 5.637h3.281z" fill="#74A1BB"/><path d="M82.427 12.88s-.097 2.348.196 2.739c.294.391.685 1.271 1.37 1.37.684.097 1.76-1.86 1.76-1.957 0-.098-.098-2.641-.098-2.641s-2.053-1.663-3.228.489z" fill="url(#paint5_linear_77_2828)"/><path d="M82.036 12.489s-.391 1.173.783.782l1.173-.391s1.174-.685 1.37-.391c.195.293.39 1.016.39 1.016s.392-1.016 0-1.603c-.39-.587-2.835-1.076-3.716.587z" fill="#000"/><path d="M70.64 48.623a9.055 9.055 0 100-18.111 9.055 9.055 0 000 18.11z" fill="#C6EEEF"/><path d="M70.553 47.83a8.236 8.236 0 100-16.472 8.236 8.236 0 000 16.472z" fill="#fff"/><path d="M70.78 38.73a2.686 2.686 0 100-5.373 2.686 2.686 0 000 5.373z" fill="#000"/><path d="M68.2 35.294c-1.181 4.085-1.984 7.8-1.854 8.844l3.444-.364.4-7.557-1.99-.923zm3.814-.422l-.473 9.237 3.897 2.076c-.082-3.157-1.695-11.27-2.355-11.487l-1.07.174z" fill="#000"/><path d="M72.014 39.874l.114 2.516-2.44.368-.154-2.642 2.48-.242z" fill="url(#paint6_linear_77_2828)"/><path d="M73.172 38.36s-.585 2.611-2.167 2.925c-1.583.314-2.051-2.147-2.135-2.324 0 0-.354.167-.433-.185-.08-.352-.497-1.237.29-1.219 0 0-.155-.878.117-1.31.273-.431.822-1.469 1.953-1.18 1.13.288 2.939 1.24 2.375 3.292z" fill="url(#paint7_linear_77_2828)"/><path d="M72.09 41.55l1.547.82-2.026 2.224-3.747-2.357c.57-.214 1.132-.5 1.645-.585l2.58-.103z" fill="url(#paint8_linear_77_2828)"/><path d="M68.816 35.221c-.529.74-.113 1.396-.255 1.927.512-.186 2.242-.464 2.762-.414.108-.353-.103-.942-.212-1.406.17.44.555 1.115.514 1.463.7.033.556.042 1.342.357l-.611-2.133c-1.363-.637-2.54-.556-3.54.206zm2.604-2.507c0 .513-.483 1.088-.83 1.088-.287 0-.832-.575-.832-1.088 0-.513.372-.93.831-.93.459 0 .83.417.83.93z" fill="#000"/><path d="M74.748 47.937l.852-4.739c-1.159-.788-2.233-1.163-3.51-1.647-.395.822-2.203.74-2.58.102-1.203.305-2.347.87-3.454 1.6l1.166 4.685h7.526z" fill="#74A1BB"/><path d="M77.085 47.099c-.69-2.95-1.485-3.9-1.485-3.9l-1.275 3.878s.154.31.356.86h1.738c.44 0 .766-.41.666-.838zm-9.779.838c.141-.506.33-1.038.574-1.583l-1.824-3.1s-.9 1.564-1.197 3.917a.682.682 0 00.677.766h1.77z" fill="#74A1BB"/><path d="M72.275 35.062c.904 2.285 1.356 8.73.803 12.139.864-2.976 1.941-6.75.296-11.825l-1.099-.314z" fill="#000"/><path d="M89.6 40.966a8.146 8.146 0 100-16.292 8.146 8.146 0 000 16.292z" fill="#C6EEEF"/><path d="M94.761 38.084a7.409 7.409 0 10-10.478-10.478 7.409 7.409 0 0010.478 10.478z" fill="#fff"/><path d="M94.499 41.07a.744.744 0 00.744-.75c-.008-1.182-.032-2.221-.087-2.795-.14-1.465-.918-1.93-.918-1.93l-.396 5.475h.657z" fill="#74FCFD"/><path d="M92.587 41.07c-.058-3.066-.115-5.603-.115-5.603-1.388-.854-6.516-.747-6.516-.747l-.762 6.35h7.393z" fill="#74A1BB"/><path d="M84.12 41.07h4.77c-.153-1.483-1.385-6.968-1.385-6.968l-3.827 1.172s.302 3.42.302 4.488c0 .245.069.72.14 1.308z" fill="#74FCFD"/><path d="M84.263 41.07c.017-1.807-.016-5.141-.585-5.792 0 0-.737.38-1.485 2.836-.216.71-.412 1.382-.595 2.024a.732.732 0 00.705.932h1.96zm9.832 0c.137-2.6.258-5.37.143-5.484-.213-.213-2.78-1.052-2.78-1.052s-1.673 5.114-2.061 6.536h4.698z" fill="#74FCFD"/><path d="M87.666 35.01l.64-2.244h2.35l.32 2.564s-2.028.534-3.31-.32z" fill="url(#paint9_linear_77_2828)"/><path d="M87.666 29.852s.22 2.146.593 2.984c.373.839 1.303.839 1.397.839.093 0 .93-.187 1.396-.932.466-.745.652-3.166.652-3.166s-.838-.93-1.955-1.024c-1.118-.093-2.083.834-2.083 1.3z" fill="url(#paint10_linear_77_2828)"/><path d="M91.298 30.63s.427-.64.64-.427c.215.213-.213 1.602-.64 1.602-.428 0 0-1.175 0-1.175z" fill="url(#paint11_linear_77_2828)"/><path d="M88.093 30.737s-.534-.748-.748-.534c-.214.213.32 1.602.748 1.602v-1.068z" fill="url(#paint12_linear_77_2828)"/><path d="M92.394 29.358a1.99 1.99 0 00.105-.935c-.055-.475-.31-1.354-.663-1.707.1.1-.857.505-1.005.491.288-.234.647-.503.66-.912-.334.225-.74.306-1.136.376-.987.174-2.047.137-2.807.884-.317.312-.532.794-.45 1.244.058.328.547.674.247.977-.213.213.431.602.536 1.209.008.043.015.088.028.13-.01-.31-.129-.643-.121-.945.016-.619.948-.662 1.404-.703.607-.055 1.269-.05 1.794-.404.213-.144.349 1.02.358 1.078.053.332.116.688.06 1.023h.147c.043-.394.004-.77.293-1.056.14-.138.28-.277.39-.44.065-.097.118-.2.16-.31z" fill="#000"/><path d="M88.193 33.166c-.082.49-.107.728-.263 1.2-.14.427-.037 1.022-.029 1.47.012.627.499 1.312.392 1.927-.272-.765-1.104-1.362-1.53-2.076-.416-.699-.713-1.263-.237-1.922.294-.409 1.673-.638 1.667-.6zm2.515 2.053c.06 1.304-.197 1.569-.404 2.886.278-.89.906-1.358 1.4-2.151.486-.783.644-1.758-.153-2.28-.054-.035-.825-.392-.822-.323.01.19-.046 1.303-.02 1.868z" fill="#74FCFD"/><path d="M16.04 44.19a5.586 5.586 0 100-11.173 5.586 5.586 0 000 11.173z" fill="#597B8E"/><path d="M16.04 44.004a5.4 5.4 0 100-10.8 5.4 5.4 0 000 10.8z" fill="#fff"/><path opacity=".7" d="M11.063 38.39h-.003a.051.051 0 01-.049-.054c.011-.212.036-.425.074-.633a.051.051 0 01.1.018 5.16 5.16 0 00-.071.62.051.051 0 01-.051.049zm.525-1.979a.051.051 0 01-.046-.074 5.015 5.015 0 014.499-2.77c.305 0 .61.027.908.082a.05.05 0 01.041.059.05.05 0 01-.06.04 5.004 5.004 0 00-.89-.08 4.914 4.914 0 00-4.407 2.715.05.05 0 01-.045.028z" fill="#fff"/><path opacity=".78" d="M19.39 41.953a4.57 4.57 0 10-6.464-6.464 4.57 4.57 0 006.464 6.464z" fill="#fff"/><path d="M17.558 36.994c0 .774-.628 1.61-1.401 1.61-.774 0-1.402-.836-1.402-1.61 0-.774.628-1.323 1.402-1.323.774 0 1.4.55 1.4 1.323zm-3.14 4.589h3.42a.83.83 0 00.79-.576l.184-.575a.827.827 0 00-.5-1.03c-1.392-.508-2.832-.443-4.307.048a.825.825 0 00-.528 1l.141.522a.828.828 0 00.8.611z" fill="#74FCFD"/><path d="M26.12 35.51a5.586 5.586 0 100-11.172 5.586 5.586 0 000 11.173z" fill="#597B8E"/><path d="M26.12 35.325a5.4 5.4 0 100-10.8 5.4 5.4 0 000 10.8z" fill="#fff"/><path opacity=".7" d="M21.141 29.71h-.003a.052.052 0 01-.048-.053 5.11 5.11 0 01.073-.633.051.051 0 01.1.018c-.036.204-.06.412-.071.62a.05.05 0 01-.051.049zm.525-1.978a.051.051 0 01-.046-.074 5.015 5.015 0 014.5-2.77c.304 0 .61.027.908.081a.051.051 0 01-.018.1 4.996 4.996 0 00-.89-.08 4.914 4.914 0 00-4.408 2.714.05.05 0 01-.046.029z" fill="#fff"/><path opacity=".78" d="M29.468 33.274a4.57 4.57 0 10-6.464-6.464 4.57 4.57 0 006.464 6.464z" fill="#fff"/><path d="M27.637 28.314c0 .775-.628 1.61-1.402 1.61-.774 0-1.4-.835-1.4-1.61 0-.773.627-1.322 1.4-1.322.774 0 1.402.549 1.402 1.322zm-3.141 4.59h3.42a.83.83 0 00.79-.576l.184-.575a.827.827 0 00-.5-1.03c-1.392-.509-2.832-.443-4.306.047a.825.825 0 00-.529 1l.142.523a.828.828 0 00.799.61z" fill="#74FCFD"/><path d="M28.18 48.43a5.586 5.586 0 100-11.173 5.586 5.586 0 000 11.172z" fill="#597B8E"/><path d="M28.18 48.243a5.4 5.4 0 100-10.8 5.4 5.4 0 000 10.8z" fill="#fff"/><path opacity=".7" d="M23.202 42.63h-.003a.051.051 0 01-.049-.054c.012-.212.036-.425.074-.633a.051.051 0 01.059-.041.051.051 0 01.041.059c-.036.204-.06.412-.071.62a.051.051 0 01-.051.048zm.525-1.98a.051.051 0 01-.046-.074 5.015 5.015 0 014.499-2.77c.305 0 .61.028.908.082a.051.051 0 01-.018.1 5.004 5.004 0 00-.89-.08 4.914 4.914 0 00-4.408 2.714.05.05 0 01-.045.029z" fill="#fff"/><path opacity=".78" d="M28.297 47.531a4.57 4.57 0 100-9.14 4.57 4.57 0 000 9.14z" fill="#fff"/><path d="M29.697 41.233c0 .775-.628 1.61-1.401 1.61-.774 0-1.401-.836-1.401-1.61 0-.774.627-1.322 1.4-1.322.774 0 1.402.548 1.402 1.322zm-3.14 4.59h3.42a.83.83 0 00.79-.576l.184-.575a.827.827 0 00-.5-1.03c-1.392-.509-2.832-.443-4.306.047a.825.825 0 00-.529 1l.142.523c.097.36.425.61.799.61z" fill="#74FCFD"/><path d="M37.394 42.62s-1.544.751-1.828 1.614c-.227.692-1.934.78-2.102 2.142-.087.702-.607 1.265-1.307 1.372-1.742.267-4.428 1.172-4.858 4.198-.328 2.31.849 3.186 2.085 3.489.907.222 1.51 1.105 1.327 2.021-.176.88.086 1.895 1.609 2.699 3.412 1.8 6.82-4.265 6.82-4.265l.697-10.591-2.443-2.678z" fill="#000"/><path d="M55.96 40.11s-6.813 10.775-14.914 12.857c0 0 1.578 4.495 2.797 5.01 0 0 9.966-8.315 12.527-16.336l-.41-1.531z" fill="url(#paint13_linear_77_2828)"/><path d="M23.37 109.029l-.222 1.815a.75.75 0 01-.657.656c-.582.066-1.515.134-2.43.038a.641.641 0 01-.538-.832c.222-.701.63-1.753 1.217-2.372h2.013a.62.62 0 01.616.695z" fill="#000"/><path d="M39.14 87.766l.34 2s-1.139 11.527-1.34 16.138a3.611 3.611 0 00.534 2.054l1.979 3.213-5.03-2.967-.1-.614.824-1.132-1.079-12.914a3.962 3.962 0 01.451-2.191l1.04-1.955 2.38-1.632z" fill="url(#paint14_linear_77_2828)"/><path d="M40.983 111.637H39.38a.966.966 0 01-.767-.376c-.5-.65-1.537-1.919-2.033-1.952-.668-.044-.582 2.328-.582 2.328h-.374l-.474-2.948c-.12-.742.25-1.476.916-1.824 0 0 .152 1.128.98 1.627.826.499 3.365 2.286 3.365 2.286s.31-.044.652.018c.507.091.436.841-.078.841z" fill="#000"/><path d="M32.25 88.716s-6.666 12.647-7.726 15.534c-1.06 2.888-1.431 5.296-1.446 5.525-.022.356-.465.698-1.687.698-.63 0-.94-.252-1.09-.497a.713.713 0 01-.028-.69c.386-.781 1.61-3.275 2.063-4.406.54-1.351 1.705-7.472 2.343-9.6.639-2.129 1.36-4.437 4.14-6.564.001 0 1.91-1.87 3.432 0z" fill="url(#paint15_linear_77_2828)"/><path d="M36.463 67.993c1.72-7.287-2.637-11.409-2.637-11.409 2.75-2.639 7.758-3.84 7.758-3.84s4.78 3.495 4.212 6.23c-.332 1.603-3.36 9.602-3.36 9.602s-2.799 1.324-5.973-.582z" fill="#74A1BB"/><path d="M32.65 71.602c.7-2.109 3.812-3.609 3.812-3.609 3.175 1.907 5.974.582 5.974.582s.628 2.4.195 4.63c-.434 2.23-3.152 16.56-3.152 16.56-4.283.869-10.87-.872-10.87-.872 2.727-4.844 3.34-15.183 4.04-17.291z" fill="#000"/><path d="M38.459 47.929l-1.398 6.28c-.134.554.37.463.93.358.916-.173 2.096-.529 2.49-1.241a.681.681 0 00.072-.237l.6-4.356a.782.782 0 00-.457-.822l-1.16-.514a.783.783 0 00-1.077.532z" fill="url(#paint16_linear_77_2828)"/><path d="M41.137 42.203s1.489 1.008 2.128 3.574c.64 2.566-.4 3.487-1.465 3.43-1.066-.056-2.61-.386-3.95-2.227-1.338-1.84 1.336-6.008 3.287-4.777z" fill="url(#paint17_linear_77_2828)"/><path d="M39.2 45.945s-.545-3.677 2.508-3.114l.618.643s1.494-1.683-.16-2.955c-1.653-1.272-3.948-.947-5.218 1.37-1.27 2.315-1.73 3.942-.666 5.381 1.064 1.44 1.865.205 1.865.205s-.488-1.245-.084-1.78c.405-.534.928.31.928.31l.21-.06z" fill="#000"/><path d="M38.783 46.26s-.27-1.892-1.235-1.35c-.966.54.348 1.767.875 2.184l.36-.834z" fill="url(#paint18_linear_77_2828)"/><path d="M55.912 42.328c.02.223-.806.376-1.069-.571.073-.412.2-2.213.516-2.493 1.68-1.49 4.676-3.168 4.676-3.168a.613.613 0 01-.104.849l-1.496 1.01c.156.516.384.973.41 1.562a1.75 1.75 0 01-.442 1.223c-.298.34-.699.78-1.06 1.113-.683.63-1.43.475-1.43.475z" fill="url(#paint19_linear_77_2828)"/><path d="M56.725 41.594l-.229-.094c.03-.074.748-1.818 1.095-2.18.132-.138.196-.256.19-.351a.248.248 0 00-.077-.154l-1.21.647-.534.837-.208-.133.569-.892 1.417-.758.064.053c.144.117.218.243.226.385.01.169-.073.344-.257.537-.262.273-.844 1.61-1.046 2.103z" fill="url(#paint20_linear_77_2828)"/><path d="M38.02 71.838l.03.001 12.491-.013a.554.554 0 10-.002-1.106l-12.491.013a.556.556 0 00-.559.553.557.557 0 00.532.552z" fill="#000"/><path d="M61.77 60.616H51.368c-.767 0-1.466.438-1.793 1.125l-4.81 10.09h12.929c.495 0 .939-.298 1.12-.754l3.73-9.337a.823.823 0 00-.772-1.124z" fill="#000"/><path d="M55.993 66.295c.228-.692.065-1.368-.364-1.51-.43-.141-.963.305-1.191.998-.228.692-.065 1.368.364 1.51.43.14.963-.306 1.19-.998z" fill="#C6EEEF"/><path d="M33.808 56.6c-1.705 1.72-3.867 9.343-2.794 10.616.944 1.483 4.16 3.5 7.224 3.503h4.519c-1.9-2.018-3.207-2.53-4.764-1.118-1.236-.528-2.838-2.573-3.907-3.486a1.14 1.14 0 01-.238-1.446c.85-1.438 1.915-2.916 2.254-4.349.072-1.679-1.17-3.6-2.294-3.72z" fill="url(#paint21_linear_77_2828)"/><path d="M56.282 112.154a.448.448 0 01-.313-.155c-1.159-1.338-9.643-11.859-.224-22.767 8.94-10.355 13.173-12.662 13.33-18.363.02-.666.9-.891 1.239-.318 2.53 4.286 6.733 14.416-4.077 22.084-11.925 8.46-10.282 16.627-9.502 18.924a.45.45 0 01-.453.595z" fill="#EFFAFB"/><path d="M57.848 112.248a.647.647 0 01-.594-.5c-.444-1.907-1.718-9.062 3.45-11.373 5.69-2.544 10.82 2.546 14.797-2.04.21-.24.605-.074.574.244-.215 2.255-1.531 7.541-9.035 9.149-8.031 1.72-8.874 2.72-8.623 3.862a.546.546 0 01-.57.658z" fill="#EFFAFB"/><path d="M69.227 76.659c-.068.426-.17.83-.297 1.233-.126.402-.275.797-.44 1.184a14.99 14.99 0 01-1.19 2.23 17.687 17.687 0 01-3.333 3.797 22.959 22.959 0 01-2.009 1.527c-.664.456-1.3.957-1.903 1.494a21.181 21.181 0 00-3.219 3.613c-1.858 2.64-3.083 5.752-3.32 8.983a16.94 16.94 0 00.335 4.836c.338 1.593.916 3.135 1.635 4.609a.16.16 0 01-.072.213.16.16 0 01-.208-.064 19.006 19.006 0 01-1.886-4.632 16.865 16.865 0 01-.451-2.48 16.82 16.82 0 01-.068-2.526c.077-1.688.426-3.361.99-4.954a19.605 19.605 0 012.309-4.496 21.156 21.156 0 015.327-5.366c.683-.463 1.33-.93 1.95-1.453a19.47 19.47 0 003.317-3.516c.481-.65.91-1.34 1.294-2.055.376-.715.722-1.465.953-2.232l.004-.01a.145.145 0 01.282.065zm-11.815 34.306c.02-.072.007-.136 0-.202l-.021-.199-.035-.397a17.881 17.881 0 01-.022-2.39c.065-1.062.225-2.127.575-3.146.346-1.011.91-1.995 1.786-2.676a4.367 4.367 0 011.467-.736 5.532 5.532 0 011.62-.205c2.13.086 4.231.335 6.332.508 1.046.077 2.105.135 3.11-.08.25-.056.494-.13.73-.225.232-.102.46-.217.669-.362.423-.285.785-.659 1.103-1.067v-.001a.13.13 0 01.206.156 5.208 5.208 0 01-1.143 1.153 4.225 4.225 0 01-1.493.665c-1.07.239-2.151.185-3.208.121-1.06-.071-2.11-.188-3.163-.277a70.2 70.2 0 00-3.15-.219 5.215 5.215 0 00-1.517.177c-.49.133-.95.362-1.356.666-.816.61-1.373 1.526-1.725 2.499-.356.977-.533 2.02-.617 3.065a17.592 17.592 0 00-.022 2.363l.027.393.018.196c.006.065.008.132.045.191a.121.121 0 01-.04.166.121.121 0 01-.164-.039.124.124 0 01-.014-.095l.002-.003z" fill="#C6EEEF"/><defs><linearGradient id="paint0_linear_77_2828" x1="64.556" y1="21.187" x2="65.184" y2="13.236" gradientUnits="userSpaceOnUse"><stop stop-color="#E7D0C9"/><stop offset="1" stop-color="#EFD9DB"/></linearGradient><linearGradient id="paint1_linear_77_2828" x1="82.226" y1="4.007" x2="83.032" y2="9.295" gradientUnits="userSpaceOnUse"><stop stop-color="#FF928E"/><stop offset="1" stop-color="#FE7062"/></linearGradient><linearGradient id="paint2_linear_77_2828" x1="82.487" y1="14.108" x2="84.582" y2="7.417" gradientUnits="userSpaceOnUse"><stop stop-color="#FEBBBA"/><stop offset="1" stop-color="#FF928E"/></linearGradient><linearGradient id="paint3_linear_77_2828" x1="85.581" y1="15.077" x2="87.676" y2="8.386" gradientUnits="userSpaceOnUse"><stop stop-color="#FEBBBA"/><stop offset="1" stop-color="#FF928E"/></linearGradient><linearGradient id="paint4_linear_77_2828" x1="84.176" y1="21.046" x2="85.142" y2="14.581" gradientUnits="userSpaceOnUse"><stop stop-color="#FEBBBA"/><stop offset="1" stop-color="#FF928E"/></linearGradient><linearGradient id="paint5_linear_77_2828" x1="83.905" y1="14.552" x2="86" y2="7.861" gradientUnits="userSpaceOnUse"><stop stop-color="#FEBBBA"/><stop offset="1" stop-color="#FF928E"/></linearGradient><linearGradient id="paint6_linear_77_2828" x1="68.99" y1="36.617" x2="72.356" y2="45.116" gradientUnits="userSpaceOnUse"><stop stop-color="#FEBBBA"/><stop offset="1" stop-color="#FF928E"/></linearGradient><linearGradient id="paint7_linear_77_2828" x1="70.002" y1="42.132" x2="72.326" y2="29.204" gradientUnits="userSpaceOnUse"><stop stop-color="#FEBBBA"/><stop offset="1" stop-color="#FF928E"/></linearGradient><linearGradient id="paint8_linear_77_2828" x1="69.922" y1="36.342" x2="71.181" y2="45.396" gradientUnits="userSpaceOnUse"><stop stop-color="#FEBBBA"/><stop offset="1" stop-color="#FF928E"/></linearGradient><linearGradient id="paint9_linear_77_2828" x1="91.026" y1="27.301" x2="88.372" y2="39.55" gradientUnits="userSpaceOnUse"><stop stop-color="#FEBBBA"/><stop offset="1" stop-color="#FF928E"/></linearGradient><linearGradient id="paint10_linear_77_2828" x1="89.431" y1="31.253" x2="91.132" y2="23.123" gradientUnits="userSpaceOnUse"><stop stop-color="#FEBBBA"/><stop offset="1" stop-color="#FF928E"/></linearGradient><linearGradient id="paint11_linear_77_2828" x1="91.403" y1="31.666" x2="93.104" y2="23.535" gradientUnits="userSpaceOnUse"><stop stop-color="#FEBBBA"/><stop offset="1" stop-color="#FF928E"/></linearGradient><linearGradient id="paint12_linear_77_2828" x1="87.73" y1="30.897" x2="89.431" y2="22.767" gradientUnits="userSpaceOnUse"><stop stop-color="#FEBBBA"/><stop offset="1" stop-color="#FF928E"/></linearGradient><linearGradient id="paint13_linear_77_2828" x1="50.872" y1="45.195" x2="38.552" y2="62.225" gradientUnits="userSpaceOnUse"><stop stop-color="#FEBBBA"/><stop offset="1" stop-color="#FF928E"/></linearGradient><linearGradient id="paint14_linear_77_2828" x1="39.776" y1="125.267" x2="34.19" y2="59.98" gradientUnits="userSpaceOnUse"><stop stop-color="#FEBBBA"/><stop offset="1" stop-color="#FF928E"/></linearGradient><linearGradient id="paint15_linear_77_2828" x1="28.539" y1="126.239" x2="22.952" y2="60.934" gradientUnits="userSpaceOnUse"><stop stop-color="#FEBBBA"/><stop offset="1" stop-color="#FF928E"/></linearGradient><linearGradient id="paint16_linear_77_2828" x1="40.389" y1="60.913" x2="39.339" y2="53.237" gradientUnits="userSpaceOnUse"><stop stop-color="#FEBBBA"/><stop offset="1" stop-color="#FF928E"/></linearGradient><linearGradient id="paint17_linear_77_2828" x1="42.257" y1="51.669" x2="36.442" y2="33.907" gradientUnits="userSpaceOnUse"><stop stop-color="#FEBBBA"/><stop offset="1" stop-color="#FF928E"/></linearGradient><linearGradient id="paint18_linear_77_2828" x1="40.133" y1="52.364" x2="34.318" y2="34.602" gradientUnits="userSpaceOnUse"><stop stop-color="#FEBBBA"/><stop offset="1" stop-color="#FF928E"/></linearGradient><linearGradient id="paint19_linear_77_2828" x1="52.351" y1="46.265" x2="40.031" y2="63.295" gradientUnits="userSpaceOnUse"><stop stop-color="#FEBBBA"/><stop offset="1" stop-color="#FF928E"/></linearGradient><linearGradient id="paint20_linear_77_2828" x1="55.751" y1="40.055" x2="58.029" y2="40.055" gradientUnits="userSpaceOnUse"><stop stop-color="#FEBBBA"/><stop offset="1" stop-color="#FF928E"/></linearGradient><linearGradient id="paint21_linear_77_2828" x1="21.111" y1="70.842" x2="43.057" y2="61.662" gradientUnits="userSpaceOnUse"><stop stop-color="#FEBBBA"/><stop offset="1" stop-color="#FF928E"/></linearGradient></defs></svg>