<svg width="127" height="121" fill="none" xmlns="http://www.w3.org/2000/svg"><path opacity=".3" d="M35.64 9.308a.45.45 0 01-.618-.152c-.25-.414-.522-.823-.809-1.216a.45.45 0 01.093-.625l.007-.005a.45.45 0 01.63.1c.301.413.587.844.85 1.28a.45.45 0 01-.152.618zm-2.95-3.187c-.337-.35-.692-.69-1.056-1.009a.45.45 0 11.595-.678c.383.336.756.693 1.111 1.062a.45.45 0 01-.65.625zm-2.943-2.445a17.07 17.07 0 00-1.254-.747.45.45 0 11.428-.793c.449.242.893.507 1.32.787a.451.451 0 01-.494.753zM26.33 1.952c-.455-.17-.923-.32-1.39-.449a.451.451 0 01.24-.87c.492.137.984.295 1.463.473a.451.451 0 01-.313.846zm-3.715-.921c-.48-.063-.97-.107-1.455-.13a.45.45 0 11.042-.9c.511.023 1.026.07 1.531.136a.451.451 0 01-.118.894zM18.79.955c-.483.045-.97.11-1.447.196a.451.451 0 01-.159-.888c.503-.09 1.015-.159 1.523-.206a.45.45 0 11.083.898zM4.714 10.021a.45.45 0 01-.182-.611c.243-.449.509-.893.79-1.32a.45.45 0 11.752.496c-.267.406-.519.827-.75 1.254a.452.452 0 01-.61.18zm10.33-8.293c-.461.151-.921.324-1.367.513a.451.451 0 11-.353-.83c.47-.2.954-.381 1.439-.54a.451.451 0 01.28.857zM6.877 6.741a.451.451 0 01-.04-.636c.336-.383.695-.756 1.064-1.11a.45.45 0 11.624.651c-.352.336-.692.69-1.012 1.055a.45.45 0 01-.636.04zm4.687-3.421a17.2 17.2 0 00-1.218.805.45.45 0 01-.537-.724l.008-.006c.414-.3.845-.585 1.282-.848a.45.45 0 11.465.773zm-7.613 9.573a.448.448 0 00.156-.22c.072-.22.15-.444.232-.663a.45.45 0 10-.846-.314c-.086.23-.167.465-.243.698a.451.451 0 00.701.499zm1.183 13.694a.45.45 0 00.126-.57c-.11-.206-.216-.417-.318-.627a.45.45 0 10-.812.39c.106.222.219.444.334.66a.451.451 0 00.67.147zm25.372 6.287a.451.451 0 01-.508-.745 17.37 17.37 0 001.152-.859.451.451 0 01.569.7 18.295 18.295 0 01-1.213.904zm2.373-2.557a.451.451 0 01-.02-.638c.327-.349.643-.715.939-1.089a.45.45 0 11.707.56c-.312.393-.644.78-.988 1.146a.452.452 0 01-.637.02zm-4.492 3.8c-.449.224-.914.432-1.381.617a.451.451 0 01-.333-.838c.444-.176.886-.373 1.312-.586a.45.45 0 11.402.807zm6.89-6.835a.45.45 0 01-.16-.617c.242-.411.47-.838.676-1.268a.45.45 0 11.813.39 18.15 18.15 0 01-.712 1.335.45.45 0 01-.617.16zm-10.61 8.198c-.487.119-.986.22-1.483.297a.451.451 0 01-.14-.89c.472-.075.945-.17 1.408-.283a.451.451 0 01.215.876zm-3.93.513a18.14 18.14 0 01-1.511-.033.451.451 0 01.057-.9c.476.03.96.041 1.437.032a.45.45 0 01.018.901zm-3.947-.355c-.493-.1-.987-.221-1.469-.361a.451.451 0 01.252-.866c.457.133.927.249 1.395.343a.45.45 0 01-.178.884zm-3.776-1.208c-.46-.205-.915-.432-1.354-.675a.451.451 0 01.436-.79c.417.231.85.447 1.286.641.227.102.33.368.227.596a.45.45 0 01-.596.228zm-3.42-2.009c-.402-.3-.797-.622-1.172-.956a.45.45 0 11.599-.674c.357.318.731.623 1.113.909a.45.45 0 11-.54.721zM6.7 29.713a18.349 18.349 0 01-.936-1.188.446.446 0 01.1-.63.45.45 0 01.63.102 17.825 17.825 0 00.89 1.129.45.45 0 11-.684.587zm30.66-5.998a.447.447 0 00.158-.222c.074-.233.145-.471.21-.71a.45.45 0 10-.869-.238c-.062.225-.13.452-.2.673a.45.45 0 00.702.497z" fill="#C6EEEF"/><path d="M33.83 16.838a.211.211 0 00-.134-.204l-2.393-.923a11.168 11.168 0 00-1.262-3.392l1.206-2.262a.211.211 0 00-.032-.243l-2.094-2.253a.21.21 0 00-.24-.049L26.538 8.55a11.162 11.162 0 00-3.293-1.504l-.747-2.454a.211.211 0 00-.194-.149l-3.074-.111a.211.211 0 00-.204.134l-.924 2.393A11.16 11.16 0 0014.71 8.12l-2.262-1.205a.21.21 0 00-.243.032L9.952 9.042a.211.211 0 00-.049.24l1.038 2.343a11.16 11.16 0 00-1.504 3.292l-2.454.747a.212.212 0 00-.149.194l-.111 3.074a.21.21 0 00.134.204l2.393.924a11.17 11.17 0 001.262 3.392l-1.205 2.262a.21.21 0 00.031.243l2.095 2.253a.21.21 0 00.24.049l2.343-1.038a11.163 11.163 0 003.292 1.504l.748 2.453a.212.212 0 00.194.15l3.074.111a.21.21 0 00.204-.134l.923-2.393c1.175-.23 2.322-.65 3.393-1.262l2.261 1.205a.21.21 0 00.243-.031l2.253-2.095a.21.21 0 00.05-.24l-1.039-2.343a11.16 11.16 0 001.505-3.292l2.453-.748a.211.211 0 00.15-.194l.11-3.073z" fill="#74FCFD"/><path d="M21.764 20.596a3.096 3.096 0 01-4.198-1.223 3.071 3.071 0 01-.258-2.353 3.071 3.071 0 011.481-1.845 3.096 3.096 0 014.199 1.223 3.097 3.097 0 01-1.224 4.198zm-3.763-3.374a2.354 2.354 0 00.197 1.804 2.374 2.374 0 003.22.938 2.373 2.373 0 00.938-3.219 2.374 2.374 0 00-3.514-.747c-.404.306-.697.73-.841 1.224z" fill="#74A1BB"/><path d="M24.791 23.948a7.793 7.793 0 001.57-1.598l.01-.013.028-.038.053-.075a.18.18 0 00-.296-.206 7.242 7.242 0 01-7.776 2.865 7.194 7.194 0 01-3.952-2.644 7.188 7.188 0 01-1.454-4.624 7.194 7.194 0 012.305-5.04 7.25 7.25 0 0110.71.935 7.216 7.216 0 011.307 2.859.18.18 0 00.353-.075 7.58 7.58 0 00-1.87-3.593c-2.854-3.07-7.676-3.244-10.745-.39a7.551 7.551 0 00-2.42 5.291 7.543 7.543 0 002.03 5.454 7.554 7.554 0 005.292 2.421 7.555 7.555 0 004.855-1.529z" fill="#74A1BB"/><path opacity=".3" d="M55.119 9.465a.279.279 0 00.092-.32 11.858 11.858 0 00-.273-.659.278.278 0 00-.507.229c.092.205.18.416.26.627a.279.279 0 00.428.123zm-.964-1.908a.278.278 0 01-.383-.093 11.57 11.57 0 00-.808-1.161.279.279 0 01.045-.391.288.288 0 01.391.045 12.124 12.124 0 01.847 1.217.279.279 0 01-.092.383zM52.02 5.249a11.55 11.55 0 00-1.065-.93.279.279 0 01.34-.442c.39.3.765.628 1.116.975a.279.279 0 01-.391.397zm-2.236-1.723a11.38 11.38 0 00-1.261-.64.278.278 0 01.22-.512c.454.196.899.422 1.323.672a.279.279 0 11-.282.48zm-2.592-1.12a11.509 11.509 0 00-1.378-.313.278.278 0 11.089-.55c.486.08.972.19 1.446.328a.279.279 0 11-.157.535zm-2.786-.454c-.47-.018-.945-.008-1.413.032a.279.279 0 01-.047-.555c.49-.042.99-.053 1.481-.034a.279.279 0 01-.02.557zm-2.811.236c-.46.096-.918.223-1.362.375a.279.279 0 01-.181-.526c.465-.16.946-.293 1.428-.394a.279.279 0 11.115.545zm-2.668.916c-.42.206-.834.441-1.229.7a.279.279 0 01-.304-.468c.414-.27.847-.516 1.289-.732a.278.278 0 11.244.5zm-3.78 2.536a.278.278 0 01-.015-.393 12.152 12.152 0 011.073-1.025.275.275 0 01.392.034c.1.118.084.293-.033.392l-.14.12c-.31.271-.607.56-.883.857a.279.279 0 01-.393.015zM51.09 23.102c-.39.288-.802.554-1.223.792a.279.279 0 11-.274-.485c.402-.227.794-.481 1.167-.756a.278.278 0 01.333.446l-.003.003zm.726-.947a.278.278 0 01.012-.393c.337-.318.658-.658.955-1.013a.278.278 0 11.427.357 12.274 12.274 0 01-1.023 1.08.278.278 0 01-.37-.031zm-3.261 2.377c-.449.185-.913.345-1.38.474a.279.279 0 01-.148-.537 11.48 11.48 0 001.316-.452.279.279 0 01.212.515zm5.135-4.519a.278.278 0 01-.084-.385c.251-.389.48-.796.682-1.213a.279.279 0 01.501.243c-.21.436-.451.864-.715 1.272a.278.278 0 01-.385.083zm-7.94 5.294c-.479.072-.967.115-1.452.128a.278.278 0 01-.015-.557c.462-.012.928-.053 1.385-.122a.278.278 0 01.082.551zm-2.91.08a12.11 12.11 0 01-1.44-.223.278.278 0 01.118-.544c.45.098.913.169 1.374.213a.278.278 0 11-.052.554zm-2.845-.619c-.458-.16-.911-.35-1.345-.563a.279.279 0 01.245-.5c.415.205.846.385 1.284.537a.278.278 0 11-.184.526zm15.258-7.34a.273.273 0 00.095-.132c.077-.226.147-.455.21-.68a.279.279 0 10-.538-.149c-.06.216-.127.434-.2.65a.279.279 0 00.433.311z" fill="#C6EEEF"/><path d="M52.971 12.643a.142.142 0 00-.09-.136l-1.601-.618a7.472 7.472 0 00-.845-2.27l.807-1.514a.14.14 0 00-.021-.162l-1.402-1.508a.141.141 0 00-.16-.033l-1.568.695a7.464 7.464 0 00-2.203-1.007l-.5-1.642a.141.141 0 00-.13-.1L43.2 4.274a.14.14 0 00-.136.09l-.618 1.6a7.465 7.465 0 00-2.27.845l-1.513-.806a.14.14 0 00-.162.021l-1.508 1.402a.14.14 0 00-.033.16l.695 1.568a7.462 7.462 0 00-1.007 2.203l-1.642.5a.141.141 0 00-.1.13l-.074 2.057a.14.14 0 00.09.137l1.6.618a7.49 7.49 0 00.845 2.27l-.806 1.514a.14.14 0 00.02.162l1.403 1.508a.14.14 0 00.16.033l1.568-.695c.684.46 1.43.796 2.203 1.007l.5 1.641a.14.14 0 00.13.1l2.057.075a.142.142 0 00.137-.09l.618-1.601a7.466 7.466 0 002.27-.845l1.513.807a.14.14 0 00.163-.021l1.507-1.402a.141.141 0 00.033-.16l-.695-1.569c.46-.684.795-1.43 1.007-2.203l1.641-.5a.141.141 0 00.1-.13l.075-2.056z" fill="#74FCFD"/><path d="M44.915 15.19a2.091 2.091 0 01-1.603.176 2.092 2.092 0 01-1.257-1.01 2.11 2.11 0 01.833-2.86 2.109 2.109 0 012.86.834c.27.493.332 1.062.175 1.603a2.09 2.09 0 01-1.008 1.257zm-2.372-1.101c.199.363.527.627.925.742.397.116.815.07 1.178-.129.363-.2.626-.527.742-.925.116-.397.07-.816-.129-1.178a1.552 1.552 0 00-2.295-.49 1.553 1.553 0 00-.421 1.98z" fill="#74A1BB"/><path d="M47.022 17.523a5.375 5.375 0 001.114-1.146l.027-.04a.278.278 0 10-.457-.318c-.19.273-.41.525-.655.753l-.04.037a4.64 4.64 0 01-3.28 1.216h-.01l-.033-.001a4.659 4.659 0 01-3.574-1.862 4.653 4.653 0 01-.941-2.994 4.658 4.658 0 011.492-3.263 4.662 4.662 0 013.364-1.252 4.658 4.658 0 013.57 1.857c.414.547.703 1.179.846 1.85a.278.278 0 10.544-.115 5.225 5.225 0 00-1.29-2.478 5.213 5.213 0 00-3.65-1.67 5.205 5.205 0 00-3.763 1.4 5.21 5.21 0 00-1.67 3.651 5.207 5.207 0 001.401 3.763 5.253 5.253 0 007.005.612z" fill="#74A1BB"/><path d="M53.037 91.524l-2.721 18.78h31.573l-4.113-18.78H53.037z" fill="#000"/><path d="M0 31.39v55.9a8.48 8.48 0 008.261 8.477c20.417.527 91.824 1.803 111.26 1.516a6.239 6.239 0 006.142-6.061c.375-12.986.984-44.213-1.269-58.71a6.42 6.42 0 00-6.139-5.435c-17.107-.547-92.803-2.285-112.23-1.849A6.164 6.164 0 000 31.391z" fill="#000"/><path d="M3.507 31.119v53.107a4.913 4.913 0 004.84 4.912l108.377 1.34a4.782 4.782 0 004.853-4.764l.181-52.632a3.497 3.497 0 00-3.412-3.51L7.388 27.332a3.79 3.79 0 00-3.88 3.788zm118.886 61.535h-.003L3.505 90.628a.15.15 0 11.005-.3l118.886 2.025a.15.15 0 01.147.153.15.15 0 01-.15.148zm-58.27 2.474a1.389 1.389 0 01-1.387-1.387c0-.765.622-1.388 1.387-1.388s1.387.623 1.387 1.388c0 .764-.622 1.387-1.387 1.387zm0-2.475a1.088 1.088 0 101.087 1.087c0-.599-.488-1.087-1.087-1.087z" fill="#C6EEEF"/><path d="M88.69 115.298H42.48c-1.255 0-2.198-.894-1.955-1.854l.593-2.345c.178-.705.954-1.223 1.875-1.251l44.548-1.391c.962-.03 1.815.481 2.025 1.214l1.068 3.735c.278.971-.669 1.892-1.945 1.892z" fill="#000"/><path d="M67.355 110.482a.15.15 0 01-.15-.148.15.15 0 01.148-.152l1.909-.028c.08 0 .151.065.152.148a.15.15 0 01-.148.152l-1.909.028h-.002zm-25.119 3.522l-.024-.001a.151.151 0 01-.125-.172l.272-1.706a1.902 1.902 0 011.854-1.605l20.247-.296h.002a.15.15 0 01.15.148.15.15 0 01-.148.152l-20.246.296a1.603 1.603 0 00-1.562 1.352l-.272 1.706a.15.15 0 01-.148.126z" fill="#C6EEEF"/><path opacity=".53" d="M66.525 34.83h-2.85v50.28h2.85V34.83zm4.763 0h-2.85v50.28h2.85V34.83zm4.762 0H73.2v50.28h2.85V34.83zm4.764 0h-2.85v50.28h2.85V34.83zm4.763 0h-2.85v50.28h2.85V34.83zm4.763 0h-2.851v50.28h2.85V34.83zm4.763 0h-2.85v50.28h2.85V34.83z" fill="#fff"/><path d="M66.525 58.797h-2.85v26.312h2.85V58.797zm4.763 9.043h-2.85v17.269h2.85v-17.27zm4.762-22.35H73.2v39.619h2.85V45.49zm4.764 30.101h-2.85v9.518h2.85v-9.518zm4.763-24.804h-2.85v34.322h2.85V50.787zm4.763 5.943h-2.851v28.379h2.85v-28.38zm4.763 6.459h-2.85v21.92h2.85v-21.92z" fill="#74A1BB"/><path opacity=".57" d="M16.661 32.534a6.925 6.925 0 100 13.85 6.925 6.925 0 000-13.85zm0 10.87a3.945 3.945 0 110-7.89 3.945 3.945 0 010 7.89z" fill="#fff"/><path d="M27.561 37.935H6.991v8.706h20.57v-8.706z" fill="#fff"/><path opacity=".57" d="M33.542 32.534a6.925 6.925 0 100 13.85 6.925 6.925 0 000-13.85zm0 10.87a3.945 3.945 0 110-7.89 3.945 3.945 0 010 7.89z" fill="#fff"/><path d="M44.442 34.571h-20.57v12.07h20.57v-12.07z" fill="#fff"/><path opacity=".57" d="M50.423 32.534a6.925 6.925 0 100 13.85 6.925 6.925 0 000-13.85zm0 10.87a3.945 3.945 0 110-7.89 3.945 3.945 0 010 7.89z" fill="#fff"/><path d="M61.323 42.288h-20.57v4.353h20.57v-4.353z" fill="#fff"/><path opacity=".44" d="M55.74 85.387l-44.42-.334a1.595 1.595 0 01-1.583-1.595V60.635c0-.88.714-1.595 1.595-1.595h44.421c.881 0 1.595.714 1.595 1.595v23.157c0 .886-.721 1.602-1.607 1.595z" fill="#fff"/><path opacity=".44" d="M48.85 69.344l-5.711-6.039-8.19 8.909-5.78-6.236-5.42 6.127-4.156-5.05-8.191 8.528v6.168c0 .815.657 1.477 1.472 1.483l41.315.31a1.483 1.483 0 001.495-1.483V65.284l-6.833 4.06z" fill="#fff"/><path d="M49.036 69.177h-.15v14.368h.15V69.177zm-5.822-5.872h-.15v20.157h.15V63.305zm-8.191 8.8h-.15V83.4h.15V72.105zm-5.625-5.906h-.15v17.2h.15V66.2zm-5.574 5.723h-.15V83.4h.15V71.922zm-4.068-5.295h-.15V83.29h.15V66.627z" fill="#fff"/><path d="M19.68 67.882a1.255 1.255 0 100-2.51 1.255 1.255 0 000 2.51zm4.896 4.04a.827.827 0 11-1.654 0 .827.827 0 011.654 0zm5.574-5.723a.827.827 0 11-1.654 0 .827.827 0 011.653 0zm5.625 5.906a.827.827 0 11-1.653 0 .827.827 0 011.653 0zm8.19-8.8a.827.827 0 11-1.653 0 .827.827 0 011.653 0z" fill="#74FCFD"/><path d="M49.788 69.177a.827.827 0 11-1.654 0 .827.827 0 011.654 0z" fill="#74A1BB"/><path opacity=".48" d="M22.572 55.24H10.395c-.51 0-.922.288-.922.643 0 .354.413.642.922.642h12.177c.51 0 .923-.288.923-.642 0-.355-.413-.643-.923-.643zm0-2.844H10.395c-.51 0-.922.288-.922.642 0 .355.413.642.922.642h12.177c.51 0 .923-.287.923-.642 0-.354-.413-.642-.923-.642zm0-2.844H10.395c-.51 0-.922.288-.922.642 0 .355.413.643.922.643h12.177c.51 0 .923-.288.923-.643 0-.354-.413-.642-.923-.642zm16.927 5.688H27.322c-.51 0-.922.288-.922.643 0 .354.413.642.922.642h12.177c.51 0 .922-.288.922-.642 0-.355-.413-.643-.922-.643zm0-2.844H27.322c-.51 0-.922.288-.922.642 0 .355.413.642.922.642h12.177c.51 0 .922-.287.922-.642 0-.354-.413-.642-.922-.642zm0-2.844H27.322c-.51 0-.922.288-.922.642 0 .355.413.643.922.643h12.177c.51 0 .922-.288.922-.643 0-.354-.413-.642-.922-.642zm16.927 5.688H44.249c-.51 0-.923.288-.923.643 0 .354.413.642.923.642h12.177c.51 0 .922-.288.922-.642 0-.355-.413-.643-.922-.643zm0-2.844H44.249c-.51 0-.923.288-.923.642 0 .355.413.642.923.642h12.177c.51 0 .922-.287.922-.642 0-.354-.413-.642-.922-.642zm0-2.844H44.249c-.51 0-.923.288-.923.642 0 .355.413.643.923.643h12.177c.51 0 .922-.288.922-.643 0-.354-.413-.642-.922-.642z" fill="#fff"/><path d="M107.946 63.548a5.635 5.635 0 100-11.27 5.635 5.635 0 000 11.27z" fill="#fff"/><path d="M111.294 56.722a3.619 3.619 0 11-3.165-2.24v-.917a4.536 4.536 0 104.007 2.791l-.842.366z" fill="#C6EEEF"/><path opacity=".5" d="M112.577 65.934h-9.181a1.043 1.043 0 100 2.087h9.181a1.043 1.043 0 100-2.087z" fill="#fff"/><path d="M107.922 45.438a5.635 5.635 0 100-11.27 5.635 5.635 0 000 11.27z" fill="#fff"/><path d="M109.837 43.05a3.619 3.619 0 11-1.745-6.676v-.917a4.536 4.536 0 102.2 8.392l-.455-.799z" fill="#C6EEEF"/><path opacity=".5" d="M112.601 47.825h-9.181a1.043 1.043 0 100 2.087h9.181a1.043 1.043 0 100-2.087z" fill="#fff"/><path opacity=".91" d="M111.949 80.1a5.635 5.635 0 10-7.97-7.969 5.635 5.635 0 007.97 7.969z" fill="#fff"/><path d="M111.035 78.15a3.619 3.619 0 11-2.811-5.65v-.916a4.536 4.536 0 103.554 7.105l-.743-.539z" fill="url(#paint0_linear_77_3082)"/><path opacity=".5" d="M103.376 86.039h9.181a1.043 1.043 0 100-2.087h-9.181a1.043 1.043 0 100 2.087z" fill="#fff"/><path d="M109.91 116.746s.243 1.376.362 2.739a.94.94 0 01-.898 1.018c-1.814.075-5.696.222-7.089.16a.306.306 0 01-.269-.419.682.682 0 01.35-.368l6.412-2.947 1.132-.183z" fill="#000"/><path d="M110.109 115.937l-.195 1.647s-1.123.522-1.891-.066l.466-1.835 1.62.254z" fill="url(#paint1_linear_77_3082)"/><path d="M109.962 84.98c.085.43.453 21.458-1.794 30.882a.32.32 0 00.187.372 5.564 5.564 0 001.831.372.552.552 0 00.546-.396c.643-2.186 3.722-13.141 4.123-23.605.449-11.693 0-.398 0-.398l-.263-7.228h-4.63z" fill="#74A1BB"/><path d="M117.286 117.464s.387.695.761 2.542a.573.573 0 01-.504.686c-.599.059-1.521.135-2.26.13a.57.57 0 01-.565-.637c.081-.674.337-1.78 1.124-2.642l1.444-.079z" fill="#000"/><path d="M117.626 115.346l-.457 2.49s-.451.335-1.344.092l.217-2.679 1.584.097z" fill="url(#paint2_linear_77_3082)"/><path d="M118.859 85.625c1.838 11.095-.399 27.422-1.153 30.617a.497.497 0 01-.403.378c-.337.056-.891.102-1.437-.057a.457.457 0 01-.329-.42c-.101-2.584.081-18.444-1.632-24.712a1.42 1.42 0 00-.549-.785l-3.325-2.364-.255-3.82 9.083 1.163z" fill="#74A1BB"/><path d="M107.145 64.603c5.509-.091 11.588 1.446 11.588 1.446 1.642 9.582.287 20.635.287 20.635-4.266 1.118-9.077-.684-9.077-.684-.709-4.005-4.016-15.277-4.016-15.277-2.692-.334-4.909-1.11-6.736-2.137 1.393-1.615 2.05-3.67 2.335-4.884 1.948.606 3.92.929 5.619.9z" fill="#74A1BB"/><path d="M90.872 56.488c.54-.654 1.226-.344 1.226-.344.81 3.424 5.061 6.2 9.429 7.558-.285 1.215-.942 3.269-2.335 4.884-7.248-4.076-8.32-12.098-8.32-12.098z" fill="url(#paint3_linear_77_3082)"/><path d="M91.003 56.654c-.057.18.599.454.985-.282.013-.353.228-1.865.017-2.152-1.123-1.531-3.3-3.45-3.3-3.45-.368.363-.065.72-.065.72l1.056 1.1c-.22.4-.49.737-.616 1.22a1.48 1.48 0 00.147 1.089c.185.334.438.768.677 1.108.453.642 1.099.647 1.099.647z" fill="url(#paint4_linear_77_3082)"/><path d="M90.158 53.304l.963.816.302.812-.858.952s-.288-1.612-.503-1.96c-.214-.35-.103-.519.096-.62z" fill="url(#paint5_linear_77_3082)"/><path d="M116.62 71.384l2.113-5.335s5.146 3.497 5.993 7.93c-.973.072-2.742.325-4.474 1.2-.381-2.095-3.632-3.795-3.632-3.795z" fill="#74A1BB"/><path d="M112.123 76.403s5.778 3.266 7.727.477c.405-.579.501-1.154.402-1.702 1.732-.875 3.501-1.128 4.473-1.2a6.115 6.115 0 01-.665 4.195c-3.414 6.246-12.702-.346-12.702-.346l.765-1.424z" fill="url(#paint6_linear_77_3082)"/><path d="M112.817 80.535l-3.153-11.012a.321.321 0 00-.272-.23c-.571-.068-2.226-.255-4.138-.416-2.302-.195-4.976-.353-6.574-.219a.322.322 0 00-.263.464c.908 1.838 4.646 9.315 6.517 11.764a.323.323 0 00.26.128l7.316-.068a.323.323 0 00.307-.411z" fill="#000"/><path d="M104.927 67.921l-2.286-.38a.164.164 0 00-.183.213l.226.686a.16.16 0 00.135.11l2.2.294a.164.164 0 00.181-.2l-.14-.598a.165.165 0 00-.133-.125z" fill="#74A1BB"/><path d="M106.639 69.857l-.188-.98a.228.228 0 00-.2-.184l-4.618-.468a.226.226 0 00-.243.279l.293 1.222a.227.227 0 00.209.173l4.513.227a.227.227 0 00.234-.269z" fill="#74A1BB"/><path d="M112.055 77.874s.439-1.806.262-2.447c-.177-.64-.52-1.465-1.665-1.282-1.144.183-2.494.666-2.494.666s.068.834.938.565l-.539.417s.077.669.811.311l-.501.554s.315.549.856.197c.541-.352.8 1.236 2.332 1.02z" fill="url(#paint7_linear_77_3082)"/><path d="M112.725 60.13l1.753 5.07a.182.182 0 01-.083.22c-.478.263-2.2 1.028-4.274-.288a.86.86 0 01-.396-.614l-.568-4.388h3.568z" fill="url(#paint8_linear_77_3082)"/><path d="M108.801 54.894c-.053.073-1.7 5.815-1.7 5.815l3.298.87 2.37-5.21s-3.084-2.703-3.968-1.475z" fill="url(#paint9_linear_77_3082)"/><path d="M111.459 56.755a.49.49 0 01.046.43l-1.018 2.8a.448.448 0 01-.063.118c-.146.201-.665.805-1.267.237-.513-.484-.99-.922-1.437-1.054a.49.49 0 00-.608.34c-.152.538-.438 1.633-.556 2.641a.488.488 0 00.392.533c.659.13 1.953.343 3.053.283a.489.489 0 00.417-.282c.338-.721 1.295-2.737 1.653-3.265.332-.49 1.122-.483 1.484-.45a.493.493 0 00.374-.125c.307-.277.812-.916.086-1.69a.491.491 0 01.023-.684c.338-.33.666-.89.115-1.59-.558-.706-1.298-.636-1.779-.48a.51.51 0 01-.581-.19.325.325 0 00-.286-.147.477.477 0 01-.485-.475c.001-.461-.176-1.026-.962-1.278-1.44-.463-2.353.924-2.452 1.964-.1 1.04 1.491 1.454 2.428 1.392.69-.045 1.2.617 1.423.972z" fill="#000"/><path d="M111.685 60.567s.251-1.806 1.003-1.887c.753-.082 1.479.543.722 1.55-.942 1.254-1.725.337-1.725.337z" fill="url(#paint10_linear_77_3082)"/><defs><linearGradient id="paint0_linear_77_3082" x1="114.484" y1="70.001" x2="97.045" y2="86.551" gradientUnits="userSpaceOnUse"><stop stop-color="#FDF53F"/><stop offset="1" stop-color="#D93C65"/></linearGradient><linearGradient id="paint1_linear_77_3082" x1="110.109" y1="116.74" x2="108.023" y2="116.74" gradientUnits="userSpaceOnUse"><stop stop-color="#FEBBBA"/><stop offset="1" stop-color="#FF928E"/></linearGradient><linearGradient id="paint2_linear_77_3082" x1="117.626" y1="116.633" x2="115.825" y2="116.633" gradientUnits="userSpaceOnUse"><stop stop-color="#FEBBBA"/><stop offset="1" stop-color="#FF928E"/></linearGradient><linearGradient id="paint3_linear_77_3082" x1="101.527" y1="62.328" x2="90.871" y2="62.328" gradientUnits="userSpaceOnUse"><stop stop-color="#FEBBBA"/><stop offset="1" stop-color="#FF928E"/></linearGradient><linearGradient id="paint4_linear_77_3082" x1="93.245" y1="60.542" x2="100.395" y2="76.81" gradientUnits="userSpaceOnUse"><stop stop-color="#FEBBBA"/><stop offset="1" stop-color="#FF928E"/></linearGradient><linearGradient id="paint5_linear_77_3082" x1="90.923" y1="55.124" x2="87.939" y2="50.537" gradientUnits="userSpaceOnUse"><stop stop-color="#FEBBBA"/><stop offset="1" stop-color="#FF928E"/></linearGradient><linearGradient id="paint6_linear_77_3082" x1="124.843" y1="77.421" x2="111.358" y2="77.421" gradientUnits="userSpaceOnUse"><stop stop-color="#FEBBBA"/><stop offset="1" stop-color="#FF928E"/></linearGradient><linearGradient id="paint7_linear_77_3082" x1="112.359" y1="76.007" x2="108.159" y2="76.007" gradientUnits="userSpaceOnUse"><stop stop-color="#FEBBBA"/><stop offset="1" stop-color="#FF928E"/></linearGradient><linearGradient id="paint8_linear_77_3082" x1="114.488" y1="63.005" x2="109.157" y2="63.005" gradientUnits="userSpaceOnUse"><stop stop-color="#FEBBBA"/><stop offset="1" stop-color="#FF928E"/></linearGradient><linearGradient id="paint9_linear_77_3082" x1="109.869" y1="55.712" x2="110.134" y2="67.073" gradientUnits="userSpaceOnUse"><stop stop-color="#FEBBBA"/><stop offset="1" stop-color="#FF928E"/></linearGradient><linearGradient id="paint10_linear_77_3082" x1="113.82" y1="67.403" x2="112.654" y2="59.614" gradientUnits="userSpaceOnUse"><stop stop-color="#FEBBBA"/><stop offset="1" stop-color="#FF928E"/></linearGradient></defs></svg>