<svg width="137" height="134" fill="none" xmlns="http://www.w3.org/2000/svg"><path d="M100.124 100.124c18.432-18.432 18.432-48.317 0-66.75-18.432-18.432-48.317-18.432-66.75 0-18.432 18.433-18.432 48.318 0 66.75 18.433 18.432 48.318 18.432 66.75 0z" fill="#597B8E"/><path d="M66.75 107.032c22.248 0 40.283-18.035 40.283-40.283 0-22.247-18.035-40.282-40.283-40.282-22.247 0-40.282 18.035-40.282 40.282 0 22.248 18.035 40.283 40.282 40.283z" fill="#B8D9DA"/><path d="M66.75 109.05c-23.324 0-42.3-18.976-42.3-42.3 0-23.325 18.976-42.301 42.3-42.301 23.324 0 42.3 18.976 42.3 42.3 0 23.325-18.976 42.301-42.3 42.301zm0-82.583c-22.212 0-40.282 18.07-40.282 40.282 0 22.212 18.07 40.283 40.282 40.283 22.212 0 40.283-18.07 40.283-40.283 0-22.212-18.071-40.282-40.283-40.282z" fill="#fff"/><path d="M66.75 91.307c13.564 0 24.558-10.995 24.558-24.558S80.313 42.191 66.75 42.191 42.193 53.186 42.193 66.75s10.995 24.558 24.559 24.558z" fill="#B8D9DA"/><path d="M66.75 93.325c-14.654 0-26.576-11.922-26.576-26.576S52.096 40.174 66.75 40.174s26.576 11.922 26.576 26.575c0 14.654-11.922 26.576-26.576 26.576zm0-49.116c-12.429 0-22.54 10.111-22.54 22.54 0 12.43 10.111 22.541 22.54 22.541 12.429 0 22.54-10.112 22.54-22.54 0-12.43-10.11-22.541-22.54-22.541z" fill="#fff"/><path d="M66.75 76.264a9.515 9.515 0 10-9.514-9.515 9.515 9.515 0 009.515 9.515z" fill="#74FCFD"/><path d="M66.75 78.282c-6.359 0-11.532-5.173-11.532-11.532S60.39 55.218 66.75 55.218 78.282 60.39 78.282 66.75 73.11 78.282 66.75 78.282zm0-19.03c-4.134 0-7.497 3.363-7.497 7.497s3.363 7.497 7.497 7.497 7.497-3.363 7.497-7.497c0-4.133-3.363-7.497-7.497-7.497z" fill="#fff"/><path d="M111.786 21.835l1.003 1.002-37.95 37.949-1.001-1.002 37.948-37.95z" fill="#000"/><path d="M74.547 57.366c.575-.575 3.286 2.135 2.71 2.71l-10.052 7.903c-.371.292-.853-.19-.56-.56l7.902-10.053z" fill="#000"/><path d="M112.767 22.859l5.105.507-7.008 7.009a10.836 10.836 0 01-8.733 3.12l10.636-10.636zm-1.002-1.002l-.508-5.106-7.008 7.009a10.83 10.83 0 00-3.12 8.733l10.636-10.636z" fill="#74FCFD"/><path opacity=".3" d="M41.703 14.79a.366.366 0 01-.517 0c-.277-.277-.57-.547-.87-.8a.365.365 0 01-.05-.51l.005-.006a.365.365 0 01.515-.044c.317.268.625.55.917.843a.365.365 0 010 .517zm-2.939-1.936c-.333-.21-.678-.408-1.026-.588a.366.366 0 01.337-.649c.366.19.73.399 1.08.62a.365.365 0 01-.39.617zm-2.788-1.352c-.37-.13-.75-.247-1.13-.345a.366.366 0 01.182-.708c.4.104.801.226 1.191.364a.366.366 0 01-.243.689zm-3.021-.696c-.39-.045-.788-.073-1.18-.084a.365.365 0 01.02-.73c.414.011.831.041 1.243.088a.365.365 0 01-.083.726zm-3.1-.005c-.39.043-.784.104-1.17.18a.365.365 0 11-.141-.717c.406-.08.82-.143 1.23-.189a.365.365 0 11.08.726zm-3.025.682c-.37.128-.74.274-1.1.434a.365.365 0 01-.297-.668c.378-.168.768-.321 1.158-.457a.365.365 0 11.24.69zm-9.315 9.856a.365.365 0 01-.261-.446c.104-.4.227-.8.366-1.19a.365.365 0 11.688.243 14.17 14.17 0 00-.347 1.131.366.366 0 01-.445.261zm6.52-8.522c-.334.207-.662.432-.976.667a.366.366 0 01-.438-.584c.33-.248.676-.485 1.027-.703a.365.365 0 11.386.62zm-5.453 5.523a.365.365 0 01-.155-.492c.192-.367.4-.73.622-1.079a.365.365 0 11.617.391c-.21.332-.41.677-.591 1.025a.365.365 0 01-.492.155zm3.025-3.599c-.278.277-.548.57-.802.87a.365.365 0 01-.562-.466l.005-.006c.267-.316.551-.624.844-.916a.365.365 0 11.515.518zm-4.135 9.004a.365.365 0 00.08-.203c.014-.188.032-.378.053-.567a.366.366 0 00-.726-.083 17.14 17.14 0 00-.056.596.365.365 0 00.649.257zm3.582 10.543a.366.366 0 00-.012-.474c-.126-.14-.25-.285-.37-.431a.365.365 0 00-.565.464c.127.154.259.307.391.454a.365.365 0 00.556-.013zm21.173.032a.365.365 0 01-.544-.487c.256-.286.504-.588.74-.9a.366.366 0 01.583.44 15.615 15.615 0 01-.779.947zm1.372-2.471a.365.365 0 01-.14-.498c.19-.337.368-.687.528-1.038a.365.365 0 11.664.303c-.169.37-.356.738-.555 1.093a.365.365 0 01-.497.14zm-2.798 3.86c-.31.262-.635.515-.967.751a.365.365 0 01-.423-.595c.315-.224.624-.464.918-.714a.365.365 0 11.472.557zm4.096-6.711a.365.365 0 01-.245-.454c.11-.37.207-.75.286-1.129a.365.365 0 11.715.15c-.083.397-.184.797-.3 1.187a.367.367 0 01-.455.246zM38.139 37.5c-.36.188-.733.363-1.109.52a.365.365 0 11-.282-.672c.357-.15.711-.316 1.053-.495a.365.365 0 11.338.647zm-2.991 1.164c-.394.105-.796.195-1.196.267a.365.365 0 11-.129-.719c.38-.069.762-.154 1.136-.253a.365.365 0 11.189.705zm-3.174.485c-.407.017-.82.017-1.225 0a.365.365 0 01.03-.73c.386.017.777.017 1.165 0a.365.365 0 01.03.73zm-3.204-.219c-.4-.072-.803-.162-1.196-.268a.365.365 0 11.19-.705c.373.1.755.186 1.136.255a.365.365 0 11-.13.718zm-3.079-.917a14.617 14.617 0 01-1.107-.525.365.365 0 01.34-.647c.343.18.697.349 1.052.5a.365.365 0 11-.285.672zm-2.8-1.57a14.433 14.433 0 01-.966-.753.361.361 0 01-.042-.515.365.365 0 01.515-.042 14.241 14.241 0 00.918.715.365.365 0 11-.424.594zm22.954-10.655a.363.363 0 00.08-.205c.014-.197.024-.398.03-.598a.365.365 0 10-.731-.02c-.005.19-.015.38-.027.568a.365.365 0 00.648.255z" fill="#C6EEEF"/><path d="M41.737 21.063a.171.171 0 00-.145-.134l-2.06-.263a9.052 9.052 0 00-1.65-2.424l.51-2.013a.17.17 0 00-.072-.185l-2.084-1.366a.17.17 0 00-.198.008l-1.642 1.27a9.055 9.055 0 00-2.881-.546l-1.063-1.785a.172.172 0 00-.181-.08l-2.44.507a.171.171 0 00-.135.146l-.263 2.06c-.88.41-1.7.962-2.424 1.65l-2.012-.51a.17.17 0 00-.185.072l-1.366 2.084a.17.17 0 00.008.198l1.27 1.642a9.054 9.054 0 00-.546 2.88l-1.785 1.064a.172.172 0 00-.08.181l.507 2.44a.17.17 0 00.145.134l2.061.263c.41.88.962 1.701 1.65 2.424l-.51 2.013a.17.17 0 00.072.184l2.084 1.367a.17.17 0 00.198-.008l1.642-1.27c.938.342 1.91.521 2.881.546l1.063 1.785a.17.17 0 00.181.08l2.44-.508a.17.17 0 00.134-.145l.264-2.06c.88-.41 1.7-.962 2.423-1.65l2.013.51a.17.17 0 00.185-.072l1.366-2.084a.17.17 0 00-.008-.198l-1.27-1.642c.343-.938.521-1.91.546-2.88l1.785-1.064a.172.172 0 00.08-.181l-.508-2.44z" fill="#C6EEEF"/><path d="M32.974 26.356a2.507 2.507 0 01-3.54-.15 2.485 2.485 0 01-.657-1.8 2.507 2.507 0 014.347-1.59 2.509 2.509 0 01-.15 3.54zM29.36 24.43a1.923 1.923 0 003.218 1.495c.78-.717.832-1.934.115-2.713a1.923 1.923 0 00-3.333 1.218z" fill="#74A1BB"/><path d="M36.004 28.406a6.366 6.366 0 00.48-.681 6.16 6.16 0 00.446-.88l.005-.012.014-.035.028-.07a.147.147 0 00-.084-.188.147.147 0 00-.189.084 5.866 5.866 0 01-5.562 3.76 5.83 5.83 0 01-3.62-1.315 5.82 5.82 0 01-2.039-3.356 5.83 5.83 0 01.837-4.411 5.873 5.873 0 018.605-1.339 5.845 5.845 0 011.582 1.996.145.145 0 00.195.068.146.146 0 00.068-.195 6.136 6.136 0 00-2.166-2.464 6.167 6.167 0 00-8.528 1.773 6.118 6.118 0 00-.879 4.632 6.112 6.112 0 002.653 3.896 6.118 6.118 0 004.631.88 6.119 6.119 0 003.523-2.143z" fill="#74A1BB"/><path opacity=".3" d="M57.053 11.142a.225.225 0 00.01-.27 9.278 9.278 0 00-.342-.465.226.226 0 00-.355.278c.112.143.222.293.326.443a.226.226 0 00.361.014zm-1.128-1.315a.226.226 0 01-.319.001 9.408 9.408 0 00-.86-.756.225.225 0 01-.04-.317.234.234 0 01.317-.04l.164.13c.256.208.504.43.738.664a.226.226 0 010 .318zM53.8 8.425a9.318 9.318 0 00-1.017-.526.226.226 0 01.181-.413 9.79 9.79 0 011.067.552.226.226 0 01-.23.387zm-2.092-.922a9.309 9.309 0 00-1.116-.26.226.226 0 01.075-.444c.394.067.788.158 1.17.273a.226.226 0 11-.13.431zm-2.255-.38a9.386 9.386 0 00-1.145.022.226.226 0 01-.037-.45c.398-.032.802-.04 1.201-.022a.226.226 0 01-.02.45zm-2.28.183a9.288 9.288 0 00-1.105.299.225.225 0 11-.143-.428 9.935 9.935 0 011.158-.313.225.225 0 11.09.442zm-2.165.73a9.17 9.17 0 00-.998.56.226.226 0 01-.245-.38 9.71 9.71 0 011.047-.586.225.225 0 01.196.406zm-1.921 1.238c-.291.243-.57.508-.831.787a.226.226 0 01-.32.01.227.227 0 01-.01-.318c.273-.293.566-.57.871-.826a.225.225 0 11.29.347zM40.605 12a.226.226 0 01-.088-.307 9.797 9.797 0 01.645-1.013.224.224 0 01.315-.05c.1.074.123.215.05.315a9.267 9.267 0 00-.615.966.224.224 0 01-.306.088zm15.92 10.647a9.792 9.792 0 01-.808.86.226.226 0 11-.31-.328c.272-.256.532-.532.772-.82a.226.226 0 01.346.288zm.388-.885a.226.226 0 01-.066-.312 9.45 9.45 0 00.554-.981.226.226 0 01.405.197 9.87 9.87 0 01-.595 1.049.225.225 0 01-.298.047zm-2.105 2.501a9.81 9.81 0 01-.993.64.226.226 0 01-.221-.394c.326-.183.645-.388.948-.61a.225.225 0 11.266.364zm3.164-4.548a.225.225 0 01-.14-.287 9.31 9.31 0 00.301-1.086.226.226 0 01.441.094 9.67 9.67 0 01-.315 1.139.226.226 0 01-.287.14zm-5.22 5.701a9.896 9.896 0 01-1.117.382.226.226 0 01-.12-.435c.361-.1.72-.222 1.066-.364a.226.226 0 01.171.417zm-2.273.626a9.78 9.78 0 01-1.177.104.225.225 0 11-.012-.451 9.35 9.35 0 001.123-.099.225.225 0 11.066.446zm-2.358.064a9.755 9.755 0 01-1.167-.182.226.226 0 01.096-.44c.365.079.74.137 1.113.173a.226.226 0 01-.042.45zM58.7 17.38a.225.225 0 00.05-.123c.017-.193.028-.387.033-.576a.225.225 0 10-.45-.012 9.403 9.403 0 01-.032.549.226.226 0 00.4.161z" fill="#C6EEEF"/><path d="M55.98 14.057a.114.114 0 00-.098-.09l-1.379-.176a6.06 6.06 0 00-1.104-1.622l.342-1.347a.115.115 0 00-.048-.123l-1.395-.914a.114.114 0 00-.132.005l-1.1.85a6.052 6.052 0 00-1.927-.366l-.71-1.194a.115.115 0 00-.122-.053l-1.633.34a.114.114 0 00-.09.097l-.176 1.379a6.058 6.058 0 00-1.622 1.104l-1.347-.342a.114.114 0 00-.123.048l-.915 1.395a.114.114 0 00.006.132l.85 1.1a6.043 6.043 0 00-.365 1.927l-1.195.71a.114.114 0 00-.053.122l.34 1.633c.01.048.049.084.097.09l1.38.176a6.06 6.06 0 001.103 1.622l-.341 1.347a.115.115 0 00.047.123l1.395.915c.04.026.094.024.133-.006l1.099-.85a6.04 6.04 0 001.927.365l.711 1.194a.115.115 0 00.122.054l1.632-.34a.114.114 0 00.09-.097l.176-1.38a6.054 6.054 0 001.623-1.103l1.346.341a.115.115 0 00.124-.047l.914-1.395a.114.114 0 00-.005-.133l-.85-1.098a6.088 6.088 0 00.365-1.928l1.194-.711a.114.114 0 00.053-.121l-.34-1.633z" fill="#C6EEEF"/><path d="M50.136 17.62a1.695 1.695 0 01-1.227.45 1.708 1.708 0 01-1.082-2.96 1.708 1.708 0 012.86 1.326 1.693 1.693 0 01-.551 1.184zm-2.079-.406c.227.247.537.39.871.404.335.014.656-.103.903-.33.246-.227.39-.536.404-.87a1.257 1.257 0 00-2.23-.843 1.257 1.257 0 00.052 1.639z" fill="#74A1BB"/><path d="M52.245 19.047a4.25 4.25 0 00.654-1.117l.014-.036a.225.225 0 10-.42-.162 3.815 3.815 0 01-.37.719l-.024.037a3.76 3.76 0 01-2.345 1.592l-.009.002-.025.005a3.773 3.773 0 01-3.172-.772 3.77 3.77 0 01-1.32-2.173 3.775 3.775 0 01.542-2.855 3.777 3.777 0 012.403-1.637 3.773 3.773 0 013.167.77c.432.35.782.791 1.024 1.292a.226.226 0 00.301.105.226.226 0 00.106-.302 4.24 4.24 0 00-1.495-1.7 4.221 4.221 0 00-3.195-.606 4.215 4.215 0 00-2.688 1.83 4.22 4.22 0 00-.607 3.195 4.217 4.217 0 001.83 2.688 4.256 4.256 0 005.629-.875z" fill="#74A1BB"/><path d="M29.532 125.594s-.254 1.362-.385 2.711a.932.932 0 00.88 1.017c1.798.091 5.643.274 7.024.225a.302.302 0 00.27-.412.678.678 0 00-.343-.368l-6.326-2.981-1.12-.192z" fill="#000"/><path d="M29.342 124.79l.178 1.634s1.108.529 1.874-.048l-.444-1.823-1.608.237z" fill="url(#paint0_linear_77_2706)"/><path d="M29.78 94.114c-.087.425-.65 21.26 1.487 30.62a.317.317 0 01-.189.367 5.545 5.545 0 01-1.818.352.546.546 0 01-.537-.398c-.616-2.172-3.564-13.057-3.863-23.431-.334-11.592.004-.395.004-.395l.329-7.16 4.588.045zm-7.564 32.121s-.39.685-.78 2.512c-.07.33.159.649.494.685.593.064 1.506.148 2.239.15a.567.567 0 00.566-.626c-.075-.669-.317-1.768-1.09-2.629l-1.43-.092z" fill="#000"/><path d="M21.899 124.134l.429 2.472s.444.337 1.331.104l-.19-2.657-1.57.081z" fill="url(#paint1_linear_77_2706)"/><path d="M20.958 94.669c-1.927 10.977.136 27.178.853 30.352a.494.494 0 00.395.379c.333.058.882.109 1.426-.044a.452.452 0 00.33-.414c.124-2.559.093-18.278 1.85-24.473.09-.314.284-.587.552-.773l3.317-2.311.289-3.784-9.012 1.068z" fill="#000"/><path d="M32.765 73.947c-5.459-.143-11.497 1.324-11.497 1.324-1.718 9.48-.48 20.445-.48 20.445 4.216 1.15 9-.591 9-.591.741-3.963 4.126-15.102 4.126-15.102 2.67-.306 4.875-1.054 6.694-2.054-1.365-1.614-1.996-3.656-2.267-4.862-1.936.582-3.892.884-5.576.84z" fill="#C6EEEF"/><path d="M48.969 66.059c-.53-.653-1.212-.353-1.212-.353-.835 3.386-5.074 6.098-9.415 7.401.27 1.206.902 3.249 2.267 4.862 7.221-3.97 8.36-11.91 8.36-11.91z" fill="url(#paint2_linear_77_2706)"/><path d="M48.837 66.222c.055.179-.598.445-.974-.289-.01-.35-.208-1.85.004-2.133 1.127-1.507 3.303-3.388 3.303-3.388.36.364.057.714.057.714l-1.057 1.08c.215.398.479.735.6 1.214.091.364.03.75-.157 1.079-.186.329-.441.757-.681 1.091-.455.633-1.095.632-1.095.632z" fill="url(#paint3_linear_77_2706)"/><path d="M49.706 62.91l-.962.8-.307.802.841.951s.302-1.594.517-1.938c.216-.344.108-.512-.09-.615z" fill="url(#paint4_linear_77_2706)"/><path d="M23.311 80.577l-2.043-5.306s-5.133 3.416-6.013 7.801c.963.08 2.713.348 4.421 1.23.398-2.07 3.636-3.725 3.636-3.725z" fill="#C6EEEF"/><path d="M27.72 85.594s-5.756 3.181-7.661.4c-.396-.578-.486-1.149-.383-1.691-1.707-.883-3.459-1.15-4.421-1.23a6.063 6.063 0 00.62 4.162c3.324 6.223 12.59-.222 12.59-.222l-.744-1.419z" fill="url(#paint5_linear_77_2706)"/><path d="M27.277 69.461l-1.785 5.008a.181.181 0 00.08.219c.471.266 2.17 1.04 4.239-.245a.853.853 0 00.398-.605l.605-4.343-3.537-.034z" fill="url(#paint6_linear_77_2706)"/><path d="M31.102 64.846s1.873 3.608 1.615 5.057c-.258 1.448-2.622 1.322-4.675.124l-1.405-3.891 4.465-1.29z" fill="url(#paint7_linear_77_2706)"/><path d="M28.151 68.123a.148.148 0 00.067-.216c-.15-.235-.433-.714-.52-1.132 0 0-.341-.223.877-.502 1.219-.28 3.036-.714 3.427-1.745.382-1.005-.57-3.552-2.147-1.545a.148.148 0 01-.235 0c-.252-.335-.917-1.031-1.853-.622-.875.383-.98 1.02-.971 1.343a.147.147 0 01-.176.15c-.44-.09-1.497-.171-2.001.909-.416.89-.156 1.399.082 1.648a.147.147 0 01-.065.245c-.291.086-.667.328-.636 1.007.043.94 1.093.867 1.392.827.05-.007.098.01.13.047.254.286 1.397 1.501 2.645 1.658a.15.15 0 00.158-.195l-.525-1.577a.149.149 0 01.082-.184l.269-.116z" fill="#000"/><path d="M28.366 68.348s-1.349-.945-1.456-.16c-.107.783 1.212 1.148 1.87.861l-.414-.7z" fill="url(#paint8_linear_77_2706)"/><path d="M26.544 90.621l3.136-10.95a.319.319 0 01.27-.23c.568-.067 2.214-.252 4.115-.413 2.29-.194 4.949-.35 6.537-.217a.32.32 0 01.262.46c-.903 1.828-4.62 9.264-6.48 11.7a.32.32 0 01-.26.127l-7.275-.068a.32.32 0 01-.305-.409z" fill="#000"/><path d="M27.302 87.976s-.437-1.796-.26-2.434c.175-.637.517-1.456 1.655-1.274 1.138.181 2.48.66 2.48.66s-.068.83-.933.563l.537.415s-.077.665-.808.31l.5.55s-.315.546-.852.197c-.538-.351-.795 1.229-2.32 1.013z" fill="url(#paint9_linear_77_2706)"/><path d="M33.856 82.297a.92.92 0 101.84 0 .92.92 0 00-1.84 0z" fill="#C6EEEF"/><path d="M30.035 82.903l.638-2.165a.742.742 0 01.558-.521c2.001-.418 7.478-.506 7.533-.507l-.004-.245c-.225.004-5.555.09-7.58.512a.987.987 0 00-.742.692l-.639 2.166.236.069z" fill="#74A1BB"/><path d="M111.533 66.618a.207.207 0 01.383.04c.186.67.636 1.838 1.58 2.252l.137.064a.48.48 0 00-.06-.435c-.293-.448.237-1.061.237-1.061s.035.54.445.88c.353.292.523.944.282 1.478-.511 1.985-1.277 4.611 1.705 6.53 2.981 1.918 7.18-3.62 7.18-3.62l-2.084 6.606s-3.216 2.373-6.958-.964c-3.741-3.338-1.261-8.195-1.261-8.195s-2.854-1.151-1.586-3.575z" fill="url(#paint10_linear_77_2706)"/><path d="M123.945 63.039s-.864-3.875 3.574-2.85c0 0 2.155-.351 2.264 1.682 0 0 1.389.915.372 2.675 0 0 4.127-1.594 5.926 2.023 1.798 3.618.145 5.608-1.588 6.127 0 0 1.404.704.74 2.296-.664 1.592-4.03 2.713-6.018.778 0 0-5.657.748-5.543-3.248 0 0-2.631-1.699.132-5 2.763-3.303.141-4.483.141-4.483z" fill="#000"/><path d="M123.701 72.02c.892-.268 3.488-.761 5.958 1.518.419.386.59.974.441 1.524-.663 2.442-2.414 9.659-.879 12.78 0 0-2.705 2.982-5.656.58 0 0-1.323-5.77-3.057-8.303-1.198-1.75 1.909-6.567 2.695-7.731a.92.92 0 01.498-.369z" fill="#C6EEEF"/><path d="M126.163 67.167s1.319 3.731 1.419 5.377c0 0-1.458.663-2.832-.456 0 0-.144-3.727-.352-4.394l1.765-.527z" fill="url(#paint11_linear_77_2706)"/><path d="M124.331 62.08s-3.45 4.828-1.387 6.23c2.062 1.403 4.518-2.028 4.518-2.028s.801-2.642-.036-3.539c-.838-.897-3.095-.663-3.095-.663z" fill="url(#paint12_linear_77_2706)"/><path d="M125.928 60.926s-1.585.376-1.807 1.093c-.223.717 2.248 1.382 2.94 1.415l.557 2.893s1.649-2.722.996-4.294c-.653-1.572-2.686-1.107-2.686-1.107z" fill="#000"/><path d="M126.793 65.927s1.343-1.556 1.877-.542-1.209 1.775-1.812 1.277l-.065-.736z" fill="url(#paint13_linear_77_2706)"/><path d="M120.121 100.536c.01.262-.45 2.34-.7 3.448-.1.446-.03.913.197 1.309l8.668 14.589c.105.177.181.368.227.568.159.685.489 2.363.317 3.889l-.449.931 1.939-.44.422-5.208-.549-.335a2.606 2.606 0 01-1.055-1.235c-.784-1.904-2.73-6.75-3.232-9.112-.57-2.684-3.551-4.865-3.551-4.865l.524-1.238-2.758-2.301z" fill="url(#paint14_linear_77_2706)"/><path d="M132.476 123.038s-1.048-1.66-1.171-2.307c-.123-.646-.466-1.787-1.112-1.444 0 0-.304 3.14-.199 4.367.105 1.226-1.387 1.187-1.387 1.187s-.411.058-.712.359c-.208.207-.059.568.234.587.488.032 1.264.04 2.078-.118a.635.635 0 00.513-.586l.215-3.613 1.321 1.668.22-.1z" fill="#000"/><path d="M125.3 102.86s.305 13.049.347 14.903c.041 1.854-.293 5.961-2.151 7.188l.808.599s1.011-.859 1.998-2.512c1.109-1.856 1.444-2.195 1.444-2.195l-.368-.754a1.653 1.653 0 01-.135-1.063c.401-1.943 1.74-8.407 2.106-9.799.431-1.643.462-3.837-1.039-5.674-1.5-1.836-3.01-.693-3.01-.693z" fill="url(#paint15_linear_77_2706)"/><path d="M127.015 126.138a.113.113 0 00.115-.098c.062-.434.319-2.179.53-2.63.241-.518 1.029-2.695-.001-2.879 0 0-2.56 3.74-3.051 4.245-.492.504-1.112.176-1.112.176s-.479.141-.84.603a.338.338 0 00.267.544l1.725.017c.5.004.951-.3 1.137-.765.304-.758.825-1.87 1.433-2.364l-.316 3.024a.115.115 0 00.113.127zm-3.857-39.124s.388 1.239-.209 3.28l-3.703 12.932a.4.4 0 00.251.487c1.107.398 4.749 1.522 9.72 1.179a.564.564 0 00.515-.439l1.675-7.538c.877-3.939 1.856-8.186-2.451-10.755-1.985.85-3.837 1.351-5.798.855z" fill="#000"/><path d="M130.013 74.025s4.214 3.502 5.259 8.288c1.046 4.785-6.157 5.293-6.157 5.293s-.978-1.091-2.139-.702c-1.161.39-.09-1.906 1.269-1.9 1.358.006.728 1.08 2.65.21 1.872-.848 3.029-3.47-1.747-7.445a2.17 2.17 0 01-.631-.86c-.927-2.335-.192-3.865 1.496-2.884z" fill="url(#paint16_linear_77_2706)"/><path d="M103.645 109.777h-1.503v16.255h1.503v-16.255z" fill="#000"/><path d="M109.476 126.345H96.311v-.87c0-.06.05-.109.109-.109h12.947c.06 0 .108.049.108.109v.87h.001zm2.489-17.167c0 .945-.773 1.718-1.718 1.718H96.093a1.723 1.723 0 01-1.718-1.718v-1.553c0-.945.773-1.718 1.718-1.718h14.154c.945 0 1.718.773 1.718 1.718v1.553zM89.57 121.096s-4.86 2.093-4.58 4.283c0 0 5.022-.963 5.92-2.399.9-1.436.405-2.267.405-2.267l-1.745.383z" fill="#000"/><path d="M90.76 118.703l.247 2.133a.706.706 0 01-.447.749 1.831 1.831 0 01-.615.094.821.821 0 01-.798-.599l-.478-1.725 2.091-.652z" fill="url(#paint17_linear_77_2706)"/><path d="M101.375 102.35s-8.937-.413-13.385 2.18c-4.447 2.593.226 15.04.226 15.04s1.162.25 2.834-.644c0 0-2.387-9.112 1.76-10.697 4.66-1.782 9.483-1.349 9.483-1.349l-.893-4.249-.025-.281zm-15.409 22.067c1.016-.222 4.03-1.471 4.487-1.454.458.017 1.107.702 1.107.702s.111.375-.216.913c-.776.606-2.449 1.717-4.394 1.839-1.43.09-2.291-.48-2.783-1.032a3.992 3.992 0 011.799-.968z" fill="#000"/><path d="M86.95 126.417c1.945-.121 3.617-1.233 4.394-1.838-.221.364-.643.802-1.435 1.249-1.965 1.111-5.213.949-5.857.699-.516-.201-.356-.682.115-1.141.492.552 1.353 1.121 2.783 1.031z" fill="#4F52FF"/><path d="M92.626 122.549c-.066.252-.778 1.008-1.19 1.43a.81.81 0 01-.752.226 2.045 2.045 0 01-.539-.189.525.525 0 01-.203-.714l1.04-1.893 1.644 1.14z" fill="url(#paint18_linear_77_2706)"/><path d="M110.232 101.601s.781 5.534-1.475 6.665c-2.256 1.131-7.203 1.872-8.907 4.742-1.704 2.871-4.764 8.505-7.55 10.124 0 0-1.59-.518-2.055-1.3 0 0 3.306-8.69 4.685-10.803 1.194-1.829 2.94-4.465 5.422-5.604.711-.327.766-1.08.641-1.852l-.227-1.405 9.466-.567z" fill="#000"/><path d="M89.327 95.327c3.163.903 4.578-7.997 4.565-8.214l4.848 5.67s-2.889 5.083-7.25 5.624c-1.105.137-2.043-.054-2.83-.415.58-.95.712-1.889.667-2.665z" fill="#C6EEEF"/><path d="M83.47 92.414c1.38-.567 2.548.563 2.548.563 1.366 1.398 2.45 2.104 3.309 2.35a4.53 4.53 0 01-.668 2.665c-1.704-.781-2.697-2.359-3.106-3.147a.592.592 0 00-.78-.264c-.292.141-.593.357-.612.65-.038.577-.724.61-.728.398-.004-.214.532-1.354.532-1.354s-1.584 1.016-2.2 1.404c-.617.389-1.142-.252-1.142-.252s1.47-2.447 2.848-3.013z" fill="url(#paint19_linear_77_2706)"/><path d="M109.014 83.451s-4.249-2.899-14.513 2.344c0 0-1.057 1.34-.562 2.85.495 1.51 6.589 9.686 6.826 13.523 0 0 4.166 2.452 9.573.021 0 0 1.813-10.133-1.324-18.738z" fill="#C6EEEF"/><path d="M100.165 79.745l1.679 3.29a.935.935 0 01-.097 1.01c-.463.579-1.428 1.357-3.075.855a1.442 1.442 0 01-.984-1.046l-.87-3.673 3.347-.436z" fill="url(#paint20_linear_77_2706)"/><path d="M112.161 94.942c.288-2-4.998-5.877-4.998-5.877l1.851-5.614s10.087 7.199 7.966 13.077c-.304.842-.758 1.456-1.311 1.892-1.069-2.191-2.517-3.101-3.508-3.478z" fill="#C6EEEF"/><path d="M104.787 95.497s5.979 1.67 7.219-.15a.953.953 0 00.155-.405c.991.376 2.44 1.287 3.508 3.477-2.839 2.233-8.313-.27-9.8-1.02a1.051 1.051 0 00-.788-.066c-.529.165-1.446.421-1.957.393-.747-.04-1.549 2.659-2.82 1.975 0 0 .578-4.612 4.483-4.204z" fill="url(#paint21_linear_77_2706)"/><path d="M98.013 74.367c-.053.046-2.269 3.915-3.397 5.887a1.16 1.16 0 00.551 1.642l.489.21c.667.285 2.103.525 2.668.069l3.561-3.76s-2.675-5.085-3.872-4.048z" fill="url(#paint22_linear_77_2706)"/><path d="M102.888 77.39c.437-.245.962-.742.553-1.621-.415-.893-1.237-.971-1.766-.914a.442.442 0 01-.469-.319c-.036-.117-.122-.221-.31-.25a.435.435 0 01-.343-.546c.126-.475.105-1.12-.66-1.582-1.355-.82-2.621.371-2.974 1.407-.353 1.036 1.167 1.843 2.138 2.007.737.126 1.097.977 1.228 1.377a.44.44 0 01-.052.377L99.15 78.97c.298.375.562.77.822 1.17.097-.104.182-.192.249-.253.47-.43 1.306-.208 1.651-.09.113.039.235.03.342-.025.374-.194 1.132-.738.511-1.768a.442.442 0 01.163-.615z" fill="#000"/><path d="M99.578 80.846s.692-1.779 1.479-1.68c.786.1 1.375.912.359 1.755-1.262 1.05-1.838-.075-1.838-.075z" fill="url(#paint23_linear_77_2706)"/><path d="M97.151 99.305h-.032L83.15 99.29a.626.626 0 01.001-1.25l13.97.014a.626.626 0 01.03 1.25z" fill="#000"/><path d="M70.593 86.621h11.633c.858 0 1.64.496 2.006 1.272l5.378 11.404H75.153c-.554 0-1.05-.338-1.253-.852l-4.171-10.553a.929.929 0 01.864-1.27z" fill="#000"/><path d="M78.788 92.469c.252.783.066 1.544-.416 1.699-.482.155-1.077-.354-1.329-1.138-.252-.783-.066-1.544.416-1.699.482-.155 1.078.354 1.33 1.138z" fill="#C6EEEF"/><path d="M72.478 129.266a.593.593 0 01-.231-.047.56.56 0 01-.307-.746l12.31-27.708a.596.596 0 01.772-.298.562.562 0 01.307.747l-12.311 27.708a.588.588 0 01-.54.344z" fill="#74A1BB"/><path d="M86.348 129.266a.588.588 0 01-.54-.344l-12.31-27.708a.562.562 0 01.306-.747.596.596 0 01.771.298l12.311 27.708a.561.561 0 01-.307.746.593.593 0 01-.231.047zm24.239 0a.59.59 0 01-.231-.047.56.56 0 01-.307-.746l12.311-27.708a.596.596 0 01.771-.298.562.562 0 01.307.747l-12.311 27.708a.589.589 0 01-.54.344z" fill="#74A1BB"/><path d="M124.456 129.266a.589.589 0 01-.539-.344l-12.311-27.708a.561.561 0 01.307-.747.596.596 0 01.771.298l12.311 27.708a.562.562 0 01-.307.746.594.594 0 01-.232.047z" fill="#74A1BB"/><path d="M125.901 99.91a.678.678 0 00-.117-.513.532.532 0 00-.427-.225H69.349a.624.624 0 00-.537.329.789.789 0 00-.041.684l.606 1.47c.14.337.44.552.772.552h54.823c.309 0 .574-.244.632-.583l.297-1.715z" fill="#74A1BB"/><defs><linearGradient id="paint0_linear_77_2706" x1="29.335" y1="125.586" x2="31.402" y2="125.606" gradientUnits="userSpaceOnUse"><stop stop-color="#FEBBBA"/><stop offset="1" stop-color="#FF928E"/></linearGradient><linearGradient id="paint1_linear_77_2706" x1="21.887" y1="125.409" x2="23.671" y2="125.426" gradientUnits="userSpaceOnUse"><stop stop-color="#FEBBBA"/><stop offset="1" stop-color="#FF928E"/></linearGradient><linearGradient id="paint2_linear_77_2706" x1="38.354" y1="71.746" x2="48.914" y2="71.846" gradientUnits="userSpaceOnUse"><stop stop-color="#FEBBBA"/><stop offset="1" stop-color="#FF928E"/></linearGradient><linearGradient id="paint3_linear_77_2706" x1="46.578" y1="70.054" x2="39.34" y2="86.108" gradientUnits="userSpaceOnUse"><stop stop-color="#FEBBBA"/><stop offset="1" stop-color="#FF928E"/></linearGradient><linearGradient id="paint4_linear_77_2706" x1="48.931" y1="64.707" x2="51.931" y2="60.189" gradientUnits="userSpaceOnUse"><stop stop-color="#FEBBBA"/><stop offset="1" stop-color="#FF928E"/></linearGradient><linearGradient id="paint5_linear_77_2706" x1="15.106" y1="86.482" x2="28.469" y2="86.609" gradientUnits="userSpaceOnUse"><stop stop-color="#FEBBBA"/><stop offset="1" stop-color="#FF928E"/></linearGradient><linearGradient id="paint6_linear_77_2706" x1="24.93" y1="79.103" x2="29.979" y2="69.302" gradientUnits="userSpaceOnUse"><stop stop-color="#FEBBBA"/><stop offset="1" stop-color="#FF928E"/></linearGradient><linearGradient id="paint7_linear_77_2706" x1="32.075" y1="68.995" x2="26.299" y2="65.397" gradientUnits="userSpaceOnUse"><stop stop-color="#FEBBBA"/><stop offset="1" stop-color="#FF928E"/></linearGradient><linearGradient id="paint8_linear_77_2706" x1="30.536" y1="70.302" x2="25.34" y2="67.065" gradientUnits="userSpaceOnUse"><stop stop-color="#FEBBBA"/><stop offset="1" stop-color="#FF928E"/></linearGradient><linearGradient id="paint9_linear_77_2706" x1="26.999" y1="86.119" x2="31.177" y2="86.119" gradientUnits="userSpaceOnUse"><stop stop-color="#FEBBBA"/><stop offset="1" stop-color="#FF928E"/></linearGradient><linearGradient id="paint10_linear_77_2706" x1="110.26" y1="61.967" x2="121.469" y2="79.931" gradientUnits="userSpaceOnUse"><stop stop-color="#FEBBBA"/><stop offset="1" stop-color="#FF928E"/></linearGradient><linearGradient id="paint11_linear_77_2706" x1="124.065" y1="74.393" x2="126.167" y2="69.726" gradientUnits="userSpaceOnUse"><stop stop-color="#FEBBBA"/><stop offset="1" stop-color="#FF928E"/></linearGradient><linearGradient id="paint12_linear_77_2706" x1="123.957" y1="63.051" x2="128.222" y2="72.285" gradientUnits="userSpaceOnUse"><stop stop-color="#FEBBBA"/><stop offset="1" stop-color="#FF928E"/></linearGradient><linearGradient id="paint13_linear_77_2706" x1="125.964" y1="62.124" x2="130.228" y2="71.358" gradientUnits="userSpaceOnUse"><stop stop-color="#FEBBBA"/><stop offset="1" stop-color="#FF928E"/></linearGradient><linearGradient id="paint14_linear_77_2706" x1="135.858" y1="132.514" x2="120.2" y2="104.253" gradientUnits="userSpaceOnUse"><stop stop-color="#FEBBBA"/><stop offset="1" stop-color="#FF928E"/></linearGradient><linearGradient id="paint15_linear_77_2706" x1="118.009" y1="111.548" x2="141.752" y2="119.389" gradientUnits="userSpaceOnUse"><stop stop-color="#FEBBBA"/><stop offset="1" stop-color="#FF928E"/></linearGradient><linearGradient id="paint16_linear_77_2706" x1="134.354" y1="88.913" x2="111.912" y2="55.639" gradientUnits="userSpaceOnUse"><stop stop-color="#FEBBBA"/><stop offset="1" stop-color="#FF928E"/></linearGradient><linearGradient id="paint17_linear_77_2706" x1="91.15" y1="120.378" x2="88.569" y2="119.807" gradientUnits="userSpaceOnUse"><stop stop-color="#FEBBBA"/><stop offset="1" stop-color="#FF928E"/></linearGradient><linearGradient id="paint18_linear_77_2706" x1="92.489" y1="123.173" x2="90.067" y2="122.637" gradientUnits="userSpaceOnUse"><stop stop-color="#FEBBBA"/><stop offset="1" stop-color="#FF928E"/></linearGradient><linearGradient id="paint19_linear_77_2706" x1="89.414" y1="95.751" x2="80.965" y2="93.88" gradientUnits="userSpaceOnUse"><stop stop-color="#FEBBBA"/><stop offset="1" stop-color="#FF928E"/></linearGradient><linearGradient id="paint20_linear_77_2706" x1="102.092" y1="82.921" x2="96.486" y2="81.68" gradientUnits="userSpaceOnUse"><stop stop-color="#FEBBBA"/><stop offset="1" stop-color="#FF928E"/></linearGradient><linearGradient id="paint21_linear_77_2706" x1="106.544" y1="96.933" x2="128.806" y2="128.107" gradientUnits="userSpaceOnUse"><stop stop-color="#FEBBBA"/><stop offset="1" stop-color="#FF928E"/></linearGradient><linearGradient id="paint22_linear_77_2706" x1="98.99" y1="75.736" x2="96.173" y2="88.947" gradientUnits="userSpaceOnUse"><stop stop-color="#FEBBBA"/><stop offset="1" stop-color="#FF928E"/></linearGradient><linearGradient id="paint23_linear_77_2706" x1="100.098" y1="88.328" x2="100.795" y2="80.11" gradientUnits="userSpaceOnUse"><stop stop-color="#FEBBBA"/><stop offset="1" stop-color="#FF928E"/></linearGradient></defs></svg>