<svg width="122" height="109" fill="none" xmlns="http://www.w3.org/2000/svg"><path d="M44.114 75.865l13.88-27.063c1.177-2.294.056-3.972-2.71-4.44l-3.105-.526c-4.01-.679-5.5-2.609-4.228-4.943l2.248-3.067 4.752.139-.742 1.902c-.483 1.237.496 2.21 2.677 2.538l2.918.44c4.67.705 7 3.339 5.602 7.173l-6.32 25.336-14.971 2.51z" fill="#C6EEEF"/><path d="M52.335 34.401l-5.106 2.121 10.212-.338-5.106-1.783zM41.704 87.332L88.257 58.62c3.667-2.035 8.003-2.84 11.336-2.28l3.706.62c4.727.794 9.452-.06 12.416-1.984l4.141-2.31-4.958-1.61-2.609 1.38c-1.74.92-4.274 1.24-6.702.78l-3.276-.62c-5.302-1.004-13.212-1.558-19.895 1.435L28.01 82.552l13.693 4.78z" fill="#C6EEEF"/><path d="M111.615 50.584l7.167-.584 2.222 3.815-9.389-3.231z" fill="#C6EEEF"/><path d="M37.328 108.372H0l102.291-89.565 5.877.754-70.84 88.811z" fill="#597B8E"/><path d="M97.69 19.395l10.13-2.663 2.783 4.322-12.913-1.659z" fill="#597B8E"/><path d="M99.811 101.863c-1.53.911-3.122 1.714-4.708 2.521 1.635-.536 8.555-3.09 8.669.619.004.133-.001.26-.017.382-.325 2.66-5.048 2.613-6.895 2.612-2.253-.003-4.465.032-6.686-.101a39.604 39.604 0 01-1.657-.135 28.428 28.428 0 01-1.11-.133l-.171-.097c-.284.044-.565.084-.846.12a32.088 32.088 0 01-2.957.272 28.948 28.948 0 01-7.428-.577c-1.73-.36-3.463-.945-4.88-2.031-1.25-.961-3.58-3.998-2.149-5.647.09-.106.197-.204.32-.297 1.83-1.384 5.077 1.371 6.472 2.352.339.239 1.742 1.522 2.218 1.367.435-.141-.111-.687-.314-.935-1.52-1.859-3.73-3.022-5.23-4.907-1.284-1.614-2.627-5.058-.727-6.764.213-.19.429-.322.648-.4 2.268-.812 4.849 3.901 5.609 5.248.86 1.523 1.556 3.186 2.556 4.626.392.565.926 1.272 1.372.427.513-.973.127-2.706-.06-3.707-.315-1.694-.905-3.31-1.549-4.903-1.041-2.584-2.39-5.635.23-7.756.665-.54 1.592-.98 2.585-1.277 2.013-.593 4.295-.287 5.217 1.659.728 1.532.34 3.45.014 5.031-.4 1.94-.977 3.86-1.169 5.837-.106 1.109-.228 2.781.566 3.704.534.623 1.093.443 1.443-.244.56-1.103.399-2.66.431-3.852.045-1.681.122-3.421.796-4.987.736-1.71 3.35-4 5.435-3.411.422.118.822.354 1.18.737 2.14 2.282-1.887 7.247-3.014 9.147-.765 1.293-1.831 2.804-2.09 4.32-.15.887.235.997.915.491 1.194-.89 2.088-2.304 3.013-3.449 1.19-1.472 2.43-2.98 3.994-4.074 1.547-1.081 4.5-1.764 5.544-.048.207.342.339.779.369 1.325.175 3.171-3.61 5.549-5.939 6.935z" fill="#74FCFD"/><path opacity=".5" d="M95.838 86.478c-.172.21-.363.425-.574.647-3.28 3.453-3.367 5.611-4.749 11.31a198.167 198.167 0 00-1.998 9.327 30.3 30.3 0 01-1.11-.134l-.172-.097a36.92 36.92 0 01-.846.121c.126-1.255.003-3.352-1.83-4.727-2.763-2.072-1.555-6.39-.864-8.98.69-2.59 0-4.157-1.468-6.833-.816-1.488-.004-3.185.878-4.37h.001c2.013-.593 4.295-.287 5.217 1.659.728 1.532.34 3.45.014 5.031-.4 1.94-.978 3.86-1.17 5.837-.106 1.109-.227 2.781.567 3.704.533.623 1.093.443 1.442-.244.561-1.103.4-2.66.432-3.852.045-1.681.121-3.422.796-4.987.736-1.71 3.35-4 5.434-3.412zm3.973 15.385c-1.53.911-3.122 1.714-4.708 2.521 1.635-.536 8.555-3.09 8.669.619.004.133-.001.26-.017.382-.751.071-1.547.001-2.177-.411-1.684-1.101-1.846.389-3.465.907-1.618.518-4.435-.195-5.957.906a9.564 9.564 0 01-1.982 1.109 39.604 39.604 0 01-.768-.053c.29-.94 1.27-3.539 3.44-4.66 2.678-1.382 4.145-1.813 5.009-4.662.755-2.492 3.822-4.785 7.526-4.919.207.342.339.779.369 1.325.176 3.172-3.61 5.55-5.939 6.936zm-14.238 5.889c-.72.081-1.432.139-2.14.171-.11-.508.697-1.177-1.543-1.654-3.656-.777-5.746.678-7.152-2.784-1.058-2.603-3.675-4.296-5.762-3.817.09-.106.197-.204.32-.297 1.83-1.384 5.076 1.371 6.471 2.353.34.238 1.742 1.521 2.219 1.366.435-.141-.112-.687-.314-.935-1.52-1.859-3.731-3.022-5.23-4.907-1.284-1.614-2.627-5.058-.727-6.764.212-.19.429-.322.647-.4-.093 1.636.152 4.356 2.44 5.954 3.432 2.396 4.015 4.403 4.144 5.698.121 1.211 5.5 2.195 6.627 6.016z" fill="#fff"/><path d="M23.991 43.379s-8.944 3.556-7.915 9.317c1.028 5.761 7.175 11.008 8.77 9.67 1.286-2.314 1.236-1.8.374-3.24-.863-1.44-5.132-5.453-.349-7.716 4.784-2.263-.88-8.031-.88-8.031z" fill="#74A1BB"/><path d="M22.354 99.184c-.056-.308-1.053-.588-1.546-.174-.245.205-.414.621-.272.81.052.067-.16.188.043.19.67.008 1.831-.52 1.775-.826z" fill="url(#paint0_linear_77_3036)"/><path d="M21.31 99.297l-1.026-.145c.475-.572.387-2.393.387-2.393l1.09.244s-.124.5-.335 1.237c-.072.252-.105.647-.117 1.057z" fill="url(#paint1_linear_77_3036)"/><path d="M21.4 99.17s-1.234-.284-1.367-.04c-.134.246-.238.901.545.88.784-.02.892-.632.822-.84z" fill="url(#paint2_linear_77_3036)"/><path d="M36.42 100.342c-.099-.298-1.125-.435-1.556.043-.214.238-.322.673-.156.84.061.06-.131.208.07.183.665-.086 1.74-.771 1.642-1.066z" fill="url(#paint3_linear_77_3036)"/><path d="M35.401 100.599h-1.035c.39-.632.048-2.423.048-2.423l1.114.089s-.053.512-.159 1.271c-.037.26-.013.656.032 1.063z" fill="url(#paint4_linear_77_3036)"/><path d="M38.084 61.448a47.937 47.937 0 011.606 7.347c1.257 9.147-1.416 9.44-.916 19.576.16 3.235-2.803 10.697-3.064 10.861a2.997 2.997 0 01-.41.016 4.092 4.092 0 01-1.043-.173c-.47-.081-2.162-4.664-1.77-7.389.278-1.928.197-3.998.036-8.137-.026-.671-1.742-13.05-1.742-13.05a202.572 202.572 0 01-1.642 11.494c-1.672 9.697-7.109 15.567-7.392 15.66-.056.023-.566.209-.983-.066a.68.68 0 01-.249-.28c-.145-.114.043-9.682 1.701-16.883 2.407-10.451 1.359-12.897 2.121-17.565.66-4.04 13.747-1.411 13.747-1.411z" fill="#000"/><path d="M38.728 63.026c-1.444.744-5.167 2.07-9.603 1.412a14.996 14.996 0 01-4.788-1.578c1.15-3.484.247-5.35-.18-7.07-.605-2.45-.617-2.266-1.116-4.212-.825-3.213-.96-6.497-.394-7.167 1.18-1.4 3.093-1.757 4.562-1.865a24.16 24.16 0 011.153-.053c.818-.025 2.181-.184 3.588-.092 1.34.092 2.72.412 3.706 1.301.035.03-.38.253-.175.49.188.224.838 1 1.428 2.05.428.762.813 1.649 1.202 2.97.684 2.331.882 4.316.946 5.182.371 4.862.003 7.108-.329 8.632z" fill="#74A1BB"/><path d="M35.474 100.462s-1.262-.109-1.36.152c-.098.261-.109.924.664.794.772-.131.793-.751.696-.946z" fill="url(#paint5_linear_77_3036)"/><path d="M29.412 40.21c-.226-.135-.399.157-.292.411.107.255.465.414.682.262.218-.152-.085-.49-.39-.672z" fill="url(#paint6_linear_77_3036)"/><path d="M32.22 42.758c0 .44-1.142.797-2.554.797-1.409 0-2.551-.357-2.551-.797 0-.073.032-.145.094-.212a24.16 24.16 0 011.154-.053c.817-.025 2.18-.184 3.588-.092.173.109.27.23.27.357z" fill="url(#paint7_linear_77_3036)"/><path d="M30.352 42.417l-.443-.997c.13-.127.975-.76.957-1.475-.023-.972-.796-1.714-.948-1.863-.634-.623-.77-.694-1.003-.764l-.32-.083s-.017-.002-.035-.002c-.192-.008-.785.154-.896.216-.356.198-.285 1.872.504 4.028a17.668 17.668 0 00.31 1.861s1.455.062 1.874-.92z" fill="url(#paint8_linear_77_3036)"/><path d="M29.552 36.901c.206.68-.25.972-.377 1.138a1.173 1.173 0 00-.164.345.356.356 0 00-.014.092c-.017.473.818.768.745 1-.052.168-.571.125-.59.261-.017.129.44.245.422.398-.013.116-.278.095-.38.297-.05.1-.009.156-.015.418-.003.149-.02.315-.043.412-.112.47-.732.82-.91.7-.048-.033-.03-.08-.111-.218 0 0-.076-.128-.222-.258-.207-.187-.59-.248-.998-.386-.757-.257-1.043-.586-1.133-.698-.031-.04-.053-.072-.069-.094-.315-.451-.541-1.186-.455-1.707.144-.873 1.105-.775 1.57-1.739.26-.537.416-1.1 1.04-1.32.487-.173.935.001 1.226.414.19.272.38.626.478.945z" fill="#26264F"/><path d="M29.45 39.39c-.238-.177-.464.128-.375.424.089.296.47.516.73.372.261-.144-.037-.556-.356-.795z" fill="url(#paint9_linear_77_3036)"/><path d="M31.622 35.87l-1.05-.648s-.975-.442-2.043.26c-1.068.703-.61 1.212-.61 1.212l.785-.355s.506-.232 1.29.115c.904.262 1.533.197 1.533.197l.095-.78z" fill="url(#paint10_linear_77_3036)"/><path d="M36.54 34.955c-2.228-.75-4.306-.593-5.375-.446-.207.26-.5.707-.527 1.272-.114 2.46 5.015 3.305 5.151 5.589.091 1.523-2.154 1.745-3.384 5.038-.59 1.581-.346 2.262.049 2.65.625.617 1.765.632 2.112.636 3.012.04 7.562-2.948 7.959-6.958.333-3.358-2.331-6.552-5.985-7.781z" fill="#74A1BB"/><path d="M47.957 4.74v16.766c0 2.442-2.023 4.383-4.544 4.328l-9.486-.206-1.267-.027-4.546 5.436c-.347.262-1.173.264-1.448-.072l-.67-.893-3.506-4.692-.33-.008-9.078-.194c-.986-.023-1.828-.387-2.53-.984-.93-.786-1.458-1.973-1.44-3.287l.222-15.864C9.366 2.764 11.168.89 13.444.86l1.924-.028L43.502.448a4.457 4.457 0 011.877.38c1.543.673 2.578 2.162 2.578 3.913z" fill="url(#paint11_linear_77_3036)"/><path d="M47.3 4.284l-.005 16.725c0 2.436-2.093 4.37-4.602 4.318l-8.979-.18-1.788-.037-4.53 5.179a.805.805 0 01-1.232-.02l-.165-.197-3.838-4.7-.383-.47-9.37-.19a3.968 3.968 0 01-1.883-.52c-1.308-.723-2.149-2.136-2.126-3.74l.224-15.828C8.656 2.348 10.477.478 12.748.446l2.21-.033L42.704.001a4.676 4.676 0 012.747.83c1.096.775 1.848 2.03 1.847 3.453z" fill="#74FCFD"/><path opacity=".3" d="M33.944 25.628l-1.276-.027-4.55 5.436c-.347.262-1.175.265-1.45-.072l-.67-.893-3.837-4.7-9.079-.194a4.038 4.038 0 01-2.557-.984c-1.308-.724-2.149-2.137-2.126-3.74l.225-15.83C8.656 2.35 10.478.48 12.748.448l2.21-.033c.137.133.261.271.39.418 1.454 1.637 2.467 4 2.24 7.419-.675 10.226 6.25 12.053 12.425 14.102 1.898.63 3.025 1.666 3.68 2.794.093.158.175.319.252.481z" fill="#7CD4D5"/><path d="M24.612 15.971l.002-.942c.002-.816.171-1.526.51-2.13.34-.607.964-1.255 1.877-1.948.886-.655 1.475-1.19 1.761-1.602.288-.413.433-.873.435-1.38.003-.567-.2-.995-.609-1.282-.407-.286-.974-.42-1.698-.4-1.254.032-2.668.488-4.235 1.358l-1.317-2.753c1.804-1.127 3.75-1.737 5.84-1.82 1.75-.068 3.158.314 4.209 1.15 1.059.844 1.587 2 1.577 3.465-.007.975-.232 1.818-.676 2.53-.441.707-1.272 1.5-2.483 2.376-.823.615-1.341 1.08-1.558 1.4-.217.317-.326.735-.328 1.251l-.003.775-3.304-.048zm-.4 4.33c.002-.708.186-1.239.555-1.593.37-.355.91-.525 1.623-.508.691.017 1.229.218 1.61.605.382.388.572.934.57 1.639-.004.677-.2 1.204-.589 1.578-.387.374-.923.545-1.604.517-.694-.03-1.228-.24-1.604-.63-.375-.39-.561-.925-.56-1.608z" fill="#fff"/><defs><linearGradient id="paint0_linear_77_3036" x1="22.908" y1="98.293" x2="20.713" y2="99.752" gradientUnits="userSpaceOnUse"><stop stop-color="#444B8C"/><stop offset=".996" stop-color="#26264F"/></linearGradient><linearGradient id="paint1_linear_77_3036" x1="20.784" y1="99.766" x2="21.264" y2="96.369" gradientUnits="userSpaceOnUse"><stop stop-color="#FFC444"/><stop offset=".996" stop-color="#F36F56"/></linearGradient><linearGradient id="paint2_linear_77_3036" x1="22.743" y1="98.045" x2="20.548" y2="99.504" gradientUnits="userSpaceOnUse"><stop stop-color="#444B8C"/><stop offset=".996" stop-color="#26264F"/></linearGradient><linearGradient id="paint3_linear_77_3036" x1="36.843" y1="99.382" x2="34.874" y2="101.134" gradientUnits="userSpaceOnUse"><stop stop-color="#444B8C"/><stop offset=".996" stop-color="#26264F"/></linearGradient><linearGradient id="paint4_linear_77_3036" x1="34.947" y1="101.137" x2="34.947" y2="97.707" gradientUnits="userSpaceOnUse"><stop stop-color="#FFC444"/><stop offset=".996" stop-color="#F36F56"/></linearGradient><linearGradient id="paint5_linear_77_3036" x1="36.645" y1="99.16" x2="34.677" y2="100.911" gradientUnits="userSpaceOnUse"><stop stop-color="#444B8C"/><stop offset=".996" stop-color="#26264F"/></linearGradient><linearGradient id="paint6_linear_77_3036" x1="29.049" y1="39.294" x2="30.646" y2="44.19" gradientUnits="userSpaceOnUse"><stop stop-color="#FFC444"/><stop offset=".996" stop-color="#F36F56"/></linearGradient><linearGradient id="paint7_linear_77_3036" x1="29.041" y1="37.103" x2="31.61" y2="60.277" gradientUnits="userSpaceOnUse"><stop stop-color="#FFC444"/><stop offset=".996" stop-color="#F36F56"/></linearGradient><linearGradient id="paint8_linear_77_3036" x1="28.934" y1="37.115" x2="31.503" y2="60.289" gradientUnits="userSpaceOnUse"><stop stop-color="#FFC444"/><stop offset=".996" stop-color="#F36F56"/></linearGradient><linearGradient id="paint9_linear_77_3036" x1="29.173" y1="37.088" x2="31.743" y2="60.262" gradientUnits="userSpaceOnUse"><stop stop-color="#FFC444"/><stop offset=".996" stop-color="#F36F56"/></linearGradient><linearGradient id="paint10_linear_77_3036" x1="28.232" y1="35.672" x2="31.312" y2="36.524" gradientUnits="userSpaceOnUse"><stop stop-color="#FFC444"/><stop offset=".996" stop-color="#F36F56"/></linearGradient><linearGradient id="paint11_linear_77_3036" x1="19.081" y1="-2.319" x2="34.804" y2="22.96" gradientUnits="userSpaceOnUse"><stop stop-color="#311944"/><stop offset="1" stop-color="#893976"/></linearGradient></defs></svg>