<svg width="117" height="118" fill="none" xmlns="http://www.w3.org/2000/svg"><path opacity=".3" d="M81.796 20.107a.447.447 0 01-.444-.4 17.922 17.922 0 01-.094-1.52.447.447 0 01.438-.454h.009c.242 0 .441.194.446.437.01.482.039.967.089 1.444a.447.447 0 01-.444.493zm.028-3.89c-.018 0-.035 0-.053-.002a.447.447 0 01-.39-.496c.059-.503.14-1.008.242-1.502a.447.447 0 01.874.18c-.096.469-.174.949-.23 1.427a.446.446 0 01-.443.394zm.885-3.785a.447.447 0 01-.42-.597c.169-.476.361-.95.571-1.41a.447.447 0 01.813.37c-.2.437-.383.888-.544 1.34a.447.447 0 01-.42.297zm1.71-3.495a.446.446 0 01-.376-.687c.271-.426.565-.845.872-1.247a.447.447 0 01.71.543c-.292.381-.571.78-.83 1.185a.448.448 0 01-.377.206zm2.444-3.025a.446.446 0 01-.314-.764c.36-.354.738-.698 1.127-1.022a.446.446 0 11.572.686c-.37.308-.73.635-1.072.972a.445.445 0 01-.313.128zm3.054-2.409a.447.447 0 01-.237-.825c.43-.267.875-.518 1.326-.748a.447.447 0 01.405.796c-.428.218-.851.457-1.26.71a.44.44 0 01-.234.067zm16.36-1.063a.452.452 0 01-.185-.04c-.437-.198-.888-.38-1.341-.54a.446.446 0 11.298-.842c.477.169.953.36 1.412.57a.446.446 0 01-.184.853zm-12.85-.608a.447.447 0 01-.146-.868c.477-.165.968-.311 1.458-.434a.447.447 0 01.218.866c-.465.117-.931.256-1.385.412a.457.457 0 01-.146.024zm9.15-.59a.466.466 0 01-.09-.01 16.98 16.98 0 00-1.429-.227.447.447 0 01.103-.887c.503.058 1.009.139 1.504.24a.447.447 0 01-.088.883zM97.221.986a.446.446 0 01-.047-.89A17.947 17.947 0 0198.693 0h.01a.446.446 0 01.009.893c-.481.01-.966.04-1.444.092a.47.47 0 01-.047.002zm11.78 3.004a.442.442 0 01-.254-.08 17.39 17.39 0 00-.579-.385.447.447 0 01.48-.753c.205.13.41.267.609.405a.448.448 0 01-.256.813zm7.253 11.518a.447.447 0 01-.44-.376 16.4 16.4 0 00-.124-.684.447.447 0 11.875-.178c.048.24.092.482.131.721a.446.446 0 01-.442.517zM99.105 35.66c-.206 0-.412-.003-.619-.01a.446.446 0 11.03-.893c.478.016.955.013 1.424-.01a.447.447 0 01.044.892c-.29.014-.586.021-.88.021zm-2.963-.25a.464.464 0 01-.076-.006 17.82 17.82 0 01-1.465-.315.446.446 0 11.224-.864c.457.118.925.218 1.391.298a.447.447 0 01-.074.887zm6.175-.049a.447.447 0 01-.083-.885c.464-.087.93-.196 1.386-.322a.447.447 0 01.239.86c-.48.133-.971.247-1.459.34a.474.474 0 01-.083.007zm-9.855-1.008a.448.448 0 01-.17-.034 17.82 17.82 0 01-1.36-.628.447.447 0 01.409-.794c.42.216.854.417 1.291.597a.446.446 0 01-.17.86zm13.512-.111a.446.446 0 01-.177-.857c.433-.187.864-.395 1.281-.618a.446.446 0 11.421.786 17.59 17.59 0 01-1.348.652.45.45 0 01-.177.037zm3.323-1.895a.446.446 0 01-.262-.808c.382-.278.757-.575 1.115-.884a.446.446 0 11.583.676c-.376.325-.771.638-1.174.93a.44.44 0 01-.262.086zm2.832-2.575a.446.446 0 01-.335-.742c.313-.355.615-.726.896-1.105a.447.447 0 01.717.533c-.297.399-.614.79-.944 1.163a.442.442 0 01-.334.151zm2.202-3.13a.446.446 0 01-.391-.661c.228-.416.441-.844.632-1.276a.447.447 0 01.816.362 17.8 17.8 0 01-.666 1.343.446.446 0 01-.391.231zm1.462-3.54a.446.446 0 01-.429-.57c.13-.453.243-.918.335-1.382a.447.447 0 01.876.174c-.097.488-.216.978-.353 1.455a.448.448 0 01-.429.323zm.648-3.77a.447.447 0 01-.447-.473 17.426 17.426 0 00.028-1.424.447.447 0 01.437-.457c.249-.01.451.19.456.437a17.373 17.373 0 01-.029 1.497.446.446 0 01-.445.42zM89.097 32.505a.447.447 0 01-.257-.08 17.75 17.75 0 01-.59-.434.446.446 0 11.544-.71c.184.142.372.28.56.413a.446.446 0 01-.257.811z" fill="#C6EEEF"/><path d="M89.7 27.327c.056.07.15.095.233.064l2.384-.876a11.11 11.11 0 003.156 1.7l.581 2.47a.21.21 0 00.182.16l3.031.306a.208.208 0 00.21-.12l1.065-2.303a11.068 11.068 0 003.433-1.033l2.159 1.337a.21.21 0 00.242-.016l2.36-1.925a.208.208 0 00.064-.234l-.877-2.384a11.066 11.066 0 001.7-3.156l2.47-.581a.208.208 0 00.16-.182l.307-3.031a.208.208 0 00-.12-.21l-2.304-1.065a11.097 11.097 0 00-1.032-3.433l1.337-2.16a.21.21 0 00-.016-.241l-1.926-2.36a.21.21 0 00-.234-.064l-2.384.876a11.074 11.074 0 00-3.155-1.7l-.582-2.47a.209.209 0 00-.182-.16l-3.03-.306a.208.208 0 00-.211.12l-1.065 2.303c-1.21.158-2.367.512-3.433 1.033l-2.159-1.337a.209.209 0 00-.242.015l-2.36 1.926a.209.209 0 00-.064.234l.877 2.384a11.074 11.074 0 00-1.7 3.156l-2.47.581a.208.208 0 00-.16.182l-.307 3.031a.21.21 0 00.12.21l2.304 1.066c.157 1.21.512 2.366 1.032 3.432l-1.337 2.16a.21.21 0 00.016.241l1.926 2.36z" fill="#C6EEEF"/><path d="M99.097 20.753a3.066 3.066 0 01-3.027-2.616 3.065 3.065 0 012.583-3.476 3.04 3.04 0 012.272.572 3.04 3.04 0 011.203 2.011 3.065 3.065 0 01-3.031 3.509zm.007-5.41a2.35 2.35 0 00-2.328 2.69 2.35 2.35 0 002.665 1.981 2.351 2.351 0 001.981-2.665 2.333 2.333 0 00-.923-1.542 2.327 2.327 0 00-1.395-.464z" fill="#74A1BB"/><path d="M99.16 25.176a7.695 7.695 0 01-2.196-.322l-.016-.005-.044-.014-.086-.027a.178.178 0 01-.115-.225.179.179 0 01.225-.115 7.174 7.174 0 009.391-6.836 7.118 7.118 0 00-1.616-4.52 7.125 7.125 0 00-4.834-2.601c-3.936-.398-7.46 2.478-7.858 6.412a7.147 7.147 0 00.64 3.766.178.178 0 11-.323.151 7.512 7.512 0 01-.673-3.953c.418-4.131 4.12-7.15 8.25-6.732a7.479 7.479 0 015.074 2.73 7.476 7.476 0 011.657 5.52 7.477 7.477 0 01-2.73 5.074 7.472 7.472 0 01-4.747 1.697z" fill="#74A1BB"/><path opacity=".3" d="M66.56 31.872a.275.275 0 01-.264-.198 11.417 11.417 0 01-.178-.682.276.276 0 01.537-.124c.05.218.107.437.17.651a.276.276 0 01-.264.353zm-.408-2.082a.276.276 0 01-.274-.247 12.02 12.02 0 01-.06-1.466.285.285 0 01.282-.27.275.275 0 01.27.281 11.685 11.685 0 00.057 1.4.275.275 0 01-.247.302h-.028zm.06-2.862c-.012 0-.026 0-.039-.002a.276.276 0 01-.234-.313c.07-.483.17-.967.298-1.437a.276.276 0 11.532.145c-.122.448-.217.91-.284 1.37a.275.275 0 01-.272.237zm.754-2.762a.276.276 0 01-.255-.38c.186-.452.402-.896.642-1.321a.275.275 0 11.48.271c-.229.405-.435.83-.612 1.26a.277.277 0 01-.255.17zm1.409-2.492a.275.275 0 01-.221-.44c.291-.394.609-.771.945-1.124a.276.276 0 01.4.38c-.32.337-.624.697-.902 1.072a.277.277 0 01-.222.111zM70.35 19.6a.276.276 0 01-.175-.49 11.98 11.98 0 011.19-.859.275.275 0 11.294.466c-.392.249-.774.525-1.135.82a.275.275 0 01-.174.063zm2.418-1.531a.275.275 0 01-.118-.525c.441-.209.9-.392 1.363-.544a.276.276 0 01.172.524c-.442.145-.879.32-1.3.518a.269.269 0 01-.117.027zm2.718-.893a.276.276 0 01-.053-.546c.477-.094.967-.159 1.455-.193a.276.276 0 01.039.55c-.466.033-.933.095-1.388.184a.258.258 0 01-.053.005zm4.281-.035a.27.27 0 01-.048-.004 11.377 11.377 0 00-1.391-.16.276.276 0 01-.261-.289.273.273 0 01.29-.261l.192.012c.425.03.851.082 1.266.156a.275.275 0 01-.048.546zM77.888 40.23a.275.275 0 01-.003-.552c.458-.006.92-.04 1.373-.101.15-.019.29.085.31.236a.276.276 0 01-.236.31c-.475.064-.96.1-1.44.107h-.004zm-1.409-.068c-.01 0-.02 0-.03-.002a12.075 12.075 0 01-1.423-.24.275.275 0 01.124-.537c.446.103.903.18 1.358.23a.275.275 0 01-.029.55zm4.2-.31a.276.276 0 01-.07-.542c.444-.117.884-.262 1.309-.43a.275.275 0 11.203.512 11.96 11.96 0 01-1.372.451.295.295 0 01-.07.009zm-6.944-.326a.277.277 0 01-.095-.016 11.861 11.861 0 01-1.324-.577.275.275 0 11.25-.491 11.4 11.4 0 001.263.55.276.276 0 01-.094.534zm9.56-.714a.276.276 0 01-.133-.518c.402-.22.794-.465 1.167-.732a.276.276 0 11.32.449c-.39.279-.802.537-1.222.767a.277.277 0 01-.132.034zm2.29-1.638a.275.275 0 01-.187-.48c.338-.309.66-.642.958-.989a.276.276 0 01.419.359c-.312.364-.65.713-1.004 1.038a.272.272 0 01-.186.072zm1.832-2.14a.276.276 0 01-.23-.428c.255-.381.488-.782.693-1.19a.276.276 0 11.493.248c-.216.428-.46.848-.726 1.248a.275.275 0 01-.23.123zm-16.202 3.205a.276.276 0 01-.154-.048 11.42 11.42 0 01-.573-.412.276.276 0 01.336-.438c.176.135.359.267.546.393a.276.276 0 01-.155.505z" fill="#C6EEEF"/><path d="M71.444 34.677a.14.14 0 00.156.042l1.595-.586c.629.484 1.34.871 2.112 1.137l.389 1.653a.14.14 0 00.122.107l2.028.205a.14.14 0 00.14-.08l.713-1.542a7.406 7.406 0 002.297-.69l1.445.894a.14.14 0 00.162-.01l1.58-1.289a.14.14 0 00.042-.156l-.586-1.595a7.393 7.393 0 001.137-2.112l1.653-.389a.14.14 0 00.107-.122l.205-2.028a.14.14 0 00-.08-.14l-1.541-.713a7.406 7.406 0 00-.69-2.297l.893-1.445a.14.14 0 00-.01-.162l-1.289-1.58a.14.14 0 00-.156-.042l-1.595.587a7.392 7.392 0 00-2.112-1.137l-.389-1.654a.14.14 0 00-.122-.107l-2.028-.205a.14.14 0 00-.14.08l-.713 1.542a7.406 7.406 0 00-2.297.69l-1.445-.894a.14.14 0 00-.162.01l-1.579 1.289a.14.14 0 00-.043.156l.587 1.595a7.391 7.391 0 00-1.137 2.112l-1.654.389a.14.14 0 00-.106.122l-.206 2.028a.14.14 0 00.08.14l1.542.713c.105.81.342 1.584.69 2.297l-.894 1.445a.14.14 0 00.01.162l1.29 1.58z" fill="#C6EEEF"/><path d="M77.73 30.314c-.445 0-.877-.141-1.24-.412a2.088 2.088 0 01.94-3.737 2.09 2.09 0 012.368 1.76 2.07 2.07 0 01-.39 1.548 2.07 2.07 0 01-1.678.841zm.005-3.62a1.536 1.536 0 00-.916 2.765c.33.245.733.346 1.14.287.405-.06.763-.274 1.007-.603a1.53 1.53 0 00.287-1.139 1.538 1.538 0 00-1.518-1.31z" fill="#74A1BB"/><path d="M77.77 33.393a5.31 5.31 0 01-1.565-.239l-.046-.015a.276.276 0 11.17-.524c.314.101.639.17.968.203l.054.005a4.599 4.599 0 003.317-1.001l.008-.006.024-.02a4.613 4.613 0 001.708-3.607 4.61 4.61 0 00-1.046-2.926 4.613 4.613 0 00-3.13-1.684 4.618 4.618 0 00-3.403 1.022 4.613 4.613 0 00-1.707 3.6c0 .68.149 1.352.438 1.968a.276.276 0 01-.5.234 5.179 5.179 0 01-.463-2.727 5.16 5.16 0 011.884-3.502 5.155 5.155 0 013.807-1.143c1.38.14 2.624.809 3.501 1.884a5.156 5.156 0 011.144 3.807 5.201 5.201 0 01-5.164 4.67z" fill="#74A1BB"/><path d="M51.956 113.209H8.246v-60.83a5.785 5.785 0 015.785-5.786h37.254a5.785 5.785 0 015.786 5.786v55.715a5.115 5.115 0 01-5.115 5.115z" fill="#000"/><path d="M49.757 113.209H.932V48.293a1.7 1.7 0 011.7-1.7h45.425a1.7 1.7 0 011.7 1.7v64.916z" fill="#C6EEEF"/><path d="M101.509 88.245s-6.263-1.049-6.604-1.049H77.471a2.122 2.122 0 00-2.116 2.116v1.913c0 1.164.952 2.116 2.116 2.116h17.434c.165 0 .325-.021.478-.057 2.042-.338 4.084-2.016 6.126-5.039z" fill="#74A1BB"/><path d="M101.441 88.503c23.763-56.467-20.259-56.516-14.776-3.079l14.776 3.079z" fill="#597B8E"/><path d="M99.805 87.962c23.763-57.544-21.533-56.005-16.05-1.548l16.05 1.548z" fill="#74A1BB"/><path d="M88.235 91.77h-1.851v20.02h1.851V91.77z" fill="#597B8E"/><path d="M95.417 112.176H79.202v-1.085a.12.12 0 01.12-.12h15.966a.13.13 0 01.13.13v1.075h-.001z" fill="#597B8E"/><path d="M77.494 109.039s-5.287 3.81-4.369 6.37c0 0 5.784-2.495 6.483-4.461.699-1.966-.118-2.834-.118-2.834l-1.996.925z" fill="#000"/><path d="M78.288 105.846l.865 2.499c.13.377 0 .806-.337 1.019-.17.107-.4.206-.716.277a1.01 1.01 0 01-1.118-.508l-1.034-1.946 2.34-1.341z" fill="url(#paint0_linear_77_2605)"/><path d="M86.7 83.353s-10.858 1.882-15.515 6.185c-4.658 4.303 4.275 18.027 4.275 18.027s1.464-.008 3.237-1.529c0 0-5.296-10.322-.732-13.333 5.132-3.384 11.046-4.146 11.046-4.146l-2.206-4.872-.105-.332zm-12.656 30.64c1.163-.538 4.455-2.842 5.01-2.943.554-.102 1.516.55 1.516.55s.235.421-.016 1.156c-.773.934-2.488 2.717-4.794 3.381-1.697.488-2.883.033-3.623-.5a4.912 4.912 0 011.907-1.644z" fill="#000"/><path d="M75.76 116.137c2.306-.664 4.021-2.447 4.794-3.381-.17.496-.559 1.135-1.393 1.884-2.067 1.859-6.017 2.529-6.858 2.4-.673-.104-.61-.726-.165-1.403.739.533 1.925.988 3.622.5z" fill="#74FCFD"/><path d="M81.556 109.974c-.013.32-.667 1.419-1.05 2.035a.994.994 0 01-.845.472 2.534 2.534 0 01-.699-.084.646.646 0 01-.434-.805l.747-2.554 2.281.936z" fill="url(#paint1_linear_77_2605)"/><path d="M97.152 80.094s2.411 6.448 0 8.409c-2.412 1.96-8.164 4.168-9.45 8.073-1.284 3.906-3.465 11.496-6.384 14.184 0 0-2.05-.198-2.817-1.015 0 0 1.662-11.33 2.758-14.239.95-2.517 2.348-6.152 5.029-8.183.767-.581.633-1.502.278-2.397l-.648-1.629 11.234-3.203z" fill="#000"/><path d="M72.002 75.04c4.044.244 2.784-6.215 2.711-6.472l6.137 4.334s-.325 3.455-5.427 5.266c-1.291.459-2.471.479-3.514.255a5.579 5.579 0 00.093-3.383z" fill="#74FCFD"/><path d="M64.185 73.096c1.506-1.048 3.213 0 3.213 0 2.015 1.318 3.505 1.878 4.605 1.944.26.922.35 2.086-.094 3.383-2.257-.485-3.871-2.118-4.573-2.956a.728.728 0 00-1.009-.11c-.314.247-.618.587-.563.944.11.704-.708.928-.77.672-.06-.255.28-1.769.28-1.769s-1.634 1.644-2.272 2.275c-.638.632-1.44 0-1.44 0s1.116-3.335 2.623-4.383z" fill="url(#paint2_linear_77_2605)"/><path d="M90.855 58.592s-5.882-2.355-16.829 6.683c0 0-.914 1.892.084 3.577.997 1.684 10.502 9.893 11.808 14.445 0 0 5.662 1.84 11.518-2.523 0 0-.517-12.668-6.58-22.182z" fill="#74FCFD"/><path d="M79.227 56.49l2.896 3.511c.287.349.35.834.151 1.24-.401.82-1.355 2.013-3.47 1.848a1.778 1.778 0 01-1.461-.997l-2.025-4.186 3.91-1.415z" fill="url(#paint3_linear_77_2605)"/><path d="M95.41 73.627c.683-2.781-6.234-8.981-6.234-8.981l1.68-6.054s14.935 9.943 11.129 17.938c-.546 1.147-1.27 1.95-2.11 2.486-1.204-3.237-3.12-4.721-4.465-5.39z" fill="#74FCFD"/><path d="M95.414 73.222c.074 0 .14-.05.159-.124.698-2.844-5.998-8.886-6.283-9.142a.164.164 0 00-.219.244c.069.061 6.837 6.166 6.185 8.82a.163.163 0 00.158.202z" fill="#000"/><path d="M84.933 73.387s8.201 3.184 10.202.789a1.34 1.34 0 00.274-.55c1.346.669 3.262 2.153 4.465 5.39-4.313 2.756-11.685-1.533-13.678-2.797a1.489 1.489 0 00-1.102-.203c-.769.16-2.097.394-2.813.284-1.048-.162-2.554 3.535-4.252 2.395 0 0 1.455-6.425 6.904-5.308z" fill="url(#paint4_linear_77_2605)"/><path d="M72.926 51.334c-.029.113.679 7.787.679 7.787l4.373-.497.41-7.373s-4.974-1.806-5.462.084z" fill="url(#paint5_linear_77_2605)"/><path d="M77.249 52.779l.088 3.898a.525.525 0 01-.017.147c-.076.296-.412 1.297-1.415.89-.91-.37-1.746-.692-2.36-.576a.545.545 0 00-.442.585c.065.697.24 2.266.599 3.605.072.272.343.44.62.391.835-.147 2.588-.507 3.93-1.126a.545.545 0 00.318-.458c.066-.974.276-3.935.462-4.751.175-.766 1.178-1.126 1.61-1.247a.536.536 0 00.328-.265c.245-.46.63-1.541-.72-2.15a.545.545 0 01-.265-.739c.27-.554.454-1.425-.575-2.03-1.047-.613-1.933-.117-2.43.311a.545.545 0 01-.698.006c-.118-.094-.279-.138-.49-.037a.536.536 0 01-.73-.311c-.203-.57-.677-1.209-1.775-1.142-1.948.117-2.397 2.212-2.029 3.51.369 1.296 2.473 1.049 3.571.536.836-.39 1.797.22 2.21.535.13.1.206.253.21.418z" fill="#000"/><path d="M79.05 56.804s-.545-2.288.322-2.738c.866-.45 2.032-.04 1.593 1.526-.545 1.948-1.916 1.212-1.916 1.212z" fill="url(#paint6_linear_77_2605)"/><path d="M80.732 79.666h-.04l-17.205-.018a.77.77 0 01.002-1.54l17.205.018a.77.77 0 01.038 1.54z" fill="#000"/><path d="M48.02 64.044h14.328c1.058 0 2.02.61 2.47 1.566l6.625 14.047H53.636a1.66 1.66 0 01-1.544-1.05l-5.137-12.998a1.144 1.144 0 011.064-1.565z" fill="#000"/><path d="M58.114 71.246c.31.965.081 1.902-.512 2.093-.593.19-1.326-.436-1.637-1.401-.31-.965-.081-1.902.512-2.093.594-.19 1.327.437 1.637 1.401z" fill="#000"/><path d="M50.342 116.569a.757.757 0 01-.285-.057.692.692 0 01-.379-.92l15.164-34.127a.732.732 0 01.95-.367.692.692 0 01.379.92l-15.164 34.127a.725.725 0 01-.665.424z" fill="#7FE4E4"/><path d="M67.425 116.569a.724.724 0 01-.664-.424L51.597 82.018a.692.692 0 01.378-.92.732.732 0 01.95.367l15.164 34.127a.693.693 0 01-.379.92.756.756 0 01-.285.057zm29.855 0a.756.756 0 01-.285-.057.692.692 0 01-.378-.92l15.164-34.127a.732.732 0 01.95-.367.692.692 0 01.378.92l-15.164 34.127a.724.724 0 01-.664.424z" fill="#74FCFD"/><path d="M114.363 116.569a.723.723 0 01-.664-.424L98.535 82.018a.692.692 0 01.379-.92.732.732 0 01.95.367l15.163 34.127a.692.692 0 01-.378.92.756.756 0 01-.286.057z" fill="#74FCFD"/><path d="M116.142 80.411a.83.83 0 00-.144-.631.655.655 0 00-.526-.278H46.488a.768.768 0 00-.662.406.97.97 0 00-.05.842l.747 1.811c.17.415.542.68.95.68h67.526c.38 0 .706-.3.778-.718l.365-2.112z" fill="#74A1BB"/><path d="M26.384 77.327s7.313-12.832 5.044-14.743c-2.268-1.911-2.308 3.64-3.227 2.854-.918-.787.58-5.422.171-8.643-.407-3.221-1.293-7.53-2.438-3.2-1.144 4.33-1 8.6-1.497 6.394-.495-2.206-2.204-13.705-4.402-10.274-2.198 3.431-2.66 7.898-.444 10.5 2.216 2.603 5.19 5.51 1.534 3.59-3.657-1.918-6.15-1.062-2.238 2.414 0 0 5.881 4.867 3.328 4.64-2.553-.229-6.619 2.466-2.43 4.413.002 0 5.953.864 6.6 2.055z" fill="#000"/><path d="M23.346 89.03s-14.253-.677-13.622-3.977c.63-3.3 5.282-1.09 7.352-.881 2.07.21.855-1.206-3.36-4.174-4.217-2.968-6.535-7.315-2.07-5.288 4.464 2.027 6.248 5.834 5.946 3.149-.302-2.685-6.041-10.243-1.187-7.148 4.854 3.094 4.522 5.958 4.668 8.218.147 2.26.793-4.373 2.31-3.385 1.518.988.657 2.003.114 4.63-.544 2.626.977.509 1.48-.353s1.738 1.205.528 4.058c-1.21 2.852-2.159 5.15-2.159 5.15z" fill="#7FE4E4"/><path d="M26.185 104.055a.054.054 0 00-.018.028c-.002.001-.002.02-.001.005l.002-.04.008-.162.013-.331.023-.669.034-1.344.047-2.69c.023-1.796.03-3.591.025-5.386-.01-3.59-.075-7.18-.212-10.767a231.032 231.032 0 00-.275-5.376c-.118-1.79-.263-3.577-.446-5.359a75.961 75.961 0 00-.725-5.317c-.315-1.755-.697-3.508-1.327-5.15l-.003-.009a.313.313 0 01.583-.228c.682 1.71 1.09 3.484 1.435 5.26.338 1.778.596 3.567.806 5.359.209 1.792.378 3.587.522 5.383.138 1.797.254 3.596.35 5.394.186 3.598.3 7.198.36 10.8.03 1.8.046 3.6.048 5.402l-.01 2.702-.016 1.353-.013.679-.009.342-.006.175-.002.044a1.72 1.72 0 01-.04.285.608.608 0 01-1.153-.383z" fill="#000"/><path d="M26.106 104.746a.146.146 0 00-.007.05l.002.016-.004-.025-.015-.102-.032-.21-.067-.424-.14-.851-.296-1.704a244.69 244.69 0 00-.628-3.403c-.435-2.266-.9-4.526-1.405-6.776-.508-2.25-1.054-4.49-1.686-6.702a54.815 54.815 0 00-1.043-3.283c-.387-1.076-.811-2.144-1.364-3.117l-.004-.008a.313.313 0 01.54-.315c.613 1.027 1.065 2.109 1.484 3.197a55.79 55.79 0 011.128 3.304c.685 2.22 1.282 4.462 1.84 6.712a221.39 221.39 0 011.556 6.776c.243 1.132.477 2.267.704 3.403l.333 1.707.16.856.079.431.037.219.019.112.005.028.008.07a.608.608 0 11-1.204.039zm3.056-24.828s14.45-2.303 13.071-5.367c-1.378-3.064-5.391.164-7.357.847-1.965.684-2.247.343 1.167-3.522 3.413-3.865 3.732-7.874-.141-4.868-3.873 3.007-2.533 5.796-2.86 3.114-.33-2.682 4.848-12.921.843-8.786-4.004 4.136-4.493 7.656-4.112 9.888.381 2.232-1.785-4.07-3.032-2.757-1.247 1.313-.174 2.1.963 4.53 1.138 2.428-.833.721-1.521 0-.69-.723-1.411 1.575.427 4.07 1.837 2.494 2.552 2.85 2.552 2.85z" fill="#7FE4E4"/><path d="M28.073 104.439a1.516 1.516 0 01-.037-.254l-.002-.033-.004-.133-.007-.257-.008-.509-.01-1.013-.003-2.023c.004-1.347.02-2.695.046-4.041.05-2.695.142-5.388.288-8.08.15-2.691.35-5.382.67-8.065.16-1.34.357-2.68.613-4.012.262-1.33.57-2.66 1.088-3.947a.313.313 0 01.582.228l-.003.01c-.465 1.219-.747 2.527-.979 3.836a56.83 56.83 0 00-.532 3.971c-.268 2.663-.42 5.342-.52 8.022a229.62 229.62 0 00-.14 8.047c0 1.342.009 2.684.029 4.025l.04 2.011.027 1.003.018.499.01.246.006.12.002.03c.001.011 0-.012-.002-.016a.132.132 0 00-.02-.05.608.608 0 01-1.152.385z" fill="#74FCFD"/><path d="M21.156 101.653H33.12c.784 0 1.365.73 1.188 1.494-.765 3.316-1.683 6.681-3.56 10.097a1.972 1.972 0 01-1.727 1.026h-3.904c-.71 0-1.36-.389-1.696-1.014-1.504-2.794-2.95-6.126-3.665-9.907a1.428 1.428 0 011.4-1.696zM5.83 10.626S1.184 13.2.8 17.556C.416 21.91.768 39.99 10.084 44.44c9.317 4.45 21.649 3.424 26.369 2.938 4.72-.487 7.337-3.695 7.922-5.904.585-2.208 1.53-10.437-3.436-13.09-4.966-2.655-10.181-6.72-15.393-10.68-5.212-3.96-14.143-10.423-19.716-7.079z" fill="#7FE4E4"/><path d="M39.474 29.886s-1.254.067-1.408 2.646c0 0 2.908 2.607 6.836 3.227.294.047-.412-2.013-.519-2.292-.506-1.327-2.098-2.182-4.909-3.58z" fill="#000"/><path d="M25.352 26.853h2.646s8.122-8.97 13.448-9.875c0 0 3.708 4.733-.197 13.577-.314.712-1.193 1.028-1.849.609a1.058 1.058 0 01-.422-.503l.314-7.552s-6.928 6.06-8.131 7.23c-1.205 1.168-7.326.455-5.809-3.486zm25.582 18.831c-1.108-.971-2.875-2.061-5.426-2.374l-.862.528s.55.81 1.555 1.668c.923.537 2.35 1.263 3.531 1.42 1.15.153 1.32-.54 1.202-1.242zm-6.551-12.217c-.683.221-.983 1.19-2.717.549a15.364 15.364 0 01-3.565-1.878 6.96 6.96 0 00-.035.394s3.066 2.916 6.994 3.536a.39.39 0 00.422-.526c-.19-.5-.535-1.26-1.099-2.075z" fill="#000"/><path d="M51.77 46.515a9.046 9.046 0 00-.836-.83c.117.7-.052 1.395-1.202 1.242-1.182-.158-2.608-.884-3.532-1.42 1.158.986 2.919 2.034 5.142 1.973.494-.014.754-.595.428-.965z" fill="#C6EEEF"/><path d="M25.449 28.767l12.391.134s7.077 5.855 8.36 14.782c0 0 .214.657-1.065.77 0 0-4.279-2.795-7.068-7.735-3.42-6.058-10.197-3.331-10.197-3.331-2.227-1.605-5.373-1.932-7.744-2.467l5.323-2.153z" fill="#000"/><path d="M25.741 18.785s1.334 6.686 7.87 9.33l2.326-.274.548.875-5.453.174s-4.662-1.847-7.132-6.878c-.082-.166-1.442-2.974 1.841-3.227z" fill="url(#paint7_linear_77_2605)"/><path d="M26.456 28.658s-1.517-4.124-1.843-8.13c0 0 1.11-.954 1.804-1.365a.502.502 0 00.196-.651c-.51-1.056-3.594-5.205-3.825-5.262-1.256-.314-6.406-2.763-10.033 2.199-1.556 2.13.31 8.683 7.37 15.471l1.458.279 4.873-2.541z" fill="#74A1BB"/><path d="M20.611 21.431s4.215 4.99 9.603 5.72c0 0 1.393-1.27 2.428-.816 1.036.453 2.455 2.454 2.455 2.454H28.18s-6.542-.23-9.811-4.197c.263-1.389 1.05-2.218 2.243-3.16z" fill="url(#paint8_linear_77_2605)"/><path d="M18.153 9.75l-.923 3.075a.34.34 0 00.132.377c.444.304 1.604.908 3.196.32a.5.5 0 00.322-.43l.219-2.68-2.946-.663z" fill="url(#paint9_linear_77_2605)"/><path d="M23.552 7.259s-.453 3.188-1.678 4.169c-1.225.98-3.61.242-4.417-2.162l1.606-4.11 4.49 2.103z" fill="url(#paint10_linear_77_2605)"/><path d="M18.882 7.816c.093.03.19-.03.205-.127.044-.294.155-.876.378-1.273 0 0-.116-.419 1.058.213 1.174.632 2.937 1.56 3.975 1.008 1.012-.54 2.037-3.251-.638-2.749a.158.158 0 01-.187-.165c.033-.446-.012-1.471-1.05-1.8-.972-.309-.45.19-.67.456-.064.077.082-.266-1.299-.065-.474.07-1.082-1.189-2.245-.676-.959.423-1.108 1.013-1.092 1.381.005.12-.116.2-.224.15-.294-.135-.766-.205-1.219.361-.625.784.269 1.463.537 1.642a.158.158 0 01.071.13c.003.407.067 2.185.957 3.188a.16.16 0 00.265-.046l.686-1.635a.159.159 0 01.194-.09l.298.097z" fill="#000"/><path d="M18.897 8.148s-.419-1.706-1.055-1.152c-.636.554.166 1.773.895 2.005l.16-.853z" fill="url(#paint11_linear_77_2605)"/><path d="M34.75 29.176l3.106-10.36a1.06 1.06 0 01.942-.753l4.194-.287a.595.595 0 01.602.791l-3.473 9.894a.87.87 0 01-.734.577l-4.13.46-.508-.322z" fill="#597B8E"/><path d="M40.478 22.327c-.232.468-.632.743-.894.613s-.287-.615-.055-1.083c.232-.468.633-.742.894-.612.262.13.287.614.055 1.082z" fill="#C6EEEF"/><path d="M35.257 29.497h-.02l-8.8-.445a.395.395 0 01.039-.788l8.8.445a.394.394 0 01-.019.788z" fill="#597B8E"/><path d="M24.613 20.598a.07.07 0 01-.07-.07c.006-1.84-.703-4.28-.71-4.304a.07.07 0 01.047-.087.07.07 0 01.087.047c.007.025.722 2.485.716 4.344a.07.07 0 01-.07.07z" fill="url(#paint12_linear_77_2605)"/><path d="M20.611 21.501a.071.071 0 01-.055-.026c-.02-.025-1.944-2.472-2.606-4.148a.07.07 0 01.04-.09.07.07 0 01.09.038c.654 1.658 2.566 4.09 2.586 4.113a.07.07 0 01-.055.113z" fill="url(#paint13_linear_77_2605)"/><path d="M17.903 25.242l-.052-.023c-2.784-1.192-4.505-4.516-4.521-4.55a.07.07 0 01.124-.063c.017.033 1.693 3.272 4.4 4.463l.287-.405a.07.07 0 01.114.08l-.352.498z" fill="url(#paint14_linear_77_2605)"/><defs><linearGradient id="paint0_linear_77_2605" x1="79.202" y1="107.756" x2="75.947" y2="107.756" gradientUnits="userSpaceOnUse"><stop stop-color="#FEBBBA"/><stop offset="1" stop-color="#FF928E"/></linearGradient><linearGradient id="paint1_linear_77_2605" x1="81.556" y1="110.76" x2="78.501" y2="110.76" gradientUnits="userSpaceOnUse"><stop stop-color="#FEBBBA"/><stop offset="1" stop-color="#FF928E"/></linearGradient><linearGradient id="paint2_linear_77_2605" x1="72.22" y1="75.527" x2="61.562" y2="75.527" gradientUnits="userSpaceOnUse"><stop stop-color="#FEBBBA"/><stop offset="1" stop-color="#FF928E"/></linearGradient><linearGradient id="paint3_linear_77_2605" x1="82.39" y1="59.797" x2="75.318" y2="59.797" gradientUnits="userSpaceOnUse"><stop stop-color="#FEBBBA"/><stop offset="1" stop-color="#FF928E"/></linearGradient><linearGradient id="paint4_linear_77_2605" x1="87.212" y1="75.655" x2="114.286" y2="122.702" gradientUnits="userSpaceOnUse"><stop stop-color="#FEBBBA"/><stop offset="1" stop-color="#FF928E"/></linearGradient><linearGradient id="paint5_linear_77_2605" x1="74.593" y1="51.818" x2="80.231" y2="65.351" gradientUnits="userSpaceOnUse"><stop stop-color="#FEBBBA"/><stop offset="1" stop-color="#FF928E"/></linearGradient><linearGradient id="paint6_linear_77_2605" x1="84.816" y1="64.021" x2="79.768" y2="55.205" gradientUnits="userSpaceOnUse"><stop stop-color="#FEBBBA"/><stop offset="1" stop-color="#FF928E"/></linearGradient><linearGradient id="paint7_linear_77_2605" x1="32.879" y1="20.931" x2="27.042" y2="27.873" gradientUnits="userSpaceOnUse"><stop stop-color="#FEBBBA"/><stop offset="1" stop-color="#FF928E"/></linearGradient><linearGradient id="paint8_linear_77_2605" x1="26.073" y1="27.248" x2="37.741" y2="11.285" gradientUnits="userSpaceOnUse"><stop stop-color="#FEBBBA"/><stop offset="1" stop-color="#FF928E"/></linearGradient><linearGradient id="paint9_linear_77_2605" x1="18.935" y1="14.019" x2="19.364" y2="10.151" gradientUnits="userSpaceOnUse"><stop stop-color="#FEBBBA"/><stop offset="1" stop-color="#FF928E"/></linearGradient><linearGradient id="paint10_linear_77_2605" x1="21.227" y1="10.645" x2="19.333" y2="4.397" gradientUnits="userSpaceOnUse"><stop stop-color="#FEBBBA"/><stop offset="1" stop-color="#FF928E"/></linearGradient><linearGradient id="paint11_linear_77_2605" x1="19.265" y1="11.24" x2="17.37" y2="4.992" gradientUnits="userSpaceOnUse"><stop stop-color="#FEBBBA"/><stop offset="1" stop-color="#FF928E"/></linearGradient><linearGradient id="paint12_linear_77_2605" x1="23.83" y1="18.366" x2="24.683" y2="18.366" gradientUnits="userSpaceOnUse"><stop stop-color="#E1473D"/><stop offset="1" stop-color="#E9605A"/></linearGradient><linearGradient id="paint13_linear_77_2605" x1="17.945" y1="19.366" x2="20.681" y2="19.366" gradientUnits="userSpaceOnUse"><stop stop-color="#E1473D"/><stop offset="1" stop-color="#E9605A"/></linearGradient><linearGradient id="paint14_linear_77_2605" x1="13.321" y1="22.905" x2="18.268" y2="22.905" gradientUnits="userSpaceOnUse"><stop stop-color="#E1473D"/><stop offset="1" stop-color="#E9605A"/></linearGradient></defs></svg>