<svg width="125" height="120" fill="none" xmlns="http://www.w3.org/2000/svg"><path d="M90.314 66.902s-.345-14.512 6.339-18.396c6.684-3.884 19.393-6.313 19.87-27.151.279-12.2.581-17.533.783-19.86a1.374 1.374 0 00-1.622-1.47c-6.331 1.192-26.896 6.1-31.207 20.137-5.112 16.641 5.837 46.74 5.837 46.74z" fill="#C6EEEF"/><path opacity=".5" d="M110.788 5.822c-6.949 6.198-14.985 17.166-19.267 28.134-.55 1.808-2.158 5.652-2.856 12.482-.624 5.697-.314 11.716.442 15.701a.465.465 0 00.543.37c.433-.083.375-.548.371-.534-.864-6.808-.505-15.281 1.474-22.926 2.529-9.388 8.168-18.49 14.002-26.209l.6-.76c4.519-5.804 5.471-5.847 5.048-6.251a.264.264 0 00-.357-.007z" fill="#fff"/><path d="M79.213 97.632c-.996.488 9.429-12.621 12.695-33.211 1.539-9.703 1.559-21.859 7.086-26.544 4.6-3.899 20.252-1.437 25.374-.501.64.116.855.925.357 1.343-2.456 2.063-7.71 6.928-9.079 11.832-1.804 6.463-7.949 10.574-13.45 11.686-5.5 1.113-8.56 2.193-11.24 10.99-2.68 8.797-8.913 23.017-11.743 24.405z" fill="#74A1BB"/><path opacity=".5" d="M117.165 40.106c-6.535.274-13.549 3.255-17.108 8.846l-.336.534c-.776 1.25-5.174 10.144-7.616 17.516-.03.092.02.191.111.222.157.051.234-.12.22-.105 1.701-4.165 4.145-9.445 6.092-13.394 2.087-4.308 3.548-7.227 8.309-10.021 5.3-3.01 10.363-3.32 10.348-3.317a.142.142 0 00.126-.154.142.142 0 00-.146-.127z" fill="#fff"/><path d="M83.682 99.357c-.591.311 3.329-6.436 3.63-12.381.3-5.945 1.642-16.091 6.768-22.161 5.127-6.07 10.741-6.624 17.815-1.106 5.895 4.598 9.572 6.919 11.728 7.35.534.107.807.71.547 1.188-1.383 2.548-5.294 8.398-11.86 7.986-8.375-.525-18.525-5.97-21.619-1.428-3.094 4.542-2.696 7.083-2.792 9.236-.094 2.153-.306 9.254-4.217 11.316z" fill="#C6EEEF"/><path opacity=".5" d="M109.519 70.997c-2.566-2.46-6.744-4.876-10.397-4.426-4.751.766-7.917 3.939-9.643 8.662-.675 2.006-.953 3.076-1.352 5.534-.032.197.258.255.306.064.29-1.155.578-2.364 1.008-3.615 2.505-8.068 7.851-9.154 8.06-9.32.403.04 2.853-1.794 8.668 1.335a25.874 25.874 0 013.135 2.01l.005.004a.162.162 0 00.21-.247z" fill="#fff"/><path d="M10.287 92.47l3.099 5.148a4.717 4.717 0 005.024 2.18l4.665-.992a3.945 3.945 0 013.51.989 42.125 42.125 0 007.73 5.706 3.948 3.948 0 011.98 3.067l.422 4.757a4.717 4.717 0 003.561 4.161l5.831 1.449c1.953.486 4-.322 5.095-2.01l2.6-4.006a3.95 3.95 0 013.186-1.783c3.18-.11 6.367-.579 9.501-1.424a3.947 3.947 0 013.565.77l3.658 3.062a4.717 4.717 0 005.46.424l5.148-3.098a4.718 4.718 0 002.182-5.024l-.994-4.665a3.946 3.946 0 01.99-3.51 42.112 42.112 0 005.705-7.73 3.947 3.947 0 013.069-1.981l4.756-.422a4.717 4.717 0 004.161-3.56l1.449-5.831c.486-1.954-.322-4-2.009-5.095l-4.006-2.6a3.947 3.947 0 01-1.783-3.187c-.11-3.18-.58-6.367-1.423-9.5a3.943 3.943 0 01.769-3.565l3.062-3.658a4.716 4.716 0 00.424-5.46l-3.098-5.148a4.717 4.717 0 00-5.024-2.181l-4.665.993a3.945 3.945 0 01-3.51-.99 42.117 42.117 0 00-7.73-5.705 3.948 3.948 0 01-1.98-3.068l-.422-4.756a4.717 4.717 0 00-3.562-4.162l-5.83-1.449a4.717 4.717 0 00-5.095 2.01l-2.6 4.006a3.946 3.946 0 01-3.187 1.783c-3.18.11-6.367.58-9.5 1.423a3.944 3.944 0 01-3.566-.769l-3.657-3.062a4.717 4.717 0 00-5.461-.424l-5.148 3.098a4.717 4.717 0 00-2.181 5.024l.993 4.665a3.945 3.945 0 01-.99 3.51 42.105 42.105 0 00-5.705 7.73 3.948 3.948 0 01-3.068 1.98l-4.756.422a4.718 4.718 0 00-4.162 3.562l-1.449 5.83a4.717 4.717 0 002.01 5.095l4.006 2.6a3.947 3.947 0 011.783 3.186c.11 3.18.58 6.367 1.424 9.501a3.944 3.944 0 01-.77 3.565l-3.062 3.658a4.718 4.718 0 00-.425 5.461zm13.572-8.775c-8.24-17.464-.762-38.3 16.702-46.54 17.464-8.24 38.301-.762 46.541 16.702 8.24 17.464.762 38.301-16.702 46.541-17.464 8.239-38.301.761-46.541-16.703z" fill="#4C6370"/><path d="M75.227 59.612c-3.728-.8-16.443-3.151-29.757-1.245-4.46.639-8.407 3.23-10.814 7.037-4.336 6.861-10.47 19.092-9.173 31.849l6.806 1.683S36.993 83.8 42.287 77.64c0 0 6.27 14.291 5.952 22.139a12.05 12.05 0 01-.043.649c-.719 7.678 30.096 1.433 30.096 1.433l-1.92-40.896a1.45 1.45 0 00-1.145-1.354z" fill="#000"/><path d="M64.624 45.25l.897 10.625c.083.988-.427 1.913-1.276 2.309-1.955.912-5.71 2.22-9.726 1.26-.735-.176-1.214-.944-1.092-1.728l2.604-16.841 8.593 4.375z" fill="url(#paint0_linear_77_3214)"/><path d="M52.668 32.373s-2.023 7.85-1.622 11.738c.401 3.887-.03 6.52 4.55 6.583 4.578.064 7.976-2.754 9.396-6.917 0 0 2.24-6.422 1.139-8.73-1.102-2.307-13.463-2.674-13.463-2.674z" fill="url(#paint1_linear_77_3214)"/><path d="M63.028 41.261l-.563.09s1.56-5.13-.612-5.64c-2.172-.51-10.511-.867-12.712-3.455-2.12-2.494-1.193-6.302.889-7.659a.304.304 0 01.404.08l.242.322c.165.22.515.127.549-.146.032-.26.357-.368.529-.17.67.772 2.337 1.934 6.325 2.03 5.658.137 9.648 1.78 10.343 5.565.045.24.323.331.508.173.367-.312.998-.531 1.982.06 1.712 1.027 1.62 4.418-1.256 7.654-.136.154-.096.4.092.483.662.294 1.705 1.08-.414 2.69-2.168 1.645-3.592 1.73-4.143 1.68a.307.307 0 01-.28-.276l-.33-3.4a.307.307 0 00-.353-.272l-1.2.191z" fill="#000"/><path d="M63.002 41.988s.47-4.884 2.782-3.905c2.313.979-.251 5.428-1.913 5.873l-.869-1.968z" fill="url(#paint2_linear_77_3214)"/><path d="M76.228 89.659c.665-4.693-4.195-11.59-6.205-14.208a4.349 4.349 0 01-.904-2.608c-.06-6.645 2.19-10.117 6.662-12.983 0 0 16.767 18.109 12.635 32.65a12.231 12.231 0 01-2.013 4.075c-.651-5.478-6.984-6.673-10.175-6.926z" fill="#000"/><path d="M75.925 87.844l.618-.071c-.524-4.602-4.562-10.283-6.273-12.511l-.494.379c1.68 2.188 5.642 7.756 6.149 12.203z" fill="#AEAEAE"/><path d="M76.1 90.309c.057-.211.097-.43.128-.65 3.191.253 9.524 1.448 10.175 6.927-7.241 9.577-27.2 6.121-27.2 6.121v-3.726S74.53 96.133 76.1 90.309z" fill="url(#paint3_linear_77_3214)"/><path d="M61.12 101.679s-2.946-6.954-8.139-4.488c-5.193 2.467-4.785 4.081-4.785 4.081l12.925.407z" fill="url(#paint4_linear_77_3214)"/><path d="M61.783 103.122a.986.986 0 01-1.017.908l-26.91-.939a.987.987 0 01-.906-.691l-.78-2.5a.986.986 0 01.888-1.278l9.813-.52a.978.978 0 01.265.021l17.877 3.959c.48.106.808.55.77 1.04z" fill="#74A1BB"/><path d="M43.745 102.14l-.74-3.45-10.08.48.664 2.863 10.156.107zm5.168-37.22c.57 4.66 3.137 23.6 3.871 29.01a1.244 1.244 0 01-1.269 1.41L7.981 94.093a1.244 1.244 0 01-1.179-.974L.03 62.621a1.245 1.245 0 011.287-1.512l46.434 2.72a1.24 1.24 0 011.162 1.09z" fill="#74A1BB"/><path d="M31.414 84.129l6.434 18.261-14.96.317-1.247-18.47a1.435 1.435 0 011.528-1.528l6.987.464a1.436 1.436 0 011.258.956z" fill="#74A1BB"/><path d="M43.913 102.65a.778.778 0 01-.738 1.02h-23.43a.777.777 0 01-.777-.777v-1.005c0-.442.369-.796.81-.776l23.43 1.004a.778.778 0 01.705.534z" fill="#74A1BB"/><path d="M55.6 46.844c5.246 1.375 9.345-3.56 9.385-3.61l-.32-.261c-.04.048-3.973 4.778-8.96 3.471l-.104.4zm10.202-9.714s-.368-8.848-5.504-10.69c0 0 1.61-.401 3.039.66 1.43 1.062 4.67 5.974 3.748 10.5-1.13.145-1.283-.47-1.283-.47z" fill="#74FCFD"/><path d="M66.797 36.781c2.816 1.129 1.78 4.76 1.78 4.76-.28 2.723-1.308 3.91-2.427 4.36a2.348 2.348 0 01-3.21-2.43c.08-.741.145-1.447.136-1.703-.022-.622.905-6.115 3.72-4.987z" fill="#74FCFD"/><path d="M66.357 37.667a1.35 1.35 0 011.307 1.048c1.007 4.368-1.621 6.61-2.684 6.472-1.121-.145-.122-5.483.365-6.81.204-.555.61-.713 1.012-.71z" fill="url(#paint5_linear_77_3214)"/><path d="M49.551 84.272l.347-.044-2.139-16.868a2.215 2.215 0 00-2.063-1.932L5.57 63.005l-.02.349 40.125 2.423a1.867 1.867 0 011.738 1.627l2.139 16.868zm.962 4.765l-.347.044.46 3.652.347-.044-.46-3.652z" fill="#C6EEEF"/><path d="M35.728 45.42S-3.372 26.1 9.415 11.877C22.202-2.347 46.042 3.338 47.25 18.309c1.208 14.97-27.808 11.458-11.52 27.11z" fill="#74FCFD"/><path d="M12.329 15.55c0 .219.176.395.394.395h17.256a.394.394 0 000-.789H12.723a.394.394 0 00-.394.395zm22.773.394h5.12a.394.394 0 000-.788h-5.12a.394.394 0 000 .788zm-23.355 3.1c0 .218.177.394.395.394h6.479a.394.394 0 000-.789h-6.48a.395.395 0 00-.394.395zm15.987 0c0 .218.176.394.394.394h11.514a.394.394 0 100-.789H28.128a.395.395 0 00-.394.395zM11.56 22.932h17.224a.394.394 0 000-.789H11.56a.394.394 0 000 .789zm21.537 0h5.963a.394.394 0 000-.789h-5.963a.394.394 0 000 .789z" fill="#fff"/><defs><linearGradient id="paint0_linear_77_3214" x1="64.094" y1="73.232" x2="57.81" y2="46.583" gradientUnits="userSpaceOnUse"><stop stop-color="#FEBBBA"/><stop offset="1" stop-color="#FF928E"/></linearGradient><linearGradient id="paint1_linear_77_3214" x1="63.154" y1="43.24" x2="51.731" y2="40.25" gradientUnits="userSpaceOnUse"><stop stop-color="#FEBBBA"/><stop offset="1" stop-color="#FF928E"/></linearGradient><linearGradient id="paint2_linear_77_3214" x1="63.808" y1="40.743" x2="52.385" y2="37.752" gradientUnits="userSpaceOnUse"><stop stop-color="#FEBBBA"/><stop offset="1" stop-color="#FF928E"/></linearGradient><linearGradient id="paint3_linear_77_3214" x1="77.934" y1="84.279" x2="66.106" y2="115.406" gradientUnits="userSpaceOnUse"><stop stop-color="#FEBBBA"/><stop offset="1" stop-color="#FF928E"/></linearGradient><linearGradient id="paint4_linear_77_3214" x1="63.259" y1="78.703" x2="51.431" y2="109.829" gradientUnits="userSpaceOnUse"><stop stop-color="#FEBBBA"/><stop offset="1" stop-color="#FF928E"/></linearGradient><linearGradient id="paint5_linear_77_3214" x1="65.76" y1="41.441" x2="78.871" y2="30.224" gradientUnits="userSpaceOnUse"><stop stop-color="#C6EEEF"/><stop offset="1" stop-color="#4042E2"/></linearGradient></defs></svg>