<svg width="103" height="108" fill="none" xmlns="http://www.w3.org/2000/svg"><path d="M70.651 104.056a.687.687 0 01-.46-.272c-1.614-2.176-13.353-19.202 2.27-34.766 14.83-14.775 21.553-17.809 22.448-26.49.104-1.013 1.475-1.257 1.926-.343 3.37 6.83 8.62 22.769-8.755 33.23-19.167 11.54-17.596 24.19-16.67 27.785a.689.689 0 01-.759.856z" fill="#C6EEEF"/><path d="M73.028 104.38a.993.993 0 01-.849-.831c-.457-2.961-1.58-14.024 6.57-16.958 8.972-3.23 16.216 5.127 22.812-1.414.347-.344.93-.044.848.438-.588 3.416-3.202 11.33-14.836 12.922-12.451 1.705-13.853 3.133-13.601 4.905a.836.836 0 01-.944.938z" fill="#C6EEEF"/><path opacity=".47" d="M94.475 51.38a12.784 12.784 0 01-.596 1.848c-.237.599-.51 1.183-.807 1.755a23.018 23.018 0 01-2.07 3.266c-1.559 2.063-3.444 3.875-5.522 5.412a35.325 35.325 0 01-3.24 2.1 29.452 29.452 0 00-3.076 2.06 32.416 32.416 0 00-5.325 5.145c-3.138 3.816-5.365 8.422-6.099 13.326a25.92 25.92 0 00-.041 7.417c.333 2.47 1.037 4.889 1.965 7.221a.243.243 0 01-.134.316.245.245 0 01-.31-.122c-1.086-2.304-1.897-4.754-2.346-7.284a25.833 25.833 0 01-.404-3.835 25.86 25.86 0 01.185-3.863c.312-2.566 1.036-5.079 2.079-7.445 1.045-2.367 2.426-4.578 4.04-6.595a32.358 32.358 0 018.744-7.576c1.095-.629 2.135-1.267 3.142-1.994 2.01-1.435 3.868-3.093 5.466-4.984a26.092 26.092 0 002.21-2.987c.656-1.048 1.27-2.154 1.71-3.297l.006-.015a.221.221 0 01.423.13zm-21.964 50.991c.038-.107.026-.206.023-.309l-.01-.305-.007-.61c.001-.407.01-.813.028-1.22.036-.812.105-1.623.214-2.43.221-1.613.587-3.22 1.238-4.734.643-1.503 1.618-2.94 3.032-3.879a6.688 6.688 0 012.323-.956 8.508 8.508 0 012.495-.126c3.241.376 6.419.997 9.604 1.502 1.587.236 3.196.448 4.754.235a7.067 7.067 0 001.139-.26 6.001 6.001 0 001.063-.475c.678-.387 1.273-.916 1.806-1.503l.001-.002a.198.198 0 01.296.263c-.54.62-1.156 1.195-1.876 1.627-.358.22-.744.392-1.137.538a7.558 7.558 0 01-1.217.306c-1.66.243-3.304.036-4.909-.184-1.61-.23-3.199-.528-4.793-.786-1.59-.258-3.199-.509-4.782-.694a7.946 7.946 0 00-2.334.096 6.15 6.15 0 00-2.146.86c-1.316.838-2.27 2.172-2.92 3.615-.655 1.45-1.045 3.021-1.292 4.606a26.897 26.897 0 00-.255 2.398c-.025.401-.042.803-.05 1.206l-.004.603.004.301c.003.1-.002.202.047.297a.183.183 0 01-.078.247.183.183 0 01-.257-.224v-.003z" fill="#fff"/><path d="M55.575 1.223c-4.883-.039-9.81.735-14.167 2.544C31.263 7.976 22.653 19.114 26.022 30.49c1.095 3.695.52 7.773 4.202 9.379 1.992.869 7.417 1.386 9.48.7 5.482-1.82 9.085-6.8 6.103-12.325-.954-1.77-2.19-3.385-3.015-5.219-.824-1.833-1.2-4.01-.36-5.836 1.65-3.585 7.132-4.724 10.686-4.617 4.196.127 7.998 2.202 10.255 5.763 2.814 4.437 3.527 9.833 3.115 14.983-.44 5.511-2.764 9.72-6.246 13.947-2.998 3.64-6.3 7.133-8.292 11.407-1.83 3.924-2.428 8.27-2.51 12.563-.016.832-4.154 8.673-4.136 11.068.003.338 4.693 1.46 5.03 1.463l8.609.096a.686.686 0 00.695-.677c.13-11.653 3.715-22.763 12.79-30.59 3.3-2.847 6.856-5.167 9.424-8.761 3.659-5.123 5.464-10.166 4.943-16.488-.476-5.775-2.377-11.553-6.141-16.033-4.046-4.816-9.967-7.823-16.121-9.121a45.41 45.41 0 00-8.958-.97zm9.006 95.704c0 5.358-2.97 10.099-8.329 10.099-1.158 0-5.095.011-6.124-.361-3.736-1.349-3.749-4.22-3.749-8.42 0-5.36 1.81-10.63 7.168-10.63 5.36 0 11.034 3.953 11.034 9.312z" fill="#597B8E"/><path d="M50.935.001c-4.884-.038-9.81.736-14.168 2.544-10.144 4.21-18.755 15.348-15.385 26.725 1.095 3.695 3.625 8.347 7.307 9.953 1.992.87 4.311.812 6.374.127 5.482-1.82 9.086-6.802 6.104-12.326-.955-1.77-2.19-3.386-3.015-5.219-.824-1.833-1.2-4.01-.36-5.836 1.65-3.585 7.132-4.724 10.686-4.617 4.196.127 7.997 2.202 10.255 5.762 2.814 4.437 3.527 9.834 3.115 14.984-.44 5.51-2.764 9.72-6.246 13.947-2.999 3.64-6.3 7.133-8.292 11.407-1.83 3.923-2.428 8.27-2.51 12.563-.017.832.264 9.52.281 11.915a.62.62 0 00.614.616l8.608.096a.686.686 0 00.695-.677c.13-11.654 3.715-22.764 12.789-30.59 3.301-2.848 6.857-5.167 9.425-8.762 3.659-5.123 5.464-10.165 4.943-16.488-.476-5.775-2.377-11.552-6.142-16.033-4.045-4.816-9.967-7.823-16.12-9.12a45.438 45.438 0 00-8.958-.97zm.506 106.725a9.702 9.702 0 009.703-9.703c0-5.358-4.344-9.703-9.703-9.703-5.358 0-9.702 4.345-9.702 9.703a9.703 9.703 0 009.703 9.703z" fill="#74A1BB"/><path opacity=".63" d="M24.594 28.155a.125.125 0 01-.122-.098c-.68-3.07-.78-7.878 2.606-13.347 3.305-5.338 7.94-8.91 13.778-10.617 6.24-1.824 13.65-1.433 22.021 1.16a.124.124 0 11-.073.239C46.72.508 34.107 3.828 27.29 14.842c-3.342 5.397-3.245 10.137-2.575 13.162a.124.124 0 01-.121.15zm2.041 4.94a.125.125 0 01-.1-.051c-.03-.04-.73-1.007-1.38-2.708a.124.124 0 01.233-.09c.637 1.669 1.34 2.641 1.347 2.65a.124.124 0 01-.1.199zm28.053 57.64a.123.123 0 01-.056-.014 6.986 6.986 0 00-3.19-.76.125.125 0 110-.249 7.24 7.24 0 013.303.787.124.124 0 01-.057.236zm-7.265 12.372a.128.128 0 01-.07-.021 7.31 7.31 0 01-3.223-6.063 7.308 7.308 0 013.855-6.444.125.125 0 11.118.22 7.063 7.063 0 00-.61 12.081.125.125 0 01.033.173.125.125 0 01-.103.054z" fill="#fff"/><path opacity=".3" d="M19.165 18.152a.294.294 0 01-.413.044 11.149 11.149 0 00-.764-.567.294.294 0 01-.081-.403l.003-.004a.294.294 0 01.407-.079c.277.187.547.388.805.597a.293.293 0 01.043.412zm-2.513-1.3c-.283-.14-.576-.27-.87-.384a.294.294 0 01.215-.547c.309.121.617.257.916.405a.294.294 0 01-.26.526zm-2.343-.846a11.315 11.315 0 00-.934-.181.294.294 0 01.087-.58c.33.048.66.112.983.19a.294.294 0 01-.136.57zm-2.474-.301c-.316-.003-.636.008-.951.032a.293.293 0 11-.045-.585 11.52 11.52 0 011-.034.294.294 0 01-.004.587zm-2.48.257c-.308.067-.617.149-.92.242a.294.294 0 11-.173-.56c.318-.1.644-.185.968-.256a.294.294 0 01.125.574zm-2.36.8c-.286.134-.57.281-.843.44a.294.294 0 01-.293-.51c.287-.165.586-.321.887-.462a.294.294 0 11.249.532zM.377 25.427a.294.294 0 01-.246-.334c.05-.328.114-.66.192-.983a.294.294 0 11.57.137c-.073.308-.135.622-.182.934a.295.295 0 01-.334.246zm4.495-7.363c-.25.194-.493.401-.724.616a.294.294 0 01-.4-.43c.244-.226.5-.445.763-.65a.294.294 0 01.36.464zM.978 22.94a.294.294 0 01-.165-.381c.121-.31.258-.617.406-.915a.293.293 0 11.526.26c-.14.284-.27.577-.386.87a.293.293 0 01-.381.165zm2.115-3.133c-.2.245-.39.502-.568.763a.294.294 0 01-.49-.325l.004-.005c.187-.275.388-.545.598-.803a.294.294 0 01.456.37zM.545 27.355a.292.292 0 00.048-.169 11.326 11.326 0 01-.005-.457.294.294 0 10-.587-.006c-.002.16 0 .323.005.482a.293.293 0 00.54.15zm3.753 8.128a.294.294 0 00-.05-.378 11.138 11.138 0 01-.332-.314.293.293 0 10-.412.42c.115.112.233.223.35.33a.294.294 0 00.444-.058zm16.932-1.759a.293.293 0 11-.475-.344c.18-.25.353-.512.516-.781a.294.294 0 01.502.303 11.758 11.758 0 01-.542.822zm.889-2.091a.294.294 0 01-.154-.386c.123-.286.236-.58.334-.875a.293.293 0 11.558.187c-.104.31-.223.62-.352.92a.295.295 0 01-.386.153zm-1.912 3.321c-.225.236-.464.466-.71.683a.294.294 0 11-.388-.44c.233-.206.46-.424.674-.648a.294.294 0 01.424.405zm2.71-5.71a.294.294 0 01-.235-.343c.057-.306.102-.617.134-.926a.294.294 0 01.584.06c-.033.325-.08.653-.14.974a.294.294 0 01-.343.234zm-4.688 7.367c-.271.18-.555.352-.842.51a.294.294 0 01-.283-.514c.273-.15.542-.313.8-.485a.294.294 0 01.325.49zm-2.293 1.184c-.306.117-.62.222-.934.314a.294.294 0 01-.164-.564c.299-.087.597-.187.887-.298a.294.294 0 01.211.547zm-2.497.655a11.92 11.92 0 01-.98.103.294.294 0 01-.037-.586c.31-.02.623-.053.931-.098a.294.294 0 01.086.58zm-2.58.095a11.77 11.77 0 01-.979-.114.294.294 0 01.093-.58c.306.049.62.085.93.108a.293.293 0 11-.044.586zm-2.54-.475a11.678 11.678 0 01-.929-.327.294.294 0 01.218-.545c.289.115.585.22.882.31a.294.294 0 01-.17.562zm-2.37-1.02a12.19 12.19 0 01-.836-.52.29.29 0 01-.078-.407.293.293 0 01.408-.078 11.166 11.166 0 00.795.495.294.294 0 01-.29.51zm17.455-10.453a.292.292 0 00.047-.17c-.005-.159-.015-.32-.027-.48a.293.293 0 10-.586.045c.012.152.021.306.026.457a.293.293 0 00.54.148z" fill="#C6EEEF"/><path d="M19.721 23.166a.137.137 0 00-.127-.095l-1.67-.037a7.279 7.279 0 00-1.523-1.8l.238-1.651a.137.137 0 00-.073-.142l-1.781-.917a.137.137 0 00-.158.023L13.421 19.7a7.273 7.273 0 00-2.349-.194l-1-1.337a.137.137 0 00-.152-.049l-1.908.612a.137.137 0 00-.095.127l-.037 1.67a7.28 7.28 0 00-1.8 1.523l-1.651-.239a.136.136 0 00-.142.073L3.37 23.67a.137.137 0 00.023.157l1.154 1.206a7.275 7.275 0 00-.193 2.35l-1.338 1a.137.137 0 00-.048.152l.61 1.908a.14.14 0 00.129.095l1.67.037a7.28 7.28 0 001.522 1.799l-.238 1.652a.136.136 0 00.073.142l1.781.917a.137.137 0 00.158-.024l1.206-1.154a7.273 7.273 0 002.35.194l1 1.338a.137.137 0 00.151.048l1.908-.611a.137.137 0 00.096-.128l.036-1.67a7.28 7.28 0 001.8-1.522l1.652.238a.137.137 0 00.141-.073l.917-1.781a.137.137 0 00-.023-.158l-1.154-1.206a7.276 7.276 0 00.194-2.35l1.338-1a.137.137 0 00.048-.152l-.612-1.907z" fill="#C6EEEF"/><path d="M13.16 28.136a2.016 2.016 0 01-3.52-1.205 2.016 2.016 0 013.342-1.637 2.017 2.017 0 01.178 2.842zm-3.051-1.235a1.546 1.546 0 002.699.924 1.545 1.545 0 00-.137-2.18 1.546 1.546 0 00-2.562 1.256z" fill="#74A1BB"/><path d="M15.756 29.52a5.02 5.02 0 00.609-1.326c0-.004.002-.007.003-.01l.008-.03.016-.058a.118.118 0 00-.083-.144.117.117 0 00-.144.083 4.718 4.718 0 01-7.136 2.729 4.682 4.682 0 01-1.913-2.511 4.686 4.686 0 01.298-3.598 4.722 4.722 0 018.2-.332.118.118 0 00.2-.124 4.94 4.94 0 00-1.94-1.789 4.958 4.958 0 00-6.669 2.137 4.92 4.92 0 00-.312 3.777 4.913 4.913 0 002.45 2.892 4.92 4.92 0 003.776.313 4.907 4.907 0 002.637-2.01z" fill="#74A1BB"/><path opacity=".3" d="M31.131 13.942a.181.181 0 00-.014-.217 7.74 7.74 0 00-.313-.343.181.181 0 00-.26.252c.102.106.202.216.297.327a.181.181 0 00.29-.02zm-1.011-.956a.18.18 0 01-.256.027 7.487 7.487 0 00-.751-.532.181.181 0 01-.059-.25.188.188 0 01.25-.058l.142.09c.222.144.44.302.646.468a.181.181 0 01.038.24l-.01.015zm-1.818-.942a7.515 7.515 0 00-.858-.335.181.181 0 11.11-.345c.306.098.608.216.9.351a.182.182 0 01-.152.33zm-1.751-.56a7.522 7.522 0 00-.914-.115.182.182 0 01.022-.362c.32.02.643.06.959.12a.182.182 0 01-.067.356zm-1.835-.114a7.497 7.497 0 00-.914.113.182.182 0 01-.067-.357c.314-.059.637-.099.958-.118a.181.181 0 01.023.362zm-1.807.338a7.41 7.41 0 00-.86.332.181.181 0 11-.15-.33c.291-.134.594-.25.9-.348a.181.181 0 01.11.346zm-1.67.766c-.26.161-.514.34-.752.531a.181.181 0 11-.227-.282c.25-.201.515-.389.788-.557a.181.181 0 01.19.308zm-1.432 1.152a7.284 7.284 0 00-.598.7.182.182 0 01-.254.035.182.182 0 01-.036-.254c.194-.257.405-.504.627-.734a.18.18 0 11.26.252zm-1.754 2.388a.181.181 0 01-.097-.237 7.847 7.847 0 01.431-.865.18.18 0 01.248-.066c.087.05.116.161.066.248l-.059.105a7.47 7.47 0 00-.351.72.18.18 0 01-.238.095zm13.626 7.172a7.89 7.89 0 01-.574.756.181.181 0 01-.275-.237c.196-.227.38-.47.548-.72a.181.181 0 11.301.2zm.236-.74a.181.181 0 01-.08-.244 7.54 7.54 0 00.36-.832.18.18 0 11.341.124 7.63 7.63 0 01-.377.871l-.01.017a.18.18 0 01-.234.063zm-1.473 2.177a7.814 7.814 0 01-.74.595.182.182 0 01-.21-.296c.246-.174.483-.365.707-.568a.181.181 0 11.243.269zm2.147-3.904a.182.182 0 01-.136-.217c.067-.294.117-.594.149-.894a.181.181 0 01.36.038 7.75 7.75 0 01-.156.937.181.181 0 01-.217.136zm-3.693 4.999c-.278.15-.568.284-.862.4a.181.181 0 01-.132-.338c.28-.11.557-.238.822-.381a.181.181 0 11.172.319zm-1.765.692c-.306.08-.62.14-.932.182a.181.181 0 11-.048-.36c.298-.04.597-.098.89-.173a.182.182 0 01.09.351zm-1.88.25a7.802 7.802 0 01-.949-.047.181.181 0 01.04-.36c.3.032.604.047.905.044a.181.181 0 11.004.363zm7.724-7.87a.177.177 0 00.029-.102 7.685 7.685 0 00-.023-.463.181.181 0 10-.361.028c.01.145.018.294.02.442a.182.182 0 00.335.096z" fill="#C6EEEF"/><path d="M30.519 16.364a.092.092 0 00-.085-.064l-1.118-.025a4.861 4.861 0 00-1.019-1.204l.16-1.105a.092.092 0 00-.05-.095l-1.191-.613a.09.09 0 00-.106.015l-.806.773a4.867 4.867 0 00-1.573-.13l-.669-.895a.091.091 0 00-.102-.032l-1.276.409a.092.092 0 00-.064.085l-.025 1.117a4.86 4.86 0 00-1.204 1.02l-1.105-.16a.09.09 0 00-.095.049l-.613 1.192a.091.091 0 00.015.105l.773.807a4.864 4.864 0 00-.13 1.572l-.895.67a.09.09 0 00-.032.101l.409 1.277a.092.092 0 00.085.064l1.117.024c.269.448.61.856 1.02 1.204l-.16 1.106a.09.09 0 00.049.094l1.192.614a.09.09 0 00.105-.015l.807-.773c.521.13 1.052.172 1.572.13l.67.895a.091.091 0 00.101.032l1.277-.41a.092.092 0 00.064-.084l.024-1.118c.448-.268.856-.61 1.204-1.019l1.106.16a.091.091 0 00.094-.05l.614-1.191a.091.091 0 00-.015-.105l-.773-.808c.13-.52.172-1.051.13-1.572l.895-.669a.092.092 0 00.032-.102l-.41-1.276z" fill="#C6EEEF"/><path d="M26.147 19.705a1.363 1.363 0 01-.944.462 1.374 1.374 0 01-1.115-2.277 1.374 1.374 0 012.399.822 1.36 1.36 0 01-.34.993zm-1.697-.15c.203.178.462.267.731.25.269-.017.515-.137.694-.34.178-.202.267-.461.25-.73a1.01 1.01 0 10-1.675.82z" fill="#74A1BB"/><path d="M27.953 20.668a3.46 3.46 0 00.437-.978.181.181 0 10-.35-.094 3.078 3.078 0 01-.235.606l-.017.031a3.025 3.025 0 01-1.74 1.471l-.007.002-.02.007a3.034 3.034 0 01-2.6-.35 3.03 3.03 0 01-1.24-1.626 3.034 3.034 0 01.194-2.33 3.035 3.035 0 011.783-1.51 3.033 3.033 0 012.598.349c.375.243.692.566.927.946a.181.181 0 10.309-.191 3.407 3.407 0 00-1.339-1.234 3.395 3.395 0 00-2.606-.215 3.39 3.39 0 00-1.995 1.69 3.393 3.393 0 00-.215 2.606 3.389 3.389 0 001.69 1.995 3.423 3.423 0 004.426-1.175z" fill="#74A1BB"/><path d="M67.861 32.98l-5.274 5.394 6.326-1.69-1.052-3.704z" fill="#74FCFD"/><path d="M99.242 35.213l-29.967 1.454a1.349 1.349 0 01-1.414-1.347V22.992a2.48 2.48 0 012.404-2.48l27.008-.835a3.642 3.642 0 013.642 3.641v10.14c0 .937-.736 1.709-1.673 1.755z" fill="#74FCFD"/><path opacity=".85" d="M70.171 36.172c-.477 0-.927-.18-1.276-.512a1.836 1.836 0 01-.574-1.341V23.207c0-1.31 1.05-2.367 2.39-2.407l26.15-.79c1.983 0 3.594 1.573 3.594 3.506v9.58c0 .922-.74 1.679-1.682 1.723l-28.511 1.35-.09.003zM96.863 20.14l-26.148.79c-1.27.038-2.264 1.038-2.264 2.277V34.32c0 .475.19.918.534 1.246.344.329.795.498 1.27.475l28.512-1.35c.873-.042 1.558-.742 1.558-1.594v-9.58c0-1.862-1.553-3.376-3.462-3.376z" fill="#fff"/><path d="M96.776 22.388l-23.962.897c-.235.009-.42.165-.412.348l.009.21c.007.18.201.32.434.312l23.963-.875c.236-.009.421-.165.413-.348l-.01-.232c-.008-.182-.202-.32-.435-.312zm-2.144 6.066l-23.963.893c-.235.009-.42.17-.412.359l.01.218c.007.187.202.331.435.323l23.963-.87c.235-.008.42-.17.412-.359l-.01-.24c-.008-.188-.202-.332-.435-.324zm2.799 2.538L70.72 32c-.263.01-.47.174-.461.365l.01.22c.007.19.223.334.483.325l26.713-.986c.263-.01.47-.173.462-.365l-.01-.243c-.009-.19-.225-.334-.485-.324zm-13.793-5.028l-13.06.381c-.129.004-.224.18-.214.392l.012.245c.01.21.121.377.248.373L83.686 27c.128-.003.224-.18.213-.392l-.013-.27c-.01-.21-.12-.377-.248-.374zm14.392-.451l-12.345.354c-.121.003-.212.179-.201.392l.012.244c.01.21.116.378.236.375l12.346-.33c.122-.002.212-.178.201-.391l-.013-.27c-.012-.21-.117-.378-.237-.374z" fill="#fff"/><path d="M22.36 103.211s-.247 1.399-.368 2.783a.953.953 0 00.912 1.033c1.843.077 5.786.226 7.201.163a.31.31 0 00.273-.425.693.693 0 00-.355-.374l-6.513-2.994-1.15-.186z" fill="#000"/><path d="M22.157 102.39l.199 1.672s1.14.531 1.92-.067l-.473-1.864-1.646.259z" fill="url(#paint0_linear_77_2958)"/><path d="M22.306 70.944c-.085.437-.46 21.797 1.824 31.37a.325.325 0 01-.191.378 5.67 5.67 0 01-1.86.378.56.56 0 01-.555-.402c-.652-2.221-3.78-13.349-4.188-23.978-.456-11.878 0-.405 0-.405l.267-7.342 4.703.001zm-7.439 32.997s-.393.706-.774 2.581a.582.582 0 00.512.697c.609.06 1.546.137 2.297.132a.58.58 0 00.574-.647c-.083-.685-.342-1.809-1.142-2.684l-1.467-.079z" fill="#000"/><path d="M14.522 101.79l.463 2.529s.46.341 1.366.094l-.222-2.721-1.607.098z" fill="url(#paint1_linear_77_2958)"/><path d="M13.27 71.6c-1.868 11.27.405 27.854 1.17 31.1a.507.507 0 00.41.385c.342.056.905.103 1.46-.059a.463.463 0 00.334-.427c.102-2.624-.083-18.735 1.657-25.102.088-.323.286-.604.558-.798l3.377-2.4.26-3.882-9.227 1.183z" fill="#000"/><path d="M25.168 50.245c-5.596-.092-11.771 1.47-11.771 1.47-1.668 9.733-.292 20.96-.292 20.96 4.332 1.136 9.22-.695 9.22-.695.72-4.068 4.08-15.518 4.08-15.518 2.734-.34 4.986-1.128 6.841-2.17-1.415-1.641-2.082-3.728-2.371-4.961-1.979.614-3.98.943-5.707.914z" fill="#000"/><path d="M41.698 42.002c-.55-.664-1.245-.35-1.245-.35-.824 3.479-5.142 6.3-9.578 7.678.29 1.234.956 3.32 2.371 4.96 7.363-4.139 8.452-12.288 8.452-12.288z" fill="url(#paint2_linear_77_2958)"/><path d="M41.565 42.17c.058.184-.609.462-1-.286-.015-.358-.233-1.894-.018-2.186 1.14-1.555 3.352-3.505 3.352-3.505.374.369.066.731.066.731l-1.074 1.118c.225.406.499.748.627 1.239.097.37.038.768-.15 1.106-.189.34-.445.78-.688 1.125-.459.654-1.115.659-1.115.659z" fill="url(#paint3_linear_77_2958)"/><path d="M42.423 38.767l-.978.83-.307.824.872.967s.293-1.637.51-1.991c.219-.355.106-.526-.097-.63z" fill="url(#paint4_linear_77_2958)"/><path d="M15.544 57.133l-2.147-5.419S8.17 55.266 7.311 59.77c.987.073 2.784.33 4.544 1.218.386-2.126 3.689-3.854 3.689-3.854z" fill="#000"/><path d="M20.112 62.232s-5.869 3.317-7.85.485c-.41-.588-.509-1.173-.408-1.73-1.759-.888-3.556-1.145-4.544-1.218-.259 1.358-.122 2.801.676 4.26 3.468 6.346 12.902-.35 12.902-.35l-.776-1.447z" fill="url(#paint5_linear_77_2958)"/><path d="M19.406 66.428l3.203-11.186a.326.326 0 01.276-.234c.58-.068 2.262-.258 4.204-.423 2.338-.198 5.054-.358 6.677-.221.23.019.37.263.267.47-.922 1.867-4.719 9.463-6.62 11.95a.328.328 0 01-.264.13l-7.431-.07a.327.327 0 01-.312-.416z" fill="#C6EEEF"/><path d="M27.421 53.616l2.322-.387a.167.167 0 01.186.217l-.23.696a.167.167 0 01-.136.113l-2.235.299a.166.166 0 01-.184-.203l.143-.609a.166.166 0 01.134-.126z" fill="#74A1BB"/><path d="M25.682 55.582l.192-.996a.23.23 0 01.203-.186l4.69-.476a.23.23 0 01.247.283l-.298 1.242a.23.23 0 01-.213.176l-4.583.23a.23.23 0 01-.238-.273z" fill="#74A1BB"/><path d="M20.18 63.726s-.446-1.835-.266-2.486c.18-.65.529-1.488 1.691-1.302 1.162.186 2.534.676 2.534.676s-.07.848-.953.574l.548.424s-.079.679-.825.316l.51.562s-.32.557-.87.2c-.549-.357-.812 1.257-2.369 1.036z" fill="url(#paint6_linear_77_2958)"/><path d="M19.5 45.702l-1.78 5.15c-.03.085.005.18.084.223.485.268 2.234 1.044 4.341-.293a.867.867 0 00.402-.624l.577-4.457H19.5z" fill="url(#paint7_linear_77_2958)"/><path d="M23.374 40.933s1.956 3.68 1.705 5.167c-.25 1.487-2.674 1.38-4.79.173L18.81 42.3l4.564-1.366z" fill="url(#paint8_linear_77_2958)"/><path d="M20.382 44.321a.151.151 0 00.066-.221c-.156-.24-.45-.728-.544-1.155 0 0-.351-.226.895-.524 1.246-.298 3.105-.76 3.495-1.822.381-1.034-.62-3.635-2.216-1.562a.151.151 0 01-.24.001c-.262-.34-.95-1.047-1.905-.619-.894.401-.995 1.056-.983 1.387a.151.151 0 01-.178.154c-.452-.086-1.537-.16-2.043.953-.417.916-.146 1.435.1 1.689a.151.151 0 01-.064.25c-.297.092-.68.344-.642 1.04.053.961 1.129.877 1.435.833.05-.007.1.01.134.048.263.29 1.446 1.524 2.726 1.673a.153.153 0 00.16-.202l-.553-1.611a.152.152 0 01.082-.189l.275-.123z" fill="#000"/><path d="M20.605 44.55s-1.392-.955-1.494-.15c-.102.803 1.254 1.164 1.925.864l-.43-.714z" fill="url(#paint9_linear_77_2958)"/><defs><linearGradient id="paint0_linear_77_2958" x1="22.157" y1="103.206" x2="24.276" y2="103.206" gradientUnits="userSpaceOnUse"><stop stop-color="#FEBBBA"/><stop offset="1" stop-color="#FF928E"/></linearGradient><linearGradient id="paint1_linear_77_2958" x1="14.522" y1="103.097" x2="16.351" y2="103.097" gradientUnits="userSpaceOnUse"><stop stop-color="#FEBBBA"/><stop offset="1" stop-color="#FF928E"/></linearGradient><linearGradient id="paint2_linear_77_2958" x1="40.029" y1="35.324" x2="36.292" y2="46.004" gradientUnits="userSpaceOnUse"><stop stop-color="#FEBBBA"/><stop offset="1" stop-color="#FF928E"/></linearGradient><linearGradient id="paint3_linear_77_2958" x1="43.224" y1="36.442" x2="39.487" y2="47.122" gradientUnits="userSpaceOnUse"><stop stop-color="#FEBBBA"/><stop offset="1" stop-color="#FF928E"/></linearGradient><linearGradient id="paint4_linear_77_2958" x1="40.353" y1="43.265" x2="43.169" y2="37.586" gradientUnits="userSpaceOnUse"><stop stop-color="#FEBBBA"/><stop offset="1" stop-color="#FF928E"/></linearGradient><linearGradient id="paint5_linear_77_2958" x1="7.191" y1="63.266" x2="20.888" y2="63.266" gradientUnits="userSpaceOnUse"><stop stop-color="#FEBBBA"/><stop offset="1" stop-color="#FF928E"/></linearGradient><linearGradient id="paint6_linear_77_2958" x1="19.871" y1="61.829" x2="24.139" y2="61.829" gradientUnits="userSpaceOnUse"><stop stop-color="#FEBBBA"/><stop offset="1" stop-color="#FF928E"/></linearGradient><linearGradient id="paint7_linear_77_2958" x1="17.709" y1="48.622" x2="23.124" y2="48.622" gradientUnits="userSpaceOnUse"><stop stop-color="#FEBBBA"/><stop offset="1" stop-color="#FF928E"/></linearGradient><linearGradient id="paint8_linear_77_2958" x1="24.412" y1="45.177" x2="18.458" y2="41.546" gradientUnits="userSpaceOnUse"><stop stop-color="#FEBBBA"/><stop offset="1" stop-color="#FF928E"/></linearGradient><linearGradient id="paint9_linear_77_2958" x1="22.848" y1="46.532" x2="17.491" y2="43.264" gradientUnits="userSpaceOnUse"><stop stop-color="#FEBBBA"/><stop offset="1" stop-color="#FF928E"/></linearGradient></defs></svg>