<svg width="215" height="215" fill="none" xmlns="http://www.w3.org/2000/svg"><path d="M92.636 112.625c0 .559-.12 1.197-.359 1.915-.228.717-.666 1.446-1.316 2.187-.649.729-1.595 1.344-2.837 1.846-1.241.49-2.82.735-4.733.735-1.949 0-3.538-.245-4.768-.735s-2.182-1.105-2.854-1.846c-.661-.752-1.094-1.47-1.3-2.153-.204-.695-.307-1.345-.307-1.949 0-1.196.342-2.324 1.025-3.383.684-1.06 1.613-1.88 2.786-2.461-.957-.604-1.697-1.293-2.222-2.068-.524-.786-.786-1.789-.786-3.008 0-.684.143-1.407.428-2.17.296-.764.769-1.498 1.418-2.205.66-.706 1.532-1.27 2.615-1.692 1.093-.433 2.415-.65 3.965-.65 1.617 0 2.968.217 4.05.65 1.082.422 1.954.986 2.615 1.692.66.695 1.122 1.419 1.384 2.17.262.752.393 1.487.393 2.205 0 1.253-.256 2.256-.769 3.008-.501.74-1.248 1.43-2.239 2.068a7.25 7.25 0 012 1.504 6.499 6.499 0 011.316 2.016 5.81 5.81 0 01.495 2.324zm-6.784-10.458c0-.752-.188-1.47-.564-2.154-.365-.683-.974-1.025-1.829-1.025-.877 0-1.515.33-1.914.991-.399.649-.598 1.379-.598 2.188 0 .922.245 1.68.735 2.272.5.582 1.07.872 1.709.872.649 0 1.219-.29 1.709-.872.5-.592.752-1.35.752-2.272zm.7 9.826c0-.729-.16-1.356-.478-1.88-.32-.535-.724-.934-1.214-1.196-.49-.273-.98-.41-1.47-.41-.797 0-1.52.313-2.17.94-.65.626-.974 1.475-.974 2.546 0 1.151.325 2.028.974 2.632.65.604 1.385.906 2.205.906.843 0 1.572-.325 2.187-.974.627-.65.94-1.504.94-2.564zm26.797-15.996l-10.117 23.311-5.503-1.744 7.246-17.004h-9.587v-5.246h17.961v.683zm14.8 4.836a5.803 5.803 0 01-.786 2.974 5.817 5.817 0 01-2.154 2.119 5.83 5.83 0 01-2.956.786 5.804 5.804 0 01-2.94-.786 5.82 5.82 0 01-2.136-2.136 5.878 5.878 0 01-.769-2.957c0-.786.148-1.538.445-2.255a5.884 5.884 0 011.264-1.897 6.012 6.012 0 011.863-1.248 5.816 5.816 0 012.273-.444 5.83 5.83 0 012.956.786 5.78 5.78 0 012.154 2.136 5.65 5.65 0 01.786 2.922zm10.801-5.844l-17.073 24.643h-3.503l17.124-24.643h3.452zm1.965 18.764c0 1.06-.262 2.046-.786 2.957a5.784 5.784 0 01-2.153 2.136 5.74 5.74 0 01-2.94.786 5.74 5.74 0 01-2.939-.786 5.822 5.822 0 01-2.119-2.153 5.793 5.793 0 01-.787-2.94c0-.786.149-1.538.445-2.255a5.81 5.81 0 011.247-1.88 5.756 5.756 0 011.863-1.248 5.745 5.745 0 012.29-.461c1.048 0 2.028.262 2.94.786a5.784 5.784 0 012.153 2.136 5.65 5.65 0 01.786 2.922zm-16.338-12.885a2.2 2.2 0 00-.683-1.64 2.268 2.268 0 00-1.641-.667c-.638 0-1.179.227-1.624.683a2.24 2.24 0 00-.649 1.624c0 .626.222 1.162.666 1.606.445.444.98.667 1.607.667s1.168-.217 1.623-.65c.468-.444.701-.985.701-1.623zm12.766 12.92c0-.65-.222-1.197-.666-1.641-.445-.444-.991-.667-1.641-.667a2.18 2.18 0 00-1.623.684 2.24 2.24 0 00-.65 1.624c0 .626.222 1.162.667 1.606.444.444.98.667 1.606.667.638 0 1.179-.217 1.624-.65.455-.444.683-.985.683-1.623z" fill="#000"/><circle cx="107.5" cy="107.5" r="96.5" stroke="#0FF" stroke-opacity=".1" stroke-width="22"/><path d="M21 107.5C21 59.727 59.727 21 107.5 21S194 59.727 194 107.5 155.273 194 107.5 194 21 155.273 21 107.5zm155.437 0c0-38.073-30.864-68.937-68.937-68.937-38.073 0-68.937 30.864-68.937 68.937 0 38.073 30.864 68.937 68.937 68.937 38.073 0 68.937-30.864 68.937-68.937z" fill="#000"/><path d="M107.5 21a86.5 86.5 0 00-69.33 34.773l14.078 10.503A68.936 68.936 0 01107.5 38.563V21z" fill="#0FF"/></svg>