<svg width="215" height="215" fill="none" xmlns="http://www.w3.org/2000/svg"><path d="M91.2 111.583a7.916 7.916 0 01-.956 3.811c-.627 1.185-1.578 2.136-2.854 2.854-1.265.706-2.809 1.06-4.632 1.06-1.458 0-2.854-.188-4.187-.564a12.46 12.46 0 01-3.674-1.709v-5.11c.73.547 1.754 1.099 3.076 1.658 1.333.558 2.49.837 3.47.837 1.162 0 1.976-.302 2.443-.906.467-.615.7-1.247.7-1.897 0-.535-.136-1.042-.41-1.521-.273-.478-.746-.871-1.418-1.179-.66-.319-1.555-.479-2.683-.479a9.524 9.524 0 00-3.572.684V95.314h13.724v4.99H81.75v4.067c.182-.023.37-.04.564-.051.205-.023.348-.034.427-.034.091-.012.262-.017.513-.017 1.595 0 2.996.336 4.204 1.008 1.208.672 2.13 1.566 2.769 2.683a7.023 7.023 0 01.974 3.623zm22.252-4.409c0 2.051-.245 3.851-.735 5.4-.49 1.55-1.168 2.82-2.034 3.811-.854.98-1.834 1.715-2.939 2.205a8.818 8.818 0 01-3.538.718 8.77 8.77 0 01-3.52-.718c-1.106-.49-2.085-1.231-2.94-2.222-.854-.991-1.532-2.256-2.034-3.794-.49-1.538-.734-3.338-.734-5.4 0-2.074.245-3.88.734-5.418.502-1.538 1.174-2.808 2.017-3.81.855-1.003 1.834-1.744 2.939-2.222a8.712 8.712 0 013.538-.735 8.69 8.69 0 013.521.718c1.105.478 2.09 1.224 2.956 2.238.866 1.003 1.544 2.279 2.034 3.828.49 1.55.735 3.35.735 5.401zm-6.751 0c0-2.097-.142-3.817-.427-5.161-.285-1.345-.974-2.017-2.068-2.017-.741 0-1.299.376-1.675 1.128-.364.752-.592 1.618-.683 2.598-.08.979-.12 2.13-.12 3.452 0 2.244.137 3.993.41 5.246.285 1.242.974 1.863 2.068 1.863 1.105 0 1.794-.621 2.068-1.863.285-1.253.427-3.002.427-5.246zm21.448-6.341a5.803 5.803 0 01-.786 2.974 5.817 5.817 0 01-2.154 2.119 5.83 5.83 0 01-2.956.786 5.804 5.804 0 01-2.94-.786 5.82 5.82 0 01-2.136-2.136 5.878 5.878 0 01-.769-2.957c0-.786.148-1.538.445-2.255a5.884 5.884 0 011.264-1.897 6.012 6.012 0 011.863-1.248 5.816 5.816 0 012.273-.444 5.83 5.83 0 012.956.786 5.78 5.78 0 012.154 2.136 5.65 5.65 0 01.786 2.922zm10.801-5.844l-17.073 24.643h-3.503l17.124-24.643h3.452zm1.965 18.764c0 1.06-.262 2.046-.786 2.957a5.784 5.784 0 01-2.153 2.136 5.74 5.74 0 01-2.94.786 5.74 5.74 0 01-2.939-.786 5.822 5.822 0 01-2.119-2.153 5.793 5.793 0 01-.787-2.94c0-.786.149-1.538.445-2.255a5.81 5.81 0 011.247-1.88 5.756 5.756 0 011.863-1.248 5.745 5.745 0 012.29-.461c1.048 0 2.028.262 2.94.786a5.784 5.784 0 012.153 2.136 5.65 5.65 0 01.786 2.922zm-16.338-12.885a2.2 2.2 0 00-.683-1.64 2.268 2.268 0 00-1.641-.667c-.638 0-1.179.227-1.624.683a2.24 2.24 0 00-.649 1.624c0 .626.222 1.162.666 1.606.445.444.98.667 1.607.667s1.168-.217 1.623-.65c.468-.444.701-.985.701-1.623zm12.766 12.92c0-.65-.222-1.197-.666-1.641-.445-.444-.991-.667-1.641-.667a2.18 2.18 0 00-1.623.684 2.24 2.24 0 00-.65 1.624c0 .626.222 1.162.667 1.606.444.444.98.667 1.606.667.638 0 1.179-.217 1.624-.65.455-.444.683-.985.683-1.623z" fill="#000"/><circle cx="107.5" cy="107.5" r="96.5" stroke="#0FF" stroke-opacity=".1" stroke-width="22"/><path d="M107.5 21a86.5 86.5 0 000 173v-17.563a68.937 68.937 0 010-137.874V21z" fill="#0FF"/><path d="M107.5 194a86.5 86.5 0 100-173v17.563a68.94 68.94 0 0168.937 68.937 68.94 68.94 0 01-68.937 68.937V194z" fill="#000"/></svg>