<svg width="215" height="215" fill="none" xmlns="http://www.w3.org/2000/svg"><path d="M90.961 112.42c0 1.242-.245 2.302-.734 3.179a6.334 6.334 0 01-1.949 2.154 8.55 8.55 0 01-2.546 1.196c-.9.239-1.772.359-2.615.359-1.196 0-2.518-.166-3.965-.496-1.447-.342-2.66-.746-3.64-1.213v-5.315a13.179 13.179 0 002.58 1.675 6.511 6.511 0 002.855.666c.74 0 1.361-.137 1.863-.41.512-.274.894-.615 1.145-1.025.262-.422.393-.866.393-1.333 0-.604-.16-1.14-.479-1.607-.319-.467-.78-.837-1.384-1.111-.604-.285-1.305-.427-2.102-.427h-.77v-3.811h.906c.798 0 1.453-.154 1.966-.461.524-.308.9-.673 1.128-1.094.228-.433.342-.838.342-1.214 0-.717-.28-1.35-.838-1.897-.547-.558-1.259-.837-2.136-.837-.786 0-1.606.148-2.461.444a10.32 10.32 0 00-2.376 1.197v-4.546a24.809 24.809 0 013.145-1.094c.991-.273 2.102-.41 3.333-.41 1.788 0 3.28.347 4.477 1.042 1.208.695 2.085 1.538 2.632 2.53.558.98.837 1.902.837 2.768 0 .707-.153 1.413-.461 2.119a6.735 6.735 0 01-1.213 1.88c-.49.547-1.003.974-1.538 1.282.945.501 1.782 1.196 2.512 2.085.729.889 1.093 2.13 1.093 3.725zm22.286 6.58H95.251v-.461a45.487 45.487 0 002.29-2.41c.832-.934 1.903-2.17 3.213-3.709a50.037 50.037 0 001.692-2.05c.535-.673.991-1.322 1.367-1.949.376-.638.695-1.338.957-2.102a7.16 7.16 0 00.393-2.341c0-1.094-.319-1.977-.957-2.649-.627-.683-1.43-1.025-2.41-1.025-1.937 0-3.862 1.002-5.776 3.008v-5.589c.672-.433 1.225-.78 1.658-1.042.433-.262.928-.519 1.487-.77a11.66 11.66 0 012.016-.649 10.954 10.954 0 012.512-.273c1.447 0 2.763.296 3.948.888a6.545 6.545 0 012.786 2.547c.683 1.105 1.025 2.398 1.025 3.879a9.158 9.158 0 01-.461 2.94c-.308.911-.627 1.646-.957 2.204a47.07 47.07 0 01-1.316 2.068 47.28 47.28 0 01-3.145 4.17h7.674V119zm14.902-18.166a5.802 5.802 0 01-.786 2.973 5.817 5.817 0 01-2.154 2.119 5.83 5.83 0 01-2.956.786 5.804 5.804 0 01-2.94-.786 5.82 5.82 0 01-2.136-2.136 5.875 5.875 0 01-.769-2.956c0-.787.148-1.538.445-2.256a5.884 5.884 0 011.264-1.897 6.012 6.012 0 011.863-1.248 5.814 5.814 0 012.273-.444 5.83 5.83 0 012.956.786 5.78 5.78 0 012.154 2.136 5.65 5.65 0 01.786 2.923zm10.801-5.845l-17.073 24.643h-3.503l17.124-24.643h3.452zm1.965 18.764c0 1.06-.262 2.046-.786 2.957a5.784 5.784 0 01-2.153 2.136 5.74 5.74 0 01-2.94.786 5.74 5.74 0 01-2.939-.786 5.822 5.822 0 01-2.119-2.153 5.793 5.793 0 01-.787-2.94c0-.786.149-1.538.445-2.255a5.81 5.81 0 011.247-1.88 5.756 5.756 0 011.863-1.248 5.763 5.763 0 012.29-.461c1.048 0 2.028.262 2.94.786a5.784 5.784 0 012.153 2.136 5.65 5.65 0 01.786 2.922zm-16.338-12.885a2.2 2.2 0 00-.683-1.64 2.268 2.268 0 00-1.641-.667c-.638 0-1.179.227-1.624.683a2.24 2.24 0 00-.649 1.624c0 .626.222 1.162.666 1.606.445.445.98.667 1.607.667s1.168-.217 1.623-.65c.468-.444.701-.985.701-1.623zm12.766 12.92c0-.65-.222-1.197-.666-1.641-.445-.444-.991-.666-1.641-.666-.638 0-1.179.227-1.623.683a2.24 2.24 0 00-.65 1.624c0 .626.222 1.162.667 1.606.444.444.98.667 1.606.667.638 0 1.179-.217 1.624-.65.455-.444.683-.985.683-1.623z" fill="#000"/><circle cx="107.5" cy="107.5" r="96.5" stroke="#0FF" stroke-opacity=".1" stroke-width="22"/><path d="M107.5 194a86.5 86.5 0 100-173v17.563a68.94 68.94 0 0168.937 68.937 68.94 68.94 0 01-68.937 68.937V194z" fill="#000"/><path d="M107.5 21a86.5 86.5 0 1079.064 121.587l-16.053-7.124a68.932 68.932 0 01-57.54 40.756 68.942 68.942 0 01-63.263-31.138 68.939 68.939 0 0122.536-96.82 68.936 68.936 0 0135.256-9.698V21z" fill="#0FF"/></svg>