<svg width="162" height="162" fill="none" xmlns="http://www.w3.org/2000/svg"><path d="M21.96 61.245a.347.347 0 01-.203-.313 33.51 33.51 0 01.023-1.373.336.336 0 01.358-.32c.462.022.304.473.309 1.702a.335.335 0 01-.344.336.347.347 0 01-.143-.032zm.259-5.936c.146-.86.328-1.726.542-2.571a.34.34 0 01.419-.241c.503.135.15.4-.28 2.935a.338.338 0 01-.397.273.347.347 0 01-.284-.396zm1.85-6.63a33.29 33.29 0 011.06-2.401c.201-.414.816-.092.622.303a32.519 32.519 0 00-1.038 2.354.341.341 0 01-.446.187.344.344 0 01-.198-.443zm3.177-6.1c.48-.727.997-1.444 1.536-2.13.278-.354.826.069.55.421a32.427 32.427 0 00-1.506 2.087c-.248.374-.828-.006-.58-.379zm4.39-4.833a.336.336 0 01-.003-.48 33.037 33.037 0 011.954-1.768c.346-.289.797.233.452.522a32.616 32.616 0 00-1.915 1.732.35.35 0 01-.488-.006zm5.314-4.309a.334.334 0 01.096-.47c.74-.471 1.51-.92 2.284-1.332.4-.212.736.387.336.6a33.02 33.02 0 00-2.237 1.305.35.35 0 01-.48-.103zm6.287-2.953a.352.352 0 01-.178-.186.333.333 0 01.191-.44 34.335 34.335 0 012.518-.844.352.352 0 01.433.23.333.333 0 01-.226.422c-.829.243-1.659.521-2.467.828a.354.354 0 01-.27-.01zm6.667-1.779a.348.348 0 01-.198-.253.334.334 0 01.278-.39c.873-.14 1.764-.248 2.648-.32a.35.35 0 01.377.31.334.334 0 01-.309.367c-.865.071-1.738.177-2.594.314a.342.342 0 01-.202-.027zm6.714-.72a.336.336 0 01.354-.323c.887.039 1.785.113 2.668.221.456.057.38.73-.073.675a34.096 34.096 0 00-2.614-.217.35.35 0 01-.335-.355zm21.565 8.926c-1.953-1.723-2.42-1.73-2.106-2.138a.347.347 0 01.483-.06c.711.535 1.41 1.105 2.078 1.694.343.303-.11.807-.455.504zm-14.677-7.985a.339.339 0 01.416-.245c.863.217 1.729.47 2.575.753.435.145.222.789-.212.643a35.092 35.092 0 00-2.523-.738.346.346 0 01-.256-.413zm9.075 3.972c-2.257-1.295-2.72-1.211-2.498-1.676.14-.295.5-.155.459-.157.807.384 1.607.804 2.379 1.246a.34.34 0 01.13.466.345.345 0 01-.47.12zm9.51 8.085c-.731-.902-1.203-1.223-.85-1.522a.35.35 0 01.487.039c.794.902 1.2 1.268.85 1.541-.106.082-.367.09-.487-.058zm7.473 25.352a.347.347 0 01-.2-.355c.055-.444.101-.893.138-1.337a.337.337 0 01.373-.305.35.35 0 01.316.372c-.038.453-.086.912-.142 1.364a.337.337 0 01-.385.29.38.38 0 01-.1-.03zM41.057 91.502a35.41 35.41 0 01-2.537-1.386.34.34 0 01-.12-.469c.273-.45.438.002 2.958 1.247.171.085.243.29.16.458-.145.293-.503.149-.46.15zm4.116 1.366c.167-.5.44-.09 3.15.59.186.046.3.231.256.413a.34.34 0 01-.415.246 35.33 35.33 0 01-2.77-.817.344.344 0 01-.22-.432zM34.67 87.434a35.192 35.192 0 01-2.175-1.898.337.337 0 01-.013-.48c.369-.38.428.096 2.618 1.853.15.12.174.334.055.479a.349.349 0 01-.485.045zm17.998 7.486a.346.346 0 01-.202-.347.337.337 0 01.377-.3 33.66 33.66 0 002.816.197.35.35 0 01.341.35.336.336 0 01-.349.33 34.708 34.708 0 01-2.874-.2.36.36 0 01-.11-.03zm7.464.014a.35.35 0 01-.201-.27.335.335 0 01.299-.376c.928-.1 1.864-.24 2.78-.418a.352.352 0 01.41.269.334.334 0 01-.265.399c-.936.18-1.89.324-2.838.427a.352.352 0 01-.185-.03zm7.258-1.599a.35.35 0 01-.183-.198.334.334 0 01.207-.432 33.65 33.65 0 002.611-1.007.352.352 0 01.458.175.333.333 0 01-.17.448c-.87.378-1.766.724-2.664 1.028a.346.346 0 01-.26-.014zm6.705-3.126a.353.353 0 01-.15-.13.334.334 0 01.107-.468c.79-.48 1.57-1.002 2.316-1.547a.35.35 0 01.484.073.334.334 0 01-.066.475 33.533 33.533 0 01-2.364 1.58.35.35 0 01-.327.017zm5.725-4.575c-.379-.38.102-.416 1.907-2.498.293-.34.822.108.528.447-.616.71-1.27 1.403-1.946 2.058a.35.35 0 01-.489-.007zm4.719-5.629c-.454-.288.002-.426 1.292-2.858.21-.394.824-.073.613.323-.44.83-.92 1.65-1.43 2.437a.344.344 0 01-.475.099zm3.3-6.54a.343.343 0 01-.182-.427 32.82 32.82 0 00.836-2.64.34.34 0 01.423-.235c.184.052.294.24.245.42a33.532 33.532 0 01-.854 2.694.341.341 0 01-.467.188zM29.31 82.076c-.752-.938-1.139-1.32-.776-1.577.377-.268.545.2 1.315 1.161a.335.335 0 01-.053.478.352.352 0 01-.485-.062zm4.376-8.3l4.943-.26a21.99 21.99 0 004.992 4.91c-.143 4.738-.489 5.06.004 5.264l5.513 2.28a.408.408 0 00.46-.1l3.245-3.63a21.92 21.92 0 006.993.05l3.322 3.678a.416.416 0 00.462.108l5.468-2.201a.393.393 0 00.246-.393l-.35-4.875a20.893 20.893 0 004.897-4.834l4.945.332a.4.4 0 00.399-.244l2.219-5.393a.4.4 0 00-.11-.455l-3.74-3.261a20.952 20.952 0 00-.073-6.89c3.523-3.21 3.985-3.18 3.778-3.662-2.378-5.282-2.192-5.704-2.733-5.676l-4.942.26a21.99 21.99 0 00-4.993-4.91c.143-4.735.49-5.06-.004-5.263-5.516-2.172-5.624-2.57-5.973-2.18l-3.246 3.629a21.893 21.893 0 00-6.992-.049c-3.28-3.485-3.29-3.985-3.783-3.786-5.373 2.273-5.752 2.067-5.715 2.593l.35 4.875a20.887 20.887 0 00-4.897 4.835c-4.727-.22-5.141-.58-5.344-.088-2.099 5.375-2.513 5.495-2.108 5.848l3.74 3.26a20.966 20.966 0 00.072 6.89c-3.511 3.2-3.986 3.178-3.778 3.663 2.379 5.282 2.192 5.704 2.733 5.675z" fill="#C6EEEF"/><path d="M50.384 60.281c.431-3.112 3.358-5.253 6.525-4.774 3.165.48 5.39 3.4 4.96 6.512-.432 3.112-3.359 5.254-6.525 4.774-3.167-.479-5.391-3.401-4.96-6.512zm5.03 6.008l.003.001-.003-.001zm1.354-9.773c-2.57-.39-4.998 1.327-5.358 3.92-.354 2.556 1.473 4.956 4.074 5.35 2.6.392 5.004-1.366 5.358-3.922.355-2.56-1.478-4.956-4.074-5.348z" fill="#74A1BB"/><path d="M50.13 74.333c-.78-.36-1.53-.784-2.234-1.265a.512.512 0 01-.139-.711.52.52 0 01.72-.125 14.317 14.317 0 002.6 1.406c6.894 2.852 14.737-.165 17.763-6.73.077-.168.15-.337.222-.51 2.863-6.959-.603-14.926-7.662-17.848-7.05-2.916-15.126.3-17.985 7.24-1.7 4.13-.677 7.056-.872 7.48-.21.458-.903.354-.984-.146a14.337 14.337 0 011.134-8.28c5.3-11.498 22.162-11.028 27.216.747 1.555 3.624 1.596 7.603.114 11.205-.077.186-.157.37-.24.553-1.537 3.334-4.258 5.917-7.72 7.311-3.652 1.47-7.69 1.44-11.372-.083-.19-.077-.376-.159-.56-.244z" fill="#74A1BB"/><path d="M93.167 52.725a12.054 12.054 0 002.972 2.53l.056 2.762c.006.307.268.188 3.314 1.23.282.09.25-.173 1.911-2.29a12.034 12.034 0 003.889-.316l1.995 1.916c.222.212.322-.057 3.213-1.474a.227.227 0 00.121-.234l-.389-2.737a12.07 12.07 0 002.529-2.973c2.639-.108 2.882.075 2.974-.213.953-3.143 1.177-3.229.939-3.408l-2.21-1.66a12.041 12.041 0 00-.317-3.889l1.916-1.994c.213-.221-.057-.323-1.474-3.213-.134-.263-.287-.057-2.972.268a12.044 12.044 0 00-2.971-2.53l-.056-2.762c-.006-.307-.268-.188-3.314-1.23-.28-.09-.242.162-1.911 2.29a12.037 12.037 0 00-3.89.316L97.5 31.2a.227.227 0 00-.262-.039l-2.951 1.513a.228.228 0 00-.122.234l.39 2.737a12.037 12.037 0 00-2.53 2.972c-2.639.109-2.881-.074-2.974.214-.953 3.142-1.177 3.228-.938 3.408l2.21 1.659a12.04 12.04 0 00.316 3.89c-1.79 1.942-2.092 1.985-1.954 2.255l1.512 2.951c.135.264.3.056 2.971-.268z" fill="#C6EEEF"/><path d="M98.947 44.654a3.46 3.46 0 013.678-3.23 3.46 3.46 0 11-.448 6.907 3.465 3.465 0 01-3.23-3.677zm3.263 3.163l.003.001-.003-.001zm-2.234-3.096a2.432 2.432 0 002.267 2.581c2.147.139 3.408-2.406 1.983-4.027-1.418-1.615-4.11-.715-4.25 1.446z" fill="#74A1BB"/><path d="M85.03 50.055c-.133-.445-.25-.902-.348-1.358a.344.344 0 01.263-.408c.468-.1.401.422.744 1.57a.344.344 0 11-.66.196zm-.736-5.938a18.4 18.4 0 01.338-2.812c.089-.447.763-.31.674.135-.492 2.462-.108 3.06-.683 3.036a.344.344 0 01-.329-.359zm1.963-6.709a.344.344 0 01-.159-.46 18.14 18.14 0 011.436-2.442c.26-.372.825.021.564.394-.52.744-.985 1.534-1.381 2.35-.146.3-.501.157-.46.158zm4.443-5.731a.344.344 0 01-.08-.574 18.247 18.247 0 012.29-1.669.344.344 0 01.36.585 17.619 17.619 0 00-2.202 1.606.344.344 0 01-.368.052zm6.352-3.495a.345.345 0 01.043-.641 18.03 18.03 0 012.765-.614.344.344 0 11.096.681c-.899.126-1.793.325-2.66.59a.342.342 0 01-.244-.017zm7.022-1.012a.345.345 0 01.381-.303 18.26 18.26 0 012.781.537c.438.118.257.784-.183.663a17.515 17.515 0 00-2.676-.516.345.345 0 01-.303-.38zm8.21 3.336c-1.039-.716-1.496-.79-1.263-1.192a.34.34 0 01.47-.125c.401.233.799.485 1.184.75a.344.344 0 01-.391.567zm7.417 12.145c-.161-1.256-.411-1.642.044-1.736a.344.344 0 01.407.266c.094.454.172.92.231 1.383a.344.344 0 01-.682.087zM96.473 61.646c.18-.542.586.016 3.036.425.448.074.337.754-.113.679a18.126 18.126 0 01-2.704-.67.344.344 0 01-.219-.434zm7.067.978a.344.344 0 01.315-.37c2.497-.206 2.925-.73 3.06-.172a.343.343 0 01-.254.415c-.9.217-1.825.366-2.75.442a.344.344 0 01-.371-.315zm6.881-1.873c-.268-.506.411-.409 2.407-1.898.364-.272.776.279.411.55a18.149 18.149 0 01-2.353 1.49.344.344 0 01-.465-.142zm5.593-4.428c-.446-.362.219-.538 1.471-2.69.228-.393.823-.048.595.346-.466.8-.998 1.572-1.582 2.293a.345.345 0 01-.484.05zm3.169-6.693c.68-2.409.34-2.997.91-2.927a.343.343 0 01.3.383 18.262 18.262 0 01-.548 2.732.345.345 0 01-.662-.188zM92.598 60.123a18.21 18.21 0 01-1.147-.804.344.344 0 01-.066-.482c.29-.381.577.057 1.586.707a.344.344 0 01-.373.579z" fill="#C6EEEF"/><path d="M98.206 52.223a.516.516 0 11.499-.903 7.49 7.49 0 001.457.647c.112.014 2.732 1.06 5.712-.462 5.909-3.028 5.211-11.75-1.116-13.79-3.639-1.174-7.534.598-9.096 3.988-1.574 3.415.205 5.191-.884 5.444a.516.516 0 01-.619-.386 8.505 8.505 0 01.193-4.534c1.439-4.463 6.246-6.937 10.723-5.493 4.818 1.553 7.276 7 5.116 11.688-1.742 3.782-6.125 5.888-10.346 4.527a8.62 8.62 0 01-1.64-.726z" fill="#74A1BB"/><path d="M96.796 64.555c-.013-.16-.178-.3-.457-.412.303-.168.47-.346.457-.522-.043-.532-1.726-.83-3.758-.665-2.033.163-3.646.727-3.603 1.258.013.161.178.3.456.413-.303.167-.47.346-.456.522.013.16.178.3.456.412-.303.167-.47.346-.456.522.013.16.178.3.456.412-.303.168-.47.346-.456.522.019.235.359.424.908.548-.007.174-.003.364.014.574.08.98 1.18 1.747 2.637 1.747 1.456 0 2.717-1.047 2.731-2.029a4.954 4.954 0 00-.028-.64c.697-.233 1.12-.517 1.099-.793-.013-.161-.178-.3-.457-.412.303-.167.47-.346.457-.522-.013-.161-.178-.3-.457-.412.303-.168.47-.347.457-.523z" fill="#000"/><path d="M92.097 67.776a8.791 8.791 0 01-1.612-.132.05.05 0 01-.039-.057.05.05 0 01.057-.039c.714.137 1.668.167 2.686.085a11.515 11.515 0 002.252-.389.05.05 0 01.06.033.05.05 0 01-.032.061c-.647.189-1.433.324-2.272.392a13.52 13.52 0 01-1.1.046z" fill="url(#paint0_linear_77_3743)"/><path d="M92.107 66.841c-.784 0-1.485-.074-1.98-.214a.049.049 0 01.027-.094c.705.2 1.84.263 3.035.166 1.182-.095 2.285-.335 2.95-.642a.049.049 0 01.04.089c-.674.311-1.789.554-2.982.65-.373.03-.74.045-1.09.045z" fill="url(#paint1_linear_77_3743)"/><path d="M92.097 65.908c-.846 0-1.587-.087-2.087-.251a.049.049 0 01-.03-.062.048.048 0 01.061-.03c.694.228 1.87.303 3.147.2 1.183-.095 2.286-.335 2.95-.641a.049.049 0 01.066.024.049.049 0 01-.024.064c-.675.312-1.79.555-2.984.65-.377.031-.747.046-1.099.046z" fill="url(#paint2_linear_77_3743)"/><path d="M92.104 64.973c-.672 0-1.283-.054-1.758-.16a.049.049 0 01-.037-.058.049.049 0 01.058-.037c.715.159 1.743.2 2.822.113 1.172-.094 2.27-.332 2.935-.635a.049.049 0 01.04.089c-.675.307-1.784.548-2.967.643-.374.03-.742.045-1.093.045z" fill="url(#paint3_linear_77_3743)"/><path d="M88.07 59.84a6.874 6.874 0 00-1.23-2.403c-1.21-1.525-3.184-4.627-3.427-8.86-.353-6.156 5.107-9.238 10.09-8.82 4.982.419 9.898 4.129 9.36 9.857-.331 3.524-2.303 6.197-3.772 7.732a8.157 8.157 0 00-1.958 3.469c-.44 1.59-1.49 3.574-3.983 3.695-3.226.157-4.565-2.85-5.08-4.67z" fill="#74FCFD"/><path d="M93.975 63.283l1.743-11.34c.036-.233.152-.391.258-.35.106.04.163.262.127.496a.352.352 0 01-.004.02l-1.986 11.234c-.014.084-.057.138-.095.12-.037-.019-.056-.099-.043-.18zm-1.81.09l-1.744-11.34c-.036-.233-.151-.391-.257-.351-.106.04-.163.263-.127.497l.003.02 1.986 11.234c.015.084.058.138.096.12.037-.019.055-.099.043-.18z" fill="#597B8E"/><path d="M95.705 50.97c-.044-.071-.146-.098-.228-.06l-.971.454-.337-.96a.206.206 0 00-.118-.119c-.112-.046-.246-.004-.298.092l-.002.003-.798 1.456-.741-2.072-.002-.004a.238.238 0 00-.112-.126c-.124-.068-.288-.036-.366.072l-1.116 1.536c-.046.063-.03.148.039.194.074.05.18.038.237-.026l.983-1.095.885 1.97.001.002a.158.158 0 00.078.076c.083.04.187.013.232-.06l.853-1.37.322.693.002.006.008.015c.044.071.147.098.229.06l1.152-.539c.082-.038.113-.127.068-.198zm3.425 4.915a.221.221 0 01-.178-.353c.296-.4.569-.814.808-1.23a.22.22 0 11.383.222c-.248.43-.53.858-.837 1.271a.22.22 0 01-.177.09zm1.433-2.462a.221.221 0 01-.203-.31c1.842-4.242.253-7.803.237-7.839a.221.221 0 01.402-.184c.07.151 1.687 3.777-.233 8.2a.22.22 0 01-.203.133z" fill="#fff"/><path d="M63.707 134.089s-.288 1.542-.436 3.07c-.058.597.398 1.12.997 1.151 2.036.104 6.39.311 7.953.256a.343.343 0 00.306-.467.77.77 0 00-.388-.418l-7.163-3.375-1.269-.217z" fill="#000"/><path d="M63.492 133.179l.202 1.85s1.255.598 2.122-.054l-.502-2.064-1.822.268z" fill="url(#paint4_linear_77_3743)"/><path d="M63.988 98.444c-.099.481-.738 24.073 1.684 34.672a.359.359 0 01-.215.415 6.26 6.26 0 01-2.058.398.619.619 0 01-.609-.449c-.697-2.461-4.035-14.786-4.373-26.533-.38-13.126.004-.446.004-.446l.373-8.108 5.194.05zm-8.565 36.372s-.442.775-.882 2.844a.643.643 0 00.558.775c.671.072 1.706.167 2.535.17a.642.642 0 00.642-.709c-.085-.757-.36-2.001-1.234-2.977l-1.62-.103z" fill="#000"/><path d="M55.064 132.435l.485 2.799s.503.382 1.508.118l-.216-3.008-1.777.091z" fill="url(#paint5_linear_77_3743)"/><path d="M53.998 99.072c-2.181 12.43.154 30.774.967 34.368.05.22.225.39.447.429.378.066 1 .123 1.615-.049a.511.511 0 00.373-.468c.14-2.899.106-20.697 2.096-27.713.1-.355.32-.664.624-.875l3.757-2.616.327-4.285-10.206 1.21z" fill="#000"/><path d="M67.368 75.608c-6.18-.161-13.018 1.499-13.018 1.499-1.946 10.735-.544 23.151-.544 23.151 4.774 1.301 10.192-.67 10.192-.67.839-4.487 4.67-17.1 4.67-17.1 3.025-.346 5.521-1.194 7.582-2.326-1.546-1.827-2.261-4.14-2.568-5.505-2.192.659-4.408 1-6.314.95z" fill="#74FCFD"/><path d="M85.716 66.676c-.6-.739-1.373-.4-1.373-.4-.946 3.835-5.746 6.905-10.661 8.382.307 1.365 1.021 3.678 2.567 5.505 8.177-4.496 9.467-13.487 9.467-13.487z" fill="url(#paint6_linear_77_3743)"/><path d="M85.566 66.862c.062.202-.677.503-1.103-.327-.01-.397-.235-2.095.005-2.416 1.276-1.706 3.74-3.836 3.74-3.836.409.411.065.808.065.808l-1.197 1.224c.244.45.542.831.68 1.374.103.412.033.85-.178 1.221-.212.373-.5.857-.772 1.236-.516.717-1.24.716-1.24.716z" fill="url(#paint7_linear_77_3743)"/><path d="M86.55 63.11l-1.09.906-.348.908.953 1.078s.341-1.806.586-2.195c.245-.389.122-.58-.102-.696z" fill="url(#paint8_linear_77_3743)"/><path d="M56.663 83.116l-2.313-6.009s-5.813 3.869-6.81 8.834c1.091.09 3.073.393 5.008 1.393.449-2.344 4.115-4.218 4.115-4.218z" fill="#74FCFD"/><path d="M61.656 88.797s-6.518 3.602-8.676.453c-.448-.655-.55-1.301-.433-1.916-1.934-1-3.917-1.302-5.007-1.393-.3 1.497-.165 3.093.701 4.714 3.765 7.046 14.257-.252 14.257-.252l-.842-1.606z" fill="url(#paint9_linear_77_3743)"/><path d="M61.154 70.53l-2.021 5.67a.205.205 0 00.09.247c.534.301 2.458 1.177 4.8-.277a.966.966 0 00.45-.685l.685-4.918-4.004-.037z" fill="url(#paint10_linear_77_3743)"/><path d="M65.484 65.302s2.122 4.087 1.829 5.727c-.293 1.64-2.968 1.496-5.293.14l-1.592-4.406 5.056-1.46z" fill="url(#paint11_linear_77_3743)"/><path d="M62.143 69.014a.168.168 0 00.076-.245c-.17-.266-.49-.808-.589-1.281 0 0-.386-.252.994-.57 1.38-.315 3.437-.807 3.88-1.975.432-1.138-.646-4.022-2.431-1.75a.167.167 0 01-.266 0c-.285-.38-1.038-1.168-2.098-.704-.991.433-1.11 1.156-1.1 1.52a.166.166 0 01-.199.169c-.498-.1-1.695-.193-2.266 1.03-.47 1.008-.177 1.584.093 1.867a.167.167 0 01-.074.277c-.33.097-.756.372-.72 1.14.048 1.064 1.237.982 1.576.936a.168.168 0 01.148.055c.287.323 1.581 1.698 2.994 1.877a.17.17 0 00.18-.222l-.596-1.785a.168.168 0 01.093-.208l.305-.131z" fill="#000"/><path d="M62.387 69.269s-1.528-1.07-1.649-.183c-.12.888 1.373 1.3 2.118.976l-.469-.793z" fill="url(#paint12_linear_77_3743)"/><path d="M60.324 94.49l3.55-12.4a.359.359 0 01.306-.26 148.29 148.29 0 014.66-.468c2.592-.22 5.603-.397 7.402-.246.256.021.41.292.296.522-1.023 2.07-5.231 10.49-7.338 13.247a.364.364 0 01-.293.144l-8.238-.077a.363.363 0 01-.345-.463z" fill="#AED9DA"/><path d="M61.181 91.493s-.494-2.034-.295-2.755c.2-.722.586-1.65 1.875-1.443 1.288.206 2.808.749 2.808.749s-.076.94-1.056.636l.607.47s-.086.752-.913.35l.564.624s-.355.618-.964.222c-.608-.397-.9 1.392-2.626 1.147z" fill="url(#paint13_linear_77_3743)"/><path d="M68.603 85.063a1.042 1.042 0 102.085 0 1.042 1.042 0 00-2.085 0zm-4.327.687l-.266-.079.723-2.452c.118-.4.44-.7.841-.783 2.292-.478 8.327-.576 8.582-.58l.005.278c-.063 0-6.265.101-8.53.573a.842.842 0 00-.632.59l-.723 2.453zm-42.022 34.701c-.378.561-1.883 13.241-2.118 17.925a.555.555 0 001.103.111l2.751-17.632-1.736-.404zm12.095 0c.378.561 1.883 13.241 2.118 17.925a.555.555 0 01-1.103.111l-2.751-17.632 1.736-.404z" fill="#C6EEEF"/><path d="M19.979 119.462l-.002.138c-.009.995.849 1.811 1.922 1.829l12.717.217c1.058.017 1.94-.747 1.991-1.726l.007-.127c.053-1.021-.814-1.882-1.917-1.901l-12.724-.228c-1.089-.02-1.985.788-1.994 1.798zm26.791 18.453c-2.261 0-3.261-.194-3.709-.371a.858.858 0 00.835.664h7.998c.27 0 .44-.257.375-.491a70.32 70.32 0 01-5.5.198z" fill="#C6EEEF"/><path d="M52.27 137.717a.38.38 0 00-.066-.136c-.609-.778-1.833-2-3.498-1.976-2.439.035-3.29.299-5.184.015l-.447 1.482a.853.853 0 00-.014.442c.447.177 1.447.371 3.709.371 2.651 0 4.588-.124 5.5-.198z" fill="#597B8E"/><path d="M44.07 134.023l-.548 1.867s1.215.553 2.285.109l.21-1.617-1.947-.359z" fill="url(#paint14_linear_77_3743)"/><path d="M60.647 136.739c-1.762 1.416-2.663 1.892-3.122 2.035.3.234.74.254 1.066-.008l6.234-5.009a.388.388 0 00-.014-.616 70.427 70.427 0 01-4.164 3.598z" fill="#C6EEEF"/><path d="M64.812 133.141a.378.378 0 00-.136-.064c-.96-.222-2.675-.403-3.958.658-1.88 1.554-2.378 2.292-4.033 3.259l.576 1.43a.842.842 0 00.265.351c.459-.143 1.36-.619 3.122-2.035a70.99 70.99 0 004.164-3.599z" fill="#597B8E"/><path d="M32.33 112.757s13.536 1.105 16.313 2.412c2.776 1.307-2.267 19.627-2.267 19.627s-.755.364-2.437-.159c0 0 1.724-13.519.441-16.451l-14.655-2.397 2.605-3.032z" fill="#000"/><path d="M55.34 134.42c.126.114 1.345 2.573 1.345 2.573s1.357-.293 1.634-1.153l-1.221-2.219-1.758.799z" fill="url(#paint15_linear_77_3743)"/><path d="M24.178 112.644s-.44 1.061-.423 2.472c.025 1.95 1.593 3.533 3.541 3.631l16.001.729c.338.015.624.25.709.577.376 1.455 2.214 5.921 11.198 14.833a.726.726 0 00.896.098l1.279-.808a.295.295 0 00.097-.398l-9.317-15.91a3.608 3.608 0 00-2.19-1.624l-13.638-3.487-8.153-.113z" fill="#000"/><path d="M39.947 87.792s-1.714 3.03-3.462 4.499l3.613 2.016s.814-3.21 2.674-4.148l-2.825-2.367z" fill="url(#paint16_linear_77_3743)"/><path d="M23.887 112.757s4.32 1.053 8.443 0c0 0 5.77-7.756 8.001-9.867 0 0 3.56 5.618 11.485 6.415l.442-.988s-6.309-2.908-8.25-7.377c-1.943-4.469-2.723-6.374-4.49-7.54-1.1-.727-1.76-1.223-2.1-1.493a.564.564 0 00-.647-.041c-1.875 1.142-10.698 7.186-12.884 20.891z" fill="#74A1BB"/><path d="M40.098 102.781a.28.28 0 01-.22-.108c-1.376-1.794-2.142-3.771-2.174-3.854a.278.278 0 01.517-.199c.008.02.772 1.987 2.096 3.716a.277.277 0 01-.22.445z" fill="url(#paint17_linear_77_3743)"/><path d="M51.34 107.801l.892-.237 2.709-.627c.326-.076.668-.018.952.16l2.328 1.465-6.43-.011-.45-.75z" fill="url(#paint18_linear_77_3743)"/><path d="M42.668 83.248s1.666 2.769 1.955 4.3c.29 1.53.754 2.486-.989 3.032-1.742.545-3.36-.145-4.376-1.574 0 0-1.587-2.198-1.429-3.205.159-1.007 4.84-2.553 4.84-2.553z" fill="url(#paint19_linear_77_3743)"/><path d="M39.722 87.822l.225-.03s-1.18-1.782-.408-2.224c.772-.443 3.917-1.527 4.464-2.766.526-1.195-.261-2.543-1.211-2.825a.121.121 0 00-.145.076l-.056.15a.122.122 0 01-.227.007c-.041-.095-.178-.1-.22-.005-.169.372-.674 1.005-2.186 1.496-2.147.695-3.484 1.777-3.319 3.302a.122.122 0 01-.174.124c-.176-.078-.442-.09-.75.248-.538.587-.117 1.872 1.35 2.781.07.044.082.142.02.195-.22.188-.529.607.464.98 1.015.383 1.57.253 1.774.171a.122.122 0 00.075-.137l-.26-1.336a.122.122 0 01.104-.145l.48-.062z" fill="#000"/><path d="M39.814 88.096s-.735-1.812-1.507-1.175c-.772.637.713 2.045 1.4 2.026l.107-.85z" fill="url(#paint20_linear_77_3743)"/><path d="M48.856 109.823l.031.001 13.739-.013a.615.615 0 00-.001-1.228l-13.739.014a.614.614 0 00-.03 1.226z" fill="#74A1BB"/><path d="M67.947 96.37a.624.624 0 00-.014.027l-5.781 12.464a.615.615 0 101.114.516l5.78-12.463a.614.614 0 00-1.1-.545z" fill="#74A1BB"/><path d="M103.922 122.349h-1.45v15.68h1.45v-15.68z" fill="#C6EEEF"/><path d="M109.547 138.332h-12.7c0-.521.422-.944.944-.944h10.812c.521 0 .944.423.944.944zm1.885-16.528c0 .858-.702 1.56-1.56 1.56H97.023c-.857 0-1.56-.702-1.56-1.56v-1.409c0-.858.703-1.56 1.56-1.56h12.849c.858 0 1.56.702 1.56 1.56v1.409z" fill="#C6EEEF"/><path d="M92.492 111.893s-2.154.334-4.577 1.954c-.381.255-.59.699-.533 1.154.29 2.298 1.483 9.735 5.416 16.999.207.383.266.828.175 1.254l-.683 3.18-1.267 1.188h3.264l2.173-5.881-.93-.294a1.758 1.758 0 01-1.227-1.646l-.11-6.308c.094-2.811-1.723-4.75-1.723-4.75l5.213-.254-5.191-6.596z" fill="url(#paint21_linear_77_3743)"/><path d="M89.748 138.196c-.297.389 3.2.902 4.966.051 0 0 2.448-4.26 2.448-6.454 0 0-.194-.447-1.632-.345 0 0-.822 5.044-1.69 5.609-.868.565-2.43.057-2.43.057s-1.223.507-1.662 1.082z" fill="#597B8E"/><path d="M97.023 118.835c-.028-.048-5.612-.671-5.612-.671s.183 1.697-.388 4.035c-.571 2.337-8.77 12.464-8.77 12.464l.86 2.725c-2.658.926-5.273 1.074-7.846.472l5.328-3.197s4.986-16.992 8.04-20.024l5.597-1.936 2.791 6.132z" fill="url(#paint22_linear_77_3743)"/><path d="M109.546 108.948s3.218 4.785 3.482 6.968c.264 2.183-.881 3.07-4.257 3.216-3.376.146-12.388.144-12.388.144l-7.692-6.573s5.606-2.001 7.063-2.566c1.457-.565 13.792-1.189 13.792-1.189z" fill="#000"/><path d="M82.787 136.47s.926.897.3 1.894c0 0-7.331 1.3-9.322.71 0 0 .413-.943 2.655-2.017l-.166.127c-.209.161-.086.495.177.48 1.478-.084 4.535-.355 6.356-1.194z" fill="#597B8E"/><path d="M95.61 78.6c6.577-1.118 9.673 4.246 9.447 5.373-.03.15.111.276.258.236.755-.203 2.423-.46 3.457.836.913 1.144.23 2.224-.326 2.816-.134.144-.021.376.173.352 1.389-.176 4.405-.217 4.898 2.608.461 2.635-1.373 3.378-2.461 3.588-.184.035-.227.277-.069.377.543.344 1.172 1.056.917 2.46-.398 2.2-4.712 2.02-5.216 1.992a.2.2 0 01-.09-.027l-6.91-3.941a.208.208 0 01-.102-.145l-1.395-8.057a.207.207 0 01.055-.18l-4.505-6.357c-1.635-.24 1.791-1.918 1.87-1.931z" fill="#000"/><path d="M100.846 108.315s-3.747-3.568-5.591-5.931a5.013 5.013 0 01-.85-4.512c.843-2.836 2.34-5.775 2.476-6.232.209-.7 4.41-.671 4.41-.671s8.267 5.365 11.515 14.453l-3.648 1.136s-2.159-3.621-4.291-5.923c0 0 3.69 4.874 3.82 6.87l-7.841.81z" fill="#74A1BB"/><path d="M96.373 87.723c.043.146 1.14 3.78 1.226 3.856.085.076 2.404.2 3.496-.546l-2.708-5.296-2.014 1.986z" fill="url(#paint23_linear_77_3743)"/><path d="M91.977 83.052s-.53 2.082.936 4.883c1.466 2.8 3.126 2.798 4.033 1.901.908-.896 2.026-2.417 1.76-5.125-.266-2.708-5.964-4.308-6.729-1.659z" fill="url(#paint24_linear_77_3743)"/><path d="M96.679 84.858s-2.433-3.718-4.714-.792l-.04 1.065s-2.672-.317-2.204-2.767c.467-2.45 2.776-3.98 5.749-2.92 2.973 1.062 4.677 2.15 4.869 4.28.191 2.132-1.504 1.664-1.504 1.664s-.553-1.5-1.339-1.656c-.786-.156-.582 1.014-.582 1.014l-.235.112z" fill="#000"/><path d="M97.301 84.808s-1.261-1.904.031-2.188c1.293-.284 1.092 1.856.953 2.647l-.984-.459z" fill="url(#paint25_linear_77_3743)"/><path d="M93.213 108.58l2.753-2.654 3.808 1.609s3.79.587 5.96 0l2.169-.587 4.902-1.526.77 2.175a1.311 1.311 0 01-.478 1.506c-.424.301-.922.632-1.239.771-.646.282-15.915-.195-15.915-.195l-2.73-1.099z" fill="url(#paint26_linear_77_3743)"/><path d="M103.63 109.831l-.036.001-15.969-.018a.714.714 0 01-.713-.715.71.71 0 01.715-.714l15.968.017a.715.715 0 01.035 1.429z" fill="#74A1BB"/><path d="M73.27 95.333h13.3c.98 0 1.873.566 2.292 1.453l6.147 13.036H78.483a1.54 1.54 0 01-1.433-.974l-4.767-12.063a1.062 1.062 0 01.988-1.452z" fill="#74A1BB"/><path d="M82.64 102.017c.288.895.075 1.765-.476 1.942-.55.177-1.23-.405-1.52-1.3-.287-.895-.074-1.765.477-1.942.55-.178 1.23.404 1.519 1.3zm39.195 34.339s.168.93.233 2.035a.875.875 0 01-.789.925c-1.635.159-5.355.451-7.731.109a.398.398 0 01-.218-.686c.979-.913 3.345-2.688 7.238-3.076l1.267.693z" fill="#000"/><path d="M122.647 134.258l-.826 2.026a.673.673 0 01-.693.418 3.564 3.564 0 01-.675-.13.888.888 0 01-.59-1.103l.624-2.086 2.16.875z" fill="url(#paint27_linear_77_3743)"/><path d="M136.775 137.969s-1.655 1.384-2.299 3.16c-.178.489.197 1.003.717 1.003h3.405c.498 0 .88-.448.794-.939-.217-1.226-.843-3.219-2.617-3.224z" fill="url(#paint28_linear_77_3743)"/><path d="M138.825 136.167s-.334 1.48-.591 2.457a.312.312 0 01-.409.213c-.515-.184-.934-.265-1.239-.225-.141.019-.264-.098-.266-.24l-.032-2.457 2.537.252z" fill="url(#paint29_linear_77_3743)"/><path d="M130.024 102.877l-10.065 30.706s1.931 1.264 2.851 1.212l11.954-24.678s2.092 15.206 1.078 26.122l3.425.261s5.568-27.896 1.35-37.451l-10.593 3.828z" fill="#000"/><path d="M134.7 109.852l.012-.001a.096.096 0 00.085-.108l-.391-3.101a.097.097 0 00-.193.024l.391 3.101a.097.097 0 00.096.085z" fill="url(#paint30_linear_77_3743)"/><path d="M128.138 75.858s8.154.724 7 6.534c0 0 4.508 8.483 6.615 18.476a.587.587 0 01-.476.698l-13.581 2.326a.73.73 0 01-.83-.538l-3.245-12.54-1.265 5.83-4.017-1.047 3.382-17.132s.472-2.5 6.417-2.607z" fill="#74A1BB"/><path d="M123.552 90.253l.021-.002a.1.1 0 00.077-.121l-1.131-5.198a.102.102 0 00-.121-.077.1.1 0 00-.077.12l1.132 5.198c.011.047.052.08.099.08z" fill="#C6EEEF"/><path d="M124.371 105.72c.428-.235.929-.3 1.403-.183l.944.236c.201.05.4-.088.424-.294l.977-8.703c1.223.581 2.987.512 3.568.469l-2.25 10.26h-7.875l2.809-1.785z" fill="url(#paint31_linear_77_3743)"/><path d="M103.448 86.842l.238-.79c.137-.456.473-.824.914-1.002l4.305-1.731s.065-.552-.909-.928c-.975-.375-.747-1.466-.747-1.466s1.332.607 3.281 1.57c1.115.551 1.74 1.524 2.072 2.256l9.755 11.893-1.146.786a3.057 3.057 0 01-4.433-1.088l-5.285-10.133c-2.653.798-5.338.95-8.045.633z" fill="url(#paint32_linear_77_3743)"/><path d="M125.496 70.31l2.508 7.02s-2.221 1.736-3.842 1.149l-1.263-4.024c-.001 0 .965-4.918 2.597-4.145z" fill="url(#paint33_linear_77_3743)"/><path d="M118.01 67.789c0 .108 2.416 6.84 2.416 6.84l3.814-1.462-1.341-6.72c-.001 0-4.889-.469-4.889 1.342z" fill="url(#paint34_linear_77_3743)"/><path d="M122.229 68.084l.983 3.483c.013.044.02.09.02.136 0 .284-.07 1.261-1.066 1.128-.903-.12-1.729-.217-2.255.03a.505.505 0 00-.26.628c.219.612.74 1.98 1.373 3.101a.504.504 0 00.649.207c.716-.325 2.208-1.055 3.27-1.923a.504.504 0 00.179-.485c-.167-.89-.665-3.6-.686-4.377-.021-.728.797-1.285 1.157-1.494a.497.497 0 00.234-.314c.113-.47.209-1.53-1.146-1.765a.506.506 0 01-.41-.602c.114-.561.078-1.386-.987-1.69-1.083-.31-1.764.342-2.111.841a.505.505 0 01-.627.168c-.128-.058-.282-.06-.448.08a.499.499 0 01-.729-.11c-.315-.465-.889-.93-1.86-.615-1.723.557-1.641 2.544-1.009 3.624.632 1.08 2.465.37 3.334-.346.66-.544 1.665-.219 2.109-.032a.5.5 0 01.286.327z" fill="url(#paint35_linear_77_3743)"/><path d="M124.781 71.283s-1.02-1.929-.345-2.534c.674-.606 1.817-.507 1.786 1.002-.038 1.876-1.441 1.532-1.441 1.532z" fill="url(#paint36_linear_77_3743)"/><path d="M130.896 97.375c.557 0 .954-.042.997-.047l.072-.008 2.97-13.845a.102.102 0 00-.078-.12.1.1 0 00-.12.078l-2.939 13.7c-.442.04-2.801.196-4.047-.686l2.572-12.028-.537-1.012a.101.101 0 10-.179.095l.503.947-2.584 12.083.051.039c.901.676 2.35.804 3.319.804z" fill="#C6EEEF"/><path d="M41.879 139.584a.485.485 0 01-.205-.046c-.262-.123-.384-.456-.27-.742l10.85-27.531c.113-.287.417-.419.68-.296.262.123.384.455.27.742l-10.85 27.531a.518.518 0 01-.475.342z" fill="#597B8E"/><path d="M54.102 139.584a.518.518 0 01-.476-.342l-10.85-27.531c-.113-.286.008-.618.27-.742.263-.123.567.01.68.296l10.85 27.531c.114.287-.007.619-.27.742a.484.484 0 01-.204.046zm61.415 0a.484.484 0 01-.204-.046c-.263-.123-.384-.456-.271-.742l10.851-27.531c.113-.287.417-.419.68-.296.262.123.383.455.27.742l-10.85 27.531a.518.518 0 01-.476.342z" fill="#597B8E"/><path d="M127.741 139.584a.518.518 0 01-.476-.342l-10.85-27.531c-.113-.286.008-.618.27-.742.263-.123.567.01.68.296l10.851 27.531c.113.287-.009.619-.271.742a.48.48 0 01-.204.046z" fill="#597B8E"/><path d="M113.943 109.32h15.715v-1.621h-15.715c.336 0 .336 1.621 0 1.621z" fill="#C6EEEF"/><path d="M129.511 109.321a.148.148 0 00.147-.148v-1.327a.147.147 0 00-.147-.147h-15.9a.148.148 0 01-.147-.148v-.071c0-.082.066-.148.147-.148h16.947c.375 0 .679.304.679.679v1.036a.64.64 0 01-.641.64h-16.985a.148.148 0 01-.148-.148v-.071c0-.082.067-.148.148-.148h15.9v.001z" fill="#000"/><path d="M131.936 110.414c.053-.181-.019-.368-.196-.511-.176-.142-.44-.224-.718-.224H36.857c-.365 0-.706.124-.903.328-.197.204-.223.461-.07.681l1.02 1.465c.234.335.741.55 1.298.55h92.174c.518 0 .964-.243 1.062-.581l.498-1.708z" fill="#597B8E"/><defs><linearGradient id="paint0_linear_77_3743" x1="93.676" y1="59.708" x2="91.094" y2="88.184" gradientUnits="userSpaceOnUse"><stop stop-color="#53D8FF"/><stop offset="1" stop-color="#3840F7"/></linearGradient><linearGradient id="paint1_linear_77_3743" x1="93.751" y1="59.715" x2="91.169" y2="88.191" gradientUnits="userSpaceOnUse"><stop stop-color="#53D8FF"/><stop offset="1" stop-color="#3840F7"/></linearGradient><linearGradient id="paint2_linear_77_3743" x1="93.609" y1="59.702" x2="91.026" y2="88.178" gradientUnits="userSpaceOnUse"><stop stop-color="#53D8FF"/><stop offset="1" stop-color="#3840F7"/></linearGradient><linearGradient id="paint3_linear_77_3743" x1="93.685" y1="59.709" x2="91.103" y2="88.185" gradientUnits="userSpaceOnUse"><stop stop-color="#53D8FF"/><stop offset="1" stop-color="#3840F7"/></linearGradient><linearGradient id="paint4_linear_77_3743" x1="63.484" y1="134.08" x2="65.824" y2="134.103" gradientUnits="userSpaceOnUse"><stop stop-color="#FEBBBA"/><stop offset="1" stop-color="#FF928E"/></linearGradient><linearGradient id="paint5_linear_77_3743" x1="55.05" y1="133.88" x2="57.071" y2="133.899" gradientUnits="userSpaceOnUse"><stop stop-color="#FEBBBA"/><stop offset="1" stop-color="#FF928E"/></linearGradient><linearGradient id="paint6_linear_77_3743" x1="73.697" y1="73.116" x2="85.653" y2="73.229" gradientUnits="userSpaceOnUse"><stop stop-color="#FEBBBA"/><stop offset="1" stop-color="#FF928E"/></linearGradient><linearGradient id="paint7_linear_77_3743" x1="83.009" y1="71.2" x2="74.812" y2="89.378" gradientUnits="userSpaceOnUse"><stop stop-color="#FEBBBA"/><stop offset="1" stop-color="#FF928E"/></linearGradient><linearGradient id="paint8_linear_77_3743" x1="85.673" y1="65.146" x2="89.069" y2="60.031" gradientUnits="userSpaceOnUse"><stop stop-color="#FEBBBA"/><stop offset="1" stop-color="#FF928E"/></linearGradient><linearGradient id="paint9_linear_77_3743" x1="47.372" y1="89.802" x2="62.503" y2="89.946" gradientUnits="userSpaceOnUse"><stop stop-color="#FEBBBA"/><stop offset="1" stop-color="#FF928E"/></linearGradient><linearGradient id="paint10_linear_77_3743" x1="59.145" y1="73.737" x2="65.127" y2="73.794" gradientUnits="userSpaceOnUse"><stop stop-color="#FEBBBA"/><stop offset="1" stop-color="#FF928E"/></linearGradient><linearGradient id="paint11_linear_77_3743" x1="66.586" y1="70.002" x2="60.047" y2="65.927" gradientUnits="userSpaceOnUse"><stop stop-color="#FEBBBA"/><stop offset="1" stop-color="#FF928E"/></linearGradient><linearGradient id="paint12_linear_77_3743" x1="64.844" y1="71.481" x2="58.961" y2="67.816" gradientUnits="userSpaceOnUse"><stop stop-color="#FEBBBA"/><stop offset="1" stop-color="#FF928E"/></linearGradient><linearGradient id="paint13_linear_77_3743" x1="60.839" y1="89.391" x2="65.569" y2="89.391" gradientUnits="userSpaceOnUse"><stop stop-color="#FEBBBA"/><stop offset="1" stop-color="#FF928E"/></linearGradient><linearGradient id="paint14_linear_77_3743" x1="43.522" y1="135.097" x2="46.017" y2="135.097" gradientUnits="userSpaceOnUse"><stop stop-color="#FEBBBA"/><stop offset="1" stop-color="#FF928E"/></linearGradient><linearGradient id="paint15_linear_77_3743" x1="55.34" y1="135.307" x2="58.319" y2="135.307" gradientUnits="userSpaceOnUse"><stop stop-color="#FEBBBA"/><stop offset="1" stop-color="#FF928E"/></linearGradient><linearGradient id="paint16_linear_77_3743" x1="38.793" y1="93.33" x2="40.262" y2="89.626" gradientUnits="userSpaceOnUse"><stop stop-color="#FEBBBA"/><stop offset="1" stop-color="#FF928E"/></linearGradient><linearGradient id="paint17_linear_77_3743" x1="39.746" y1="99.418" x2="68.295" y2="51.836" gradientUnits="userSpaceOnUse"><stop stop-color="#09005D"/><stop offset="1" stop-color="#1A0F91"/></linearGradient><linearGradient id="paint18_linear_77_3743" x1="51.34" y1="107.733" x2="58.221" y2="107.733" gradientUnits="userSpaceOnUse"><stop stop-color="#FEBBBA"/><stop offset="1" stop-color="#FF928E"/></linearGradient><linearGradient id="paint19_linear_77_3743" x1="43.277" y1="85.798" x2="36.704" y2="92.355" gradientUnits="userSpaceOnUse"><stop stop-color="#FEBBBA"/><stop offset="1" stop-color="#FF928E"/></linearGradient><linearGradient id="paint20_linear_77_3743" x1="42.214" y1="84.732" x2="35.641" y2="91.289" gradientUnits="userSpaceOnUse"><stop stop-color="#FEBBBA"/><stop offset="1" stop-color="#FF928E"/></linearGradient><linearGradient id="paint21_linear_77_3743" x1="76.551" y1="184.684" x2="94.942" y2="111.119" gradientUnits="userSpaceOnUse"><stop stop-color="#FEBBBA"/><stop offset="1" stop-color="#FF928E"/></linearGradient><linearGradient id="paint22_linear_77_3743" x1="85.487" y1="138.156" x2="89.166" y2="83.289" gradientUnits="userSpaceOnUse"><stop stop-color="#FEBBBA"/><stop offset="1" stop-color="#FF928E"/></linearGradient><linearGradient id="paint23_linear_77_3743" x1="99.921" y1="96.993" x2="98.452" y2="87.569" gradientUnits="userSpaceOnUse"><stop stop-color="#FEBBBA"/><stop offset="1" stop-color="#FF928E"/></linearGradient><linearGradient id="paint24_linear_77_3743" x1="91.936" y1="87.003" x2="102.946" y2="83.289" gradientUnits="userSpaceOnUse"><stop stop-color="#FEBBBA"/><stop offset="1" stop-color="#FF928E"/></linearGradient><linearGradient id="paint25_linear_77_3743" x1="91.608" y1="86.032" x2="102.618" y2="82.317" gradientUnits="userSpaceOnUse"><stop stop-color="#FEBBBA"/><stop offset="1" stop-color="#FF928E"/></linearGradient><linearGradient id="paint26_linear_77_3743" x1="105.951" y1="107.692" x2="126.388" y2="107.692" gradientUnits="userSpaceOnUse"><stop stop-color="#FEBBBA"/><stop offset="1" stop-color="#FF928E"/></linearGradient><linearGradient id="paint27_linear_77_3743" x1="120.944" y1="137.25" x2="121.685" y2="131.454" gradientUnits="userSpaceOnUse"><stop stop-color="#FEBBBA"/><stop offset="1" stop-color="#FF928E"/></linearGradient><linearGradient id="paint28_linear_77_3743" x1="136.804" y1="153.389" x2="136.669" y2="167.677" gradientUnits="userSpaceOnUse"><stop stop-color="#09005D"/><stop offset="1" stop-color="#1A0F91"/></linearGradient><linearGradient id="paint29_linear_77_3743" x1="137.148" y1="139.237" x2="137.87" y2="133.589" gradientUnits="userSpaceOnUse"><stop stop-color="#FEBBBA"/><stop offset="1" stop-color="#FF928E"/></linearGradient><linearGradient id="paint30_linear_77_3743" x1="137.584" y1="114.363" x2="136.775" y2="112.745" gradientUnits="userSpaceOnUse"><stop stop-color="#4F52FF"/><stop offset="1" stop-color="#4042E2"/></linearGradient><linearGradient id="paint31_linear_77_3743" x1="131.687" y1="102.14" x2="121.562" y2="102.14" gradientUnits="userSpaceOnUse"><stop stop-color="#FEBBBA"/><stop offset="1" stop-color="#FF928E"/></linearGradient><linearGradient id="paint32_linear_77_3743" x1="122.356" y1="89.447" x2="103.448" y2="89.447" gradientUnits="userSpaceOnUse"><stop stop-color="#FEBBBA"/><stop offset="1" stop-color="#FF928E"/></linearGradient><linearGradient id="paint33_linear_77_3743" x1="129.164" y1="78.842" x2="122.583" y2="72.09" gradientUnits="userSpaceOnUse"><stop stop-color="#FEBBBA"/><stop offset="1" stop-color="#FF928E"/></linearGradient><linearGradient id="paint34_linear_77_3743" x1="119.62" y1="67.836" x2="127.825" y2="78.69" gradientUnits="userSpaceOnUse"><stop stop-color="#FEBBBA"/><stop offset="1" stop-color="#FF928E"/></linearGradient><linearGradient id="paint35_linear_77_3743" x1="132.127" y1="36.968" x2="123.471" y2="62.051" gradientUnits="userSpaceOnUse"><stop stop-color="#E1473D"/><stop offset="1" stop-color="#E9605A"/></linearGradient><linearGradient id="paint36_linear_77_3743" x1="131.637" y1="76.432" x2="125.056" y2="69.68" gradientUnits="userSpaceOnUse"><stop stop-color="#FEBBBA"/><stop offset="1" stop-color="#FF928E"/></linearGradient></defs></svg>