<svg width="148" height="148" fill="none" xmlns="http://www.w3.org/2000/svg"><path d="M51.381 69.966c.52 5.55 1.739 12.89 3.204 19.214h.92c-1.895-7.632-3.639-18.083-3.125-30.131.518-12.15 3.44-26.901-2.008-33.948-4.534-5.865-23.774-6.742-30.1-6.87-.791-.017-1.244.911-.752 1.541 2.426 3.109 7.505 10.307 7.947 16.593.583 8.286 6.906 14.789 13.188 17.496 6.283 2.707 9.666 4.772 10.726 16.105z" fill="#7FE4E4"/><path d="M28.182 23.352a30.11 30.11 0 0110.793 5.29 23.958 23.958 0 014.336 4.301c1.248 1.627 2.295 3.43 3.022 5.366l.27.726c.087.243.153.494.231.74.072.247.153.497.217.742l.192.736a199.83 199.83 0 012.136 8.88c.862 3.97 1.603 7.964 2.102 12.004a.176.176 0 01-.15.197.174.174 0 01-.193-.143v-.006a162.815 162.815 0 00-1.179-5.953c-.42-1.98-.865-3.954-1.331-5.922l-.708-2.951-.74-2.943c-.246-.98-.502-1.96-.763-2.936l-.194-.734c-.064-.244-.141-.476-.211-.715-.074-.236-.135-.477-.218-.71l-.255-.699c-.683-1.862-1.69-3.586-2.864-5.175-.604-.782-1.236-1.546-1.938-2.244l-.258-.266-.268-.256c-.18-.17-.355-.345-.538-.512-.371-.327-.738-.66-1.126-.968-1.53-1.259-3.212-2.327-4.959-3.264a31.31 31.31 0 00-5.472-2.31l-.009-.002a.142.142 0 01-.092-.177.14.14 0 01.167-.096z" fill="#fff"/><path d="M53.203 78.995c2.199 5.754 1.132 8.45.694 10.84-.078.424-.19 1.023-.303 1.735l.911.208c.034-1.005.124-2.006.294-2.97 1.168-6.608 2.268-18.092-1.74-26.026-4.01-7.936-9.93-9.928-18.949-5.607-7.516 3.601-12.067 5.246-14.503 5.188-.603-.014-1.048.581-.888 1.171.854 3.141 3.605 10.536 10.794 11.702 9.17 1.486 21.492-1.996 23.69 3.759z" fill="#C6EEEF"/><path d="M34.861 65.8a18.92 18.92 0 011.883-.982 21.376 21.376 0 011.967-.798c1.336-.468 2.727-.811 4.153-.94.713-.061 1.435-.07 2.155 0 .72.073 1.437.224 2.126.476.17.07.344.127.51.207.164.081.336.156.493.244l.924.542.887.609.84.678a12.251 12.251 0 012.693 3.373c.699 1.27 1.156 2.654 1.473 4.052l.119.525c.042.174.06.353.092.53.054.354.12.706.164 1.06l.11 1.068c.044.355.042.713.061 1.07.073 1.425.022 2.85-.065 4.268a.144.144 0 01-.15.136.141.141 0 01-.132-.14v-.006c-.012-1.412-.012-2.823-.153-4.22-.049-.702-.156-1.393-.244-2.087-.054-.345-.128-.685-.19-1.028-.035-.17-.058-.344-.104-.511l-.13-.505c-.341-1.344-.832-2.643-1.5-3.834a11.904 11.904 0 00-2.565-3.136l-.793-.633-.841-.571-.882-.511c-.147-.081-.295-.147-.442-.222-.147-.073-.304-.125-.456-.188a8.018 8.018 0 00-1.933-.447 11.19 11.19 0 00-2.017-.042c-1.354.086-2.705.368-4.03.753a26.706 26.706 0 00-3.883 1.472l-.004.002a.145.145 0 01-.194-.072.152.152 0 01.058-.191z" fill="#fff"/><path d="M44.078 38.552a6.819 6.819 0 016.819-6.819h57.987a6.008 6.008 0 016 5.702l4.28 84.071a4.431 4.431 0 01-4.344 4.655l-66.46 1.208a4.206 4.206 0 01-4.282-4.205V38.552z" fill="#000"/><path d="M48.828 33.027a1.98 1.98 0 012.247-1.975c7.918 1.074 35.149 4.395 57.662 2.667a1.832 1.832 0 011.973 1.727l4.488 84.445a2.109 2.109 0 01-1.98 2.217c-9.469.56-48.465 2.726-62.374 1.269a1.669 1.669 0 01-1.494-1.652l-.522-88.698z" fill="#6E8B9C"/><path d="M49.761 35.143a1.906 1.906 0 012.162-1.9c7.62 1.033 33.825 4.229 55.491 2.566a1.763 1.763 0 011.898 1.662l4.319 81.265a2.028 2.028 0 01-1.905 2.133c-9.113.54-46.64 2.624-60.025 1.222a1.606 1.606 0 01-1.438-1.59l-.502-85.358z" fill="#C6EEEF"/><path opacity=".58" d="M106.038 48.756H79.236a.416.416 0 01-.416-.416v-7.762c0-.23.186-.415.416-.415h26.802c.229 0 .415.186.415.416v7.761c0 .23-.186.416-.415.416zm1.165 31.12H54.949a.234.234 0 01-.234-.234v-3.016c0-.13.104-.234.234-.234h52.254c.129 0 .233.105.233.234v3.016a.234.234 0 01-.233.234zm.063 5.374h-52.38a.17.17 0 01-.171-.17v-3.143a.17.17 0 01.17-.17h52.381a.17.17 0 01.17.17v3.143a.17.17 0 01-.17.17zm1.11 30.69H54.965a.206.206 0 01-.206-.206v-3.072c0-.113.092-.205.206-.205h53.411c.114 0 .206.092.206.205v3.072a.206.206 0 01-.206.206z" fill="#fff"/><path opacity=".25" d="M106.114 72.743H55.979a1.264 1.264 0 01-1.264-1.264V52.707c0-.698.566-1.264 1.264-1.264h49.285c.676 0 1.232.532 1.262 1.207l.851 18.772c.032.72-.543 1.32-1.263 1.32z" fill="#fff"/><path d="M106.143 72.943H56.008a1.466 1.466 0 01-1.464-1.465V52.706c0-.807.657-1.464 1.464-1.464h49.285c.785 0 1.427.614 1.463 1.398l.85 18.772c.018.403-.125.786-.404 1.078a1.452 1.452 0 01-1.059.453zm-50.135-21.3c-.586 0-1.063.477-1.063 1.063v18.772c0 .587.477 1.064 1.063 1.064h50.135c.294 0 .567-.117.769-.329.203-.212.307-.49.294-.782l-.85-18.773a1.062 1.062 0 00-1.063-1.015H56.008z" fill="#fff"/><path opacity=".25" d="M106.915 110.331H56.362a1.603 1.603 0 01-1.604-1.603V90.634c0-.885.718-1.603 1.604-1.603h49.852c.861 0 1.568.68 1.602 1.541l.701 18.094a1.602 1.602 0 01-1.602 1.665z" fill="#fff"/><path d="M106.915 110.532H56.362a1.806 1.806 0 01-1.804-1.804V90.634c0-.994.81-1.803 1.804-1.803h49.852c.973 0 1.764.761 1.802 1.733l.701 18.094c.019.495-.159.963-.502 1.32a1.788 1.788 0 01-1.3.554zm-50.553-21.3c-.774 0-1.403.629-1.403 1.402v18.094c0 .774.63 1.403 1.403 1.403h50.553a1.39 1.39 0 001.011-.431c.267-.277.406-.641.39-1.026l-.701-18.094a1.398 1.398 0 00-1.401-1.348H56.362zm14.17-37.79l-.4.007.353 21.3.4-.006-.353-21.3zm19.284-.008l-.401.011.575 21.3.401-.011-.575-21.3z" fill="#fff"/><path d="M54.875 58.434l-.002.401 52.22.184.001-.401-52.22-.184zm52.217 7.569H54.874v.401h52.218v-.4zM70.394 89.034l-.264 21.299.4.005.265-21.3-.401-.004z" fill="#fff"/><path d="M108.022 94.007H54.874v.4h53.148v-.4zm.132 4.91h-53.28v.401h53.28v-.4zm-53.392 5.282l-.005.401 53.618.67.005-.401-53.618-.67z" fill="#fff"/><path d="M83.487 20.27c-2.095-1.457-3.916-1.428-5.198-1.05a2.557 2.557 0 00-1.817 2.69l.553 6.034 6.58.584s3.99-5.4-.118-8.258zm-2.894 4.87a1.64 1.64 0 110-3.281 1.64 1.64 0 010 3.28z" fill="#000"/><path d="M77.683 25.405a.159.159 0 01-.159-.144l-.088-.961a.16.16 0 01.317-.03l.088.962a.16.16 0 01-.144.173h-.014zm-.173-1.883a.159.159 0 01-.158-.144l-.067-.73a2.44 2.44 0 011.73-2.561 4.92 4.92 0 012.405-.099.159.159 0 01-.064.311 4.612 4.612 0 00-2.25.092A2.123 2.123 0 0077.6 22.62l.067.73a.159.159 0 01-.144.173h-.014z" fill="#BDD0FB"/><path d="M68.046 31.844V28.81c0-1.047.868-1.886 1.914-1.85l20.92.716a1.8 1.8 0 011.736 1.692l.174 2.916-24.744-.44z" fill="#000"/><path d="M75.846 28.103h-.9a.159.159 0 110-.318h.9a.159.159 0 110 .318zm-6.668 2.788a.159.159 0 01-.159-.158v-1.228c0-.948.772-1.72 1.72-1.72h3.307a.159.159 0 110 .318H70.74c-.773 0-1.403.629-1.403 1.402v1.228c0 .087-.07.158-.158.158z" fill="#BDD0FB"/><path d="M59.522 32.61a1.971 1.971 0 011.969-1.876l36.582-.001c1.315 0 2.439.946 2.664 2.242l.031.18a2.322 2.322 0 01-2.288 2.717H60.95a1.51 1.51 0 01-1.508-1.582l.08-1.68zm14.863 35.732c-.288 10.27-1.22 45.696-.775 58.25.047 1.33 1.251 2.397 2.754 2.441 7.43.215 34.666.761 46.819.31 2.531-.095 4.544-1.91 4.596-4.152.253-10.78.81-41.1-.514-54.99-.159-1.664-1.634-2.989-3.511-3.155-8.092-.717-35.446-2.469-45.945-1.865-1.894.108-3.377 1.482-3.424 3.16z" fill="#000"/><path d="M76.519 72.87v8.704a3.022 3.022 0 003.022 3.022h41.584a3.023 3.023 0 003.023-3.022V72.87a3.023 3.023 0 00-3.023-3.022H79.54a3.022 3.022 0 00-3.021 3.022z" fill="#C6EEEF"/><path opacity=".2" d="M122.026 72.82a1.991 1.991 0 00-1.4-.607l-38.91-.618a1.992 1.992 0 00-2.016 1.806l-.809 8.633c-.066.706 1.097 1.302 2.58 1.32l38.255.463c1.48.018 2.703-.546 2.716-1.253l.144-8.324a1.992 1.992 0 00-.56-1.42z" fill="#C6EEEF"/><path d="M86.915 93.42a2.78 2.78 0 01-2.78 2.78h-3.386a2.78 2.78 0 010-5.56h3.385a2.78 2.78 0 012.78 2.78zm12.572 0a2.78 2.78 0 01-2.78 2.78H93.32a2.78 2.78 0 110-5.56h3.385a2.78 2.78 0 012.78 2.78zm12.088 0a2.78 2.78 0 01-2.78 2.78h-3.385a2.78 2.78 0 110-5.56h3.385a2.78 2.78 0 012.78 2.78z" fill="#D4F2F3"/><path d="M123.829 93.829a2.825 2.825 0 01-2.825 2.825h-3.272a2.826 2.826 0 110-5.651h3.272a2.826 2.826 0 012.825 2.826z" fill="#74FCFD"/><path d="M86.915 102.124a2.781 2.781 0 01-2.78 2.781h-3.386a2.78 2.78 0 010-5.561h3.385a2.781 2.781 0 012.78 2.78zm12.572 0a2.781 2.781 0 01-2.78 2.781H93.32a2.78 2.78 0 010-5.561h3.385a2.781 2.781 0 012.78 2.78zm12.088 0a2.781 2.781 0 01-2.78 2.781h-3.385a2.78 2.78 0 110-5.561h3.385a2.781 2.781 0 012.78 2.78zm12.572 0a2.781 2.781 0 01-2.78 2.781h-3.385a2.78 2.78 0 110-5.561h3.385a2.781 2.781 0 012.78 2.78z" fill="#D4F2F3"/><path opacity=".8" d="M86.915 109.832a2.78 2.78 0 01-2.78 2.781h-3.386a2.78 2.78 0 010-5.561h3.385a2.78 2.78 0 012.78 2.78zm12.572 0a2.78 2.78 0 01-2.78 2.781H93.32a2.78 2.78 0 010-5.561h3.385a2.78 2.78 0 012.78 2.78zm12.088 0a2.78 2.78 0 01-2.78 2.781h-3.385a2.78 2.78 0 110-5.561h3.385a2.78 2.78 0 012.78 2.78zm-24.66 8.462a2.78 2.78 0 01-2.78 2.781h-3.386a2.78 2.78 0 010-5.561h3.385a2.78 2.78 0 012.78 2.78zm12.572 0a2.78 2.78 0 01-2.78 2.781H93.32a2.78 2.78 0 010-5.561h3.385a2.78 2.78 0 012.78 2.78zm12.088 0a2.78 2.78 0 01-2.78 2.781h-3.385a2.78 2.78 0 110-5.561h3.385a2.78 2.78 0 012.78 2.78z" fill="#74FCFD"/><path d="M122.938 118.067a3.52 3.52 0 01-3.519 3.52h-.215a3.52 3.52 0 01-3.519-3.52v-6.742a3.519 3.519 0 013.519-3.519h.215a3.52 3.52 0 013.519 3.519v6.742z" fill="#D4F2F3"/><path opacity=".7" d="M118.103 74.079a.605.605 0 01-.605.604h-1.692a.604.604 0 110-1.208h1.692c.334 0 .605.27.605.604zm0 8.221a.605.605 0 01-.605.603h-1.692a.604.604 0 110-1.208h1.692c.334 0 .605.27.605.604zm-2.66-4.837a.604.604 0 11-1.208 0v-1.692a.604.604 0 111.208 0v1.692zm0 3.385a.604.604 0 11-1.208 0v-1.692a.604.604 0 111.208 0v1.692zm4.11-3.385a.604.604 0 11-1.208 0v-1.692a.604.604 0 111.208 0v1.692zm0 3.385a.604.604 0 11-1.208 0v-1.692a.604.604 0 111.208 0v1.692z" fill="#74A1BB"/><path d="M88.535 56.219a5.241 5.241 0 100-10.482 5.241 5.241 0 000 10.482z" fill="#597B8E"/><path d="M88.535 56.044a5.067 5.067 0 100-10.133 5.067 5.067 0 000 10.133z" fill="#74A1BB"/><path opacity=".78" d="M83.995 50.203a.169.169 0 01-.21-.197 4.826 4.826 0 013.481-3.706c.284-.077.575-.128.864-.153a.17.17 0 01.184.154.168.168 0 01-.155.183c-.27.023-.54.071-.804.143a4.49 4.49 0 00-3.237 3.447.17.17 0 01-.123.13z" fill="#fff"/><path opacity=".78" d="M91.701 54.088a4.288 4.288 0 10-6.064-6.065 4.288 4.288 0 006.064 6.065z" fill="#fff"/><path d="M89.099 54.242l-.122-.45a3.801 3.801 0 01-1.338.068.27.27 0 01-.228-.268l.001-.45c0-.166.146-.29.31-.269.364.048.798.048 1.233-.07.452-.123.748-.368.663-.683-.077-.283-.383-.381-1.057-.379-.963-.002-1.713-.218-1.927-1.008-.194-.713.18-1.398 1.045-1.789l-.122-.45a.272.272 0 01.19-.334l.265-.071a.272.272 0 01.334.19l.11.405c.439-.1.775-.112 1.05-.092.14.01.248.13.248.271v.417a.27.27 0 01-.297.27 2.827 2.827 0 00-1.03.088c-.537.146-.63.41-.576.609.067.245.434.326 1.19.352 1.077.029 1.603.33 1.805 1.073.185.683-.155 1.433-1.094 1.852l.137.504a.272.272 0 01-.191.334l-.265.071a.272.272 0 01-.334-.19z" fill="#74A1BB"/><path d="M98.8 44.69a8.553 8.553 0 008.554-8.554 8.554 8.554 0 10-8.553 8.554z" fill="#597B8E"/><path d="M98.8 44.406a8.27 8.27 0 100-16.54 8.27 8.27 0 000 16.54z" fill="#74A1BB"/><path opacity=".78" d="M91.362 34.76a.159.159 0 01-.197-.185 7.76 7.76 0 015.595-5.959 7.841 7.841 0 011.39-.246.159.159 0 01.172.145.158.158 0 01-.145.172 7.522 7.522 0 00-1.333.236 7.443 7.443 0 00-5.368 5.716.16.16 0 01-.114.12z" fill="#fff"/><path opacity=".78" d="M103.97 41.212a6.999 6.999 0 10-9.898-9.897 6.999 6.999 0 009.898 9.897z" fill="#fff"/><path d="M99.72 41.464l-.198-.734c-.775.177-1.582.201-2.184.112a.44.44 0 01-.37-.438v-.736c0-.27.238-.473.505-.438a5.152 5.152 0 002.013-.115c.738-.2 1.22-.6 1.081-1.112-.126-.463-.625-.623-1.726-.62-1.572-.003-2.795-.356-3.144-1.644-.316-1.164.294-2.282 1.705-2.92l-.2-.735a.444.444 0 01.313-.544l.431-.118a.444.444 0 01.545.312l.179.66a5.667 5.667 0 011.714-.15c.23.017.406.212.406.442v.68a.443.443 0 01-.486.441 4.612 4.612 0 00-1.682.144c-.875.237-1.027.668-.939.993.109.4.709.533 1.942.575 1.758.047 2.616.539 2.945 1.752.302 1.113-.252 2.338-1.785 3.022l.223.822a.444.444 0 01-.312.545l-.431.117a.445.445 0 01-.544-.313z" fill="#74A1BB"/><path d="M109.496 61.832a8.802 8.802 0 100-17.604 8.802 8.802 0 000 17.604z" fill="#597B8E"/><path d="M109.496 61.54a8.51 8.51 0 100-17.019 8.51 8.51 0 000 17.018z" fill="#74A1BB"/><path opacity=".78" d="M101.84 51.61a.16.16 0 01-.197-.185 7.98 7.98 0 015.755-6.129 8.052 8.052 0 011.429-.252.16.16 0 01.172.144.158.158 0 01-.145.172c-.461.039-.923.12-1.373.243a7.664 7.664 0 00-5.526 5.885.159.159 0 01-.115.121z" fill="#fff"/><path opacity=".74" d="M114.815 58.254a7.202 7.202 0 10-10.187-10.185 7.202 7.202 0 0010.187 10.185z" fill="#fff"/><path d="M110.443 58.513l-.205-.756c-.797.182-1.627.208-2.247.116a.454.454 0 01-.382-.452l.002-.756c0-.278.245-.487.52-.45a5.32 5.32 0 002.071-.12c.759-.206 1.256-.617 1.112-1.144-.129-.476-.643-.64-1.775-.638-1.618-.003-2.877-.366-3.236-1.692-.325-1.196.302-2.348 1.754-3.004l-.205-.756a.457.457 0 01.322-.56l.444-.12a.457.457 0 01.56.32l.184.68a5.814 5.814 0 011.764-.155.454.454 0 01.418.455v.7c0 .269-.231.48-.5.453a4.748 4.748 0 00-1.73.148c-.901.245-1.057.687-.967 1.022.112.412.729.548 1.998.59 1.809.049 2.693.555 3.031 1.804.311 1.145-.259 2.405-1.836 3.11l.229.845a.457.457 0 01-.321.56l-.444.12a.457.457 0 01-.561-.32z" fill="#74A1BB"/><path d="M116.266 43.046a7.039 7.039 0 100-14.078 7.04 7.04 0 000 14.078z" fill="#597B8E"/><path d="M116.266 42.812a6.805 6.805 0 006.805-6.805 6.805 6.805 0 10-13.61 0 6.805 6.805 0 006.805 6.805z" fill="#74A1BB"/><path opacity=".78" d="M110.156 34.915a.173.173 0 01-.215-.202 6.426 6.426 0 014.635-4.937c.377-.102.764-.17 1.151-.203a.174.174 0 01.188.158.173.173 0 01-.158.187 6.158 6.158 0 00-1.09.193 6.084 6.084 0 00-4.387 4.671.172.172 0 01-.124.133z" fill="#fff"/><path opacity=".78" d="M120.52 40.184a5.76 5.76 0 10-8.147-8.145 5.76 5.76 0 008.147 8.145z" fill="#fff"/><path d="M117.024 40.391l-.164-.604c-.638.145-1.301.166-1.797.092a.362.362 0 01-.305-.36v-.606a.366.366 0 01.416-.36c.49.065 1.072.063 1.657-.095.607-.165 1.004-.494.889-.916-.103-.38-.514-.512-1.42-.51-1.294-.002-2.3-.293-2.588-1.353-.26-.957.242-1.877 1.403-2.402l-.164-.605a.366.366 0 01.257-.448l.356-.097a.366.366 0 01.448.257l.147.543a4.659 4.659 0 011.411-.123.364.364 0 01.334.364v.559a.364.364 0 01-.4.363 3.807 3.807 0 00-1.385.118c-.72.196-.845.55-.772.818.089.33.583.438 1.597.473 1.447.038 2.154.443 2.425 1.441.248.916-.208 1.924-1.469 2.487l.183.677a.365.365 0 01-.256.448l-.356.097a.365.365 0 01-.447-.258z" fill="#74A1BB"/><path d="M46.44 124.69s-.29 1.557-.44 3.1a1.064 1.064 0 001.007 1.163c2.056.105 6.454.314 8.033.258a.346.346 0 00.31-.471.77.77 0 00-.393-.421l-7.235-3.41-1.281-.219z" fill="url(#paint0_linear_131_32)"/><path d="M46.224 123.771l.203 1.868s1.268.605 2.143-.054l-.507-2.085-1.84.271z" fill="url(#paint1_linear_131_32)"/><path d="M46.725 88.69c-.1.486-.745 24.313 1.7 35.017a.362.362 0 01-.216.419 6.316 6.316 0 01-2.08.402.624.624 0 01-.614-.454c-.705-2.485-4.076-14.932-4.418-26.796-.382-13.256.005-.451.005-.451l.376-8.188 5.247.05z" fill="#74A1BB"/><path d="M38.074 125.424s-.447.784-.89 2.872a.648.648 0 00.563.783c.678.074 1.723.17 2.56.172a.648.648 0 00.648-.717c-.085-.764-.362-2.02-1.245-3.006l-1.636-.104z" fill="url(#paint2_linear_131_32)"/><path d="M37.712 123.02l.49 2.827s.508.386 1.522.12l-.218-3.039-1.794.092z" fill="url(#paint3_linear_131_32)"/><path d="M36.635 89.325c-2.203 12.553.156 31.08.977 34.71.05.222.227.394.451.433.381.067 1.01.124 1.63-.049a.518.518 0 00.377-.474c.143-2.926.108-20.902 2.117-27.987a1.61 1.61 0 01.63-.885l3.794-2.642.33-4.328-10.306 1.222z" fill="#74A1BB"/><path d="M50.138 65.627c-6.243-.163-13.148 1.514-13.148 1.514-1.965 10.841-.549 23.381-.549 23.381 4.822 1.314 10.294-.677 10.294-.677.846-4.53 4.717-17.27 4.717-17.27 3.054-.349 5.575-1.205 7.656-2.349-1.561-1.845-2.283-4.18-2.593-5.56-2.214.666-4.452 1.011-6.377.96z" fill="#74FCFD"/><path d="M68.668 56.606c-.606-.746-1.386-.403-1.386-.403-.956 3.872-5.803 6.973-10.767 8.464.31 1.38 1.032 3.715 2.593 5.56 8.258-4.54 9.56-13.62 9.56-13.62z" fill="url(#paint4_linear_131_32)"/><path d="M68.518 56.794c.062.204-.684.508-1.114-.33-.011-.401-.238-2.116.004-2.44 1.29-1.723 3.777-3.875 3.777-3.875.413.416.066.817.066.817l-1.21 1.236c.247.454.549.84.687 1.388.104.415.034.857-.18 1.233a14.62 14.62 0 01-.78 1.248c-.52.724-1.25.723-1.25.723z" fill="url(#paint5_linear_131_32)"/><path d="M69.51 53.005l-1.1.915-.35.917.961 1.088s.345-1.823.592-2.216c.247-.393.123-.586-.103-.704z" fill="url(#paint6_linear_131_32)"/><path d="M39.327 73.21l-2.337-6.07s-5.87 3.907-6.877 8.922c1.101.091 3.104.397 5.057 1.407.454-2.368 4.157-4.26 4.157-4.26z" fill="#74FCFD"/><path d="M44.369 78.947s-6.583 3.638-8.762.457c-.453-.66-.556-1.314-.437-1.934-1.953-1.01-3.956-1.316-5.057-1.407-.304 1.512-.166 3.124.709 4.76 3.802 7.117 14.398-.253 14.398-.253l-.851-1.623z" fill="url(#paint7_linear_131_32)"/><path d="M43.862 60.498l-2.041 5.726c-.034.095.004.2.092.25.539.304 2.481 1.188 4.847-.28a.974.974 0 00.456-.691l.69-4.967-4.044-.038z" fill="url(#paint8_linear_131_32)"/><path d="M48.236 55.219s2.142 4.127 1.847 5.783c-.296 1.656-2.998 1.511-5.346.142l-1.608-4.45 5.107-1.475z" fill="url(#paint9_linear_131_32)"/><path d="M44.861 58.967a.17.17 0 00.077-.247c-.173-.268-.495-.816-.595-1.294 0 0-.39-.255 1.004-.575 1.393-.32 3.471-.816 3.919-1.995.436-1.15-.653-4.062-2.456-1.767a.169.169 0 01-.268-.001c-.289-.383-1.049-1.179-2.119-.71-1.002.437-1.12 1.167-1.11 1.535a.168.168 0 01-.202.17c-.503-.1-1.712-.194-2.289 1.041-.474 1.018-.178 1.6.095 1.886a.169.169 0 01-.075.28c-.332.098-.763.375-.728 1.151.05 1.074 1.25.991 1.592.945a.169.169 0 01.15.055c.29.327 1.596 1.716 3.024 1.896a.17.17 0 00.181-.224l-.601-1.803a.17.17 0 01.093-.21l.309-.133z" fill="#000"/><path d="M45.108 59.224s-1.543-1.08-1.665-.184c-.122.897 1.386 1.313 2.138.986l-.473-.802z" fill="url(#paint10_linear_131_32)"/><path d="M43.024 84.696l3.501-12.229a.824.824 0 01.7-.592 158.38 158.38 0 014.4-.438c2.298-.194 4.921-.356 6.757-.29.6.022.976.656.708 1.194-1.36 2.732-4.965 9.839-6.957 12.56a.825.825 0 01-.674.338l-8.087-.076a.366.366 0 01-.348-.467z" fill="#74A1BB"/><path d="M43.45 85.502l3.501-12.229a.824.824 0 01.7-.592c.827-.094 2.502-.277 4.4-.437 2.298-.195 4.921-.357 6.757-.29.6.021.976.655.708 1.193-1.36 2.732-4.965 9.839-6.957 12.56a.825.825 0 01-.674.338l-8.087-.076a.366.366 0 01-.348-.467z" fill="#000"/><path d="M43.89 81.67s-.5-2.053-.298-2.782c.202-.729.592-1.666 1.893-1.458 1.302.208 2.837.756 2.837.756s-.078.95-1.067.644l.613.474s-.088.76-.923.354l.57.63s-.358.624-.973.223c-.614-.4-.909 1.407-2.652 1.16z" fill="url(#paint11_linear_131_32)"/><path d="M47.014 75.87l-.266-.079.73-2.477a1.13 1.13 0 01.849-.79c2.314-.482 8.41-.581 8.667-.585l.005.278c-.063 0-6.327.102-8.615.58a.85.85 0 00-.64.597l-.73 2.476z" fill="#91B3FA"/><defs><linearGradient id="paint0_linear_131_32" x1="54.872" y1="122.614" x2="27.988" y2="151.304" gradientUnits="userSpaceOnUse"><stop stop-color="#09005D"/><stop offset="1" stop-color="#1A0F91"/></linearGradient><linearGradient id="paint1_linear_131_32" x1="46.215" y1="124.681" x2="48.578" y2="124.704" gradientUnits="userSpaceOnUse"><stop stop-color="#FEBBBA"/><stop offset="1" stop-color="#FF928E"/></linearGradient><linearGradient id="paint2_linear_131_32" x1="48.955" y1="117.069" x2="22.07" y2="145.76" gradientUnits="userSpaceOnUse"><stop stop-color="#09005D"/><stop offset="1" stop-color="#1A0F91"/></linearGradient><linearGradient id="paint3_linear_131_32" x1="37.697" y1="124.479" x2="39.738" y2="124.498" gradientUnits="userSpaceOnUse"><stop stop-color="#FEBBBA"/><stop offset="1" stop-color="#FF928E"/></linearGradient><linearGradient id="paint4_linear_131_32" x1="56.529" y1="63.11" x2="68.605" y2="63.225" gradientUnits="userSpaceOnUse"><stop stop-color="#FEBBBA"/><stop offset="1" stop-color="#FF928E"/></linearGradient><linearGradient id="paint5_linear_131_32" x1="65.935" y1="61.175" x2="57.657" y2="79.534" gradientUnits="userSpaceOnUse"><stop stop-color="#FEBBBA"/><stop offset="1" stop-color="#FF928E"/></linearGradient><linearGradient id="paint6_linear_131_32" x1="68.625" y1="55.061" x2="72.055" y2="49.894" gradientUnits="userSpaceOnUse"><stop stop-color="#FEBBBA"/><stop offset="1" stop-color="#FF928E"/></linearGradient><linearGradient id="paint7_linear_131_32" x1="29.943" y1="79.962" x2="45.224" y2="80.107" gradientUnits="userSpaceOnUse"><stop stop-color="#FEBBBA"/><stop offset="1" stop-color="#FF928E"/></linearGradient><linearGradient id="paint8_linear_131_32" x1="41.833" y1="63.737" x2="47.875" y2="63.795" gradientUnits="userSpaceOnUse"><stop stop-color="#FEBBBA"/><stop offset="1" stop-color="#FF928E"/></linearGradient><linearGradient id="paint9_linear_131_32" x1="49.348" y1="59.965" x2="42.744" y2="55.85" gradientUnits="userSpaceOnUse"><stop stop-color="#FEBBBA"/><stop offset="1" stop-color="#FF928E"/></linearGradient><linearGradient id="paint10_linear_131_32" x1="47.589" y1="61.459" x2="41.647" y2="57.757" gradientUnits="userSpaceOnUse"><stop stop-color="#FEBBBA"/><stop offset="1" stop-color="#FF928E"/></linearGradient><linearGradient id="paint11_linear_131_32" x1="43.544" y1="79.547" x2="48.322" y2="79.547" gradientUnits="userSpaceOnUse"><stop stop-color="#FEBBBA"/><stop offset="1" stop-color="#FF928E"/></linearGradient></defs></svg>