<svg width="196" height="131" fill="none" xmlns="http://www.w3.org/2000/svg"><path d="M161.073 97.51s15.687-18.484 14.912-41.644c-.675-20.137-12.849-16.886-6.867-8.046 1.762 2.605 4.988 5.294 5.31 8.174 1.455 12.987-3.979 27.657-13.355 41.516z" fill="#C6EEEF"/><path d="M159.654 100.846s11.287-19.61 8.401-40.653c-2.51-18.296-12.343-13.22-6.503-6.17 1.722 2.077 4.67 3.978 5.217 6.556 2.47 11.623-.641 25.976-7.115 40.267z" fill="#C6EEEF"/><path d="M162.212 91.615s9.398-11.075 8.934-24.95c-.404-12.065-7.698-10.117-4.114-4.821 1.056 1.56 2.988 3.172 3.181 4.898.872 7.78-2.384 16.57-8.001 24.873z" fill="#C6EEEF"/><path d="M83.215 89.213s-11.056 5.803-7.094 16.761c3.136 8.679 15.471 11.319 22.598 8.096a7.173 7.173 0 016.209.144c.539.274 1.227.406 2.108.297a7.153 7.153 0 014.647 1.019c3.912 2.421 12.027 5.223 18.157-7.55 8.374-17.453-.824-26.442-.824-26.442l-45.801 7.675z" fill="url(#paint0_linear_86_162)"/><path d="M62.722 90.536s3.806-39.665-14.37-66.708a.582.582 0 00-.98.017c-3.516 5.716-24.155 42.748 15.35 66.691z" fill="#74FCFD"/><path d="M47.745 35.366a88.95 88.95 0 00.246 6.952 121.1 121.1 0 00.673 6.921c.298 2.299.644 4.59 1.077 6.866a98.966 98.966 0 001.486 6.782 91.669 91.669 0 001.936 6.664c.09.274.176.55.269.825l.29.817c.196.544.378 1.094.586 1.633l.625 1.618.155.405.167.4.335.8c.429 1.075.933 2.116 1.404 3.173.245.525.508 1.039.762 1.559l.384.779c.13.258.273.51.407.766l.815 1.534.87 1.503.437.752.465.733.922 1.475.002.004a.164.164 0 01-.27.183 65.06 65.06 0 01-6.976-12.123l-.356-.8-.178-.402-.166-.405-.657-1.626c-.218-.543-.41-1.095-.616-1.643l-.304-.823c-.097-.275-.188-.553-.282-.83-.77-2.209-1.407-4.461-1.995-6.723a97.793 97.793 0 01-2.444-13.796 97.246 97.246 0 01-.482-6.987 92.25 92.25 0 01-.04-3.501 52.27 52.27 0 01.126-3.502.163.163 0 01.325.012l.002.005z" fill="#C6EEEF"/><path d="M59.767 92.326s-13.28-43.922-37.842-50.638a.701.701 0 00-.884.655c-.181 5.267.723 33.295 38.726 49.983z" fill="#C6EEEF"/><path d="M26.046 48.839c1.129 1.913 2.327 3.792 3.542 5.656.612.929 1.224 1.859 1.846 2.781.631.916 1.252 1.84 1.892 2.75.646.907 1.283 1.82 1.934 2.721l1.977 2.69c1.345 1.772 2.69 3.546 4.082 5.28 1.363 1.76 2.807 3.453 4.22 5.17l2.19 2.52c.366.418.726.84 1.098 1.255l1.127 1.23c.754.817 1.5 1.642 2.261 2.453l2.326 2.392c.388.399.77.804 1.163 1.196l1.198 1.162 2.395 2.323.003.003a.163.163 0 01-.225.236c-3.246-3.055-6.448-6.163-9.43-9.48l-1.135-1.229c-.372-.414-.736-.837-1.104-1.255l-2.203-2.517c-1.423-1.717-2.876-3.41-4.248-5.167a199.058 199.058 0 01-7.977-10.738c-.64-.914-1.256-1.843-1.886-2.763-.62-.927-1.23-1.86-1.84-2.794a146.05 146.05 0 01-3.49-5.711.164.164 0 01.06-.224.164.164 0 01.222.058l.002.002z" fill="url(#paint1_linear_86_162)"/><path d="M158.318 59.881c-1.145 26.146-24.894 46.338-53.044 45.099-28.15-1.239-50.043-23.44-48.898-49.585 1.145-26.146 24.894-46.338 53.044-45.1 28.15 1.24 50.042 23.44 48.898 49.586z" fill="#74A1BB"/><path opacity=".22" d="M104.586 92.136c22.111 0 40.035-16.976 40.035-37.917 0-20.941-17.924-37.917-40.035-37.917-22.111 0-40.036 16.976-40.036 37.917 0 20.94 17.925 37.917 40.036 37.917z" fill="#74FCFD"/><g opacity=".68" fill="#fff"><path opacity=".68" d="M120.38 57.867c-.011 8.358-.583 16.733-2.053 24.973a90.67 90.67 0 01-1.317 6.135c-.516 2.028-1.11 4.039-1.839 6.005-.735 1.96-1.587 3.892-2.743 5.659-.583.876-1.243 1.716-2.059 2.407a5.871 5.871 0 01-1.348.871 4.044 4.044 0 01-1.573.372 3.985 3.985 0 01-1.591-.293 5.506 5.506 0 01-1.378-.824c-.835-.669-1.51-1.499-2.104-2.37-1.176-1.753-2.04-3.682-2.782-5.639-.738-1.963-1.339-3.971-1.86-5.998a89.693 89.693 0 01-1.329-6.133c-.748-4.115-1.259-8.27-1.603-12.438a163.38 163.38 0 01-.535-12.53c-.01-2.09.047-4.181.12-6.27.079-2.089.194-4.176.347-6.26.308-4.17.768-8.33 1.453-12.455a93.409 93.409 0 011.226-6.15c.483-2.035 1.045-4.053 1.742-6.028a35.36 35.36 0 011.169-2.915 21.37 21.37 0 011.497-2.766c.575-.878 1.236-1.715 2.058-2.385a5.246 5.246 0 011.36-.817 3.832 3.832 0 011.564-.279 4.135 4.135 0 011.546.363c.486.215.933.508 1.343.84.821.67 1.499 1.486 2.102 2.344 1.197 1.729 2.1 3.634 2.882 5.574.777 1.944 1.418 3.94 1.976 5.955a85.819 85.819 0 011.435 6.106c1.615 8.21 2.271 16.587 2.294 24.946zm-.616 0c.007-4.164-.151-8.33-.496-12.48-.341-4.15-.856-8.288-1.624-12.38a85 85 0 00-1.363-6.092c-.533-2.01-1.149-4-1.899-5.94-.754-1.933-1.63-3.832-2.792-5.547-.584-.852-1.242-1.661-2.034-2.32a5.845 5.845 0 00-1.288-.826 3.856 3.856 0 00-1.471-.36 3.608 3.608 0 00-1.484.28 5.024 5.024 0 00-1.298.801c-.789.657-1.429 1.484-1.984 2.353-.554.874-1.027 1.8-1.448 2.747a35.19 35.19 0 00-1.127 2.903c-.67 1.967-1.207 3.98-1.666 6.01a92.641 92.641 0 00-1.154 6.136c-.637 4.116-1.05 8.265-1.313 12.422-.264 4.157-.356 8.325-.348 12.49-.011 4.164.127 8.33.436 12.483.311 4.152.788 8.294 1.502 12.396a88.6 88.6 0 001.275 6.108c.501 2.019 1.082 4.018 1.797 5.966.72 1.944 1.561 3.856 2.698 5.578.573.854 1.224 1.664 2.013 2.307.394.318.823.594 1.287.782.463.189.959.295 1.456.278a3.678 3.678 0 001.441-.353c.456-.21.875-.5 1.261-.831.772-.664 1.41-1.484 1.971-2.346 1.117-1.735 1.947-3.652 2.658-5.6.705-1.952 1.281-3.952 1.777-5.971.494-2.02.906-4.061 1.26-6.112.709-4.102 1.18-8.244 1.492-12.397.32-4.154.466-8.32.465-12.485z"/><path opacity=".68" d="M141.411 57.867c-.028 5.382-.719 10.767-2.155 15.957-1.462 5.178-3.667 10.16-6.659 14.633a42.175 42.175 0 01-5.087 6.245 35.711 35.711 0 01-6.261 5.053 30.135 30.135 0 01-7.305 3.349 27.551 27.551 0 01-7.942 1.186c-2.686 0-5.37-.403-7.943-1.179a30.176 30.176 0 01-7.311-3.343 35.764 35.764 0 01-6.27-5.05 42.189 42.189 0 01-5.096-6.242c-2.999-4.473-5.208-9.458-6.677-14.638a58.032 58.032 0 01-1.616-7.912 63.471 63.471 0 01-.544-8.057 63.29 63.29 0 01.55-8.057c.358-2.67.897-5.316 1.621-7.91 1.473-5.178 3.685-10.159 6.686-14.628 1.5-2.232 3.2-4.332 5.097-6.236 1.896-1.904 3.992-3.612 6.267-5.04a30.26 30.26 0 017.305-3.332 27.534 27.534 0 017.931-1.184 27.56 27.56 0 017.929 1.19 30.249 30.249 0 017.299 3.338c2.273 1.43 4.366 3.14 6.259 5.044a42.048 42.048 0 015.087 6.237c2.994 4.468 5.202 9.446 6.668 14.623 1.441 5.187 2.135 10.57 2.167 15.953zm-.707 0c-.008-5.32-.669-10.648-2.069-15.784-1.408-5.13-3.529-10.08-6.448-14.532a41.672 41.672 0 00-4.971-6.227c-1.856-1.902-3.906-3.624-6.149-5.055-2.245-1.422-4.67-2.567-7.212-3.342a27.271 27.271 0 00-7.852-1.192c-2.658.011-5.31.421-7.85 1.198-2.541.777-4.964 1.924-7.207 3.348-2.24 1.433-4.287 3.155-6.14 5.06a41.64 41.64 0 00-4.962 6.227c-2.912 4.452-5.028 9.401-6.43 14.527a58.388 58.388 0 00-1.546 7.82 62.68 62.68 0 00-.518 7.953c.007 2.659.178 5.318.523 7.953a58.496 58.496 0 001.551 7.817c1.405 5.124 3.524 10.07 6.44 14.517a41.583 41.583 0 004.962 6.22c1.853 1.901 3.899 3.623 6.139 5.05a29.778 29.778 0 007.2 3.336 27.247 27.247 0 007.838 1.203 27.219 27.219 0 007.839-1.196 29.828 29.828 0 007.207-3.331c2.242-1.427 4.29-3.147 6.147-5.046a41.62 41.62 0 004.972-6.219c2.921-4.448 5.045-9.396 6.457-14.522 1.403-5.136 2.067-10.462 2.079-15.783z"/><path opacity=".68" d="M64.683 39.498l10.634-.086 10.634-.049 21.268-.04 21.267.044 10.634.054 10.633.093a.03.03 0 01.031.031.03.03 0 01-.031.031l-10.633.093-10.634.053-21.267.044-21.268-.04-10.634-.048-10.634-.086a.047.047 0 01-.046-.047c0-.027.02-.047.046-.047zM77.02 21.641c2.517-.04 5.033-.057 7.55-.086l7.549-.048c2.516-.02 5.033-.018 7.549-.025l7.549-.014 15.1.044 7.549.053c2.517.032 5.034.05 7.55.093.017 0 .03.014.03.031s-.014.03-.03.032c-2.517.042-5.034.06-7.55.092l-7.549.054-15.1.043-7.55-.014c-2.516-.006-5.032-.004-7.549-.025l-7.549-.048c-2.517-.03-5.033-.046-7.55-.086a.047.047 0 01-.045-.047c0-.028.02-.048.046-.049zM60.988 57.353l11.557-.085 11.558-.05 23.115-.04 23.115.044 11.558.054 11.557.092c.017 0 .031.015.031.032a.03.03 0 01-.031.031l-11.557.093-11.558.053-23.115.044-23.115-.04-11.558-.049-11.557-.086a.046.046 0 01-.046-.047c0-.025.02-.046.046-.046zm3.695 17.856l10.634-.086 10.634-.048 21.268-.04 21.267.044 10.634.053 10.633.093a.03.03 0 01.031.032.03.03 0 01-.031.03l-10.633.093-10.634.054-21.267.043-21.268-.04-10.634-.048-10.634-.085a.047.047 0 01-.046-.047c0-.027.02-.048.046-.048zm74.255 18.066H78.541a.163.163 0 01-.163-.163c0-.091.073-.164.163-.164h60.397c.09 0 .163.073.163.164a.162.162 0 01-.163.163z"/></g><path d="M101.413 93.295s-1.005-2.652-2.178-2.409c-1.174.243-2.458 1.147-2.458 1.147l-1.885 2.556s5.292 2.09 7.153.892c0 0 5.406.937 12.232-.186-.988-2.091-1.577-4.186-1.923-5.81-3.456 1.961-7.18 3.427-10.941 3.81z" fill="url(#paint2_linear_86_162)"/><path d="M130.048 74.063s-7.739 9.773-17.693 15.421c.346 1.625.935 3.72 1.923 5.811 5.163-.85 11.139-2.876 16.205-7.381l-.435-13.851zM26.676 78.57l15.365 38.74a4.578 4.578 0 004.905 2.847l40.291-2.983-14.513-41.196a2.568 2.568 0 00-2.459-1.659c-7.063.163-32.792.8-41.996 1.621a1.913 1.913 0 00-1.593 2.63z" fill="#000"/><path d="M45.589 118.397L30.237 79.31a1.218 1.218 0 011.104-1.665l37.943-1.443a2.3 2.3 0 012.228 1.462l13.897 38.103-39.82 2.63z" fill="#74FCFD"/><path d="M180.121 78.57l-15.365 38.74a4.58 4.58 0 01-4.905 2.847l-40.292-2.827 14.513-41.352a2.568 2.568 0 012.459-1.659c7.064.163 32.793.8 41.996 1.621a1.913 1.913 0 011.594 2.63z" fill="#000"/><path d="M161.209 118.397l15.35-39.087a1.218 1.218 0 00-1.104-1.665l-37.942-1.443a2.3 2.3 0 00-2.229 1.462l-13.896 38.103 39.821 2.63zM72.04 75.355l.481 12.938c1.364.47 2.664.836 3.902 1.11.773-2.498 2.478-5.564 3.873-7.843-5.128-1.817-8.256-6.206-8.256-6.206z" fill="#C6EEEF"/><path d="M97.637 75.135c-7.033 7.613-12.725 8.06-17.342 6.425-1.395 2.28-3.1 5.346-3.873 7.843 18.782 4.152 23.205-13.159 23.205-13.159l-1.99-1.11z" fill="url(#paint3_linear_86_162)"/><path d="M99.064 74.326s.81-.872 2.309-.597c1.499.273 2.834.796 3.768 0 .934-.797 1.262.272 1.262.272l-2.798 2.131-4.541-1.806z" fill="url(#paint4_linear_86_162)"/><path d="M97.391 75.817s.555-2.327 2.228-2.008c1.672.32 5.47 2.39 6.449 2.008.979-.38 2.23-1.294 2.872-.971l-1.13 1.41s2.908-1.682 3.408-.65l-4.838 2.73c-.001 0-7.079-.71-8.989-2.519z" fill="url(#paint5_linear_86_162)"/><path d="M47.693 117.995s-2.4-34.348 15.095-45.028c0 0 4.89-3.237 10.985 3.032s4.132 12.782-.983 18.886c-5.114 6.104-10.323 17.007-9.084 23.11H47.693z" fill="#C6EEEF"/><path d="M71.605 63.611c-.005.41-5.83 8.705-5.83 8.705s1.045 2.064 6.037 3.741l4.309-8.882-4.516-3.564z" fill="url(#paint6_linear_86_162)"/><path d="M69.314 92.093s11.053 9.28 22.988 5.23c.74-.25 1.55-.196 2.24.17l3.431 1.816a3.06 3.06 0 004.06-1.14c.476-.799.883-1.712.964-2.587l-6.714-2.724.495-.826s-3.278-.279-4.136 2.077c0 0-6.243 2.603-16.773-9.007 0 0-4.778 4.073-6.555 6.991z" fill="url(#paint7_linear_86_162)"/><path d="M68.719 92.052a.242.242 0 01-.137-.042c-4.668-3.161-6.863-8.264-6.885-8.315a.244.244 0 11.45-.191c.022.05 2.165 5.023 6.709 8.1a.246.246 0 01-.137.448zM75.65 85a.241.241 0 01-.205-.112c-.015-.022-1.437-2.242-4.146-7.105-.825-1.48-1.908-2.418-3.218-2.786-2.173-.61-4.27.56-4.291.572a.245.245 0 11-.242-.427c.093-.052 2.288-1.281 4.66-.618 1.443.403 2.626 1.42 3.518 3.02 2.7 4.848 4.115 7.058 4.13 7.08a.246.246 0 01-.073.339.252.252 0 01-.132.038z" fill="#74A1BB"/><path d="M76.191 58.858s2.073 4.774 2.212 7.28c.14 2.505.678 4.131-2.212 4.635-2.89.505-5.324-.938-6.642-3.434 0 0-2.066-3.846-1.603-5.421.462-1.575 8.245-3.06 8.245-3.06z" fill="url(#paint8_linear_86_162)"/><path d="M70.535 65.544l.165-.072c.21-.093.3-.343.194-.547-.408-.789-1.202-2.598-.175-3.02 1.322-.544 6.561-1.615 7.691-3.478 1.087-1.791.124-4.103-1.322-4.761a.2.2 0 00-.26.085l-.121.228a.196.196 0 01-.362-.037.195.195 0 00-.354-.05c-.348.556-1.285 1.46-3.794 1.924-3.565.66-5.922 2.107-5.98 4.576a.197.197 0 01-.305.163c-.263-.161-.684-.237-1.247.238-.979.825-.578 2.966 1.568 4.727.102.083.101.243-.01.315-.388.254-.969.858.534 1.663 1.555.833 2.716.765 3.162.691a.196.196 0 00.159-.236l-.477-2.171a.196.196 0 01.192-.239h.742v.001z" fill="#000"/><path d="M70.625 66.003s-.791-3.05-2.155-2.195c-1.363.855.708 3.417 1.804 3.53l.351-1.335z" fill="url(#paint9_linear_86_162)"/><path d="M94.542 97.494s2.809 2.754 3.35 2.353c.194-.143.68-.66 1.152-1.238.332-.407.367-.982.081-1.424l-.662-1.025c-.63-.977-1.983-1.182-2.858-.418-.442.386-.842.943-1.063 1.752z" fill="url(#paint10_linear_86_162)"/><path d="M138.801 117.49s-.019-12.376-7.196-25.154c-2.245-3.998-3.043-8.65-2.343-13.183l.786-5.091s9.849-3.342 20.767-.14c0 0 15.138 12.526 5.021 44.565l-17.035-.997z" fill="#000"/><path d="M131.725 67.564l2.554 6.152c.161.388.51.665.923.737 1.472.253 5.034.648 7.373-.894a.596.596 0 00.159-.837l-4.718-6.792-6.291 1.634z" fill="url(#paint11_linear_86_162)"/><path d="M138.024 96.472a.568.568 0 00-.358.814l7.388 14.203c.125.24.401.358.661.284l24.168-6.996a.569.569 0 00.388-.704l-4.164-14.449a.566.566 0 00-.689-.392l-27.394 7.24z" fill="#74A1BB"/><path d="M139.583 94.803a.596.596 0 00-.42.785l5.914 16.107a.594.594 0 00.722.366l24.095-6.975a.595.595 0 00.416-.697l-3.339-15.502a.595.595 0 00-.718-.453l-26.67 6.37z" fill="#74FCFD"/><path d="M141.682 93.178a.736.736 0 00-.605.893l4.017 17.388c.095.41.514.657.919.54l23.73-6.869a.735.735 0 00.507-.89l-3.649-14.193a.734.734 0 00-.821-.544l-24.098 3.675z" fill="#5DCACA"/><path d="M160.891 99.809c1.842-13.95-8.88-24.674-8.88-24.674l-6.379 7.455c4.844 6.053 7.146 11.598 8.197 15.955 1.394-.408 4.752-1.05 7.062 1.264z" fill="#000"/><path d="M153.829 98.708a.164.164 0 01-.159-.124c-1.304-5.403-4.052-10.75-8.166-15.89a.164.164 0 01.025-.23.162.162 0 01.229.026c4.144 5.178 6.913 10.568 8.228 16.017a.163.163 0 01-.12.198.308.308 0 01-.037.003z" fill="#74FCFD"/><path d="M153.829 98.545c.977 4.048.875 7.069.726 8.511a1.121 1.121 0 01-1.036 1.006c-.618.044-1.459.1-2.21.144-.826.048-1.743-.476-2.356-.913-.313-.223-.718.125-.543.468.457.897 1.618 1.696 2.419 2.165a.384.384 0 01-.088.7l-3.423.973c5.625 5.312 9.338-.632 9.338-.632 2.483-3.845 3.766-7.606 4.235-11.158-2.31-2.315-5.668-1.672-7.062-1.264z" fill="url(#paint12_linear_86_162)"/><path d="M134.366 58.153c-.107.102-4.527 8.802-4.527 8.802l5.009 2.425 5.411-7.623s-4.097-5.298-5.893-3.604z" fill="url(#paint13_linear_86_162)"/><path d="M137.982 62.671l-2.498 4.176a.767.767 0 01-.137.17c-.298.278-1.315 1.085-2.102-.014-.671-.937-1.299-1.788-1.973-2.14a.798.798 0 00-1.078.356c-.412.818-1.209 2.485-1.71 4.066a.798.798 0 00.463.978c1.014.412 3.018 1.157 4.797 1.403a.8.8 0 00.756-.323c.765-1.05 2.922-3.988 3.658-4.724.684-.682 1.947-.425 2.515-.262a.802.802 0 00.639-.084c.577-.348 1.583-1.216.662-2.686a.804.804 0 01.248-1.089c.644-.425 1.343-1.223.677-2.514-.675-1.308-1.879-1.425-2.699-1.325-.363.045-.731-.146-.871-.485a.526.526 0 00-.412-.325c-.43-.088-.712-.482-.628-.913.145-.74.036-1.702-1.143-2.351-2.161-1.192-4.054.75-4.536 2.388-.481 1.639 1.935 2.797 3.455 2.99 1.117.142 1.729 1.364 1.975 2.002a.798.798 0 01-.058.706z" fill="#000"/><path d="M137.221 68.154s.961-2.82 2.191-2.716c1.23.103 2.198 1.332.674 2.714-1.896 1.718-2.865.002-2.865.002z" fill="url(#paint14_linear_86_162)"/><path d="M100.937 118.895c0 .722-.583 1.308-1.304 1.308h-52.99a1.985 1.985 0 01-1.982-1.988l-.834-.971 55.02-.472a2.12 2.12 0 012.09 2.123zm4.923 0c0 .722.584 1.308 1.304 1.308h52.99c1.094 0 1.982-.89 1.982-1.988l.834-.971-55.02-.472a2.12 2.12 0 00-2.09 2.123z" fill="#000"/><path d="M122.579 68.233a.164.164 0 01-.103-.29c.166-.137.33-.277.491-.42a.164.164 0 01.231.014.165.165 0 01-.014.231c-.164.145-.331.287-.5.427a.165.165 0 01-.105.038z" fill="#6E8B9C"/><path d="M110.385 72.865a.162.162 0 01-.162-.158.163.163 0 01.158-.17c.415-.014.836-.042 1.251-.082a.163.163 0 01.032.325c-.422.042-.849.07-1.272.084h-.007zm-2.052-.036l-.011-.001a19.932 19.932 0 01-1.268-.127.162.162 0 01-.14-.183.16.16 0 01.183-.14c.412.054.832.096 1.248.124a.164.164 0 01-.012.327zm5.344-.352a.164.164 0 01-.032-.324c.407-.082.817-.178 1.221-.287a.164.164 0 01.084.316c-.409.11-.827.208-1.241.292a.134.134 0 01-.032.003zm-8.623-.146a.166.166 0 01-.038-.005c-.411-.097-.825-.21-1.23-.332a.163.163 0 01.095-.313c.4.121.807.232 1.211.328.088.02.142.109.121.197a.164.164 0 01-.159.125zm11.809-.776a.164.164 0 01-.152-.105.165.165 0 01.095-.211l.109-.043c.352-.135.705-.284 1.049-.44a.163.163 0 11.134.298 21.21 21.21 0 01-1.066.447l-.111.042a.137.137 0 01-.058.012zm-14.961-.251a.16.16 0 01-.063-.013c-.39-.164-.781-.341-1.159-.529a.164.164 0 01.145-.294c.373.185.756.36 1.141.52a.164.164 0 01-.064.316zm17.956-1.174a.164.164 0 01-.081-.305c.36-.21.718-.432 1.064-.663a.163.163 0 01.181.271c-.352.235-.716.462-1.082.675a.162.162 0 01-.082.022zm-20.9-.353a.164.164 0 01-.086-.025c-.36-.225-.716-.464-1.06-.71a.164.164 0 01-.037-.228.162.162 0 01.227-.038c.338.242.688.477 1.042.7a.163.163 0 01-.086.3zm-2.656-1.986a.164.164 0 01-.108-.04 20.18 20.18 0 01-.928-.874.163.163 0 01.23-.231c.294.294.602.584.914.86a.164.164 0 01.014.23.164.164 0 01-.122.055zm-2.295-2.394a.163.163 0 01-.127-.06c-.266-.329-.526-.67-.772-1.015a.163.163 0 01.265-.19c.243.34.498.676.76.999a.164.164 0 01-.024.23.165.165 0 01-.102.036zm-1.872-2.74a.162.162 0 01-.142-.083 20.75 20.75 0 01-.595-1.13.163.163 0 01.293-.143c.183.375.38.748.586 1.11a.164.164 0 01-.142.245zm-1.401-3.012a.163.163 0 01-.153-.107 20.65 20.65 0 01-.406-1.21.164.164 0 01.313-.095c.12.398.254.799.4 1.192a.164.164 0 01-.096.21.193.193 0 01-.058.01zm-.898-3.2a.163.163 0 01-.16-.133 20.64 20.64 0 01-.204-1.26.164.164 0 01.14-.184.164.164 0 01.183.14 21 21 0 00.2 1.242.162.162 0 01-.128.191.103.103 0 01-.031.004zm-.363-3.303a.164.164 0 01-.163-.16 21.46 21.46 0 01.006-1.277.163.163 0 01.163-.157h.006c.09.003.16.08.157.17a19.503 19.503 0 00-.006 1.256.163.163 0 01-.158.168h-.005z" fill="#6E8C9C"/><path d="M89.658 49.812l-.023-.002a.164.164 0 01-.139-.184 20 20 0 01.102-.651.163.163 0 11.321.055c-.036.213-.07.427-.1.64a.162.162 0 01-.16.142zm7.992-13.516a.164.164 0 01-.097-.294c.176-.13.354-.258.535-.384a.163.163 0 01.185.268c-.177.124-.353.25-.526.378a.156.156 0 01-.097.032z" fill="#6E8B9C"/><path d="M129.871 54.133h-.013a.163.163 0 01-.15-.176c.034-.44.053-.886.058-1.327a.164.164 0 01.163-.162h.002c.09 0 .162.075.161.165-.004.449-.024.902-.058 1.348a.164.164 0 01-.163.152zm-.038-3.51a.163.163 0 01-.162-.148c-.043-.438-.101-.88-.173-1.316a.163.163 0 01.133-.188.164.164 0 01.188.134c.073.443.132.893.176 1.338a.164.164 0 01-.147.178c-.004.002-.009.002-.015.002zm-.643-3.45a.162.162 0 01-.156-.12c-.118-.423-.252-.85-.398-1.267a.163.163 0 11.307-.108c.148.424.285.857.404 1.287a.163.163 0 01-.157.208zm-1.224-3.288a.16.16 0 01-.147-.094 20.432 20.432 0 00-.607-1.18.164.164 0 01.063-.222.162.162 0 01.221.063c.218.391.425.795.617 1.2a.164.164 0 01-.147.233zm-1.768-3.03a.162.162 0 01-.133-.068c-.254-.36-.523-.715-.8-1.057a.163.163 0 01.252-.206c.282.347.556.708.814 1.073a.163.163 0 01-.039.228.158.158 0 01-.094.03zm-2.263-2.673a.164.164 0 01-.115-.048 20.4 20.4 0 00-.971-.902.163.163 0 11.213-.247c.338.294.67.602.987.917a.164.164 0 01-.114.28zm-2.692-2.242a.16.16 0 01-.092-.03 20.17 20.17 0 00-1.112-.72.163.163 0 01.167-.28c.383.23.763.477 1.13.732a.163.163 0 01.041.227.16.16 0 01-.134.07zm-21.214-1.162a.164.164 0 01-.078-.307c.392-.213.797-.417 1.203-.604a.163.163 0 01.136.297c-.4.184-.798.384-1.184.594a.155.155 0 01-.077.02zm18.177-.582a.16.16 0 01-.068-.015c-.399-.185-.808-.36-1.219-.519a.164.164 0 01-.094-.211.164.164 0 01.211-.094c.417.161.834.34 1.239.527a.164.164 0 01-.069.312zm-14.968-.82a.164.164 0 01-.052-.318c.424-.145.858-.276 1.289-.39a.163.163 0 11.083.315c-.424.114-.85.242-1.267.384a.156.156 0 01-.053.008zm11.677-.377a.152.152 0 01-.042-.006 19.784 19.784 0 00-1.29-.3.163.163 0 01-.128-.192.162.162 0 01.192-.13c.437.088.879.19 1.31.306a.164.164 0 01-.042.322zm-8.275-.456a.163.163 0 01-.025-.325c.442-.07.891-.123 1.337-.162a.16.16 0 01.176.148.163.163 0 01-.148.177 20.227 20.227 0 00-1.34.162zm4.827-.156h-.014a19.934 19.934 0 00-1.323-.074.163.163 0 01-.159-.167c.003-.09.074-.155.167-.16.446.01.898.036 1.343.075a.164.164 0 01-.014.326z" fill="#6E8C9C"/><path d="M129.456 56.94a.164.164 0 01-.16-.198c.046-.21.089-.422.129-.635a.162.162 0 01.19-.13.163.163 0 01.13.19c-.041.216-.084.431-.132.645a.159.159 0 01-.157.128z" fill="#6E8B9C"/><path d="M124.334 57.66a.243.243 0 00-.048-.278l-2.098-2.087c.3-1.35.388-2.758.238-4.173l2.318-1.834a.245.245 0 00.079-.272l-1.169-3.354a.243.243 0 00-.23-.163l-2.953.012a12.914 12.914 0 00-2.778-3.118l.346-2.941a.244.244 0 00-.136-.248l-3.192-1.544a.242.242 0 00-.278.048l-2.081 2.103a12.851 12.851 0 00-4.163-.238l-1.83-2.324a.24.24 0 00-.27-.079l-3.346 1.172a.244.244 0 00-.163.231l.012 2.961a12.895 12.895 0 00-3.11 2.785l-2.934-.347a.244.244 0 00-.248.136l-1.539 3.2a.243.243 0 00.047.279l2.098 2.086a12.92 12.92 0 00-.237 4.174l-2.318 1.834a.244.244 0 00-.08.272l1.17 3.354a.243.243 0 00.23.163l2.953-.012a12.893 12.893 0 002.778 3.118l-.346 2.941a.245.245 0 00.135.248l3.193 1.543a.242.242 0 00.278-.047l2.081-2.103c1.347.3 2.751.389 4.163.238l1.829 2.324a.241.241 0 00.271.078l3.346-1.172a.245.245 0 00.163-.23l-.012-2.961a12.886 12.886 0 003.11-2.785l2.934.347a.242.242 0 00.247-.136l1.54-3.2z" fill="#C6EEEF"/><path d="M109.552 55.801a3.307 3.307 0 01-2.767-1.49 3.3 3.3 0 01-.48-2.493 3.298 3.298 0 011.419-2.104 3.28 3.28 0 012.487-.481 3.29 3.29 0 012.099 1.423 3.329 3.329 0 01-.939 4.597 3.284 3.284 0 01-1.819.548zm-.011-6.31a2.96 2.96 0 00-1.637.496 2.97 2.97 0 00-1.28 1.897 2.979 2.979 0 00.433 2.248 2.982 2.982 0 004.134.849 2.999 2.999 0 00.846-4.144 2.963 2.963 0 00-1.891-1.283 3.016 3.016 0 00-.605-.062z" fill="#6E8B9C"/><path d="M109.485 61.194a8.732 8.732 0 01-8.723-8.731c.001-3.612 2.253-6.999 5.841-8.255a8.636 8.636 0 016.66.379 8.673 8.673 0 014.442 4.988c.186.538.322 1.093.402 1.653l.021.158.002.02a.163.163 0 01-.326.02 8.418 8.418 0 00-.408-1.743 8.345 8.345 0 00-4.275-4.802 8.315 8.315 0 00-6.41-.364c-3.454 1.21-5.623 4.47-5.623 7.946 0 .918.151 1.852.469 2.767 1.526 4.377 6.32 6.695 10.686 5.166a8.381 8.381 0 003.675-2.55.163.163 0 11.25.21 8.704 8.704 0 01-6.683 3.138z" fill="#6E8B9C"/><path d="M90.958 37.781l-1.264-1.072a7.256 7.256 0 00-.052-2.342l1.213-1.127a.135.135 0 00.032-.155l-.801-1.821a.136.136 0 00-.136-.081l-1.649.138a7.216 7.216 0 00-1.69-1.618l.063-1.659a.137.137 0 00-.087-.132l-1.852-.72a.136.136 0 00-.153.038l-1.069 1.267a7.2 7.2 0 00-2.336.053l-1.124-1.216a.134.134 0 00-.155-.032l-1.816.803a.137.137 0 00-.08.136l.137 1.653a7.219 7.219 0 00-1.614 1.694l-1.654-.062a.136.136 0 00-.132.087l-.718 1.856a.135.135 0 00.038.153l1.264 1.072a7.256 7.256 0 00.053 2.342l-1.214 1.128a.135.135 0 00-.031.154l.801 1.822a.136.136 0 00.136.08l1.648-.137a7.214 7.214 0 001.69 1.618l-.062 1.658a.136.136 0 00.087.133l1.851.72c.054.02.116.005.153-.039l1.07-1.267a7.2 7.2 0 002.336-.053l1.124 1.217c.04.043.101.055.154.032l1.817-.804a.136.136 0 00.08-.136l-.137-1.653a7.219 7.219 0 001.614-1.694l1.654.063a.136.136 0 00.133-.087l.718-1.857a.137.137 0 00-.04-.153z" fill="#C6EEEF"/><path d="M82.511 37.632a1.922 1.922 0 01-1.52-.742 1.937 1.937 0 01.333-2.71 1.926 1.926 0 012.704.333c.653.84.504 2.056-.333 2.71a1.915 1.915 0 01-1.183.409zm-.005-3.535a1.58 1.58 0 00-.981.34 1.61 1.61 0 00-.277 2.25 1.6 1.6 0 002.849-.79 1.598 1.598 0 00-1.392-1.789 1.856 1.856 0 00-.199-.011zm8.699 7.925a.164.164 0 01-.133-.258 9.73 9.73 0 00.354-.536.163.163 0 01.277.171 9.777 9.777 0 01-.365.553.16.16 0 01-.133.07z" fill="#6E8B9C"/><path d="M82.874 46.531a.163.163 0 01-.162-.158.163.163 0 01.157-.169c.407-.013.818-.052 1.22-.113a.162.162 0 01.186.138.163.163 0 01-.136.185 10.83 10.83 0 01-1.259.117h-.006zm-2.017-.123c-.008 0-.016 0-.025-.002a10.824 10.824 0 01-1.235-.269.164.164 0 01.088-.315c.392.11.795.197 1.198.26.089.015.15.098.136.187a.165.165 0 01-.162.14zm5.217-.485a.163.163 0 01-.054-.318c.384-.137.763-.298 1.128-.48a.163.163 0 01.145.294c-.376.186-.768.353-1.164.495a.166.166 0 01-.055.009zm-8.32-.506a.155.155 0 01-.072-.017 10.91 10.91 0 01-1.096-.63.163.163 0 01.18-.274c.34.223.697.43 1.062.612.08.04.113.138.074.219a.167.167 0 01-.148.09zM88.94 44.37a.161.161 0 01-.13-.065.163.163 0 01.031-.229 10.724 10.724 0 00.933-.799.163.163 0 01.226.236 11.048 11.048 0 01-.961.823.163.163 0 01-.1.034zm-13.841-.84a.162.162 0 01-.115-.046c-.3-.292-.587-.606-.853-.934a.163.163 0 11.253-.207c.258.318.537.623.829.907a.163.163 0 01-.114.28zm-1.965-2.604a.162.162 0 01-.144-.086c-.2-.371-.379-.757-.533-1.148a.163.163 0 11.303-.12c.15.378.324.753.518 1.114a.164.164 0 01-.066.221.176.176 0 01-.078.02z" fill="#6E8C9C"/><path d="M72.044 37.84a.163.163 0 01-.16-.133c-.04-.216-.075-.436-.102-.656a.163.163 0 11.324-.04c.027.213.06.426.099.636a.163.163 0 01-.161.194zm1.912-8.335a.164.164 0 01-.13-.261 9.75 9.75 0 01.41-.52.163.163 0 11.25.21 9.719 9.719 0 00-.399.505.164.164 0 01-.131.066z" fill="#6E8B9C"/><path d="M92.59 32.431a.163.163 0 01-.154-.11 10.45 10.45 0 00-.454-1.12.163.163 0 11.295-.14c.177.374.335.762.468 1.155a.163.163 0 01-.155.215zm-1.477-2.85a.16.16 0 01-.132-.066 10.791 10.791 0 00-.764-.935.164.164 0 01.01-.232.163.163 0 01.23.01 10.94 10.94 0 01.788.964.164.164 0 01-.132.26zm-15.334-1.986a.164.164 0 01-.104-.29 10.834 10.834 0 011.007-.733.163.163 0 01.176.275 10.526 10.526 0 00-.977.71.151.151 0 01-.102.038zm13.08-.298a.16.16 0 01-.097-.032c-.322-.24-.66-.463-1.008-.665a.163.163 0 01.163-.283c.358.208.707.438 1.04.686a.164.164 0 01-.098.294zM78.537 25.96a.163.163 0 01-.06-.315c.383-.155.78-.289 1.177-.398a.164.164 0 01.086.315c-.386.106-.77.235-1.142.386a.162.162 0 01-.061.012zm7.492-.167a.163.163 0 01-.053-.01 10.41 10.41 0 00-1.16-.333.164.164 0 01.071-.319c.404.092.806.207 1.195.343.085.03.13.123.1.208a.161.161 0 01-.153.11zm-4.373-.567a.164.164 0 01-.012-.327c.282-.023.57-.035.853-.035h.004c.129 0 .257.003.386.008a.163.163 0 01-.012.326 10.614 10.614 0 00-1.219.028z" fill="#6E8C9C"/><path d="M93.121 35.026a.163.163 0 01-.162-.15c-.017-.214-.04-.43-.07-.64a.163.163 0 11.323-.046c.03.218.055.44.071.66a.163.163 0 01-.15.175l-.012.001zm-10.645 5.63a4.961 4.961 0 01-4.962-4.96 4.975 4.975 0 012.955-4.552 4.955 4.955 0 016.857 3.581.162.162 0 01-.322.033 4.634 4.634 0 00-5.173-3.665 4.61 4.61 0 00-1.141.313l-.047.02-.043.018a4.648 4.648 0 00-2.366 6.119 4.629 4.629 0 006.102 2.373 4.624 4.624 0 001.91-1.563.163.163 0 11.266.189 4.952 4.952 0 01-4.036 2.094z" fill="#6E8B9C"/><path d="M38.316 92.914a.244.244 0 01-.228-.157l-.232-.605a2448.892 2448.892 0 00-4.046-10.504 1.636 1.636 0 01.172-1.516 1.628 1.628 0 011.346-.713h6.675a.245.245 0 010 .491h-6.675c-.383 0-.727.182-.943.499a1.13 1.13 0 00-.12 1.06c.811 2.074 2.531 6.554 4.048 10.507l.232.605a.245.245 0 01-.228.333zm2.699 6.996a.241.241 0 01-.216-.134c-.028-.054-.167-.4-1.488-3.836a.245.245 0 11.456-.176 453.66 453.66 0 001.47 3.795.247.247 0 01-.222.35z" fill="#C6EEEF"/><path d="M173.264 93.275a.164.164 0 01-.151-.225l5.658-14.186a1.574 1.574 0 00-.139-1.452 1.569 1.569 0 00-1.26-.728l-10.26-.483a.163.163 0 11.015-.326l10.26.483c.626.03 1.179.35 1.519.877.339.528.4 1.167.168 1.75l-5.659 14.186a.162.162 0 01-.151.104zm-10.3-17.269h-.008l-2.074-.097a.163.163 0 01.015-.327l2.075.098a.163.163 0 01-.008.326z" fill="#74FCFD"/><path d="M136.737 113.813l-.038-.32v-.003a.084.084 0 01.072-.094.084.084 0 01.094.073v.001l.036.329a.081.081 0 11-.162.018l-.002-.004zm-.356-1.913l-.082-.314-.001-.002a.095.095 0 01.068-.117.095.095 0 01.117.068v.001l.079.319a.094.094 0 01-.068.114.094.094 0 01-.113-.068v-.001zm-.581-1.86l-.117-.303-.001-.001a.108.108 0 11.202-.076l.115.308a.106.106 0 01-.063.136.104.104 0 01-.135-.061l-.001-.003zm-.791-1.778l-.152-.286-.002-.003a.12.12 0 01.049-.162.118.118 0 01.162.049l.001.001.151.293a.117.117 0 01-.049.159.119.119 0 01-.159-.049l-.001-.002zM134 106.604l-.19-.261-.002-.003a.133.133 0 01.029-.185.131.131 0 01.184.029l.001.001.191.27a.13.13 0 01-.212.152l-.001-.003zm-1.236-1.49l-.228-.228-.003-.003a.145.145 0 010-.204.143.143 0 01.204 0l.002.001.231.237a.143.143 0 01-.003.201.142.142 0 01-.199 0l-.004-.004zm-1.457-1.269l-.262-.187-.004-.002a.157.157 0 01.181-.256l.001.001.267.195c.069.05.084.146.034.215a.153.153 0 01-.214.035l-.003-.001zm-1.646-1.002l-.29-.139-.004-.002a.17.17 0 01-.079-.226.168.168 0 01.225-.079l.001.001.297.146a.167.167 0 01-.146.301l-.004-.002zm-1.79-.712l-.309-.091-.004-.001a.182.182 0 01.101-.348l.002.001.316.096a.18.18 0 01.119.224.177.177 0 01-.221.119h-.004zm-1.88-.435l-.318-.046-.004-.001a.189.189 0 01.055-.373h.001l.326.05a.186.186 0 01.156.213.186.186 0 01-.211.157h-.005zm-1.923-.179l-.322-.008h-.003a.195.195 0 01.009-.39h.001l.33.011a.194.194 0 01-.011.388l-.004-.001zm-1.935.039l-.322.025h-.004a.201.201 0 11-.03-.402h.001l.329-.023a.2.2 0 01.03.4h-.004zm-1.925.221l-.319.053-.003.001a.21.21 0 01-.239-.173.21.21 0 01.172-.239h.002l.324-.051a.207.207 0 01.066.409h-.003zm-1.906.372l-.315.075-.002.001a.216.216 0 01-.099-.42h.001l.32-.074a.214.214 0 01.098.417l-.003.001zm-1.879.496l-.31.093-.002.001a.222.222 0 01-.127-.427h.001l.315-.092a.222.222 0 01.126.424l-.003.001zm-1.85.6l-.305.108-.002.001a.229.229 0 01-.153-.432l.002-.001.309-.108a.229.229 0 01.152.43l-.003.002zm-1.822.686l-.301.122-.001.001a.236.236 0 11-.177-.438l.002-.001.304-.12a.235.235 0 01.175.436h-.002zm-1.793.76l-.296.133-.002.001a.24.24 0 01-.319-.122.244.244 0 01.121-.321l.002-.001.299-.131a.24.24 0 01.318.124.242.242 0 01-.122.317h-.001zm-1.779.816l-.3.133a.249.249 0 01-.2-.455l.001-.001.002-.001.297-.129.002-.001a.247.247 0 11.198.454zm-1.817.756l-.306.118a.25.25 0 01-.324-.145.252.252 0 01.145-.325h.002l.302-.116.002-.001a.25.25 0 01.323.144.252.252 0 01-.144.325zm-1.846.677l-.31.107a.253.253 0 01-.32-.157.254.254 0 01.157-.321h.001l.002-.001.307-.105.001-.001a.252.252 0 11.162.478zm-1.867.613l-.312.096a.254.254 0 01-.15-.486h.002l.31-.096h.001a.255.255 0 01.149.486zm-1.882.558l-.315.088a.256.256 0 01-.137-.493h.001l.313-.088h.001a.255.255 0 01.137.493zm-1.895.51l-.317.081a.258.258 0 01-.127-.499h.002l.315-.08a.255.255 0 01.312.186.256.256 0 01-.185.312zm-1.905.469l-.319.075a.26.26 0 01-.117-.505h.002l.317-.073a.258.258 0 01.117.503zm-1.913.431l-.32.068a.261.261 0 01-.108-.511l.32-.067a.26.26 0 01.108.51zm-1.921.396l-.32.063a.263.263 0 01-.101-.516l.32-.062a.263.263 0 01.101.515zm-1.927.363l-.321.057a.264.264 0 01-.093-.52l.322-.057a.264.264 0 01.092.52zm-1.932.333l-.322.052a.264.264 0 01-.304-.22.265.265 0 01.219-.305l.322-.051a.264.264 0 01.304.219.267.267 0 01-.219.305zm-1.958.306l-.324.047a.266.266 0 01-.302-.225.268.268 0 01.225-.304l.323-.047a.268.268 0 01.078.529zm-1.977.279l-.324.042a.27.27 0 01-.07-.534l.323-.042a.269.269 0 01.071.534zm-1.994.252l-.325.038a.27.27 0 01-.063-.538l.324-.037a.27.27 0 01.064.537zm-1.948.219l-.324.034a.272.272 0 01-.299-.243.272.272 0 01.243-.299l.324-.033a.272.272 0 01.056.541zm-1.95.193l-.325.029a.274.274 0 01-.05-.546h.001l.324-.028a.272.272 0 01.297.247.274.274 0 01-.247.298zm-1.953.167l-.325.025a.275.275 0 01-.296-.254.275.275 0 01.254-.296l.325-.025a.275.275 0 01.042.55zm-1.955.14l-.326.021a.277.277 0 01-.036-.553l.325-.021a.277.277 0 01.037.553zm-1.957.115l-.326.016a.279.279 0 01-.028-.557l.325-.016a.279.279 0 01.03.557zm-1.958.088l-.327.012a.281.281 0 01-.02-.561l.326-.011a.28.28 0 11.02.56zm-1.96.059l-.326.008a.28.28 0 01-.012-.559l.326-.008a.28.28 0 01.014.559h-.002zm-1.96.03l-.326.003a.279.279 0 01-.28-.276.28.28 0 01.276-.28l.325-.003a.278.278 0 01.006.556zm-1.96.004l-.327-.003a.276.276 0 01.004-.552l.326.001a.277.277 0 01-.002.553v.001zm-1.96-.026l-.327-.007a.274.274 0 01.013-.549l.326.007a.274.274 0 11-.01.549h-.002zm-1.96-.055l-.326-.012a.274.274 0 01.02-.546l.326.012a.273.273 0 01-.017.546h-.003zm-1.959-.086l-.326-.018a.271.271 0 01.03-.542l.324.017a.271.271 0 01-.027.543zm-1.957-.118l-.326-.023a.27.27 0 01.038-.539l.325.023a.268.268 0 01.25.287.27.27 0 01-.286.252zm-1.955-.151l-.325-.029a.268.268 0 01.047-.534l.324.028a.268.268 0 01-.044.535h-.002zM55 111.841l-.325-.034a.267.267 0 01.057-.531l.324.034a.266.266 0 01.237.293.265.265 0 01-.293.238zm-1.949-.223l-.324-.042a.264.264 0 01.066-.525h.001l.323.04h.001a.265.265 0 01-.067.527zm-1.944-.263l-.324-.048a.263.263 0 01.077-.522h.001l.322.047a.265.265 0 01-.076.523zm-1.937-.306l-.323-.056a.261.261 0 11.088-.516l.322.054a.26.26 0 01.214.302.262.262 0 01-.302.216zm-1.932-.351l-.32-.063a.26.26 0 01.1-.511l.319.062a.261.261 0 01-.099.512zm-1.923-.398l-.319-.072a.258.258 0 01.112-.505h.001l.318.071a.259.259 0 01-.112.506zm-1.911-.452l-.317-.081a.257.257 0 01.126-.498l.316.079h.001a.257.257 0 01.186.312.257.257 0 01-.312.188zm-1.897-.508l-.314-.091a.256.256 0 01-.175-.316.254.254 0 01.315-.174l.313.088.001.001a.256.256 0 01-.14.492zm-1.882-.57l-.31-.102a.254.254 0 01.156-.483l.31.1.001.001a.254.254 0 01-.157.484zm-1.859-.639l-.307-.113a.252.252 0 01.174-.473h.001l.305.112.002.001a.252.252 0 11-.175.473zm-1.834-.712l-.303-.127a.251.251 0 01.193-.463l.001.001.3.125.001.001a.251.251 0 01-.192.463zm-1.801-.797l-.296-.141a.248.248 0 01-.117-.33.246.246 0 01.329-.116l.294.138.001.001a.248.248 0 01-.21.449l-.001-.001zm-1.758-.888l-.288-.158a.242.242 0 01.23-.425l.002.001.285.154h.002a.244.244 0 01-.23.428h-.001zm-1.706-.99l-.278-.175a.238.238 0 01.253-.403l.001.001.275.171.003.001a.238.238 0 11-.251.406l-.003-.001zm-1.639-1.098l-.265-.195a.234.234 0 01-.051-.326.232.232 0 01.325-.05h.001l.262.19.002.002a.234.234 0 01-.273.379h-.001zm-1.556-1.218l-.25-.216a.228.228 0 01.296-.346l.002.002.245.209.003.003a.228.228 0 11-.295.348h-.001zm-1.452-1.345l-.229-.236a.222.222 0 01.005-.315.221.221 0 01.314.004l.002.002.226.231.002.002a.224.224 0 01-.32.314v-.002zm-1.319-1.476l-.205-.26a.218.218 0 01.035-.305.217.217 0 01.306.034l.002.003.202.252.002.003a.218.218 0 11-.34.275l-.002-.002zM23.54 98l-.175-.279a.214.214 0 01.066-.294.213.213 0 01.294.066l.002.003.173.272.003.003a.214.214 0 01-.36.231l-.002-.001zm-.975-1.726l-.143-.299a.208.208 0 11.375-.181l.002.003.141.29.002.004a.21.21 0 01-.097.28.208.208 0 01-.279-.097h-.001zm-.769-1.829l-.107-.312a.203.203 0 11.385-.132v.003l.107.305.001.004a.204.204 0 11-.385.134l-.001-.002zm-.55-1.905l-.07-.324a.198.198 0 11.387-.085v.002l.07.316.001.004a.2.2 0 11-.388.086zm-.33-1.955l-.034-.328a.193.193 0 11.385-.04v.002l.035.322v.003a.195.195 0 11-.387.043l.001-.002zm-.121-1.975v-.33a.189.189 0 11.376-.002v.002l.003.324v.004a.19.19 0 11-.379.003v-.002zm.069-1.978l.028-.328a.184.184 0 11.366.032v.002l-.027.323v.002a.185.185 0 11-.368-.03zm.24-1.961l.055-.324a.178.178 0 01.35.058v.003l-.051.32v.003a.18.18 0 11-.353-.057l-.001-.003zm.39-1.934l.078-.319a.169.169 0 01.328.08v.001l-.075.316v.002a.17.17 0 11-.332-.079h.001zm.518-1.901l.097-.314a.16.16 0 01.306.094v.002l-.094.311v.002a.163.163 0 01-.203.109.163.163 0 01-.108-.202l.002-.002zm.627-1.866l.114-.308a.151.151 0 11.284.105v.001l-.111.307v.001a.154.154 0 11-.289-.105l.002-.002zm.721-1.832l.128-.301a.143.143 0 01.188-.076.144.144 0 01.076.188l-.126.301v.001a.145.145 0 11-.267-.112h.001zm.803-1.794l.141-.295a.134.134 0 01.179-.064.135.135 0 01.064.179l-.139.296a.136.136 0 11-.247-.114l.002-.002zm.873-1.76l.152-.29a.126.126 0 11.224.117l-.15.29a.127.127 0 11-.226-.115v-.002zm.936-1.728l.161-.284a.118.118 0 01.16-.044.118.118 0 01.045.16l-.159.284a.119.119 0 11-.208-.115zm.99-1.696l.17-.28a.108.108 0 01.148-.036.11.11 0 01.037.15l-.168.28a.11.11 0 11-.189-.112l.002-.002zM28 68.495l.177-.275a.1.1 0 01.138-.03.1.1 0 01.03.138l-.174.275a.102.102 0 01-.172-.109zm1.078-1.639l.184-.27a.09.09 0 01.127-.025.093.093 0 01.024.128l-.18.271a.093.093 0 01-.155-.102v-.002zm1.119-1.612l.19-.266a.082.082 0 01.115-.019.083.083 0 01.02.115l-.187.268a.085.085 0 01-.117.021.085.085 0 01-.021-.117v-.002z" fill="#74A1BB"/><path d="M48.553 87.513l-.306-.928v-.003a.14.14 0 11.266-.088l.306.935a.14.14 0 11-.265.087l-.001-.002z" fill="url(#paint15_linear_86_162)"/><path d="M47.594 84.74l-.33-.924a.144.144 0 11.272-.097l.328.924a.143.143 0 01-.087.183.143.143 0 01-.183-.086z" fill="url(#paint16_linear_86_162)"/><path d="M46.62 81.96l-.304-.934a.148.148 0 11.282-.092l.001.002.3.931.001.002a.147.147 0 01-.28.092z" fill="url(#paint17_linear_86_162)"/><path d="M45.756 79.142l-.254-.95a.154.154 0 01.108-.188.153.153 0 01.187.108v.003l.25.945v.003a.151.151 0 01-.108.185.149.149 0 01-.183-.106z" fill="url(#paint18_linear_86_162)"/><path d="M45.058 76.274l-.19-.966a.157.157 0 11.307-.06l.002.004.185.959v.003a.155.155 0 01-.122.182.154.154 0 01-.182-.122z" fill="url(#paint19_linear_86_162)"/><path d="M44.56 73.364l-.118-.977a.16.16 0 01.14-.179.16.16 0 01.177.14l.001.005.115.969v.004a.159.159 0 11-.315.038z" fill="url(#paint20_linear_86_162)"/><path d="M44.276 70.425l-.046-.984a.165.165 0 01.156-.172.165.165 0 01.171.156v.005l.044.976v.004a.164.164 0 01-.155.17.163.163 0 01-.17-.155z" fill="url(#paint21_linear_86_162)"/><path d="M44.207 67.472l.023-.984a.168.168 0 11.335.008v.004l-.025.977v.004a.167.167 0 01-.333-.009z" fill="url(#paint22_linear_86_162)"/><path d="M44.343 64.523l.09-.98a.172.172 0 11.342.03v.006l-.091.972v.004a.17.17 0 11-.34-.032z" fill="url(#paint23_linear_86_162)"/><path d="M44.675 61.59l.15-.973a.175.175 0 11.347.053v.005l-.153.965v.003a.174.174 0 11-.344-.054z" fill="url(#paint24_linear_86_162)"/><path d="M45.183 58.682l.206-.963a.179.179 0 01.214-.138.18.18 0 01.137.215v.004l-.208.955v.003a.177.177 0 01-.213.137.18.18 0 01-.136-.213z" fill="url(#paint25_linear_86_162)"/><path d="M45.855 55.807l.265-.949a.184.184 0 11.354.1v.004l-.266.94-.001.004a.183.183 0 01-.352-.1z" fill="url(#paint26_linear_86_162)"/><path d="M46.715 52.981l.33-.928a.188.188 0 01.238-.114.189.189 0 01.114.24l-.001.004-.33.92-.001.004a.186.186 0 11-.35-.126z" fill="url(#paint27_linear_86_162)"/><path d="M47.767 50.221l.393-.902a.192.192 0 11.35.153v.005l-.393.894-.001.004a.19.19 0 11-.349-.154z" fill="url(#paint28_linear_86_162)"/><path d="M49.007 47.541l.454-.874a.196.196 0 01.346.18v.001l-.002.004-.452.866-.002.003a.194.194 0 11-.344-.18z" fill="url(#paint29_linear_86_162)"/><path d="M50.425 44.95l.51-.841a.2.2 0 01.34.207v.001l-.002.004-.509.833-.002.004a.197.197 0 01-.272.066.2.2 0 01-.065-.273z" fill="url(#paint30_linear_86_162)"/><path d="M52.013 42.46l.564-.805a.203.203 0 11.332.234l-.002.005-.562.797-.002.003a.202.202 0 01-.33-.233z" fill="url(#paint31_linear_86_162)"/><path d="M53.759 40.08l.615-.767a.203.203 0 01.287-.031c.088.07.101.2.03.287l-.002.003-.61.761-.003.003a.203.203 0 11-.317-.255z" fill="url(#paint32_linear_86_162)"/><path d="M55.653 37.817l.662-.728a.205.205 0 01.303.276l-.004.003-.656.721-.003.003a.205.205 0 11-.302-.275z" fill="url(#paint33_linear_86_162)"/><path d="M57.682 35.675l.704-.687a.206.206 0 01.287.295l-.004.004-.699.68-.003.003a.206.206 0 01-.29-.004.208.208 0 01.005-.291z" fill="url(#paint34_linear_86_162)"/><path d="M59.834 33.658l.743-.644a.207.207 0 11.27.314l-.003.002-.737.639-.004.002a.207.207 0 01-.27-.313z" fill="url(#paint35_linear_86_162)"/><path d="M62.1 31.77l.778-.6a.208.208 0 01.253.33l-.003.001-.773.596-.003.002a.207.207 0 11-.252-.33z" fill="url(#paint36_linear_86_162)"/><path d="M64.468 30.013l.81-.555a.209.209 0 11.235.344l-.003.003-.805.55-.003.003a.207.207 0 01-.289-.055.21.21 0 01.055-.29z" fill="url(#paint37_linear_86_162)"/><path d="M66.928 28.39l.84-.51a.21.21 0 01.217.359h-.003l-.834.507-.003.002a.21.21 0 01-.217-.358z" fill="url(#paint38_linear_86_162)"/><path d="M69.474 26.904l.865-.466a.21.21 0 01.198.372l-.003.002-.86.46-.003.002a.21.21 0 01-.283-.087.209.209 0 01.085-.283z" fill="url(#paint39_linear_86_162)"/><path d="M72.095 25.555l.889-.417a.21.21 0 11.179.382l-.003.002-.882.415-.004.001a.21.21 0 01-.28-.101.21.21 0 01.1-.282z" fill="url(#paint40_linear_86_162)"/><path d="M74.783 24.35l.91-.37a.211.211 0 01.276.116.213.213 0 01-.117.276l-.003.002-.903.367-.004.001a.212.212 0 01-.159-.393z" fill="url(#paint41_linear_86_162)"/><path d="M77.532 23.289l.929-.321a.212.212 0 11.139.402l-.004.002-.922.318-.004.001a.212.212 0 11-.138-.402z" fill="url(#paint42_linear_86_162)"/><path d="M80.335 22.378l.945-.27a.214.214 0 01.117.411l-.004.002-.938.267h-.004a.212.212 0 01-.263-.146.213.213 0 01.147-.264z" fill="url(#paint43_linear_86_162)"/><path d="M83.183 21.622l.958-.216a.213.213 0 01.255.163.214.214 0 01-.162.256l-.004.001-.95.214h-.004a.214.214 0 11-.093-.418z" fill="url(#paint44_linear_86_162)"/><path d="M86.07 21.03l.968-.161a.215.215 0 01.07.425l-.004.001-.961.159h-.004a.216.216 0 01-.07-.425z" fill="url(#paint45_linear_86_162)"/><path d="M88.986 20.605l.977-.102a.215.215 0 01.237.193.215.215 0 01-.193.238h-.005l-.968.1-.005.001a.216.216 0 11-.043-.43z" fill="url(#paint46_linear_86_162)"/><path d="M91.924 20.36l.982-.039a.217.217 0 01.017.435h-.005l-.972.039h-.005a.216.216 0 01-.225-.208.216.216 0 01.208-.226z" fill="url(#paint47_linear_86_162)"/><path d="M94.871 20.308l.983.026a.22.22 0 01.212.224.217.217 0 01-.224.212h-.005l-.972-.027h-.005a.217.217 0 01-.211-.224.217.217 0 01.222-.211z" fill="url(#paint48_linear_86_162)"/><path d="M97.817 20.457l.979.098c.12.012.207.12.195.24a.218.218 0 01-.239.196h-.004l-.968-.099h-.006a.218.218 0 11.043-.434z" fill="url(#paint49_linear_86_162)"/><path d="M100.744 20.813l.97.16a.22.22 0 01-.07.433h-.005l-.961-.158-.004-.001a.22.22 0 01-.181-.253c.019-.12.131-.2.251-.18z" fill="url(#paint50_linear_86_162)"/><path d="M103.643 21.35l.959.22a.221.221 0 01-.099.431h-.004l-.949-.22h-.005a.22.22 0 01-.165-.264.219.219 0 01.263-.166z" fill="url(#paint51_linear_86_162)"/><path d="M106.502 22.074l.942.283a.221.221 0 01-.126.425l-.005-.001-.932-.28-.005-.002a.221.221 0 01-.148-.276.219.219 0 01.274-.149z" fill="url(#paint52_linear_86_162)"/><path d="M109.308 22.983l.921.344a.223.223 0 01-.155.417l-.005-.002-.911-.341-.005-.002a.222.222 0 01.155-.416z" fill="url(#paint53_linear_86_162)"/><path d="M112.048 24.076l.896.403c.113.05.163.183.112.295a.222.222 0 01-.295.112l-.004-.001-.888-.4-.005-.002a.224.224 0 01.184-.407z" fill="url(#paint54_linear_86_162)"/><path d="M114.711 25.343l.869.46a.225.225 0 01-.209.398l-.004-.003-.861-.456-.004-.002a.225.225 0 01-.093-.303.223.223 0 01.302-.094z" fill="url(#paint55_linear_86_162)"/><path d="M117.288 26.778l.84.513a.225.225 0 01.074.31.225.225 0 01-.309.075l-.004-.002-.831-.51-.004-.002a.225.225 0 01.234-.384z" fill="url(#paint56_linear_86_162)"/><path d="M119.775 28.365l.807.56a.226.226 0 01.057.315.224.224 0 01-.313.057l-.003-.002-.801-.556-.003-.002a.226.226 0 01.256-.372z" fill="url(#paint57_linear_86_162)"/><path d="M122.167 30.089l.777.602a.227.227 0 01-.277.36l-.003-.003-.771-.599-.003-.002a.227.227 0 01.277-.358z" fill="url(#paint58_linear_86_162)"/><path d="M124.466 31.935l.746.639a.228.228 0 01-.295.346l-.002-.003-.74-.635-.003-.002a.227.227 0 01-.024-.32.224.224 0 01.318-.025z" fill="url(#paint59_linear_86_162)"/><path d="M126.676 33.886l.718.67a.23.23 0 01.011.324.227.227 0 01-.322.01l-.003-.002-.712-.667-.003-.002a.228.228 0 11.311-.333z" fill="url(#paint60_linear_86_162)"/><path d="M128.803 35.926l.691.697a.229.229 0 11-.325.323l-.001-.002-.688-.693-.001-.002a.229.229 0 01.324-.323z" fill="url(#paint61_linear_86_162)"/><path d="M130.853 38.04l.668.72a.23.23 0 01-.335.315l-.002-.002-.665-.716-.002-.002a.23.23 0 01.336-.314z" fill="url(#paint62_linear_86_162)"/><path d="M132.837 40.217l.649.737a.231.231 0 01-.021.326.23.23 0 01-.325-.02l-.002-.002-.646-.735-.002-.001a.23.23 0 11.347-.305z" fill="url(#paint63_linear_86_162)"/><path d="M134.767 42.44l.632.75a.232.232 0 01-.353.3l-.001-.001-.631-.748h-.001a.233.233 0 01.354-.3z" fill="url(#paint64_linear_86_162)"/><path d="M136.654 44.698l.621.758a.232.232 0 11-.358.296h-.001l-.62-.758h-.001a.232.232 0 11.359-.296z" fill="url(#paint65_linear_86_162)"/><path d="M138.511 46.978l.615.763a.233.233 0 11-.363.294l-.614-.762a.233.233 0 01.362-.295z" fill="url(#paint66_linear_86_162)"/><path d="M140.355 49.268l.615.763a.234.234 0 11-.364.294l-.614-.762a.236.236 0 01.034-.33.233.233 0 01.329.035z" fill="url(#paint67_linear_86_162)"/><path d="M142.203 51.551l.62.758a.234.234 0 11-.362.299l-.621-.759a.235.235 0 11.363-.298z" fill="url(#paint68_linear_86_162)"/><path d="M144.075 53.812l.633.744.002.002a.236.236 0 11-.358.306l-.635-.747a.236.236 0 11.359-.306h-.001z" fill="url(#paint69_linear_86_162)"/><path d="M145.995 56.028l.656.723.002.002a.237.237 0 01-.35.32l-.66-.73a.237.237 0 01.017-.334.235.235 0 01.333.016l.002.003z" fill="url(#paint70_linear_86_162)"/><path d="M147.992 58.168l.689.69.003.003a.237.237 0 11-.336.337l-.695-.697a.239.239 0 010-.336.236.236 0 01.335 0l.004.003z" fill="url(#paint71_linear_86_162)"/><path d="M150.101 60.191l.734.637.006.005a.239.239 0 01-.312.36l-.745-.646a.238.238 0 01-.023-.336c.086-.1.236-.11.335-.024l.005.004z" fill="url(#paint72_linear_86_162)"/><path d="M152.36 62.031l.793.559.007.005a.24.24 0 01-.274.392l-.808-.569a.24.24 0 01.275-.391l.007.004z" fill="url(#paint73_linear_86_162)"/><path d="M154.804 63.595c.283.154.571.3.861.439a.24.24 0 01-.205.434 19.027 19.027 0 01-.884-.451.24.24 0 01-.096-.326.239.239 0 01.324-.096z" fill="url(#paint74_linear_86_162)"/><path d="M157.452 64.754c.305.1.612.192.922.272a.24.24 0 01-.12.467 14.632 14.632 0 01-.953-.282.242.242 0 01-.153-.305.242.242 0 01.304-.152z" fill="url(#paint75_linear_86_162)"/><path d="M160.263 65.374c.319.035.638.06.958.071a.242.242 0 01-.018.484 13.773 13.773 0 01-.992-.075.242.242 0 01.052-.48z" fill="url(#paint76_linear_86_162)"/><path d="M163.103 65.313c.305-.07.605-.165.896-.282a.243.243 0 01.18.45 6.382 6.382 0 01-.969.305.243.243 0 01-.107-.473z" fill="url(#paint77_linear_86_162)"/><path d="M165.628 64.083c.249-.194.487-.404.713-.627a.243.243 0 11.341.347 8.491 8.491 0 01-.757.665.241.241 0 01-.34-.044.244.244 0 01.043-.341z" fill="url(#paint78_linear_86_162)"/><path d="M167.544 61.978c.175-.266.337-.541.485-.823a.245.245 0 01.432.228c-.156.296-.326.584-.51.864a.243.243 0 01-.337.07.243.243 0 01-.07-.339z" fill="url(#paint79_linear_86_162)"/><path d="M168.756 59.387c.093-.305.171-.615.234-.927a.24.24 0 01.284-.189.242.242 0 01.189.283c-.064.33-.144.655-.241.976a.244.244 0 11-.467-.142l.001-.001z" fill="url(#paint80_linear_86_162)"/><path d="M169.158 56.56a15.609 15.609 0 00-.041-.965.233.233 0 01.215-.248.23.23 0 01.247.215c.026.33.042.66.049.993a.235.235 0 01-.469.008v-.003h-.001z" fill="url(#paint81_linear_86_162)"/><path d="M168.901 53.663l-.156-.961v-.007a.222.222 0 01.438-.073l.165.974a.226.226 0 11-.444.075v-.002l-.003-.006z" fill="url(#paint82_linear_86_162)"/><path d="M168.364 50.79l-.219-.951-.001-.004a.204.204 0 01.151-.244.204.204 0 01.243.149l.239.956a.212.212 0 01-.154.257.21.21 0 01-.256-.154l-.001-.003-.002-.006z" fill="url(#paint83_linear_86_162)"/><path d="M167.645 47.95l-.28-.934-.001-.004a.177.177 0 01.337-.105l.299.937a.185.185 0 11-.352.113l-.001-.002-.002-.004z" fill="url(#paint84_linear_86_162)"/><path d="M166.742 45.165l-.348-.912-.001-.004a.14.14 0 01.259-.104l.378.91a.154.154 0 11-.284.118l-.002-.003-.002-.005z" fill="url(#paint85_linear_86_162)"/><path d="M165.589 42.48a10.61 10.61 0 00-.483-.841.091.091 0 01.027-.127.09.09 0 01.124.024c.19.27.363.551.526.838a.11.11 0 11-.194.106z" fill="url(#paint86_linear_86_162)"/><path d="M30.45 61.702l1.144 2.275 1.044-1.755-2.188-.52z" fill="#74A1BB"/><path d="M39.995 55.237l-3.416 8.486a.642.642 0 01-.86.347l-8.37-3.76a.258.258 0 01.017-.479l12.63-4.594z" fill="#74FCFD"/><path d="M30.45 61.702l9.545-6.465-8.195 7.075.29.645-1.64-1.255z" fill="#74A1BB"/><path d="M32.602 62.669l-1.008 1.308.206-1.664.802.356zM164.647 36.42l-1.908 2.876-1.123-2.532 3.031-.344z" fill="#74A1BB"/><path d="M152.843 26.168l3.228 11.978a.869.869 0 001.1.607l11.874-3.702a.351.351 0 00.054-.648l-16.256-8.235z" fill="#74FCFD"/><path d="M164.646 36.42l-11.803-10.253 9.888 10.856-.494.82 2.409-1.423z" fill="#74A1BB"/><path d="M161.594 37.372l1.145 1.924-.008-2.273-1.137.35z" fill="#74A1BB"/><defs><linearGradient id="paint0_linear_86_162" x1="140.333" y1="79.99" x2="107.999" y2="99.666" gradientUnits="userSpaceOnUse"><stop stop-color="#DAE3FE"/><stop offset="1" stop-color="#E9EFFD"/></linearGradient><linearGradient id="paint1_linear_86_162" x1="25.741" y1="69.728" x2="59.349" y2="69.728" gradientUnits="userSpaceOnUse"><stop stop-color="#DAE3FE"/><stop offset="1" stop-color="#E9EFFD"/></linearGradient><linearGradient id="paint2_linear_86_162" x1="94.892" y1="92.668" x2="114.278" y2="92.668" gradientUnits="userSpaceOnUse"><stop stop-color="#FF928E"/><stop offset="1" stop-color="#FEB3B1"/></linearGradient><linearGradient id="paint3_linear_86_162" x1="106.923" y1="74.048" x2="76.479" y2="89.153" gradientUnits="userSpaceOnUse"><stop stop-color="#FF928E"/><stop offset="1" stop-color="#FEB3B1"/></linearGradient><linearGradient id="paint4_linear_86_162" x1="106.478" y1="70.244" x2="101.98" y2="74.929" gradientUnits="userSpaceOnUse"><stop stop-color="#FF928E"/><stop offset="1" stop-color="#FEB3B1"/></linearGradient><linearGradient id="paint5_linear_86_162" x1="107.067" y1="73.868" x2="76.624" y2="88.973" gradientUnits="userSpaceOnUse"><stop stop-color="#FF928E"/><stop offset="1" stop-color="#FEB3B1"/></linearGradient><linearGradient id="paint6_linear_86_162" x1="74.95" y1="64.514" x2="67.241" y2="76.564" gradientUnits="userSpaceOnUse"><stop stop-color="#FF928E"/><stop offset="1" stop-color="#FEB3B1"/></linearGradient><linearGradient id="paint7_linear_86_162" x1="115.498" y1="68.226" x2="97.162" y2="84.378" gradientUnits="userSpaceOnUse"><stop stop-color="#FF928E"/><stop offset="1" stop-color="#FEB3B1"/></linearGradient><linearGradient id="paint8_linear_86_162" x1="85.945" y1="58.917" x2="79.524" y2="62.317" gradientUnits="userSpaceOnUse"><stop stop-color="#FF928E"/><stop offset="1" stop-color="#FEB3B1"/></linearGradient><linearGradient id="paint9_linear_86_162" x1="85.051" y1="57.228" x2="78.629" y2="60.628" gradientUnits="userSpaceOnUse"><stop stop-color="#FF928E"/><stop offset="1" stop-color="#FEB3B1"/></linearGradient><linearGradient id="paint10_linear_86_162" x1="94.541" y1="97.582" x2="99.319" y2="97.582" gradientUnits="userSpaceOnUse"><stop stop-color="#FF928E"/><stop offset="1" stop-color="#FEB3B1"/></linearGradient><linearGradient id="paint11_linear_86_162" x1="138.268" y1="73.229" x2="135.145" y2="63.884" gradientUnits="userSpaceOnUse"><stop stop-color="#FF928E"/><stop offset="1" stop-color="#FEB3B1"/></linearGradient><linearGradient id="paint12_linear_86_162" x1="157.142" y1="100.463" x2="146.998" y2="119.92" gradientUnits="userSpaceOnUse"><stop stop-color="#FF928E"/><stop offset="1" stop-color="#FEB3B1"/></linearGradient><linearGradient id="paint13_linear_86_162" x1="135.822" y1="59.798" x2="132.702" y2="78.109" gradientUnits="userSpaceOnUse"><stop stop-color="#FF928E"/><stop offset="1" stop-color="#FEB3B1"/></linearGradient><linearGradient id="paint14_linear_86_162" x1="138.515" y1="79.788" x2="139.07" y2="66.928" gradientUnits="userSpaceOnUse"><stop stop-color="#FF928E"/><stop offset="1" stop-color="#FEB3B1"/></linearGradient><linearGradient id="paint15_linear_86_162" x1="48.239" y1="87.005" x2="48.825" y2="87.005" gradientUnits="userSpaceOnUse"><stop stop-color="#DAE3FE"/><stop offset="1" stop-color="#E9EFFD"/></linearGradient><linearGradient id="paint16_linear_86_162" x1="47.254" y1="84.228" x2="47.871" y2="84.228" gradientUnits="userSpaceOnUse"><stop stop-color="#DAE3FE"/><stop offset="1" stop-color="#E9EFFD"/></linearGradient><linearGradient id="paint17_linear_86_162" x1="46.309" y1="81.447" x2="46.908" y2="81.447" gradientUnits="userSpaceOnUse"><stop stop-color="#DAE3FE"/><stop offset="1" stop-color="#E9EFFD"/></linearGradient><linearGradient id="paint18_linear_86_162" x1="45.497" y1="78.627" x2="46.053" y2="78.627" gradientUnits="userSpaceOnUse"><stop stop-color="#DAE3FE"/><stop offset="1" stop-color="#E9EFFD"/></linearGradient><linearGradient id="paint19_linear_86_162" x1="44.866" y1="75.76" x2="45.365" y2="75.76" gradientUnits="userSpaceOnUse"><stop stop-color="#DAE3FE"/><stop offset="1" stop-color="#E9EFFD"/></linearGradient><linearGradient id="paint20_linear_86_162" x1="44.441" y1="72.855" x2="44.877" y2="72.855" gradientUnits="userSpaceOnUse"><stop stop-color="#DAE3FE"/><stop offset="1" stop-color="#E9EFFD"/></linearGradient><linearGradient id="paint21_linear_86_162" x1="44.23" y1="69.925" x2="44.602" y2="69.925" gradientUnits="userSpaceOnUse"><stop stop-color="#DAE3FE"/><stop offset="1" stop-color="#E9EFFD"/></linearGradient><linearGradient id="paint22_linear_86_162" x1="44.207" y1="66.984" x2="44.566" y2="66.984" gradientUnits="userSpaceOnUse"><stop stop-color="#DAE3FE"/><stop offset="1" stop-color="#E9EFFD"/></linearGradient><linearGradient id="paint23_linear_86_162" x1="44.343" y1="64.047" x2="44.776" y2="64.047" gradientUnits="userSpaceOnUse"><stop stop-color="#DAE3FE"/><stop offset="1" stop-color="#E9EFFD"/></linearGradient><linearGradient id="paint24_linear_86_162" x1="44.672" y1="61.129" x2="45.175" y2="61.129" gradientUnits="userSpaceOnUse"><stop stop-color="#DAE3FE"/><stop offset="1" stop-color="#E9EFFD"/></linearGradient><linearGradient id="paint25_linear_86_162" x1="45.179" y1="58.238" x2="45.745" y2="58.238" gradientUnits="userSpaceOnUse"><stop stop-color="#DAE3FE"/><stop offset="1" stop-color="#E9EFFD"/></linearGradient><linearGradient id="paint26_linear_86_162" x1="45.848" y1="55.382" x2="46.48" y2="55.382" gradientUnits="userSpaceOnUse"><stop stop-color="#DAE3FE"/><stop offset="1" stop-color="#E9EFFD"/></linearGradient><linearGradient id="paint27_linear_86_162" x1="46.704" y1="52.58" x2="47.408" y2="52.58" gradientUnits="userSpaceOnUse"><stop stop-color="#DAE3FE"/><stop offset="1" stop-color="#E9EFFD"/></linearGradient><linearGradient id="paint28_linear_86_162" x1="47.751" y1="49.846" x2="48.527" y2="49.846" gradientUnits="userSpaceOnUse"><stop stop-color="#DAE3FE"/><stop offset="1" stop-color="#E9EFFD"/></linearGradient><linearGradient id="paint29_linear_86_162" x1="48.985" y1="47.193" x2="49.828" y2="47.193" gradientUnits="userSpaceOnUse"><stop stop-color="#DAE3FE"/><stop offset="1" stop-color="#E9EFFD"/></linearGradient><linearGradient id="paint30_linear_86_162" x1="50.396" y1="44.633" x2="51.305" y2="44.633" gradientUnits="userSpaceOnUse"><stop stop-color="#DAE3FE"/><stop offset="1" stop-color="#E9EFFD"/></linearGradient><linearGradient id="paint31_linear_86_162" x1="51.975" y1="42.174" x2="52.946" y2="42.174" gradientUnits="userSpaceOnUse"><stop stop-color="#DAE3FE"/><stop offset="1" stop-color="#E9EFFD"/></linearGradient><linearGradient id="paint32_linear_86_162" x1="53.714" y1="39.825" x2="54.737" y2="39.825" gradientUnits="userSpaceOnUse"><stop stop-color="#DAE3FE"/><stop offset="1" stop-color="#E9EFFD"/></linearGradient><linearGradient id="paint33_linear_86_162" x1="55.599" y1="37.592" x2="56.671" y2="37.592" gradientUnits="userSpaceOnUse"><stop stop-color="#DAE3FE"/><stop offset="1" stop-color="#E9EFFD"/></linearGradient><linearGradient id="paint34_linear_86_162" x1="57.62" y1="35.48" x2="58.735" y2="35.48" gradientUnits="userSpaceOnUse"><stop stop-color="#DAE3FE"/><stop offset="1" stop-color="#E9EFFD"/></linearGradient><linearGradient id="paint35_linear_86_162" x1="59.763" y1="33.493" x2="60.919" y2="33.493" gradientUnits="userSpaceOnUse"><stop stop-color="#DAE3FE"/><stop offset="1" stop-color="#E9EFFD"/></linearGradient><linearGradient id="paint36_linear_86_162" x1="62.019" y1="31.634" x2="63.212" y2="31.634" gradientUnits="userSpaceOnUse"><stop stop-color="#DAE3FE"/><stop offset="1" stop-color="#E9EFFD"/></linearGradient><linearGradient id="paint37_linear_86_162" x1="64.377" y1="29.907" x2="65.604" y2="29.907" gradientUnits="userSpaceOnUse"><stop stop-color="#DAE3FE"/><stop offset="1" stop-color="#E9EFFD"/></linearGradient><linearGradient id="paint38_linear_86_162" x1="66.828" y1="28.313" x2="68.086" y2="28.313" gradientUnits="userSpaceOnUse"><stop stop-color="#DAE3FE"/><stop offset="1" stop-color="#E9EFFD"/></linearGradient><linearGradient id="paint39_linear_86_162" x1="69.363" y1="26.856" x2="70.648" y2="26.856" gradientUnits="userSpaceOnUse"><stop stop-color="#DAE3FE"/><stop offset="1" stop-color="#E9EFFD"/></linearGradient><linearGradient id="paint40_linear_86_162" x1="71.973" y1="25.537" x2="73.284" y2="25.537" gradientUnits="userSpaceOnUse"><stop stop-color="#DAE3FE"/><stop offset="1" stop-color="#E9EFFD"/></linearGradient><linearGradient id="paint41_linear_86_162" x1="74.651" y1="24.36" x2="75.984" y2="24.36" gradientUnits="userSpaceOnUse"><stop stop-color="#DAE3FE"/><stop offset="1" stop-color="#E9EFFD"/></linearGradient><linearGradient id="paint42_linear_86_162" x1="77.389" y1="23.329" x2="78.743" y2="23.329" gradientUnits="userSpaceOnUse"><stop stop-color="#DAE3FE"/><stop offset="1" stop-color="#E9EFFD"/></linearGradient><linearGradient id="paint43_linear_86_162" x1="80.18" y1="22.449" x2="81.551" y2="22.449" gradientUnits="userSpaceOnUse"><stop stop-color="#DAE3FE"/><stop offset="1" stop-color="#E9EFFD"/></linearGradient><linearGradient id="paint44_linear_86_162" x1="83.016" y1="21.724" x2="84.402" y2="21.724" gradientUnits="userSpaceOnUse"><stop stop-color="#DAE3FE"/><stop offset="1" stop-color="#E9EFFD"/></linearGradient><linearGradient id="paint45_linear_86_162" x1="85.889" y1="21.161" x2="87.289" y2="21.161" gradientUnits="userSpaceOnUse"><stop stop-color="#DAE3FE"/><stop offset="1" stop-color="#E9EFFD"/></linearGradient><linearGradient id="paint46_linear_86_162" x1="88.792" y1="20.769" x2="90.201" y2="20.769" gradientUnits="userSpaceOnUse"><stop stop-color="#DAE3FE"/><stop offset="1" stop-color="#E9EFFD"/></linearGradient><linearGradient id="paint47_linear_86_162" x1="91.716" y1="20.558" x2="93.131" y2="20.558" gradientUnits="userSpaceOnUse"><stop stop-color="#DAE3FE"/><stop offset="1" stop-color="#E9EFFD"/></linearGradient><linearGradient id="paint48_linear_86_162" x1="94.648" y1="20.539" x2="96.066" y2="20.539" gradientUnits="userSpaceOnUse"><stop stop-color="#DAE3FE"/><stop offset="1" stop-color="#E9EFFD"/></linearGradient><linearGradient id="paint49_linear_86_162" x1="97.577" y1="20.724" x2="98.993" y2="20.724" gradientUnits="userSpaceOnUse"><stop stop-color="#DAE3FE"/><stop offset="1" stop-color="#E9EFFD"/></linearGradient><linearGradient id="paint50_linear_86_162" x1="100.49" y1="21.11" x2="101.898" y2="21.11" gradientUnits="userSpaceOnUse"><stop stop-color="#DAE3FE"/><stop offset="1" stop-color="#E9EFFD"/></linearGradient><linearGradient id="paint51_linear_86_162" x1="103.374" y1="21.676" x2="104.772" y2="21.676" gradientUnits="userSpaceOnUse"><stop stop-color="#DAE3FE"/><stop offset="1" stop-color="#E9EFFD"/></linearGradient><linearGradient id="paint52_linear_86_162" x1="106.218" y1="22.427" x2="107.602" y2="22.427" gradientUnits="userSpaceOnUse"><stop stop-color="#DAE3FE"/><stop offset="1" stop-color="#E9EFFD"/></linearGradient><linearGradient id="paint53_linear_86_162" x1="109.009" y1="23.363" x2="110.374" y2="23.363" gradientUnits="userSpaceOnUse"><stop stop-color="#DAE3FE"/><stop offset="1" stop-color="#E9EFFD"/></linearGradient><linearGradient id="paint54_linear_86_162" x1="111.734" y1="24.481" x2="113.076" y2="24.481" gradientUnits="userSpaceOnUse"><stop stop-color="#DAE3FE"/><stop offset="1" stop-color="#E9EFFD"/></linearGradient><linearGradient id="paint55_linear_86_162" x1="114.383" y1="25.772" x2="115.699" y2="25.772" gradientUnits="userSpaceOnUse"><stop stop-color="#DAE3FE"/><stop offset="1" stop-color="#E9EFFD"/></linearGradient><linearGradient id="paint56_linear_86_162" x1="116.948" y1="27.227" x2="118.235" y2="27.227" gradientUnits="userSpaceOnUse"><stop stop-color="#DAE3FE"/><stop offset="1" stop-color="#E9EFFD"/></linearGradient><linearGradient id="paint57_linear_86_162" x1="119.421" y1="28.831" x2="120.68" y2="28.831" gradientUnits="userSpaceOnUse"><stop stop-color="#DAE3FE"/><stop offset="1" stop-color="#E9EFFD"/></linearGradient><linearGradient id="paint58_linear_86_162" x1="121.803" y1="30.57" x2="123.031" y2="30.57" gradientUnits="userSpaceOnUse"><stop stop-color="#DAE3FE"/><stop offset="1" stop-color="#E9EFFD"/></linearGradient><linearGradient id="paint59_linear_86_162" x1="124.092" y1="32.427" x2="125.292" y2="32.427" gradientUnits="userSpaceOnUse"><stop stop-color="#DAE3FE"/><stop offset="1" stop-color="#E9EFFD"/></linearGradient><linearGradient id="paint60_linear_86_162" x1="126.293" y1="34.388" x2="127.466" y2="34.388" gradientUnits="userSpaceOnUse"><stop stop-color="#DAE3FE"/><stop offset="1" stop-color="#E9EFFD"/></linearGradient><linearGradient id="paint61_linear_86_162" x1="128.412" y1="36.436" x2="129.56" y2="36.436" gradientUnits="userSpaceOnUse"><stop stop-color="#DAE3FE"/><stop offset="1" stop-color="#E9EFFD"/></linearGradient><linearGradient id="paint62_linear_86_162" x1="130.456" y1="38.557" x2="131.583" y2="38.557" gradientUnits="userSpaceOnUse"><stop stop-color="#DAE3FE"/><stop offset="1" stop-color="#E9EFFD"/></linearGradient><linearGradient id="paint63_linear_86_162" x1="132.435" y1="40.738" x2="133.544" y2="40.738" gradientUnits="userSpaceOnUse"><stop stop-color="#DAE3FE"/><stop offset="1" stop-color="#E9EFFD"/></linearGradient><linearGradient id="paint64_linear_86_162" x1="134.36" y1="42.965" x2="135.455" y2="42.965" gradientUnits="userSpaceOnUse"><stop stop-color="#DAE3FE"/><stop offset="1" stop-color="#E9EFFD"/></linearGradient><linearGradient id="paint65_linear_86_162" x1="136.242" y1="45.225" x2="137.328" y2="45.225" gradientUnits="userSpaceOnUse"><stop stop-color="#DAE3FE"/><stop offset="1" stop-color="#E9EFFD"/></linearGradient><linearGradient id="paint66_linear_86_162" x1="138.098" y1="47.507" x2="139.178" y2="47.507" gradientUnits="userSpaceOnUse"><stop stop-color="#DAE3FE"/><stop offset="1" stop-color="#E9EFFD"/></linearGradient><linearGradient id="paint67_linear_86_162" x1="139.94" y1="49.796" x2="141.022" y2="49.796" gradientUnits="userSpaceOnUse"><stop stop-color="#DAE3FE"/><stop offset="1" stop-color="#E9EFFD"/></linearGradient><linearGradient id="paint68_linear_86_162" x1="141.787" y1="52.079" x2="142.877" y2="52.079" gradientUnits="userSpaceOnUse"><stop stop-color="#DAE3FE"/><stop offset="1" stop-color="#E9EFFD"/></linearGradient><linearGradient id="paint69_linear_86_162" x1="143.66" y1="54.337" x2="144.766" y2="54.337" gradientUnits="userSpaceOnUse"><stop stop-color="#DAE3FE"/><stop offset="1" stop-color="#E9EFFD"/></linearGradient><linearGradient id="paint70_linear_86_162" x1="145.582" y1="56.549" x2="146.714" y2="56.549" gradientUnits="userSpaceOnUse"><stop stop-color="#DAE3FE"/><stop offset="1" stop-color="#E9EFFD"/></linearGradient><linearGradient id="paint71_linear_86_162" x1="147.585" y1="58.681" x2="148.754" y2="58.681" gradientUnits="userSpaceOnUse"><stop stop-color="#DAE3FE"/><stop offset="1" stop-color="#E9EFFD"/></linearGradient><linearGradient id="paint72_linear_86_162" x1="149.702" y1="60.69" x2="150.922" y2="60.69" gradientUnits="userSpaceOnUse"><stop stop-color="#DAE3FE"/><stop offset="1" stop-color="#E9EFFD"/></linearGradient><linearGradient id="paint73_linear_86_162" x1="151.976" y1="62.507" x2="153.262" y2="62.507" gradientUnits="userSpaceOnUse"><stop stop-color="#DAE3FE"/><stop offset="1" stop-color="#E9EFFD"/></linearGradient><linearGradient id="paint74_linear_86_162" x1="154.451" y1="64.029" x2="155.802" y2="64.029" gradientUnits="userSpaceOnUse"><stop stop-color="#DAE3FE"/><stop offset="1" stop-color="#E9EFFD"/></linearGradient><linearGradient id="paint75_linear_86_162" x1="157.136" y1="65.121" x2="158.555" y2="65.121" gradientUnits="userSpaceOnUse"><stop stop-color="#DAE3FE"/><stop offset="1" stop-color="#E9EFFD"/></linearGradient><linearGradient id="paint76_linear_86_162" x1="159.996" y1="65.651" x2="161.453" y2="65.651" gradientUnits="userSpaceOnUse"><stop stop-color="#DAE3FE"/><stop offset="1" stop-color="#E9EFFD"/></linearGradient><linearGradient id="paint77_linear_86_162" x1="162.915" y1="65.403" x2="164.332" y2="65.403" gradientUnits="userSpaceOnUse"><stop stop-color="#DAE3FE"/><stop offset="1" stop-color="#E9EFFD"/></linearGradient><linearGradient id="paint78_linear_86_162" x1="165.534" y1="63.952" x2="166.755" y2="63.952" gradientUnits="userSpaceOnUse"><stop stop-color="#DAE3FE"/><stop offset="1" stop-color="#E9EFFD"/></linearGradient><linearGradient id="paint79_linear_86_162" x1="167.504" y1="61.691" x2="168.489" y2="61.691" gradientUnits="userSpaceOnUse"><stop stop-color="#DAE3FE"/><stop offset="1" stop-color="#E9EFFD"/></linearGradient><linearGradient id="paint80_linear_86_162" x1="168.745" y1="58.985" x2="169.468" y2="58.985" gradientUnits="userSpaceOnUse"><stop stop-color="#DAE3FE"/><stop offset="1" stop-color="#E9EFFD"/></linearGradient><linearGradient id="paint81_linear_86_162" x1="169.117" y1="56.069" x2="169.627" y2="56.069" gradientUnits="userSpaceOnUse"><stop stop-color="#DAE3FE"/><stop offset="1" stop-color="#E9EFFD"/></linearGradient><linearGradient id="paint82_linear_86_162" x1="168.741" y1="53.148" x2="169.351" y2="53.148" gradientUnits="userSpaceOnUse"><stop stop-color="#DAE3FE"/><stop offset="1" stop-color="#E9EFFD"/></linearGradient><linearGradient id="paint83_linear_86_162" x1="168.138" y1="50.272" x2="168.782" y2="50.272" gradientUnits="userSpaceOnUse"><stop stop-color="#DAE3FE"/><stop offset="1" stop-color="#E9EFFD"/></linearGradient><linearGradient id="paint84_linear_86_162" x1="167.357" y1="47.435" x2="168.008" y2="47.435" gradientUnits="userSpaceOnUse"><stop stop-color="#DAE3FE"/><stop offset="1" stop-color="#E9EFFD"/></linearGradient><linearGradient id="paint85_linear_86_162" x1="166.383" y1="44.664" x2="167.042" y2="44.664" gradientUnits="userSpaceOnUse"><stop stop-color="#DAE3FE"/><stop offset="1" stop-color="#E9EFFD"/></linearGradient><linearGradient id="paint86_linear_86_162" x1="165.091" y1="42.019" x2="165.797" y2="42.019" gradientUnits="userSpaceOnUse"><stop stop-color="#DAE3FE"/><stop offset="1" stop-color="#E9EFFD"/></linearGradient></defs></svg>