<svg width="116" height="110" fill="none" xmlns="http://www.w3.org/2000/svg"><path opacity=".3" d="M30.67 37.2a.445.445 0 01.463-.428c.477.02.962.018 1.442-.005a.445.445 0 01.465.415v.009a.445.445 0 01-.424.465 17.88 17.88 0 01-1.518.006.446.446 0 01-.428-.462zm4.232-.701a17 17 0 001.406-.323.445.445 0 11.235.859c-.484.133-.982.247-1.478.34a.446.446 0 01-.163-.876zm3.615-1.099c.44-.19.876-.4 1.297-.627a.445.445 0 01.422.784c-.444.239-.903.461-1.366.66a.445.445 0 01-.353-.816zm3.278-1.878c.387-.283.765-.587 1.126-.902a.445.445 0 11.586.67c-.38.332-.778.651-1.185.95a.445.445 0 11-.527-.718zm2.778-2.563c.313-.361.615-.741.898-1.129a.445.445 0 01.72.525c-.298.408-.616.808-.945 1.188a.445.445 0 11-.673-.584zm2.142-3.113c.226-.422.436-.86.625-1.3a.445.445 0 11.818.352c-.199.464-.42.924-.658 1.368a.445.445 0 11-.785-.42zm.175-16.53a.445.445 0 01.603.181c.238.444.46.905.659 1.368a.445.445 0 11-.819.351c-.189-.44-.4-.877-.625-1.299a.444.444 0 01.182-.602zm1.223 13.022c.126-.462.234-.935.32-1.405a.445.445 0 11.876.16c-.091.496-.205.994-.337 1.48a.445.445 0 11-.86-.235zm.304-9.456a.446.446 0 01.547.312c.133.486.246.984.337 1.48a.444.444 0 11-.876.161 16.937 16.937 0 00-.32-1.406.445.445 0 01.312-.547zm.274 5.724c.02-.478.019-.963-.002-1.442a.445.445 0 01.889-.05v.01c.023.504.024 1.015.003 1.518a.445.445 0 01-.89-.036zm-3.754-11.48a.442.442 0 00.095.248c.144.18.285.365.422.552a.445.445 0 00.718-.527 18.121 18.121 0 00-.443-.58.446.446 0 00-.792.307zM33.003 2.66a.446.446 0 00.403.413c.228.022.46.048.689.08a.445.445 0 10.12-.883c-.241-.033-.485-.06-.726-.083a.445.445 0 00-.486.473zm-18.971 17.5a.445.445 0 11.89-.014c.008.468.035.943.082 1.417a.445.445 0 01-.886.088 17.848 17.848 0 01-.086-1.49zm.82 3.347a.444.444 0 01.536.33c.11.458.24.918.387 1.364a.445.445 0 11-.845.28c-.155-.47-.293-.955-.408-1.438a.445.445 0 01.33-.536zm-.693-5.77c.06-.491.141-.987.242-1.473a.446.446 0 01.872.181 16.61 16.61 0 00-.23 1.4.445.445 0 11-.884-.107zm1.89 9.395a.445.445 0 01.596.203c.208.424.436.843.678 1.247a.445.445 0 11-.763.458 17.767 17.767 0 01-.714-1.313.446.446 0 01.204-.595zm-.991-13.202c.166-.466.355-.932.56-1.384a.445.445 0 01.81.368c-.195.43-.374.872-.532 1.315a.445.445 0 11-.838-.3zm1.712-3.518c.264-.42.55-.833.849-1.229a.445.445 0 01.71.537 17.18 17.18 0 00-.806 1.167.445.445 0 11-.753-.475zm2.438-3.062c.35-.352.719-.693 1.096-1.014a.445.445 0 11.577.678c-.358.305-.709.63-1.042.964a.445.445 0 01-.631-.628zm3.048-2.456c.418-.268.853-.52 1.292-.75a.445.445 0 01.414.788c-.417.219-.83.459-1.227.712a.445.445 0 11-.48-.75zm3.515-1.728c.466-.168.945-.318 1.425-.446a.445.445 0 11.23.86c-.456.121-.911.264-1.354.423a.445.445 0 11-.301-.837zm3.804-.913a18.118 18.118 0 011.488-.127.44.44 0 01.464.426.445.445 0 01-.425.464 17.404 17.404 0 00-1.414.12.445.445 0 01-.113-.883zM17.859 30.789a.444.444 0 00.097.25c.152.188.31.375.47.559a.445.445 0 00.67-.587 16.58 16.58 0 01-.446-.53.446.446 0 00-.791.308z" fill="#91B3FA"/><path d="M25.446 31.615c.073.052.17.052.242 0l2.061-1.47c1.094.448 2.268.726 3.483.803l1.21 2.223c.042.078.129.12.217.106l2.995-.503a.208.208 0 00.171-.17l.418-2.497a11.031 11.031 0 003.03-1.896l2.428.717a.208.208 0 00.228-.08l1.763-2.473a.208.208 0 000-.242l-1.47-2.061c.448-1.094.726-2.268.803-3.483l2.223-1.21a.208.208 0 00.106-.217l-.503-2.996a.21.21 0 00-.17-.17l-2.497-.418a11.031 11.031 0 00-1.896-3.03l.717-2.428a.208.208 0 00-.08-.229l-2.473-1.763a.208.208 0 00-.242 0L36.15 9.6a11.025 11.025 0 00-3.483-.803l-1.21-2.223a.207.207 0 00-.217-.106l-2.995.503a.21.21 0 00-.171.17l-.418 2.497a11.03 11.03 0 00-3.03 1.896l-2.428-.717a.208.208 0 00-.229.08l-1.762 2.473a.208.208 0 000 .242l1.47 2.061a11.026 11.026 0 00-.804 3.483l-2.223 1.21a.208.208 0 00-.105.217l.503 2.996a.209.209 0 00.17.17l2.497.418a11.03 11.03 0 001.896 3.03l-.717 2.428a.208.208 0 00.079.229l2.474 1.762z" fill="#74A1BB"/><path d="M28.906 19.625a3.057 3.057 0 013.29-2.796 3.033 3.033 0 012.08 1.066c.528.621.782 1.411.716 2.224a3.057 3.057 0 01-3.29 2.797 3.058 3.058 0 01-2.796-3.29zm4.827-1.269a2.343 2.343 0 00-4.117 1.327 2.343 2.343 0 002.144 2.523 2.344 2.344 0 002.525-2.491 2.323 2.323 0 00-.552-1.359z" fill="#BDD0FB"/><path d="M24.497 20.3a7.706 7.706 0 00.134 1.006c.079.395.19.782.33 1.156l.005.016a7.734 7.734 0 01.05.127.178.178 0 10.33-.131 7.152 7.152 0 011.864-7.968 7.109 7.109 0 014.328-1.822 7.097 7.097 0 014.603 1.314 7.105 7.105 0 012.903 4.64 7.159 7.159 0 01-6.591 8.32 7.128 7.128 0 01-3.068-.475.178.178 0 00-.23.1.178.178 0 00.1.232 7.482 7.482 0 003.978.411c4.083-.685 6.847-4.565 6.162-8.647a7.458 7.458 0 00-3.048-4.871 7.451 7.451 0 00-5.6-1.29 7.457 7.457 0 00-4.87 3.048 7.453 7.453 0 00-1.38 4.833z" fill="#BDD0FB"/><path opacity=".3" d="M19.956 53.172a.275.275 0 00.215.25c.227.052.46.096.69.134a.275.275 0 00.088-.543c-.22-.036-.441-.079-.659-.127a.276.276 0 00-.334.286zm2.097.243a.275.275 0 01.285-.265 11.587 11.587 0 001.396-.035.275.275 0 01.298.25.285.285 0 01-.25.298l-.255.02c-.4.026-.808.031-1.21.017a.275.275 0 01-.264-.257v-.028zm3.063-.505c.454-.096.907-.221 1.346-.372a.275.275 0 11.178.52c-.459.158-.934.29-1.41.39a.275.275 0 11-.114-.538zm2.635-.907c.417-.205.825-.437 1.213-.692a.275.275 0 01.302.46c-.408.267-.836.511-1.273.725a.275.275 0 11-.242-.494zm2.332-1.528c.354-.3.693-.626 1.007-.967a.275.275 0 01.405.373 11.93 11.93 0 01-1.056 1.014.275.275 0 11-.356-.42zm1.888-2.05c.271-.378.52-.776.742-1.182a.274.274 0 11.483.263c-.233.427-.495.844-.778 1.24a.275.275 0 11-.447-.321zm1.334-2.447c.17-.431.315-.878.43-1.326a.275.275 0 01.533.137c-.12.47-.273.939-.452 1.391a.275.275 0 01-.511-.202zm.694-2.697c.059-.459.09-.927.092-1.392a.275.275 0 01.55.002c-.002.488-.035.98-.097 1.46a.276.276 0 01-.545-.07zm-.037-4.493a.275.275 0 01.333.2 11.848 11.848 0 01.261 1.442.272.272 0 01-.24.305.275.275 0 01-.306-.241 11.319 11.319 0 00-.25-1.374.274.274 0 01.201-.332zm-23.059 3.653a12 12 0 01.012-1.44.275.275 0 11.548.039c-.031.454-.035.916-.011 1.373a.275.275 0 01-.55.032c.002-.001.001-.003.001-.004zm.386 1.113a.275.275 0 01.318.224c.078.45.185.9.316 1.337a.275.275 0 01-.527.159 12.04 12.04 0 01-.334-1.431.274.274 0 01.227-.289zm-.188-3.98a11.7 11.7 0 01.36-1.395.275.275 0 01.523.17c-.14.433-.255.88-.343 1.33a.275.275 0 11-.54-.106zm.936 6.688a.275.275 0 01.362.141c.184.418.396.829.63 1.22a.275.275 0 11-.473.282 11.801 11.801 0 01-.66-1.28.274.274 0 01.14-.363zm-.05-9.422c.201-.434.431-.86.684-1.267a.275.275 0 11.467.29c-.241.388-.46.794-.652 1.208a.275.275 0 11-.5-.231zm1.515-2.442c.3-.374.625-.733.967-1.067a.275.275 0 01.385.393c-.326.32-.637.661-.923 1.018a.275.275 0 01-.429-.344zm2.056-2.01c.381-.29.784-.561 1.196-.803a.274.274 0 11.278.474c-.393.23-.777.489-1.14.767a.275.275 0 01-.334-.438zm-2.24 16.567a.274.274 0 00.057.15c.145.186.295.369.447.543a.275.275 0 00.414-.363c-.146-.165-.29-.34-.427-.517a.275.275 0 00-.491.187z" fill="#91B3FA"/><path d="M18.503 49.675a.139.139 0 00.162 0l1.38-.984c.731.3 1.517.486 2.33.538l.81 1.487a.14.14 0 00.145.07l2.004-.336a.139.139 0 00.114-.114l.28-1.67a7.381 7.381 0 002.027-1.27l1.625.48a.139.139 0 00.153-.052l1.18-1.656a.139.139 0 000-.161l-.985-1.38a7.39 7.39 0 00.538-2.33l1.487-.81a.14.14 0 00.07-.145l-.336-2.005a.139.139 0 00-.114-.114l-1.67-.28a7.38 7.38 0 00-1.27-2.027l.48-1.625a.14.14 0 00-.052-.153l-1.656-1.18a.139.139 0 00-.161 0l-1.38.985a7.377 7.377 0 00-2.33-.538l-.81-1.487a.14.14 0 00-.145-.07l-2.005.336a.14.14 0 00-.114.114l-.28 1.67a7.377 7.377 0 00-2.027 1.27l-1.625-.48a.14.14 0 00-.153.052l-1.18 1.656a.139.139 0 000 .161l.985 1.38a7.389 7.389 0 00-.537 2.33l-1.488.81a.14.14 0 00-.07.145l.336 2.004a.14.14 0 00.114.115l1.67.28a7.378 7.378 0 001.27 2.026l-.48 1.625a.139.139 0 00.052.153l1.656 1.18z" fill="#74A1BB"/><path d="M20.782 41.65a2.064 2.064 0 01.726-1.418c.423-.36.961-.533 1.515-.488a2.083 2.083 0 011.905 2.241 2.082 2.082 0 01-3.659 1.179 2.065 2.065 0 01-.487-1.515zm2.197-1.358a1.52 1.52 0 00-1.115.36 1.52 1.52 0 00-.534 1.041c-.032.407.095.803.36 1.115.264.311.634.5 1.041.534a1.532 1.532 0 001.65-1.626 1.534 1.534 0 00-1.402-1.424z" fill="#BDD0FB"/><path d="M17.713 42.118a5.261 5.261 0 00.34 1.541l.018.044a.275.275 0 10.51-.203 4.626 4.626 0 01-.264-.95l-.009-.053a4.58 4.58 0 01.78-3.365l.006-.009c.007-.008.012-.017.018-.026a4.6 4.6 0 013.478-1.934 4.596 4.596 0 012.98.85 4.6 4.6 0 011.879 3.005 4.605 4.605 0 01-.795 3.453 4.6 4.6 0 01-3.471 1.933 4.615 4.615 0 01-1.986-.307.274.274 0 00-.357.155.276.276 0 00.155.357 5.171 5.171 0 002.745.284 5.145 5.145 0 003.36-2.103 5.14 5.14 0 00.89-3.863 5.145 5.145 0 00-2.103-3.36 5.138 5.138 0 00-3.863-.891 5.187 5.187 0 00-4.312 5.442z" fill="#BDD0FB"/><path d="M70.178 83.87c-.038-.474-.522-.885-1.343-1.214.892-.492 1.385-1.018 1.343-1.535-.126-1.564-5.078-2.44-11.061-1.958s-10.731 2.141-10.605 3.705c.038.474.523.885 1.343 1.214-.892.492-1.385 1.018-1.343 1.535.038.474.523.885 1.343 1.214-.892.492-1.385 1.018-1.343 1.535.038.475.523.885 1.343 1.214-.892.492-1.385 1.019-1.343 1.535.056.692 1.057 1.249 2.672 1.614-.02.51-.01 1.07.041 1.69.234 2.881 3.475 5.14 7.762 5.14 4.287 0 7.998-3.08 8.04-5.97.01-.71-.02-1.333-.084-1.887 2.051-.685 3.3-1.522 3.235-2.334-.038-.474-.523-.885-1.343-1.214.891-.491 1.385-1.018 1.343-1.535-.038-.474-.523-.885-1.343-1.214.892-.492 1.385-1.019 1.343-1.535z" fill="#000"/><path d="M56.349 93.351c-1.777 0-3.403-.13-4.746-.388a.144.144 0 01.054-.282c2.102.402 4.91.491 7.905.25 2.452-.198 4.745-.593 6.63-1.144a.144.144 0 11.081.276c-1.904.555-4.217.955-6.687 1.154-1.114.09-2.201.134-3.237.134z" fill="url(#paint0_linear_132_1629)"/><path d="M56.379 90.6c-2.309 0-4.372-.218-5.827-.632a.144.144 0 01.078-.277c2.074.59 5.413.774 8.932.49 3.482-.28 6.728-.987 8.685-1.89a.144.144 0 01.12.262c-1.985.916-5.268 1.632-8.781 1.915a40.216 40.216 0 01-3.207.131zm-.03-2.748c-2.493 0-4.674-.255-6.142-.74a.144.144 0 01.09-.272c2.043.673 5.506.894 9.265.591 3.48-.28 6.728-.987 8.685-1.89a.144.144 0 01.12.262c-1.986.916-5.269 1.632-8.782 1.915-1.113.09-2.202.134-3.236.134zm.019-2.751c-1.977 0-3.776-.16-5.174-.47a.144.144 0 01.063-.28c2.102.466 5.13.588 8.305.331 3.45-.278 6.68-.977 8.64-1.869a.144.144 0 01.12.262c-1.99.905-5.255 1.613-8.736 1.894a40.29 40.29 0 01-3.218.132z" fill="#91B3FA"/><path d="M44.497 69.992a20.231 20.231 0 00-3.623-7.075C37.312 58.428 31.502 49.3 30.786 36.84c-1.04-18.123 15.033-27.196 29.7-25.964 14.667 1.232 29.14 12.152 27.555 29.012-.975 10.374-6.781 18.243-11.105 22.762-2.745 2.87-4.703 6.384-5.763 10.211-1.298 4.684-4.385 10.522-11.724 10.878-9.496.46-13.44-8.392-14.952-13.748z" fill="#C6EEEF"/><path d="M61.875 80.124l5.132-33.378c.106-.69.445-1.153.758-1.035.312.119.48.774.374 1.463l-.01.06-5.846 33.068c-.044.249-.17.405-.282.35-.108-.053-.163-.287-.126-.528zm-5.328.266l-5.131-33.38c-.107-.689-.446-1.152-.758-1.033-.313.118-.48.773-.375 1.462l.01.06 5.846 33.068c.044.249.17.406.282.35.108-.053.163-.287.126-.528z" fill="#74FCFD"/><path opacity=".65" d="M66.97 43.88c-.13-.21-.432-.288-.674-.175L63.44 45.04l-.992-2.827a.607.607 0 00-.348-.35c-.328-.135-.722-.014-.878.271l-.005.01-2.35 4.284-2.181-6.1-.003-.01a.695.695 0 00-.33-.371c-.366-.2-.85-.105-1.08.212l-3.285 4.523c-.134.185-.088.434.116.57a.55.55 0 00.699-.076l2.893-3.226 2.604 5.802.002.005a.46.46 0 00.23.224c.244.115.55.036.681-.176l2.514-4.033.946 2.04.008.018a.421.421 0 00.024.044c.13.209.431.287.673.174l3.392-1.585c.24-.112.331-.374.2-.583z" fill="#fff"/><path d="M114.144 107.151H53.282V94.969h60.862c-1.303 0-1.303 12.182 0 12.182z" fill="#C6EEEF"/><path d="M53.281 104.102v-5.574c0-1.965 1.203-3.559 2.687-3.559h59.889a.143.143 0 00.143-.143v-2.468a.143.143 0 00-.143-.143h-63.8c-1.452 0-3.757 2.283-3.757 5.098v7.786c0 2.655 2.237 4.807 3.606 4.807h63.951a.144.144 0 00.143-.144v-2.468a.144.144 0 00-.143-.143H55.583c-1.271 0-2.302-1.365-2.302-3.049z" fill="#74A1BB"/><path d="M112.036 97.612H54.969a.143.143 0 110-.286h57.067a.143.143 0 110 .286z" fill="url(#paint1_linear_132_1629)"/><path d="M112.036 99.42H54.969a.143.143 0 110-.287h57.067a.143.143 0 110 .287z" fill="url(#paint2_linear_132_1629)"/><path d="M112.036 101.228H54.969a.143.143 0 110-.286h57.067a.143.143 0 110 .286z" fill="url(#paint3_linear_132_1629)"/><path d="M112.036 103.036H54.969a.143.143 0 110-.286h57.067a.143.143 0 110 .286z" fill="url(#paint4_linear_132_1629)"/><path d="M112.036 104.845H54.969a.143.143 0 110-.287h57.067a.143.143 0 110 .287z" fill="url(#paint5_linear_132_1629)"/><path d="M60.173 92.298h55.014a.588.588 0 00.588-.588V81.02a.588.588 0 00-.588-.589H60.173a.588.588 0 00-.588.588v10.69a.59.59 0 00.588.589z" fill="#597B8E"/><path d="M110.219 81.795h-5.775v9.139h5.775v-9.14zm-6.624 0h-2.168v9.139h2.168v-9.14z" fill="#C6EEEF"/><path d="M15.45 92.001h-1.354v14.649h1.354V92.001z" fill="#7D97F4"/><path d="M20.705 106.933H8.841v-.473a.41.41 0 01.41-.409h11.014a.44.44 0 01.44.44v.442zm2.244-15.473c0 .852-.697 1.549-1.548 1.549H8.644a1.553 1.553 0 01-1.548-1.548v-1.4c0-.851.697-1.548 1.548-1.548h12.757c.85 0 1.548.697 1.548 1.548v1.4z" fill="#7D97F4"/><path d="M28.288 103.962s3.868 2.788 3.196 4.661c0 0-4.232-1.825-4.743-3.264-.511-1.439.087-2.074.087-2.074l1.46.677z" fill="#000"/><path d="M27.707 101.626l-.633 1.828c-.095.276 0 .59.247.746.124.078.293.151.523.203a.74.74 0 00.82-.372l.756-1.424-1.713-.981z" fill="url(#paint6_linear_132_1629)"/><path d="M21.552 85.168s7.945 1.377 11.352 4.525c3.408 3.149-3.128 13.191-3.128 13.191s-1.07-.007-2.368-1.119c0 0 3.875-7.553.535-9.756-3.754-2.476-8.082-3.033-8.082-3.033l1.614-3.565.077-.243z" fill="#597B8E"/><path d="M30.812 107.587c-.85-.393-3.259-2.079-3.665-2.154-.406-.074-1.11.403-1.11.403s-.172.308.012.845c.565.684 1.82 1.989 3.508 2.474 1.24.358 2.11.025 2.65-.365a3.592 3.592 0 00-1.395-1.203z" fill="#000"/><path d="M29.557 109.155c-1.688-.485-2.943-1.79-3.508-2.474.124.363.41.831 1.019 1.38 1.513 1.359 4.402 1.85 5.018 1.755.493-.076.446-.531.12-1.026-.54.39-1.408.723-2.65.365z" fill="#000"/><path d="M25.315 104.646c.01.234.489 1.038.769 1.489a.731.731 0 00.618.346c.16.001.344-.014.511-.061a.474.474 0 00.318-.59l-.547-1.868-1.669.684z" fill="url(#paint7_linear_132_1629)"/><path d="M13.904 82.783s-1.764 4.718 0 6.153c1.765 1.434 5.974 3.05 6.914 5.908.94 2.857 2.536 8.411 4.672 10.378 0 0 1.5-.146 2.062-.743 0 0-1.217-8.291-2.019-10.419-.695-1.842-1.718-4.5-3.68-5.987-.56-.425-.463-1.1-.203-1.754l.475-1.192-8.22-2.344z" fill="#597B8E"/><path d="M32.306 79.085c-2.959.179-2.037-4.547-1.983-4.736l-4.49 3.172s.237 2.527 3.97 3.853c.945.335 1.808.35 2.571.186a4.083 4.083 0 01-.068-2.475z" fill="#74FCFD"/><path d="M38.026 77.663c-1.102-.767-2.351 0-2.351 0-1.474.964-2.565 1.374-3.37 1.423a4.085 4.085 0 00.07 2.475c1.65-.355 2.832-1.55 3.346-2.163a.533.533 0 01.738-.08c.23.18.452.429.412.69-.08.515.518.679.563.492.045-.187-.205-1.294-.205-1.294s1.196 1.202 1.663 1.664c.466.462 1.053 0 1.053 0s-.816-2.44-1.919-3.207z" fill="url(#paint8_linear_132_1629)"/><path d="M18.511 67.05s4.304-1.723 12.314 4.89c0 0 .67 1.385-.06 2.617-.73 1.233-7.685 7.239-8.64 10.57 0 0-4.144 1.346-8.429-1.847 0 0 .379-9.27 4.815-16.23z" fill="#74FCFD"/><path d="M27.02 65.513L24.9 68.08a.844.844 0 00-.111.907c.294.6.992 1.473 2.54 1.352a1.3 1.3 0 001.069-.73l1.481-3.062-2.86-1.035z" fill="url(#paint9_linear_132_1629)"/><path d="M15.18 78.05c-.5-2.034 4.56-6.57 4.56-6.57l-1.228-4.43s-10.929 7.275-8.144 13.126c.4.838.93 1.426 1.545 1.819.88-2.369 2.282-3.455 3.266-3.944z" fill="#74FCFD"/><path d="M15.176 77.755a.119.119 0 01-.116-.091c-.511-2.08 4.389-6.502 4.597-6.69a.12.12 0 11.16.179c-.05.045-5.002 4.511-4.525 6.454a.12.12 0 01-.116.148z" fill="#597B8E"/><path d="M22.845 77.876s-6 2.33-7.465.577a.98.98 0 01-.2-.402c-.985.489-2.387 1.575-3.267 3.944 3.155 2.016 8.55-1.122 10.008-2.047a1.09 1.09 0 01.806-.148c.563.116 1.535.288 2.059.207.767-.118 1.868 2.587 3.11 1.752 0 0-1.064-4.7-5.051-3.883z" fill="url(#paint10_linear_132_1629)"/><path d="M32.305 62.556s.037 2.797-.415 4.067c-.452 1.27-.523 2.188-2.063 1.836-1.54-.353-2.449-1.575-2.585-3.087 0 0-.226-2.336.332-3.019.557-.684 4.731.203 4.731.203z" fill="url(#paint11_linear_132_1629)"/><path d="M28.106 64.69l.182.076s-.104-1.847.665-1.841c.77.006 3.595.568 4.544-.12.915-.662.915-2.014.328-2.639a.105.105 0 00-.142-.006l-.108.088a.106.106 0 01-.172-.094c.01-.09-.09-.152-.163-.1-.288.204-.942.458-2.286.164-1.908-.417-3.38-.191-3.922 1.02a.106.106 0 01-.185.017c-.097-.135-.29-.26-.669-.142-.658.204-.904 1.348-.204 2.669.033.062 0 .141-.07.154-.246.044-.66.223-.081.935.592.729 1.062.874 1.251.902.05.007.1-.022.116-.07l.388-1.113a.106.106 0 01.141-.062l.387.161z" fill="#74A1BB"/><path d="M28.055 64.935s.242-1.675-.613-1.536c-.855.14-.36 1.84.161 2.125l.452-.589z" fill="url(#paint12_linear_132_1629)"/><path d="M48.155 109.472c.07 0 .14-.013.208-.041a.506.506 0 00.277-.673L37.545 83.787a.536.536 0 00-.695-.268.506.506 0 00-.277.672l11.096 24.972a.53.53 0 00.486.309z" fill="#91B3FA"/><path d="M35.655 109.472a.53.53 0 00.487-.309l11.095-24.972a.506.506 0 00-.277-.672.536.536 0 00-.695.268L35.17 108.758a.506.506 0 00.277.673.548.548 0 00.208.041zm-21.845 0c.07 0 .14-.013.208-.041a.506.506 0 00.277-.673L3.2 83.787a.536.536 0 00-.695-.268.506.506 0 00-.277.672l11.095 24.972a.53.53 0 00.487.309z" fill="#91B3FA"/><path d="M1.31 109.472a.53.53 0 00.487-.31l11.095-24.97a.506.506 0 00-.277-.674.536.536 0 00-.695.268L.825 108.758a.505.505 0 00.277.672.55.55 0 00.208.042z" fill="#91B3FA"/><path d="M.009 83.015a.61.61 0 01.105-.462.48.48 0 01.385-.203h50.476c.196 0 .379.112.484.296a.71.71 0 01.038.617l-.547 1.325c-.126.303-.397.497-.696.497H.845c-.277 0-.516-.22-.569-.525L.01 83.015z" fill="#91B3FA"/><path d="M25.919 82.47l.029.001 12.589-.014a.563.563 0 10-.001-1.127l-12.59.014a.564.564 0 00-.027 1.126z" fill="#000"/><path d="M49.854 71.04H39.37a2 2 0 00-1.808 1.146l-4.847 10.278h13.03c.499 0 .946-.305 1.13-.769l3.758-9.51a.837.837 0 00-.779-1.145z" fill="#000"/><path d="M42.468 76.31c-.227.705-.06 1.39.375 1.53.434.14.97-.319 1.197-1.025.227-.706.06-1.391-.374-1.53-.435-.14-.971.318-1.198 1.024z" fill="#C6EEEF"/><path d="M75.65 92.895c.019-.007 10.18-17.8 11.552-19.475.231-.282.589-.425.95-.382l2.837.338 3.331 7.208-5.55-3.233c.55 3.799-6.581 9.444-9.026 11.503a.562.562 0 00-.045.819l.977 1.021c-1.603 1.625-3.453 2.668-5.54 3.15l.514-.949z" fill="url(#paint13_linear_132_1629)"/><path d="M80.11 90.143s.623.2.834.756a.634.634 0 01-.238.731c-1.026.736-4.41 3.109-5.972 3.573a.177.177 0 01-.221-.208c.08-.363.339-1.087 1.174-2.148l-.075.152c-.094.192.115.391.3.286 1.045-.59 3.173-1.88 4.198-3.142z" fill="#000"/><path d="M79.607 97.262c.017-.01 1.542-3.683 1.559-3.695 1.398-8.51 4.808-15.797 5.813-17.715.17-.322.49-.535.853-.566l2.846-.243 4.721 6.384-6.09-2.042c1.307 3.609-4.534 10.58-6.511 13.092a.561.561 0 00.122.81l1.163.803c-1.241 1.915-2.841 3.311-4.788 4.206l.312-1.034z" fill="url(#paint14_linear_132_1629)"/><path d="M83.418 93.664s.651.071.97.572a.635.635 0 01-.086.764c-.856.928-3.69 3.937-5.125 4.708a.177.177 0 01-.258-.159c.005-.371.112-1.133.715-2.34l-.043.163a.218.218 0 00.353.22c.903-.79 2.726-2.484 3.474-3.928zm20.58-19.965s2.574 3.829 2.785 5.575c.212 1.747-.712 2.35-3.406 2.573-8.018.663-11.97-1.74-11.97-1.74-.549-3.497-.939-4.386-5.52-6.288 0 0 5.794.46 6.96.007 1.166-.452 11.151-.127 11.151-.127zM93.733 52.247s1.793-2.122 3.699.481c.345.472 1.671.083 2.157 1.07.251.509.793.798 1.352.695 1.391-.256 3.664-.278 4.787 1.902.857 1.664.195 2.637-.662 3.192-.629.408-.853 1.236-.473 1.881.365.62.433 1.459-.509 2.469-2.111 2.263-6.29-1.436-6.29-1.436l-3.318-7.841-.743-2.413z" fill="#000"/><path d="M97.037 73.191s-2.998-2.854-4.474-4.745a4.011 4.011 0 01-.679-3.61c.674-2.27 1.871-4.62 1.98-4.986.168-.561 3.529-.538 3.529-.538s6.614 4.293 9.213 11.565l-2.919.908s-1.726-2.897-3.433-4.74c0 0 2.952 3.901 3.056 5.498l-6.273.648z" fill="#C6EEEF"/><path d="M91.325 74.318l2.252-2.45 2.602.7s3.033.47 4.768 0l1.736-.47 3.923-1.222.616 1.742a1.05 1.05 0 01-.383 1.204c-.339.241-.737.506-.991.617-.516.226-11.9.072-11.9.072l-2.623-.193z" fill="url(#paint15_linear_132_1629)"/><path d="M95.082 55.271l2.26 4.2c-.15.918-2.46.944-2.816.396a.539.539 0 01-.07-.185l-1.353-2.807c-.057-.273.693-1.196.94-1.327l.897-.478c.347-.184-1.096-.199.142.201z" fill="url(#paint16_linear_132_1629)"/><path d="M90.51 54.285s-.255 1.42.86 3.224c1.116 1.805 2.227 1.723 2.791 1.08.565-.644 1.24-1.716.933-3.516-.307-1.8-4.198-2.598-4.584-.788z" fill="url(#paint17_linear_132_1629)"/><path d="M93.744 55.269s-1.806-2.373-3.193-.304l.023.714s-1.803-.084-1.608-1.747c.196-1.662 1.668-2.797 3.71-2.23 2.04.569 3.233 1.215 3.463 2.632.231 1.417-.926 1.186-.926 1.186s-.442-.978-.976-1.045c-.534-.067-.341.707-.341.707l-.152.087z" fill="#000"/><path d="M94.159 55.206s-.936-1.214-.085-1.467c.852-.251.82 1.19.765 1.727l-.68-.26z" fill="url(#paint18_linear_132_1629)"/><path d="M98.781 75.288h-.024l-10.36-.011a.463.463 0 110-.928l10.361.012a.463.463 0 01.023.927z" fill="#C6EEEF"/><path d="M79.083 65.881h8.628c.637 0 1.216.367 1.488.943l3.989 8.458H82.465a.999.999 0 01-.93-.632l-3.093-7.826a.689.689 0 01.641-.943z" fill="#000"/><path d="M85.161 70.218c.188.58.05 1.145-.308 1.26-.358.115-.799-.262-.986-.844-.187-.58-.049-1.145.309-1.26.357-.115.799.263.985.844z" fill="#C6EEEF"/><path d="M67.552 5.994l-3.543 5.615s.25 10.188 10.436 15.478c10.185 5.29 15.592.854 15.592.854l4.536-8.367-27.021-13.58z" fill="#597B8E"/><path d="M86.089.002L63.192 1.278c-1.18.065-1.809 1.419-1.098 2.362 3.466 4.6 11.299 15.26 13.885 21.02.277.615.938.962 1.603.845l23.813-4.21a1.476 1.476 0 00.934-2.327C98.917 14.318 90.202 2.633 87.047.288a1.47 1.47 0 00-.958-.286z" fill="#000"/><path d="M83.161 11.038s9.894 9.792 10.404 11.642c.51 1.85-2.918 8.991-2.918 8.991.401 6.774-.86 13.754-4.717 16.7 0 0-1.917-9.215.548-12.375 2.464-3.16 3.433-4.466 3.433-4.466s3.247-7.702 3.034-8.953c0 0-10.86-11.295-9.784-11.539z" fill="#597B8E"/><path d="M65.696 3.89l8.619 13.331 1.607 2.487.788 1.22.387.598c.063.097.13.205.19.29a2.057 2.057 0 001.278.866c.2.045.407.058.608.042.209-.019.43-.045.64-.066l2.39-.252 4.933-.52a.14.14 0 01.03.277l-4.928.565-2.387.274c-.214.024-.423.05-.648.073a2.42 2.42 0 01-2.222-1.043c-.076-.107-.133-.199-.2-.3l-.393-.595-.8-1.212-1.63-2.47-8.742-13.252a.286.286 0 01.478-.315l.002.002zm23.29 31.508s-.043.027-.094.068a1.4 1.4 0 00-.107.088c-.043.038-.094.079-.146.134-.052.053-.114.11-.175.177-.06.07-.126.144-.196.223-.069.08-.134.175-.207.27-.035.049-.075.096-.11.148-.033.054-.069.109-.104.164-.069.113-.152.224-.218.352l-.21.392c-.075.133-.13.282-.198.428-.063.148-.137.295-.189.456l-.171.482-.044.123-.035.126-.07.255-.141.517-.106.53c-.033.178-.077.354-.101.533l-.07.534-.066.526-.034.517-.032.5-.015.243v.238l-.004.882c-.007.273.015.523.025.744l.031.575.027.5v.006a.1.1 0 01-.198.014l-.044-.504-.05-.577c-.017-.224-.047-.475-.049-.751l-.025-.892-.007-.24.007-.247.017-.508.017-.527.051-.538.054-.547c.019-.184.058-.365.086-.549l.091-.548.129-.538.064-.265.032-.132.041-.13.163-.507c.048-.169.12-.326.182-.484.067-.155.12-.312.194-.457l.21-.422c.065-.138.15-.26.22-.384l.107-.179c.037-.057.077-.11.114-.164.076-.106.143-.21.216-.301l.208-.254c.066-.077.133-.143.191-.206.057-.062.115-.114.165-.16a1.89 1.89 0 01.133-.116c.082-.067.116-.09.116-.09l.009-.006a.287.287 0 11.316.478z" fill="#91B3FA"/><path d="M88.706 38.394l-.026.09c-.016.058-.028.129-.05.226l-.198.91-.579 2.797-.826 4.072a.155.155 0 01-.307-.056l.699-4.098.491-2.816.172-.936c.025-.125.047-.23.061-.29l.022-.09a.286.286 0 01.555.135c0 .003 0 .006-.002.008l-.012.048z" fill="#91B3FA"/><defs><linearGradient id="paint0_linear_132_1629" x1="58.285" y1="94.726" x2="48.898" y2="128.924" gradientUnits="userSpaceOnUse"><stop stop-color="#4F52FF"/><stop offset="1" stop-color="#4042E2"/></linearGradient><linearGradient id="paint1_linear_132_1629" x1="54.826" y1="97.469" x2="112.18" y2="97.469" gradientUnits="userSpaceOnUse"><stop stop-color="#DAE3FE"/><stop offset="1" stop-color="#E9EFFD"/></linearGradient><linearGradient id="paint2_linear_132_1629" x1="54.826" y1="99.277" x2="112.18" y2="99.277" gradientUnits="userSpaceOnUse"><stop stop-color="#DAE3FE"/><stop offset="1" stop-color="#E9EFFD"/></linearGradient><linearGradient id="paint3_linear_132_1629" x1="54.826" y1="101.085" x2="112.18" y2="101.085" gradientUnits="userSpaceOnUse"><stop stop-color="#DAE3FE"/><stop offset="1" stop-color="#E9EFFD"/></linearGradient><linearGradient id="paint4_linear_132_1629" x1="54.826" y1="102.893" x2="112.18" y2="102.893" gradientUnits="userSpaceOnUse"><stop stop-color="#DAE3FE"/><stop offset="1" stop-color="#E9EFFD"/></linearGradient><linearGradient id="paint5_linear_132_1629" x1="54.826" y1="104.701" x2="112.18" y2="104.701" gradientUnits="userSpaceOnUse"><stop stop-color="#DAE3FE"/><stop offset="1" stop-color="#E9EFFD"/></linearGradient><linearGradient id="paint6_linear_132_1629" x1="27.038" y1="103.023" x2="29.42" y2="103.023" gradientUnits="userSpaceOnUse"><stop stop-color="#FEBBBA"/><stop offset="1" stop-color="#FF928E"/></linearGradient><linearGradient id="paint7_linear_132_1629" x1="25.315" y1="105.222" x2="27.551" y2="105.222" gradientUnits="userSpaceOnUse"><stop stop-color="#FEBBBA"/><stop offset="1" stop-color="#FF928E"/></linearGradient><linearGradient id="paint8_linear_132_1629" x1="32.147" y1="79.441" x2="39.945" y2="79.441" gradientUnits="userSpaceOnUse"><stop stop-color="#FEBBBA"/><stop offset="1" stop-color="#FF928E"/></linearGradient><linearGradient id="paint9_linear_132_1629" x1="24.706" y1="67.932" x2="29.88" y2="67.932" gradientUnits="userSpaceOnUse"><stop stop-color="#FEBBBA"/><stop offset="1" stop-color="#FF928E"/></linearGradient><linearGradient id="paint10_linear_132_1629" x1="21.177" y1="79.535" x2="1.367" y2="113.959" gradientUnits="userSpaceOnUse"><stop stop-color="#FEBBBA"/><stop offset="1" stop-color="#FF928E"/></linearGradient><linearGradient id="paint11_linear_132_1629" x1="31.647" y1="64.729" x2="23.872" y2="66.761" gradientUnits="userSpaceOnUse"><stop stop-color="#FEBBBA"/><stop offset="1" stop-color="#FF928E"/></linearGradient><linearGradient id="paint12_linear_132_1629" x1="31.317" y1="63.468" x2="23.542" y2="65.5" gradientUnits="userSpaceOnUse"><stop stop-color="#FEBBBA"/><stop offset="1" stop-color="#FF928E"/></linearGradient><linearGradient id="paint13_linear_132_1629" x1="73.215" y1="77.99" x2="89.233" y2="87.133" gradientUnits="userSpaceOnUse"><stop stop-color="#FEBBBA"/><stop offset="1" stop-color="#FF928E"/></linearGradient><linearGradient id="paint14_linear_132_1629" x1="74.764" y1="80.27" x2="19.957" y2="45.96" gradientUnits="userSpaceOnUse"><stop stop-color="#FEBBBA"/><stop offset="1" stop-color="#FF928E"/></linearGradient><linearGradient id="paint15_linear_132_1629" x1="101.27" y1="72.719" x2="117.227" y2="72.719" gradientUnits="userSpaceOnUse"><stop stop-color="#FEBBBA"/><stop offset="1" stop-color="#FF928E"/></linearGradient><linearGradient id="paint16_linear_132_1629" x1="94.776" y1="65.093" x2="95.145" y2="59.345" gradientUnits="userSpaceOnUse"><stop stop-color="#FEBBBA"/><stop offset="1" stop-color="#FF928E"/></linearGradient><linearGradient id="paint17_linear_132_1629" x1="95.319" y1="60.23" x2="88.376" y2="46.942" gradientUnits="userSpaceOnUse"><stop stop-color="#FEBBBA"/><stop offset="1" stop-color="#FF928E"/></linearGradient><linearGradient id="paint18_linear_132_1629" x1="96.908" y1="59.399" x2="89.965" y2="46.111" gradientUnits="userSpaceOnUse"><stop stop-color="#FEBBBA"/><stop offset="1" stop-color="#FF928E"/></linearGradient></defs></svg>