<svg width="118" height="117" fill="none" xmlns="http://www.w3.org/2000/svg"><path d="M6.197 3.26c-.107-.458.538-.763.932-.443 4.01 3.251 13.644 12.988 11.243 30.004-3.012 21.35 2.138 29.14 8.549 33.89 0 0-8.804-2.233-14.343-10.138-13.6-19.408-4.466-45.162-6.38-53.313z" fill="#74FCFD"/><path d="M9.249 9.928c.501 2.377.949 4.76 1.294 7.155.36 2.393.636 4.794.825 7.199.178 2.405.304 4.813.31 7.222.02 2.409-.08 4.816-.19 7.232-.095 2.415-.206 4.848-.03 7.298.175 2.445.69 4.911 1.71 7.224.256.576.524 1.15.829 1.705.293.56.615 1.11.948 1.654a26.108 26.108 0 002.275 3.128c1.695 1.988 3.738 3.75 5.99 5.242a.6.6 0 00.758-.087c.178-.2.138-.487-.088-.646l-.001-.001a36.02 36.02 0 01-1.574-1.157c-.258-.197-.506-.403-.757-.605-.243-.21-.495-.412-.73-.628a26.04 26.04 0 01-6.535-8.966 21.114 21.114 0 01-1.134-3.404 23.23 23.23 0 01-.547-3.526c-.192-2.378-.106-4.786-.03-7.202.07-2.416.122-4.845.059-7.272a87.949 87.949 0 00-.16-3.637c-.036-.605-.084-1.21-.132-1.816a120.4 120.4 0 00-.176-1.813c-.26-2.415-.606-4.821-1.039-7.215a98.068 98.068 0 00-1.59-7.134c-.019-.068-.096-.11-.175-.095-.076.015-.124.08-.11.145z" fill="#fff"/><path d="M16.584 54.36a1.01 1.01 0 01-1.652-.28c-1.632-3.604-5.325-14.207.774-26.423 5.151-10.316 6.963-16.4 7.595-19.218.133-.596.95-.675 1.196-.116 2.72 6.165 9.903 27.136-7.913 46.038z" fill="#D3E9F8"/><path d="M15.691 53.98a.28.28 0 01-.33-.28c.003-.175.345-17.687 6.858-32.354a.28.28 0 01.512.227c-6.466 14.56-6.807 31.962-6.81 32.136a.28.28 0 01-.23.271z" fill="#fff"/><path d="M86.287 27.31c-1.56-2.739-2.76-6.422-.31-9.179 4.427-4.979 13.279-6.086 15.492 1.66.915 3.204.269 5.694-.804 7.513-.994 1.685.231 3.808 2.187 3.808h14.107v18.823c0 1.7-1.909 2.672-3.306 1.704-9.464-6.57-14.399 1.179-14.41 4.666-.01 3.873 1.672 13.001 7.758 12.725 2.781-.126 5.1-1.061 6.798-2.04 1.406-.81 3.16.177 3.16 1.8v17.544h-14.6c-1.733 0-2.767 1.914-1.824 3.369 1.083 1.671 1.99 4.094 2.04 7.542.125 8.778-13.279 7.192-16.598 4.426-2.37-1.976-2.468-8.311-.622-12.23.682-1.447-.44-3.107-2.04-3.107H69.102V67.135c0-1.4-1.52-2.26-2.723-1.545-2.446 1.453-6.224 3.275-10.001 3.44-6.362.276-7.193-6.916-7.47-12.448-.244-4.886 9.072-12.797 16.426-7.974 1.205.79 3.678 1.946 3.678.505V31.112h15.08c1.954 0 3.16-2.105 2.194-3.802z" fill="#D3E9F8"/><path d="M94.105 104.137c-.743 0-1.512-.049-2.299-.148-2.532-.32-4.834-1.125-6.007-2.103-2.559-2.132-2.522-8.69-.697-12.563a1.828 1.828 0 00-.122-1.79 1.964 1.964 0 00-1.665-.92h-14.21a.28.28 0 01-.28-.28V67.136c0-.554-.287-1.048-.767-1.321a1.508 1.508 0 00-1.535.016c-2.516 1.496-6.317 3.313-10.131 3.48-2.934.13-5.051-1.291-6.287-4.217-1.049-2.481-1.334-5.688-1.474-8.497-.134-2.67 2.345-6.084 5.894-8.117 3.774-2.162 7.77-2.2 10.964-.105 1.11.727 2.608 1.35 3.095 1.087.04-.022.15-.081.15-.347V31.112a.28.28 0 01.28-.28h15.08c.811 0 1.537-.416 1.943-1.115.41-.706.413-1.554.006-2.268-2.228-3.913-2.323-7.2-.275-9.504 2.706-3.043 7.005-4.62 10.453-3.834 2.701.616 4.661 2.606 5.517 5.603.807 2.826.527 5.428-.832 7.732-.413.7-.419 1.54-.015 2.248a2.235 2.235 0 001.961 1.138h14.108a.28.28 0 01.279.28v18.823c0 .896-.472 1.678-1.264 2.093a2.393 2.393 0 01-2.481-.16c-4.696-3.26-7.977-2.747-9.902-1.743-2.767 1.442-4.063 4.54-4.068 6.18-.01 2.998.954 8.394 3.644 10.972 1.089 1.043 2.37 1.537 3.821 1.473 2.301-.105 4.546-.778 6.671-2.003a2.38 2.38 0 012.403-.004 2.337 2.337 0 011.177 2.046v17.545a.28.28 0 01-.28.28h-14.6c-.708 0-1.331.37-1.668.988a1.883 1.883 0 00.078 1.948c1.34 2.067 2.042 4.655 2.085 7.69.039 2.71-1.196 4.742-3.573 5.876-1.41.673-3.199 1.021-5.177 1.021zm-24.72-18.083h13.93c.87 0 1.67.44 2.138 1.18.45.71.509 1.58.156 2.327-1.88 3.992-1.599 10.106.549 11.895 2.2 1.834 8.848 3.081 12.884 1.155 2.195-1.047 3.29-2.851 3.254-5.362-.042-2.93-.713-5.417-1.995-7.394a2.434 2.434 0 01-.1-2.52 2.422 2.422 0 012.159-1.281h14.32V68.789a1.78 1.78 0 00-.897-1.56 1.825 1.825 0 00-1.843.003c-2.204 1.27-4.534 1.969-6.926 2.077-1.603.074-3.029-.475-4.232-1.628-2.818-2.7-3.827-8.283-3.817-11.377.005-1.829 1.365-5.11 4.369-6.676 2.062-1.075 5.554-1.638 10.48 1.78a1.81 1.81 0 001.902.124c.604-.316.965-.913.965-1.597V31.392h-13.828a2.788 2.788 0 01-2.447-1.42 2.767 2.767 0 01.019-2.81c1.278-2.168 1.539-4.622.776-7.294-1.022-3.578-3.34-4.808-5.103-5.21-3.259-.744-7.334.761-9.91 3.66-1.306 1.47-2.307 4.198.343 8.854.506.89.503 1.946-.009 2.827a2.778 2.778 0 01-2.426 1.393H69.294v17.721c0 .497-.24.73-.443.84-1.069.578-3.562-1.042-3.668-1.111-3.011-1.975-6.794-1.93-10.378.123-3.322 1.903-5.735 5.171-5.614 7.603.139 2.76.416 5.906 1.431 8.308 1.152 2.725 3.03 3.992 5.747 3.874 3.698-.16 7.409-1.938 9.87-3.4a2.064 2.064 0 012.097-.022 2.056 2.056 0 011.05 1.807v18.919h-.002z" fill="#FCFCFC"/><path d="M15.297 66.2c-1.66 1.113-3.85 2.197-6.319 2.444-5.467.546-7.653-5.467-7.927-10.66-.273-5.194 4.374-10.114 8.474-9.568 1.93.258 4.044 1.485 5.74 2.712 1.368.99 3.28.017 3.28-1.674V30.8h18.872a2.152 2.152 0 001.958-3.053c-1.48-3.218-3.144-8.108-.824-10.219 3.605-3.28 13.343-3.28 14.983 1.64.918 2.755-.33 6.07-1.605 8.454-.77 1.437.268 3.17 1.898 3.17h16.107V48.07c0 1.843-2.084 2.988-3.587 1.921-6.968-4.945-14.577.271-15.274 6.08-.82 6.834 3.554 12.574 8.2 12.027 2.36-.277 5.072-1.612 7.17-2.859 1.541-.915 3.491.184 3.491 1.977v19.081H51.383c-2.123 0-3.543-2.214-2.623-4.127 1.097-2.28 5.59-5.078 5.32-7.238-.546-4.373-10.284-5.455-15.53-4.641-4.002.621-2.012 6.883.263 11.902.872 1.924-.517 4.105-2.63 4.105H18.546v-18.4c0-1.67-1.86-2.63-3.248-1.7z" fill="#74A1BB"/><path d="M69.934 86.576H51.383a3.172 3.172 0 01-2.7-1.493 3.127 3.127 0 01-.175-3.036c.47-.98 1.533-2.042 2.56-3.07 1.415-1.413 2.877-2.875 2.735-4.012-.105-.841-.598-1.599-1.464-2.252-1.973-1.488-7.848-3.063-13.745-2.147-.797.123-1.346.483-1.68 1.1-.913 1.69-.168 5.288 2.154 10.41a3.183 3.183 0 01-.221 3.05 3.154 3.154 0 01-2.663 1.45H18.545a.28.28 0 01-.28-.28V67.899a1.75 1.75 0 00-.936-1.568 1.798 1.798 0 00-1.876.101c-2.144 1.439-4.313 2.277-6.447 2.49-1.763.177-3.305-.291-4.586-1.39-.99-.85-3.33-3.482-3.649-9.534-.146-2.782 1.121-5.765 3.307-7.783 1.689-1.558 3.688-2.315 5.483-2.076 1.667.223 3.64 1.152 5.867 2.763a1.76 1.76 0 001.863.146c.61-.312.974-.907.974-1.593V30.801a.28.28 0 01.28-.28h18.871c.644 0 1.234-.322 1.58-.862.346-.54.392-1.21.124-1.793-1.662-3.613-3.143-8.374-.758-10.543 2.284-2.08 7.02-2.94 10.782-1.957 2.413.63 4.065 1.95 4.654 3.715.957 2.872-.355 6.302-1.624 8.674a1.86 1.86 0 00.043 1.849c.342.57.943.91 1.61.91h16.106a.28.28 0 01.28.28V48.07c0 .979-.545 1.868-1.421 2.321-.858.443-1.833.38-2.608-.171-2.953-2.095-6.271-2.5-9.345-1.137-2.981 1.32-5.136 4.077-5.49 7.022-.447 3.727.7 7.47 2.993 9.769 1.453 1.456 3.191 2.148 4.898 1.947 2.38-.28 5.153-1.69 7.059-2.822a2.568 2.568 0 012.61-.027 2.553 2.553 0 011.303 2.244v19.082a.277.277 0 01-.278.278zM42.14 69.764c3.67 0 8.1.665 10.536 2.502.992.748 1.558 1.633 1.682 2.63.176 1.408-1.384 2.968-2.893 4.477-.994.995-2.023 2.023-2.452 2.917a2.57 2.57 0 00.145 2.495 2.615 2.615 0 002.225 1.231h18.272V67.214a2 2 0 00-1.02-1.757 2.014 2.014 0 00-2.048.021c-1.953 1.16-4.801 2.605-7.28 2.897-1.878.221-3.783-.528-5.36-2.108-2.41-2.417-3.618-6.337-3.151-10.23.377-3.138 2.66-6.069 5.818-7.468 3.261-1.445 6.776-1.021 9.895 1.193.602.426 1.36.475 2.027.13a2.05 2.05 0 001.119-1.824V31.073H53.827a2.415 2.415 0 01-2.089-1.183 2.416 2.416 0 01-.057-2.401c1.218-2.274 2.481-5.549 1.587-8.233-.527-1.58-2.041-2.77-4.264-3.35-3.598-.939-8.106-.136-10.265 1.83-.964.877-2.13 3.329.89 9.894a2.423 2.423 0 01-.16 2.33 2.425 2.425 0 01-2.052 1.12H18.826v18.375c0 .887-.49 1.688-1.279 2.09a2.34 2.34 0 01-2.446-.19c-2.12-1.534-4.061-2.455-5.613-2.661-1.63-.218-3.464.487-5.03 1.932-2.067 1.908-3.265 4.722-3.127 7.343.213 4.048 1.504 7.465 3.454 9.138 1.16.995 2.561 1.42 4.165 1.258 2.042-.204 4.125-1.01 6.192-2.398a2.38 2.38 0 012.45-.13 2.3 2.3 0 011.234 2.062v18.117h17.358c.891 0 1.71-.446 2.192-1.193a2.624 2.624 0 00.182-2.516c-2.43-5.362-3.15-9.031-2.136-10.906.417-.77 1.118-1.237 2.086-1.388 1.012-.157 2.27-.249 3.632-.249z" fill="#FCFCFC"/><path opacity=".3" d="M89.063 19.002a.35.35 0 01-.399-.245c-.112-.378-.21-.768-.29-1.156a.35.35 0 01.27-.413l.007-.002a.35.35 0 01.407.273c.076.37.17.739.276 1.099a.35.35 0 01-.27.444zm-.537-3a.35.35 0 01-.413-.32 14.11 14.11 0 01-.03-1.19.35.35 0 11.699.012c-.007.375.003.756.028 1.132a.35.35 0 01-.284.367zm.135-3.041a.35.35 0 01-.41-.398c.063-.392.143-.785.238-1.17a.35.35 0 01.68.17c-.091.364-.167.738-.226 1.109a.35.35 0 01-.282.289zm.814-2.937a.35.35 0 01-.388-.474c.147-.368.313-.733.491-1.086a.35.35 0 01.624.315c-.17.336-.327.683-.468 1.032a.347.347 0 01-.26.213zm1.447-2.68a.35.35 0 01-.352-.543c.226-.325.468-.645.721-.95a.35.35 0 11.539.445c-.24.29-.47.594-.685.903a.348.348 0 01-.223.144zm2.004-2.295a.349.349 0 01-.3-.602c.291-.267.599-.525.912-.766a.35.35 0 01.427.554c-.298.23-.59.474-.867.728a.351.351 0 01-.172.086zm12.443-3.173a.357.357 0 01-.148-.004c-.365-.09-.739-.165-1.111-.223a.35.35 0 11.109-.691c.392.061.785.14 1.169.235a.35.35 0 01-.019.683zm-9.982 1.381a.35.35 0 01-.237-.648 14.11 14.11 0 011.06-.544.35.35 0 01.293.635c-.342.157-.68.331-1.007.517a.334.334 0 01-.109.04zm6.96-1.772a.383.383 0 01-.07.006c-.376-.006-.757.004-1.132.03a.35.35 0 11-.049-.698 14.12 14.12 0 011.192-.031.35.35 0 01.059.693zm-4.16.575a.35.35 0 01-.164-.678 14.1 14.1 0 011.155-.293l.008-.002a.35.35 0 01.135.686 13.235 13.235 0 00-1.134.287zm9.503.617a.352.352 0 01-.208-.025 13.56 13.56 0 00-.501-.213.349.349 0 11.261-.65c.177.072.354.147.527.225.176.08.255.287.176.463a.35.35 0 01-.255.2zm7.242 7.823a.349.349 0 01-.393-.225 13.87 13.87 0 00-.194-.51.349.349 0 11.648-.262c.071.177.14.357.204.536a.35.35 0 01-.265.462zm-10.303 17.985c-.158.03-.318.056-.478.08a.35.35 0 11-.105-.69c.37-.057.737-.128 1.094-.214a.351.351 0 01.422.26.35.35 0 01-.259.42 13.66 13.66 0 01-.674.144zm-2.318.234a.303.303 0 01-.059.005c-.39.007-.785-.004-1.173-.03a.35.35 0 11.048-.698c.368.025.744.034 1.114.029a.35.35 0 01.07.694zm4.748-.927a.35.35 0 01-.191-.67c.345-.134.688-.284 1.021-.447a.349.349 0 01.467.16.348.348 0 01-.16.468c-.35.172-.712.33-1.074.47a.306.306 0 01-.063.02zm-7.733.643a.349.349 0 01-.135-.002c-.382-.08-.764-.177-1.138-.288a.35.35 0 11.2-.67c.355.106.718.198 1.08.274a.35.35 0 01-.007.686zm10.387-2.031a.35.35 0 01-.259-.634c.306-.206.608-.429.897-.661a.35.35 0 11.438.545c-.305.244-.622.479-.945.696a.333.333 0 01-.131.054zm2.286-1.938a.349.349 0 01-.318-.584c.254-.269.501-.552.731-.84a.35.35 0 01.547.436c-.243.304-.502.602-.77.885a.353.353 0 01-.19.103zm1.81-2.39a.349.349 0 01-.364-.522c.19-.319.368-.648.531-.98a.35.35 0 11.628.307c-.171.35-.359.696-.559 1.031a.351.351 0 01-.236.165zm1.245-2.727a.348.348 0 01-.396-.453c.115-.352.218-.713.303-1.072a.35.35 0 01.68.161 13.9 13.9 0 01-.319 1.13.348.348 0 01-.268.234zm.616-2.935a.349.349 0 01-.413-.377c.035-.368.055-.742.059-1.113a.35.35 0 01.7.008c-.005.39-.026.784-.063 1.171a.35.35 0 01-.283.311zm-.044-2.997a.349.349 0 01-.412-.3 13.819 13.819 0 00-.184-1.1.35.35 0 01.271-.414.346.346 0 01.414.27 14.604 14.604 0 01.193 1.157.35.35 0 01-.282.387zM96.47 27.497a.347.347 0 01-.21-.026 13.956 13.956 0 01-.517-.249.35.35 0 01.316-.624c.163.082.327.162.49.236a.35.35 0 01-.08.663z" fill="#91B3FA"/><path d="M96.188 23.423c.053.045.129.05.19.016l1.708-1.018a8.673 8.673 0 002.675.854l.803 1.819a.163.163 0 00.163.096l2.378-.2a.163.163 0 00.144-.123l.489-1.927a8.656 8.656 0 002.493-1.289l1.856.719a.162.162 0 00.183-.047l1.54-1.823a.163.163 0 00.016-.189l-1.018-1.709a8.708 8.708 0 00.854-2.674l1.818-.803a.163.163 0 00.097-.164l-.2-2.377a.164.164 0 00-.123-.145l-1.927-.488a8.636 8.636 0 00-1.289-2.494l.719-1.855a.164.164 0 00-.047-.184l-1.823-1.54a.163.163 0 00-.189-.016l-1.709 1.018a8.664 8.664 0 00-2.674-.854l-.804-1.819a.162.162 0 00-.163-.097l-2.377.2a.164.164 0 00-.145.123l-.488 1.927a8.658 8.658 0 00-2.495 1.29l-1.855-.72a.163.163 0 00-.184.048L93.264 8.8a.165.165 0 00-.015.19l1.017 1.708a8.674 8.674 0 00-.854 2.675l-1.818.803a.163.163 0 00-.097.163l.2 2.378c.006.07.055.127.123.145l1.927.488a8.667 8.667 0 001.289 2.494l-.719 1.855a.164.164 0 00.047.184l1.824 1.54z" fill="#74A1BB"/><path d="M102.477 17.009a2.402 2.402 0 01-2.707-1.578 2.402 2.402 0 011.488-3.048 2.383 2.383 0 011.832.112c.576.282 1.008.77 1.216 1.376a2.402 2.402 0 01-1.829 3.138zm-.773-4.167a1.841 1.841 0 00-1.405 2.407 1.841 1.841 0 002.337 1.14 1.84 1.84 0 00.209-3.39 1.828 1.828 0 00-1.141-.157z" fill="#BDD0FB"/><path d="M103.162 20.405a6.065 6.065 0 01-.792.094 5.968 5.968 0 01-.957-.027l-.036-.005-.071-.008a.138.138 0 01-.119-.113.161.161 0 01-.002-.044.14.14 0 01.157-.121 5.617 5.617 0 006.323-6.042 5.574 5.574 0 00-1.972-3.82 5.58 5.58 0 00-4.096-1.307 5.623 5.623 0 00-5.051 6.634 5.58 5.58 0 00.958 2.242.14.14 0 01-.227.163 5.877 5.877 0 01-1.086-2.947 5.904 5.904 0 015.382-6.37 5.858 5.858 0 014.3 1.371 5.845 5.845 0 012.071 4.01 5.856 5.856 0 01-1.372 4.3 5.852 5.852 0 01-3.41 1.99z" fill="#BDD0FB"/><path opacity=".3" d="M79.027 30.253a.216.216 0 01-.232-.115 9.604 9.604 0 01-.236-.5.216.216 0 11.397-.172c.07.16.145.32.224.477a.216.216 0 01-.153.31zm-.614-1.544a.216.216 0 01-.246-.151 9.443 9.443 0 01-.257-1.12.224.224 0 01.178-.25.216.216 0 01.248.178 8.916 8.916 0 00.245 1.07.216.216 0 01-.168.273zm-.365-2.212a.216.216 0 01-.256-.203 9.316 9.316 0 01.022-1.15.216.216 0 01.431.036c-.03.362-.037.731-.021 1.096a.217.217 0 01-.176.22zm.182-2.236a.216.216 0 01-.251-.256c.078-.374.18-.748.304-1.11a.216.216 0 11.409.14 8.841 8.841 0 00-.29 1.058.215.215 0 01-.172.168zm.726-2.122a.216.216 0 01-.234-.307c.168-.344.358-.68.566-1a.216.216 0 01.362.235c-.198.305-.38.627-.54.954a.213.213 0 01-.154.118zm1.222-1.88a.215.215 0 01-.205-.351c.246-.293.513-.573.792-.833a.216.216 0 11.294.316 9.15 9.15 0 00-.755.795.214.214 0 01-.126.073zm1.641-1.526a.216.216 0 01-.166-.388c.31-.224.637-.43.97-.614a.216.216 0 01.209.379c-.32.175-.63.372-.926.585a.213.213 0 01-.087.038zm1.965-1.079a.216.216 0 01-.12-.413c.355-.14.722-.26 1.093-.357a.216.216 0 01.11.418 8.863 8.863 0 00-1.043.341.356.356 0 01-.04.011zm3.29-.643a.188.188 0 01-.037.004 8.967 8.967 0 00-1.094.077.216.216 0 01-.243-.186.214.214 0 01.186-.243 9.784 9.784 0 011.147-.081.216.216 0 01.041.429zm1.877 18.045a.216.216 0 01-.082-.424c.352-.07.703-.163 1.043-.275a.216.216 0 11.135.41 9.386 9.386 0 01-1.093.289h-.002zm-1.094.152a9.419 9.419 0 01-1.154.023.216.216 0 01.018-.432 9.01 9.01 0 001.079-.019.216.216 0 01.057.428zm3.188-.844a.215.215 0 01-.132-.407c.325-.154.643-.328.946-.52a.216.216 0 11.23.366c-.317.2-.65.384-.99.545a.264.264 0 01-.054.016zm-5.393.75a.215.215 0 01-.075 0 9.271 9.271 0 01-1.103-.254.216.216 0 01.122-.414c.344.102.698.183 1.052.242a.216.216 0 01.004.425zm7.258-1.927a.216.216 0 01-.177-.38 8.87 8.87 0 00.793-.73.216.216 0 11.312.299c-.26.27-.54.529-.831.766a.222.222 0 01-.097.045zm1.527-1.59a.216.216 0 01-.212-.342c.216-.288.416-.59.595-.9a.216.216 0 11.374.215 9.45 9.45 0 01-.623.944.217.217 0 01-.134.082zm1.103-1.911a.216.216 0 01-.238-.297c.14-.33.262-.673.361-1.017a.216.216 0 01.415.12 9.42 9.42 0 01-.379 1.066.215.215 0 01-.16.128zm-12.013 4.798a.216.216 0 01-.126-.014 9.412 9.412 0 01-.5-.234.216.216 0 11.196-.386c.154.079.315.154.477.224a.216.216 0 01-.047.41z" fill="#91B3FA"/><path d="M83.19 31.709a.11.11 0 00.127.01l1.144-.68a5.801 5.801 0 001.79.57l.537 1.217a.109.109 0 00.11.065l1.59-.133a.109.109 0 00.097-.083l.327-1.289a5.8 5.8 0 001.669-.862l1.24.48a.109.109 0 00.124-.031l1.03-1.22a.109.109 0 00.01-.126l-.68-1.144a5.802 5.802 0 00.57-1.79l1.217-.537a.109.109 0 00.065-.109l-.133-1.591a.109.109 0 00-.083-.097l-1.289-.326a5.8 5.8 0 00-.862-1.67l.48-1.24a.109.109 0 00-.03-.123l-1.22-1.03a.109.109 0 00-.126-.011l-1.144.681a5.806 5.806 0 00-1.79-.572l-.537-1.216a.109.109 0 00-.109-.065l-1.591.134a.109.109 0 00-.097.082l-.326 1.29a5.804 5.804 0 00-1.67.861l-1.24-.48a.109.109 0 00-.123.031l-1.03 1.22a.109.109 0 00-.011.126l.681 1.144a5.803 5.803 0 00-.572 1.79l-1.216.537a.11.11 0 00-.065.11l.134 1.59a.109.109 0 00.082.097l1.29.327c.197.608.49 1.17.861 1.669l-.48 1.24a.109.109 0 00.031.124l1.22 1.03z" fill="#74A1BB"/><path d="M87.402 27.446a1.622 1.622 0 01-1.014-.139 1.635 1.635 0 01.186-3.013 1.636 1.636 0 012 2.262 1.623 1.623 0 01-1.172.89zm-.517-2.788a1.203 1.203 0 00-.307 2.261c.288.14.614.16.918.056.304-.104.549-.32.69-.609a1.203 1.203 0 00-1.3-1.709z" fill="#BDD0FB"/><path d="M87.876 29.81a4.065 4.065 0 01-1.24.04c-.012 0-.024-.002-.036-.004a.216.216 0 11.055-.428c.256.033.517.038.774.017l.043-.004a3.603 3.603 0 002.41-1.248l.005-.006.016-.019a3.614 3.614 0 00.796-3.022 3.61 3.61 0 00-1.227-2.103 3.614 3.614 0 00-2.652-.846 3.616 3.616 0 00-2.473 1.277 3.614 3.614 0 00-.796 3.018c.098.523.309 1.019.62 1.451a.216.216 0 11-.35.252 4.057 4.057 0 01-.75-2.033 4.044 4.044 0 01.946-2.967 4.038 4.038 0 012.767-1.428 4.04 4.04 0 012.967.946 4.036 4.036 0 011.428 2.767 4.075 4.075 0 01-3.303 4.34z" fill="#BDD0FB"/><path d="M52.075 58.695s-.65-1.711-1.41-1.555c-.759.157-1.59.74-1.59.74l-1.22 1.65s3.425 1.35 4.63.576c0 0 3.498.605 7.915-.12-.64-1.35-1.02-2.702-1.244-3.75-2.237 1.266-4.647 2.212-7.08 2.46z" fill="url(#paint0_linear_131_1524)"/><path d="M70.606 46.28s-5.009 6.309-11.45 9.955c.224 1.05.605 2.4 1.245 3.75 3.34-.548 7.208-1.856 10.486-4.764l-.281-8.94z" fill="#000"/><path d="M76.851 74.24c-.98-4.652-1.958-7.346-5.238-16.164-1.032-2.776-1.97-5.583-1.516-8.51l.509-3.285s6.373-2.157 13.438-.091c0 0 9.64 4.187 3.092 24.867-2.951 3.302-6.405 4.243-10.285 3.183z" fill="#000"/><path d="M71.69 42.086l1.653 3.97c.104.251.33.43.597.476.954.164 3.258.419 4.772-.577a.385.385 0 00.102-.54l-3.053-4.384-4.07 1.055z" fill="url(#paint1_linear_131_1524)"/><path d="M73.4 36.012c-.07.065-2.93 5.681-2.93 5.681l3.242 1.565 3.501-4.92s-2.652-3.42-3.813-2.326z" fill="url(#paint2_linear_131_1524)"/><path d="M75.74 38.928l-1.617 2.695a.483.483 0 01-.088.11c-.193.18-.851.7-1.36-.008-.434-.605-.841-1.155-1.278-1.382a.516.516 0 00-.697.23c-.266.528-.782 1.604-1.106 2.625-.081.255.05.53.3.63.655.267 1.953.747 3.104.906a.517.517 0 00.49-.208c.494-.678 1.89-2.574 2.367-3.049.442-.44 1.26-.275 1.627-.169.14.04.289.02.413-.054.374-.225 1.026-.785.43-1.733a.517.517 0 01.16-.703c.417-.274.869-.79.438-1.623-.436-.844-1.216-.92-1.746-.855a.537.537 0 01-.564-.314.342.342 0 00-.267-.21.502.502 0 01-.406-.589c.094-.478.024-1.098-.739-1.517-1.398-.77-2.624.484-2.935 1.541-.312 1.058 1.252 1.806 2.236 1.93.722.092 1.118.88 1.278 1.293a.523.523 0 01-.04.454z" fill="#597B8E"/><path d="M75.173 42.284s.696-1.636 1.492-1.57c.796.067 1.423.86.436 1.752-1.227 1.109-1.928-.182-1.928-.182z" fill="url(#paint3_linear_131_1524)"/><path d="M76.224 115.244c1.54.133 4.211.349 6.318.442 1.266.055 1.995-.068 2.414-.236 0 .047-.002.092-.004.133a.436.436 0 01-.413.412c-3.98.222-7.145.076-8.272.008a.31.31 0 01-.253-.466c.06-.1.132-.197.21-.293z" fill="#74A1BB"/><path d="M82.541 115.685c-2.106-.092-4.778-.309-6.317-.442 1.513-1.857 6.317-3.108 6.317-3.108h1.357c.933 1.345 1.068 2.626 1.058 3.314-.42.168-1.149.292-2.415.236z" fill="#000"/><path d="M84.126 109.92L84 112.433a.574.574 0 01-.49.54 2.245 2.245 0 01-1.018-.085.679.679 0 01-.457-.521l-.439-2.446h2.531v-.001z" fill="url(#paint4_linear_131_1524)"/><path d="M101.748 115.667c.668-.093.97-.44 1.097-.811l.002.01c.098.391-.129.796-.585.989-.55.233-1.152.273-1.619.254-.501-.021-.96-.228-1.213-.56l-.004-.005c.503.249 1.209.278 2.322.123z" fill="#74A1BB"/><path d="M98.601 109.904h1.119c1.704-.035 2.774 3.56 3.125 4.952-.127.37-.429.717-1.097.81-1.113.156-1.819.127-2.322-.122-.92-1.212-1.377-2.987-1.596-4.022-.25-1.178.771-1.618.771-1.618z" fill="#000"/><path d="M99.576 107.572l.622 2.471a.67.67 0 01-.35.76c-.347.179-.836.366-1.286.312a.559.559 0 01-.457-.373l-.912-2.6 2.383-.57z" fill="url(#paint5_linear_131_1524)"/><path d="M100.317 108.287c-.773.685-3.287.776-3.287.776-9.056-21.737-12.833-27.72-12.833-27.72 1.308 8.203.282 29.263.282 29.263-1.494.66-3.421 0-3.421 0-.121-13.432-2.012-27.865-4.451-37.1 6.121-.137 9.448-1.472 10.51-2.312 5.103 8.226 13.2 37.093 13.2 37.093z" fill="#74A1BB"/><path d="M75.064 79.58l1.127 7.006a2.308 2.308 0 002.562 1.918l16.857-2.056c.825-.1 1.45-.789 1.467-1.616.036-1.81-.035-5.032-.795-7.967L75.064 79.58z" fill="#74FCFD"/><path d="M79.225 88.039a.048.048 0 01-.006-.096l.381-.046a.047.047 0 01.054.041.048.048 0 01-.042.054l-.382.046h-.005zm-.892-.022l-.01-.001a2.242 2.242 0 01-.374-.12.048.048 0 11.037-.09c.115.05.236.088.357.116a.048.048 0 01-.01.095zm2.164-.133a.048.048 0 01-.006-.096l.382-.047a.049.049 0 01.053.042.048.048 0 01-.041.054l-.382.046h-.006zm1.272-.155a.048.048 0 01-.006-.096l.382-.047a.047.047 0 01.054.042.048.048 0 01-.042.054l-.382.046h-.006zm1.272-.156a.048.048 0 01-.047-.042.048.048 0 01.042-.053l.381-.047c.028-.004.05.016.054.042a.048.048 0 01-.042.054l-.382.046h-.006zm1.273-.155a.048.048 0 01-.006-.096l.381-.046a.048.048 0 11.012.095l-.381.047h-.006zm-7.08-.023a.049.049 0 01-.035-.015 2.259 2.259 0 01-.246-.306.048.048 0 01.013-.067.048.048 0 01.067.014c.07.103.148.202.235.292a.048.048 0 01-.001.068.05.05 0 01-.034.014zm8.352-.132a.048.048 0 01-.006-.096l.382-.046a.048.048 0 11.012.095l-.382.047h-.006zm1.272-.155a.048.048 0 01-.047-.043.048.048 0 01.041-.053l.382-.047c.025-.004.05.016.053.042a.048.048 0 01-.041.054l-.382.046h-.006zm1.272-.156a.048.048 0 01-.006-.096l.382-.046a.048.048 0 01.012.096l-.382.046h-.005zm1.273-.155a.048.048 0 01-.006-.096l.381-.046a.048.048 0 01.054.042.048.048 0 01-.042.053l-.382.047h-.005zm1.272-.154a.048.048 0 01-.048-.043.048.048 0 01.042-.053l.382-.047a.047.047 0 01.053.042.048.048 0 01-.042.054l-.381.046h-.006zm1.272-.156a.048.048 0 01-.006-.096l.382-.046a.048.048 0 11.012.095l-.382.047h-.006zm1.272-.155a.048.048 0 01-.006-.096l.382-.046a.048.048 0 01.054.041.048.048 0 01-.042.054l-.382.047h-.005zm-16.559-.063a.048.048 0 01-.047-.04l-.062-.38a.049.049 0 01.04-.055.048.048 0 01.056.04l.06.379a.048.048 0 01-.038.056h-.009zm17.832-.092a.048.048 0 01-.006-.096l.382-.047a.047.047 0 01.053.042.048.048 0 01-.042.054l-.381.046h-.006zm1.24-.277a.048.048 0 01-.024-.09 1.54 1.54 0 00.299-.222.048.048 0 01.068.002.049.049 0 01-.002.068c-.096.091-.202.17-.317.236a.044.044 0 01-.023.006zm-19.276-.896a.048.048 0 01-.047-.04l-.061-.38a.049.049 0 01.04-.055.047.047 0 01.055.04l.061.38a.049.049 0 01-.04.055h-.008zm20.03-.098l-.013-.001a.048.048 0 01-.035-.058c.027-.11.042-.223.044-.336l.001-.034a.048.048 0 01.096 0v.036c-.003.12-.019.24-.047.356a.047.047 0 01-.047.037zm-20.233-1.168a.048.048 0 01-.047-.04l-.061-.38a.048.048 0 11.095-.015l.06.38a.048.048 0 01-.04.055h-.007zm20.284-.11a.048.048 0 01-.048-.047c-.001-.124-.002-.253-.005-.384a.05.05 0 01.048-.05c.025-.004.048.021.049.048l.004.385a.049.049 0 01-.048.049zM76.05 82.474a.048.048 0 01-.048-.04l-.06-.38a.048.048 0 01.04-.055.047.047 0 01.054.04l.061.38a.048.048 0 01-.04.054h-.007zm20.456-.126a.048.048 0 01-.048-.046 31.905 31.905 0 00-.018-.384.048.048 0 01.045-.05c.03-.004.05.018.05.045.008.13.014.258.019.384a.048.048 0 01-.046.05h-.002zm-20.66-1.14a.048.048 0 01-.047-.04l-.061-.38a.049.049 0 01.04-.055.048.048 0 01.055.04l.06.38a.048.048 0 01-.039.055h-.008zm20.582-.14a.048.048 0 01-.048-.044 17.53 17.53 0 00-.034-.383.048.048 0 01.044-.052.047.047 0 01.052.043l.034.384a.048.048 0 01-.044.052h-.004zm-20.786-1.125a.048.048 0 01-.047-.04l-.069-.429.198-.025c.03-.003.05.015.054.041a.048.048 0 01-.041.054l-.1.013.053.33a.049.049 0 01-.04.056h-.008zm20.656-.15a.048.048 0 01-.048-.042 31.077 31.077 0 00-.05-.38.048.048 0 01.041-.055c.025-.006.05.015.054.041.018.128.034.256.05.382a.048.048 0 01-.041.054h-.006zM76.62 79.43a.048.048 0 01-.047-.042.048.048 0 01.041-.054l.382-.05a.046.046 0 01.053.042.048.048 0 01-.041.054l-.382.05h-.006zm1.271-.163a.048.048 0 01-.047-.042.048.048 0 01.041-.054l.382-.049a.046.046 0 01.053.042.048.048 0 01-.041.054l-.381.049h-.007zm1.272-.163a.048.048 0 01-.048-.042.048.048 0 01.041-.053l.382-.05c.03-.003.05.016.054.042a.049.049 0 01-.041.054l-.382.049h-.006zm1.271-.162a.048.048 0 01-.006-.096l.381-.05c.031-.003.05.016.054.042a.048.048 0 01-.041.054l-.382.05h-.006zm1.271-.163a.048.048 0 01-.006-.096l.382-.049c.03-.003.05.015.053.042a.048.048 0 01-.041.053l-.382.05h-.006zm1.272-.163a.048.048 0 01-.048-.042.049.049 0 01.041-.054l.382-.049c.03-.002.05.016.054.042a.048.048 0 01-.042.054l-.381.049h-.006zm13.13-.092a.048.048 0 01-.047-.04 23.568 23.568 0 00-.07-.377.048.048 0 01.038-.057.048.048 0 01.057.039c.025.126.048.252.07.379a.048.048 0 01-.038.055l-.01.001zm-11.859-.07a.048.048 0 01-.048-.042.048.048 0 01.042-.054l.381-.05c.03-.004.05.016.054.042a.048.048 0 01-.041.054l-.382.05h-.006zm1.271-.163a.048.048 0 01-.047-.042.048.048 0 01.041-.054l.382-.05c.03-.003.05.016.054.042a.048.048 0 01-.042.054l-.381.05h-.007zm1.271-.163a.048.048 0 01-.047-.042.048.048 0 01.041-.054l.382-.049c.03-.003.05.016.054.042a.048.048 0 01-.042.054l-.381.049h-.007zm1.272-.163a.048.048 0 01-.048-.042.049.049 0 01.042-.054l.381-.049c.03-.003.05.016.054.042a.048.048 0 01-.041.054l-.382.049h-.006zm1.271-.162a.048.048 0 01-.006-.096l.382-.05a.049.049 0 01.054.042.048.048 0 01-.042.054l-.381.05h-.007zm1.271-.163a.048.048 0 01-.006-.096l.382-.049c.03-.004.05.016.054.042a.048.048 0 01-.042.054l-.381.049h-.007zm1.272-.162a.048.048 0 01-.048-.042.048.048 0 01.042-.054l.381-.05c.03-.003.05.016.054.042a.048.048 0 01-.041.054l-.382.05h-.006zm1.271-.163a.048.048 0 01-.047-.042.048.048 0 01.041-.054l.381-.049c.03-.004.05.016.054.041a.049.049 0 01-.041.055l-.382.048h-.006zm2.7-.046a.049.049 0 01-.047-.037c-.02-.083-.04-.166-.062-.249l-.042.006a.047.047 0 01-.054-.042.049.049 0 01.041-.054l.127-.016.01.041c.025.097.05.194.073.291a.048.048 0 01-.046.06zm-1.428-.117a.048.048 0 01-.048-.042.048.048 0 01.041-.054l.382-.049c.03-.003.05.016.054.042a.048.048 0 01-.042.054l-.381.049h-.006z" fill="#fff"/><path d="M79.348 73.842l-.019-.55a.42.42 0 01.285-.283c.515-.15 1.797-.464 2.484-.076l.174.618-2.924.29z" fill="#74A1BB"/><path d="M80.92 73.11a.763.763 0 01-.363.046.33.33 0 01-.29-.285l-.218-1.7.865-.11.217 1.697a.332.332 0 01-.21.352zm6.802-.34l-.02-.548a.42.42 0 01.286-.284c.514-.151 1.797-.465 2.484-.076l.174.618-2.924.29z" fill="#74A1BB"/><path d="M89.294 72.039a.763.763 0 01-.363.046.331.331 0 01-.291-.286l-.24-1.878.864-.11.24 1.876a.332.332 0 01-.21.352z" fill="#74A1BB"/><path d="M80.014 71.6l9.258-1.498a.452.452 0 00.381-.423 3.815 3.815 0 00-.122-1.182 1.081 1.081 0 00-1.155-.775c-1.74.18-6.155.747-8.466 2.021a.856.856 0 00-.438.656c-.03.263-.027.61.099.947a.404.404 0 00.444.253z" fill="#74A1BB"/><path opacity=".58" d="M79.786 71.224a.129.129 0 01-.125-.1c-.003-.014-.085-.375-.035-.739a.867.867 0 01.51-.671c.503-.22 1.467-.608 2.283-.736a.128.128 0 01.04.253c-.817.128-1.824.545-2.22.718a.61.61 0 00-.359.472c-.044.317.03.643.032.646a.128.128 0 01-.126.157z" fill="#fff"/><path d="M75.007 74.183c2.999-.423 15.975-2.223 19.808-2.25a.775.775 0 01.737.51c.351.98 1.1 3.265 1.344 5.594a.678.678 0 01-.469.712L88.02 81.48l-3.06.392-9.414-.65a.724.724 0 01-.664-.592c-.209-1.161-.653-3.89-.563-5.694a.8.8 0 01.688-.754z" fill="#74FCFD"/><path d="M84.938 81.17h-.004l-.383-.027a.048.048 0 01-.045-.051c.002-.027.025-.043.05-.045l.384.026a.048.048 0 01.045.052.047.047 0 01-.047.044zm.35-.046a.048.048 0 01-.048-.041.048.048 0 01.042-.054l.381-.05c.03-.004.05.016.054.042a.049.049 0 01-.041.054l-.382.05h-.006zm-1.629-.043h-.003l-.384-.027a.048.048 0 01-.045-.05c.002-.027.025-.044.051-.046l.384.027a.049.049 0 01.045.051.048.048 0 01-.048.045zm-1.279-.088h-.003l-.383-.027a.048.048 0 01-.045-.051c.002-.027.028-.043.05-.045l.384.027a.048.048 0 01.045.05.048.048 0 01-.047.046zm4.18-.031a.048.048 0 01-.049-.042.048.048 0 01.042-.054l.382-.05c.03-.003.05.016.053.042a.049.049 0 01-.041.054l-.382.05h-.006zm-5.458-.058h-.004l-.383-.026a.049.049 0 01-.045-.051c.002-.027.027-.043.051-.045l.383.027a.049.049 0 01.045.05.048.048 0 01-.047.046zm-1.279-.088h-.003l-.384-.026a.049.049 0 01-.045-.052c.002-.026.027-.043.051-.044l.384.026a.048.048 0 01-.003.096zm8.008-.017a.048.048 0 01-.006-.095l.024-.004.333-.109a.049.049 0 01.06.03.048.048 0 01-.03.061l-.376.117h-.005zm-9.286-.071h-.004l-.383-.027a.049.049 0 01-.045-.051c.002-.027.026-.044.051-.045l.383.027a.048.048 0 01.045.05.048.048 0 01-.047.046zm-1.28-.089h-.003l-.383-.026a.048.048 0 01-.045-.051c.002-.027.026-.044.051-.045l.384.026a.048.048 0 01.044.051.047.047 0 01-.047.045zm-1.278-.088h-.003l-.41-.028-.006-.036c-.005-.027.011-.057.037-.062a.048.048 0 01.038.007l.348.024a.048.048 0 01.044.05.049.049 0 01-.048.045zm13.064-.144a.048.048 0 01-.015-.094l.365-.118a.05.05 0 01.061.03.048.048 0 01-.03.061l-.366.119a.046.046 0 01-.015.002zm1.219-.396a.048.048 0 01-.015-.094l.366-.118a.049.049 0 01.06.03.048.048 0 01-.03.061l-.366.119a.047.047 0 01-.015.002zm-14.807-.382a.048.048 0 01-.047-.04 37.82 37.82 0 01-.06-.381.048.048 0 01.04-.055c.028-.003.051.014.055.04l.06.38a.048.048 0 01-.048.056zm16.026-.014a.048.048 0 01-.015-.094l.365-.118a.048.048 0 01.06.03.048.048 0 01-.03.061l-.365.119a.046.046 0 01-.016.002zm1.218-.396a.048.048 0 01-.015-.094l.366-.119a.049.049 0 01.06.031.048.048 0 01-.03.06l-.366.12a.05.05 0 01-.015.002zm1.22-.396a.048.048 0 01-.016-.094l.366-.119a.048.048 0 01.06.031.048.048 0 01-.03.06l-.366.12a.049.049 0 01-.015.002zm1.218-.396a.048.048 0 01-.015-.094l.366-.119a.048.048 0 01.06.031.048.048 0 01-.03.06l-.366.12a.046.046 0 01-.015.002zm-19.867-.068a.048.048 0 01-.048-.041 30.002 30.002 0 01-.048-.383.048.048 0 01.096-.011c.015.128.031.255.048.38a.048.048 0 01-.042.055h-.006zm20.84-.486a.048.048 0 01-.047-.043 19.382 19.382 0 00-.051-.38.048.048 0 01.04-.054c.027-.006.051.014.055.04.018.127.035.255.051.383a.048.048 0 01-.042.053h-.005zm-20.982-.788a.048.048 0 01-.047-.044 24.508 24.508 0 01-.032-.384.048.048 0 01.044-.052c.03.003.05.018.052.045l.031.382a.047.047 0 01-.043.052h-.005zm20.78-.478a.049.049 0 01-.047-.039l-.076-.376a.048.048 0 01.037-.057.048.048 0 01.057.037c.026.124.052.25.076.378a.048.048 0 01-.046.057zm-20.857-.802a.048.048 0 01-.048-.047 13.321 13.321 0 01-.004-.307v-.079c0-.026.022-.048.049-.048.027 0 .048.022.048.049v.078c0 .1 0 .202.003.305 0 .027-.02.049-.047.05v-.001zm20.58-.45a.048.048 0 01-.047-.036l-.096-.372a.048.048 0 01.034-.059.049.049 0 01.059.034l.096.373a.048.048 0 01-.035.058.028.028 0 01-.012.003zm-20.105-.442a.048.048 0 01-.008-.096l.382-.053a.046.046 0 01.053.04.047.047 0 01-.04.055l-.382.053h-.005zm1.27-.177a.048.048 0 01-.048-.041.048.048 0 01.04-.054l.382-.053c.025-.005.05.015.054.041a.048.048 0 01-.041.054l-.382.053h-.006zm1.27-.174a.048.048 0 01-.007-.095l.382-.052a.048.048 0 11.013.095l-.381.052h-.007zm1.27-.171a.048.048 0 01-.007-.096l.382-.05c.028-.005.05.014.054.04a.048.048 0 01-.04.054l-.382.051h-.007zm1.272-.17a.048.048 0 01-.048-.041.048.048 0 01.041-.054l.382-.05a.048.048 0 11.012.095l-.381.05h-.007zm14.682-.102a.048.048 0 01-.046-.034c-.038-.128-.076-.25-.113-.367a.048.048 0 01.031-.06.047.047 0 01.06.03c.037.117.075.24.114.37a.048.048 0 01-.046.06zm-13.411-.064a.048.048 0 01-.048-.042.049.049 0 01.042-.053l.381-.05a.049.049 0 01.054.042.048.048 0 01-.041.054l-.382.049h-.006zm1.271-.162a.048.048 0 01-.006-.096l.382-.048a.047.047 0 01.053.042.048.048 0 01-.041.053l-.382.048h-.006zm1.272-.16a.048.048 0 01-.006-.096l.382-.047c.028-.005.05.016.053.042a.048.048 0 01-.041.053l-.382.047h-.006zm1.272-.156a.048.048 0 01-.048-.043.048.048 0 01.042-.053l.382-.046a.046.046 0 01.053.042.048.048 0 01-.042.053l-.382.046h-.005zm1.273-.152a.048.048 0 01-.006-.095l.382-.045a.047.047 0 01.053.042.048.048 0 01-.041.053l-.382.045h-.006zm1.274-.145a.048.048 0 01-.005-.096l.382-.043c.029 0 .05.017.053.043a.048.048 0 01-.043.053l-.382.043h-.005zm1.274-.14a.048.048 0 01-.005-.096l.382-.04c.029 0 .05.017.053.043a.048.048 0 01-.043.053l-.382.04h-.005zm1.275-.13a.048.048 0 01-.005-.096l.383-.037a.047.047 0 01.052.044.048.048 0 01-.043.052l-.383.037h-.004zm4.104-.11a.048.048 0 01-.045-.033l-.049-.137c-.056 0-.114 0-.175.002a.048.048 0 01-.049-.047.05.05 0 01.048-.05 9.64 9.64 0 01.188-.002c.034 0 .063.02.073.048l.055.154a.049.049 0 01-.03.062l-.016.002zm-2.828-.008a.048.048 0 01-.047-.044.047.047 0 01.043-.052l.384-.032a.049.049 0 01.052.044.048.048 0 01-.044.051l-.383.032h-.005zm1.278-.099a.048.048 0 01-.003-.096c.133-.008.261-.017.384-.023.029-.005.05.018.051.045a.048.048 0 01-.045.05l-.384.024h-.003z" fill="#fff"/><path d="M87.896 82.803l-2.68.344a.698.698 0 01-.767-.521l-.64-2.54a.698.698 0 01.59-.861l3.22-.412a.698.698 0 01.788.663l.1 2.61a.699.699 0 01-.61.717z" fill="#74A1BB"/><path d="M87.506 82.37l-2.04.261a.532.532 0 01-.584-.396l-.487-1.933a.53.53 0 01.449-.655l2.451-.314c.31-.04.588.194.6.505l.076 1.986a.532.532 0 01-.465.546z" fill="#74FCFD"/><path d="M85.911 61.81c.633 2.614.65 5.17.553 6.101a.725.725 0 01-.67.65c-.4.028-.944.065-1.43.092-.535.031-1.128-.307-1.525-.59-.202-.143-.464.081-.351.303.194.381.533.681.869.937.202.153.874.426.827.728a.54.54 0 01-.134.253c-.374.448-.938.687-1.496.859a.408.408 0 00-.193.098c-.014.36 1.095.76 1.381.856.429.142.883.203 1.334.155 1.116-.117 2.146-.887 2.747-1.816 1.606-2.482 2.437-5.48 2.74-7.772-1.493-1.495-3.75-1.116-4.652-.854z" fill="url(#paint6_linear_131_1524)"/><path d="M90.564 62.9c1.192-9.004-5.746-15.927-5.746-15.927l-4.128 4.813c3.134 3.906 4.624 7.486 5.304 10.297.903-.262 3.076-.678 4.57.817z" fill="#000"/><path d="M85.896 62.04a.255.255 0 01-.248-.196c-.84-3.466-2.607-6.897-5.255-10.198a.256.256 0 11.399-.32c2.695 3.36 4.496 6.859 5.353 10.398a.255.255 0 01-.249.316z" fill="url(#paint7_linear_131_1524)"/><path d="M29.987 115.413a.49.49 0 00-.013-.133c-.664-2.632-3.96-4.272-3.96-4.272l-1.305.103c-.751 2.32-.655 3.743-.534 4.376.003.018.008.035.013.052 1.078.096 3.295.159 5.8-.126z" fill="#000"/><path d="M24.189 115.54a.565.565 0 00.414.418c1.532.322 3.968.063 4.99-.07.226-.03.391-.239.395-.474-2.505.285-4.722.222-5.799.126z" fill="#74A1BB"/><path d="M24.184 109.166l.553 2.662c.04.196.19.342.372.359.222.02.539.033.856-.014.286-.042.485-.332.434-.643l-.384-2.364h-1.831z" fill="url(#paint8_linear_131_1524)"/><path d="M35.643 115.505c-1.442-.04-2.188-.21-2.574-.367 0 .143 0 .289.005.44.005.162.124.291.272.29l7.918-.051c.253-.002.4-.295.29-.527-1.038.086-3.682.278-5.911.215z" fill="#74A1BB"/><path d="M41.554 115.291c-.01-.021-.017-.041-.031-.06-.7-.977-2.48-2.923-6-3.767l-1.688-.053s-.752 1.307-.766 3.727c.386.158 1.132.328 2.574.368 2.23.062 4.873-.13 5.911-.215z" fill="#000"/><path d="M33.447 108.931c.026.124.378 2.018.514 2.753a.369.369 0 00.33.312c.289.016.755.018 1.156-.091.216-.059.362-.28.346-.524l-.189-2.997-2.157.547z" fill="url(#paint9_linear_131_1524)"/><path d="M32.167 73.953s2.323 15.96 4 34.95c.03.354-.252.662-.6.735-.511.108-1.264.236-1.887.218a.7.7 0 01-.667-.584c-.57-3.348-4.645-21.32-5.714-25.274 0 0-1.228 16.8-.836 25.517a.413.413 0 01-.364.429c-.327.038-.85.067-1.516-.004a.554.554 0 01-.492-.469c-.407-2.834-2.748-19.703-2.648-31.854.005-.685.804-6.315.804-6.315l9.92 2.651z" fill="#000"/><path d="M21.898 74.873a.657.657 0 01-.432-.553c-.309-2.997-1.804-21.575 7.637-29.218 0 0 .541-1.417 4.991 2.066 4.45 3.481 2.068 7.131 1.002 12.165-1.289 6.092-3.551 11.071-2.55 14.82a.52.52 0 01-.318.623c-3.457 1.274-6.9 1.316-10.33.097z" fill="#C6EEEF"/><path d="M32.785 39.535c-.002.265-3.772 5.619-3.772 5.619s.676 1.332 3.907 2.414l2.788-5.733-2.922-2.3z" fill="url(#paint10_linear_131_1524)"/><path d="M35.753 36.467s1.341 3.081 1.432 4.7c.09 1.616.439 2.666-1.432 2.992-1.87.325-3.445-.606-4.298-2.218 0 0-1.337-2.482-1.038-3.498.3-1.017 5.336-1.976 5.336-1.976z" fill="url(#paint11_linear_131_1524)"/><path d="M32.093 40.783l.107-.047a.257.257 0 00.125-.352c-.263-.51-.778-1.677-.114-1.95.856-.35 4.246-1.042 4.978-2.245.703-1.156.08-2.649-.856-3.073a.129.129 0 00-.169.055l-.078.148a.127.127 0 01-.234-.024.126.126 0 00-.229-.033c-.225.36-.832.943-2.455 1.243-2.307.425-3.832 1.359-3.87 2.953a.127.127 0 01-.197.105c-.17-.104-.443-.152-.808.154-.633.533-.374 1.915 1.015 3.051.066.054.065.157-.006.204-.252.164-.627.553.345 1.074 1.007.538 1.758.493 2.047.445a.126.126 0 00.102-.152l-.308-1.401a.127.127 0 01.124-.155h.482z" fill="#000"/><path d="M32.152 41.078s-.512-1.968-1.395-1.416c-.882.552.458 2.206 1.168 2.28l.227-.864z" fill="url(#paint12_linear_131_1524)"/><path d="M35.526 48.783l.26 6.98c.738.255 1.441.453 2.11.6.419-1.348 1.34-3.002 2.096-4.232-2.774-.98-4.466-3.348-4.466-3.348z" fill="#D9E6FD"/><path d="M49.372 48.665c-3.804 4.107-6.883 4.349-9.38 3.466-.755 1.23-1.677 2.884-2.096 4.232 10.16 2.24 12.552-7.1 12.552-7.1l-1.076-.598z" fill="url(#paint13_linear_131_1524)"/><path d="M50.144 48.228s.438-.47 1.249-.322c.811.148 1.533.43 2.038 0 .506-.43.683.147.683.147l-1.513 1.15-2.457-.975z" fill="url(#paint14_linear_131_1524)"/><path d="M49.239 49.033s.3-1.256 1.205-1.084c.905.173 2.959 1.29 3.488 1.084.53-.206 1.206-.699 1.554-.525l-.612.76s1.573-.907 1.843-.349L54.1 50.392c.001 0-3.828-.383-4.861-1.36z" fill="url(#paint15_linear_131_1524)"/><path d="M31.303 57.92s7.152 5.99 14.876 3.376a1.838 1.838 0 011.45.109l2.22 1.172a1.982 1.982 0 002.627-.735c.308-.516.571-1.105.623-1.67l-4.344-1.759.32-.532s-2.121-.18-2.676 1.34c0 0-4.04 1.681-10.855-5.814 0 0-3.091 2.629-4.241 4.512z" fill="url(#paint16_linear_131_1524)"/><path d="M30.918 57.857a.12.12 0 01-.069-.02c-3.011-2.036-4.428-5.32-4.442-5.353a.122.122 0 11.225-.096c.014.033 1.405 3.252 4.354 5.245a.122.122 0 01-.068.224zm4.486-4.552c-.04 0-.08-.02-.103-.056-.01-.014-.93-1.446-2.682-4.584-.539-.964-1.247-1.575-2.105-1.816-1.42-.396-2.79.365-2.803.373a.122.122 0 01-.12-.213c.058-.034 1.467-.822 2.987-.396.924.258 1.683.908 2.255 1.933 1.748 3.13 2.664 4.557 2.674 4.571a.122.122 0 01-.103.188z" fill="#74A1BB"/><defs><linearGradient id="paint0_linear_131_1524" x1="48.153" y1="61.11" x2="49.505" y2="60.642" gradientUnits="userSpaceOnUse"><stop stop-color="#FEBBBA"/><stop offset="1" stop-color="#FF928E"/></linearGradient><linearGradient id="paint1_linear_131_1524" x1="76.895" y1="48.653" x2="74.883" y2="42.618" gradientUnits="userSpaceOnUse"><stop stop-color="#FEBBBA"/><stop offset="1" stop-color="#FF928E"/></linearGradient><linearGradient id="paint2_linear_131_1524" x1="71.226" y1="38.336" x2="78.456" y2="41.48" gradientUnits="userSpaceOnUse"><stop stop-color="#FEBBBA"/><stop offset="1" stop-color="#FF928E"/></linearGradient><linearGradient id="paint3_linear_131_1524" x1="70.775" y1="39.373" x2="78.006" y2="42.517" gradientUnits="userSpaceOnUse"><stop stop-color="#FEBBBA"/><stop offset="1" stop-color="#FF928E"/></linearGradient><linearGradient id="paint4_linear_131_1524" x1="84.126" y1="111.458" x2="81.595" y2="111.458" gradientUnits="userSpaceOnUse"><stop stop-color="#FEBBBA"/><stop offset="1" stop-color="#FF928E"/></linearGradient><linearGradient id="paint5_linear_131_1524" x1="100.218" y1="109.348" x2="97.193" y2="109.348" gradientUnits="userSpaceOnUse"><stop stop-color="#FEBBBA"/><stop offset="1" stop-color="#FF928E"/></linearGradient><linearGradient id="paint6_linear_131_1524" x1="88.324" y1="63.272" x2="81.474" y2="76.444" gradientUnits="userSpaceOnUse"><stop stop-color="#FEBBBA"/><stop offset="1" stop-color="#FF928E"/></linearGradient><linearGradient id="paint7_linear_131_1524" x1="83.994" y1="53.679" x2="88.566" y2="35.674" gradientUnits="userSpaceOnUse"><stop stop-color="#09005D"/><stop offset="1" stop-color="#1A0F91"/></linearGradient><linearGradient id="paint8_linear_131_1524" x1="25.732" y1="106.603" x2="24.606" y2="116.43" gradientUnits="userSpaceOnUse"><stop stop-color="#FEBBBA"/><stop offset="1" stop-color="#FF928E"/></linearGradient><linearGradient id="paint9_linear_131_1524" x1="34.751" y1="107.642" x2="34.245" y2="117.52" gradientUnits="userSpaceOnUse"><stop stop-color="#FEBBBA"/><stop offset="1" stop-color="#FF928E"/></linearGradient><linearGradient id="paint10_linear_131_1524" x1="27.873" y1="46.516" x2="35.71" y2="41.851" gradientUnits="userSpaceOnUse"><stop stop-color="#FEBBBA"/><stop offset="1" stop-color="#FF928E"/></linearGradient><linearGradient id="paint11_linear_131_1524" x1="36.422" y1="43.372" x2="31.848" y2="36.651" gradientUnits="userSpaceOnUse"><stop stop-color="#FEBBBA"/><stop offset="1" stop-color="#FF928E"/></linearGradient><linearGradient id="paint12_linear_131_1524" x1="34.203" y1="44.882" x2="29.631" y2="38.165" gradientUnits="userSpaceOnUse"><stop stop-color="#FEBBBA"/><stop offset="1" stop-color="#FF928E"/></linearGradient><linearGradient id="paint13_linear_131_1524" x1="54.395" y1="48.078" x2="37.944" y2="56.261" gradientUnits="userSpaceOnUse"><stop stop-color="#FEBBBA"/><stop offset="1" stop-color="#FF928E"/></linearGradient><linearGradient id="paint14_linear_131_1524" x1="54.154" y1="46.026" x2="48.527" y2="51.903" gradientUnits="userSpaceOnUse"><stop stop-color="#FEBBBA"/><stop offset="1" stop-color="#FF928E"/></linearGradient><linearGradient id="paint15_linear_131_1524" x1="54.473" y1="47.981" x2="38.022" y2="56.164" gradientUnits="userSpaceOnUse"><stop stop-color="#FEBBBA"/><stop offset="1" stop-color="#FF928E"/></linearGradient><linearGradient id="paint16_linear_131_1524" x1="61.347" y1="61.866" x2="13.606" y2="53.233" gradientUnits="userSpaceOnUse"><stop stop-color="#FEBBBA"/><stop offset="1" stop-color="#FF928E"/></linearGradient></defs></svg>