<svg width="115" height="111" fill="none" xmlns="http://www.w3.org/2000/svg"><path d="M.04 29.151c-.177-.346.279-.717.659-.538C4.55 30.427 14.185 36.33 15.613 50.43c1.79 17.694 7.45 22.919 13.52 25.463 0 0-7.491-.057-13.485-5.297C.933 57.73 3.178 35.303.04 29.15z" fill="#C6EEEF"/><path opacity=".5" d="M3.796 33.892a92.763 92.763 0 012.446 5.476 84.193 84.193 0 012.078 5.604 84.113 84.113 0 011.672 5.723c.49 1.926.884 3.873 1.271 5.83.4 1.954.79 3.924 1.414 5.852.62 1.924 1.518 3.798 2.792 5.449.318.41.646.818 1 1.203.344.39.71.767 1.084 1.137a21.558 21.558 0 002.438 2.059c1.749 1.258 3.733 2.267 5.83 3.019a.494.494 0 00.59-.219c.104-.196.015-.417-.197-.5h-.001a29.699 29.699 0 01-1.49-.618c-.245-.106-.483-.222-.725-.335-.235-.12-.477-.232-.708-.36a21.424 21.424 0 01-7-5.893c-.6-.795-1.128-1.63-1.578-2.504a19.225 19.225 0 01-1.133-2.716c-.622-1.867-1.027-3.813-1.443-5.763-.42-1.949-.856-3.905-1.385-5.836a72.393 72.393 0 00-.844-2.881c-.147-.479-.306-.954-.463-1.429a84.033 84.033 0 00-2.751-6.993 80.826 80.826 0 00-2.68-5.4c-.027-.05-.097-.07-.157-.041-.058.025-.084.086-.06.136z" fill="#fff"/><path d="M17.62 58.542a.833.833 0 01-1.378.1c-2.017-2.565-7.063-10.33-4.584-21.316 2.094-9.277 2.348-14.507 2.299-16.889a.522.522 0 01.936-.328c3.392 4.402 13.274 19.785 2.727 38.433z" fill="#74A1BB"/><path opacity=".5" d="M16.83 58.413a.23.23 0 01-.319-.16c-.033-.14-3.208-14.234-.88-27.264a.231.231 0 01.456.08c-2.312 12.937.842 26.942.874 27.082a.23.23 0 01-.131.262z" fill="#fff"/><path d="M83.81 95.798H20.754V5.608c0-3.173 2.41-5.713 5.315-5.605l59.55.888c3.036.045 5.452 2.791 5.37 6.104L88.91 90.38c-.075 3.016-2.337 5.418-5.101 5.418z" fill="#74A1BB"/><path opacity=".6" d="M82.688 82.115H21.734V7.082c0-2.64 2.33-4.753 5.138-4.663l57.564.739c2.936.037 5.272 2.322 5.192 5.078L87.62 77.608c-.073 2.509-2.26 4.507-4.932 4.507z" fill="#fff"/><path d="M21.817 8.33l68.017.53V5.595c-.091-1.36-1.43-3.178-3.51-3.178l-61.412-.77c-1.464-.016-3.194 2.035-3.165 3.607l.07 3.076z" fill="#74A1BB"/><path opacity=".6" d="M25.751 5.55a.95.95 0 10-1.343-1.344.95.95 0 001.343 1.343zm3.801.109a.95.95 0 10-1.344-1.344.95.95 0 001.344 1.344zm3.9-.45a.95.95 0 10-1.849-.437.95.95 0 001.85.437z" fill="#fff"/><path d="M49.984 27.396H25.816a.312.312 0 01-.311-.312V12.106c0-.172.14-.312.312-.312h24.167c.172 0 .312.14.312.312v14.978c0 .172-.14.312-.312.312z" fill="#74A1BB"/><path d="M48.407 26.76H27.395a1.12 1.12 0 01-1.12-1.12V13.578c0-.617.502-1.12 1.12-1.12h21.012c.617 0 1.12.503 1.12 1.12v12.063c0 .617-.503 1.12-1.12 1.12zM27.393 12.597a.983.983 0 00-.981.981v12.063c0 .54.44.981.981.981h21.012c.541 0 .982-.44.982-.981V13.578a.983.983 0 00-.982-.981H27.394z" fill="#fff"/><path d="M29.732 24.996h12.46c.388 0 .63-.422.433-.756l-4.933-8.386a.502.502 0 00-.889.046l-2.382 5.219a.502.502 0 01-.795.161l-.964-.883a.502.502 0 00-.75.083l-2.592 3.727a.502.502 0 00.412.789zm12.979-7.741a1.791 1.791 0 10-1.371-3.31 1.791 1.791 0 001.371 3.31z" fill="#fff"/><path d="M49.917 45.757H25.884a.38.38 0 01-.379-.379V30.535c0-.21.17-.379.38-.379h24.032c.21 0 .379.17.379.38v14.842c0 .21-.17.38-.38.38z" fill="#74A1BB"/><path d="M30.33 43.35h12.46c.388 0 .63-.422.432-.756l-4.933-8.386a.502.502 0 00-.889.046l-2.381 5.219a.502.502 0 01-.796.161l-.963-.883a.502.502 0 00-.75.083l-2.593 3.727a.502.502 0 00.412.789zm12.979-7.741a1.791 1.791 0 10-1.371-3.31 1.791 1.791 0 001.37 3.31z" fill="#fff"/><path d="M48.389 45.24H27.377a1.12 1.12 0 01-1.12-1.12V32.058c0-.617.502-1.12 1.12-1.12h21.012c.617 0 1.12.503 1.12 1.12v12.063c0 .617-.503 1.12-1.12 1.12zM27.377 31.077a.983.983 0 00-.982.981v12.063c0 .54.44.981.982.981h21.012c.541 0 .981-.44.981-.981V32.058a.983.983 0 00-.981-.981H27.377z" fill="#fff"/><path d="M85.182 30.16h-28.56a.312.312 0 01-.311-.311V12.106c0-.172.14-.312.311-.312h28.56c.172 0 .312.14.312.312v17.742c0 .172-.14.312-.312.312z" fill="#74A1BB"/><path d="M83.455 29.4H58.35c-.618 0-1.12-.503-1.12-1.12V13.707c0-.617.502-1.12 1.12-1.12h25.106c.618 0 1.12.503 1.12 1.12V28.28a1.12 1.12 0 01-1.12 1.12zM58.35 12.727a.983.983 0 00-.982.981V28.28c0 .542.44.982.982.982h25.106c.542 0 .982-.44.982-.982V13.71a.983.983 0 00-.982-.982H58.35z" fill="#fff"/><g opacity=".9" fill="#fff"><path opacity=".9" d="M70.72 26.086a5.188 5.188 0 01-5.182-5.181 5.188 5.188 0 015.182-5.182 5.188 5.188 0 015.182 5.181 5.188 5.188 0 01-5.182 5.182zm0-9.495a4.318 4.318 0 00-4.314 4.313 4.318 4.318 0 004.314 4.314 4.318 4.318 0 004.313-4.314 4.318 4.318 0 00-4.313-4.313z"/><path opacity=".9" fill-rule="evenodd" clip-rule="evenodd" d="M69.096 22.9v-3.725c0-.398.434-.645.776-.442l3.14 1.863c.335.2.335.685 0 .884l-3.14 1.862a.514.514 0 01-.776-.442z"/></g><path d="M85 51.638H56.44a.312.312 0 01-.311-.312V33.584c0-.172.14-.312.311-.312H85c.172 0 .312.14.312.312v17.742c0 .172-.14.312-.312.312z" fill="#74A1BB"/><path d="M83.273 50.878H58.166c-.617 0-1.12-.502-1.12-1.12V35.186c0-.617.503-1.12 1.12-1.12h25.107c.618 0 1.12.503 1.12 1.12v14.572c0 .617-.502 1.12-1.12 1.12zM58.166 34.205a.983.983 0 00-.981.982v14.571c0 .541.44.982.981.982h25.107c.542 0 .982-.44.982-.982V35.186a.983.983 0 00-.982-.981H58.166z" fill="#fff"/><g opacity=".9" fill="#fff"><path opacity=".9" d="M70.538 47.564a5.188 5.188 0 01-5.182-5.181 5.188 5.188 0 015.182-5.182 5.188 5.188 0 015.182 5.181 5.187 5.187 0 01-5.182 5.182zm0-9.495a4.318 4.318 0 00-4.314 4.313 4.318 4.318 0 004.314 4.314 4.318 4.318 0 004.313-4.314 4.318 4.318 0 00-4.313-4.313z"/><path opacity=".9" fill-rule="evenodd" clip-rule="evenodd" d="M68.915 44.378v-3.725c0-.398.433-.645.775-.442l3.14 1.863a.514.514 0 010 .884l-3.14 1.862a.514.514 0 01-.775-.442z"/></g><path d="M11.213 76.87l.826 25.688c.144 4.479 3.82 8.043 8.323 8.07l61.512.362c3.01.018 5.573-2.169 6.012-5.132.962-6.487 2.187-18.094.807-28.988h-77.48z" fill="#597B8E"/><path d="M79.695 109.412l-.449-.002a.075.075 0 01-.074-.075c0-.041.034-.075.075-.075l.448.003c.041 0 .075.034.075.075a.075.075 0 01-.075.074zm1.045-.007a.074.074 0 01-.075-.07.074.074 0 01.07-.079c.147-.009.294-.024.44-.044a.073.073 0 01.084.063.074.074 0 01-.063.084 6.29 6.29 0 01-.452.046h-.004zm-2.539-.001l-.448-.003a.075.075 0 01-.075-.075c0-.041.034-.075.075-.075l.449.003a.075.075 0 01.074.075.075.075 0 01-.075.075zm-1.493-.009l-.449-.003a.075.075 0 010-.149h.001l.448.002a.075.075 0 010 .15zm-1.494-.009l-.448-.002a.076.076 0 01-.075-.076c0-.041.04-.072.075-.074l.448.003a.074.074 0 110 .149zm-1.493-.009l-.449-.003a.075.075 0 010-.149h.001l.448.003a.075.075 0 010 .149zm-1.494-.009l-.448-.002a.075.075 0 01-.075-.075.08.08 0 01.076-.075l.448.003a.075.075 0 010 .149zm-1.493-.009l-.449-.002a.076.076 0 01-.074-.075c0-.041.033-.075.074-.075l.449.003a.075.075 0 010 .149zm-1.494-.008l-.448-.003a.075.075 0 010-.149l.449.002a.075.075 0 01.074.075.076.076 0 01-.075.075zm-1.494-.009l-.448-.002a.075.075 0 010-.15l.449.003a.075.075 0 010 .149zm-1.493-.009l-.448-.002a.076.076 0 01-.075-.076c0-.041.034-.074.075-.074l.448.003c.042 0 .075.033.075.075a.075.075 0 01-.075.074zm-1.493-.009l-.449-.002a.075.075 0 010-.149h.001l.448.002a.075.075 0 010 .149zm-1.494-.009l-.449-.002a.076.076 0 01-.074-.076c0-.041.034-.074.075-.074l.448.003a.075.075 0 010 .149zm-1.493-.008l-.449-.003a.074.074 0 01-.074-.075c0-.041.033-.074.074-.074l.449.002a.075.075 0 010 .15zm-1.494-.009l-.449-.003a.075.075 0 010-.149h.001l.448.002a.075.075 0 01.074.075.075.075 0 01-.074.075zm-1.494-.009l-.448-.003a.075.075 0 010-.149l.449.003a.075.075 0 010 .149zm-1.493-.009l-.449-.002a.075.075 0 01-.074-.075c0-.042.038-.07.075-.075l.448.003c.041 0 .074.033.074.075a.074.074 0 01-.074.074zm-1.494-.009l-.448-.002a.075.075 0 010-.149l.449.002a.076.076 0 01.074.075.075.075 0 01-.075.074zm-1.493-.008l-.449-.003a.074.074 0 01-.074-.075c0-.041.038-.072.075-.074l.448.002a.075.075 0 01.075.076.075.075 0 01-.075.074zm-1.494-.009l-.448-.003a.075.075 0 010-.149l.449.002a.076.076 0 01.074.076.074.074 0 01-.075.074zm-1.493-.009l-.449-.002a.075.075 0 01-.074-.075c0-.041.038-.076.075-.075l.448.003a.075.075 0 010 .149zm-1.494-.009l-.448-.002a.075.075 0 01-.075-.075c0-.041.034-.075.075-.075l.448.003a.074.074 0 110 .149zm-1.493-.008l-.449-.003a.075.075 0 01-.074-.075c0-.041.034-.075.075-.075l.448.003a.075.075 0 01.074.075.076.076 0 01-.074.075zm-1.494-.009l-.449-.003a.075.075 0 010-.149h.001l.448.002a.075.075 0 01.075.075.075.075 0 01-.075.075zm-1.494-.009l-.448-.003a.074.074 0 01-.074-.075c0-.041.033-.074.074-.074l.449.003c.041 0 .074.033.074.075a.074.074 0 01-.075.074zm-1.493-.009l-.448-.003a.075.075 0 010-.149l.449.003c.041 0 .074.033.074.075a.075.075 0 01-.075.074zm-1.494-.009l-.448-.002a.075.075 0 01-.074-.075c0-.041.033-.075.074-.075l.449.003a.075.075 0 010 .149zm-1.493-.008l-.449-.003a.074.074 0 01-.074-.075c0-.041.034-.074.075-.074l.448.002a.075.075 0 01.075.075.075.075 0 01-.075.075zm-1.494-.009l-.448-.003a.074.074 0 01-.075-.075c0-.041.034-.074.075-.074l.449.002a.075.075 0 01.074.075.075.075 0 01-.075.075zm-1.493-.009l-.449-.003a.075.075 0 010-.149h.001l.448.003a.075.075 0 010 .149zm-1.493-.009l-.449-.002a.076.076 0 01-.074-.076c0-.041.037-.07.075-.074l.448.003a.075.075 0 010 .149zm-1.494-.009l-.449-.002a.075.075 0 010-.149h.001l.448.002c.041 0 .075.034.075.075a.075.075 0 01-.075.074zm-1.494-.009l-.448-.003a.075.075 0 01-.074-.075c0-.041.037-.073.075-.074l.448.003a.075.075 0 010 .149zm-1.493-.008l-.449-.003a.075.075 0 010-.149l.45.002a.075.075 0 01.073.075.075.075 0 01-.074.075zm50.3-.008a.075.075 0 01-.024-.146c.14-.047.279-.099.414-.156a.075.075 0 01.058.138 5.844 5.844 0 01-.425.159.066.066 0 01-.023.005zm-51.794-.001l-.448-.003a.074.074 0 01-.075-.075c0-.041.037-.076.076-.074l.448.002a.075.075 0 01.074.075.076.076 0 01-.075.075zm-1.494-.009l-.448-.002a.075.075 0 010-.15l.449.003c.041 0 .074.033.074.075a.074.074 0 01-.075.074zm-1.493-.009l-.448-.002a.076.076 0 01-.075-.076c0-.041.034-.074.075-.074l.449.003a.075.075 0 010 .149zm-1.494-.009l-.448-.002a.075.075 0 010-.149l.449.002a.075.075 0 010 .149zm-1.493-.008l-.449-.003a.075.075 0 010-.149h.001l.448.002c.042 0 .075.034.075.076a.074.074 0 01-.075.074zm-1.493-.009l-.449-.003a.075.075 0 010-.149l.45.002a.075.075 0 01.073.076.075.075 0 01-.074.074zm-1.494-.017h-.003a7.603 7.603 0 01-.451-.035.075.075 0 01-.066-.082.074.074 0 01.082-.067c.146.016.295.027.442.035a.075.075 0 01.071.078.075.075 0 01-.075.071zm-1.475-.213c-.006 0-.012 0-.018-.002a7.371 7.371 0 01-.436-.118.075.075 0 11.043-.143 7.2 7.2 0 00.428.116.075.075 0 01-.017.147zm63.57-.374a.074.074 0 01-.062-.034.074.074 0 01.022-.103 6.16 6.16 0 00.36-.256.074.074 0 11.091.118 5.74 5.74 0 01-.37.263.077.077 0 01-.04.012zm-64.98-.109a.07.07 0 01-.032-.007 8.767 8.767 0 01-.405-.197.075.075 0 01.069-.133c.13.068.265.133.398.194a.075.075 0 01-.03.143zm-1.295-.738a.075.075 0 01-.043-.014 8.776 8.776 0 01-.362-.269.076.076 0 01-.013-.106.076.076 0 01.105-.012c.116.091.236.18.356.265a.075.075 0 01-.043.136zm67.405-.123a.076.076 0 01-.05-.02.074.074 0 01-.006-.105 5.99 5.99 0 00.282-.34.075.075 0 01.119.09 5.72 5.72 0 01-.29.35.074.074 0 01-.055.025zm-68.54-.843a.074.074 0 01-.054-.022 8.672 8.672 0 01-.306-.333.075.075 0 01.113-.098c.097.111.197.221.3.326a.075.075 0 010 .106.077.077 0 01-.053.021zm69.381-.386a.08.08 0 01-.033-.008.075.075 0 01-.033-.101c.066-.131.128-.266.184-.401a.076.076 0 01.098-.041c.038.016.056.06.04.098a5.848 5.848 0 01-.189.412.075.075 0 01-.067.041zm-70.318-.774a.075.075 0 01-.063-.034 8.315 8.315 0 01-.239-.384.075.075 0 01.129-.076c.074.127.153.254.235.377a.075.075 0 01-.062.117zm70.812-.63a.075.075 0 01-.074-.09c.024-.11.044-.222.06-.334l.016-.103a.075.075 0 01.084-.064c.04.006.07.044.063.085l-.015.103a5.844 5.844 0 01-.061.343.075.075 0 01-.073.06zm-71.515-.686a.074.074 0 01-.07-.046 8.212 8.212 0 01-.162-.423.075.075 0 01.046-.095.076.076 0 01.095.046c.049.139.103.279.16.414a.075.075 0 01-.07.104zm71.74-.791l-.01-.001a.074.074 0 01-.064-.084l.06-.443a.076.076 0 01.084-.065c.041.006.07.044.064.085l-.06.444a.075.075 0 01-.075.064zm-72.183-.635a.075.075 0 01-.073-.059 7.956 7.956 0 01-.08-.445.075.075 0 11.148-.022c.022.145.048.292.079.436a.075.075 0 01-.058.089l-.016.001zm72.38-.846h-.01a.075.075 0 01-.065-.083l.056-.445a.075.075 0 11.148.019l-.056.445a.074.074 0 01-.074.064zm-72.546-.635a.075.075 0 01-.075-.072l-.014-.448a.075.075 0 01.072-.077c.041-.004.075.031.077.072l.014.448a.075.075 0 01-.072.077h-.002zm72.726-.848H86.6a.075.075 0 01-.065-.083l.05-.445a.075.075 0 11.149.016l-.05.446a.075.075 0 01-.075.066zm-72.774-.645a.075.075 0 01-.075-.072l-.014-.448a.075.075 0 01.072-.077.074.074 0 01.077.072l.014.448a.075.075 0 01-.072.077h-.002zm72.937-.84h-.008a.074.074 0 01-.066-.082l.046-.446a.075.075 0 11.148.015l-.046.446a.074.074 0 01-.074.068zm-72.985-.653a.075.075 0 01-.075-.072l-.014-.448a.075.075 0 01.072-.077c.035-.006.076.03.077.072l.014.448a.075.075 0 01-.072.077h-.002zm73.131-.833h-.007a.074.074 0 01-.067-.082l.04-.446a.075.075 0 11.148.013c-.012.15-.025.299-.04.447a.075.075 0 01-.074.068zm-73.18-.66a.075.075 0 01-.074-.072l-.014-.448a.075.075 0 01.072-.077c.036-.005.075.031.077.072l.014.448a.075.075 0 01-.072.077h-.002zm73.31-.829h-.007a.075.075 0 01-.068-.08l.035-.447a.074.074 0 01.08-.069.075.075 0 01.07.08l-.036.448a.074.074 0 01-.074.068zm-73.357-.664a.075.075 0 01-.075-.072l-.014-.448a.075.075 0 01.072-.077.075.075 0 01.077.072l.014.448a.075.075 0 01-.072.077h-.002zm73.468-.825h-.005a.075.075 0 01-.07-.08l.03-.447a.075.075 0 01.15.01l-.03.447a.075.075 0 01-.075.07zm-73.516-.667a.075.075 0 01-.075-.072l-.014-.448a.075.075 0 01.072-.077c.04-.005.076.03.077.072l.014.448a.075.075 0 01-.072.077h-.002zm73.609-.824h-.004a.075.075 0 01-.07-.079l.024-.447a.075.075 0 11.148.008c-.007.15-.015.299-.024.447a.075.075 0 01-.074.07zm-73.657-.67a.075.075 0 01-.075-.071l-.014-.448a.075.075 0 01.072-.077c.04-.004.076.031.077.072l.014.448a.075.075 0 01-.072.077h-.002zm73.73-.822h-.003a.075.075 0 01-.071-.078l.018-.447a.075.075 0 01.078-.072.075.075 0 01.072.078l-.019.448a.075.075 0 01-.075.071zm-73.778-.67a.075.075 0 01-.075-.072l-.014-.448a.075.075 0 01.072-.077c.036-.004.075.031.077.072l.014.448a.075.075 0 01-.072.077h-.002zm73.833-.823h-.002a.075.075 0 01-.073-.077l.012-.447a.075.075 0 01.15.004l-.013.448a.075.075 0 01-.074.072zm-73.881-.67a.075.075 0 01-.075-.072l-.014-.448a.075.075 0 01.072-.077c.036-.004.075.031.077.073l.014.447a.075.075 0 01-.072.077H13.5zm73.914-.823h-.001a.074.074 0 01-.074-.076l.006-.448c0-.041.04-.073.076-.074.04 0 .074.034.073.076l-.005.448a.076.076 0 01-.075.074zm-73.962-.67a.075.075 0 01-.075-.072l-.014-.447a.075.075 0 01.072-.078c.036-.004.075.031.077.072l.014.448a.075.075 0 01-.072.077h-.002zm73.973-.824a.075.075 0 01-.074-.075v-.036l-.001-.411c0-.041.033-.075.074-.075.042 0 .075.033.075.074l.001.412v.036a.074.074 0 01-.075.075zm-74.021-.668a.075.075 0 01-.075-.072l-.014-.448a.075.075 0 01.072-.077c.041-.006.075.031.077.072l.014.448a.075.075 0 01-.072.077h-.002zm74.01-.825a.075.075 0 01-.074-.073l-.008-.448c0-.04.032-.075.073-.076.036-.003.075.032.077.073l.007.448a.075.075 0 01-.073.076h-.001zm-74.058-.668a.075.075 0 01-.075-.072l-.014-.448a.075.075 0 01.072-.077c.037-.004.075.03.077.072l.014.448a.075.075 0 01-.072.077h-.002zm74.023-.825a.075.075 0 01-.074-.072l-.015-.447a.075.075 0 01.071-.078.074.074 0 01.078.072l.016.448a.075.075 0 01-.073.078h-.003zm-74.071-.668a.075.075 0 01-.075-.072l-.014-.448a.075.075 0 01.072-.077.074.074 0 01.077.073l.014.447a.075.075 0 01-.072.077h-.002zm74.011-.824a.075.075 0 01-.075-.07l-.023-.448a.075.075 0 01.15-.008l.023.448a.075.075 0 01-.07.078h-.005zm-74.06-.669a.075.075 0 01-.074-.072l-.014-.448a.075.075 0 01.072-.077c.043 0 .076.031.077.073l.014.447a.075.075 0 01-.072.077h-.002zm73.973-.822a.075.075 0 01-.074-.07c-.01-.148-.02-.297-.032-.446a.075.075 0 01.07-.08.074.074 0 01.08.07c.01.148.021.297.03.446a.075.075 0 01-.069.08h-.005zm-74.02-.67a.075.075 0 01-.075-.073l-.014-.447a.075.075 0 01.072-.078c.037-.006.075.031.077.073l.014.447a.075.075 0 01-.072.078h-.002zm73.904-.819a.075.075 0 01-.074-.068 83.803 83.803 0 00-.04-.446.074.074 0 11.148-.014c.014.15.028.298.04.447a.074.074 0 01-.067.08l-.007.001zm-73.952-.674a.075.075 0 01-.075-.072l-.014-.448a.075.075 0 01.072-.077.076.076 0 01.077.072l.014.448a.075.075 0 01-.072.077h-.002zm73.806-.812a.075.075 0 01-.074-.067l-.05-.445a.075.075 0 01.148-.017l.05.446a.075.075 0 01-.066.083h-.008zm-73.854-.681a.075.075 0 01-.075-.072l-.017-.525h.27a.075.075 0 110 .15h-.116l.012.37a.075.075 0 01-.072.077h-.002zm73.364-.448h-.448a.075.075 0 010-.15h.448c.041 0 .075.034.075.076a.075.075 0 01-.075.074zm-1.494 0h-.448a.075.075 0 010-.15h.448c.042 0 .075.034.075.076a.075.075 0 01-.075.074zm-1.493 0h-.448a.075.075 0 010-.15h.448c.041 0 .075.034.075.076a.075.075 0 01-.075.074zm-1.494 0h-.448a.075.075 0 010-.15h.448c.041 0 .075.034.075.076a.075.075 0 01-.075.074zm-1.493 0h-.448a.075.075 0 010-.15h.448c.041 0 .074.034.074.076a.075.075 0 01-.074.074zm-1.494 0h-.448a.075.075 0 010-.15h.448c.041 0 .075.034.075.076a.075.075 0 01-.075.074zm-1.493 0h-.449a.075.075 0 010-.15h.448c.042 0 .075.034.075.076a.075.075 0 01-.075.074zm-1.494 0h-.448a.075.075 0 010-.15h.448c.041 0 .074.034.074.076a.075.075 0 01-.074.074zm-1.494 0h-.448a.075.075 0 010-.15h.448c.042 0 .075.034.075.076a.075.075 0 01-.075.074zm-1.493 0h-.449a.075.075 0 010-.15h.449c.041 0 .074.034.074.076a.075.075 0 01-.074.074zm-1.494 0h-.448a.075.075 0 010-.15h.448c.042 0 .075.034.075.076a.075.075 0 01-.075.074zm-1.494 0h-.448a.075.075 0 010-.15h.448c.042 0 .075.034.075.076a.075.075 0 01-.075.074zm-1.493 0h-.448a.075.075 0 010-.15h.448c.041 0 .075.034.075.076a.075.075 0 01-.075.074zm-1.494 0h-.448a.075.075 0 010-.15h.448c.042 0 .075.034.075.076a.075.075 0 01-.075.074zm-1.493 0h-.448a.075.075 0 010-.15h.448c.041 0 .075.034.075.076a.075.075 0 01-.075.074zm-1.494 0h-.448a.075.075 0 010-.15h.448c.042 0 .075.034.075.076a.075.075 0 01-.075.074zm-1.493 0h-.448a.075.075 0 010-.15h.448c.041 0 .075.034.075.076a.075.075 0 01-.075.074zm-1.494 0h-.448a.075.075 0 010-.15h.448c.041 0 .075.034.075.076a.075.075 0 01-.075.074zm-1.493 0h-.448a.075.075 0 010-.15h.448c.041 0 .074.034.074.076a.075.075 0 01-.074.074zm-1.494 0h-.448a.075.075 0 010-.15h.448a.075.075 0 010 .15zm-1.493 0h-.449a.075.075 0 010-.15h.449c.041 0 .074.034.074.076a.075.075 0 01-.074.074zm-1.494 0h-.448a.075.075 0 010-.15h.448c.042 0 .075.034.075.076a.075.075 0 01-.075.074zm-1.494 0h-.448a.075.075 0 010-.15h.448c.042 0 .075.034.075.076a.075.075 0 01-.075.074zm-1.493 0h-.448a.075.075 0 010-.15h.448c.041 0 .075.034.075.076a.075.075 0 01-.075.074zm-1.494 0h-.448a.075.075 0 010-.15h.448c.042 0 .075.034.075.076a.075.075 0 01-.075.074zm-1.493 0h-.448a.075.075 0 010-.15h.448c.041 0 .075.034.075.076a.075.075 0 01-.075.074zm-1.494 0h-.448a.075.075 0 010-.15h.448c.042 0 .075.034.075.076a.075.075 0 01-.075.074zm-1.493 0h-.448a.075.075 0 010-.15h.448c.041 0 .075.034.075.076a.075.075 0 01-.075.074zm-1.494 0h-.448a.075.075 0 010-.15h.448c.041 0 .075.034.075.076a.075.075 0 01-.075.074zm-1.493 0h-.448a.075.075 0 010-.15h.448c.041 0 .074.034.074.076a.075.075 0 01-.074.074zm-1.494 0h-.448a.075.075 0 010-.15h.448c.041 0 .075.034.075.076a.075.075 0 01-.075.074zm-1.493 0h-.449a.075.075 0 010-.15h.449c.041 0 .074.034.074.076a.075.075 0 01-.075.074zm-1.494 0h-.448a.075.075 0 010-.15h.448c.041 0 .074.034.074.076a.075.075 0 01-.074.074zm-1.494 0h-.448a.075.075 0 010-.15h.448c.042 0 .075.034.075.076a.075.075 0 01-.075.074zm-1.493 0h-.449a.075.075 0 010-.15h.449c.041 0 .074.034.074.076a.075.075 0 01-.074.074zm-1.494 0h-.448a.075.075 0 010-.15h.448c.042 0 .075.034.075.076a.075.075 0 01-.075.074zm-1.493 0h-.449a.075.075 0 010-.15h.449c.04 0 .074.034.074.076a.075.075 0 01-.074.074zm-1.494 0h-.448a.075.075 0 010-.15h.448c.042 0 .075.034.075.076a.075.075 0 01-.075.074zm-1.494 0h-.448a.075.075 0 010-.15h.448c.042 0 .075.034.075.076a.075.075 0 01-.075.074zm-1.493 0h-.448a.075.075 0 010-.15h.448c.041 0 .075.034.075.076a.075.075 0 01-.075.074zm-1.494 0h-.448a.075.075 0 010-.15h.448c.042 0 .075.034.075.076a.075.075 0 01-.075.074zm-1.493 0h-.448a.075.075 0 010-.15h.448c.041 0 .075.034.075.076a.075.075 0 01-.075.074zm-1.494 0h-.448a.075.075 0 010-.15h.448c.042 0 .075.034.075.076a.075.075 0 01-.075.074zm-1.493 0h-.448a.075.075 0 010-.15h.448c.041 0 .074.034.074.076a.075.075 0 01-.074.074zm-1.494 0h-.448a.075.075 0 010-.15h.448c.041 0 .075.034.075.076a.075.075 0 01-.075.074zm-1.493 0h-.448a.075.075 0 010-.15h.448c.041 0 .074.034.074.076a.075.075 0 01-.074.074zm-1.494 0h-.448a.075.075 0 010-.15h.448c.041 0 .075.034.075.076a.075.075 0 01-.075.074zm-1.493 0h-.449a.075.075 0 010-.15h.449c.04 0 .074.034.074.076a.075.075 0 01-.075.074zm-1.494 0h-.448a.075.075 0 010-.15h.448c.041 0 .074.034.074.076a.075.075 0 01-.074.074z" fill="#fff"/><path d="M29.24 58.223l.185-1.98a1.523 1.523 0 011.155-.89c1.917-.305 6.67-.841 8.958.869l.342 2.302-10.64-.3z" fill="#000"/><path d="M35.24 56.019a2.749 2.749 0 01-1.326-.002 1.198 1.198 0 01-.914-1.16v-6.203h3.157v6.199c0 .551-.379 1.035-.917 1.166zm24.577 2.204l.185-1.98a1.523 1.523 0 011.155-.89c1.917-.305 6.67-.841 8.958.869l.342 2.302-10.64-.3z" fill="#000"/><path d="M65.816 56.019a2.75 2.75 0 01-1.326-.002 1.198 1.198 0 01-.914-1.16V48h3.157v6.852c0 .552-.378 1.035-.917 1.167z" fill="#000"/><path d="M32.666 50.472l33.95-1.124a1.636 1.636 0 001.564-1.343c.186-1.063.35-2.654.105-4.304-.278-1.875-1.891-3.269-3.795-3.314-6.334-.15-22.457-.146-31.344 3.37a3.104 3.104 0 00-1.875 2.153c-.227.933-.378 2.179-.081 3.447a1.462 1.462 0 001.476 1.115z" fill="#9AD0D1"/><path d="M32.078 48.708a.15.15 0 01-.148-.134c-.005-.054-.129-1.33.203-2.559a2.83 2.83 0 011.928-1.96c1.891-.554 5.506-1.497 8.458-1.58a.15.15 0 11.009.298c-2.92.082-6.505 1.019-8.383 1.57a2.53 2.53 0 00-1.724 1.75c-.318 1.174-.196 2.438-.194 2.45a.15.15 0 01-.148.165z" fill="#91B3FA"/><path d="M13.488 57.451c10.968-.14 58.417-.639 72.2 1.024a2.807 2.807 0 012.411 2.173c.815 3.682 2.453 12.235 2.26 20.713-.027 1.154-.873 2.128-2.012 2.343l-31.462 5.952H45.71l-33.522-6.663a2.621 2.621 0 01-2.114-2.433c-.218-4.266-.558-14.274.595-20.716a2.9 2.9 0 012.82-2.393z" fill="#9AD0D1"/><path d="M56.627 87.02h-.448a.075.075 0 010-.15h.448c.041 0 .075.034.075.075a.075.075 0 01-.075.075zm-1.494 0h-.448a.075.075 0 010-.15h.448a.075.075 0 110 .15zm-1.493 0h-.449a.075.075 0 010-.15h.449c.041 0 .074.034.074.075a.074.074 0 01-.074.075zm-1.494 0h-.448a.075.075 0 010-.15h.448a.075.075 0 110 .15zm-1.493 0h-.449a.075.075 0 010-.15h.449c.041 0 .074.034.074.075a.074.074 0 01-.074.075zm-1.494 0h-.448a.075.075 0 010-.15h.448a.075.075 0 110 .15zm-1.494 0h-.448a.075.075 0 010-.15h.448c.042 0 .075.034.075.075a.075.075 0 01-.075.075zm-1.493 0h-.195l-.454-.089a.075.075 0 01.029-.146l.44.087.18-.001c.042 0 .075.033.075.074a.075.075 0 01-.075.075zm11.482-.194a.075.075 0 01-.014-.148l.44-.083a.075.075 0 01.028.147l-.44.083a.082.082 0 01-.014.001zm-13.142-.097c-.005 0-.01 0-.015-.002l-.44-.087a.075.075 0 01.03-.147l.44.088a.075.075 0 01-.015.148zm14.61-.18a.075.075 0 01-.014-.148l.44-.084c.04-.007.08.02.087.06a.075.075 0 01-.06.087l-.44.084a.07.07 0 01-.014.001zm-16.075-.111c-.005 0-.01 0-.015-.002l-.44-.087a.075.075 0 01.03-.147l.44.088a.074.074 0 01-.014.148zm17.542-.167a.075.075 0 01-.014-.148l.44-.083a.075.075 0 01.088.06.075.075 0 01-.06.087l-.44.083a.078.078 0 01-.014.001zm-19.007-.125l-.015-.001-.44-.088a.075.075 0 01.03-.146l.44.087a.075.075 0 01-.015.148zm20.474-.152a.075.075 0 01-.014-.148l.44-.084c.041-.007.08.02.088.06a.075.075 0 01-.06.087l-.44.084a.078.078 0 01-.014 0zm-21.939-.139l-.014-.001-.44-.088a.075.075 0 01.03-.146l.439.087a.075.075 0 01-.015.148zm23.407-.14a.075.075 0 01-.014-.148l.44-.083a.075.075 0 01.028.147l-.44.084a.078.078 0 01-.014 0zm-24.872-.15a.032.032 0 01-.014-.003l-.44-.087a.075.075 0 01.03-.146l.439.087a.075.075 0 01-.015.148zm26.34-.126a.075.075 0 01-.014-.148l.44-.084c.04-.007.08.019.088.06a.075.075 0 01-.06.087l-.44.083a.087.087 0 01-.014.002zm-27.805-.166l-.014-.001-.44-.088a.075.075 0 01.03-.146l.439.087a.075.075 0 01-.015.148zm29.272-.112a.075.075 0 01-.014-.148l.44-.084a.075.075 0 01.028.147l-.44.083a.069.069 0 01-.014.002zm-30.736-.18h-.015l-.44-.088a.075.075 0 01.03-.147l.439.088a.074.074 0 01-.014.148zm32.204-.098a.075.075 0 01-.014-.148l.44-.083a.075.075 0 11.028.147l-.44.083a.088.088 0 01-.014.001zm-33.67-.192c-.004 0-.01 0-.014-.002l-.44-.087a.075.075 0 01.03-.147l.439.088a.075.075 0 01-.014.148zm35.137-.086a.075.075 0 01-.014-.148l.44-.083a.075.075 0 01.029.147l-.44.083a.086.086 0 01-.015.001zM32.792 84.4l-.014-.001-.44-.088a.075.075 0 01.03-.146l.439.087c.04.008.067.047.058.088a.074.074 0 01-.073.06zm38.07-.071a.075.075 0 01-.014-.148l.44-.083c.04-.008.08.018.088.06a.075.075 0 01-.06.087l-.44.083-.014.001zm-39.534-.22c-.005 0-.01 0-.015-.002l-.44-.087a.075.075 0 01.03-.147l.44.088a.075.075 0 01-.015.148zm41.001-.058a.075.075 0 01-.073-.06.074.074 0 01.06-.088l.44-.083c.04-.007.08.019.087.06a.075.075 0 01-.06.087l-.44.083-.014.001zm-42.466-.233l-.015-.001-.44-.088a.075.075 0 01.03-.146l.44.087a.075.075 0 01-.015.148zm43.934-.045a.075.075 0 01-.014-.148l.44-.083a.074.074 0 01.087.06.075.075 0 01-.06.087l-.44.083a.074.074 0 01-.013.001zm-45.399-.246c-.005 0-.01 0-.015-.002l-.44-.087a.075.075 0 01.03-.147l.44.088a.075.075 0 01-.015.148zm46.867-.031a.075.075 0 01-.014-.148l.44-.084a.075.075 0 01.028.147l-.44.084a.082.082 0 01-.014 0zm-48.332-.26c-.005 0-.01 0-.015-.002l-.44-.087a.075.075 0 01.03-.147l.44.088a.075.075 0 01-.015.148zm49.799-.018a.075.075 0 01-.014-.148l.44-.083a.074.074 0 01.088.06.075.075 0 01-.06.087l-.44.083a.082.082 0 01-.014.001zm-51.264-.274l-.015-.001-.44-.088a.075.075 0 01.03-.146l.44.087a.075.075 0 01-.015.148zM78.2 82.94a.075.075 0 01-.014-.148l.44-.084c.041-.007.08.02.088.06a.075.075 0 01-.06.087l-.44.084a.082.082 0 01-.013 0zm1.468-.278a.075.075 0 01-.014-.148l.44-.084a.075.075 0 11.028.147l-.44.084a.073.073 0 01-.014 0zm-55.663-.01l-.015-.001-.44-.088a.075.075 0 01.03-.146l.439.087a.075.075 0 01-.015.148zm57.13-.267a.075.075 0 01-.014-.148l.44-.084a.076.076 0 01.088.06.074.074 0 01-.06.087l-.44.083a.05.05 0 01-.013.002zm-58.596-.024c-.005 0-.01 0-.014-.002l-.44-.087a.075.075 0 01.03-.147l.439.088a.075.075 0 01-.015.148zm60.064-.254a.075.075 0 01-.014-.148l.44-.084a.075.075 0 01.027.147l-.44.083a.074.074 0 01-.013.002zm-61.529-.037l-.014-.001-.44-.088a.075.075 0 01.03-.146l.439.087a.075.075 0 01-.015.148zm62.997-.24a.075.075 0 01-.074-.061.074.074 0 01.06-.088l.44-.083c.04-.007.08.02.087.06a.075.075 0 01-.06.087l-.44.083-.013.001zm-64.461-.051c-.005 0-.01 0-.015-.002l-.44-.087a.075.075 0 01.03-.147l.44.088a.075.075 0 01-.015.148zm65.928-.228a.075.075 0 01-.014-.148l.44-.083c.04-.007.08.019.088.06a.075.075 0 01-.06.087l-.44.083a.08.08 0 01-.014.001zm-67.393-.063c-.005 0-.01 0-.015-.002l-.44-.087a.075.075 0 01.03-.147l.44.088a.075.075 0 01-.015.148zm68.86-.214a.075.075 0 01-.013-.148l.44-.084a.075.075 0 01.028.147l-.44.084a.08.08 0 01-.015.001zm-70.325-.078l-.015-.001-.44-.088a.075.075 0 01.03-.146l.439.087a.075.075 0 01-.014.148zm-1.465-.29l-.015-.003-.44-.087a.075.075 0 01.03-.147l.44.088a.075.075 0 01-.015.148zm-1.465-.292c-.005 0-.01 0-.015-.002l-.44-.087a.075.075 0 01.03-.147l.44.088a.075.075 0 01-.015.148zm73.913-.297a.075.075 0 01-.074-.075v-.448c0-.041.033-.075.074-.075.041 0 .075.034.075.075v.448a.075.075 0 01-.075.075zm-74.909-.399a.075.075 0 01-.075-.07 66.598 66.598 0 01-.02-.449.075.075 0 01.15-.007l.02.448a.075.075 0 01-.071.078h-.004zm74.898-1.094a.075.075 0 01-.075-.073l-.01-.447c0-.042.031-.076.072-.077.046-.003.076.031.077.073.004.149.008.298.01.448a.075.075 0 01-.072.076h-.002zm-74.962-.398a.075.075 0 01-.075-.072l-.017-.448a.074.074 0 11.149-.006l.017.448a.075.075 0 01-.072.078h-.003zm74.916-1.094a.075.075 0 01-.074-.072 72.499 72.499 0 00-.02-.446.075.075 0 01.07-.078.074.074 0 01.079.07l.02.448a.075.075 0 01-.072.077h-.003zm-74.968-.4a.075.075 0 01-.074-.072l-.014-.448a.074.074 0 01.073-.077.076.076 0 01.077.073l.013.448a.075.075 0 01-.072.077h-.003zm74.892-1.091a.074.074 0 01-.075-.07l-.028-.447a.075.075 0 01.069-.08c.043 0 .077.029.08.07.01.149.02.298.028.447a.075.075 0 01-.07.08h-.004zm-74.93-.402a.075.075 0 01-.075-.073l-.009-.448c0-.041.032-.075.073-.076.04-.004.076.032.076.073l.01.448a.075.075 0 01-.074.076H12.6zm74.824-1.088a.074.074 0 01-.075-.069c-.011-.15-.024-.298-.037-.447a.075.075 0 01.15-.012l.037.447a.075.075 0 01-.069.08h-.006zm-74.849-.406a.075.075 0 01-.075-.073l-.005-.449c0-.041.033-.075.074-.075h.001c.041 0 .074.032.075.073l.005.449a.075.075 0 01-.074.075zm74.716-1.083a.074.074 0 01-.074-.067l-.045-.446a.075.075 0 01.149-.016l.044.447a.075.075 0 01-.067.081l-.007.001zm-74.727-.41a.075.075 0 01-.074-.075v-.448a.074.074 0 01.15 0v.448a.076.076 0 01-.076.075zm74.57-1.076a.075.075 0 01-.075-.066l-.052-.444a.074.074 0 01.065-.083.073.073 0 01.083.065l.052.446a.075.075 0 01-.066.082h-.008zm-74.564-.417a.075.075 0 01-.075-.076l.005-.447c0-.042.034-.074.075-.074.042 0 .075.034.075.075l-.005.448a.075.075 0 01-.075.074zm74.381-1.066a.075.075 0 01-.074-.064c-.019-.15-.038-.297-.059-.444a.075.075 0 01.064-.085.074.074 0 01.085.064l.059.445a.074.074 0 01-.075.084zm-74.358-.427h-.002a.075.075 0 01-.073-.076l.011-.449c0-.041.034-.076.077-.072a.075.075 0 01.072.076l-.01.448a.075.075 0 01-.075.073zm74.154-1.053a.075.075 0 01-.074-.064 87.837 87.837 0 00-.066-.443.075.075 0 01.063-.085.075.075 0 01.085.063l.066.443a.074.074 0 01-.063.085.052.052 0 01-.011.001zm-74.11-.44h-.004a.075.075 0 01-.072-.078l.018-.448a.077.077 0 01.077-.072.075.075 0 01.072.078l-.018.448a.074.074 0 01-.074.071zm73.883-1.037a.075.075 0 01-.073-.063 66.367 66.367 0 00-.073-.442.075.075 0 01.148-.024l.072.443a.075.075 0 01-.062.086h-.012zm-73.818-.457h-.004a.074.074 0 01-.07-.078l.025-.449a.075.075 0 01.149.009l-.026.448a.074.074 0 01-.074.07zm73.57-1.016a.075.075 0 01-.073-.062l-.078-.441a.074.074 0 01.06-.087c.04-.007.08.02.087.06l.078.442c.007.04-.02.08-.06.087h-.013zm-73.476-.476h-.005a.074.074 0 01-.07-.08l.035-.447a.075.075 0 01.08-.069c.041.003.072.04.069.08a50.7 50.7 0 00-.034.447.075.075 0 01-.075.07zm73.208-.994a.075.075 0 01-.074-.061l-.084-.44a.074.074 0 01.059-.087c.04-.01.08.018.087.059l.085.44a.075.075 0 01-.06.088h-.013zm-73.081-.495h-.008a.075.075 0 01-.067-.082l.046-.446a.074.074 0 01.082-.066c.041.004.07.04.066.081l-.045.446a.074.074 0 01-.074.068zm72.79-.972a.075.075 0 01-.073-.06l-.091-.438a.075.075 0 01.146-.031l.092.44a.075.075 0 01-.074.09zm-72.622-.511l-.01-.001a.075.075 0 01-.064-.084c.019-.15.04-.298.06-.445a.076.076 0 01.085-.064c.04.006.069.044.063.085l-.06.443a.075.075 0 01-.074.066zm72.143-.79h-.008a49.161 49.161 0 00-.445-.05.075.075 0 11.016-.148l.446.05c.041.005.07.042.066.083a.075.075 0 01-.075.066zm-1.485-.154h-.007l-.446-.04a.075.075 0 01.013-.15l.446.041c.041.004.072.04.068.081a.075.075 0 01-.074.068zm-1.489-.125h-.005l-.447-.034a.074.074 0 01-.069-.08.075.075 0 01.08-.07l.448.034a.075.075 0 01.068.08.076.076 0 01-.075.07zm-1.49-.105h-.005l-.447-.03a.075.075 0 01.01-.148l.447.029a.075.075 0 01.07.08.075.075 0 01-.075.069zm-1.49-.091h-.005l-.447-.025a.075.075 0 01.008-.15l.448.025a.074.074 0 01.07.08.075.075 0 01-.075.07zm-1.492-.08h-.004l-.447-.021a.075.075 0 01.007-.15l.447.022a.075.075 0 01-.003.15zm-1.492-.07h-.003l-.448-.019a.075.075 0 01-.072-.078.076.076 0 01.078-.071l.448.02a.075.075 0 01-.003.148zm-1.492-.062H74.8l-.448-.017a.075.075 0 01-.072-.078c.002-.041.04-.075.078-.072l.448.018a.075.075 0 01.072.077.075.075 0 01-.075.072zm-61.49 0l-.013-.002a.074.074 0 01-.06-.086l.024-.141a.264.264 0 01.258-.222h.04c.045-.006.075.032.075.073a.075.075 0 01-.073.076h-.04a.115.115 0 00-.112.099l-.025.14a.076.076 0 01-.074.062zm59.997-.056h-.003l-.448-.015a.075.075 0 01-.072-.078c.002-.04.036-.075.077-.072l.448.016a.075.075 0 01.072.077.074.074 0 01-.074.072zm-1.493-.05h-.002l-.448-.014a.075.075 0 01-.072-.076c.001-.042.035-.072.077-.073l.448.014a.075.075 0 01.072.077.075.075 0 01-.075.072zm-1.493-.045h-.002l-.448-.013a.075.075 0 01-.072-.076c0-.042.035-.076.076-.073l.448.013a.075.075 0 01.073.076.075.075 0 01-.075.073zm-1.493-.04h-.002l-.448-.012a.075.075 0 01-.072-.077c0-.04.028-.071.076-.073l.448.012a.075.075 0 01.073.077.076.076 0 01-.075.072zm-1.493-.038h-.002l-.448-.01a.075.075 0 01-.073-.076.072.072 0 01.076-.073l.449.01c.04 0 .073.035.073.076a.075.075 0 01-.075.074zm-1.493-.033h-.002l-.448-.01a.075.075 0 01-.073-.076.078.078 0 01.077-.073l.448.01c.04 0 .074.034.073.076a.076.076 0 01-.075.073zm-1.494-.03h-.001l-.448-.009a.075.075 0 01-.074-.076c0-.04.032-.077.076-.073l.448.008a.075.075 0 01.073.077c0 .04-.033.073-.074.073zm-49.743-.023a.075.075 0 010-.15l.448-.005c.035 0 .075.033.075.074a.075.075 0 01-.074.076l-.448.005zm48.25-.004h-.001l-.448-.008a.075.075 0 01.001-.149h.002l.448.007c.04.001.074.035.073.076a.076.076 0 01-.075.074zm-46.755-.014a.075.075 0 010-.15l.447-.004c.043-.004.075.032.076.074a.074.074 0 01-.074.075l-.448.005h-.001zm45.262-.01h-.002l-.448-.008a.074.074 0 01-.073-.076c0-.041.03-.076.076-.073l.448.007a.075.075 0 01-.001.15zm-43.768-.006a.075.075 0 010-.15l.447-.005c.046.002.075.033.076.074a.075.075 0 01-.074.076l-.448.005zm1.494-.015a.075.075 0 010-.15l.448-.004c.045.003.075.033.075.074a.075.075 0 01-.074.075l-.448.005zm40.78-.002h-.001l-.449-.006a.074.074 0 01.002-.149l.449.006c.041 0 .074.035.073.076 0 .04-.033.073-.074.073zm-39.286-.013a.075.075 0 010-.15l.448-.004c.046.004.075.033.075.074a.075.075 0 01-.074.076l-.448.004zm37.792-.006l-.449-.006a.075.075 0 01-.073-.075c0-.042.032-.078.075-.074l.448.005c.041 0 .075.035.074.076a.074.074 0 01-.075.074zm-36.297-.008a.075.075 0 01-.001-.15l.448-.003a.075.075 0 01.002.15l-.449.003zm34.804-.01l-.449-.004a.075.075 0 01.002-.15l.448.005a.075.075 0 010 .15zm-33.31-.002a.075.075 0 01-.001-.15l.448-.003a.075.075 0 010 .149l-.447.004zm1.494-.012a.075.075 0 010-.15l.447-.003c.042 0 .075.034.075.075a.074.074 0 01-.074.075l-.448.003zm30.322-.001l-.449-.004a.074.074 0 01-.074-.076c0-.04.034-.074.075-.074h.001l.448.005a.075.075 0 010 .15zm-28.828-.01a.075.075 0 010-.15l.447-.002c.041-.004.075.033.076.074a.075.075 0 01-.075.075l-.448.003zm27.335-.003l-.449-.004a.075.075 0 01-.074-.075c0-.041.033-.074.074-.074l.449.003a.075.075 0 010 .15zM28.056 60.1a.075.075 0 01-.075-.074c0-.042.033-.075.074-.075l.449-.003c.041 0 .074.033.075.074a.074.074 0 01-.075.075l-.448.003zm24.347-.005l-.448-.003a.075.075 0 01-.075-.075c0-.042.036-.08.075-.075l.449.004c.041 0 .074.034.074.075a.074.074 0 01-.075.074zm-22.853-.003a.075.075 0 01-.075-.075c0-.041.033-.074.074-.075l.448-.002a.075.075 0 01.001.15l-.448.002zm21.36-.007l-.449-.002a.075.075 0 01-.074-.076c0-.04.034-.072.075-.074l.448.003a.075.075 0 010 .149zm-19.866-.002a.075.075 0 010-.149l.448-.002a.075.075 0 010 .15l-.448.001zm18.372-.006l-.448-.002a.075.075 0 010-.15l.448.002a.075.075 0 110 .15zm-16.878 0a.075.075 0 010-.15l.447-.002a.075.075 0 01.001.15l-.448.001zm1.494-.006a.075.075 0 010-.15l.448-.001a.075.075 0 010 .149l-.448.002zm13.89 0l-.448-.002a.074.074 0 01-.074-.076c0-.04.034-.074.075-.074l.448.002c.041 0 .075.034.074.075a.075.075 0 01-.074.074zm-12.396-.005a.075.075 0 010-.15h.447a.075.075 0 010 .148l-.447.002zm10.903-.001l-.448-.001a.075.075 0 010-.15l.449.002c.041 0 .074.033.074.074a.075.075 0 01-.075.075zm-9.41-.003a.075.075 0 010-.15h.449a.074.074 0 110 .15h-.448zm7.917 0l-.449-.002a.075.075 0 010-.149h.449a.075.075 0 010 .15zm-6.422-.003a.075.075 0 110-.15h.448c.041 0 .074.034.074.075a.075.075 0 01-.074.075h-.448zm4.928 0h-.448a.075.075 0 110-.15h.448c.04 0 .075.034.075.075a.075.075 0 01-.075.075zm-3.435-.002a.075.075 0 010-.15h.447a.075.075 0 110 .15h-.447zm1.941 0H41.5a.074.074 0 01-.074-.074c0-.042.033-.075.074-.075h.448a.075.075 0 010 .15z" fill="#fff"/><path d="M55.833 94.348h-9.79a2.53 2.53 0 01-2.516-2.222l-1.131-9.421a2.526 2.526 0 012.515-2.821h11.762a2.527 2.527 0 012.524 2.744l-.84 9.421a2.529 2.529 0 01-2.524 2.3z" fill="#000"/><mask id="mask0_132_1747" style="mask-type:alpha" maskUnits="userSpaceOnUse" x="44" y="81" width="14" height="12"><path d="M54.63 92.616h-7.453a1.925 1.925 0 01-1.914-1.692l-.861-7.17a1.923 1.923 0 011.914-2.148h8.953c1.132 0 2.02.967 1.92 2.09l-.639 7.17a1.926 1.926 0 01-1.92 1.75z" fill="url(#paint0_linear_132_1747)"/></mask><g mask="url(#mask0_132_1747)"><path d="M54.63 92.616h-7.453a1.925 1.925 0 01-1.914-1.692l-.861-7.17a1.923 1.923 0 011.914-2.148h8.953c1.132 0 2.02.967 1.92 2.09l-.639 7.17a1.926 1.926 0 01-1.92 1.75z" fill="#C6EEEF"/></g><path d="M92.148 110.378a63.52 63.52 0 01-5.982-.037c1.347-.959 4.449-3.044 7.045-3.874l1.782-.107s.604.919.82 3.02c-.296.369-1.16.883-3.665.998z" fill="url(#paint1_linear_132_1747)"/><path d="M86.148 110.354l.018-.013c1.479.075 3.694.142 5.983.037 2.504-.116 3.368-.63 3.663-.998.01.097.02.193.029.295a.835.835 0 01-.767.901c-1.874.141-6.521.462-8.762.345a.313.313 0 01-.164-.567z" fill="url(#paint2_linear_132_1747)"/><path d="M108.516 109.765c.168-1.074.437-2.627.644-3.024.326-.623 1.441 0 1.441 0s.783.365 1.143.973c.23.388.865 1.491 1.295 2.241.05.086.07.178.068.267l-4.465.156a.893.893 0 01-.126-.613z" fill="url(#paint3_linear_132_1747)"/><path d="M113.107 110.221a.51.51 0 01-.495.494l-3.181.088a.899.899 0 01-.789-.426l4.465-.156z" fill="url(#paint4_linear_132_1747)"/><path d="M108.175 103.17c.039.128.615 2.926.868 4.153.07.339.375.577.721.56.189-.009.409-.026.64-.056a.846.846 0 00.736-.806c.041-1.076.061-3.14-.334-3.94-.544-1.104-2.631.089-2.631.089z" fill="url(#paint5_linear_132_1747)"/><path d="M95.343 103.97c-.247-.008.1 1.278-.276 2.541-.084.285-.297.509-.594.513a7.163 7.163 0 01-.653-.02.718.718 0 01-.66-.646l-.305-3.277 2.488.889z" fill="url(#paint6_linear_132_1747)"/><path d="M88.422 69.133c.11.538 4.009 23.277 4.245 35.043a.4.4 0 00.345.39c.495.069 1.459.157 2.393-.016a.283.283 0 00.233-.259c.136-2.192 1.232-20.732-.11-29.459 0 0 11.085 23.33 12.765 29.762a.338.338 0 00.346.253c.474-.025 1.462-.11 2.246-.399a.586.586 0 00.37-.689c-.939-3.85-7.518-30.373-11.985-36.217l-10.848 1.591z" fill="#000"/><path d="M95.528 74.978a.145.145 0 00.104-.247l-1.485-1.518a.146.146 0 00-.208.203l1.485 1.518a.145.145 0 00.104.044z" fill="url(#paint7_linear_132_1747)"/><path d="M84.673 39.79c3.316-.5 9.825-1.213 14.07.032l-.46 13.122L82.9 51.286l-1.304-1.855s.604-9.27 3.076-9.642z" fill="#D3E9F8"/><path d="M92.334 32.764s.307 5.22.249 6.843c0 0-4.273.7-5.29-.032l.803-6.187 4.238-.624z" fill="url(#paint8_linear_132_1747)"/><path d="M88.18 27.537s-1.72 3.02-1.992 4.673-.746 2.693 1.14 3.236c1.887.541 3.61-.242 4.666-1.804 0 0 1.65-2.405 1.454-3.483-.196-1.079-5.268-2.622-5.268-2.622z" fill="url(#paint9_linear_132_1747)"/><path d="M91.465 32.38l-.243-.026s1.223-1.947.382-2.403c-.841-.455-4.25-1.542-4.87-2.86-.596-1.27.216-2.741 1.23-3.068a.13.13 0 01.158.079l.063.16c.044.11.199.11.244.001.043-.103.19-.111.238-.01.19.395.75 1.063 2.388 1.552 2.326.693 3.79 1.822 3.652 3.466a.132.132 0 00.191.129c.187-.088.473-.108.813.247.593.618.173 2.01-1.38 3.025-.075.049-.085.155-.017.21.24.197.584.64-.474 1.066-1.082.437-1.681.312-1.903.23a.131.131 0 01-.084-.146l.246-1.444a.131.131 0 00-.116-.152l-.518-.056z" fill="#000"/><path d="M91.373 32.678s.744-1.968 1.59-1.302c.847.665-.714 2.216-1.452 2.214l-.138-.912z" fill="url(#paint10_linear_132_1747)"/><path d="M72.949 50.054l.408-1.603a1.533 1.533 0 011.792-1.125l38.414 7.837a1.609 1.609 0 011.252 1.909l-2.342 11.1-39.524-18.118z" fill="#74FCFD"/><path d="M69.307 69.527l2.889-20.765a.742.742 0 01.897-.622l39.453 8.76a1.554 1.554 0 011.177 1.866l-3.312 14.353-41.104-3.592z" fill="#C6EEEF"/><path d="M70.349 68.586l1.107-18.534a.78.78 0 01.94-.717l39.869 8.436c.562.12.933.657.843 1.225l-2.124 13.389-40.635-3.799z" fill="#597B8E"/><path d="M67.474 72.67l2.51-20.076a1.748 1.748 0 012.06-1.501l40.881 7.716a1.527 1.527 0 011.218 1.784l-3.453 18.295a1.653 1.653 0 01-1.843 1.332l-39.632-5.293a2.025 2.025 0 01-1.741-2.258z" fill="#74FCFD"/><path d="M86.415 54.106a1.57 1.57 0 01-1.833 1.251l-9.115-1.72a1.57 1.57 0 11.582-3.085l9.115 1.72a1.57 1.57 0 011.251 1.834z" fill="#74A1BB"/><path d="M94.453 45.543l4.29-5.721s6.894 7.323 8.217 16.619l-4.3 2.097c-1.335-3.13-3.792-7.37-8.207-12.995z" fill="#D3E9F8"/><path d="M100.6 71.318c.508-.85 1.501-2.47 1.983-2.974 0 0-.441-.28-1.288-.175-.846.104-1.509-.31-1.484-.77l4.039-1.239c.181-.379.98-2.53-1.191-7.622l4.3-2.097c.496 3.48.211 7.236-1.51 10.988 0 0-1.335 4.148-2.87 5.068-4.004 2.402-2.175-.853-1.979-1.179z" fill="url(#paint11_linear_132_1747)"/><defs><linearGradient id="paint0_linear_132_1747" x1="44.388" y1="87.111" x2="57.197" y2="87.111" gradientUnits="userSpaceOnUse"><stop stop-color="#fff"/><stop offset="1"/></linearGradient><linearGradient id="paint1_linear_132_1747" x1="89.987" y1="134.906" x2="89.301" y2="152.058" gradientUnits="userSpaceOnUse"><stop stop-color="#09005D"/><stop offset="1" stop-color="#1A0F91"/></linearGradient><linearGradient id="paint2_linear_132_1747" x1="90.93" y1="110.512" x2="90.93" y2="72.23" gradientUnits="userSpaceOnUse"><stop stop-color="#09005D"/><stop offset="1" stop-color="#1A0F91"/></linearGradient><linearGradient id="paint3_linear_132_1747" x1="109.78" y1="135.698" x2="109.094" y2="152.85" gradientUnits="userSpaceOnUse"><stop stop-color="#09005D"/><stop offset="1" stop-color="#1A0F91"/></linearGradient><linearGradient id="paint4_linear_132_1747" x1="110.874" y1="110.512" x2="110.874" y2="72.23" gradientUnits="userSpaceOnUse"><stop stop-color="#09005D"/><stop offset="1" stop-color="#1A0F91"/></linearGradient><linearGradient id="paint5_linear_132_1747" x1="111.161" y1="105.248" x2="108.175" y2="105.248" gradientUnits="userSpaceOnUse"><stop stop-color="#FEBBBA"/><stop offset="1" stop-color="#FF928E"/></linearGradient><linearGradient id="paint6_linear_132_1747" x1="95.343" y1="105.053" x2="92.855" y2="105.053" gradientUnits="userSpaceOnUse"><stop stop-color="#FEBBBA"/><stop offset="1" stop-color="#FF928E"/></linearGradient><linearGradient id="paint7_linear_132_1747" x1="89.155" y1="66.794" x2="99.341" y2="79.962" gradientUnits="userSpaceOnUse"><stop stop-color="#CB236D"/><stop offset="1" stop-color="#4C246D"/></linearGradient><linearGradient id="paint8_linear_132_1747" x1="90.148" y1="42.402" x2="89.759" y2="35.14" gradientUnits="userSpaceOnUse"><stop stop-color="#FEBBBA"/><stop offset="1" stop-color="#FF928E"/></linearGradient><linearGradient id="paint9_linear_132_1747" x1="87.59" y1="30.295" x2="94.826" y2="37.177" gradientUnits="userSpaceOnUse"><stop stop-color="#FEBBBA"/><stop offset="1" stop-color="#FF928E"/></linearGradient><linearGradient id="paint10_linear_132_1747" x1="88.706" y1="29.122" x2="95.941" y2="36.004" gradientUnits="userSpaceOnUse"><stop stop-color="#FEBBBA"/><stop offset="1" stop-color="#FF928E"/></linearGradient><linearGradient id="paint11_linear_132_1747" x1="105.953" y1="60.495" x2="125.437" y2="29.486" gradientUnits="userSpaceOnUse"><stop stop-color="#FEBBBA"/><stop offset="1" stop-color="#FF928E"/></linearGradient></defs></svg>