<svg width="139" height="131" fill="none" xmlns="http://www.w3.org/2000/svg"><path opacity=".3" d="M41.641 24.594a.526.526 0 01.62.332c.203.559.384 1.136.538 1.712a.526.526 0 01-.372.645l-.01.003a.526.526 0 01-.634-.375 20.013 20.013 0 00-.51-1.627.526.526 0 01.368-.69zm1.068 4.458a.526.526 0 01.65.445c.074.593.123 1.195.147 1.788a.526.526 0 11-1.052.042 20.072 20.072 0 00-.14-1.698.527.527 0 01.395-.577zm.06 4.584a.526.526 0 01.65.563c-.06.593-.145 1.19-.255 1.776a.527.527 0 01-1.034-.194c.104-.556.186-1.124.242-1.687a.527.527 0 01.397-.459zm-.967 4.482a.526.526 0 01.625.68c-.19.564-.408 1.127-.646 1.674a.527.527 0 01-.965-.42c.226-.519.433-1.054.614-1.591a.527.527 0 01.372-.343zm-1.942 4.154a.526.526 0 01.576.786c-.31.507-.647 1.008-1 1.489a.526.526 0 11-.849-.623c.336-.458.656-.934.95-1.416a.525.525 0 01.323-.236zm-2.812 3.62a.526.526 0 01.504.879c-.415.427-.855.841-1.305 1.231a.526.526 0 11-.689-.796c.428-.37.845-.764 1.24-1.17a.525.525 0 01.25-.143zm-18.42 5.849a.527.527 0 01.223-.007c.556.104 1.124.184 1.688.24a.526.526 0 11-.103 1.047 21.04 21.04 0 01-1.778-.252.526.526 0 01-.03-1.028zm14.877-2.943a.526.526 0 01.413.953 21 21 0 01-1.546.91.527.527 0 01-.494-.93c.5-.265.993-.556 1.468-.863a.522.522 0 01.16-.07zm-10.304 3.268a.518.518 0 01.105-.015 20.215 20.215 0 001.7-.143.527.527 0 01.132 1.044c-.592.075-1.193.126-1.788.15a.527.527 0 01-.149-1.036zm6.202-1.226a.526.526 0 01.306 1.006 21 21 0 01-1.722.543.526.526 0 01-.263-1.019c.547-.148 1.093-.32 1.625-.514a.676.676 0 01.054-.016zm-14.332-.101a.53.53 0 01.314.019c.253.097.513.19.772.277a.526.526 0 11-.336.998 20.19 20.19 0 01-.811-.292.526.526 0 01.061-1.002zM3.511 39.612a.527.527 0 01.61.305c.106.25.22.502.337.748a.526.526 0 11-.952.45 20.88 20.88 0 01-.353-.787.526.526 0 01.358-.716zM17.43 11.696c.236-.058.473-.112.711-.163a.526.526 0 11.218 1.03c-.55.117-1.096.256-1.626.415a.526.526 0 11-.303-1.008c.329-.099.665-.19 1-.274zm3.462-.552a.513.513 0 01.089-.014 21.07 21.07 0 011.765-.055.526.526 0 11-.011 1.052c-.557-.006-1.12.012-1.677.053a.526.526 0 01-.166-1.036zm-7.052 1.804a.526.526 0 01.344.99c-.505.23-1.008.486-1.494.76a.527.527 0 01-.517-.916 20.994 20.994 0 011.574-.802.524.524 0 01.093-.032zm11.562-1.636a.526.526 0 01.204-.01c.58.087 1.164.2 1.734.335a.526.526 0 11-.242 1.024 20.019 20.019 0 00-1.647-.317.526.526 0 01-.049-1.032zm-15.43 3.953a.527.527 0 01.445.93c-.443.336-.877.696-1.29 1.07a.526.526 0 11-.707-.78c.436-.395.893-.774 1.359-1.128a.528.528 0 01.192-.092zm-3.267 3.11a.527.527 0 01.53.849c-.36.426-.705.873-1.027 1.327a.526.526 0 11-.859-.609c.339-.478.702-.948 1.08-1.396a.521.521 0 01.276-.172zm-2.511 3.747a.526.526 0 01.593.755 20.312 20.312 0 00-.713 1.518.526.526 0 11-.97-.407c.226-.54.478-1.078.75-1.598a.524.524 0 01.34-.268zM2.56 26.327a.526.526 0 01.634.646 20.12 20.12 0 00-.362 1.638.526.526 0 11-1.036-.184c.102-.577.23-1.157.382-1.725a.526.526 0 01.382-.375zm-.67 4.464a.528.528 0 01.652.53c-.02.557-.018 1.12.008 1.677a.527.527 0 01-1.051.05c-.028-.587-.03-1.18-.008-1.766a.524.524 0 01.399-.49zm.325 4.498l.032-.007a.527.527 0 01.613.423 20.699 20.699 0 00.371 1.637.526.526 0 01-.37.645.52.52 0 01-.646-.37c-.04-.15-.08-.3-.117-.453a21.456 21.456 0 01-.273-1.27.526.526 0 01.39-.605zm27.561-22.816a.522.522 0 01.316.02c.266.104.535.214.798.329a.526.526 0 11-.42.964 21.226 21.226 0 00-.758-.312.526.526 0 01.064-1.001z" fill="#91B3FA"/><path d="M30.553 18.57a.247.247 0 00-.286-.008l-2.48 1.678a13.044 13.044 0 00-4.092-1.051l-1.365-2.662a.246.246 0 00-.253-.131l-3.555.506a.246.246 0 00-.207.197l-.567 2.938a13.051 13.051 0 00-3.635 2.152l-2.85-.918a.246.246 0 00-.272.086L8.835 24.23a.246.246 0 00-.007.286l1.678 2.48a13.044 13.044 0 00-1.05 4.092l-2.663 1.365a.246.246 0 00-.131.254l.506 3.554a.246.246 0 00.197.207l2.938.567a13.042 13.042 0 002.152 3.636l-.918 2.849c-.032.1.002.209.086.272l2.873 2.156a.247.247 0 00.285.007l2.48-1.678c1.28.562 2.659.924 4.092 1.05l1.365 2.663c.048.093.15.146.254.131l3.554-.506a.246.246 0 00.207-.197l.567-2.938a13.052 13.052 0 003.636-2.152l2.849.918c.1.032.21-.002.272-.086l2.156-2.873a.246.246 0 00.007-.285l-1.678-2.48c.562-1.28.924-2.659 1.051-4.092l2.662-1.365a.246.246 0 00.131-.254l-.506-3.554a.246.246 0 00-.197-.207l-2.938-.567a13.052 13.052 0 00-2.152-3.636l.918-2.849a.246.246 0 00-.086-.272l-2.872-2.156z" fill="#74FCFD"/><path d="M21.66 28.753a3.615 3.615 0 014.204 2.136 3.614 3.614 0 01-1.971 4.709 3.583 3.583 0 01-2.763-.01 3.584 3.584 0 01-1.946-1.962 3.614 3.614 0 012.476-4.873zm1.523 6.193a2.77 2.77 0 001.902-3.738 2.77 2.77 0 00-3.61-1.512 2.77 2.77 0 00-1.511 3.61c.28.685.81 1.219 1.492 1.504a2.745 2.745 0 001.727.136z" fill="#fff"/><path d="M20.336 23.71a9.014 9.014 0 012.603-.254l.02.002.055.003.106.007a.21.21 0 11-.03.42 8.454 8.454 0 00-8.308 4.955 8.4 8.4 0 00-.501 5.526 8.39 8.39 0 003.129 4.715 8.4 8.4 0 006.267 1.608c4.617-.659 7.835-4.948 7.177-9.563A8.426 8.426 0 0029.055 27a.21.21 0 01.03-.296.21.21 0 01.298.032 8.851 8.851 0 011.888 4.334c.69 4.845-2.69 9.349-7.534 10.04a8.816 8.816 0 01-6.58-1.689 8.809 8.809 0 01-3.459-5.846 8.817 8.817 0 011.688-6.58 8.802 8.802 0 014.95-3.286z" fill="#fff"/><path opacity=".3" d="M55.745 6.818a.324.324 0 01.358.152c.14.238.273.484.397.73a.325.325 0 01-.58.293 13.21 13.21 0 00-.379-.696.326.326 0 01.204-.48zM56.8 9.084c.16-.04.328.047.384.206a14.002 14.002 0 01.483 1.661c.04.176-.082.345-.246.39a.325.325 0 01-.389-.246 13.25 13.25 0 00-.46-1.585.325.325 0 01.229-.426zm.742 3.293a.325.325 0 01.402.283c.057.573.08 1.155.066 1.729a.325.325 0 01-.65-.016 13.403 13.403 0 00-.063-1.649.325.325 0 01.245-.348zm-.08 3.374a.325.325 0 01.4.364 13.937 13.937 0 01-.362 1.693.325.325 0 11-.626-.175c.148-.529.263-1.072.344-1.614a.326.326 0 01.244-.268zm-.907 3.251a.325.325 0 01.377.44 14.09 14.09 0 01-.763 1.554.325.325 0 01-.565-.323c.272-.475.517-.974.729-1.48a.327.327 0 01.222-.19zm-1.673 2.931a.324.324 0 01.339.51c-.345.461-.72.905-1.118 1.32a.325.325 0 11-.47-.45c.38-.395.738-.82 1.067-1.26a.326.326 0 01.182-.12zM52.55 24.37a.324.324 0 01.283.568c-.446.363-.92.702-1.406 1.007a.325.325 0 01-.345-.551c.464-.29.915-.614 1.34-.96a.338.338 0 01.128-.064zm-2.86 1.79a.326.326 0 01.215.61c-.52.243-1.062.455-1.61.632a.325.325 0 01-.2-.62c.523-.168 1.04-.37 1.535-.601a.368.368 0 01.06-.02zm-4.89 1.252a.346.346 0 01.057-.009 13.497 13.497 0 001.638-.21.325.325 0 01.38.257.322.322 0 01-.257.381l-.224.041c-.494.087-.997.148-1.493.18a.325.325 0 01-.1-.64zM40.415.462a.326.326 0 01.16.63 13.46 13.46 0 00-1.542.504.325.325 0 01-.24-.604 14.148 14.148 0 011.622-.53zm1.632-.323a14.219 14.219 0 011.732-.135.326.326 0 01.01.65c-.539.009-1.084.05-1.619.123a.325.325 0 01-.123-.638zm-4.718 1.544a.326.326 0 01.234.601c-.475.26-.937.55-1.375.863a.325.325 0 11-.378-.53 14 14 0 011.442-.903.306.306 0 01.077-.03zM45.367.09a.314.314 0 01.113-.007c.563.06 1.128.156 1.68.285a.326.326 0 01-.148.633A13.378 13.378 0 0045.41.728a.325.325 0 01-.044-.638zM34.632 3.614a.325.325 0 01.298.555 13.4 13.4 0 00-1.13 1.168.325.325 0 11-.494-.422c.368-.43.766-.843 1.182-1.225a.318.318 0 01.142-.076zm-2.158 2.522a.325.325 0 01.349.496c-.299.45-.574.923-.815 1.404a.325.325 0 11-.58-.292c.253-.505.54-1 .854-1.473a.322.322 0 01.192-.135zm-1.49 2.967a.325.325 0 01.384.426 13.33 13.33 0 00-.456 1.559.325.325 0 01-.635-.145c.125-.55.285-1.1.477-1.634a.327.327 0 01.23-.206zM48.615.85a.327.327 0 01.19.01c.262.096.52.2.772.31a.325.325 0 11-.26.596 13.69 13.69 0 00-.736-.295.325.325 0 01.034-.621z" fill="#91B3FA"/><path d="M49.362 4.99a.165.165 0 00-.191-.004L47.51 6.11a8.734 8.734 0 00-2.737-.703l-.913-1.782a.164.164 0 00-.17-.088l-2.379.34a.165.165 0 00-.139.131l-.379 1.966c-.897.35-1.715.84-2.432 1.44L36.454 6.8a.164.164 0 00-.182.058L34.83 8.779a.164.164 0 00-.005.19l1.123 1.66a8.735 8.735 0 00-.703 2.738l-1.782.913a.165.165 0 00-.088.17l.34 2.379c.01.07.062.125.131.138l1.966.379c.35.897.84 1.715 1.44 2.433l-.614 1.907a.164.164 0 00.058.182l1.922 1.442a.164.164 0 00.19.005l1.66-1.123a8.72 8.72 0 002.738.703l.913 1.782c.032.063.1.098.17.088l2.378-.34a.164.164 0 00.139-.13l.379-1.966a8.729 8.729 0 002.432-1.441l1.907.614a.164.164 0 00.182-.058l1.443-1.921a.165.165 0 00.005-.191l-1.123-1.66a8.749 8.749 0 00.704-2.738l1.781-.913a.165.165 0 00.088-.17l-.339-2.379a.165.165 0 00-.132-.138l-1.965-.38a8.732 8.732 0 00-1.44-2.432l.613-1.907a.164.164 0 00-.058-.182l-1.921-1.442z" fill="#74FCFD"/><path d="M43.404 11.762a2.438 2.438 0 011.535.12 2.442 2.442 0 011.325 1.337 2.462 2.462 0 01-1.342 3.207 2.462 2.462 0 01-3.208-1.343 2.443 2.443 0 01.007-1.882 2.442 2.442 0 011.683-1.439zm1.019 4.144a1.812 1.812 0 001.24-2.442 1.795 1.795 0 00-.975-.982 1.8 1.8 0 00-1.384-.005 1.8 1.8 0 00-.983.975 1.799 1.799 0 00-.005 1.384 1.812 1.812 0 002.107 1.07z" fill="#fff"/><path d="M42.487 8.25a6.246 6.246 0 011.858-.168l.056.004a.325.325 0 11-.046.648 5.483 5.483 0 00-1.164.042l-.064.01a5.42 5.42 0 00-3.512 2.084l-.007.009-.022.03a5.436 5.436 0 00-1.041 4.057 5.432 5.432 0 002.133 3.605 5.437 5.437 0 004.057 1.041 5.444 5.444 0 003.605-2.132 5.436 5.436 0 00.935-4.603 5.451 5.451 0 00-1.058-2.127.326.326 0 01.505-.41 6.103 6.103 0 011.303 2.99 6.083 6.083 0 01-1.165 4.54 6.076 6.076 0 01-4.033 2.386 6.081 6.081 0 01-4.54-1.165 6.077 6.077 0 01-2.386-4.033 6.132 6.132 0 014.586-6.807z" fill="#fff"/><path d="M87.793 106.32l26.034-49.876h-5.334c-.984 0-1.524-1.144-.901-1.904l27.748-33.82c1.203-1.465 3.578-.536 3.467 1.356l-1.951 33.071a3.305 3.305 0 01-3.675 3.089l-3.719-.426-25.831 55.942a4.115 4.115 0 01-3.735 2.388h-8.953l-3.15-9.821z" fill="#000"/><path d="M66.268 71.34l18.38 40.828a6.739 6.739 0 006.146 3.973h9.475a3.46 3.46 0 003.026-1.781l.337-.607a2.71 2.71 0 01-2.413-1.478L76.73 64.293l-10.462 7.046z" fill="#000"/><path d="M79.203 69.14a4.02 4.02 0 00-5.837.927l-27.024 40.6a11.673 11.673 0 01-9.718 5.206h-3.802l-3.095-8.915s25.123-38.52 31.598-44.347c0 0 6.448-5.812 12.806-1.418 1.68 1.161 2.955 2.818 3.734 4.705l1.338 3.241z" fill="#000"/><path d="M.335 82.983s4.524-5.655 13.29-6.534c0 0 4.163 1.418 12.457 16.28 8.294 14.863 13.8 21.64 20.26 17.938l-.535.888a9.743 9.743 0 01-8.346 4.717h-3.573c-3.934 0-7.35-6.06-9.647-9.253C17.785 98.045 4.3 84.375.335 82.983z" fill="#000"/><path d="M135.676 32.527l-.029-.001a.25.25 0 01-.22-.278l.183-1.614a.249.249 0 01.277-.221.25.25 0 01.22.277l-.183 1.615a.25.25 0 01-.248.222zM112.513 52.91a.25.25 0 01-.199-.402l22.913-29.772a.934.934 0 011.113-.303c.408.165.64.554.59.991l-.405 3.57a.25.25 0 11-.497-.057l.404-3.57a.438.438 0 00-.28-.47.44.44 0 00-.529.144l-22.912 29.772a.25.25 0 01-.198.098zm-51.98 31.211a.25.25 0 01-.207-.39l11.85-17.565a2.062 2.062 0 011.883-.912c.755.057 1.4.5 1.724 1.185a.25.25 0 11-.453.214 1.563 1.563 0 00-1.31-.9 1.56 1.56 0 00-1.429.693L60.741 84.01a.252.252 0 01-.208.11z" fill="#BDD0FB"/><path d="M57.454 88.686a.25.25 0 01-.208-.39l.76-1.127a.25.25 0 01.415.28l-.76 1.126a.248.248 0 01-.207.111z" fill="#fff"/><path d="M61.595 123.665s-.331 1.878-.494 3.738a1.28 1.28 0 001.225 1.388c2.477.103 7.775.304 9.676.219a.417.417 0 00.367-.571.929.929 0 00-.478-.502l-8.75-4.022-1.546-.25z" fill="url(#paint0_linear_133_2001)"/><path d="M61.324 122.56l.267 2.248s1.532.713 2.579-.09l-.635-2.504-2.211.346z" fill="url(#paint1_linear_133_2001)"/><path d="M61.524 80.312c-.115.587-.618 29.285 2.45 42.146a.437.437 0 01-.256.508 7.611 7.611 0 01-2.499.507.752.752 0 01-.746-.539c-.877-2.984-5.078-17.934-5.626-32.216-.613-15.958 0-.543 0-.543l.359-9.864 6.318.001z" fill="#000"/><path d="M51.529 124.645s-.528.948-1.04 3.468a.783.783 0 00.688.937c.818.08 2.077.184 3.085.177a.78.78 0 00.772-.87c-.112-.92-.46-2.429-1.535-3.606l-1.97-.106z" fill="url(#paint2_linear_133_2001)"/><path d="M51.065 121.754l.623 3.399s.616.458 1.834.126l-.297-3.657-2.16.132z" fill="url(#paint3_linear_133_2001)"/><path d="M49.382 81.193c-2.509 15.141.544 37.424 1.574 41.785a.68.68 0 00.549.516c.46.077 1.216.138 1.962-.078a.625.625 0 00.448-.574c.138-3.526-.11-25.17 2.228-33.725.118-.434.383-.812.75-1.072l4.536-3.226.349-5.214-12.396 1.588z" fill="#000"/><path d="M65.37 52.502c-7.52-.124-15.816 1.974-15.816 1.974-2.24 13.078-.392 28.161-.392 28.161 5.821 1.527 12.388-.933 12.388-.933.967-5.466 5.48-20.85 5.48-20.85 3.674-.455 6.7-1.515 9.193-2.917-1.901-2.203-2.797-5.007-3.187-6.664-2.658.826-5.348 1.267-7.667 1.23z" fill="#597B8E"/><path d="M87.578 41.427c-.738-.892-1.673-.47-1.673-.47-1.107 4.673-6.908 8.463-12.869 10.315.39 1.658 1.286 4.462 3.187 6.665 9.892-5.561 11.355-16.51 11.355-16.51z" fill="url(#paint4_linear_133_2001)"/><path d="M87.4 41.654c.077.246-.819.62-1.346-.385-.018-.482-.31-2.545-.023-2.937 1.533-2.09 4.504-4.709 4.504-4.709.502.496.089.982.089.982l-1.442 1.502c.302.545.67 1.005.842 1.664.13.499.05 1.032-.202 1.486a17.932 17.932 0 01-.924 1.513c-.618.877-1.499.884-1.499.884z" fill="url(#paint5_linear_133_2001)"/><path d="M88.552 37.081l-1.314 1.113-.412 1.11 1.171 1.298s.394-2.2.687-2.676c.292-.475.14-.706-.132-.845z" fill="url(#paint6_linear_133_2001)"/><path d="M52.438 61.756l-2.884-7.28s-7.023 4.772-8.178 10.822c1.327.098 3.742.443 6.105 1.636.52-2.856 4.957-5.178 4.957-5.178z" fill="#FF928E"/><path d="M58.575 68.607s-7.885 4.456-10.545.651c-.553-.79-.685-1.575-.549-2.324-2.364-1.193-4.778-1.538-6.105-1.636-.348 1.824-.164 3.764.908 5.725 4.66 8.525 17.335-.471 17.335-.471l-1.044-1.945z" fill="url(#paint7_linear_133_2001)"/><path d="M57.627 74.245l4.304-15.029a.438.438 0 01.37-.315c.78-.091 3.04-.347 5.648-.567 3.142-.266 6.791-.481 8.971-.298a.44.44 0 01.36.633c-1.24 2.509-6.34 12.713-8.895 16.056a.44.44 0 01-.355.174l-9.984-.093a.44.44 0 01-.419-.561z" fill="#C6EEEF"/><path d="M68.395 57.031l3.12-.52a.224.224 0 01.25.291l-.309.936a.223.223 0 01-.183.152l-3.002.4a.224.224 0 01-.248-.272l.191-.817a.225.225 0 01.181-.17z" fill="#74A1BB"/><path d="M66.06 59.672l.256-1.338a.309.309 0 01.273-.25l6.301-.639a.31.31 0 01.332.38l-.4 1.668a.31.31 0 01-.286.237l-6.158.31a.31.31 0 01-.319-.367z" fill="#74A1BB"/><path d="M58.667 70.614s-.6-2.465-.357-3.34c.241-.874.71-1.999 2.272-1.749 1.561.25 3.403.908 3.403.908s-.093 1.139-1.28.771l.736.57s-.105.912-1.107.424l.684.756s-.43.749-1.168.269c-.737-.48-1.09 1.688-3.183 1.39z" fill="url(#paint8_linear_133_2001)"/><path d="M57.753 46.398l-2.392 6.918a.25.25 0 00.113.3c.653.361 3.002 1.403 5.834-.392.294-.187.495-.492.54-.838l.775-5.988h-4.87z" fill="url(#paint9_linear_133_2001)"/><path d="M61.573 38.918c.094.089 3.947 7.656 3.947 7.656l-4.368 2.108-4.718-6.63s3.573-4.608 5.139-3.134z" fill="url(#paint10_linear_133_2001)"/><path d="M58.367 42.236a.698.698 0 00.052.612l2.178 3.631a.675.675 0 00.12.149c.259.24 1.146.943 1.832-.013.585-.815 1.133-1.555 1.721-1.86a.697.697 0 01.94.309c.36.711 1.054 2.16 1.491 3.536a.693.693 0 01-.403.85c-.885.359-2.633 1.007-4.184 1.22a.696.696 0 01-.658-.28c-.668-.914-2.548-3.469-3.19-4.108-.596-.594-1.697-.37-2.193-.227a.702.702 0 01-.557-.073c-.503-.303-1.381-1.058-.578-2.336a.697.697 0 00-.215-.947c-.562-.37-1.171-1.063-.59-2.186.587-1.138 1.638-1.24 2.353-1.152a.723.723 0 00.759-.422.46.46 0 01.36-.283.676.676 0 00.546-.794c-.126-.644-.03-1.48.996-2.045 1.885-1.036 3.536.652 3.955 2.078.42 1.425-1.687 2.432-3.013 2.6-.973.123-1.508 1.185-1.722 1.74z" fill="#000"/><path d="M59.083 47.616s-.838-2.452-1.91-2.362c-1.073.09-1.918 1.158-.588 2.36 1.654 1.494 2.498.002 2.498.002z" fill="url(#paint11_linear_133_2001)"/><path d="M37.563 43.56s-1.954.95-2.313 2.042c-.289.876-2.45.989-2.663 2.712-.11.89-.768 1.601-1.654 1.737-2.207.339-5.607 1.484-6.152 5.316-.415 2.924 1.076 4.033 2.64 4.416 1.15.282 1.913 1.4 1.68 2.56-.222 1.112.11 2.399 2.038 3.416 4.32 2.28 8.633-5.4 8.633-5.4l.885-13.409-3.094-3.39z" fill="#000"/><path d="M19.807 127.637l-.28 2.298a.948.948 0 01-.833.83c-.736.084-1.918.171-3.075.048a.813.813 0 01-.683-1.054c.282-.887.798-2.219 1.541-3.002h2.55c.472 0 .837.412.78.88z" fill="url(#paint12_linear_133_2001)"/><path d="M39.773 100.717l.43 2.531s-1.44 14.595-1.697 20.433a4.57 4.57 0 00.678 2.6l2.505 4.069-6.368-3.758-.126-.777 1.042-1.433-1.365-16.349a5.017 5.017 0 01.57-2.775l1.318-2.474 3.013-2.067z" fill="url(#paint13_linear_133_2001)"/><path d="M42.108 130.939h-2.032a1.22 1.22 0 01-.97-.476c-.634-.823-1.947-2.429-2.574-2.471-.845-.056-.737 2.947-.737 2.947h-.474l-.6-3.732a2.209 2.209 0 011.16-2.309s.193 1.428 1.24 2.06c1.047.632 4.261 2.894 4.261 2.894s.393-.056.826.022c.641.116.551 1.065-.1 1.065z" fill="url(#paint14_linear_133_2001)"/><path d="M31.052 101.92s-8.441 16.011-9.783 19.667c-1.342 3.655-1.812 6.705-1.83 6.994-.028.451-.59.884-2.137.884-.798 0-1.189-.32-1.38-.63a.9.9 0 01-.035-.873c.488-.989 2.038-4.147 2.612-5.579.685-1.71 2.16-9.46 2.968-12.154.808-2.695 1.721-5.618 5.241-8.31 0 .001 2.417-2.366 4.344.001z" fill="url(#paint15_linear_133_2001)"/><path d="M36.384 75.683c2.178-9.226-3.338-14.445-3.338-14.445 3.48-3.34 9.822-4.86 9.822-4.86s6.05 4.423 5.333 7.886c-.421 2.03-4.254 12.156-4.254 12.156s-3.544 1.677-7.563-.737z" fill="#000"/><path d="M31.557 80.25c.886-2.668 4.827-4.567 4.827-4.567 4.02 2.414 7.563.737 7.563.737s.795 3.037.246 5.86c-.548 2.824-3.99 20.968-3.99 20.968-5.423 1.099-13.763-1.105-13.763-1.105 3.455-6.133 4.23-19.222 5.117-21.892z" fill="#C6EEEF"/><path d="M38.912 50.28l-1.77 7.951c-.17.701.469.586 1.177.453 1.16-.219 2.654-.67 3.154-1.572a.858.858 0 00.09-.3l.761-5.513a.99.99 0 00-.58-1.042l-1.467-.65a.991.991 0 00-1.365.673z" fill="url(#paint16_linear_133_2001)"/><path d="M33.045 61.238s-12.355 8.84-1.58 18.129c0 0 .411.465 1.22.706.407.123 1.615 1.036 2.226 1.512a.42.42 0 00.614-.11.573.573 0 00.032-.55l-1.53-3.234a1.18 1.18 0 00-1.532-.067.582.582 0 01-.883-.2c-.832-1.696-2.406-6.686 4.032-12.324a.697.697 0 00.155-.847c-.452-.87-1.487-2.595-2.754-3.015z" fill="url(#paint17_linear_133_2001)"/><path d="M42.302 43.031s1.885 1.276 2.695 4.525c.81 3.25-.506 4.414-1.856 4.343-1.349-.072-3.305-.489-5-2.82-1.694-2.33 1.692-7.607 4.161-6.048z" fill="url(#paint18_linear_133_2001)"/><path d="M39.85 47.769s-.69-4.656 3.175-3.944l.782.814s1.891-2.13-.203-3.74c-2.093-1.611-4.998-1.199-6.606 1.733-1.607 2.932-2.19 4.993-.843 6.814 1.347 1.822 2.36.26 2.36.26s-.617-1.577-.104-2.254c.512-.677 1.174.394 1.174.394l.266-.077z" fill="#000"/><path d="M39.322 48.167s-.34-2.395-1.564-1.71c-1.223.685.441 2.237 1.108 2.766l.456-1.056z" fill="url(#paint19_linear_133_2001)"/><path d="M67.475 19.889c3.028-7.987 19.497-9.266 21.683 2.472 1.991 10.693-19.68 14.16-19.68 14.16 11.373-5.974-5.032-8.646-2.003-16.632z" fill="#C6EEEF"/><path d="M85.937 21.688l-9.813-.107a.13.13 0 01-.128-.131.13.13 0 01.132-.13l9.812.107a.13.13 0 01.129.132.13.13 0 01-.132.129zM73.21 21.55l-2.91-.032a.13.13 0 01-.13-.131.13.13 0 01.132-.13l2.912.032a.13.13 0 01.129.132.13.13 0 01-.132.128zm13.036 2.128l-3.685-.04a.13.13 0 01-.128-.132.13.13 0 01.131-.129l3.685.04a.13.13 0 01.129.132.13.13 0 01-.132.129zm-9.091-.098l-6.547-.072a.13.13 0 01-.128-.132.13.13 0 01.131-.128l6.547.07a.13.13 0 01.129.133.13.13 0 01-.132.128zm9.4 2.088l-9.795-.106a.13.13 0 01-.128-.132.13.13 0 01.131-.129l9.795.107a.13.13 0 01.128.131.13.13 0 01-.131.129zm-12.247-.133l-3.39-.037a.13.13 0 01-.13-.132.13.13 0 01.132-.128l3.391.037a.13.13 0 01-.003.26z" fill="#fff"/><path d="M119.066 93.734c8.122 0 14.705-6.584 14.705-14.706 0-8.121-6.583-14.705-14.705-14.705-8.121 0-14.705 6.584-14.705 14.706 0 8.121 6.584 14.705 14.705 14.705z" fill="#597B8E"/><path d="M119.066 93.244c7.852 0 14.216-6.365 14.216-14.216 0-7.851-6.364-14.216-14.216-14.216-7.851 0-14.216 6.365-14.216 14.216 0 7.851 6.365 14.216 14.216 14.216z" fill="#74A1BB"/><path opacity=".78" d="M107.344 73.45a.326.326 0 01-.291-.473 13.395 13.395 0 0112.014-7.398c.815 0 1.631.073 2.426.219a.327.327 0 01-.117.641 12.903 12.903 0 00-2.31-.208 12.745 12.745 0 00-11.431 7.039.326.326 0 01-.291.18z" fill="#fff"/><path opacity=".78" d="M127.882 87.846c4.699-4.699 4.699-12.317 0-17.015-4.699-4.7-12.317-4.7-17.016 0-4.699 4.698-4.699 12.316 0 17.015s12.317 4.699 17.016 0z" fill="#fff"/><path d="M118.196 88.283v-1.31c-1.365-.054-2.715-.376-3.674-.796a.758.758 0 01-.418-.894l.333-1.22a.763.763 0 011.036-.5c.951.4 2.125.715 3.391.715 1.315 0 2.295-.446 2.295-1.359 0-.824-.757-1.314-2.584-1.804-2.606-.714-4.478-1.85-4.478-4.144 0-2.072 1.515-3.654 4.144-4.077v-1.31c0-.42.341-.762.763-.762h.769c.421 0 .763.341.763.763v1.175c1.262.05 2.182.266 2.911.523a.76.76 0 01.474.916l-.306 1.127a.76.76 0 01-1.004.514 7.945 7.945 0 00-2.855-.519c-1.559 0-2.005.646-2.005 1.225 0 .713.935 1.203 2.963 1.827 2.896.869 4.099 2.072 4.099 4.233 0 1.983-1.471 3.765-4.322 4.21v1.466a.763.763 0 01-.763.763h-.77a.76.76 0 01-.762-.762zm15.096 14.752h-28.451a.182.182 0 01-.181-.181v-5.127c0-.1.081-.18.181-.18h28.451c.1 0 .181.08.181.18v5.127c0 .1-.081.181-.181.181zm.023 6.517h-28.451a.181.181 0 01-.181-.181v-5.127c0-.1.081-.181.181-.181h28.451c.1 0 .181.082.181.181v5.127c0 .1-.081.181-.181.181zm.022 6.517h-28.451a.181.181 0 01-.181-.181v-5.126c0-.1.081-.181.181-.181h28.451c.1 0 .181.081.181.181v5.126a.18.18 0 01-.181.181zm.023 6.517h-28.451a.181.181 0 01-.181-.181v-5.126c0-.1.081-.181.181-.181h28.451c.1 0 .181.081.181.181v5.126a.18.18 0 01-.181.181zm.022 6.518h-28.451a.181.181 0 01-.181-.181v-5.126c0-.101.082-.181.181-.181h28.451a.18.18 0 01.181.181v5.126c0 .1-.08.181-.181.181z" fill="#74A1BB"/><path d="M86.825 107.95c8.122 0 14.706-6.584 14.706-14.706 0-8.121-6.584-14.705-14.706-14.705-8.121 0-14.705 6.584-14.705 14.705 0 8.122 6.584 14.706 14.705 14.706z" fill="#597B8E"/><path d="M86.825 107.46c7.852 0 14.216-6.364 14.216-14.216 0-7.85-6.364-14.216-14.216-14.216-7.851 0-14.216 6.365-14.216 14.216 0 7.852 6.365 14.216 14.216 14.216z" fill="#74A1BB"/><path opacity=".78" d="M75.103 87.665a.326.326 0 01-.29-.473 13.393 13.393 0 0112.013-7.397c.815 0 1.631.074 2.426.219a.326.326 0 01-.117.642 12.93 12.93 0 00-2.31-.208 12.74 12.74 0 00-11.43 7.039.326.326 0 01-.292.178z" fill="#fff"/><path opacity=".78" d="M95.641 102.062c4.699-4.699 4.699-12.317 0-17.016-4.699-4.698-12.317-4.698-17.016 0-4.698 4.7-4.698 12.317 0 17.016 4.7 4.699 12.317 4.699 17.016 0z" fill="#fff"/><path d="M85.955 102.499v-1.309c-1.365-.055-2.715-.377-3.674-.796a.758.758 0 01-.418-.895l.333-1.22a.764.764 0 011.036-.499c.95.399 2.125.714 3.391.714 1.315 0 2.295-.446 2.295-1.359 0-.824-.757-1.314-2.584-1.804-2.606-.713-4.478-1.849-4.478-4.144 0-2.071 1.515-3.653 4.144-4.076V85.8c0-.421.342-.763.763-.763h.769c.421 0 .763.342.763.763v1.175c1.262.05 2.182.267 2.91.523a.759.759 0 01.475.916l-.306 1.127a.76.76 0 01-1.004.514 7.945 7.945 0 00-2.855-.519c-1.56 0-2.005.646-2.005 1.226 0 .713.935 1.202 2.963 1.827 2.896.868 4.099 2.072 4.099 4.232 0 1.983-1.47 3.765-4.322 4.211v1.465a.763.763 0 01-.763.763h-.769a.762.762 0 01-.763-.762zm16.144 13.57h-28.45a.18.18 0 01-.182-.181v-5.126c0-.1.082-.181.181-.181H102.1a.18.18 0 01.181.181v5.126a.18.18 0 01-.181.181zm.023 6.518h-28.45a.18.18 0 01-.182-.181v-5.126a.18.18 0 01.181-.181h28.451a.18.18 0 01.181.181v5.126c0 .1-.081.181-.181.181zm.023 6.517H73.694a.18.18 0 01-.181-.181v-5.126a.18.18 0 01.18-.181h28.452c.1 0 .181.081.181.181v5.126c0 .1-.081.181-.181.181z" fill="#74A1BB"/><defs><linearGradient id="paint0_linear_133_2001" x1="71.725" y1="121.068" x2="39.68" y2="155.924" gradientUnits="userSpaceOnUse"><stop stop-color="#09005D"/><stop offset="1" stop-color="#1A0F91"/></linearGradient><linearGradient id="paint1_linear_133_2001" x1="61.324" y1="123.656" x2="64.17" y2="123.656" gradientUnits="userSpaceOnUse"><stop stop-color="#FEBBBA"/><stop offset="1" stop-color="#FF928E"/></linearGradient><linearGradient id="paint2_linear_133_2001" x1="64.536" y1="114.459" x2="32.491" y2="149.315" gradientUnits="userSpaceOnUse"><stop stop-color="#09005D"/><stop offset="1" stop-color="#1A0F91"/></linearGradient><linearGradient id="paint3_linear_133_2001" x1="51.065" y1="123.511" x2="53.523" y2="123.511" gradientUnits="userSpaceOnUse"><stop stop-color="#FEBBBA"/><stop offset="1" stop-color="#FF928E"/></linearGradient><linearGradient id="paint4_linear_133_2001" x1="73.036" y1="49.397" x2="87.578" y2="49.397" gradientUnits="userSpaceOnUse"><stop stop-color="#FEBBBA"/><stop offset="1" stop-color="#FF928E"/></linearGradient><linearGradient id="paint5_linear_133_2001" x1="84.339" y1="46.96" x2="74.581" y2="69.161" gradientUnits="userSpaceOnUse"><stop stop-color="#FEBBBA"/><stop offset="1" stop-color="#FF928E"/></linearGradient><linearGradient id="paint6_linear_133_2001" x1="87.509" y1="39.566" x2="91.58" y2="33.306" gradientUnits="userSpaceOnUse"><stop stop-color="#FEBBBA"/><stop offset="1" stop-color="#FF928E"/></linearGradient><linearGradient id="paint7_linear_133_2001" x1="41.216" y1="69.996" x2="59.619" y2="69.996" gradientUnits="userSpaceOnUse"><stop stop-color="#FEBBBA"/><stop offset="1" stop-color="#FF928E"/></linearGradient><linearGradient id="paint8_linear_133_2001" x1="58.252" y1="68.066" x2="63.986" y2="68.066" gradientUnits="userSpaceOnUse"><stop stop-color="#FEBBBA"/><stop offset="1" stop-color="#FF928E"/></linearGradient><linearGradient id="paint9_linear_133_2001" x1="52.991" y1="62.14" x2="60.172" y2="48.781" gradientUnits="userSpaceOnUse"><stop stop-color="#FEBBBA"/><stop offset="1" stop-color="#FF928E"/></linearGradient><linearGradient id="paint10_linear_133_2001" x1="60.303" y1="40.349" x2="63.01" y2="56.276" gradientUnits="userSpaceOnUse"><stop stop-color="#FEBBBA"/><stop offset="1" stop-color="#FF928E"/></linearGradient><linearGradient id="paint11_linear_133_2001" x1="54.074" y1="49.399" x2="62.257" y2="43.22" gradientUnits="userSpaceOnUse"><stop stop-color="#FEBBBA"/><stop offset="1" stop-color="#FF928E"/></linearGradient><linearGradient id="paint12_linear_133_2001" x1="-125.747" y1="-186.048" x2="-135.84" y2="-208.252" gradientUnits="userSpaceOnUse"><stop stop-color="#09005D"/><stop offset="1" stop-color="#1A0F91"/></linearGradient><linearGradient id="paint13_linear_133_2001" x1="40.579" y1="148.196" x2="33.507" y2="65.538" gradientUnits="userSpaceOnUse"><stop stop-color="#FEBBBA"/><stop offset="1" stop-color="#FF928E"/></linearGradient><linearGradient id="paint14_linear_133_2001" x1="-108.512" y1="-193.882" x2="-118.604" y2="-216.085" gradientUnits="userSpaceOnUse"><stop stop-color="#09005D"/><stop offset="1" stop-color="#1A0F91"/></linearGradient><linearGradient id="paint15_linear_133_2001" x1="26.353" y1="149.426" x2="19.279" y2="66.746" gradientUnits="userSpaceOnUse"><stop stop-color="#FEBBBA"/><stop offset="1" stop-color="#FF928E"/></linearGradient><linearGradient id="paint16_linear_133_2001" x1="39.352" y1="61.396" x2="40.02" y2="49.539" gradientUnits="userSpaceOnUse"><stop stop-color="#FEBBBA"/><stop offset="1" stop-color="#FF928E"/></linearGradient><linearGradient id="paint17_linear_133_2001" x1="35.879" y1="71.456" x2="27.054" y2="71.456" gradientUnits="userSpaceOnUse"><stop stop-color="#FEBBBA"/><stop offset="1" stop-color="#FF928E"/></linearGradient><linearGradient id="paint18_linear_133_2001" x1="43.721" y1="55.015" x2="36.358" y2="32.527" gradientUnits="userSpaceOnUse"><stop stop-color="#FEBBBA"/><stop offset="1" stop-color="#FF928E"/></linearGradient><linearGradient id="paint19_linear_133_2001" x1="41.031" y1="55.895" x2="33.668" y2="33.407" gradientUnits="userSpaceOnUse"><stop stop-color="#FEBBBA"/><stop offset="1" stop-color="#FF928E"/></linearGradient></defs></svg>