<svg width="114" height="114" fill="none" xmlns="http://www.w3.org/2000/svg"><path opacity=".3" d="M102.011 26.259a.42.42 0 01-.154-.575c.226-.39.439-.796.632-1.206a.42.42 0 01.552-.205l.007.003a.42.42 0 01.202.56 16.82 16.82 0 01-.665 1.27.42.42 0 01-.574.153zm1.281-3.843c.135-.433.253-.875.35-1.316a.421.421 0 01.821.182 16.7 16.7 0 01-.369 1.384.42.42 0 01-.802-.25zm.677-3.503c.036-.45.052-.908.049-1.36a.42.42 0 11.84-.007c.004.476-.013.958-.05 1.433a.42.42 0 01-.839-.066zm-.123-3.566a15.948 15.948 0 00-.256-1.338.42.42 0 11.818-.194c.11.464.2.937.27 1.408a.42.42 0 11-.832.124zm-.914-3.45a15.68 15.68 0 00-.547-1.248.421.421 0 01.755-.37c.21.429.404.87.576 1.314a.42.42 0 11-.784.304zm-1.654-3.162a16.045 16.045 0 00-.81-1.095.421.421 0 01.655-.528c.299.37.585.758.851 1.153a.42.42 0 11-.696.47zM87.551 1.297a.42.42 0 01.418-.423c.476-.003.958.015 1.433.054a.42.42 0 11-.067.838c-.452-.037-.91-.053-1.361-.051a.42.42 0 01-.423-.418zm11.413 4.724a15.94 15.94 0 00-1.032-.887.42.42 0 01.52-.66c.374.293.74.608 1.087.933a.42.42 0 11-.575.614zm-7.76-4.426a.42.42 0 01.501-.318c.465.103.93.229 1.385.372a.42.42 0 11-.253.802 16.143 16.143 0 00-1.315-.354.421.421 0 01-.318-.502zm4.9 2.296a16.27 16.27 0 00-1.206-.634.42.42 0 01.352-.764l.008.004a16.9 16.9 0 011.268.667.42.42 0 11-.423.727zM84.862 1.963a.415.415 0 00.25.029c.212-.04.43-.077.645-.109a.42.42 0 00-.122-.831 16.89 16.89 0 00-.68.114.42.42 0 00-.093.797zM74.198 9.075a.421.421 0 00.523-.154c.119-.181.243-.363.37-.54a.42.42 0 10-.684-.49c-.134.187-.265.378-.39.57a.42.42 0 00.181.614zm6.245 23.561a.42.42 0 01.38-.75c.394.2.803.386 1.22.556a.42.42 0 01-.318.78 17.46 17.46 0 01-1.282-.586zm3.155.792a.42.42 0 01.512-.302c.432.11.873.204 1.311.278a.42.42 0 01-.14.83 16.732 16.732 0 01-1.38-.294.421.421 0 01-.303-.512zm-5.122-1.967a16.735 16.735 0 01-1.124-.852.42.42 0 11.536-.648c.343.284.702.556 1.067.81a.42.42 0 11-.48.69zm8.678 2.565a.42.42 0 01.433-.408c.445.014.895.008 1.34-.016a.42.42 0 11.046.84c-.468.025-.943.031-1.41.017a.42.42 0 01-.409-.433zm-11.461-4.995a16.698 16.698 0 01-.909-1.078.42.42 0 11.666-.514c.272.352.563.697.862 1.024a.42.42 0 01-.62.568zM73.51 26.05a17.008 17.008 0 01-.651-1.251.42.42 0 01.761-.357c.19.403.397.803.62 1.189a.42.42 0 11-.73.419zm-1.48-3.387a16.98 16.98 0 01-.364-1.362.42.42 0 01.82-.183c.097.434.213.87.346 1.295a.42.42 0 01-.802.25zm-.708-3.628a16.686 16.686 0 01-.056-1.41.42.42 0 11.84.002c0 .445.018.895.054 1.34a.42.42 0 01-.838.068zm.108-3.697c.065-.463.152-.93.256-1.387a.42.42 0 11.82.187c-.1.434-.181.877-.243 1.317a.42.42 0 11-.833-.117zm.916-3.58a16.99 16.99 0 01.55-1.298c.1-.21.35-.304.56-.2.21.1.3.35.2.56a16.258 16.258 0 00-.523 1.234.42.42 0 11-.787-.296zm18.66 22.371a.419.419 0 00.251.028c.224-.043.45-.092.674-.145a.42.42 0 00-.194-.818c-.213.05-.428.097-.64.138a.42.42 0 00-.091.797z" fill="#91B3FA"/><path d="M95.043 28.158a.197.197 0 00.106-.202l-.319-2.37a10.419 10.419 0 002.207-2.554l2.39-.03a.196.196 0 00.184-.134l.902-2.723a.198.198 0 00-.067-.218l-1.9-1.45c.102-1.145.013-2.28-.248-3.366l1.67-1.712a.195.195 0 00.035-.225l-1.288-2.563a.197.197 0 00-.202-.107l-2.37.319a10.42 10.42 0 00-2.554-2.207l-.03-2.39a.196.196 0 00-.134-.184l-2.723-.902a.197.197 0 00-.218.067l-1.45 1.9a10.411 10.411 0 00-3.366.248l-1.712-1.67a.196.196 0 00-.225-.035l-2.563 1.288a.196.196 0 00-.107.202l.319 2.37a10.419 10.419 0 00-2.207 2.554l-2.39.03a.196.196 0 00-.184.134l-.902 2.723a.197.197 0 00.067.218l1.9 1.45a10.412 10.412 0 00.248 3.366l-1.67 1.712a.196.196 0 00-.035.226l1.288 2.563a.197.197 0 00.202.106l2.37-.319a10.418 10.418 0 002.554 2.207l.03 2.39a.197.197 0 00.134.184l2.723.902c.08.026.168 0 .218-.067l1.45-1.9c1.145.102 2.28.013 3.366-.248l1.712 1.67c.06.059.15.073.225.035l2.564-1.288z" fill="#74FCFD"/><path opacity=".56" d="M86.556 19.98a2.887 2.887 0 01-.883-3.98 2.863 2.863 0 011.807-1.266 2.865 2.865 0 012.174.382 2.887 2.887 0 01.883 3.981 2.888 2.888 0 01-3.98.884zm1.07-4.59a2.197 2.197 0 00-1.386.97 2.213 2.213 0 00.678 3.053 2.213 2.213 0 003.052-.678 2.213 2.213 0 00-2.344-3.345z" fill="#91B3FA"/><path d="M85.175 23.959a7.109 7.109 0 002.01.567c.006 0 .01 0 .016.002l.043.005.085.01a.168.168 0 10.036-.335 6.753 6.753 0 01-5.83-5.071 6.712 6.712 0 01.388-4.417 6.702 6.702 0 013.127-3.263 6.71 6.71 0 015.155-.377 6.76 6.76 0 014.04 9.174c-.403.902-1 1.706-1.75 2.351a.167.167 0 00-.018.237.17.17 0 00.238.018 7.072 7.072 0 002.098-3.14c1.229-3.712-.792-7.731-4.502-8.96a7.043 7.043 0 00-5.412.396 7.039 7.039 0 00-3.547 4.106 7.043 7.043 0 00.395 5.412 7.034 7.034 0 003.428 3.285z" fill="#BDD0FB"/><path opacity=".3" d="M110.622 42.251a.259.259 0 00.303-.069c.143-.167.283-.342.416-.518a.26.26 0 00-.415-.313c-.126.168-.26.334-.396.494a.26.26 0 00.092.406zm1.127-1.644a.26.26 0 01-.095-.355 10.779 10.779 0 00.586-1.181.26.26 0 01.34-.138.268.268 0 01.138.34 10.915 10.915 0 01-.615 1.238.259.259 0 01-.354.096zm.929-2.78c.121-.422.216-.855.283-1.288a.26.26 0 11.513.08c-.07.454-.17.908-.296 1.35a.26.26 0 01-.357.166.26.26 0 01-.143-.308zm.405-2.6c.013-.439-.001-.882-.042-1.319a.259.259 0 01.234-.283.259.259 0 01.283.234c.043.458.058.923.045 1.383a.261.261 0 01-.366.23.26.26 0 01-.154-.246zm-.247-2.622a10.833 10.833 0 00-.363-1.267.26.26 0 11.489-.174c.153.433.281.88.381 1.33a.26.26 0 01-.507.111zm-.879-2.481a10.798 10.798 0 00-.66-1.141.26.26 0 11.433-.287c.253.382.486.785.692 1.196a.26.26 0 11-.465.232zm-1.455-2.193c-.285-.332-.594-.65-.917-.945a.26.26 0 11.349-.384c.34.309.663.642.962.991a.26.26 0 11-.394.338zm-1.945-1.77a10.681 10.681 0 00-1.123-.69.26.26 0 11.245-.459c.406.217.803.461 1.177.725a.26.26 0 11-.299.425zm-3.769-1.95a.26.26 0 01.315-.19c.385.097.771.216 1.147.354.058.02.114.042.171.064.135.047.2.202.148.335a.26.26 0 01-.336.15 10.684 10.684 0 00-1.257-.398.26.26 0 01-.188-.315zm-7.121 20.866c-.41-.19-.813-.408-1.197-.645a.26.26 0 01.274-.441c.365.226.75.433 1.141.614a.26.26 0 01-.215.473l-.003-.001zm1.1.169a.26.26 0 01.327-.167c.41.133.833.242 1.256.325a.26.26 0 01-.1.51 11.292 11.292 0 01-1.342-.352.259.259 0 01-.141-.316zm-3.407-1.6a11.26 11.26 0 01-1.006-.915.26.26 0 11.372-.362c.3.309.623.602.96.873a.26.26 0 11-.326.404zm5.998 2.17a.26.26 0 01.277-.24c.431.03.867.034 1.298.012a.26.26 0 01.026.519c-.451.023-.909.019-1.36-.013a.26.26 0 01-.241-.278zm-7.89-4.115a11.28 11.28 0 01-.756-1.13.26.26 0 11.448-.262c.218.372.46.735.721 1.078a.26.26 0 11-.413.314zm-1.37-2.342c-.18-.416-.337-.846-.465-1.278a.26.26 0 11.498-.148c.122.413.271.823.443 1.22a.26.26 0 01-.477.206zm-.771-2.604a11.317 11.317 0 01-.144-1.353.26.26 0 01.52-.023c.019.43.064.864.136 1.29a.26.26 0 01-.512.086zm12.845 9.179c.046.02.098.028.151.018a11.5 11.5 0 00.65-.134.26.26 0 00.193-.312.261.261 0 00-.313-.193c-.203.048-.411.091-.62.128a.26.26 0 00-.061.493z" fill="#91B3FA"/><path d="M107.06 41.922a.131.131 0 00.071-.136l-.213-1.586a6.962 6.962 0 001.477-1.708l1.599-.02a.133.133 0 00.124-.09l.603-1.823a.133.133 0 00-.045-.145l-1.272-.97a6.98 6.98 0 00-.165-2.253l1.117-1.146a.13.13 0 00.024-.15l-.862-1.715a.132.132 0 00-.135-.072l-1.586.213a6.97 6.97 0 00-1.709-1.477l-.02-1.599a.132.132 0 00-.09-.123l-1.822-.604a.131.131 0 00-.146.046l-.97 1.27a6.97 6.97 0 00-2.253.166l-1.146-1.117a.13.13 0 00-.15-.024l-1.715.862a.132.132 0 00-.072.135l.214 1.586a6.97 6.97 0 00-1.478 1.709l-1.599.02a.132.132 0 00-.123.09l-.603 1.822a.131.131 0 00.045.146l1.271.97a6.97 6.97 0 00.166 2.253l-1.118 1.145a.13.13 0 00-.023.151l.861 1.715c.026.05.08.079.136.071l1.586-.213a6.97 6.97 0 001.709 1.477l.02 1.6a.13.13 0 00.09.123l1.822.603c.053.017.112 0 .146-.045l.97-1.272a6.969 6.969 0 002.252-.165l1.146 1.117a.13.13 0 00.151.024l1.715-.861z" fill="#74FCFD"/><path d="M101.363 36.479a1.952 1.952 0 01-.863-1.231 1.967 1.967 0 012.973-2.082 1.966 1.966 0 01-.63 3.574 1.954 1.954 0 01-1.48-.261zm-.164-2.433a1.44 1.44 0 00.443 1.995c.326.207.712.275 1.089.191a1.446 1.446 0 00.276-2.73 1.446 1.446 0 00-1.808.544z" fill="#BDD0FB"/><path d="M100.402 39.248a4.874 4.874 0 001.481.4.26.26 0 00.056-.516 4.384 4.384 0 01-.909-.198l-.048-.016a4.332 4.332 0 01-2.467-2.136l-.004-.008-.014-.027a4.345 4.345 0 01-.081-3.757 4.338 4.338 0 012.024-2.113 4.342 4.342 0 013.337-.244 4.349 4.349 0 012.533 2.188 4.346 4.346 0 01.083 3.751 4.352 4.352 0 01-1.132 1.522.26.26 0 10.338.393 4.886 4.886 0 001.448-2.166 4.857 4.857 0 00-.273-3.734 4.857 4.857 0 00-2.833-2.447 4.859 4.859 0 00-3.734.273 4.853 4.853 0 00-2.447 2.833 4.898 4.898 0 002.642 6.002z" fill="#BDD0FB"/><path d="M1.61 19.03a3.2 3.2 0 012.476-.852c9.72.874 27.858-3.809 39.711-15.937.823-.842 2.324-.366 3.267.339 13.182 9.853 35.034 11.893 42.62 12.31a3.2 3.2 0 013.005 2.867c6.898 66.628-36.483 90.772-45.48 95.034a3.21 3.21 0 01-3.066-.177C-.699 84.682 1.22 48.358.6 21.444a3.207 3.207 0 011.012-2.415z" fill="#74A1BB"/><path d="M45.995 107.933c-.197 0-.394-.056-.565-.165-17.19-10.987-28.39-24.123-34.247-40.156C5.952 53.29 5.696 38.707 5.469 25.84l-.03-1.716a1.043 1.043 0 011.047-1.06c10.65 0 26.635-4.703 38.36-15.208a1.044 1.044 0 011.273-.093C59.001 16.312 77.374 18.8 87.18 19.523c.513.038.918.437.963.95 2.278 25.993-3.128 47.972-16.069 65.328-9.664 12.962-21.124 19.715-25.603 22.017a1.032 1.032 0 01-.475.115zm.293-.47l.091.178-.091-.178c4.454-2.289 15.85-9.005 25.465-21.9 12.88-17.275 18.26-39.163 15.991-65.055a.64.64 0 00-.593-.586c-9.845-.726-28.295-3.227-41.252-11.825a.645.645 0 00-.786.057c-5.4 4.839-12.206 8.847-19.681 11.592-6.529 2.397-13.254 3.718-18.936 3.718a.651.651 0 00-.475.194.635.635 0 00-.182.46l.03 1.716c.226 12.835.481 27.383 5.69 41.641 5.825 15.948 16.975 29.018 34.086 39.957a.65.65 0 00.643.031z" fill="#C6EEEF"/><path d="M58.633 33.855l10.499 21.112 13.496-29.99L68.61 40.498l-9.976-6.643z" fill="#C6EEEF"/><path d="M29.278 113.132a.56.56 0 01.014-.14c.696-2.758 3.54-4.172 3.54-4.172l1.37.107c.786 2.431 1.293 3.618 1.167 4.282l-.014.055c-1.13.1-3.452.166-6.077-.132z" fill="#000"/><path d="M35.354 113.263a.593.593 0 01-.434.439c-1.605.337-4.158.066-5.229-.074-.236-.031-.41-.25-.413-.497 2.625.299 4.948.233 6.076.132z" fill="#74A1BB"/><path d="M31.706 106.69l.599 2.884a.47.47 0 00.403.388c.241.023.584.036.928-.015.31-.045.525-.359.47-.696l-.417-2.561h-1.983z" fill="url(#paint0_linear_132_1828)"/><path d="M46.981 113.239c-1.461-.041-2.217-.213-2.608-.373-.001.146 0 .294.004.447.005.163.127.294.276.293l8.024-.051c.256-.002.405-.299.294-.534-1.051.087-3.73.282-5.99.218z" fill="#74A1BB"/><path d="M52.972 113.021c-.01-.02-.018-.041-.032-.06-.709-.991-2.513-2.962-6.08-3.817l-1.71-.054s-.762 1.324-.777 3.777c.39.16 1.147.332 2.608.373 2.26.063 4.939-.132 5.991-.219z" fill="#000"/><path d="M44.832 106.497c.019.127.254 2.065.344 2.817a.374.374 0 00.314.336c.291.035.763.066 1.175-.018.223-.045.383-.259.383-.508v-3.042l-2.216.415z" fill="url(#paint1_linear_132_1828)"/><path d="M32.85 68.817s-2.739 24.336-1.218 39.546c0 0 1.826 0 2.738-.304 0 0 2.845-23.795 3.765-30.603.035-.257.401-.269.452-.015 1.135 5.728 5.595 28.192 6.125 30.313 0 0 1.521.609 2.739 0 0 0-2.434-32.549-4.26-38.329l-10.342-.608z" fill="#000"/><path d="M27.373 40.527s11.56-1.825 20.686.609l-.608 9.43s-2.434 13.08-4.26 18.86c0 0-6.996 1.217-10.342-.608 0 0-2.738-16.427-4.26-18.86.001 0-1.52-6.389-1.216-9.43z" fill="#74FCFD"/><path d="M35.404 32.215l-1.152 7.787s3.218 1.478 5.47-.063l-.485-5.496-3.833-2.228z" fill="url(#paint2_linear_132_1828)"/><path d="M40.362 27.143c.036.066.73 3.993 1.157 6.424a1.706 1.706 0 01-1.58 1.998l-.932.055a3.322 3.322 0 01-3.48-2.814l-.674-4.403s4.628-2.856 5.509-1.26z" fill="url(#paint3_linear_132_1828)"/><path d="M33.848 28.414c-.357-.445-.67-1.163.092-1.919.77-.765 1.645-.574 2.2-.318a.614.614 0 00.722-.143.39.39 0 01.364-.135.574.574 0 00.648-.499c.066-.552.36-1.202 1.337-1.39 1.79-.347 2.684 1.445 2.652 2.705-.032 1.26-1.995 1.525-3.108 1.316-.819-.154-1.526.565-1.844.957a.59.59 0 00-.117.508l.284 1.217c-.197.378-.389.764-.665 1.087-.198.233-.415.36-.646.415-.334-.621-1.268-.727-1.702-.74a.595.595 0 01-.43-.204c-.327-.376-.84-1.213.141-2.036a.593.593 0 00.072-.821z" fill="#000"/><path d="M36.09 33.517s-.039-2.197-.928-2.403c-.89-.207-1.849.436-1.088 1.752.946 1.636 2.016.651 2.016.651z" fill="url(#paint4_linear_132_1828)"/><path d="M27.373 40.527S9.425 59.996 30.567 67.448v-1.52s-7.909-6.693-1.825-15.819c0 0-.76-8.67-1.369-9.582z" fill="#74FCFD"/><path d="M30.72 66.08s2.738-1.826 3.954-1.218c1.217.609 1.217 1.521 1.217 1.521s-.608 1.217-1.52.913c-.913-.304-3.043.304-3.955 0 0 0-.305-1.217.304-1.217z" fill="url(#paint5_linear_132_1828)"/><path d="M48.06 41.135s18.708 18.86-2.434 26.313v-1.52s7.91-6.693 1.825-15.819c0 0-.608-7.453.608-8.974z" fill="#74FCFD"/><path d="M45.473 66.08s-2.737-1.826-3.954-1.218c-1.217.609-1.217 1.521-1.217 1.521s.608 1.217 1.52.913c.913-.304 3.043.304 3.955 0 0 0 .305-1.217-.304-1.217z" fill="url(#paint6_linear_132_1828)"/><path d="M22.375 28.377s-1.907.928-2.257 1.993c-.281.854-2.389.965-2.597 2.645-.107.868-.75 1.563-1.614 1.696-2.153.33-5.47 1.447-6.002 5.185-.405 2.853 1.05 3.935 2.576 4.31 1.12.274 1.866 1.365 1.639 2.497-.217 1.085.107 2.34 1.988 3.333 4.214 2.224 8.423-5.269 8.423-5.269l.862-13.082-3.018-3.308zM5.052 110.406l-.273 2.242a.927.927 0 01-.813.81c-.718.082-1.872.166-3 .047a.793.793 0 01-.666-1.029c.275-.865.778-2.165 1.504-2.929H4.29c.46 0 .816.402.76.859z" fill="#000"/><path d="M24.531 84.142l.42 2.47s-1.406 14.239-1.656 19.934a4.47 4.47 0 00.66 2.537l2.445 3.969-6.212-3.666-.124-.758 1.017-1.398-1.332-15.951a4.896 4.896 0 01.557-2.707l1.284-2.414 2.941-2.016z" fill="url(#paint7_linear_132_1828)"/><path d="M26.809 113.627h-1.983c-.37 0-.72-.17-.947-.464-.618-.803-1.899-2.37-2.51-2.411-.825-.055-.72 2.875-.72 2.875h-.461l-.585-3.641a2.156 2.156 0 011.13-2.253s.19 1.394 1.211 2.01c1.022.616 4.157 2.824 4.157 2.824s.384-.055.806.021c.625.113.538 1.039-.098 1.039z" fill="#000"/><path d="M16.022 85.315s-8.235 15.622-9.544 19.189c-1.31 3.566-1.768 6.542-1.785 6.824-.028.44-.576.862-2.085.862-.779 0-1.16-.312-1.347-.614a.88.88 0 01-.034-.852c.477-.965 1.989-4.046 2.548-5.443.669-1.668 2.107-9.23 2.895-11.859.789-2.628 1.68-5.48 5.115-8.107 0 0 2.357-2.309 4.237 0z" fill="url(#paint8_linear_132_1828)"/><path d="M21.225 59.718c2.124-9.002-3.258-14.093-3.258-14.093 3.396-3.26 9.583-4.743 9.583-4.743s5.904 4.317 5.203 7.695c-.41 1.98-4.15 11.86-4.15 11.86s-3.457 1.636-7.378-.719z" fill="#597B8E"/><path d="M16.515 64.175c.864-2.604 4.71-4.456 4.71-4.456 3.92 2.355 7.379.718 7.379.718s.775 2.964.24 5.719c-.535 2.754-3.893 20.456-3.893 20.456-5.291 1.072-13.428-1.078-13.428-1.078 3.37-5.984 4.127-18.754 4.992-21.359z" fill="#000"/><path d="M23.69 34.934l-1.727 7.758c-.165.684.458.572 1.149.441 1.131-.213 2.59-.652 3.077-1.533.05-.09.075-.19.088-.292l.742-5.38a.966.966 0 00-.565-1.015l-1.432-.635a.967.967 0 00-1.331.656z" fill="url(#paint9_linear_132_1828)"/><path d="M17.968 45.625s-12.055 8.624-1.542 17.687c0 0 .4.453 1.19.689.397.119 1.575 1.01 2.172 1.474.192.15.47.099.598-.107a.559.559 0 00.032-.536l-1.493-3.156a1.151 1.151 0 00-1.495-.064.568.568 0 01-.86-.195c-.814-1.656-2.348-6.524 3.933-12.024a.68.68 0 00.15-.828c-.44-.847-1.45-2.53-2.685-2.94z" fill="url(#paint10_linear_132_1828)"/><path d="M26.998 27.862s1.84 1.245 2.63 4.414c.79 3.17-.494 4.307-1.81 4.237-1.317-.07-3.225-.476-4.879-2.75-1.653-2.274 1.65-7.422 4.06-5.901z" fill="url(#paint11_linear_132_1828)"/><path d="M24.607 32.484s-.674-4.542 3.097-3.847l.762.794s1.846-2.079-.196-3.65c-2.043-1.572-4.877-1.17-6.446 1.691-1.568 2.861-2.137 4.871-.823 6.649 1.315 1.777 2.303.253 2.303.253s-.602-1.539-.103-2.199c.5-.66 1.146.384 1.146.384l.26-.075z" fill="#000"/><path d="M24.091 32.873s-.332-2.337-1.526-1.668c-1.193.668.43 2.183 1.081 2.698l.445-1.03z" fill="url(#paint12_linear_132_1828)"/><defs><linearGradient id="paint0_linear_132_1828" x1="33.383" y1="103.914" x2="32.163" y2="114.56" gradientUnits="userSpaceOnUse"><stop stop-color="#FEBBBA"/><stop offset="1" stop-color="#FF928E"/></linearGradient><linearGradient id="paint1_linear_132_1828" x1="46.233" y1="105.276" x2="45.092" y2="115.234" gradientUnits="userSpaceOnUse"><stop stop-color="#FEBBBA"/><stop offset="1" stop-color="#FF928E"/></linearGradient><linearGradient id="paint2_linear_132_1828" x1="34.252" y1="36.428" x2="39.722" y2="36.428" gradientUnits="userSpaceOnUse"><stop stop-color="#FEBBBA"/><stop offset="1" stop-color="#FF928E"/></linearGradient><linearGradient id="paint3_linear_132_1828" x1="492.963" y1="-385.913" x2="500.229" y2="-392.581" gradientUnits="userSpaceOnUse"><stop stop-color="#FEBBBA"/><stop offset="1" stop-color="#FF928E"/></linearGradient><linearGradient id="paint4_linear_132_1828" x1="492.002" y1="-386.97" x2="499.268" y2="-393.639" gradientUnits="userSpaceOnUse"><stop stop-color="#FEBBBA"/><stop offset="1" stop-color="#FF928E"/></linearGradient><linearGradient id="paint5_linear_132_1828" x1="35.584" y1="64.341" x2="25.849" y2="72.655" gradientUnits="userSpaceOnUse"><stop stop-color="#FEBBBA"/><stop offset="1" stop-color="#FF928E"/></linearGradient><linearGradient id="paint6_linear_132_1828" x1="41.441" y1="64.789" x2="46.916" y2="70.264" gradientUnits="userSpaceOnUse"><stop stop-color="#FEBBBA"/><stop offset="1" stop-color="#FF928E"/></linearGradient><linearGradient id="paint7_linear_132_1828" x1="25.318" y1="130.464" x2="18.418" y2="49.82" gradientUnits="userSpaceOnUse"><stop stop-color="#FEBBBA"/><stop offset="1" stop-color="#FF928E"/></linearGradient><linearGradient id="paint8_linear_132_1828" x1="11.438" y1="131.664" x2="4.536" y2="50.999" gradientUnits="userSpaceOnUse"><stop stop-color="#FEBBBA"/><stop offset="1" stop-color="#FF928E"/></linearGradient><linearGradient id="paint9_linear_132_1828" x1="26.074" y1="50.973" x2="24.778" y2="41.491" gradientUnits="userSpaceOnUse"><stop stop-color="#FEBBBA"/><stop offset="1" stop-color="#FF928E"/></linearGradient><linearGradient id="paint10_linear_132_1828" x1="20.732" y1="55.593" x2="12.122" y2="55.593" gradientUnits="userSpaceOnUse"><stop stop-color="#FEBBBA"/><stop offset="1" stop-color="#FF928E"/></linearGradient><linearGradient id="paint11_linear_132_1828" x1="28.382" y1="39.554" x2="21.199" y2="17.614" gradientUnits="userSpaceOnUse"><stop stop-color="#FEBBBA"/><stop offset="1" stop-color="#FF928E"/></linearGradient><linearGradient id="paint12_linear_132_1828" x1="25.758" y1="40.413" x2="18.575" y2="18.473" gradientUnits="userSpaceOnUse"><stop stop-color="#FEBBBA"/><stop offset="1" stop-color="#FF928E"/></linearGradient></defs></svg>